<?xml version="1.0" encoding="utf-8"?>
<!-- Generator: Adobe Illustrator 21.1.0, SVG Export Plug-In . SVG Version: 6.00 Build 0)  -->
<svg version="1.1" id="Слой_1" xmlns="http://www.w3.org/2000/svg" xmlns:xlink="http://www.w3.org/1999/xlink" x="0px" y="0px"
	 viewBox="0 0 318.5 359" style="enable-background:new 0 0 318.5 359;" xml:space="preserve">
<style type="text/css">
	.st0{fill:#FFFFFF;}
	.st1{fill:none;stroke:#FFFFFF;stroke-width:0.7087;stroke-linecap:round;stroke-linejoin:round;stroke-miterlimit:10;}
	.st2{fill:#ED6720;}
	.st3{fill:none;stroke:#ED6720;stroke-width:0.7087;stroke-linecap:round;stroke-linejoin:round;stroke-miterlimit:10;}
</style>
<polygon class="st0" points="176.8,97.6 176.8,98 176.8,98.6 176.8,98.9 176.8,99.3 177,99.3 177,99.5 177,99.7 177,99.9 177,100.1 
	177,100.2 177.2,100.2 177.2,100.4 177.2,100.6 177.2,100.6 177.4,100.8 177.4,101 177.4,101 177.4,101.2 177.5,101.2 177.5,101.4 
	177.5,101.4 177.5,101.4 177.5,101.4 177.7,101.6 177.7,101.6 177.7,101.6 177.7,101.6 177.7,101.6 177.7,101.8 177.9,101.8 
	177.9,101.8 177.9,101.8 177.9,101.8 177.9,101.8 177.9,101.9 178.1,101.9 178.1,101.9 178.1,101.9 178.1,101.9 178.1,101.9 
	178.3,102.1 178.3,102.1 178.3,102.1 178.3,102.1 178.3,102.1 178.3,102.1 178.5,102.1 178.5,102.1 178.5,102.1 178.5,102.3 
	178.5,102.3 178.7,102.3 178.7,102.3 178.9,102.3 178.9,102.3 178.9,102.3 179.1,102.3 179.1,102.3 179.2,102.5 179.2,102.5 
	179.4,102.5 179.4,102.5 179.4,102.5 179.6,102.5 179.8,102.5 180,102.5 180.4,102.5 181.1,102.5 181.3,102.5 181.5,102.5 
	181.7,102.5 181.7,102.5 181.9,102.5 181.9,102.5 182.1,102.5 182.1,102.5 182.3,102.3 182.3,102.3 182.4,102.3 182.4,102.3 
	182.4,102.3 182.6,102.3 182.6,102.3 182.6,102.3 182.6,102.3 182.8,102.1 182.8,102.1 182.8,102.1 182.8,102.1 183,102.1 
	183,102.1 183,102.1 183,102.1 183,101.9 183.2,101.9 183.2,101.9 183.2,101.9 183.2,101.9 183.4,101.9 183.4,101.8 183.4,101.8 
	183.4,101.8 183.4,101.8 183.6,101.8 183.6,101.6 183.6,101.6 183.6,101.6 183.8,101.6 183.8,101.4 183.8,101.4 183.8,101.4 
	183.8,101.4 184,101.2 184,101.2 184,101 184,101 184.1,100.8 184.1,100.6 184.3,100.6 184.3,100.4 184.3,100.2 184.5,100.1 
	184.5,99.9 184.5,99.7 184.5,99.5 184.7,99.3 184.7,99.1 184.7,98.9 184.9,98.6 184.9,98 185.1,97.4 185.1,97 185.1,96.3 
	185.1,95.7 185.3,95 185.3,93.1 185.3,88.9 185.3,87.8 185.3,86.9 185.3,85.7 185.3,84.8 185.3,83.9 185.3,82.7 185.5,81.8 
	185.5,80.6 185.5,79.7 185.7,78.8 185.7,78 185.8,77.3 185.8,76.5 186,75.7 186,75 186.2,74.2 186.4,73.5 186.4,72.9 186.6,72.2 
	186.8,71.4 187,70.7 187,69.9 187.3,68.6 187.7,67.1 187.9,65.6 188.3,64.2 189.8,58.4 190.2,56.9 190.4,55.4 190.7,53.9 
	191.1,52.4 191.3,51.6 191.3,50.9 191.5,50.1 191.7,49.4 191.9,48.6 191.9,47.9 192.1,47.1 192.1,46.3 192.2,45.6 192.4,44.6 
	192.4,43.9 192.6,43.1 192.6,42.4 192.6,41.6 192.8,40.7 192.8,39.9 192.8,39.2 192.8,38.2 192.8,37.5 192.8,36.7 192.8,35.8 
	192.8,35 192.8,34.1 192.8,33.3 192.8,32.4 192.6,31.6 192.6,30.7 192.6,29.8 192.4,29 192.4,28.2 192.2,27.5 192.1,26.7 
	192.1,25.8 191.9,25 191.7,24.3 191.5,23.5 191.3,22.6 191.1,21.8 190.9,21.1 190.7,20.3 190.6,19.6 190.4,18.8 190,18.1 
	189.8,17.1 189.4,16.6 189.2,15.8 188.9,15.1 188.7,14.3 188.3,13.5 187.9,13 187.9,12.6 187.7,12.2 187.5,11.9 187.3,11.5 
	187.2,11.3 187,10.9 186.8,10.5 186.6,10.3 186.4,10 186.2,9.6 186,9.4 185.8,9 185.7,8.8 185.5,8.5 185.1,8.3 184.9,7.9 184.7,7.7 
	184.5,7.5 184.3,7.1 184.1,7 184,6.8 183.6,6.4 183.4,6.2 183.2,6 183,5.8 182.8,5.6 182.4,5.4 182.3,5.3 182.1,5.1 181.9,4.9 
	181.5,4.7 181.3,4.5 181.1,4.3 180.9,4.1 180.6,3.9 180.4,3.7 180.2,3.6 179.8,3.6 179.6,3.4 179.4,3.2 179.1,3 178.9,3 178.5,2.8 
	178.3,2.6 178.1,2.6 177.7,2.4 177.5,2.2 177.2,2.2 176.6,2.1 176,1.9 175.5,1.7 174.9,1.5 174.3,1.3 173.8,1.1 173.2,0.9 
	172.6,0.9 171.9,0.7 171.3,0.7 170.8,0.5 170.2,0.5 169.4,0.5 168.9,0.4 168.1,0.4 167.6,0.4 167,0.4 166.2,0.4 165.7,0.4 
	164.9,0.4 164.4,0.4 163.6,0.4 163,0.4 162.3,0.4 161.7,0.4 161,0.4 160.2,0.4 159.6,0.5 158.3,0.5 156.8,0.7 155.5,0.7 150,1.3 
	148.7,1.5 147.4,1.5 146.1,1.7 145.3,1.7 144.8,1.7 143.6,1.9 142.3,1.9 141.2,1.9 140,1.9 138.9,1.9 137.8,1.9 136.6,1.9 
	135.5,1.9 131.2,1.9 130.1,1.9 128.9,1.9 127.8,1.9 126.7,1.9 125.7,1.9 124.6,1.9 123.5,2.1 122.3,2.1 121.8,2.1 121.2,2.1 
	120.6,2.2 120.1,2.2 119.5,2.2 119.1,2.4 118.6,2.4 118,2.4 117.4,2.6 116.9,2.6 116.3,2.8 115.7,2.8 115.2,3 114.6,3 114,3.2 
	113.5,3.4 112.7,3.4 112.1,3.6 111.6,3.7 111,3.9 110.4,3.9 109.9,4.1 109.3,4.3 108.8,4.5 108,4.9 107.2,5.1 106.5,5.3 105.7,5.6 
	105,5.8 104.4,6.2 103.7,6.6 102.9,7 102.2,7.1 101.4,7.5 100.8,7.9 100.1,8.3 99.3,8.8 99,9 98.8,9.2 98.4,9.4 98,9.6 97.6,9.8 
	97.4,10 97.1,10.2 96.7,10.5 96.5,10.7 96.1,10.9 95.9,11.1 95.6,11.5 95.2,11.7 95,11.9 94.6,12.2 94.4,12.4 94.2,12.6 93.9,13 
	93.7,13.2 93.3,13.4 93.1,13.7 92.9,13.9 92.7,14.3 92.4,14.5 92.2,14.9 92,15.1 91.8,15.4 91.6,15.6 91.4,16 91.2,16.2 91,16.6 
	90.8,16.9 90.7,17.1 90.5,17.5 90.3,17.7 90.3,18.1 90.1,18.4 89.9,18.6 89.9,19 89.7,19.2 89.7,19.4 89.7,19.8 89.5,20 89.5,20.1 
	89.5,20.5 89.3,20.7 89.3,21.3 89.2,21.7 89.2,22.2 89.2,22.8 89,23.3 89,23.7 89,24.3 89,24.9 89,25.4 89,26 89,26.6 89,27.1 
	89.2,27.7 89.2,28.1 89.2,28.6 89.2,29.2 89.3,30.3 89.5,31.5 89.9,34.8 90.1,36 90.1,36.9 90.3,38.1 90.3,39 90.5,40.1 90.5,41.1 
	90.5,42 90.5,43.1 90.7,44.1 90.7,45 90.7,46 90.7,46.9 90.7,48 90.7,49 90.7,49.9 90.5,50.9 90.5,51.8 90.5,53.7 90.3,55.6 
	90.3,59.3 90.1,61.2 90.1,63.1 90.1,64.1 89.9,65 89.9,65.9 89.9,66.9 89.9,68 89.9,69.1 89.9,70.3 89.9,71.2 89.9,72.4 90.1,73.5 
	90.1,74.6 90.1,75.6 90.1,77.8 90.3,80.1 90.5,86.7 90.7,88.9 90.7,91.2 90.8,92.3 90.8,93.5 90.8,94.6 90.8,95.7 90.8,96.9 
	90.8,98 90.8,98.9 90.8,100.1 90.8,101.2 90.8,102.3 90.8,102.5 90.8,102.7 90.8,102.7 90.8,102.9 90.8,102.9 90.8,103.1 
	90.8,103.3 90.8,103.3 90.8,103.5 90.8,103.5 90.8,103.6 90.8,103.6 91,103.8 91,103.8 91,104 91,104 91,104 91,104 91,104 
	91,104.2 91,104.2 91.2,104.2 91.2,104.2 91.2,104.2 91.2,104.2 91.2,104.4 91.2,104.4 91.2,104.4 91.2,104.4 91.2,104.4 
	91.4,104.4 91.4,104.6 91.4,104.6 91.4,104.6 91.4,104.6 91.4,104.6 91.4,104.6 91.4,104.6 91.6,104.6 91.6,104.8 91.6,104.8 
	91.6,104.8 91.6,104.8 91.6,104.8 91.6,104.8 91.8,104.8 91.8,104.8 91.8,104.8 91.8,104.8 91.8,105 91.8,105 92,105 92,105 92,105 
	92,105 92.2,105 92.2,105 92.2,105 92.4,105.1 92.4,105.1 92.5,105.1 92.5,105.1 92.5,105.1 92.7,105.1 92.7,105.1 92.9,105.1 
	93.1,105.1 93.3,105.1 93.7,105.1 94.1,105.1 94.8,105.1 95.2,105.1 95.4,105.1 95.6,105.1 95.7,105.1 95.9,105.1 96.1,105.1 
	96.1,105.1 96.3,105.1 96.3,105.1 96.5,105 96.5,105 96.7,105 96.7,105 96.9,105 96.9,105 97.1,105 97.1,104.8 97.3,104.8 
	97.3,104.8 97.3,104.8 97.4,104.6 97.4,104.6 97.4,104.6 97.4,104.6 97.6,104.6 97.6,104.6 97.6,104.6 97.6,104.4 97.6,104.4 
	97.8,104.4 97.8,104.4 97.8,104.4 97.8,104.4 97.8,104.2 98,104.2 98,104.2 98,104.2 98,104.2 98,104 98,104 98.2,104 98.2,104 
	98.2,103.8 98.2,103.8 98.2,103.8 98.2,103.8 98.4,103.6 98.4,103.6 98.4,103.6 98.4,103.6 98.4,103.5 98.6,103.3 98.6,103.3 
	98.6,103.1 98.6,102.9 98.6,102.9 98.8,102.7 98.8,102.5 98.8,102.5 98.8,102.3 98.8,102.1 98.8,101.9 98.8,101.8 99,101.6 
	99,101.4 99,101.2 99,101 99,100.2 99,99.5 98.8,98 98.8,96.5 98.8,95 98.8,94 98.6,92.9 98.6,91.8 98.6,90.6 98.4,89.3 98.4,88 
	97.8,80.3 97.8,78.2 97.6,76.1 97.6,75.2 97.6,74 97.4,73.1 97.4,72 97.4,70.7 97.4,69.3 97.4,68.6 97.4,68 97.4,67.3 97.4,66.5 
	97.4,65.6 97.4,64.6 97.6,63.7 97.6,62.9 97.6,61.8 97.6,60.9 97.8,59 98,56.7 98.4,51.8 98.6,50.7 98.6,49.4 98.8,48.2 98.8,47.3 
	98.8,46.2 99,45 99,43.9 99,42.8 99,41.6 99.1,40.7 99.1,39.4 99.1,38.2 99.1,37.1 99.1,36 99.1,34.8 99,30.7 99,29.9 99,29.2 
	99,28.4 99,27.9 99,27.5 99,26.9 99,26.6 99,26.2 99,25.8 99,25.4 99.1,25 99.1,24.7 99.1,24.3 99.1,24.1 99.3,23.7 99.3,23.5 
	99.3,23.3 99.5,23.2 99.5,23.2 99.5,23 99.5,23 99.5,22.8 99.7,22.8 99.7,22.6 99.7,22.6 99.7,22.4 99.9,22.4 99.9,22.2 99.9,22.2 
	100.1,22 100.1,22 100.3,21.8 100.3,21.8 100.3,21.7 100.5,21.7 100.5,21.5 100.6,21.5 100.8,21.3 100.8,21.3 101,21.1 101,20.9 
	101.2,20.9 101.4,20.7 101.6,20.5 101.8,20.5 102,20.3 102.3,20.1 102.7,20 103.1,19.8 103.5,19.4 104,19.2 104.4,19 105,18.8 
	105.4,18.6 105.9,18.4 106.5,18.3 107.1,18.1 107.6,17.9 108.2,17.7 108.8,17.7 109.3,17.5 110.1,17.3 110.6,17.1 111.4,16.9 
	112.1,16.9 112.5,16.8 113.1,16.8 113.7,16.8 114,16.6 114.6,16.6 115.2,16.6 115.5,16.4 116.1,16.4 116.5,16.4 117,16.4 
	118.2,16.2 119.1,16.2 120.1,16.2 121.2,16.2 122.1,16 123.3,16 124.4,16 125.3,16.2 126.5,16.2 128.5,16.2 132.1,16.2 133.8,16.4 
	135.7,16.4 137.2,16.4 138.5,16.4 140,16.4 141.4,16.4 142.9,16.4 143.4,16.4 144.2,16.2 144.9,16.2 145.5,16.2 146.3,16.2 
	147,16.2 147.8,16 148.5,16 150,15.8 151.9,15.6 157.6,15.1 158.9,15.1 160.2,14.9 161.5,14.9 162.3,14.7 162.8,14.7 163.4,14.7 
	164.2,14.7 164.7,14.7 165.3,14.7 165.9,14.7 166.4,14.7 167,14.7 167.6,14.7 168.1,14.7 168.5,14.7 169.1,14.7 169.6,14.7 
	170,14.7 170.4,14.9 171,14.9 171.3,14.9 171.7,15.1 172.1,15.1 172.5,15.2 172.8,15.2 173,15.4 173.4,15.4 173.6,15.6 173.8,15.6 
	174,15.6 174.2,15.8 174.2,15.8 174.3,15.8 174.5,15.8 174.5,16 174.7,16 174.7,16 174.9,16.2 174.9,16.2 174.9,16.2 175.1,16.2 
	175.1,16.4 175.3,16.4 175.3,16.4 175.3,16.6 175.5,16.6 175.5,16.6 175.5,16.8 175.7,16.8 175.7,16.8 175.7,16.9 175.9,16.9 
	175.9,16.9 175.9,17.1 176,17.1 176,17.3 176,17.3 176.2,17.5 176.2,17.7 176.4,17.7 176.4,17.9 176.6,18.1 176.6,18.3 176.8,18.4 
	176.8,18.8 177,19 177.2,19.2 177.2,19.6 177.4,20 177.5,20.5 177.7,20.9 177.7,21.5 177.9,22 178.1,22.6 178.3,23 178.3,23.5 
	178.5,24.3 178.5,24.9 178.7,25.4 178.7,26 178.9,26.7 178.9,27.3 179.1,28.1 179.1,28.6 179.1,29.4 179.2,29.9 179.2,30.7 
	179.2,31.5 179.2,32.4 179.4,33.5 179.4,34.3 179.4,35 179.4,35.8 179.4,36.5 179.4,37.3 179.4,38.1 179.4,38.8 179.4,39.6 
	179.4,40.3 179.2,41.1 179.2,41.8 179.2,42.6 179.2,44.1 179.1,45.6 179.1,47.1 178.9,48.6 178.7,50.3 178.5,52 178.3,53.7 
	178.1,55.4 177.7,60.1 177.4,62.6 177.4,63.7 177.2,65 177,66.9 177,68.6 176.8,69.5 176.8,70.5 176.8,71.4 176.6,72.4 176.6,73.1 
	176.6,73.9 176.6,74.8 176.4,75.6 176.4,76.3 176.4,77.3 176.4,78 176.4,78.8 176.4,79.7 176.4,80.5 176.4,81.4 176.4,82.2 
	176.4,83.9 176.6,85.5 176.6,91.2 176.8,92.1 176.8,93.3 176.8,94.6 176.8,95.9 176.8,96.7 "/>
<polygon class="st0" points="89.9,67.3 88,67.1 85.6,67.1 83.1,66.9 80.7,66.7 78.2,66.5 75.8,66.3 73.3,66.1 70.9,65.9 68.4,65.8 
	66,65.6 63.5,65.4 58.6,65 48.8,64.1 43.9,63.5 41.5,63.3 39,63.1 36.6,62.9 34.1,62.7 31.7,62.6 29.2,62.4 26.8,62.2 24.3,62 
	21.9,61.8 19.4,61.6 17,61.6 14.5,61.4 13.4,61.4 12.1,61.2 10.9,61.2 9.4,61.2 9.2,61.2 9,61.2 8.9,61.2 8.7,61.2 8.5,61.2 
	8.3,61.2 8.1,61.4 7.9,61.4 7.7,61.4 7.5,61.4 7.4,61.4 7.2,61.6 7,61.6 6.8,61.6 6.6,61.6 6.4,61.8 6.2,61.8 6,62 5.8,62 5.8,62.2 
	5.7,62.2 5.5,62.2 5.3,62.4 5.1,62.6 4.9,62.6 4.7,62.7 4.5,62.7 4.3,62.9 4.1,63.1 4,63.1 4,63.3 3.8,63.5 3.6,63.7 3.4,63.7 
	3.4,63.9 3.2,64.1 3,64.2 2.8,64.4 2.8,64.4 2.6,64.6 2.5,64.8 2.5,65 2.3,65.2 2.3,65.4 2.1,65.6 2.1,65.8 1.9,65.9 1.9,65.9 
	1.7,66.1 1.7,66.3 1.7,66.5 1.5,66.7 1.5,66.9 1.5,67.1 1.3,67.3 1.3,67.5 1.3,67.6 1.3,67.8 1.1,68 1.1,68.2 1.1,68.4 1.1,68.6 
	1.1,68.8 0.9,70.5 0.8,72.2 0.6,73.9 0.6,75.6 0.4,77.3 0.2,79 0.2,80.6 0.2,82.3 0,84 0,85.7 0,87.4 0,89.1 0,90.6 0,92.3 0,94 
	0,95.5 0.2,97.2 0.2,98.9 0.2,100.4 0.4,102.1 0.4,103.8 0.6,105.3 0.6,107 0.8,108.5 0.9,110.2 0.9,111.7 1.1,113.3 1.3,114.9 
	1.5,116.5 1.5,118 1.7,119.7 1.9,121.2 2.1,122.7 2.3,124.2 2.5,125.9 2.6,127.4 3,130.4 3.4,133.4 3.8,136.6 4.1,139.6 5.5,148.5 
	5.8,151.5 6.2,154.5 6.6,157.4 7,160.4 7.2,161.9 7.4,163.2 7.5,164.7 7.5,166.2 7.7,167.5 7.9,169 7.9,170.2 8.1,171.3 8.3,173.6 
	8.5,175.8 8.7,178.1 8.9,180.5 8.9,182.8 9,185.1 9,187.3 9.2,189.6 9.2,191.8 9.4,194.1 9.4,196.4 9.4,198.6 9.4,200.9 9.4,203.2 
	9.6,205.4 9.6,207.7 9.6,209.9 9.6,212.2 9.6,214.5 9.6,219.2 9.4,233.1 9.4,238 9.4,242.9 9.4,245.6 9.4,248.2 9.4,250.8 
	9.6,253.5 9.6,256.1 9.6,257.4 9.6,258.9 9.6,260.3 9.8,261.6 9.8,262.9 9.8,264.2 9.8,265.5 10,266.9 10,268.4 10.2,269.7 
	10.2,271 10.4,272.3 10.4,273.6 10.6,275 10.6,276.3 10.7,277.6 10.9,278.9 10.9,280.2 11.1,281.6 11.3,282.9 11.5,284.2 
	11.7,285.5 11.9,286.8 12.1,288.2 12.3,289.5 12.4,290.8 12.6,291.9 13,293.3 13.2,294.6 13.4,295.9 13.8,297 13.9,298.3 
	14.3,299.5 14.7,300.8 15.1,301.9 15.3,303.2 15.6,304.4 16,305.5 16.2,306.3 16.4,306.8 16.6,307.4 16.8,308 17,308.5 17.3,309.1 
	17.5,309.6 17.7,310.2 17.9,310.8 18.1,311.3 18.3,311.9 18.7,312.5 18.8,313 19,313.6 19.2,314.2 19.6,314.7 19.8,315.3 20,315.9 
	20.4,316.4 20.5,316.8 20.9,317.4 21.1,317.9 21.5,318.5 21.7,319.1 22.1,319.4 22.2,320 22.6,320.6 22.8,321 23.2,321.5 
	23.4,322.1 23.7,322.5 24.1,323 24.5,323.6 24.9,324.2 25.3,324.7 25.6,325.3 26,325.9 26.4,326.4 26.8,327 27.1,327.4 27.7,327.9 
	28.1,328.5 28.5,329.1 28.8,329.4 29.4,330 29.8,330.6 30.3,330.9 30.7,331.5 31.1,331.9 31.7,332.5 32.2,333 32.6,333.4 
	33.2,333.8 33.5,334.3 34.1,334.7 34.7,335.3 35.1,335.7 35.6,336 36.2,336.6 36.6,337 37.1,337.4 37.7,337.7 38.3,338.3 
	38.8,338.7 39.4,339.1 40,339.4 40.5,339.8 41.1,340.2 41.7,340.6 42.2,340.9 42.8,341.3 43.4,341.7 43.9,342.1 44.5,342.4 
	45,342.8 45.6,343.2 46.4,343.6 46.9,343.8 47.5,344.1 48.1,344.5 48.8,344.9 49.4,345.1 49.9,345.5 50.7,345.8 51.3,346 52,346.4 
	52.6,346.6 53.3,347 53.9,347.2 54.7,347.5 55.2,347.7 56,348.1 56.5,348.3 57.3,348.5 58.1,348.9 58.6,349 59.4,349.2 59.9,349.4 
	60.7,349.8 61.4,350 62,350.2 62.8,350.4 63.5,350.5 64.1,350.7 64.8,350.9 65.6,351.1 66.3,351.3 66.9,351.5 67.7,351.7 
	68.4,351.9 69.2,352.1 69.9,352.2 70.5,352.4 71.2,352.6 72,352.6 72.8,352.8 74.3,353.2 75.8,353.4 77.1,353.6 78.6,353.9 
	80.1,354.1 81.6,354.3 83.1,354.5 84.6,354.7 86.1,354.9 87.6,355.1 89.2,355.3 90.7,355.4 92.2,355.6 93.7,355.6 95.2,355.8 
	96.7,356 98.2,356 99.7,356.2 101,356.2 102.5,356.4 104,356.4 105.5,356.6 107.6,356.6 109.9,356.8 112,356.8 114,357 116.1,357 
	118.2,357.1 120.2,357.1 122.3,357.1 124.4,357.1 126.5,357.3 130.4,357.3 134.4,357.3 138.5,357.5 146.4,357.5 150.6,357.7 
	154.6,357.7 158.7,357.7 160.6,357.9 162.7,357.9 164.7,357.9 166.8,357.9 168.9,358.1 171,358.1 176.8,358.3 179.8,358.5 
	181.3,358.5 182.8,358.5 184.3,358.7 185.8,358.7 187.3,358.7 188.9,358.7 190.2,358.7 191.7,358.7 193.2,358.7 194.7,358.5 
	195.5,358.5 196.2,358.5 197,358.5 197.7,358.5 198.5,358.3 199.2,358.3 200,358.3 200.5,358.3 201.3,358.1 202,358.1 202.8,357.9 
	203.6,357.9 204.3,357.7 205.1,357.7 205.8,357.5 206.4,357.5 207.1,357.3 207.9,357.1 208.6,357.1 209.4,357 210,356.8 
	210.7,356.6 211.5,356.6 212.2,356.4 212.8,356.2 213.5,356 214.3,355.8 214.9,355.6 215.6,355.3 216.4,355.1 216.9,354.9 
	217.7,354.7 218.4,354.5 219,354.1 219.8,353.9 220.3,353.6 221.1,353.4 221.7,353 222.2,352.8 223,352.4 223.5,352.2 224.3,351.9 
	224.9,351.5 225.4,351.1 226.2,350.7 226.7,350.5 227.3,350.2 227.9,349.8 228.6,349.4 229.2,349 229.8,348.7 230.3,348.3 
	230.9,347.7 231.5,347.3 232,347 232.6,346.6 233.3,346 233.7,345.6 234.3,345.3 234.8,344.7 235.4,344.3 236,344 236.5,343.4 
	237.1,342.8 237.7,342.4 238,341.9 238.6,341.5 239.2,340.9 239.7,340.4 240.1,340 240.7,339.4 241.1,338.9 241.6,338.3 242,337.9 
	242.6,337.4 242.9,336.8 243.5,336.2 243.9,335.7 244.3,335.1 244.8,334.5 245.2,334 245.6,333.4 246,332.8 246.5,332.3 
	246.9,331.7 247.3,331.1 247.7,330.6 248,330 248.4,329.3 248.8,328.7 249,328.1 249.4,327.6 249.7,326.8 250.1,326.2 250.3,325.7 
	250.7,325.1 251.1,324.5 251.2,324 251.4,323.4 251.8,322.8 252,322.3 252.2,321.7 252.4,321.1 252.6,320.6 252.9,320 253.1,319.4 
	253.3,318.9 253.5,318.3 253.7,317.8 253.9,317.2 254.1,316.6 254.3,316.1 254.4,315.5 254.6,314.9 254.6,314.4 254.8,313.8 
	255,313 255.2,312.5 255.4,311.9 255.4,311.3 255.6,310.8 255.8,310.2 256,309.6 256,308.9 256.1,307.8 256.5,306.6 256.7,305.3 
	256.9,304.2 257.1,302.9 257.3,301.7 257.3,300.4 257.5,299.3 257.7,298 257.7,296.8 257.8,295.5 258,294.4 258,293.1 258.2,291.7 
	258.2,290.6 258.2,289.3 258.4,288 258.4,286.8 257.7,287.2 256.7,287.8 256,288.2 255,288.7 254.3,289.1 253.3,289.5 252.4,289.9 
	251.6,290.2 251.1,290.6 250.5,290.8 249.7,291 249.2,291.4 248.6,291.6 248,291.7 247.5,291.9 246.9,292.3 246.7,293.6 
	246.5,294.9 246.5,296.3 246.3,297.6 246.3,298.7 246.2,300 246,301.4 245.8,302.5 245.6,303.8 245.4,304.4 245.4,304.9 
	245.2,305.5 245.2,306.3 245,306.8 244.8,307.4 244.8,308 244.6,308.5 244.5,309.1 244.5,309.6 244.3,310.2 244.1,310.8 
	243.9,311.3 243.7,311.9 243.7,312.5 243.5,313 243.3,313.6 243.1,314.2 242.9,314.7 242.8,315.3 242.6,315.7 242.4,316.2 
	242.2,316.8 241.8,317.4 241.6,317.9 241.4,318.5 241.3,319.1 240.9,319.6 240.7,320 240.5,320.6 240.1,321.1 239.7,321.7 
	239.6,322.3 239.2,322.8 239,323.4 238.6,324 238.2,324.4 237.9,324.9 237.7,325.3 237.3,325.9 237.1,326.2 236.7,326.6 
	236.4,327.2 236,327.6 235.8,327.9 235.4,328.5 235,328.9 234.7,329.3 234.3,329.6 234.1,330 233.7,330.6 233.3,330.9 233,331.3 
	232.6,331.7 232.2,332.1 231.8,332.5 231.5,332.8 231.1,333.2 230.7,333.6 230.3,334 229.8,334.3 229.4,334.7 229,335.1 
	228.6,335.3 228.2,335.7 227.9,336 227.3,336.4 226.9,336.8 226.6,337 226,337.4 225.6,337.7 225.2,337.9 224.9,338.3 224.3,338.5 
	223.9,338.9 223.3,339.1 223,339.4 222.6,339.6 222,340 221.7,340.2 221.1,340.4 220.7,340.7 220.1,340.9 219.8,341.1 219.2,341.3 
	218.8,341.5 218.3,341.9 217.5,342.1 216.9,342.4 216.2,342.6 215.6,342.8 214.9,343 214.3,343.2 213.5,343.4 213.2,343.6 
	212.6,343.8 212,344 211.7,344 211.1,344.1 210.5,344.1 210,344.3 209.6,344.3 209,344.5 208.5,344.5 207.9,344.7 207.3,344.7 
	206.8,344.7 206.2,344.9 205.6,344.9 205.1,344.9 204.5,344.9 203.9,345.1 203.4,345.1 202.8,345.1 202,345.1 201.5,345.1 
	200.9,345.1 200.4,345.1 199.4,345.1 198.3,345.1 197.3,345.1 196.2,345.1 195.1,345.1 193.8,345.1 192.4,344.9 191.1,344.9 
	189.4,344.7 187.7,344.5 186.6,344.5 185.3,344.3 183,344.1 180.6,343.8 174.7,343.2 172.8,343 171.1,342.8 169.1,342.6 
	167.2,342.4 165.1,342.3 163.2,342.1 161.1,341.9 159.1,341.7 156.4,341.5 153.8,341.3 151.2,341.1 148.3,341.1 145.7,340.9 
	143.1,340.7 140.2,340.7 137.6,340.6 134.4,340.6 131.4,340.4 128.2,340.4 125,340.4 118.7,340.2 112.5,340 108.6,340 104.8,339.8 
	102.5,339.8 100.1,339.8 97.6,339.6 95.4,339.6 93.9,339.6 92.4,339.4 91,339.4 89.5,339.2 88,339.2 86.7,339.1 85.2,339.1 
	83.7,338.9 82.2,338.9 80.7,338.7 79,338.5 77.5,338.3 76.1,338.1 74.8,337.9 73.7,337.7 72.4,337.5 71.2,337.4 69.9,337.2 
	68.6,337 67.5,336.6 66.7,336.6 65.8,336.4 65,336.2 64.3,335.8 63.3,335.7 62.6,335.5 61.8,335.3 60.9,335.1 59.9,334.7 59,334.5 
	58.1,334.2 57.1,333.8 56.2,333.4 55.4,333 54.5,332.6 53.9,332.5 53.5,332.3 53,332.1 52.6,331.9 52,331.7 51.6,331.3 51.1,331.1 
	50.7,330.9 50.1,330.8 49.8,330.4 49.2,330.2 48.8,330 48.3,329.6 47.9,329.4 47.5,329.1 46.9,328.9 46.6,328.5 46.2,328.3 
	45.6,327.9 45.2,327.7 44.9,327.4 44.5,327.2 44.1,326.8 43.5,326.6 43.2,326.2 42.8,326 42.4,325.7 42,325.3 41.7,324.9 
	41.3,324.7 40.9,324.4 40.5,324 40.1,323.6 39.8,323.4 39.4,323 39.2,322.7 38.8,322.3 38.4,321.9 38.1,321.7 37.9,321.3 37.5,321 
	37.1,320.6 36.9,320.2 36.6,320 36.4,319.6 36.2,319.3 35.8,319.1 35.6,318.7 35.4,318.3 35.1,318.1 34.9,317.8 34.7,317.4 
	34.3,317 34.1,316.6 33.9,316.2 33.5,315.9 33.4,315.5 33.2,315.1 32.8,314.5 32.6,314 32.2,313.4 32,312.9 31.7,312.5 31.5,311.9 
	31.1,311.3 30.9,310.8 30.7,310.4 30.5,309.8 30.3,309.5 30.2,308.9 30,308.5 29.8,308 29.6,307.6 29.4,307 29.2,306.4 29,306.1 
	28.6,305.1 28.5,304.2 28.1,303.2 27.7,302.1 27.5,301 27.1,300 27,298.9 26.8,298 26.6,296.8 26.2,295.7 26,294.8 25.8,293.6 
	25.6,292.5 25.4,291.4 25.3,290.4 25.3,289.3 25.1,288.2 24.9,287 24.7,285.9 24.7,285.1 24.5,284.2 24.5,283.5 24.5,282.5 
	24.3,281.8 24.3,280.8 24.1,279.1 24.1,278 23.9,276.9 23.9,275.5 23.7,274.4 23.7,273.3 23.7,272 23.7,270.8 23.6,269.7 23.6,268 
	23.6,266.3 23.6,264.6 23.6,262.9 23.4,260.8 23.4,258.8 23.4,256.7 23.4,254.8 23.4,250.7 23.6,242.9 23.6,239.2 23.6,236.3 
	23.6,233.3 23.6,230.5 23.4,227.5 23.4,224.6 23.4,221.8 23.4,217.7 23.4,215.8 23.2,213.7 23.2,211.6 23.2,209.6 23.2,207.7 
	23,205.6 23,203.5 23,201.7 22.8,199.6 22.8,197.5 22.8,195.6 22.6,193.5 22.6,191.5 22.4,189.6 22.4,187.5 22.2,185.4 22.1,183.6 
	22.1,181.5 21.9,179.4 21.7,177.5 21.7,175.5 21.5,173.4 21.1,170.2 20.9,167 20.7,163.8 20.4,160.6 20.2,157.7 19.8,155.1 
	19.6,152.3 19.2,149.6 18.7,143.8 17.3,132.1 16.8,126.3 16.4,122.5 16,118.5 15.6,114.8 15.5,112.7 15.3,110.8 15.1,108.9 
	14.9,107 14.7,105 14.5,103.1 14.5,101.2 14.3,99.3 14.1,97.2 13.9,95.3 13.9,93.5 13.8,91.6 13.8,89.5 13.6,87.6 13.6,87.4 
	13.6,87.2 13.6,87.1 13.6,86.9 13.6,86.7 13.6,86.3 13.6,86.1 13.8,85.9 13.8,85.7 13.8,85.5 13.8,85.4 13.9,85.2 13.9,85 
	13.9,84.8 14.1,84.6 14.1,84.2 14.1,84 14.3,83.9 14.3,83.7 14.5,83.5 14.5,83.3 14.7,83.1 14.7,82.9 14.9,82.7 15.1,82.5 
	15.1,82.3 15.3,82.3 15.3,82.2 15.5,82 15.6,81.8 15.8,81.6 15.8,81.4 16,81.4 16.2,81.2 16.4,81 16.6,80.8 16.6,80.8 16.8,80.6 
	17,80.5 17.2,80.5 17.3,80.3 17.5,80.1 17.7,80.1 17.9,79.9 18.1,79.9 18.3,79.7 18.5,79.7 18.7,79.5 18.8,79.5 19,79.3 19.2,79.3 
	19.4,79.3 19.6,79.1 19.8,79.1 20.2,79.1 20.4,79 20.5,79 20.7,79 20.9,79 21.1,79 21.3,79 21.5,79 21.7,79 22.1,79 75,79 90.3,79 
	90.1,77.4 90.1,75.9 90.1,74.4 90.1,72.9 89.9,71.6 89.9,70.1 89.9,68.6 "/>
<polygon class="st0" points="263.1,202 263.7,194.5 264.1,186.8 264.4,179 264.8,175.3 265,171.5 265.2,167.5 265.4,163.8 
	265.6,159.8 265.8,156 265.9,152.1 266.1,148.3 266.1,144.4 266.3,140.4 266.5,136.6 266.7,132.7 266.7,128.7 266.9,124.9 
	267.1,121 267.1,117 267.3,113.1 267.3,109.3 267.3,105.3 267.3,101.4 267.5,97.4 267.5,93.5 267.5,89.3 267.5,85.4 267.3,81.4 
	267.3,77.4 267.3,77.3 267.3,77.1 267.3,76.9 267.3,76.7 267.3,76.5 267.3,76.3 267.3,76.1 267.1,75.9 267.1,75.7 267.1,75.6 
	267.1,75.4 266.9,75.2 266.9,75 266.9,74.8 266.7,74.6 266.7,74.4 266.7,74.2 266.5,74 266.5,73.9 266.3,73.7 266.3,73.5 
	266.1,73.3 266.1,73.1 265.9,72.9 265.8,72.7 265.8,72.7 265.6,72.5 265.4,72.4 265.4,72.2 265.2,72 265,71.8 265,71.6 264.8,71.6 
	264.6,71.4 264.4,71.2 264.2,71 264.1,71 264.1,70.8 263.9,70.7 263.7,70.7 263.5,70.5 263.3,70.5 263.1,70.3 262.9,70.3 
	262.7,70.1 262.6,70.1 262.4,69.9 262.2,69.9 262,69.7 261.8,69.7 261.6,69.5 261.4,69.5 261.2,69.5 261,69.5 260.9,69.3 
	260.7,69.3 260.5,69.3 260.3,69.3 260.1,69.3 259.9,69.1 259.7,69.1 259.5,69.1 259.3,69.1 259.2,69.1 249.4,68.8 244.1,68.6 
	238.8,68.4 233.3,68.2 230.7,68 228.1,68 225.4,67.8 222.8,67.8 220.1,67.8 217.7,67.6 215.6,67.6 213.5,67.6 211.5,67.6 
	209.6,67.6 207.7,67.6 205.6,67.6 201.9,67.6 198.3,67.6 187.5,67.6 187.2,69 187,70.5 186.8,71 186.6,71.8 186.6,72.5 186.4,73.1 
	186.2,73.9 186.2,74.6 186,75.2 186,75.9 185.8,76.7 185.8,77.3 185.7,78 185.7,79 191.1,78.8 197,78.8 199.8,78.8 202.6,78.8 
	205.6,78.8 208.5,78.8 210,78.8 211.5,78.8 212.8,78.8 214.3,78.8 216,79 217.7,79 219.4,79 221.1,79 222.8,79.1 224.5,79.1 
	228.1,79.3 230.7,79.3 233.1,79.5 238.6,79.9 238.8,79.9 239,79.9 239.2,79.9 239.4,79.9 239.6,79.9 239.7,79.9 239.9,80.1 
	240.1,80.1 240.3,80.1 240.5,80.1 240.7,80.3 240.9,80.3 241.1,80.3 241.3,80.5 241.4,80.5 241.6,80.6 241.8,80.6 242,80.6 
	242,80.8 242.2,80.8 242.4,81 242.6,81.2 242.8,81.2 242.9,81.4 243.1,81.4 243.3,81.6 243.3,81.8 243.5,81.8 243.7,82 243.9,82.2 
	244.1,82.3 244.1,82.3 244.3,82.5 244.5,82.7 244.5,82.9 244.6,82.9 244.8,83.1 244.8,83.3 245,83.5 245.2,83.7 245.2,83.9 
	245.4,84 245.4,84.2 245.6,84.4 245.6,84.6 245.8,84.6 245.8,84.8 245.8,85 246,85.2 246,85.4 246,85.5 246.2,85.7 246.2,85.9 
	246.2,86.1 246.3,86.3 246.3,86.5 246.3,86.7 246.3,86.9 246.3,87.1 246.3,87.2 246.3,87.4 246.5,87.6 246.7,92.3 246.9,96.9 
	247.1,101.4 247.3,105.9 247.5,110.4 247.7,114.9 247.9,119.5 248,124 248,126.8 248,129.7 248.2,132.7 248.2,135.5 248.4,138.3 
	248.4,141.3 248.4,144.2 248.6,147.2 248.6,150 248.6,152.8 248.6,155.8 248.6,158.7 248.8,164.5 248.8,170.4 248.8,175.6 
	248.8,181.1 248.8,186.6 248.8,192 250.9,193.5 253.1,195.1 255.2,196.4 257.3,197.9 260.3,200 "/>
<path class="st1" d="M263.1,202l0.4-7.7l0.4-7.7l0.4-7.7l0.2-3.8l0.2-3.8l0.2-3.8l0.2-3.8l0.2-3.8l0.2-3.8l0.2-4l0.2-4l0.2-4l0.2-4
	l0.2-4l0.2-4l0.2-4l0.2-4l0.2-4v-4v-4v-4v-4v-4v-4v-4v-4v-4v-4v-4v-0.2v-0.2v-0.2v-0.2v-0.2v-0.2v-0.2v-0.2v-0.2v-0.2V75v-0.2v-0.2
	v-0.2v-0.2V74v-0.2v-0.2v-0.2v-0.2l-0.2-0.2l-0.2-0.2l-0.2-0.2l-0.2-0.2l-0.2-0.2l-0.2-0.2l-0.2-0.2l-0.2-0.2l-0.2-0.2l-0.2-0.2
	l-0.2-0.2l-0.2-0.2l-0.2-0.2l-0.2-0.2l-0.2-0.2l-0.2-0.2l-0.2-0.2l-0.2-0.2l-0.2-0.2l-0.2-0.2l-0.2-0.2l-0.2-0.2l-0.2-0.2l-0.2-0.2
	l-0.2-0.2h-0.2H262h-0.2h-0.2h-0.2h-0.2H261h-0.2h-0.2h-0.2h-0.2h-0.2h-0.2h-0.2h-0.2h-0.2h-0.2H259h-0.2L243.7,68l-5.3-0.2
	l-5.5-0.2h-2.6h-2.6H225h-2.6h-2.6h-2.5h-2.1h-2.1h-2.1h-1.9h-1.9h-1.9h-3.8h-3.8h-10.7l-0.4,1.3l-0.4,1.3l-0.2,0.8l-0.2,0.8
	l-0.2,0.8l-0.2,0.8l-0.2,0.8l-0.2,0.8l-0.2,0.8l-0.2,0.8v0.8v0.8v0.8v0.9h5.5h5.8h2.8h2.8h2.8h2.8h1.5h1.5h1.5h1.5h1.7h1.7h1.7h1.7
	h1.7h1.7l3.4,0.2l2.6,0.2l2.6,0.2l5.5,0.2h0.2h0.2h0.2h0.2h0.2h0.2h0.2h0.2h0.2h0.2h0.2h0.2h0.2h0.2h0.2h0.2h0.2h0.2h0.2l0.2,0.2
	l0.2,0.2l0.2,0.2l0.2,0.2l0.2,0.2l0.2,0.2l0.2,0.2l0.2,0.2l0.2,0.2l0.2,0.2l0.2,0.2l0.2,0.2l0.2,0.2l0.2,0.2l0.2,0.2l0.2,0.2
	l0.2,0.2l0.2,0.2l0.2,0.2l0.2,0.2l0.2,0.2l0.2,0.2l0.2,0.2l0.2,0.2V85v0.2v0.2v0.2v0.2v0.2v0.2v0.2v0.2v0.2v0.2v0.2v0.2v0.2v0.2v0.2
	V88v0.2v0.2l0.2,4.7l0.2,4.5l0.2,4.5l0.2,4.5l0.2,4.5l0.2,4.5l0.2,4.5l0.2,4.5v2.8v2.8v2.8v2.8v2.8v2.8v2.8v2.8v2.8v2.8v2.8v2.8v5.8
	v5.8v5.5v5.5v5.5v5.5C253.7,195.4,258.4,198.6,263.1,202"/>
<path class="st1" d="M89.9,67.3h-2.1l-2.5-0.2l-2.5-0.2l-2.5-0.2L78,66.5l-2.5-0.2l-2.5-0.2l-2.5-0.2l-2.5-0.2l-2.5-0.2l-2.5-0.2
	L58.4,65l-9.8-0.9l-4.9-0.4l-2.5-0.2l-2.5-0.2l-2.5-0.2l-2.5-0.2l-2.5-0.2L29,62.6l-2.5-0.2l-2.5-0.2L21.7,62l-2.5-0.2l-2.5-0.2
	l-2.5-0.2h-1.1h-1.1h-1.1H9.6H9.4H9.2H9H8.9H8.7H8.5H8.3H8.1H7.9H7.7H7.5H7.4H7.2H7H6.8H6.6H6.4H6.2H6H5.8H5.7l-0.2,0.2l-0.2,0.2
	L5.1,62l-0.2,0.2l-0.2,0.2l-0.2,0.2l-0.2,0.4l-0.2,0.2L4,63.3l-0.2,0.2l-0.2,0.2l-0.2,0.2l-0.2,0.2L3,64.2l-0.2,0.2l-0.2,0.2
	l-0.2,0.2L2.3,65l-0.2,0.2l0.4-0.4L2.3,65l-0.2,0.2l-0.2,0.2l-0.2,0.2l-0.2,0.2v0.2v0.2v0.2v0.2v0.2v0.2v0.2v0.2v0.2v0.2v0.2V68v0.2
	v0.2v0.2v0.2V69l-0.2,1.7l-0.2,1.7L0.9,74l-0.2,1.7l-0.2,1.7l-0.2,1.7v1.7v1.7v1.7v1.7v1.7v1.7V91v1.7v1.7v1.7v1.7v1.7v1.7v1.7v1.7
	l0.2,1.7l0.2,1.7l0.2,1.5l0.2,1.5l0.2,1.5l0.2,1.5l0.2,1.5l0.2,1.5l0.2,1.5l0.2,1.5l0.2,1.5l0.2,1.5l0.2,1.5l0.2,1.5l0.2,1.5l0.4,3
	l0.4,3l0.4,3l0.4,3l1.1,9l0.4,3l0.4,3l0.4,3l0.4,3l0.2,1.5l0.2,1.5l0.2,1.5l0.2,1.5l0.2,1.5l0.2,1.5l0.2,1.1l0.2,1.1l0.2,2.3
	l0.2,2.3l0.2,2.3l0.2,2.3l0.2,2.3l0.2,2.3l0.2,2.3v2.3v2.3v2.3v2.3v2.3v2.3v2.3v2.3v2.3v2.3v2.3v2.3v4.5v14.1v4.7v4.9v2.6v2.6v2.6
	v2.6v2.6v1.3v1.3v1.3v1.3v1.3v1.3v1.3v1.3v1.3v1.3v1.3v1.3l0.2,1.3l0.2,1.3l0.2,1.3l0.2,1.3l0.2,1.3l0.2,1.3l0.2,1.3l0.2,1.3
	l0.2,1.3l0.2,1.3l0.2,1.3l0.2,1.3l0.2,1.3l0.2,1.3l0.2,1.3l0.2,1.3l0.2,1.3l0.2,1.3l0.2,1.3l0.4,1.3l0.4,1.3l0.4,1.3l0.4,1.1
	l0.4,1.1l0.4,1.1l0.4,1.1l0.2,0.6l0.2,0.6l0.2,0.6l0.2,0.6l0.2,0.6l0.2,0.6l0.2,0.6l0.2,0.6l0.2,0.6l0.2,0.6l0.2,0.6l0.2,0.6
	l0.2,0.6l0.2,0.6l0.2,0.6l0.2,0.6l0.2,0.6l0.2,0.6l0.2,0.6l0.2,0.6l0.2,0.6l0.2,0.6l0.2,0.6l0.2,0.6l0.4,0.6l0.4,0.6l0.4,0.6
	l0.4,0.6l0.4,0.6l0.4,0.6l0.4,0.6l0.4,0.6l0.4,0.6l0.4,0.6l0.4,0.6l0.4,0.6l0.4,0.6l0.4,0.6l0.4,0.6l0.4,0.6l0.4,0.6l0.4,0.6
	l0.4,0.6l0.4,0.6l0.4,0.6l0.4,0.6l0.4,0.6L30,333l0.4,0.6l0.4,0.6l0.6,0.6l0.6,0.4l0.6,0.4l0.6,0.4l0.6,0.4l0.6,0.4l0.6,0.4l0.6,0.4
	l0.6,0.4l0.6,0.4l0.6,0.4l0.6,0.4l0.6,0.4l0.6,0.4l0.6,0.4l0.6,0.4l0.6,0.4l0.6,0.4l0.6,0.4l0.6,0.4l0.6,0.4l0.6,0.4l0.6,0.4
	l0.6,0.4l0.6,0.4l0.6,0.4l0.6,0.4l0.6,0.4l0.6,0.4l0.6,0.4l0.6,0.4l0.6,0.4l0.6,0.4l0.6,0.4l0.6,0.4l0.6,0.4l0.6,0.4l0.6,0.4
	l0.6,0.2l0.8,0.2l0.8,0.2l0.8,0.2l0.8,0.2l0.8,0.2l0.8,0.2l0.8,0.2l0.8,0.2l0.8,0.2l0.8,0.2l0.8,0.2l0.8,0.2l0.8,0.2l0.8,0.2
	l0.8,0.2l0.8,0.2l0.8,0.2l0.8,0.2l0.8,0.2l0.8,0.2l0.8,0.2l0.8,0.2l0.8,0.2l0.8,0.2l0.8,0.2l0.8,0.2l0.8,0.2l1.5,0.4l1.5,0.2
	l1.5,0.2l1.5,0.2l1.5,0.2l1.5,0.2l1.5,0.2l1.5,0.2l1.5,0.2l1.5,0.2l1.5,0.2l1.5,0.2l1.5,0.2l1.5,0.2l1.5,0.2l1.5,0.2l1.5,0.2
	l1.5,0.2l1.5,0.2h1.5h1.5h1.5l2.1,0.2l2.1,0.2h2.1h2.1h2.1h2.1h2.1h2.1h2.1h2.1h4.1h4h4l8.1,0.2h4h4h4.1h2.1h2.1h2.1h2.1h2.1h2.1
	l5.8,0.2l3,0.2h1.5h1.5h1.5h1.5h1.5h1.5h1.5h1.5h1.5h1.5h0.8h0.8h0.8h0.8h0.8h0.8h0.8h0.8h0.8h0.8h0.8h0.8h0.8l0.8-0.2l0.8-0.2
	l0.8-0.2l0.8-0.2l0.8-0.2l0.8-0.2l0.8-0.2l0.8-0.2l0.8-0.2l0.8-0.2l0.8-0.2l0.8-0.2l0.8-0.2l0.8-0.2l0.8-0.2l0.8-0.2l0.8-0.2
	l0.8-0.2l0.8-0.2l0.8-0.2l0.8-0.2l0.6-0.2l0.6-0.2l0.6-0.2l0.6-0.4l0.6-0.4l0.6-0.4l0.6-0.4l0.6-0.4l0.6-0.4l0.6-0.4l0.6-0.4
	l0.6-0.4l0.6-0.4l0.6-0.4l0.6-0.4l0.6-0.4l0.6-0.4l0.6-0.4l0.6-0.4l0.6-0.4l0.6-0.4l0.6-0.4l0.6-0.4l0.6-0.4l0.6-0.4l0.6-0.4
	l0.6-0.4l0.6-0.4l0.6-0.4l0.6-0.6l0.6-0.6l0.6-0.6l0.6-0.6l0.6-0.6l0.6-0.6l0.6-0.6l0.6-0.6l0.6-0.6l0.6-0.6l0.6-0.6l0.4-0.6
	l0.4-0.6l0.4-0.6l0.4-0.6l0.4-0.6l0.4-0.6l0.4-0.6l0.4-0.6l0.4-0.6l0.4-0.6l0.4-0.6l0.4-0.6l0.4-0.6l0.4-0.6l0.4-0.6l0.4-0.6
	l0.4-0.6l0.4-0.6l0.4-0.6l0.4-0.6l0.4-0.6l0.4-0.6l0.2-0.6l0.2-0.6l0.2-0.6l0.2-0.6l0.2-0.6l0.2-0.6l0.2-0.6l0.2-0.6l0.2-0.6
	l0.2-0.6l0.2-0.6l0.2-0.6l0.2-0.6l0.2-0.6l0.2-0.6l0.2-0.6l0.2-0.6l0.2-0.6l0.2-0.6l0.2-0.6l0.2-0.6l0.2-0.6l0.2-0.6l0.2-0.6
	l0.2-0.6l0.2-0.6l0.2-0.6l0.2-0.6l0.2-1.1l0.2-1.1l0.2-1.1l0.2-1.1l0.2-1.1l0.2-1.1l0.2-1.3l0.2-1.3l0.2-1.3l0.2-1.3l0.2-1.3
	l0.2-1.3l0.2-1.3v-1.3v-1.3v-1.3v-1.3v-1.3l-0.8,0.6l-0.8,0.6l-0.8,0.4l-0.9,0.4l-0.9,0.4l-0.9,0.4l-0.9,0.4l-0.9,0.4l-0.6,0.2
	l-0.6,0.2l-0.6,0.2l-0.6,0.2l-0.6,0.2l-0.6,0.2l-0.6,0.2l-0.6,0.2v1.3l-0.2,1.3l-0.2,1.3l-0.2,1.3l-0.2,1.3l-0.2,1.3l-0.2,1.3
	l-0.2,1.3l-0.2,1.1l-0.2,0.6l-0.2,0.6l-0.2,0.6l-0.2,0.6l-0.2,0.6l-0.2,0.6l-0.2,0.6l-0.2,0.6l-0.2,0.6l-0.2,0.6l-0.2,0.6l-0.2,0.6
	l-0.2,0.6l-0.2,0.6l-0.2,0.6l-0.2,0.6l-0.2,0.6l-0.2,0.6l-0.2,0.6l-0.2,0.6l-0.2,0.6l-0.2,0.6l-0.2,0.6l-0.8,0.6l-0.2,0.6l-0.2,0.6
	l-0.2,0.6l-0.2,0.6l-0.2,0.6l-0.2,0.6l-0.4,0.6l-0.4,0.6l-0.4,0.6l-0.4,0.6l-0.4,0.6l-0.4,0.6l-0.4,0.6l-0.4,0.6l-0.4,0.4l-0.4,0.4
	l-0.4,0.4l-0.4,0.4l-0.4,0.4l-0.4,0.4l-0.4,0.4l-0.4,0.4l-0.4,0.4l-0.4,0.4l-0.4,0.4l-0.4,0.4l-0.4,0.4l-0.4,0.4l-0.4,0.4l-0.4,0.4
	l-0.4,0.4l-0.4,0.4l-0.4,0.4l-0.4,0.4l-0.4,0.4l-0.4,0.4L229,334l-0.4,0.4l-0.4,0.4l-0.4,0.4l-0.4,0.4l-0.4,0.4l-0.4,0.4l-0.4,0.4
	L226,337l-0.4,0.4l-0.4,0.4l-0.4,0.4l-0.4,0.4l-0.4,0.4l-0.4,0.4l-0.4,0.2l-0.4,0.2l-0.4,0.2l-0.4,0.2l-0.4,0.2l-0.4,0.2l-0.4,0.2
	l-0.4,0.2l-0.6,0.2l-0.6,0.2l-0.6,0.2l-0.6,0.2l-0.6,0.2l-0.6,0.2l-0.6,0.2l-0.6,0.2l-0.6,0.2l-0.6,0.2l-0.8,0.2l-0.6,0.2l-0.6,0.2
	l-0.6,0.2l-0.6,0.2l-0.6,0.2l-0.6,0.2l-0.6,0.2h-0.6h-0.6h-0.6h-0.6h-0.6H207h-0.6h-0.6h-0.6h-0.6h-0.6h-0.6H203h-0.6h-0.6h-0.6
	h-0.6h-0.9h-0.9h-0.9H197h-1.3h-1.3H193h-1.3L190,344l-1.7-0.2l-1.1-0.2l-1.1-0.2l-2.5-0.2l-2.5-0.2l-5.8-0.8l-1.7-0.2l-1.7-0.2
	l-2.1-0.2l-2.1-0.2l-2.1-0.2l-2.1-0.2l-2.1-0.2l-2.1-0.2l-2.6-0.2l-2.6-0.2l-2.6-0.2l-2.6-0.2l-2.6-0.2l-2.6-0.2l-2.6-0.2l-2.6-0.2
	l-3.2-0.2h-3.2h-3.2h-3.2l-6.2-0.2l-6.2-0.2h-3.8h-3.8h-2.5h-2.5h-2.5h-2.5h-1.5h-1.5h-1.5h-1.5h-1.5h-1.5l-1.5-0.2l-1.5-0.2
	l-1.5-0.2l-1.5-0.2l-1.5-0.2l-1.5-0.2l-1.3-0.2l-1.3-0.2l-1.3-0.2l-1.3-0.2l-1.3-0.2l-1.3-0.2l-1.3-0.2l-1.3-0.2l-0.8-0.2l-0.8-0.2
	l-0.8-0.2l-0.8-0.2l-0.8-0.2l-0.8-0.2l-0.8-0.2l-0.8-0.2l-0.9-0.4l-0.9-0.4l-0.9-0.4l-0.9-0.4l-0.9-0.4l-0.9-0.4l-0.9-0.4l-0.4-0.2
	l-0.4-0.2l-0.6-0.2l-0.6-0.2l-0.6-0.2l-0.6-0.2l-0.6-0.2l-0.4-0.2l-0.4-0.2l-0.4-0.2l-0.4-0.2l-0.4-0.2l-0.4-0.2l-0.4-0.2l-0.4-0.2
	l-0.4-0.2l-0.4-0.2l-0.4-0.4l-0.4-0.2l-0.4-0.2l-0.4-0.4l-0.4-0.4l-0.4-0.4l-0.4-0.4l-0.4-0.4l-0.4-0.4l-0.4-0.4l-0.4-0.4l-0.4-0.4
	l-0.4-0.4l-0.4-0.4l-0.4-0.4l-0.4-0.4l-0.4-0.4l-0.4-0.4l-0.4-0.4l-0.4-0.4l-0.4-0.4l-0.4-0.4l-0.4-0.4l-0.4-0.4l-0.4-0.4l-0.2-0.4
	l-0.2-0.4l-0.2-0.4l-0.2-0.4l-0.2-0.4l-0.2-0.4l-0.2-0.4l-0.2-0.4l-0.2-0.4l-0.2-0.4l-0.2-0.4l-0.2-0.4l-0.2-0.4l-0.2-0.4l-0.2-0.4
	l-0.2-0.4l-0.4-0.6l-0.4-0.6l-0.4-0.6l-0.2-0.6l-0.2-0.6l-0.2-0.6l-0.2-0.6l-0.2-0.6l-0.2-0.4l-0.2-0.4L32,308l-0.2-0.4l-0.2-0.4
	l-0.2-0.6l-0.2-0.6l-0.2-0.6l-0.2-0.6l-0.2-0.6l-0.4-0.9l-0.4-0.9l-0.4-0.9l-0.4-1.1l-0.4-1.1l-0.2-1.1l-0.2-1.1l-0.2-1.1l-0.2-1.1
	l-0.2-1.1l-0.2-1.1l-0.2-1.1l-0.2-1.1l-0.2-1.1L27,288l-0.2-1.1l-0.2-1.1l-0.2-1.1l-0.2-1.1l-0.2-0.8v-0.8v-0.8v-0.8v-0.9v-0.9
	l-0.2-1.7v-1.1v-1.1v-1.1v-1.1v-1.1v-1.1v-1.1v-1.1v-1.7v-1.7v-1.7V261v-2.1v-2.1v-2.1v-2.1v-4.1v-7.7v-3.8v-2.8v-2.8v-2.8v-2.8
	v-2.8v-2.8v-4v-2.1V212v-2.1v-2.1v-2.1v-2.1v-2.1v-2.1v-2.1v-2.1v-2.1v-2.1v-2.1l-0.2-2.1l-0.2-2.1l-0.2-2.1l-0.2-2.1l-0.2-2.1
	l-0.2-2.1l-0.2-2.1l-0.2-2.1l-0.2-2.1l-0.2-3.2l-0.2-3.2l-0.2-3.2l-0.4-3.2l-0.2-2.6l-0.2-2.6l-0.2-2.6l-0.2-2.6l-0.6-5.8l-1.3-11.7
	l-0.6-5.8l-0.4-3.8l-0.4-3.8l-0.4-3.8l-0.2-1.9l-0.2-1.9l-0.2-1.9l-0.2-1.9l-0.2-1.9l-0.2-1.9l-0.2-1.9l-0.2-1.9l-0.2-1.9L17,93.7
	l-0.2-1.9l-0.2-1.9L16.4,88l-0.2-1.9v-0.2v-0.2v-0.2v-0.2v-0.2V85v-0.2v-0.2v-0.2v-0.2V84v-0.2v-0.2v-0.2v-0.2v-0.2v-0.2v-0.2v-0.2
	v-0.2l0.2-0.2l0.2-0.2l0.2-0.2l0.2-0.2l0.2-0.2l0.2-0.2l0.2-0.2l0.2-0.2l0.2-0.2l0.2-0.2l0.2-0.2l0.2-0.2l0.2-0.2l0.2-0.2l0.2-0.2
	l0.2-0.2l0.2-0.2l0.2-0.2l0.2-0.2l0.2-0.2l0.2-0.2l0.2-0.2l0.2-0.2l0.2-0.2l0.2-0.2l0.2-0.2h0.2h0.2h0.2h0.2h0.2h0.2h0.2h0.2h0.2H23
	h0.2h0.2h0.2h0.2h0.2h0.2h0.2h0.2c22.8,0,45.4,0,68.2,0v-1.5v-1.5v-1.5v-1.5v-1.5v-1.5v-1.5L89.9,67.3"/>
<polygon class="st2" points="201.5,161.7 201.5,162.3 201.3,162.6 201.3,163 201.3,163.6 201.3,164 201.3,164.3 201.3,164.7 
	201.3,165.3 201.3,165.7 201.3,166 201.3,166.4 201.3,167 201.3,167.7 201.3,168.7 201.5,169.4 201.5,170.4 201.5,171.1 
	201.7,172.1 201.9,172.8 201.9,173.8 202,174.5 202.2,175.3 202.4,176.2 202.6,177 202.6,177.9 202.8,178.7 203,179.6 203.2,180.4 
	203.6,182 205.3,188.6 205.6,190.5 206.2,192.4 206.6,194.3 207,196.2 208.6,203.9 209.6,207.7 210.3,211.6 212.2,219.4 
	213.9,227.5 215.8,235.6 218.4,247.6 219.4,251.6 221.3,259.9 222.2,264 222.6,266.1 223.2,268 224.9,275.7 225.4,277.8 
	225.8,279.7 226.2,281.6 226.4,282.5 226.6,283.5 226.7,284.4 226.9,285.5 227.1,286.5 227.3,287.4 227.5,288.4 227.7,289.3 
	227.9,290.2 227.9,291.4 228.1,292.3 228.2,293.3 228.2,294.2 228.4,295.3 228.4,296.3 228.6,297.2 228.6,298.2 228.6,299.3 
	229,299.1 229.6,298.7 230.3,298.3 231.1,298 231.6,297.8 232.4,297.4 233.1,297.2 233.7,296.8 234.5,296.6 235.2,296.3 
	235.8,296.1 236.5,295.7 237.3,295.5 238.8,294.9 240.1,294.6 243.1,293.6 244.5,293.1 246,292.5 246.7,292.3 247.3,292.1 
	248,291.7 248.8,291.6 249.5,291.2 250.1,291 250.9,290.6 251.6,290.2 252.2,290 252.9,289.7 253.7,289.3 254.3,289.1 255,288.7 
	255.6,288.4 256.3,288 257.1,287.6 257.7,287.2 258.4,286.8 259,286.5 259.7,286.1 261,285.3 262.2,284.4 263.5,283.6 267.5,281.2 
	268.8,280.4 270.1,279.7 271.4,278.7 272,278.4 272.7,278 272.9,278.5 273.1,278.9 273.3,279.3 273.5,279.9 273.9,280.2 274,280.6 
	274.2,281.2 274.4,281.6 274.6,282.1 274.8,282.5 275.2,283.5 275.4,284.4 275.7,285.3 276.1,286.3 277.3,290 277.6,291 278,291.9 
	278.4,292.9 278.6,293.6 278.9,294.4 279.1,295.1 279.5,295.9 279.9,296.5 280.1,297.2 280.5,298 280.8,298.7 281,299.5 
	281.4,300.2 281.8,300.8 282.2,301.5 282.5,302.3 282.9,303.1 283.7,304.4 284,305.3 284.6,306.3 286.5,309.6 287.4,311.5 
	287.8,312.5 288.4,313.2 288.8,314.2 289.3,315.1 289.7,315.9 290.1,316.8 290.6,317.8 291,318.7 291.2,319.4 291.6,320 
	292.7,322.7 293.3,324 293.7,324.7 293.8,325.5 294.2,326 294.4,326.8 294.8,327.4 295.2,327.9 295.5,328.7 295.9,329.3 
	296.1,329.8 296.5,330.2 296.7,330.8 297,331.1 297.6,332.1 298.4,333 298.9,334 299.3,334.5 299.5,334.9 299.9,335.5 300.2,335.8 
	300.4,336.4 300.8,336.8 301,336.8 301.2,336.8 301.2,336.8 301.4,336.6 301.6,336.6 301.6,336.6 301.9,336.4 302.1,336.2 
	302.5,336 302.7,336 302.9,335.8 303.3,335.7 303.5,335.5 303.8,335.3 304,335.1 304.4,334.7 304.6,334.5 305,334.3 305.1,334.2 
	305.3,333.8 305.7,333.6 305.9,333.4 306.5,332.8 307,332.3 307.6,331.7 308.2,331.1 308.7,330.6 309.1,330 309.7,329.3 311.6,327 
	312.1,326.4 312.5,325.9 313.1,325.5 313.3,325.1 313.4,324.9 313.6,324.7 314,324.5 314.2,324.2 314.4,324 314.8,323.8 
	314.9,323.6 315.1,323.4 315.5,323.2 315.7,323 315.9,322.8 316.3,322.7 316.5,322.5 316.8,322.3 316.8,322.3 317,322.1 
	317.2,322.1 317.4,322.1 317.4,321.9 317.6,321.9 317.4,321.5 317.2,321.3 316.8,321 316.6,320.6 316.1,320 314.9,318.7 
	314.4,318.1 314.2,317.8 313.8,317.6 313.6,317.2 313.4,316.8 313.1,316.4 312.9,316.1 312.5,315.7 312.3,315.3 311.9,314.9 
	311.7,314.5 311.6,314.2 311.2,313.6 310.8,312.9 309.3,310.4 308.7,309.3 308.2,308.3 307.4,307.2 306.8,306.3 306.1,305.1 
	305.5,304.2 304.8,303.2 304,302.1 303.1,300.8 300.4,296.8 299.5,295.5 298.6,294.2 298,293.6 297.6,292.9 297.2,292.3 
	296.7,291.6 296.3,291 295.9,290.2 295.5,289.7 295.2,289.1 294.8,288.5 294.4,287.8 293.8,286.7 293.1,285.3 292.3,284 
	291.6,282.7 288.9,277.6 288.2,276.5 287.4,275.2 286.9,273.8 286.1,272.7 285.4,271.4 286.9,270.6 288.4,269.7 289.1,269.3 
	289.9,268.9 290.6,268.6 291.6,268.2 292.3,267.6 293.1,267.2 293.8,266.9 294.4,266.3 295.2,265.9 295.9,265.4 296.7,265 
	297.4,264.4 298.2,264 298.7,263.5 299.5,263.1 300.2,262.5 300.8,262.2 301.6,261.6 302.1,261 302.9,260.5 303.5,260.1 
	304.2,259.5 304.8,258.9 305.3,258.4 306.7,257.3 308,256.3 309.3,255.2 313.1,251.8 314.4,250.7 315.7,249.5 317,248.6 317.6,248 
	318.2,247.5 317.4,246.5 316.5,245.8 315.7,244.8 314.8,244.1 313.8,243.1 313.1,242.4 312.1,241.4 311.2,240.7 310.4,239.7 
	309.5,239 308.5,238.2 307.6,237.3 306.8,236.5 305.9,235.8 305,234.8 304,234.1 303.1,233.3 302.1,232.4 301.2,231.6 300.2,230.9 
	298.4,229.2 296.5,227.7 294.6,226.2 292.7,224.5 290.8,222.9 288.9,221.4 287.1,219.9 285,218.4 283.1,216.9 281.2,215.4 
	279.1,213.9 277.3,212.4 275.2,210.9 273.3,209.4 271.2,208.1 269.3,206.6 267.3,205 265.2,203.7 263.3,202.2 261.2,200.7 
	259.3,199.4 257.3,197.9 254.3,195.8 251.2,193.7 248.4,191.7 245.4,189.6 242.4,187.7 239.4,185.6 236.4,183.6 234.8,182.6 
	233.3,181.7 231.8,180.5 230.3,179.6 228.8,178.7 227.3,177.7 225.8,176.8 224.3,175.6 222.8,174.7 221.1,173.8 219.6,172.8 
	218.1,171.9 216.6,170.9 215.1,170 213.4,169 211.9,168.1 210.3,167.2 208.8,166.2 207,165.1 205.1,164 204.1,163.4 203.2,162.8 
	202.4,162.3 "/>
<polyline class="st3" points="201.5,161.7 201.5,162.3 201.3,162.6 201.3,163 201.3,163.6 201.3,164 201.3,164.3 201.3,164.7 
	201.3,165.3 201.3,165.7 201.3,166 201.3,166.4 201.3,167 201.3,167.7 201.3,168.7 201.5,169.4 201.5,170.4 201.5,171.1 
	201.7,172.1 201.9,172.8 201.9,173.8 202,174.5 202.2,175.3 202.4,176.2 202.6,177 202.6,177.9 202.8,178.7 203,179.6 203.2,180.4 
	203.6,182 205.3,188.6 205.6,190.5 206.2,192.4 206.6,194.3 207,196.2 208.6,203.9 209.6,207.7 210.3,211.6 212.2,219.4 
	213.9,227.5 215.8,235.6 218.4,247.6 219.4,251.6 221.3,259.9 222.2,264 222.6,266.1 223.2,268 224.9,275.7 225.4,277.8 
	225.8,279.7 226.2,281.6 226.4,282.5 226.6,283.5 226.7,284.4 226.9,285.5 227.1,286.5 227.3,287.4 227.5,288.4 227.7,289.3 
	227.9,290.2 227.9,291.4 228.1,292.3 228.2,293.3 228.2,294.2 228.4,295.3 228.4,296.3 228.6,297.2 228.6,298.2 228.6,299.3 
	229,299.1 229.6,298.7 230.3,298.3 231.1,298 231.6,297.8 232.4,297.4 233.1,297.2 233.7,296.8 234.5,296.6 235.2,296.3 
	235.8,296.1 236.5,295.7 237.3,295.5 238.8,294.9 240.1,294.6 243.1,293.6 244.5,293.1 246,292.5 246.7,292.3 247.3,292.1 
	248,291.7 248.8,291.6 249.5,291.2 250.1,291 250.9,290.6 251.6,290.2 252.2,290 252.9,289.7 253.7,289.3 254.3,289.1 255,288.7 
	255.6,288.4 256.3,288 257.1,287.6 257.7,287.2 258.4,286.8 259,286.5 259.7,286.1 261,285.3 262.2,284.4 263.5,283.6 267.5,281.2 
	268.8,280.4 270.1,279.7 271.4,278.7 272,278.4 272.7,278 272.9,278.5 273.1,278.9 273.3,279.3 273.5,279.9 273.9,280.2 274,280.6 
	274.2,281.2 274.4,281.6 274.6,282.1 274.8,282.5 275.2,283.5 275.4,284.4 275.7,285.3 276.1,286.3 277.3,290 277.6,291 278,291.9 
	278.4,292.9 278.6,293.6 278.9,294.4 279.1,295.1 279.5,295.9 279.9,296.5 280.1,297.2 280.5,298 280.8,298.7 281,299.5 
	281.4,300.2 281.8,300.8 282.2,301.5 282.5,302.3 282.9,303.1 283.7,304.4 284,305.3 284.6,306.3 286.5,309.6 287.4,311.5 
	287.8,312.5 288.4,313.2 288.8,314.2 289.3,315.1 289.7,315.9 290.1,316.8 290.6,317.8 291,318.7 291.2,319.4 291.6,320 
	292.7,322.7 293.3,324 293.7,324.7 293.8,325.5 294.2,326 294.4,326.8 294.8,327.4 295.2,327.9 295.5,328.7 295.9,329.3 
	296.1,329.8 296.5,330.2 296.7,330.8 297,331.1 297.6,332.1 298.4,333 298.9,334 299.3,334.5 299.5,334.9 299.9,335.5 300.2,335.8 
	300.4,336.4 300.8,336.8 301,336.8 301.2,336.8 301.2,336.8 301.4,336.6 301.6,336.6 301.6,336.6 301.9,336.4 302.1,336.2 
	302.5,336 302.7,336 302.9,335.8 303.3,335.7 303.5,335.5 303.8,335.3 304,335.1 304.4,334.7 304.6,334.5 305,334.3 305.1,334.2 
	305.3,333.8 305.7,333.6 305.9,333.4 306.5,332.8 307,332.3 307.6,331.7 308.2,331.1 308.7,330.6 309.1,330 309.7,329.3 311.6,327 
	312.1,326.4 312.5,325.9 313.1,325.5 313.3,325.1 313.4,324.9 313.6,324.7 314,324.5 314.2,324.2 314.4,324 314.8,323.8 
	314.9,323.6 315.1,323.4 315.5,323.2 315.7,323 315.9,322.8 316.3,322.7 316.5,322.5 316.8,322.3 316.8,322.3 317,322.1 
	317.2,322.1 317.4,322.1 317.4,321.9 317.6,321.9 317.4,321.5 317.2,321.3 316.8,321 316.6,320.6 316.1,320 314.9,318.7 
	314.4,318.1 314.2,317.8 313.8,317.6 313.6,317.2 313.4,316.8 313.1,316.4 312.9,316.1 312.5,315.7 312.3,315.3 311.9,314.9 
	311.7,314.5 311.6,314.2 311.2,313.6 310.8,312.9 309.3,310.4 308.7,309.3 308.2,308.3 307.4,307.2 306.8,306.3 306.1,305.1 
	305.5,304.2 304.8,303.2 304,302.1 303.1,300.8 300.4,296.8 299.5,295.5 298.6,294.2 298,293.6 297.6,292.9 297.2,292.3 
	296.7,291.6 296.3,291 295.9,290.2 295.5,289.7 295.2,289.1 294.8,288.5 294.4,287.8 293.8,286.7 293.1,285.3 292.3,284 
	291.6,282.7 288.9,277.6 288.2,276.5 287.4,275.2 286.9,273.8 286.1,272.7 285.4,271.4 286.9,270.6 288.4,269.7 289.1,269.3 
	289.9,268.9 290.6,268.6 291.6,268.2 292.3,267.6 293.1,267.2 293.8,266.9 294.4,266.3 295.2,265.9 295.9,265.4 296.7,265 
	297.4,264.4 298.2,264 298.7,263.5 299.5,263.1 300.2,262.5 300.8,262.2 301.6,261.6 302.1,261 302.9,260.5 303.5,260.1 
	304.2,259.5 304.8,258.9 305.3,258.4 306.7,257.3 308,256.3 309.3,255.2 313.1,251.8 314.4,250.7 315.7,249.5 317,248.6 317.6,248 
	318.2,247.5 317.4,246.5 316.5,245.8 315.7,244.8 314.8,244.1 313.8,243.1 313.1,242.4 312.1,241.4 311.2,240.7 310.4,239.7 
	309.5,239 308.5,238.2 307.6,237.3 306.8,236.5 305.9,235.8 305,234.8 304,234.1 303.1,233.3 302.1,232.4 301.2,231.6 300.2,230.9 
	298.4,229.2 296.5,227.7 294.6,226.2 292.7,224.5 290.8,222.9 288.9,221.4 287.1,219.9 285,218.4 283.1,216.9 281.2,215.4 
	279.1,213.9 277.3,212.4 275.2,210.9 273.3,209.4 271.2,208.1 269.3,206.6 267.3,205 265.2,203.7 263.3,202.2 261.2,200.7 
	259.3,199.4 257.3,197.9 254.3,195.8 251.2,193.7 248.4,191.7 245.4,189.6 242.4,187.7 239.4,185.6 236.4,183.6 234.8,182.6 
	233.3,181.7 231.8,180.5 230.3,179.6 228.8,178.7 227.3,177.7 225.8,176.8 224.3,175.6 222.8,174.7 221.1,173.8 219.6,172.8 
	218.1,171.9 216.6,170.9 215.1,170 213.4,169 211.9,168.1 210.3,167.2 208.8,166.2 207,165.1 205.1,164 204.1,163.4 203.2,162.8 
	202.4,162.3 201.5,161.7 "/>
<polyline class="st1" points="176.8,97.6 176.8,98 176.8,98.6 176.8,98.9 176.8,99.3 177,99.3 177,99.5 177,99.7 177,99.9 
	177,100.1 177,100.2 177.2,100.2 177.2,100.4 177.2,100.6 177.2,100.6 177.4,100.8 177.4,101 177.4,101 177.4,101.2 177.5,101.2 
	177.5,101.4 177.5,101.4 177.5,101.4 177.5,101.4 177.7,101.6 177.7,101.6 177.7,101.6 177.7,101.6 177.7,101.6 177.7,101.8 
	177.9,101.8 177.9,101.8 177.9,101.8 177.9,101.8 177.9,101.8 177.9,101.9 178.1,101.9 178.1,101.9 178.1,101.9 178.1,101.9 
	178.1,101.9 178.3,102.1 178.3,102.1 178.3,102.1 178.3,102.1 178.3,102.1 178.3,102.1 178.5,102.1 178.5,102.1 178.5,102.1 
	178.5,102.3 178.5,102.3 178.7,102.3 178.7,102.3 178.9,102.3 178.9,102.3 178.9,102.3 179.1,102.3 179.1,102.3 179.2,102.5 
	179.2,102.5 179.4,102.5 179.4,102.5 179.4,102.5 179.6,102.5 179.8,102.5 180,102.5 180.4,102.5 181.1,102.5 181.3,102.5 
	181.5,102.5 181.7,102.5 181.7,102.5 181.9,102.5 181.9,102.5 182.1,102.5 182.1,102.5 182.3,102.3 182.3,102.3 182.4,102.3 
	182.4,102.3 182.4,102.3 182.6,102.3 182.6,102.3 182.6,102.3 182.6,102.3 182.8,102.1 182.8,102.1 182.8,102.1 182.8,102.1 
	183,102.1 183,102.1 183,102.1 183,102.1 183,101.9 183.2,101.9 183.2,101.9 183.2,101.9 183.2,101.9 183.4,101.9 183.4,101.8 
	183.4,101.8 183.4,101.8 183.4,101.8 183.6,101.8 183.6,101.6 183.6,101.6 183.6,101.6 183.8,101.6 183.8,101.4 183.8,101.4 
	183.8,101.4 183.8,101.4 184,101.2 184,101.2 184,101 184,101 184.1,100.8 184.1,100.6 184.3,100.6 184.3,100.4 184.3,100.2 
	184.5,100.1 184.5,99.9 184.5,99.7 184.5,99.5 184.7,99.3 184.7,99.1 184.7,98.9 184.9,98.6 184.9,98 185.1,97.4 185.1,97 
	185.1,96.3 185.1,95.7 185.3,95 185.3,93.1 185.3,88.9 185.3,87.8 185.3,86.9 185.3,85.7 185.3,84.8 185.3,83.9 185.3,82.7 
	185.5,81.8 185.5,80.6 185.5,79.7 185.7,78.8 185.7,78 185.8,77.3 185.8,76.5 186,75.7 186,75 186.2,74.2 186.4,73.5 186.4,72.9 
	186.6,72.2 186.8,71.4 187,70.7 187,69.9 187.3,68.6 187.7,67.1 187.9,65.6 188.3,64.2 189.8,58.4 190.2,56.9 190.4,55.4 
	190.7,53.9 191.1,52.4 191.3,51.6 191.3,50.9 191.5,50.1 191.7,49.4 191.9,48.6 191.9,47.9 192.1,47.1 192.1,46.3 192.2,45.6 
	192.4,44.6 192.4,43.9 192.6,43.1 192.6,42.4 192.6,41.6 192.8,40.7 192.8,39.9 192.8,39.2 192.8,38.2 192.8,37.5 192.8,36.7 
	192.8,35.8 192.8,35 192.8,34.1 192.8,33.3 192.8,32.4 192.6,31.6 192.6,30.7 192.6,29.8 192.4,29 192.4,28.2 192.2,27.5 
	192.1,26.7 192.1,25.8 191.9,25 191.7,24.3 191.5,23.5 191.3,22.6 191.1,21.8 190.9,21.1 190.7,20.3 190.6,19.6 190.4,18.8 
	190,18.1 189.8,17.1 189.4,16.6 189.2,15.8 188.9,15.1 188.7,14.3 188.3,13.5 187.9,13 187.9,12.6 187.7,12.2 187.5,11.9 
	187.3,11.5 187.2,11.3 187,10.9 186.8,10.5 186.6,10.3 186.4,10 186.2,9.6 186,9.4 185.8,9 185.7,8.8 185.5,8.5 185.1,8.3 
	184.9,7.9 184.7,7.7 184.5,7.5 184.3,7.1 184.1,7 184,6.8 183.6,6.4 183.4,6.2 183.2,6 183,5.8 182.8,5.6 182.4,5.4 182.3,5.3 
	182.1,5.1 181.9,4.9 181.5,4.7 181.3,4.5 181.1,4.3 180.9,4.1 180.6,3.9 180.4,3.7 180.2,3.6 179.8,3.6 179.6,3.4 179.4,3.2 
	179.1,3 178.9,3 178.5,2.8 178.3,2.6 178.1,2.6 177.7,2.4 177.5,2.2 177.2,2.2 176.6,2.1 176,1.9 175.5,1.7 174.9,1.5 174.3,1.3 
	173.8,1.1 173.2,0.9 172.6,0.9 171.9,0.7 171.3,0.7 170.8,0.5 170.2,0.5 169.4,0.5 168.9,0.4 168.1,0.4 167.6,0.4 167,0.4 
	166.2,0.4 165.7,0.4 164.9,0.4 164.4,0.4 163.6,0.4 163,0.4 162.3,0.4 161.7,0.4 161,0.4 160.2,0.4 159.6,0.5 158.3,0.5 156.8,0.7 
	155.5,0.7 150,1.3 148.7,1.5 147.4,1.5 146.1,1.7 145.3,1.7 144.8,1.7 143.6,1.9 142.3,1.9 141.2,1.9 140,1.9 138.9,1.9 137.8,1.9 
	136.6,1.9 135.5,1.9 131.2,1.9 130.1,1.9 128.9,1.9 127.8,1.9 126.7,1.9 125.7,1.9 124.6,1.9 123.5,2.1 122.3,2.1 121.8,2.1 
	121.2,2.1 120.6,2.2 120.1,2.2 119.5,2.2 119.1,2.4 118.6,2.4 118,2.4 117.4,2.6 116.9,2.6 116.3,2.8 115.7,2.8 115.2,3 114.6,3 
	114,3.2 113.5,3.4 112.7,3.4 112.1,3.6 111.6,3.7 111,3.9 110.4,3.9 109.9,4.1 109.3,4.3 108.8,4.5 108,4.9 107.2,5.1 106.5,5.3 
	105.7,5.6 105,5.8 104.4,6.2 103.7,6.6 102.9,7 102.2,7.1 101.4,7.5 100.8,7.9 100.1,8.3 99.3,8.8 99,9 98.8,9.2 98.4,9.4 98,9.6 
	97.6,9.8 97.4,10 97.1,10.2 96.7,10.5 96.5,10.7 96.1,10.9 95.9,11.1 95.6,11.5 95.2,11.7 95,11.9 94.6,12.2 94.4,12.4 94.2,12.6 
	93.9,13 93.7,13.2 93.3,13.4 93.1,13.7 92.9,13.9 92.7,14.3 92.4,14.5 92.2,14.9 92,15.1 91.8,15.4 91.6,15.6 91.4,16 91.2,16.2 
	91,16.6 90.8,16.9 90.7,17.1 90.5,17.5 90.3,17.7 90.3,18.1 90.1,18.4 89.9,18.6 89.9,19 89.7,19.2 89.7,19.4 89.7,19.8 89.5,20 
	89.5,20.1 89.5,20.5 89.3,20.7 89.3,21.3 89.2,21.7 89.2,22.2 89.2,22.8 89,23.3 89,23.7 89,24.3 89,24.9 89,25.4 89,26 89,26.6 
	89,27.1 89.2,27.7 89.2,28.1 89.2,28.6 89.2,29.2 89.3,30.3 89.5,31.5 89.9,34.8 90.1,36 90.1,36.9 90.3,38.1 90.3,39 90.5,40.1 
	90.5,41.1 90.5,42 90.5,43.1 90.7,44.1 90.7,45 90.7,46 90.7,46.9 90.7,48 90.7,49 90.7,49.9 90.5,50.9 90.5,51.8 90.5,53.7 
	90.3,55.6 90.3,59.3 90.1,61.2 90.1,63.1 90.1,64.1 89.9,65 89.9,65.9 89.9,66.9 89.9,68 89.9,69.1 89.9,70.3 89.9,71.2 89.9,72.4 
	90.1,73.5 90.1,74.6 90.1,75.6 90.1,77.8 90.3,80.1 90.5,86.7 90.7,88.9 90.7,91.2 90.8,92.3 90.8,93.5 90.8,94.6 90.8,95.7 
	90.8,96.9 90.8,98 90.8,98.9 90.8,100.1 90.8,101.2 90.8,102.3 90.8,102.5 90.8,102.7 90.8,102.7 90.8,102.9 90.8,102.9 90.8,103.1 
	90.8,103.3 90.8,103.3 90.8,103.5 90.8,103.5 90.8,103.6 90.8,103.6 91,103.8 91,103.8 91,104 91,104 91,104 91,104 91,104 
	91,104.2 91,104.2 91.2,104.2 91.2,104.2 91.2,104.2 91.2,104.2 91.2,104.4 91.2,104.4 91.2,104.4 91.2,104.4 91.2,104.4 
	91.4,104.4 91.4,104.6 91.4,104.6 91.4,104.6 91.4,104.6 91.4,104.6 91.4,104.6 91.4,104.6 91.6,104.6 91.6,104.8 91.6,104.8 
	91.6,104.8 91.6,104.8 91.6,104.8 91.6,104.8 91.8,104.8 91.8,104.8 91.8,104.8 91.8,104.8 91.8,105 91.8,105 92,105 92,105 92,105 
	92,105 92.2,105 92.2,105 92.2,105 92.4,105.1 92.4,105.1 92.5,105.1 92.5,105.1 92.5,105.1 92.7,105.1 92.7,105.1 92.9,105.1 
	93.1,105.1 93.3,105.1 93.7,105.1 94.1,105.1 94.8,105.1 95.2,105.1 95.4,105.1 95.6,105.1 95.7,105.1 95.9,105.1 96.1,105.1 
	96.1,105.1 96.3,105.1 96.3,105.1 96.5,105 96.5,105 96.7,105 96.7,105 96.9,105 96.9,105 97.1,105 97.1,104.8 97.3,104.8 
	97.3,104.8 97.3,104.8 97.4,104.6 97.4,104.6 97.4,104.6 97.4,104.6 97.6,104.6 97.6,104.6 97.6,104.6 97.6,104.4 97.6,104.4 
	97.8,104.4 97.8,104.4 97.8,104.4 97.8,104.4 97.8,104.2 98,104.2 98,104.2 98,104.2 98,104.2 98,104 98,104 98.2,104 98.2,104 
	98.2,103.8 98.2,103.8 98.2,103.8 98.2,103.8 98.4,103.6 98.4,103.6 98.4,103.6 98.4,103.6 98.4,103.5 98.6,103.3 98.6,103.3 
	98.6,103.1 98.6,102.9 98.6,102.9 98.8,102.7 98.8,102.5 98.8,102.5 98.8,102.3 98.8,102.1 98.8,101.9 98.8,101.8 99,101.6 
	99,101.4 99,101.2 99,101 99,100.2 99,99.5 98.8,98 98.8,96.5 98.8,95 98.8,94 98.6,92.9 98.6,91.8 98.6,90.6 98.4,89.3 98.4,88 
	97.8,80.3 97.8,78.2 97.6,76.1 97.6,75.2 97.6,74 97.4,73.1 97.4,72 97.4,70.7 97.4,69.3 97.4,68.6 97.4,68 97.4,67.3 97.4,66.5 
	97.4,65.6 97.4,64.6 97.6,63.7 97.6,62.9 97.6,61.8 97.6,60.9 97.8,59 98,56.7 98.4,51.8 98.6,50.7 98.6,49.4 98.8,48.2 98.8,47.3 
	98.8,46.2 99,45 99,43.9 99,42.8 99,41.6 99.1,40.7 99.1,39.4 99.1,38.2 99.1,37.1 99.1,36 99.1,34.8 99,30.7 99,29.9 99,29.2 
	99,28.4 99,27.9 99,27.5 99,26.9 99,26.6 99,26.2 99,25.8 99,25.4 99.1,25 99.1,24.7 99.1,24.3 99.1,24.1 99.3,23.7 99.3,23.5 
	99.3,23.3 99.5,23.2 99.5,23.2 99.5,23 99.5,23 99.5,22.8 99.7,22.8 99.7,22.6 99.7,22.6 99.7,22.4 99.9,22.4 99.9,22.2 99.9,22.2 
	100.1,22 100.1,22 100.3,21.8 100.3,21.8 100.3,21.7 100.5,21.7 100.5,21.5 100.6,21.5 100.8,21.3 100.8,21.3 101,21.1 101,20.9 
	101.2,20.9 101.4,20.7 101.6,20.5 101.8,20.5 102,20.3 102.3,20.1 102.7,20 103.1,19.8 103.5,19.4 104,19.2 104.4,19 105,18.8 
	105.4,18.6 105.9,18.4 106.5,18.3 107.1,18.1 107.6,17.9 108.2,17.7 108.8,17.7 109.3,17.5 110.1,17.3 110.6,17.1 111.4,16.9 
	112.1,16.9 112.5,16.8 113.1,16.8 113.7,16.8 114,16.6 114.6,16.6 115.2,16.6 115.5,16.4 116.1,16.4 116.5,16.4 117,16.4 
	118.2,16.2 119.1,16.2 120.1,16.2 121.2,16.2 122.1,16 123.3,16 124.4,16 125.3,16.2 126.5,16.2 128.5,16.2 132.1,16.2 133.8,16.4 
	135.7,16.4 137.2,16.4 138.5,16.4 140,16.4 141.4,16.4 142.9,16.4 143.4,16.4 144.2,16.2 144.9,16.2 145.5,16.2 146.3,16.2 
	147,16.2 147.8,16 148.5,16 150,15.8 151.9,15.6 157.6,15.1 158.9,15.1 160.2,14.9 161.5,14.9 162.3,14.7 162.8,14.7 163.4,14.7 
	164.2,14.7 164.7,14.7 165.3,14.7 165.9,14.7 166.4,14.7 167,14.7 167.6,14.7 168.1,14.7 168.5,14.7 169.1,14.7 169.6,14.7 
	170,14.7 170.4,14.9 171,14.9 171.3,14.9 171.7,15.1 172.1,15.1 172.5,15.2 172.8,15.2 173,15.4 173.4,15.4 173.6,15.6 173.8,15.6 
	174,15.6 174.2,15.8 174.2,15.8 174.3,15.8 174.5,15.8 174.5,16 174.7,16 174.7,16 174.9,16.2 174.9,16.2 174.9,16.2 175.1,16.2 
	175.1,16.4 175.3,16.4 175.3,16.4 175.3,16.6 175.5,16.6 175.5,16.6 175.5,16.8 175.7,16.8 175.7,16.8 175.7,16.9 175.9,16.9 
	175.9,16.9 175.9,17.1 176,17.1 176,17.3 176,17.3 176.2,17.5 176.2,17.7 176.4,17.7 176.4,17.9 176.6,18.1 176.6,18.3 176.8,18.4 
	176.8,18.8 177,19 177.2,19.2 177.2,19.6 177.4,20 177.5,20.5 177.7,20.9 177.7,21.5 177.9,22 178.1,22.6 178.3,23 178.3,23.5 
	178.5,24.3 178.5,24.9 178.7,25.4 178.7,26 178.9,26.7 178.9,27.3 179.1,28.1 179.1,28.6 179.1,29.4 179.2,29.9 179.2,30.7 
	179.2,31.5 179.2,32.4 179.4,33.5 179.4,34.3 179.4,35 179.4,35.8 179.4,36.5 179.4,37.3 179.4,38.1 179.4,38.8 179.4,39.6 
	179.4,40.3 179.2,41.1 179.2,41.8 179.2,42.6 179.2,44.1 179.1,45.6 179.1,47.1 178.9,48.6 178.7,50.3 178.5,52 178.3,53.7 
	178.1,55.4 177.7,60.1 177.4,62.6 177.4,63.7 177.2,65 177,66.9 177,68.6 176.8,69.5 176.8,70.5 176.8,71.4 176.6,72.4 176.6,73.1 
	176.6,73.9 176.6,74.8 176.4,75.6 176.4,76.3 176.4,77.3 176.4,78 176.4,78.8 176.4,79.7 176.4,80.5 176.4,81.4 176.4,82.2 
	176.4,83.9 176.6,85.5 176.6,91.2 176.8,92.1 176.8,93.3 176.8,94.6 176.8,95.9 176.8,96.7 176.8,97.6 "/>
<path class="st1" d="M177,67.6h-5.3h-15.8h-8.1h-8.1h-16.4h-6.4h-3.2h-3.2h-3.2H104h-1.7h-1.7H99h-1.7v1.1v1.1V71v1.1v0.9V74v1.7
	v1.7l0.2,1.7h21.5h22.2h7.4h7.7H170h6C176.4,75.2,176.6,71.4,177,67.6"/>
<polygon class="st0" points="177,67.6 171.7,67.6 155.9,67.6 147.8,67.6 139.7,67.6 123.3,67.6 116.9,67.6 113.7,67.6 110.4,67.6 
	107.1,67.6 103.9,67.6 102.3,67.6 100.6,67.6 99,67.5 97.4,67.5 97.4,68.6 97.4,69.7 97.4,70.8 97.4,72 97.4,72.9 97.4,73.7 
	97.6,75.4 97.6,77.1 97.8,79 103.7,79 119.3,79 141.5,78.8 148.9,78.8 156.6,79 170.4,79 176.4,79 176.4,78.8 176.4,78 176.4,77.3 
	176.4,76.3 176.4,75.6 176.6,74.8 176.6,73.9 176.6,73.1 176.6,72.4 176.8,71.2 176.8,70.1 176.8,69 "/>
</svg>
