<?xml version="1.0" encoding="utf-8"?>
<!-- Generator: Adobe Illustrator 21.1.0, SVG Export Plug-In . SVG Version: 6.00 Build 0)  -->
<svg version="1.1" id="Слой_1" xmlns="http://www.w3.org/2000/svg" xmlns:xlink="http://www.w3.org/1999/xlink" x="0px" y="0px"
	 viewBox="0 0 588.3 638.8" style="enable-background:new 0 0 588.3 638.8;" xml:space="preserve">
<style type="text/css">
	.st0{fill:none;stroke:#FFFFFF;stroke-width:0.7087;stroke-linecap:round;stroke-linejoin:round;stroke-miterlimit:10;}
	.st1{fill:#FFFFFF;}
	.st2{fill:#ED6720;}
	.st3{fill:none;stroke:#ED6720;stroke-width:0.7087;stroke-linecap:round;stroke-linejoin:round;stroke-miterlimit:10;}
</style>
<path class="st0" d="M155.2,81.5c3.1,1.9,5.7,4.5,7.6,7.6c2.1,3.1,3.2,6.7,4.4,10.3c1.3,4.1,2.5,8.2,3.1,12.3
	c0.4,4.2,0.3,8.6-0.1,12.9c-0.3,2.3-0.6,4.7-1.5,6.9c-0.9,2.5-2.5,4.7-4,6.9c-1.8,2.3-3.5,4.4-5.6,6.3c-2.3,2.2-5.1,4.2-7.9,6
	c-3.5,2.3-7.3,4.2-11.3,5.3c-2.5,0.6-5,0.9-7.6,0.9c-4.2,0-8.5-0.9-12.6-2.2c-5-1.6-9.8-4.2-13.9-7.5c-2.8-2.2-5.1-4.8-6.9-7.9
	c-1.8-3.1-2.9-6.6-3.7-10.1c-1.3-7-0.6-14.1,0.6-21.1c0.6-3.4,1.2-6.6,2.1-10c0.7-3.4,1.8-6.7,3.7-9.4c1.5-2.1,3.7-3.5,5.9-5.1
	c5.1-3.5,10.4-6.6,16.3-8.1c2.6-0.6,5.3-0.9,7.9-1.2c3.5-0.3,7-0.6,10.4,0.1c2.3,0.4,4.7,1.5,6.7,2.6
	C151.3,78.5,153.3,79.9,155.2,81.5z"/>
<polygon class="st1" points="155.2,81.5 155.8,81.8 156.4,82.3 156.8,82.7 157.4,83.1 158,83.6 158.5,84 159,84.5 159.5,84.9 
	159.9,85.3 160.4,85.9 160.9,86.4 161.2,86.9 161.7,87.4 162.1,88 162.6,88.6 162.8,89.1 163.3,89.7 163.6,90.3 163.9,90.9 
	164.3,91.5 164.6,92.2 164.9,92.8 165.2,93.4 165.5,94.1 165.6,94.7 165.9,95.4 166.2,96 166.4,96.6 166.7,97.4 166.9,98.1 
	167.4,99.4 167.8,100.9 168.1,101.6 168.3,102.3 168.6,103.2 168.7,103.9 169,104.7 169.1,105.4 169.4,106.3 169.6,107 169.7,107.8 
	169.9,108.6 170,109.4 170.2,110.1 170.3,111 170.3,111.7 170.5,112.4 170.6,113.3 170.6,114.1 170.6,114.9 170.6,115.7 
	170.8,116.5 170.8,117.3 170.8,118.2 170.6,118.9 170.6,119.8 170.6,120.5 170.6,121.4 170.5,122.1 170.5,123 170.3,123.7 
	170.3,124.6 170.2,125.5 170,126.4 169.9,127.2 169.9,127.7 169.7,128 169.7,128.4 169.6,128.9 169.4,129.3 169.3,129.7 
	169.3,130.2 169.1,130.6 169,131.1 168.9,131.5 168.6,131.9 168.4,132.4 168.3,132.8 168,133.2 167.8,133.7 167.5,134.1 
	167.2,134.6 167.1,135 166.8,135.4 166.5,135.9 166.2,136.3 165.9,136.6 165.3,137.5 164.8,138.4 164.2,139.1 163.4,140 
	162.8,140.9 162.6,141.2 162.1,141.6 161.8,142 161.5,142.3 161.1,142.8 160.8,143.2 160.4,143.5 160.1,143.9 159.6,144.2 
	159.3,144.7 158.9,145 158.5,145.4 157.9,145.8 157.4,146.3 157,146.7 156.5,147 156,147.5 155.5,147.9 155.1,148.2 154.5,148.6 
	154.1,148.9 153.5,149.4 153,149.7 152.4,150 152,150.4 151.4,150.7 150.7,151.1 150.1,151.6 149.4,152 148.8,152.3 148,152.7 
	147.3,153.2 146.6,153.5 146,153.8 145.3,154.2 144.5,154.5 143.8,154.8 143.1,155.1 142.3,155.4 141.6,155.5 140.9,155.8 
	140.1,156 139.7,156.1 139.1,156.3 138.7,156.3 138.2,156.4 137.8,156.5 137.4,156.5 136.8,156.5 136.3,156.7 135.9,156.7 
	135.4,156.8 134.9,156.8 134.4,156.8 134,156.8 133.5,156.8 133,156.8 132.5,156.8 131.6,156.8 130.9,156.8 130,156.8 129.3,156.8 
	128.6,156.7 127.7,156.5 126.9,156.4 126.1,156.4 125.3,156.3 124.6,156 123.7,155.8 123,155.7 122.3,155.4 121.4,155.2 
	120.6,154.9 119.9,154.8 118.9,154.3 118,154.1 117.1,153.8 116.1,153.3 115.2,152.9 114.3,152.4 113.5,152 112.6,151.6 
	112.2,151.4 111.7,151.1 111.3,150.8 110.8,150.5 110.4,150.4 110.1,150.1 109.7,149.8 109.2,149.5 108.8,149.2 108.3,148.9 
	108,148.8 107.6,148.5 107.2,148 106.7,147.8 106.4,147.5 106,147.2 105.6,146.7 105,146.3 104.5,145.8 104.1,145.4 103.7,145 
	103.1,144.5 102.6,144.1 102.2,143.5 101.7,143.1 101.5,142.6 101,142 100.6,141.5 100.1,141 99.8,140.4 99.5,139.8 99.1,139.4 
	98.8,138.8 98.5,138.1 98.2,137.5 97.9,136.9 97.6,136.3 97.4,135.7 97.1,135 96.9,134.4 96.6,133.8 96.5,133.1 96.3,132.5 
	96,131.8 95.9,131.2 95.7,130.5 95.6,129.9 95.6,129.1 95.4,128.6 95.3,127.8 95.2,127.2 95.2,126.5 95,125.9 95,125.2 95,124.6 
	94.9,123.9 94.9,123.3 94.9,122.6 94.9,122 94.9,121.2 94.9,120.6 94.9,119.9 94.9,119.3 94.9,118.6 94.9,118 95,117.3 95,116.7 
	95,116 95.2,115.4 95.2,114.6 95.3,113.3 95.4,112 95.7,110.7 95.9,109.4 96.2,108 96.3,106.7 96.6,105.6 96.8,104.2 97.1,103.1 
	97.4,101.7 97.6,100.6 97.8,99.3 98.1,98.1 98.4,96.8 98.7,96.2 98.8,95.6 99,95 99.1,94.3 99.4,93.7 99.5,93.1 99.7,92.5 100,91.9 
	100.3,91.3 100.4,91.1 100.6,90.9 100.7,90.6 100.9,90.3 101,90 101.2,89.7 101.3,89.4 101.5,89.3 101.6,89 101.7,88.7 101.9,88.6 
	102,88.4 102.5,88 102.8,87.7 103.1,87.4 103.4,86.9 103.8,86.7 104.1,86.4 104.5,86.1 104.8,85.8 105.3,85.3 105.7,85 106,84.8 
	106.9,84.2 107.6,83.7 108.6,83 109.7,82.4 110.5,81.7 111.6,81.1 112.4,80.5 113.5,79.9 114.1,79.6 114.5,79.3 114.9,79 
	115.5,78.9 116,78.6 116.5,78.3 117,78 117.6,77.9 118,77.6 118.6,77.4 119,77.1 119.6,77 120.1,76.7 120.6,76.5 121.2,76.4 
	121.7,76.3 122.3,76 122.8,75.8 123.3,75.7 123.9,75.5 124.3,75.5 124.9,75.4 125.3,75.2 125.8,75.1 126.4,75.1 126.8,74.9 
	127.8,74.8 128.9,74.6 129.9,74.6 130.9,74.5 131.8,74.3 133.1,74.3 133.8,74.2 134.4,74.2 135.2,74.2 135.7,74.2 136.5,74.1 
	137.1,74.1 137.8,74.1 138.4,74.2 139.1,74.2 139.7,74.2 140.4,74.3 141,74.3 141.6,74.5 142.3,74.6 142.8,74.6 143.2,74.8 
	143.7,74.9 144.1,75.1 144.4,75.2 144.8,75.4 145.3,75.5 145.7,75.7 146.1,75.8 146.6,76 147,76.1 147.5,76.4 147.8,76.5 
	148.2,76.8 148.6,77 149.1,77.3 149.5,77.4 149.8,77.7 150.2,77.9 150.7,78.2 151.1,78.5 151.4,78.7 152.3,79.2 153,79.8 
	153.8,80.4 154.5,80.9 "/>
<polygon class="st2" points="52.7,365 51.3,364.9 50.6,364.9 50,364.8 49.4,364.8 48.9,364.8 48.3,364.8 47.7,364.8 47.1,364.8 
	46.5,364.8 45.9,364.9 45.6,364.9 45.5,364.9 45.2,365 44.9,365 44.6,365 44.3,365.2 44,365.2 43.7,365.3 43.4,365.3 43.1,365.5 
	42.8,365.5 42.6,365.6 42.3,365.8 42,365.8 41.7,365.9 41.4,366.1 41.1,366.2 40.8,366.4 40.6,366.5 40.4,366.7 40.1,366.8 
	39.8,367 39.5,367.1 39.2,367.4 38.9,367.5 38.6,367.7 38.3,368 38,368.1 37.9,368.3 37.6,368.6 37.3,368.9 37,369 36.8,369.3 
	36.5,369.6 36.3,369.9 36.1,370 35.8,370.3 35.7,370.6 35.5,370.9 35.2,371.2 35.1,371.6 34.9,371.9 34.8,372.1 34.6,372.4 
	34.5,372.5 34.5,372.8 34.2,373.3 34.1,373.8 33.9,374.3 33.8,374.7 33.6,375.3 33.5,375.7 33.3,376.3 33.2,376.9 33.2,377.4 
	33,377.9 32.9,378.5 32.9,379.1 32.7,379.6 32.7,380.1 32.6,380.7 32.6,381.5 32.6,382 32.4,382.6 32.4,383.8 32.3,385.1 
	32.3,386.3 32.3,387.5 32.3,388.6 32.3,390 32.3,391.4 32.3,393 32.3,394.6 32.3,396.1 32.4,397.7 32.4,399.2 32.6,402.3 
	32.9,408.4 33,411.5 33,413.1 33,414.7 33.2,416.5 33.2,418.4 33.2,420.1 33.2,422 33.3,423.9 33.3,425.9 33.3,429.5 33.3,444.6 
	33.3,448.4 33.3,452.1 33.3,453.8 33.3,455.7 33.5,457.5 33.5,459.3 33.5,461 33.6,462.8 33.6,464.5 33.8,466.3 33.9,467.9 
	34.1,469.7 34.1,471.3 34.2,472.9 34.3,473.3 34.3,473.9 34.5,474.4 34.5,474.6 34.5,474.8 34.6,475.1 34.6,475.2 34.6,475.4 
	34.6,475.5 34.8,475.7 34.8,475.7 34.8,475.8 34.9,476 34.9,476.1 34.9,476.1 34.9,476.3 35.1,476.4 35.1,476.5 35.2,476.5 
	35.2,476.7 35.2,476.8 35.4,476.8 35.4,477 35.5,477.1 35.5,477.1 35.7,477.3 35.8,477.4 35.8,477.4 36,477.6 36,477.7 36.1,477.7 
	36.3,477.9 36.4,477.9 36.4,478 36.5,478 36.7,478.2 36.8,478.3 37,478.3 37,478.5 37.1,478.5 37.3,478.6 37.4,478.6 37.6,478.7 
	37.7,478.7 38,478.9 38.2,478.9 38.3,478.9 38.4,479 38.6,479 39,479.2 39.5,479.3 39.8,479.3 40.2,479.5 40.8,479.5 41.2,479.6 
	41.7,479.6 42.1,479.8 42.7,479.8 43.1,479.8 43.7,479.9 44.9,479.9 45.9,480.1 47.1,480.1 48.3,480.1 49.4,480.1 50.6,480.1 
	51.6,480.1 52.8,480.1 53.8,479.9 55.7,479.9 56.9,479.9 58.1,479.8 59,479.8 59.8,479.8 60.6,479.6 61.3,479.6 61.9,479.5 
	62.3,479.5 62.6,479.5 62.8,479.3 62.9,479.3 63.2,479.3 63.4,479.2 63.5,479.2 63.7,479.2 63.7,479.2 63.8,479 63.8,479 63.9,479 
	63.9,479 64.1,479 64.1,478.9 64.1,478.9 64.2,478.9 64.2,478.9 64.4,478.9 64.4,478.7 64.5,478.7 64.5,478.6 64.7,478.6 
	64.8,478.5 64.8,478.5 65,478.3 65.1,478.2 65.3,478.2 65.3,478 65.4,477.9 65.6,477.7 65.7,477.7 65.7,477.6 65.8,477.4 66,477.3 
	66,477.1 66.1,477 66.3,476.8 66.3,476.7 66.4,476.4 66.7,476.1 66.9,475.7 67,475.4 67.2,474.9 67.3,474.6 67.5,474.2 67.6,473.8 
	67.8,473.3 67.9,472.9 68,472.4 68.2,472 68.3,471.6 68.3,471.1 68.5,470.5 68.6,470.1 68.8,469.5 68.8,468.9 68.9,468.3 
	68.9,467.9 69.1,467.3 69.2,466.7 69.4,465.4 69.5,464.2 69.5,462.9 69.7,461.6 69.8,460.1 69.8,458.7 70,457.2 70,455.7 70,454.3 
	70.1,452.7 70.1,451.1 70.1,449.4 70.1,447.7 70,446.1 70,444.3 70,442.6 70,440.8 69.8,439 69.8,437.3 69.8,435.4 69.7,433.5 
	69.5,429.8 69.4,426 69.1,422 68.9,418.2 68.6,414.3 67.6,398.5 67.5,394.5 67.2,390.7 67,386.9 66.9,383.1 66.6,377.8 66.6,376.9 
	66.4,376.2 66.4,375.3 66.3,374.6 66.3,374.3 66.3,373.8 66.1,373.5 66.1,373.1 66,372.8 66,372.4 65.8,372.1 65.8,371.8 
	65.7,371.3 65.6,371.1 65.6,370.9 65.4,370.8 65.4,370.6 65.3,370.5 65.3,370.3 65.1,370.2 65.1,370 65,369.9 65,369.7 64.8,369.6 
	64.8,369.4 64.7,369.3 64.5,369.1 64.5,369 64.4,369 64.2,368.9 64.2,368.7 64.1,368.6 63.9,368.4 63.8,368.3 63.7,368.3 
	63.7,368.1 63.5,368 63.4,368 63.2,367.8 63.1,367.7 62.9,367.7 62.8,367.5 62.6,367.4 62.5,367.4 62.3,367.2 62.2,367.2 62,367.1 
	61.9,367 61.6,366.8 61.3,366.7 60.9,366.5 60.6,366.5 60.1,366.4 59.8,366.2 59.5,366.1 59.1,366.1 58.7,365.9 58.4,365.8 
	57.9,365.8 57.2,365.6 56.5,365.5 55.6,365.3 54.9,365.2 54.1,365.2 "/>
<path class="st3" d="M52.7,365c-3.8-0.3-6.4-0.6-9.5,0.4c-3.1,0.9-6.4,2.9-8.4,6.4c-1.2,2.3-1.8,5.3-2.2,8.2
	c-0.4,3.2-0.4,6.6-0.4,9.7c0,8.4,0.6,16.4,0.9,24.8c0.6,19.5-0.4,41,1.2,58.2c0.3,2.6,0.6,5.1,4.7,6.3s11.9,0.9,16.7,0.7
	c6.7-0.3,7.9-0.6,8.9-1.3c9.7-7.3,3.7-60.4,2.1-99.2c-0.1-4.4-0.3-8.6-2.8-11.1C61.3,365.9,56.5,365.3,52.7,365z"/>
<polyline class="st3" points="130.6,194.1 130.8,195.1 130.8,196.3 130.9,197.4 130.9,198.6 130.9,199.6 131.1,200.8 131.1,202 
	131.1,203.1 131.1,204.3 131.1,205.5 131.1,206.7 131.1,208 131.1,209.1 131.1,210.5 130.9,211.6 130.9,213 130.9,215.3 
	130.8,217.6 130.6,220.1 130.5,222.5 130.3,225.1 130.2,227.6 130,230.1 129.9,232.7 129.7,235.4 129.4,237.9 129.3,240.5 
	129.1,243 128.9,245.5 128.7,248 128.4,250.5 128.1,252.8 128,255 127.8,257.1 127.5,259 127.4,261 127.1,262.9 126.9,264.7 
	126.7,266.6 126.5,268.3 126.2,270 126.1,271.7 125.8,273.3 125.6,274.8 125.3,276.4 125.2,277.9 124.9,279.3 124.8,280.6 
	124.5,282.1 124.3,283.4 124,284.6 123.9,285.9 123.6,287.1 123.4,288.1 123.1,289.3 123,290.3 122.7,291.3 122.6,292.2 
	122.3,293.3 122.1,294.1 121.8,295 121.7,295.7 121.5,296.5 121.2,297.2 121.7,298.2 122.3,299.6 123.4,302 124,303.4 124.6,304.7 
	124.9,305.3 125.2,306 125.5,306.6 125.8,307.2 126.1,307.8 126.4,308.3 126.7,308.9 126.9,309.4 127.2,309.8 127.5,310.4 
	128.1,311.3 129.3,313.2 129.9,314.1 130.5,315.1 130.8,315.5 131.1,316.1 131.6,317 132.4,318.3 132.7,318.7 132.8,319.2 
	133.1,319.6 133.4,320.1 133.5,320.2 133.7,320.5 133.8,320.6 134,320.8 134.1,320.9 134.3,321.2 134.4,321.4 134.6,321.5 
	134.7,321.7 134.9,321.8 135,322 135.2,322 135.2,322 135.3,322.1 135.3,322.1 135.4,322.3 135.6,322.3 135.6,322.4 135.7,322.3 
	135.7,322.3 135.9,322.1 136,322.1 136,322 136.2,322 136.2,322 136.3,321.8 136.5,321.7 136.6,321.5 136.8,321.4 136.9,321.2 
	137.2,320.9 137.4,320.8 137.5,320.6 137.6,320.5 137.8,320.2 137.8,320.1 138.1,319.6 138.4,319.2 138.7,318.7 139,318.3 
	140.1,316.1 140.4,315.5 140.7,315.1 141.3,314.1 141.9,313.2 143.1,311.3 143.7,310.4 143.9,309.8 144.2,309.4 144.5,308.9 
	144.8,308.3 145.1,307.8 145.6,307.2 145.8,306.6 146.1,306 146.4,305.3 146.7,304.7 147.3,303.4 147.9,302 148.9,299.6 
	149.5,298.2 150,297.2 149.4,295 148.9,293.1 148.5,291.2 148,289.3 147.6,287.7 147.3,286.1 147,284.6 146.7,283.1 146.4,281.8 
	146.3,280.5 146,279.2 145.8,278 145.7,276.8 145.6,275.5 145.1,273.2 145,271.4 144.7,269.7 144.5,267.9 144.2,266 144.1,264.2 
	143.8,262.3 143.7,260.4 143.5,258.5 143.2,256.6 143.1,254.6 142.9,252.7 142.8,250.6 142.5,248.7 142.3,246.7 142.2,244.6 
	142,242.6 141.7,238.7 141.2,231.1 140.9,227.2 140.6,223.4 140.4,221.5 140.3,219.6 140,217.6 139.8,215.7 139.7,213.7 
	139.4,211.8 139.3,209.7 138.4,203.3 138.2,201.1 138.1,200.1 137.9,198.9 137.8,197.9 137.8,196.7 137.6,195.7 137.6,194.5 
	137.6,194.5 137.8,194.3 137.9,194.2 137.9,194.2 138.1,194.1 138.2,193.9 138.2,193.8 138.4,193.8 138.4,193.6 138.5,193.5 
	138.5,193.3 138.5,193.3 138.7,193.2 138.7,193 138.8,192.9 138.8,192.7 138.8,192.7 138.8,192.6 139,192.4 139,192.3 139,192.2 
	139,192.2 139.1,192 139.1,191.9 139.1,191.7 139.1,191.6 139.1,191.6 139.1,191.4 139.1,191.3 139.1,191.1 139.1,191 139.1,191 
	139.1,190.8 139.1,190.7 139.1,190.4 139.1,190.2 139.1,190 139.1,189.7 139,189.5 139,189.2 139,188.9 139,188.8 138.8,188.5 
	138.7,188 138.5,187.6 138.4,187.2 138.2,186.3 138.1,186 137.9,185.6 137.8,185.1 137.6,184.8 137.5,184.5 137.4,184.2 
	137.2,183.8 137.1,183.5 136.9,183.5 136.9,183.4 136.8,183.2 136.6,183.1 136.6,182.9 136.5,182.8 136.5,182.8 136.3,182.6 
	136.3,182.5 136.2,182.5 136.2,182.3 136,182.3 136,182.3 136,182.2 135.9,182.2 135.9,182.2 135.9,182.2 135.7,182 135.7,182 
	135.7,182 135.6,182 135.6,182 135.6,181.9 135.4,181.9 135.4,181.9 135.4,181.9 135.3,181.9 135.3,181.7 135.3,181.7 135.2,181.7 
	135.2,181.7 135.2,181.7 135,181.7 135,181.7 135,181.7 134.9,181.7 134.9,181.6 134.9,181.6 134.7,181.6 134.7,181.6 134.7,181.6 
	134.6,181.6 134.6,181.6 134.6,181.6 134.4,181.6 134.4,181.6 134.4,181.6 134.3,181.6 134.3,181.6 134.3,181.6 134.1,181.6 
	134.1,181.6 134,181.6 134,181.6 134,181.6 133.8,181.6 133.8,181.6 133.8,181.7 133.7,181.7 133.7,181.7 133.7,181.7 133.5,181.7 
	133.5,181.7 133.5,181.7 133.4,181.7 133.4,181.9 133.4,181.9 133.2,181.9 133.2,181.9 133.2,181.9 133.1,181.9 133.1,182 
	133.1,182 133,182 133,182 133,182 132.8,182.2 132.7,182.2 132.7,182.3 132.5,182.5 132.4,182.5 132.4,182.6 132.2,182.6 
	132.2,182.8 132.1,182.9 131.9,183.1 131.9,183.1 131.8,183.2 131.6,183.4 131.6,183.5 131.5,183.7 131.5,183.8 131.3,183.9 
	131.2,184.2 131.1,184.5 130.9,184.8 130.8,185.3 130.5,185.6 130.3,186 130.2,186.4 130,186.9 129.9,187.3 129.7,187.9 
	129.6,188.3 129.4,188.9 129.4,189.1 129.3,189.4 129.3,189.7 129.3,190 129.1,190.1 129.1,190.4 129.1,190.7 129.1,190.8 
	129.1,190.8 129.1,191 129.1,191.1 129.1,191.3 129.1,191.4 129.1,191.6 129.1,191.6 129.1,191.7 129.1,191.9 129.1,192 129.3,192 
	129.3,192.2 129.3,192.3 129.3,192.4 129.3,192.4 129.4,192.6 129.4,192.6 129.4,192.6 129.4,192.7 129.4,192.7 129.4,192.7 
	129.4,192.9 129.6,192.9 129.6,192.9 129.6,193 129.6,193 129.6,193 129.7,193.2 129.7,193.2 129.7,193.2 129.7,193.3 129.7,193.3 
	129.9,193.3 129.9,193.3 129.9,193.5 129.9,193.5 130,193.5 130,193.6 130,193.6 130.2,193.6 130.2,193.6 130.2,193.8 130.3,193.8 
	130.3,193.8 130.3,193.8 130.3,193.9 130.5,193.9 130.5,193.9 130.6,193.9 130.6,193.9 130.6,194.1 "/>
<polygon class="st2" points="130.6,194.1 130.8,195.1 130.8,196.3 130.9,197.4 130.9,198.6 130.9,199.6 131.1,200.8 131.1,202 
	131.1,203.1 131.1,204.3 131.1,205.5 131.1,206.7 131.1,208 131.1,209.1 131.1,210.5 130.9,211.6 130.9,213 130.9,215.3 
	130.8,217.6 130.6,220.1 130.5,222.5 130.3,225.1 130.2,227.6 130,230.1 129.9,232.7 129.7,235.4 129.4,237.9 129.3,240.5 
	129.1,243 128.9,245.5 128.7,248 128.4,250.5 128.1,252.8 128,255 127.8,257.1 127.5,259 127.4,261 127.1,262.9 126.9,264.7 
	126.7,266.6 126.5,268.3 126.2,270 126.1,271.7 125.8,273.3 125.6,274.8 125.3,276.4 125.2,277.9 124.9,279.3 124.8,280.6 
	124.5,282.1 124.3,283.4 124,284.6 123.9,285.9 123.6,287.1 123.4,288.1 123.1,289.3 123,290.3 122.7,291.3 122.6,292.2 
	122.3,293.3 122.1,294.1 121.8,295 121.7,295.7 121.5,296.5 121.2,297.2 121.7,298.2 122.3,299.6 123.4,302 124,303.4 124.6,304.7 
	124.9,305.3 125.2,306 125.5,306.6 125.8,307.2 126.1,307.8 126.4,308.3 126.7,308.9 126.9,309.4 127.2,309.8 127.5,310.4 
	128.1,311.3 129.3,313.2 129.9,314.1 130.5,315.1 130.8,315.5 131.1,316.1 131.6,317 132.4,318.3 132.7,318.7 132.8,319.2 
	133.1,319.6 133.4,320.1 133.5,320.2 133.7,320.5 133.8,320.6 134,320.8 134.1,320.9 134.3,321.2 134.4,321.4 134.6,321.5 
	134.7,321.7 134.9,321.8 135,322 135.2,322 135.2,322 135.3,322.1 135.3,322.1 135.4,322.3 135.6,322.3 135.6,322.4 135.7,322.3 
	135.7,322.3 135.9,322.1 136,322.1 136,322 136.2,322 136.2,322 136.3,321.8 136.5,321.7 136.6,321.5 136.8,321.4 136.9,321.2 
	137.2,320.9 137.4,320.8 137.5,320.6 137.6,320.5 137.8,320.2 137.8,320.1 138.1,319.6 138.4,319.2 138.7,318.7 139,318.3 
	140.1,316.1 140.4,315.5 140.7,315.1 141.3,314.1 141.9,313.2 143.1,311.3 143.7,310.4 143.9,309.8 144.2,309.4 144.5,308.9 
	144.8,308.3 145.1,307.8 145.6,307.2 145.8,306.6 146.1,306 146.4,305.3 146.7,304.7 147.3,303.4 147.9,302 148.9,299.6 
	149.5,298.2 150,297.2 149.4,295 148.9,293.1 148.5,291.2 148,289.3 147.6,287.7 147.3,286.1 147,284.6 146.7,283.1 146.4,281.8 
	146.3,280.5 146,279.2 145.8,278 145.7,276.8 145.6,275.5 145.1,273.2 145,271.4 144.7,269.7 144.5,267.9 144.2,266 144.1,264.2 
	143.8,262.3 143.7,260.4 143.5,258.5 143.2,256.6 143.1,254.6 142.9,252.7 142.8,250.6 142.5,248.7 142.3,246.7 142.2,244.6 
	142,242.6 141.7,238.7 141.2,231.1 140.9,227.2 140.6,223.4 140.4,221.5 140.3,219.6 140,217.6 139.8,215.7 139.7,213.7 
	139.4,211.8 139.3,209.7 138.4,203.3 138.2,201.1 138.1,200.1 137.9,198.9 137.8,197.9 137.8,196.7 137.6,195.7 137.6,194.5 
	137.6,194.5 137.8,194.3 137.9,194.2 137.9,194.2 138.1,194.1 138.2,193.9 138.2,193.8 138.4,193.8 138.4,193.6 138.5,193.5 
	138.5,193.3 138.5,193.3 138.7,193.2 138.7,193 138.8,192.9 138.8,192.7 138.8,192.7 138.8,192.6 139,192.4 139,192.3 139,192.2 
	139,192.2 139.1,192 139.1,191.9 139.1,191.7 139.1,191.6 139.1,191.6 139.1,191.4 139.1,191.3 139.1,191.1 139.1,191 139.1,191 
	139.1,190.8 139.1,190.7 139.1,190.4 139.1,190.2 139.1,190 139.1,189.7 139,189.5 139,189.2 139,188.9 139,188.8 138.8,188.5 
	138.7,188 138.5,187.6 138.4,187.2 138.2,186.3 138.1,186 137.9,185.6 137.8,185.1 137.6,184.8 137.5,184.5 137.4,184.2 
	137.2,183.8 137.1,183.5 136.9,183.5 136.9,183.4 136.8,183.2 136.6,183.1 136.6,182.9 136.5,182.8 136.5,182.8 136.3,182.6 
	136.3,182.5 136.2,182.5 136.2,182.3 136,182.3 136,182.3 136,182.2 135.9,182.2 135.9,182.2 135.9,182.2 135.7,182 135.7,182 
	135.7,182 135.6,182 135.6,182 135.6,181.9 135.4,181.9 135.4,181.9 135.4,181.9 135.3,181.9 135.3,181.7 135.3,181.7 135.2,181.7 
	135.2,181.7 135.2,181.7 135,181.7 135,181.7 135,181.7 134.9,181.7 134.9,181.6 134.9,181.6 134.7,181.6 134.7,181.6 134.7,181.6 
	134.6,181.6 134.6,181.6 134.6,181.6 134.4,181.6 134.4,181.6 134.4,181.6 134.3,181.6 134.3,181.6 134.3,181.6 134.1,181.6 
	134.1,181.6 134,181.6 134,181.6 134,181.6 133.8,181.6 133.8,181.6 133.8,181.7 133.7,181.7 133.7,181.7 133.7,181.7 133.5,181.7 
	133.5,181.7 133.5,181.7 133.4,181.7 133.4,181.9 133.4,181.9 133.2,181.9 133.2,181.9 133.2,181.9 133.1,181.9 133.1,182 
	133.1,182 133,182 133,182 133,182 132.8,182.2 132.7,182.2 132.7,182.3 132.5,182.5 132.4,182.5 132.4,182.6 132.2,182.6 
	132.2,182.8 132.1,182.9 131.9,183.1 131.9,183.1 131.8,183.2 131.6,183.4 131.6,183.5 131.5,183.7 131.5,183.8 131.3,183.9 
	131.2,184.2 131.1,184.5 130.9,184.8 130.8,185.3 130.5,185.6 130.3,186 130.2,186.4 130,186.9 129.9,187.3 129.7,187.9 
	129.6,188.3 129.4,188.9 129.4,189.1 129.3,189.4 129.3,189.7 129.3,190 129.1,190.1 129.1,190.4 129.1,190.7 129.1,190.8 
	129.1,190.8 129.1,191 129.1,191.1 129.1,191.3 129.1,191.4 129.1,191.6 129.1,191.6 129.1,191.7 129.1,191.9 129.1,192 129.3,192 
	129.3,192.2 129.3,192.3 129.3,192.4 129.3,192.4 129.4,192.6 129.4,192.6 129.4,192.6 129.4,192.7 129.4,192.7 129.4,192.7 
	129.4,192.9 129.6,192.9 129.6,192.9 129.6,193 129.6,193 129.6,193 129.7,193.2 129.7,193.2 129.7,193.2 129.7,193.3 129.7,193.3 
	129.9,193.3 129.9,193.3 129.9,193.5 129.9,193.5 130,193.5 130,193.6 130,193.6 130.2,193.6 130.2,193.6 130.2,193.8 130.3,193.8 
	130.3,193.8 130.3,193.8 130.3,193.9 130.5,193.9 130.5,193.9 130.6,193.9 130.6,193.9 "/>
<path class="st1" d="M176,171.6l-4.7-0.1l-4.7-0.1l-4.7-0.1h-2.3h-2.3h-2.2h-2.2h-2.2h-2.2h-2.2h-2.2h-2.2h-2.2h-2.2h-2.2h-2.2h-2.2
	h-2.2h-2.1l-2.1,0.1l-2.1,0.1l-2.1,0.1l-2.1,0.1l-2.1,0.1l-2.1,0.1l-2.1,0.1l-2.1,0.1l-2.1,0.1l-2.1,0.1l-1.8,0.1l-1.8,0.1l-1.8,0.1
	l-0.9,0.1l-0.9,0.1l-0.9,0.1l-0.9,0.1l-0.9,0.1l-0.9,0.1l-0.7,0.1l-0.7,0.1l-0.7,0.1l-0.7,0.1l-0.7,0.1l-0.7,0.1l-0.7,0.1l-0.7,0.1
	l-0.7,0.3l-0.7,0.3l-0.7,0.3l-0.7,0.3l-0.7,0.3l-0.6,0.3l-0.6,0.3l-0.6,0.3l-0.3,0.1l-0.3,0.1l-0.3,0.1l-0.3,0.1l-0.3,0.1l-0.3,0.1
	l-0.3,0.1l-0.3,0.1l-0.4,0.4l-0.4,0.4l-0.4,0.4l-0.4,0.4l-0.4,0.4l-0.4,0.4l-0.4,0.4l-0.4,0.4l-0.4,0.4l-0.4,0.6l-0.4,0.6l-0.4,0.6
	l-0.4,0.6l-0.3,0.6l-0.3,0.6l-0.3,0.6l-0.3,0.6l-0.3,0.6l-0.3,0.6l-0.3,0.6l-0.3,0.6l-0.3,0.6l-0.6,1.3l-0.6,1.3l-2.1,4.2l-0.7,1.5
	l-0.7,1.5l-3.1,6.3l-1.6,3.2l-0.9,1.6l-0.9,1.8l-0.9,1.8l-0.9,1.8l-0.9,1.8L59,220l-0.7,1.9l-0.7,1.9l-0.4,0.9l-0.4,0.9l-0.4,1
	l-0.4,1l-0.4,1l-0.4,1l-0.3,1l-0.3,1l-0.3,1l-0.3,1l-0.3,1l-0.3,1l-0.3,1l-0.3,1l-0.3,1l-0.3,1l-0.3,1l-0.3,1l-0.3,1l-0.3,1l-0.3,1
	l-0.3,1l-0.3,1l-0.3,1.2l-0.3,1.2l-0.1,1.2l-0.1,1.2l-0.1,1.2l-0.1,1.2l-0.1,1.2l-0.1,1.2l-0.1,1.2l-0.4,3.7l-0.4,3.5l-1.3,9.8
	l-0.4,3.1l-0.3,3.1l-0.1,1.5l-0.1,1.5l-0.1,1.5l-0.1,1.5l-0.1,1.5l-0.1,1.5l-0.1,1.5l-0.1,1.5L44,294l-0.1,1.6l-0.1,1.6l-0.1,1.6
	v1.6v1.6v1.6v1.6v1.8v1.8v1.8v1.8v1.8v1.8v1.8v1.8l0.1,1.8l0.1,1.8l0.1,1.8l0.1,1.8l0.1,1.8l0.1,1.8l0.1,1.8l0.1,1.8l0.1,1.8
	l0.1,1.6l0.1,1.6l0.1,1.6l0.1,1.5l0.3,1.5l0.3,1.5l0.3,1.3l0.1,0.6l0.1,0.6l0.1,0.6l0.1,0.6l0.1,0.6l0.1,0.6l0.1,0.6l0.1,0.6
	l0.1,0.4l0.1,0.4l0.1,0.4l0.1,0.4l0.1,0.4l0.1,0.4l0.1,0.4l0.1,0.3l0.1,0.1l0.1,0.1l0.1,0.1l0.1,0.1l0.1,0.1l0.1,0.1l0.1,0.1
	l0.1,0.1l0.1,0.1l0.1,0.1l0,0l0,0l0,0l0,0l0,0l0,0l0,0l0,0l0,0l0,0l0,0l0,0l0,0l0,0l0,0l0,0l0,0l0,0l0,0l0,0l0,0l0,0l0,0l0,0l0,0
	l0,0l0,0l0,0l0,0l0,0l0,0l0,0l0,0l0,0l0,0l0,0l0,0l0,0l0,0l0,0l0,0l0,0l0,0l0,0l0,0l0,0l0,0l0,0l0,0l0,0l0,0l0,0l0,0l0,0l0,0l0,0
	l0,0l0,0h0.1l0.1-0.1l0.1-0.1l0.1-0.1l0.1-0.1l0.1-0.1l0.1-0.1l0.1-0.1l0.1-0.1l0.1-0.1l0.1-0.1l0.1-0.3l0.1-0.3l0.1-0.3l0.1-0.3
	l0.1-0.3l0.1-0.3l0.1-0.3l0.1-0.4l0.1-0.4l0.1-0.4l0.1-0.4l0.1-0.4l0.1-0.4l0.1-0.4l0.1-0.4l0.4-1l0.4-1l0.4-1.2l0.4-1.2l0.4-1.2
	l0.4-1.3l0.4-1.3l0.4-1.3l0.4-1.3l0.4-1.5l0.4-1.5l0.4-1.5l0.4-1.5l0.4-1.5l0.3-1.3l0.3-1.3l0.3-1.3l0.3-1.3l0.6-2.6l0.6-2.8
	l0.6-2.8l1.8-8.6l0.6-3.1l0.6-3.1l0.7-3.1l0.7-3.2l0.4-1.6l0.4-1.6l0.4-1.6l0.4-1.6l0.4-1.6l0.4-1.6l0.4-1.8l0.4-1.8l0.6-2.3
	l0.6-2.3l0.6-2.3l0.7-2.3l0.7-2.3l0.7-2.3l0.7-2.2l0.7-2.2l0.7-2.2l0.7-2.2l0.7-2.1l0.7-2.1l0.7-1.9l0.7-1.9l0.3-0.9l0.3-0.9
	l0.3-0.9L82,248l0.3-0.9l0.3-0.9l0.3-0.7l0.3-0.7l0.3-0.7l0.3-0.7l0.3-0.7l0.3-0.6l0.3-0.6l0.3-0.6l0.3-0.6l0.3-0.6l0.3-0.4l0.3-0.4
	l0.3-0.4l0.3-0.4l0.1-0.1l0.1-0.1l0.1-0.1l0.1-0.1l0.1-0.1l0.1-0.1l0.1-0.1l0,0l0,0l0,0l0,0l0,0l0,0l0,0l0,0l0,0l0,0l0,0l0,0l0,0
	l0,0l0,0l0,0l0,0l0,0l0,0l0,0l0,0l0,0l0,0l0,0l0,0l0,0l0,0l0,0l0,0l0,0l0,0l0,0l0,0l0,0l0,0l0,0l0,0l0,0l0,0l0,0l0,0l0,0l0,0l0,0
	l0,0v0.1v0.1v0.1v0.1v0.1v0.1v0.1v0.1v0.1v0.1v0.1v0.4v0.4v0.4v0.4v0.4v0.4v0.6v0.6v0.6v0.6v0.6v1.3v1.5v1.5v1.6v1.6l-0.1,1.6
	l-0.1,1.8l-0.1,1.8l-0.1,1.8l-0.1,1.9l-0.1,1.9l-0.1,1.9l-0.1,1.9l-0.3,3.8l-0.3,4l-0.4,3.8l-0.4,3.8l-0.7,7.2l-1.6,15.5l-0.3,3.2
	l-0.3,3.1l-0.3,2.9l-0.3,2.8l-0.3,2.6l-0.1,2.5l-0.1,2.5l-0.1,2.5l-0.1,2.5l-0.1,2.5l-0.1,2.5l-0.1,2.6l-0.1,2.8v2.8v2.9v2.9v3.1
	v3.1v3.2v3.2v3.2v3.4v3.4l0.1,3.4l0.1,3.4l0.1,3.4l0.1,3.4l0.1,3.4l0.1,4.2l0.1,4.2l0.1,4.2l0.1,4.1l0.3,4.1l0.3,4.1l0.3,4.1l0.3,4
	l0.3,4l0.3,4l0.6,7.9l1,15.5l0.4,7.6l0.3,3.8l0.3,3.8l0.3,3.8l0.1,3.8l0.1,3.8l0.1,3.8l0.1,3.8l0.1,3.8l0.1,3.8l0.1,3.8l0.1,3.8
	l0.1,3.8v1.9v1.9v1.9v1.9v3.1v3.1v3.1v3.1v3.1v3.1v3.2v3.2l-0.1,6.4l-0.3,13.3l-0.1,6.9v3.2v3.2v3.2v3.2v3.2v3.2v3.2v3.2v1.6v1.6
	v1.6v1.6v1.6v1.5v1.5v1.5l0.1,1.5l0.1,1.5l0.1,1.5l0.1,1.5l0.1,1.5l0.1,1.3l0.1,1.3l0.1,1.3l0.1,1.3l0.1,1.3l0.1,1.2l0.1,1.2
	l0.1,1.2l0.1,1.2l0.1,1l0.3,1l0.3,1l0.3,1l0.1,0.4l0.1,0.4l0.1,0.4l0.1,0.4l0.1,0.4l0.1,0.4l0.1,0.4l0.1,0.4l0.1,0.4l0.1,0.4
	l0.1,0.4l0.1,0.3l0.1,0.3l0.1,0.3l0.1,0.3l0.1,0.3l0.1,0.3l0.1,0.3l0.1,0.3l0.1,0.3l0.1,0.3l0.1,0.1l0.1,0.1l0.1,0.1l0.1,0.1
	l0.1,0.1l0.1,0.1l0.1,0.1l0.1,0.1l0.1,0.1l0.1,0.1l0.1,0.1l0.1,0.1l0.1,0.1l0.1,0.1h0.1h0.1h0.1h0.1h0.1h0.1H96h0.1h0.1h0.1h0.1h0.1
	h0.1h0.1h0.1h0.1h0.1h0.1h0.1h0.1h0.1h0.1h0.1h0.1h0.1h0.1H99h0.1h0.1h0.1h0.1h0.1h0.1h0.1l0.3-0.1l0.3-0.1l0.3-0.1l0.3-0.1l0.3-0.1
	l0.3-0.1l0.3-0.1l0.3-0.1l0.3-0.1l0.3-0.1l0.3-0.1l0.3-0.1l0.3-0.3l0.3-0.3l0.3-0.3l0.3-0.3l0.3-0.3l0.3-0.3l0.3-0.3l0.3-0.3
	l0.3-0.3l0.3-0.3l0.3-0.3l0.3-0.3l0.3-0.3l0.3-0.3l0.3-0.3l0.3-0.4l0.3-0.4l0.3-0.4l0.3-0.4l0.3-0.4l0.3-0.4l0.3-0.4l0.3-0.4
	l0.3-0.4l0.3-0.4l0.3-0.4l0.3-0.4l0.3-0.4l0.3-0.4l0.3-0.4l0.3-0.4l0.3-0.4l0.3-0.4l0.3-0.6l0.3-0.6l0.3-0.6l0.1-0.6l0.1-0.6
	l0.1-0.6l0.1-0.6l0.1-0.6l0.1-0.6l0.1-0.6l0.1-0.6l0.1-0.6l0.1-0.6l0.1-0.6l0.1-0.6l0.1-0.6l0.1-0.6l0.1-0.6l0.1-1l0.1-1l0.1-1
	l0.1-1l0.1-1l0.1-1l0.1-1l0.1-1l0.1-1l0.1-1l0.1-1v-1v-1.2v-1.2l0.1-2.2v-2.2v-2.2l0.1-4.2v-2.1v-2.1v-1v-1v-1v-1v-0.9v-0.9l0.1-0.9
	l0.1-0.9l0.1-0.9l0.1-0.9l0.1-1.6l0.1-1.6l0.1-1.6l0.3-1.6l0.9-6l0.1-1.5l0.1-1.5l0.1-1.5l0.1-1.5l0.1-0.7l0.1-0.7l0.1-1.5l0.1-1.5
	l0.1-1.5v-1.5v-1.5v-1.5v-1.5v-1.5v-1.5v-1.5v-1.6v-1.6v-1.6v-1.6l-0.1-3.2l-0.1-3.2l-0.4-9.7l-0.1-3.2l-0.1-3.2v-1.6v-1.6v-1.6
	v-1.6v-1.3v-1.3v-1.3v-1.3v-1.3v-1.3v-2.6v-2.6l0.1-2.6l0.1-2.5l0.1-2.5l0.1-2.5l0.1-2.5l0.1-2.5l0.1-2.5l0.6-10.3l0.1-3.4l0.1-3.4
	l0.1-3.4l0.1-3.5l0.1-1.8v-1.8v-1.9v-1.9v-1.9v-1.9v-2.1v-2.1l0.1-9.8v-2.6v-2.6v-1.3v-1.3v-1.3v-1.3v-1.3l0.1-1.3l0.1-1.5l0.1-1.5
	l0.1-1.5l0.1-1.5l0.1-1.5l0.1-1.5l0.1-1.5l0.1-1.5l0.1-1.5l0.3-1.5l0.3-1.5l0.3-1.5l0.3-1.5l0.3-1.5l0.1-0.9l0.1-0.9l0.3-0.9
	l0.3-0.9l0.3-0.9l0.3-0.9l0.3-0.9l0.3-0.9l0.3-0.9l0.3-0.9l0.3-0.7l0.3-0.7l0.3-0.7l0.3-0.7l0.3-0.6l0.1-0.3l0.1-0.3l0.1-0.3
	l0.1-0.3l0.1-0.3l0.1-0.3l0.1-0.3l0.1-0.1v-0.1v-0.1v-0.1V373v-0.1v-0.1v-0.1l0,0l0,0l0,0l0,0l0,0l0,0l0,0l0,0l0,0l0,0l0,0l0,0l0,0
	l0,0l0,0l0,0l0,0l0,0l0,0l0,0l0,0l0,0l0,0l0,0l0,0l0,0l0,0l0,0l0,0l0,0l0,0l0,0l0,0l0,0l0,0l0,0l0,0l0,0l0,0l0,0l0,0l0,0l0,0l0,0
	l0,0l0,0l0,0l0,0l0,0l0,0l0,0l0,0l0,0l0,0l0,0l0,0l0,0l0,0l0,0v0.1v0.1v0.1v0.1v0.1v0.1v0.1v0.1v0.1v0.1l0.1,0.3l0.1,0.3l0.1,0.6
	l0.1,0.6l0.1,0.6l0.1,0.6l0.4,1.2l0.4,1.3l0.4,1.3l0.4,1.3l0.3,1.3l0.3,1.3l0.3,1.3l0.3,1.3l0.3,1.5l0.3,1.5l0.3,1.5l0.3,1.5
	l0.3,1.5l0.3,1.5l0.3,1.5l0.3,1.5l0.3,1.5l0.3,1.5l0.4,2.9l0.4,2.9l1.3,8.2l0.4,2.6l0.3,2.1l0.3,1.9l0.3,1.9l0.3,1.9l0.6,3.5
	l1.2,6.6l0.6,3.2l0.3,1.6l0.3,1.6l0.3,1.6l0.3,1.6l0.3,2.1l0.3,2.1l0.3,2.1l0.3,2.1l0.3,2.1l0.3,2.1l0.3,2.2l0.3,2.2l0.3,2.2
	l0.3,2.2l0.3,2.2l0.3,2.2l0.3,2.2l0.1,2.2l0.4,4.4l0.4,4.4l0.4,4.4l0.4,4.4l1.5,17l0.3,4l0.3,3.5l0.3,3.4l0.6,6.7l0.6,6.6l0.3,3.4
	l0.3,3.4l0.3,3.4l0.3,3.5l0.3,3.5l0.3,3.7l0.3,3.8l0.1,1.9l0.1,2.1l0.1,2.1l0.1,2.1l0.1,2.1l0.1,2.2l0.4,11.1l0.1,2.9l0.1,2.9
	l0.1,1.5l0.1,1.5l0.1,1.5l0.1,1.5l0.1,1.5l0.1,1.5l0.1,1.5l0.1,1.5l0.1,1.3l0.1,1.3l0.1,1.3l0.1,1.3l0.1,1.3l0.1,1.3l0.1,1.3
	l0.1,1.3l0.3,1.2l0.3,1.2l0.3,1.2l0.3,1.2l0.1,0.7l0.1,0.7l0.1,0.7l0.1,0.7l0.1,0.7l0.1,0.6l0.1,0.6l0.3,0.6l0.3,0.6l0.3,0.6
	l0.3,0.6l0.3,0.6l0.3,0.6l0.3,0.6l0.3,0.6l0.3,0.6l0.3,0.6l0.3,0.4l0.3,0.4l0.3,0.4l0.3,0.4l0.3,0.4l0.3,0.4l0.3,0.4l0.3,0.4
	l0.3,0.4l0.3,0.4l0.3,0.4l0.3,0.4l0.3,0.4l0.3,0.3l0.3,0.3l0.3,0.3l0.3,0.3l0.3,0.3l0.3,0.3l0.3,0.3l0.3,0.3l0.3,0.3l0.3,0.3
	l0.3,0.3l0.3,0.3l0.3,0.3l0.3,0.1l0.3,0.1l0.3,0.1l0.3,0.1l0.3,0.1l0.3,0.1l0.3,0.1l0.3,0.1l0.3,0.1l0.3,0.1l0.3,0.1l0.3,0.1
	l0.3,0.1h0.3h0.3h0.1h0.1h0.1h0.1h0.1h0.1h0.1h0.1h0.1h0.1h0.1h0.1h0.3h0.1h0.1h0.1h0.1h0.1h0.1h0.1h0.1l0.1-0.1l0.1-0.1l0.1-0.1
	l0.1-0.1l0.1-0.1l0.1-0.1l0.1-0.1l0.1-0.1l0.1-0.1l0.1-0.1l0.1-0.1l0.1-0.1l0.1-0.1l0.1-0.1l0.1-0.1l0.1-0.1l0.1-0.1l0.1-0.1
	l0.1-0.1l0.1-0.1l0.1-0.1l0.1-0.1l0.1-0.3l0.1-0.3l0.1-0.3l0.3-0.4l0.3-0.4l0.3-0.6l0.3-0.6l0.3-0.6l0.3-0.6l0.3-0.6l0.3-0.6
	l0.3-0.7l0.1-0.7l0.1-0.7l0.1-0.7l0.1-0.7l0.1-0.7l0.1-0.7l0.1-0.7l0.1-0.9l0.1-0.9l0.1-0.9l0.1-0.9l0.1-0.9l0.1-0.9l0.1-0.9
	l0.1-0.9l0.1-1l0.1-1l0.1-1l0.1-1l0.1-1l0.1-1l0.1-1l0.1-1l0.1-1v-1V605l0.1-2.2l0.1-2.3l0.1-2.3v-2.3v-2.5v-2.5v-2.5v-2.5v-2.6
	v-2.6v-2.6v-2.6v-2.6l-0.1-2.8l-0.1-2.8l-0.1-2.8l-0.1-2.8l-0.1-2.8l-0.1-2.8l-0.1-2.8l-0.3-5.6l-0.3-5.6l-0.3-5.6l-1.2-21.5
	l-0.3-5.1l-0.3-5l-0.1-3.4l-0.1-3.4l-0.1-3.2l-0.1-3.2l-0.1-6.2l-0.1-6l-0.4-11.6l-0.1-5.6l-0.1-2.8l-0.1-2.8l-0.1-2.8l-0.1-2.8
	l-0.1-2.8l-0.1-2.8l-0.1-2.9l-0.1-2.9l-0.1-2.9l-0.1-2.9l-0.3-3.1l-0.3-3.1l-0.3-3.2l-0.3-3.2l-0.3-3.2l-0.3-3.4l-0.3-3.4l-0.4-3.5
	l-0.4-4l-1-8.1l-0.4-4.1l-0.3-2.1l-0.3-2.1l-0.3-2.1l-0.1-2.1l-0.1-2.1l-0.1-2.1l-0.1-1.9l-0.1-1.9l-0.1-1.9l-0.1-1.9l-0.1-1.9
	l-0.1-1.9l-0.1-1.9v-1.8v-1.8v-1.8V359v-1.8v-1.8v-1.8v-3.4V347l0.1-10v-3.4v-1.6v-1.6v-1.6v-1.6v-1.6V324v-1.6v-1.8l-0.1-1.8
	l-0.1-1.8l-0.1-1.8l-0.1-1.8l7.2-1.5l-0.1-1.8l-0.1-1.8l-0.1-1.8l-0.1-1.8l-0.1-1.8l-0.3-3.7l-0.3-3.8l-1.2-12l-0.4-4.2l-0.4-4.4
	l-0.1-2.2l-0.1-2.2l-0.1-2.3l-0.1-2.3l-0.1-2.3l-0.1-2.5l-0.1-2.5l-0.1-2.5L180,254l-0.1-2.3l-0.1-2.2v-1v-1v-1v-1v-0.9v-0.9v-0.9
	V242v-0.7v-0.3v-0.3v-0.3v-0.3v-0.1v-0.1v-0.1v-0.1v-0.1v-0.1l0,0l0,0l0,0l0,0l0,0l0,0l0,0l0,0l0,0l0,0l0,0l0,0l0,0l0,0l0,0l0,0l0,0
	l0,0l0,0l0,0l0,0l0,0l0,0l0,0l0,0l0,0l0,0l0,0l0,0l0,0l0,0l0,0l0,0l0,0l0,0l0,0l0,0l0,0l0,0l0,0l0,0l0,0l0,0l0,0l0,0l0,0l0,0l0,0
	v0.1v0.1v0.1v0.1l0.1,0.1l0.1,0.1l0.1,0.3l0.1,0.3l0.1,0.3l0.1,0.4l0.1,0.4l0.1,0.4l0.1,0.4l0.1,0.6l0.1,0.6l0.3,0.6l0.3,0.7
	l0.3,0.7l1.2,3.5l1,3.2l0.9,2.8l0.9,2.5l0.7,2.3l1.9,6.2l5,16l1.3,4l0.6,2.1l0.6,2.1l0.6,2.1l0.6,2.1l0.6,2.1l0.6,2.1l0.6,1.9
	l0.6,2.1l0.6,2.1l0.6,2.1l0.6,1.9l0.4,1.9l0.4,1.9l0.4,1.9l0.7,2.9l0.6,2.8l0.6,2.8l0.6,2.8l0.9,4.5l0.4,2.2l0.3,1l0.3,1l0.3,1
	l0.3,1l0.3,1l0.3,1l0.3,1l0.3,1l0.3,1l0.3,1l0.1,0.6l0.1,0.6l0.3,0.6l0.3,0.6l0.3,0.6l0.3,0.6l0.3,0.6l0.3,0.6l0.3,0.4l0.3,0.4
	l0.3,0.4l0.3,0.4l0.3,0.4l0.3,0.4l0.1,0.1l0.1,0.1l0.1,0.1l0.1,0.1l0.1,0.1l0.1,0.1l0.1,0.1l0.1,0.1l0.1,0.1l0.1,0.1l0.1,0.1
	l0.1,0.1l0.1,0.1l0.1,0.1h0.1h0.1h0.1h0.1h0.1h0.1h0.1h0.1h0.1h0.1h0.1h0.1h0.1h0.1h0.1h0.1h0.1h0.1h0.1h0.1h0.1h0.1h0.1h0.1h0.1
	h0.1h0.1h0.1h0.1h0.1h0.1h0.1h0.1h0.1h0.1h0.1h0.1h0.1h0.1h0.1h0.1h0.1h0.1h0.1h0.1h0.1h0.1h0.1l0.1-0.1l0.1-0.1l0.1-0.1l0.1-0.1
	l0.1-0.1l0.1-0.1l0.1-0.1l0.1-0.1l0.1-0.1l0.1-0.1l0.1-0.1l0.1-0.1l0.1-0.1l0.1-0.1l0.1-0.1l0.1-0.3l0.1-0.3l0.1-0.3l0.1-0.3
	l0.1-0.3l0.1-0.3l0.1-0.3l0.1-0.3l0.1-0.3l0.1-0.3l0.1-0.3l0.1-0.3l0.1-0.3l0.1-0.3l0.1-0.3l0.1-0.4l0.1-0.4l0.1-0.4l0.1-0.4
	l0.1-0.4l0.1-0.4l0.1-0.4l0.1-0.4l0.1-0.4l0.1-0.4v-0.4v-0.4v-0.4v-0.4v-0.4v-0.4v-0.9v-1v-1v-1v-1v-1l-0.1-9.7v-1.9v-1.9V317v-1.9
	l-0.1-1.9l-0.1-1.9v-1v-1v-1l-0.1-1l-0.1-1l-0.1-1l-0.1-1l-0.1-1l-0.1-0.9l-0.1-0.9l-0.1-0.9l-0.1-0.9l-0.1-1l-0.1-1l-0.1-1l-0.1-1
	l-0.1-1l-0.1-1l-0.1-1l-0.1-1l-0.4-1.9l-0.4-1.9l-0.4-1.9l-1.5-5.9l-0.4-1.9l-0.4-1.9l-0.3-1l-0.1-1l-0.1-1l-0.1-1l-0.1-1l-0.1-1
	l-0.1-1l-0.1-1l-0.1-0.9l-0.1-0.9l-0.3-1.8l-0.4-3.5l-0.3-1.8l-0.3-1.8l-0.1-0.9l-0.3,0.1l-0.1-0.9l-0.1-0.9l-0.1-0.7l-0.1-0.7
	l-0.1-0.7l-0.1-0.7l-0.3-1.5l-0.4-1.5l-0.7-2.8l-0.4-1.5l-0.4-1.5l-0.3-1.5l-0.3-1.5l-1-4.5l-0.3-1.5l-0.3-1.5l-0.1-0.7l-0.1-0.7
	l-0.1-0.7l-0.1-0.7l-0.4-1.5l-0.4-1.5l-0.4-1.5l-0.9-2.8l-0.4-1.5l-0.4-1.5l-0.4-1.5l-0.4-1.5l-0.9-2.9l-0.9-3.1l-0.4-1.5l-0.4-1.5
	l-0.4-1.5l-0.4-1.5l-0.4-1.5l-0.3-0.7l-0.4-0.4l-0.3-0.7l-0.3-0.7l-0.3-0.7l-0.3-0.7l-0.3-0.7l-0.3-0.7l-0.3-0.7l-0.3-0.7l-0.4-0.9
	l-0.1-0.6l-0.4-0.9l-0.4-0.9l-0.4-0.9l-0.4-0.9l-0.6-0.9l-0.6-0.9l-0.6-0.9l-0.6-0.7l-0.6-0.7l-0.6-0.7l-0.6-0.7l-0.6-0.7l-0.7-0.7
	l-0.7-0.7l-0.4-0.6l-0.4-0.6l-0.4-0.6l-0.4-0.6l-0.6-0.6l-0.6-0.6l-0.6-0.6l-0.6-0.4l-0.6-0.4l-0.6-0.4l-0.6-0.4l-0.6-0.4l-0.6-0.4
	l-0.6-0.4l-0.6-0.4l-0.6-0.4l-0.6-0.4l-0.6-0.4l-0.6-0.4l-0.6-0.3l-0.6-0.3l-0.6-0.3l-0.6-0.3l-0.6-0.3l-0.6-0.3l-0.3-0.1l-0.3-0.1
	l-0.3-0.1l-0.3-0.1l-0.3-0.1l-0.3-0.1h-0.3h-0.3h-0.3h-0.3h-0.3h-0.3H175L176,171.6z M130.6,194.1l0.1,1.2v1.2v1.2v1.2v1.2v1.2v1.2
	v1.2v1.2v1.2v1.2v1.2v1.2v1.3v1.3v1.3l-0.1,2.3l-0.1,2.3l-0.1,2.5l-0.1,2.5l-0.1,2.5l-0.1,2.5l-0.1,2.5l-0.1,2.6l-0.1,2.6l-0.1,2.6
	l-0.1,2.6l-0.1,2.5l-0.1,2.5l-0.3,2.5l-0.3,2.5l-0.3,2.3l-0.1,2.1l-0.1,2.1l-0.1,2.1l-0.1,1.9l-0.1,1.9l-0.1,1.9l-0.1,1.8l-0.1,1.8
	l-0.1,1.8l-0.3,1.6l-0.3,1.6l-0.3,1.6l-0.3,1.5l-0.3,1.5l-0.3,1.5l-0.3,1.5l-0.3,1.3l-0.3,1.3l-0.3,1.3l-0.3,1.2l-0.1,1.2l-0.1,1.2
	l-0.1,1l-0.1,1l-0.1,1l-0.1,1l-0.1,0.9l-0.1,0.9l-0.1,0.9L122,296l-0.1,0.7l-0.1,0.7l0.4,1l0.6,1.3l1.2,2.6l0.6,1.3l0.6,1.3l0.3,0.6
	l0.3,0.6l0.3,0.6l0.3,0.6l0.3,0.6l0.3,0.6l0.3,0.4l0.3,0.4l0.3,0.4l0.3,0.4l0.6,0.9l1.2,1.9l0.6,0.9l0.6,1l0.3,0.4l0.3,0.4l0.4,0.9
	l0.7,1.3l0.3,0.4l0.3,0.4l0.3,0.4l0.3,0.4l0.1,0.1l0.1,0.1l0.1,0.1l0.1,0.1l0.1,0.1l0.1,0.1l0.1,0.1l0.1,0.1l0.1,0.1l0.1,0.1h0.1
	h0.1h0.1h0.1h0.1h0.1h0.1h0.1h0.1h0.1h0.1h0.1h0.1h0.1h0.1h0.1l0.1-0.1l0.1-0.1l0.1-0.1l0.1-0.1l0.1-0.1l0.1-0.1l0.1-0.1l0.1-0.1
	l0.1-0.1l0.1-0.1l0.3-0.4l0.3-0.4l0.3-0.4l0.3-0.4l1.3-2.3l0.3-0.4l0.3-0.4l0.6-1l0.6-0.9l1.2-1.9l0.6-0.9l0.3-0.4l0.3-0.4l0.3-0.4
	l0.3-0.4l0.3-0.6l0.3-0.6l0.3-0.6l0.3-0.6l0.3-0.6l0.3-0.6l0.6-1.3l0.6-1.3l1.2-2.6l0.6-1.3l0.4-1l-0.6-2.2l-0.4-2.1l-0.4-1.9
	l-0.4-1.8l-0.4-1.8l-0.3-1.6l-0.3-1.5l-0.3-1.5l-0.3-1.3l-0.3-1.3l-0.1-1.3l-0.1-1.2l-0.1-1.2l-0.1-1.2l-0.3-2.3l-0.3-1.8l-0.3-1.8
	L146,268l-0.1-1.8l-0.1-1.9l-0.1-1.9l-0.1-1.9l-0.1-1.9l-0.1-1.9l-0.1-1.9l-0.1-1.9l-0.1-2.1l-0.1-2.1l-0.1-2.1l-0.1-2.1l-0.1-2.1
	l-0.3-3.8l-0.6-7.6l-0.3-3.8l-0.3-3.8l-0.1-1.9l-0.1-1.9l-0.1-1.9L142,216l-0.1-1.9l-0.1-1.9l-0.3-2.2l-0.7-6.4l-0.3-2.2l-0.1-1
	l-0.1-1l-2.3-1.5l-0.1-1l-0.1-1l-0.1-1l0.1-0.1l0.1-0.1l0.1-0.1l0.1-0.1l0.1-0.1l0.1-0.1l0.1-0.1l0.1-0.1v-0.1v-0.1v-0.1V193v-0.1
	v-0.1v-0.1v-0.1v-0.1v-0.1V192v-0.1v-0.1v-0.1v-0.1v-0.1v-0.1V191v-0.1v-0.1v-0.1v-0.1v-0.1v-0.1V190v-0.1v-0.3v-0.3v-0.3v-0.3v-0.3
	V188v-0.3v-0.3v-0.3l-0.1-0.4l-0.1-0.4l-0.1-0.4l-0.3-0.9l-0.1-0.4l-0.1-0.4l-0.1-0.4l-0.1-0.3l-0.1-0.3l-0.1-0.3l-0.1-0.3l-0.1-0.3
	l-0.1-0.1l-0.1-0.1l-0.1-0.1l-0.1-0.1l-0.1-0.1l-0.1-0.1l-0.1-0.1l-0.1-0.1l-0.1-0.1l-0.1-0.1l0,0l0,0l0,0l0,0l0,0l0,0l0,0l0,0l0,0
	l0,0l0,0l0,0l0,0l0,0l0,0l0,0l0,0l0,0l0,0l0,0l0,0l0,0l0,0l0,0l0,0l0,0l0,0l0,0l0,0l0,0l0,0l0,0l0,0l0,0l0,0l0,0l0,0l0,0l0,0l0,0
	l0,0l0,0l0,0l0,0l0,0l0,0l0,0l0,0l0,0l0,0l0,0l0,0l0,0l0,0l0,0l0,0l0,0l0,0l0,0l0,0l0,0l0,0l0,0l0,0l0,0l0,0H135l-0.1,0.1l-0.1,0.1
	l-0.1,0.1l-0.1,0.1l-0.1,0.1l-0.1,0.1l-0.1,0.1l-0.1,0.1l-0.1,0.1l-0.1,0.1l-0.1,0.1l-0.1,0.1l-0.1,0.1l-0.1,0.1l-0.1,0.1l-0.1,0.1
	l-0.1,0.3l-0.1,0.3l-0.1,0.3l-0.1,0.3l-0.1,0.4l-0.1,0.4l-0.1,0.4l-0.1,0.4l-0.1,0.4l-0.1,0.4l-0.1,0.4l-0.1,0.4v0.3v0.3v0.3v0.3
	v0.3v0.3v0.3v0.1v0.1v0.1v0.1v0.1v0.1v0.1v0.1v0.1v0.1v0.1v0.1v0.1v0.1v0.1v0.1l0,0l0,0l0,0l0,0l0,0l0,0l0,0l0,0l0,0l0,0l0,0l0,0
	l0,0l0,0l0,0l0,0l0,0l0,0l0,0l0,0l0,0l0,0l0,0l0,0l0,0l0,0l0,0l0,0l0,0l0,0l0,0l0,0l0,0L130.6,194.1L130.6,194.1L130.6,194.1z"/>
<polyline class="st0" points="176,171.6 176.3,171.6 176.5,171.6 176.8,171.8 176.9,171.8 177.2,171.8 177.5,171.9 177.6,171.9 
	177.9,172.1 178.2,172.1 178.4,172.2 178.7,172.2 179,172.4 179.3,172.5 179.4,172.5 180,172.8 180.6,173.1 181,173.4 181.6,173.7 
	182.2,174 182.6,174.4 183.2,174.7 183.8,175.2 184.4,175.4 185,175.9 185.4,176.3 186,176.8 186.6,177.4 187.2,177.8 187.6,178.2 
	188.2,178.7 188.8,179.3 189.4,179.7 189.8,180.3 190.4,180.7 190.8,181.3 191.4,181.9 191.9,182.3 192.4,182.9 192.9,183.5 
	193.6,184.2 194.2,185 194.9,185.9 195.5,186.6 196.1,187.5 196.7,188.2 197.3,189.1 197.9,189.8 198.3,190.7 198.9,191.4 
	199.3,192.3 199.9,193.2 200.4,194.1 200.8,194.9 201.2,195.8 201.7,196.7 202,197.4 202.3,198 202.6,198.7 202.7,199.5 203,200.2 
	203.3,200.8 203.6,201.5 203.7,202.3 204,203 204.3,203.7 204.8,205.2 205.2,206.8 205.6,208.3 206.1,209.7 206.5,211.3 
	207.2,214.3 208.1,217.2 208.6,218.7 209,220.1 209.4,221.6 209.9,223.1 210.8,225.9 211.2,227.2 211.6,228.6 212.1,230.1 
	212.2,230.7 212.4,231.4 212.7,232.2 212.8,232.9 213.1,234.3 213.5,236 214.6,240.4 214.9,242 215.3,243.4 215.6,244.9 216,246.2 
	216.8,249.1 217.1,250.5 217.5,251.9 217.6,252.7 217.8,253.4 217.9,254.1 218.1,254.9 218.2,255.6 218.4,256.5 218.5,257.4 
	218.7,258.2 219,259.8 219.3,261.6 219.7,265.1 220,266.9 220.1,267.8 220.3,268.6 220.4,269.5 220.6,270.5 220.9,271.6 221,272.6 
	221.2,273.6 221.5,274.5 221.6,275.5 221.9,276.5 222.3,278.5 222.8,280.5 224.2,286.4 224.7,288.3 225.3,290.3 225.7,292.2 
	225.9,293.3 226.1,294.3 226.3,295.2 226.4,296.2 226.7,297.2 226.9,298.2 227,299.3 227.2,300.1 227.3,301.2 227.5,302 
	227.6,303.1 227.8,303.9 227.8,305 227.9,305.9 228,306.9 228,307.8 228.2,308.8 228.2,309.7 228.3,310.7 228.3,311.7 228.5,313.6 
	228.5,315.5 228.6,317.4 228.6,319.3 228.6,321.4 228.8,323.3 228.8,333 228.8,334 228.8,335 228.8,335.9 228.8,336.9 228.8,337.8 
	228.8,338.8 228.6,339.3 228.6,339.7 228.6,340.1 228.5,340.6 228.5,341.2 228.3,341.6 228.3,342 228.2,342.5 228.2,342.9 
	228,343.4 227.9,343.7 227.8,344.1 227.8,344.5 227.6,345 227.5,345.4 227.3,345.7 227.2,346 227,346.3 226.9,346.6 226.7,346.9 
	226.6,347.2 226.4,347.5 226.3,347.8 226,348 225.9,348.3 225.7,348.5 225.6,348.8 225.3,349.1 225.1,349.2 225,349.5 224.8,349.7 
	224.5,350 224.4,350.1 224.1,350.4 223.9,350.5 223.8,350.7 223.5,351 223.4,351.1 223.1,351.3 222.9,351.4 222.6,351.6 
	222.5,351.7 222.3,351.9 222,352 221.9,352.2 221.6,352.2 221.6,352.3 221.5,352.3 221.3,352.3 221.2,352.4 221.2,352.4 221,352.4 
	220.9,352.4 220.9,352.6 220.7,352.6 220.6,352.6 220.4,352.6 220.4,352.6 220.3,352.6 220.1,352.7 220.1,352.7 220,352.7 
	219.8,352.7 219.8,352.7 219.7,352.7 219.6,352.7 219.6,352.7 219.4,352.7 219.3,352.7 219.3,352.7 219.1,352.7 219,352.7 
	219,352.7 218.8,352.7 218.7,352.6 218.7,352.6 218.5,352.6 218.4,352.6 218.4,352.6 218.2,352.6 218.1,352.4 218.1,352.4 
	217.9,352.4 217.8,352.4 217.8,352.3 217.6,352.3 217.6,352.3 217.5,352.3 217.4,352.2 217.4,352.2 217.2,352.2 217.2,352 
	217.1,352 216.9,352 216.8,351.9 216.6,351.7 216.5,351.6 216.3,351.4 216.2,351.3 215.9,351.1 215.7,351 215.6,350.8 215.4,350.7 
	215.3,350.4 215.2,350.2 215,350.1 214.9,350 214.7,349.7 214.4,349.2 214.1,348.8 213.8,348.3 213.5,347.9 213.2,347.3 213,346.9 
	212.7,346.3 212.5,345.9 212.2,345.3 211.9,344.7 211.8,344.1 211.5,343.5 211.3,342.9 211.1,342.3 210.8,341.3 210.5,340.4 
	210.2,339.4 209.9,338.4 209.6,337.4 209.4,336.3 209.1,335.2 208.9,334.1 208.6,333.1 208.4,331.9 208,329.7 206.9,325.2 
	206.4,322.6 205.8,319.8 205,317 204.5,314.1 203.9,312.2 203.4,310.1 202.8,308.2 202.4,306.3 201.8,304.2 201.4,302.3 
	200.8,300.3 200.2,298.4 199.6,296.3 199,294.3 198.5,292.2 197.9,290.2 197.3,288.3 196.7,286.2 195.4,282.3 190.4,266.3 
	188.3,260.1 187.6,257.8 186.9,255.2 186,252.4 185,249.3 183.7,245.8 183.5,245 183.2,244.3 183.1,243.7 182.8,243.1 182.6,242.6 
	182.3,242.1 182.2,241.7 182,241.2 181.9,240.8 181.7,240.5 181.5,240.1 181.3,239.9 181.3,239.8 181.2,239.6 181.2,239.5 
	181,239.3 181,239.3 180.9,239.2 180.9,239.2 180.9,239.2 180.9,239 180.9,239 180.7,239 180.7,239 180.7,238.9 180.7,238.9 
	180.7,238.9 180.6,238.9 180.6,238.9 180.6,238.9 180.6,238.9 180.6,238.7 180.4,238.7 180.4,238.7 180.4,238.7 180.4,238.7 
	180.4,238.7 180.3,238.7 180.3,238.7 180.3,238.7 180.3,238.7 180.3,238.7 180.3,238.7 180.1,238.7 180.1,238.7 180.1,238.7 
	180.1,238.7 180.1,238.9 180.1,238.9 180.1,238.9 180,238.9 180,238.9 180,238.9 180,238.9 180,238.9 180,239 180,239 179.8,239 
	179.8,239 179.8,239 179.8,239.2 179.8,239.2 179.8,239.2 179.8,239.2 179.8,239.3 179.8,239.3 179.7,239.5 179.7,239.5 
	179.7,239.6 179.7,239.8 179.7,239.8 179.5,239.9 179.5,240.2 179.5,240.5 179.5,240.8 179.4,241.1 179.4,241.8 179.4,242.6 
	179.3,243.3 179.3,244.2 179.3,245 179.4,246.1 179.4,247.1 179.4,248.1 179.4,249.3 179.5,251.5 179.7,253.7 179.8,256 180,258.5 
	180.1,261 180.3,263.4 180.4,265.9 180.7,268.2 180.9,270.4 181,272.7 181.3,274.9 181.6,279.3 182,283.6 183.2,295.6 183.7,299.4 
	183.9,303.2 184.1,305 184.2,306.7 184.4,308.6 184.5,310.4 184.7,312.2 184.8,313.9 185,315.5 185,317.3 185.1,319 185.1,320.6 
	185.3,322.4 185.3,324 185.3,325.8 185.3,327.4 185.4,329.1 185.4,330.8 185.4,332.4 185.4,334 185.4,337.4 185.3,347.3 
	185.3,350.7 185.1,354.1 185.1,355.8 185.3,357.6 185.3,359.3 185.3,361.1 185.3,362.8 185.3,364.8 185.4,366.5 185.4,368.4 
	185.6,370.3 185.7,372.2 185.9,374.1 186,376 186.1,377.9 186.3,380 186.4,381.9 186.6,383.9 186.9,386 187,388 187.3,390.1 
	187.5,392 188,396.1 188.9,404.2 189.4,408.1 189.8,411.6 190.2,415 190.5,418.4 190.8,421.7 191.1,425 191.4,428 191.7,431.1 
	191.9,434.2 192.2,437.3 192.3,440.2 192.4,443.1 192.6,445.9 192.7,448.9 192.9,451.6 193,454.4 193.2,457.2 193.3,460.1 
	193.3,462.9 193.6,468.5 193.9,480.1 194.1,485.9 194.3,492.1 194.5,495.3 194.6,498.5 194.8,501.9 194.9,505.3 195.1,510.1 
	195.4,515.2 196.5,536.8 196.8,542.3 197.1,547.9 197.4,553.5 197.6,556.3 197.7,558.9 197.7,561.7 197.9,564.5 198,567.2 198,570 
	198.2,572.7 198.2,575.3 198.3,578.1 198.3,580.7 198.3,583.4 198.3,585.9 198.3,588.5 198.3,591 198.3,593.5 198.2,596 
	198.2,598.3 198.2,600.7 198,603 197.9,605.2 197.9,606.4 197.7,607.4 197.7,608.6 197.6,609.6 197.4,610.6 197.4,611.6 
	197.3,612.7 197.1,613.7 197.1,614.7 197,615.7 196.8,616.6 196.7,617.6 196.5,618.5 196.4,619.4 196.3,620.3 196.1,621.2 196,622 
	195.8,622.9 195.7,623.7 195.5,624.5 195.2,625.3 195.1,626 194.9,626.9 194.6,627.5 194.5,628.2 194.2,628.9 194.1,629.5 
	193.8,630.2 193.6,630.8 193.3,631.4 193,632 192.7,632.6 192.4,633 192.3,633.6 192,634.1 191.9,634.4 191.7,634.5 191.6,634.8 
	191.3,634.9 191.1,635.2 191,635.4 190.8,635.5 190.7,635.8 190.5,636 190.4,636.1 190.2,636.3 190.1,636.4 189.8,636.7 
	189.7,636.8 189.5,637 189.4,637 189.2,637.1 188.9,637.3 188.8,637.4 188.6,637.6 188.3,637.7 188.2,637.7 188,637.9 187.9,637.9 
	187.6,638 187.5,638 187.2,638.2 187,638.2 186.9,638.3 186.6,638.3 186.4,638.3 186.1,638.3 186,638.3 185.7,638.5 185.6,638.5 
	185.4,638.5 185.3,638.5 185.1,638.5 185.1,638.5 185,638.3 184.8,638.3 184.7,638.3 184.5,638.3 184.4,638.3 184.2,638.3 
	184.1,638.3 183.8,638.2 183.5,638.2 183.2,638 182.9,638 182.6,637.9 182.3,637.7 182,637.6 181.7,637.4 181.3,637.3 181,637.1 
	180.7,637 180.4,636.8 180.1,636.7 179.8,636.4 179.5,636.3 179.3,636 179,635.8 178.7,635.5 178.2,635.2 177.9,635.1 177.6,634.8 
	177.4,634.5 177.1,634.2 176.8,633.8 176.5,633.5 176.2,633.2 175.9,632.9 175.6,632.4 175.3,632.2 174.9,631.7 174.6,631.3 
	174.3,631 174,630.5 173.8,630.1 173.5,629.7 173.2,629.2 173,628.8 172.7,628.2 172.4,627.8 172.1,627.3 171.8,626.7 171.5,626.3 
	171.3,625.7 171.1,625.1 170.8,624.5 170.6,624.1 170.3,623.5 170,622.9 169.9,622.3 169.6,621.6 169.4,621 169.1,620.4 169,619.7 
	168.7,619.1 168.6,618.4 168.4,617.8 168.1,617.1 168,616.3 167.7,615.2 167.4,614 167.2,612.8 166.9,611.5 166.8,610.3 166.5,609 
	166.4,607.7 166.2,606.4 166.1,605 165.8,603.7 165.6,602.3 165.6,600.9 165.5,599.6 165.3,598.2 165.2,596.7 165,595.4 165,593.9 
	164.9,592.4 164.9,591 164.8,589.5 164.6,586.7 164.5,583.8 164.2,572.8 164,570.6 163.9,568.6 163.9,566.4 163.7,564.5 
	163.6,562.4 163.4,560.5 163.3,556.7 163,553 162.7,549.4 162.6,546 162.3,542.6 162,539.3 161.7,535.9 161.1,529.3 160.4,522.7 
	160.1,519.2 159.8,515.7 159.5,511.7 159.2,507.6 158,494.7 157.7,490.3 157.3,485.9 156.8,481.5 156.4,477.1 156.3,474.9 
	156,472.7 155.8,470.5 155.5,468.3 155.4,466.1 155.1,463.9 154.8,461.7 154.5,459.7 154.3,457.5 154.1,455.4 153.8,453.4 
	153.5,451.3 153.2,449.3 152.7,447.2 152.6,445.6 152.3,444 152,442.6 151.7,440.9 151.1,437.7 150,431.1 149.4,427.6 148.9,425.9 
	148.6,423.9 148.3,421.9 148,419.8 147.6,417.4 146.3,409.1 145.8,406.2 145.4,403.3 145.1,401.8 144.8,400.4 144.5,398.9 
	144.2,397.6 144.1,396.1 143.8,394.6 143.5,393.2 143.2,391.7 142.8,390.4 142.5,388.9 142.2,387.6 141.9,386.1 141.5,384.8 
	141.2,383.5 140.7,382.2 140.4,380.9 140,379.7 139.5,378.5 139.4,377.8 139.1,377.2 139,376.8 138.8,376.2 138.7,375.7 
	138.5,375.4 138.4,375.3 138.4,375.3 138.2,375.2 138.2,375 138.1,374.9 138.1,374.7 138.1,374.7 137.9,374.6 137.9,374.4 
	137.8,374.4 137.8,374.4 137.8,374.3 137.6,374.3 137.6,374.3 137.6,374.3 137.6,374.1 137.5,374.1 137.5,374.1 137.5,374.1 
	137.5,374 137.5,374 137.4,374 137.4,374 137.4,374 137.4,374 137.2,374 137.2,373.8 137.2,373.8 137.2,373.8 137.1,373.8 
	137.1,373.8 137.1,373.8 137.1,373.8 136.9,373.8 136.9,373.8 136.9,373.8 136.9,373.8 136.8,373.8 136.8,373.8 136.8,373.8 
	136.8,373.8 136.6,373.8 136.6,373.8 136.6,373.8 136.6,373.8 136.6,373.8 136.5,373.8 136.5,373.8 136.5,373.8 136.5,373.8 
	136.3,373.8 136.3,373.8 136.3,373.8 136.3,373.8 136.2,373.8 136.2,374 136.2,374 136.2,374 136,374 136,374 136,374 136,374 
	135.9,374.1 135.9,374.1 135.9,374.1 135.9,374.1 135.7,374.3 135.7,374.3 135.6,374.4 135.6,374.4 135.4,374.6 135.4,374.6 
	135.3,374.7 135.3,374.7 135.2,374.9 135.2,375 135,375.2 134.9,375.4 134.7,375.6 134.6,375.9 134.4,376.2 134.3,376.5 
	134.1,376.6 134,377.1 133.7,377.6 133.4,378.4 133.1,379 132.8,379.8 132.7,380.6 132.4,381.5 132.1,382.2 131.8,383.1 
	131.6,383.9 131.3,385 131.1,385.9 130.9,386.7 130.6,387.8 130.5,388.6 130.2,389.7 129.9,391.1 129.6,392.6 129.4,394.1 
	129.1,395.5 128.9,397.1 128.7,398.6 128.6,400.1 128.3,401.4 128.1,402.8 128,404.3 127.8,405.8 127.8,407.2 127.7,408.6 
	127.5,410 127.5,411.3 127.4,412.8 127.4,414.1 127.2,415.4 127.2,416.8 127.2,418.2 127.1,420.9 127.1,423.4 127.1,433.3 
	126.9,435.4 126.9,437.3 126.9,439.2 126.8,441.1 126.8,443 126.7,444.9 126.7,446.7 126.5,448.6 126.4,452.1 126.2,455.4 
	126.1,458.8 125.8,462.2 125.2,472.4 125,474.9 124.9,477.6 124.8,480.1 124.6,482.6 124.5,485.2 124.3,487.7 124.3,490.3 
	124.2,492.8 124.2,495.4 124.2,496.8 124.2,498.1 124.2,499.4 124.2,500.7 124.2,502 124.2,503.4 124.2,505 124.3,506.6 
	124.3,508.1 124.3,509.7 124.5,512.9 124.6,516.1 125,525.6 125.2,528.9 125.3,532.1 125.3,533.5 125.3,535.2 125.5,536.8 
	125.5,538.2 125.5,539.8 125.5,541.3 125.5,542.8 125.5,544.2 125.3,545.9 125.3,547.3 125.3,548.6 125.2,550.1 125,551.6 
	125,552.9 124.9,553.8 124.9,554.5 124.6,556 124.5,557.6 124.3,559 124,560.5 123.1,566.5 122.8,568.1 122.7,569.7 122.4,571.3 
	122.3,573 122.1,573.8 122.1,574.6 122,575.5 122,576.3 121.8,577.2 121.8,578.1 121.8,579.1 121.7,580.1 121.7,581.2 121.7,582 
	121.5,584.2 121.5,586.3 121.4,590.5 121.4,592.7 121.2,594.9 121.2,597.3 121.1,598.3 121.1,599.5 121.1,600.5 120.9,601.7 
	120.9,602.7 120.8,603.7 120.6,604.9 120.5,605.9 120.5,607 120.4,608 120.1,609.2 119.9,610.2 119.8,611.2 119.6,612.1 
	119.5,612.8 119.3,613.4 119.2,614 119,614.6 118.7,615.2 118.6,615.9 118.5,616.5 118.3,617.1 118.2,617.6 117.9,618.2 
	117.7,618.7 117.6,619.3 117.3,619.8 117.1,620.4 116.8,620.9 116.7,621.5 116.4,622 116.1,622.5 116,623.1 115.7,623.5 
	115.5,624.1 115.2,624.5 114.9,625 114.6,625.4 114.5,626 114.2,626.4 113.9,626.9 113.6,627.3 113.3,627.8 113.2,628.2 
	112.9,628.5 112.6,628.9 112.3,629.4 112,629.8 111.7,630.1 111.4,630.5 111.1,630.8 110.8,631.3 110.7,631.6 110.4,631.9 
	110.1,632.3 109.8,632.6 109.5,632.9 109.2,633.2 108.9,633.5 108.6,633.8 108.3,634.1 108,634.2 107.8,634.5 107.5,634.8 
	107.2,634.9 106.9,635.2 106.6,635.4 106.4,635.5 106.1,635.8 105.8,636 105.6,636.1 105.3,636.3 105,636.4 104.7,636.5 
	104.5,636.7 104.2,636.8 103.9,636.8 103.8,637 103.7,637 103.5,637 103.4,637 103.2,637.1 103.1,637.1 102.9,637.1 102.8,637.1 
	102.6,637.1 102.5,637.3 102.3,637.3 102.3,637.3 102.2,637.3 102,637.3 101.9,637.3 101.7,637.3 101.6,637.3 101.5,637.3 
	101.3,637.1 101.2,637.1 101,637.1 100.9,637.1 100.9,637.1 100.7,637.1 100.6,637 100.4,637 100.3,637 100.1,636.8 100.1,636.8 
	100,636.8 99.8,636.7 99.7,636.7 99.5,636.5 99.4,636.5 99.4,636.4 99.3,636.4 99.1,636.3 99,636.1 99,636.1 98.8,636 98.7,636 
	98.5,635.8 98.5,635.7 98.4,635.5 98.2,635.5 98.2,635.4 98.1,635.2 97.9,635.1 97.8,634.9 97.5,634.6 97.4,634.4 97.2,634.1 
	97.1,633.8 96.8,633.5 96.6,633.2 96.5,632.7 96.3,632.4 96.2,632.2 96,631.7 95.7,631.3 95.6,631 95.4,630.5 95.3,630.1 
	95.2,629.7 95,629.2 94.9,628.8 94.9,628.3 94.7,627.9 94.6,627.5 94.3,626.4 94,625.4 93.8,624.4 93.5,623.2 93.4,622 93.2,621 
	93,619.7 92.8,618.5 92.7,617.2 92.5,616 92.4,614.7 92.2,613.3 92.2,611.9 92.1,610.6 91.9,609.2 91.8,607.7 91.8,606.2 
	91.6,604.8 91.6,603.3 91.5,601.8 91.5,600.2 91.5,598.7 91.3,597.1 91.3,595.5 91.3,593.9 91.3,592.4 91.3,589.2 91.2,586 
	91.3,582.6 91.3,579.4 91.3,576.2 91.3,573 91.3,569.7 91.5,566.5 91.6,559.6 91.9,546.3 92.1,539.8 92.1,536.6 92.1,533.4 
	92.2,530.3 92.2,527.2 92.2,524.2 92.2,521.1 92.2,518 92.2,514.9 92.2,513 92.2,511.1 92.2,509.2 92.1,507.2 92.1,503.4 
	91.9,499.6 91.8,495.6 91.6,491.8 91.5,488 91.3,484.2 91.2,480.4 90.9,476.5 90.8,472.7 90.5,468.9 90.3,465.1 90,461.3 
	89.4,453.5 88.4,438 88,430.1 87.7,426.1 87.4,422.2 87.1,418.1 86.9,414.1 86.7,410 86.5,405.9 86.2,401.7 86.1,397.6 85.9,393.3 
	85.8,388.9 85.6,385.7 85.5,382.3 85.3,379 85.3,375.6 85.2,372.2 85.2,369 85,365.6 85,362.4 85,359.2 85,356 85,352.9 85,349.8 
	85,346.7 85.2,343.8 85.2,341 85.3,338.2 85.3,335.7 85.5,333.3 85.6,330.8 85.8,328.3 85.9,325.9 86.1,323.4 86.4,320.8 
	86.7,318.2 86.8,315.5 87.1,312.6 87.4,309.5 87.8,306.3 89.4,290.8 90.2,283.6 90.6,279.8 90.9,275.8 91.3,272 91.6,268 
	91.8,266.1 91.9,264.2 92.1,262.3 92.2,260.6 92.4,258.7 92.5,256.9 92.5,255.3 92.7,253.5 92.7,251.9 92.8,250.5 92.8,249 
	92.8,247.5 92.8,246.2 92.8,245.6 92.8,245 92.8,244.5 92.7,243.9 92.7,243.3 92.7,242.8 92.7,242.4 92.5,242 92.5,241.5 
	92.4,241.1 92.4,240.6 92.4,240.5 92.2,240.4 92.2,240.2 92.2,240.1 92.2,239.9 92.1,239.8 92.1,239.6 92.1,239.6 92.1,239.5 
	91.9,239.5 91.9,239.3 91.9,239.3 91.9,239.2 91.9,239.2 91.8,239 91.8,239 91.8,238.9 91.6,238.9 91.6,238.9 91.6,238.7 
	91.6,238.7 91.5,238.7 91.5,238.7 91.5,238.6 91.5,238.6 91.3,238.6 91.3,238.6 91.3,238.6 91.2,238.6 91.2,238.5 91.2,238.5 
	91.1,238.5 91.1,238.5 91.1,238.5 90.9,238.5 90.9,238.5 90.9,238.5 90.8,238.5 90.8,238.5 90.8,238.5 90.6,238.6 90.6,238.6 
	90.6,238.6 90.5,238.6 90.5,238.6 90.3,238.6 90.3,238.7 90.3,238.7 90.2,238.7 90.2,238.7 90.2,238.9 90,238.9 90,238.9 89.9,239 
	89.9,239 89.9,239 89.7,239.2 89.6,239.3 89.4,239.5 89.3,239.6 89.1,239.8 89,239.9 88.9,240.1 88.7,240.5 88.4,240.9 88.1,241.4 
	87.8,241.8 87.5,242.4 87.2,242.8 86.8,243.4 86.5,244.2 86.2,244.8 85.9,245.5 85.6,246.2 85.2,246.9 84.9,247.7 84.6,248.4 
	84.2,249.3 83.9,250 83.6,250.9 83.1,251.8 82.8,252.7 82.4,253.7 81.7,255.6 80.9,257.5 80.2,259.6 79.5,261.6 78.7,263.8 
	78.2,266 77.4,268.2 76.7,270.5 76,272.7 75.2,275.1 74.6,277.3 73.9,279.6 73.3,282 72.7,284.2 72.3,285.9 71.9,287.5 71.4,289.3 
	71,290.9 70.7,292.5 70.2,294.3 69.8,295.9 69.5,297.5 68.8,300.6 68,303.8 67.5,306.9 66.9,309.8 65,318.6 64.5,321.4 63.9,324 
	63.4,326.7 63.1,328 62.8,329.3 62.5,330.6 62,331.8 61.7,333.4 61.3,334.9 61,336.3 60.6,337.8 60.1,339.1 59.7,340.6 59.4,341.9 
	59,343.2 58.5,344.4 58.1,345.6 57.6,346.7 57.4,347.9 56.9,348.9 56.5,350 56.2,350.4 56,350.8 55.9,351.3 55.6,351.7 55.4,352.2 
	55.2,352.6 55,353 54.7,353.3 54.6,353.6 54.4,354.1 54.1,354.3 54,354.6 53.7,354.9 53.5,355.2 53.4,355.4 53.2,355.5 53.1,355.7 
	53.1,355.8 53,355.8 52.8,356 52.8,356.1 52.7,356.1 52.5,356.3 52.5,356.3 52.4,356.4 52.2,356.4 52.2,356.5 52.2,356.5 
	52.1,356.5 52.1,356.5 52.1,356.5 51.9,356.7 51.9,356.7 51.9,356.7 51.8,356.7 51.8,356.7 51.8,356.7 51.6,356.7 51.6,356.8 
	51.6,356.8 51.5,356.8 51.5,356.8 51.5,356.8 51.3,356.8 51.3,356.8 51.3,356.8 51.2,356.8 51.2,356.8 51.2,356.8 51.1,356.8 
	51.1,356.8 51.1,356.8 50.9,356.8 50.9,356.8 50.9,356.8 50.8,356.8 50.8,356.8 50.8,356.8 50.6,356.8 50.6,356.8 50.6,356.8 
	50.6,356.8 50.5,356.8 50.5,356.7 50.5,356.7 50.3,356.7 50.3,356.7 50.3,356.7 50.2,356.7 50.2,356.5 50.2,356.5 50,356.5 
	50,356.5 50,356.5 50,356.4 49.9,356.4 49.9,356.4 49.9,356.4 49.7,356.3 49.7,356.3 49.7,356.3 49.7,356.3 49.6,356.1 49.6,356.1 
	49.4,356 49.4,355.8 49.3,355.8 49.3,355.7 49.1,355.5 49,355.4 49,355.2 48.9,355.1 48.9,354.9 48.7,354.8 48.6,354.3 48.4,354.1 
	48.3,353.6 48.1,353.2 48,352.7 47.7,352.3 47.5,351.9 47.4,351.3 47.2,350.8 47.1,350.2 46.9,349.7 46.9,349.1 46.8,348.5 
	46.7,347.9 46.5,347.3 46.4,346.6 46.1,345.3 45.9,343.8 45.6,342.3 45.5,340.9 45.2,339.3 45,337.6 44.9,335.9 44.8,334.3 
	44.5,332.5 44.3,330.8 44.2,329 44.2,327.2 44,325.3 43.9,323.6 43.9,321.8 43.7,319.9 43.7,318.2 43.6,316.3 43.6,314.5 
	43.6,312.7 43.6,311 43.6,309.2 43.6,307.6 43.6,305.9 43.6,304.2 43.6,302.6 43.7,301 43.7,299.4 43.9,297.8 43.9,296.2 44,294.7 
	44.2,293.1 44.3,291.6 44.5,290.2 44.6,288.6 44.8,287.1 44.9,285.6 45,284 45.2,282.6 45.3,281.1 45.6,278 46.1,274.9 47.4,265.1 
	47.8,261.6 48.3,257.9 48.4,256.9 48.6,255.7 48.7,254.6 48.9,253.4 49.1,252.2 49.3,251.2 49.4,250 49.7,248.9 50,247.8 
	50.2,246.7 50.5,245.6 50.8,244.6 51.1,243.4 51.2,242.4 51.5,241.4 51.8,240.4 52.2,239.3 52.5,238.2 52.8,237.1 53.1,236.1 
	53.4,235.2 53.8,234.2 54.1,233.2 54.4,232.2 54.9,231.1 55.2,230.2 55.6,229.2 55.9,228.2 56.3,227.3 56.8,226.3 57.1,225.4 
	57.5,224.4 58.2,222.6 59.1,220.7 59.8,219 60.7,217.1 61.5,215.3 62.3,213.7 63.2,211.9 63.9,210.2 65.6,206.9 68.8,200.6 
	69.5,199.2 70.2,197.7 72.3,193.5 72.9,192.2 73.6,190.8 73.9,190.1 74.2,189.5 74.5,188.9 74.9,188.2 75.2,187.6 75.5,187 
	76,186.4 76.3,185.9 76.7,185.3 77,184.8 77.4,184.2 77.7,183.7 78.2,183.2 78.6,182.8 79,182.2 79.3,181.7 79.8,181.3 80.2,180.9 
	80.8,180.4 81.2,180 81.7,179.5 82.3,179.3 82.4,179 82.7,178.8 83,178.5 83.3,178.4 83.6,178.2 83.9,178.1 84.2,177.8 84.6,177.6 
	85.2,177.4 85.8,177.1 86.5,176.8 87.1,176.5 87.8,176.2 88.6,175.9 89.3,175.7 90,175.4 90.8,175.3 91.5,175 92.2,174.9 93,174.7 
	93.7,174.4 94.6,174.3 95.3,174.1 96.2,174 96.9,173.8 97.8,173.7 98.7,173.7 99.4,173.5 100.3,173.4 101.2,173.2 102.8,173.1 
	104.5,173 106.3,172.8 108.3,172.7 110.2,172.5 112.3,172.2 114.3,172.2 116.4,172.1 118.5,171.9 120.5,171.8 122.6,171.6 
	124.8,171.6 126.8,171.5 128.9,171.5 131.1,171.3 133.2,171.3 135.3,171.3 137.5,171.2 139.7,171.2 141.9,171.2 144.1,171.2 
	146.3,171.2 148.5,171.2 150.7,171.2 152.9,171.2 155.2,171.2 157.4,171.2 159.8,171.3 162,171.3 166.7,171.5 171.3,171.5 
	176,171.6 "/>
<polyline class="st0" points="327.4,265.4 310.1,265.3 310.1,241.4 327.4,241.5 327.4,265.4 "/>
<polyline class="st0" points="327.4,419.4 310.1,419.3 310.1,390.4 327.4,390.5 327.4,419.4 "/>
<path class="st0" d="M308.3,55.4c-7,0-14.2,0-21.2-0.1c-0.4-16.8-1-33.8-1.6-50.7h2.9h2.9h5.9l5.9,0.1h5.9
	C308.5,21.7,308.3,38.6,308.3,55.4"/>
<path class="st0" d="M351.3,419.7c-7.2-0.1-14.4-0.1-21.5-0.3v-28.9c7.2,0,14.4,0.1,21.5,0.3C351.3,390.7,351.3,419.7,351.3,419.7"
	/>
<path class="st0" d="M353.8,390.8c8.4,0.1,16.7,0.1,25.1,0.3c0,9.7,0,19.3-0.1,28.9c-8.4-0.1-16.6-0.3-24.9-0.3
	C353.8,419.7,353.8,390.8,353.8,390.8"/>
<path class="st0" d="M353.8,358.6c8.4,0.1,16.7,0.1,25.1,0.3c0,9.7,0,19.3,0,29c-8.4-0.1-16.7-0.3-25.1-0.3
	C353.8,387.8,353.8,358.6,353.8,358.6"/>
<path class="st0" d="M327.4,166.4l-17.3-0.1c0-17.9,0.1-35.8,0.1-53.5l17.3,0.1C327.5,130.6,327.5,148.5,327.4,166.4"/>
<polyline class="st0" points="327.4,465.7 310.1,465.6 310.1,422.3 327.4,422.5 327.4,465.7 "/>
<path class="st0" d="M327.4,207.5l-17.3-0.1c0-12.7,0-25.5,0-38.1l17.3,0.1C327.4,182.2,327.4,194.9,327.4,207.5"/>
<path class="st0" d="M351.3,466c-7.2-0.1-14.4-0.1-21.5-0.3v-43.2c7.2,0,14.4,0.1,21.5,0.3V466"/>
<path class="st0" d="M351.3,543.4c-7.2-0.1-14.4-0.1-21.5-0.3v-40.6c7.2,0,14.4,0.1,21.5,0.3C351.3,502.8,351.3,543.4,351.3,543.4"
	/>
<path class="st0" d="M351.3,329.6c-7.2,0-14.4-0.1-21.5-0.1v-24c7.2,0,14.4,0.1,21.5,0.1V329.6"/>
<path class="st0" d="M351.3,499.7c-7.2-0.1-14.4-0.1-21.5-0.3v-30.8c7.2,0.1,14.4,0.1,21.5,0.3C351.3,469.1,351.3,499.7,351.3,499.7
	"/>
<path class="st0" d="M353.8,422.8c8.4,0.1,16.6,0.1,24.9,0.3c0,14.4-0.1,28.9-0.3,43.2c-8.2-0.1-16.4-0.3-24.8-0.3
	C353.8,466,353.8,422.8,353.8,422.8"/>
<path class="st0" d="M351.3,238.6c-7.2-0.1-14.4-0.1-21.5-0.1v-27.7c7.2,0,14.4,0.1,21.5,0.1V238.6"/>
<polyline class="st0" points="327.4,499.4 310.1,499.3 310.1,468.6 327.4,468.8 327.4,499.4 "/>
<path class="st0" d="M353.8,210.9c8.2,0.1,16.4,0.1,24.8,0.3l0.1,27.8c-8.4-0.1-16.6-0.1-24.9-0.3
	C353.8,238.6,353.8,210.9,353.8,210.9"/>
<path class="st0" d="M307.8,499.3c-7,0-14.1-0.1-21.1-0.1c0-10.3,0-20.5,0.1-30.8c7,0,13.9,0.1,21,0.1
	C307.8,468.6,307.8,499.3,307.8,499.3"/>
<path class="st0" d="M327.7,109.8l-17.3-0.1c0.1-17,0.1-34.1,0.3-51.1l17.3,0.1C327.8,75.7,327.7,92.7,327.7,109.8"/>
<path class="st0" d="M307.8,265.3l-19.2-0.1c0-8.1,0.1-16,0.1-24l19,0.1V265.3"/>
<polyline class="st0" points="327.4,238.5 310.1,238.3 310.1,210.6 327.4,210.6 327.4,238.5 "/>
<path class="st0" d="M307.8,302.2l-19.5-0.1c0.1-11.3,0.1-22.6,0.3-33.8l19.2,0.1L307.8,302.2"/>
<path class="st0" d="M307.8,207.4l-19-0.1c0-12.7,0-25.5,0-38.1l19.2,0.1C307.8,182,307.8,194.8,307.8,207.4"/>
<polyline class="st0" points="327.4,355.4 310.1,355.2 310.1,332.4 327.4,332.5 327.4,355.4 "/>
<polyline class="st0" points="327.4,387.5 310.1,387.3 310.1,358.3 327.4,358.5 327.4,387.5 "/>
<path class="st0" d="M354.2,58.8c7.6,0,15.2,0.1,22.9,0.3c0.1,17,0.3,34.1,0.4,51.1c-7.9-0.1-15.8-0.1-23.7-0.3
	C354.1,93,354.2,75.8,354.2,58.8"/>
<polyline class="st0" points="327.4,329.4 310.1,329.3 310.1,305.3 327.4,305.4 327.4,329.4 "/>
<path class="st0" d="M353.8,502.8c8.2,0.1,16.3,0.1,24.5,0.3c-0.1,13.5-0.3,27.1-0.4,40.6c-8.1-0.1-16-0.3-24-0.3
	C353.8,543.5,353.8,502.8,353.8,502.8"/>
<polyline class="st0" points="327.4,543.2 310.1,543.1 310.1,502.3 327.4,502.5 327.4,543.2 "/>
<path class="st0" d="M351.3,207.8c-7.2,0-14.4-0.1-21.5-0.1c0-12.7,0-25.5,0-38.1c7.2,0,14.4,0.1,21.5,0.1
	C351.4,182.3,351.3,195.1,351.3,207.8"/>
<path class="st0" d="M351.4,166.5c-7.2,0-14.4-0.1-21.5-0.1c0-17.9,0.1-35.8,0.1-53.5c7.2,0,14.4,0.1,21.5,0.1
	C351.6,130.9,351.4,148.6,351.4,166.5"/>
<path class="st0" d="M307.8,542.9c-7,0-14.1-0.1-21-0.1c0-13.5,0-27.1,0-40.6c7,0,14.1,0.1,21.1,0.1
	C307.8,502.3,307.8,542.9,307.8,542.9"/>
<path class="st0" d="M351.3,387.6c-7.2-0.1-14.4-0.1-21.5-0.3v-29c7.2,0,14.4,0.1,21.5,0.1C351.3,358.6,351.3,387.6,351.3,387.6"/>
<path class="st0" d="M353.6,268.8c8.4,0.1,16.7,0.1,25.1,0.3c0,11.3,0,22.6,0.1,33.8c-8.4-0.1-16.7-0.1-25.1-0.3
	C353.6,302.6,353.6,268.8,353.6,268.8"/>
<path class="st0" d="M353.8,469.1c8.2,0.1,16.4,0.1,24.6,0.3c0,10.3-0.1,20.5-0.3,30.8c-8.2-0.1-16.3-0.3-24.5-0.3
	C353.8,499.7,353.8,469.1,353.8,469.1"/>
<path class="st0" d="M351.3,302.5c-7.2,0-14.4-0.1-21.5-0.1v-33.8c7.2,0,14.4,0.1,21.5,0.1C351.3,268.8,351.3,302.5,351.3,302.5"/>
<path class="st0" d="M307.8,355.2c-6.6,0-13.3-0.1-19.9-0.1l0.1-22.9l19.8,0.1V355.2"/>
<path class="st0" d="M351.6,110c-7.2,0-14.4-0.1-21.5-0.1c0.1-17,0.1-34.1,0.3-51.1c7.2,0,14.4,0.1,21.5,0.1
	C351.7,75.8,351.7,93,351.6,110"/>
<path class="st0" d="M351.3,355.5c-7.2-0.1-14.4-0.1-21.5-0.1v-22.9c7.2,0,14.4,0.1,21.5,0.1V355.5"/>
<path class="st0" d="M353.8,169.6c8.1,0.1,16.3,0.1,24.3,0.3c0.1,12.7,0.1,25.5,0.3,38.2c-8.2-0.1-16.4-0.1-24.6-0.3
	C353.8,195.1,353.8,182.3,353.8,169.6"/>
<path class="st0" d="M307.8,238.3l-19-0.1c0-9.2,0-18.5,0-27.7l19,0.1V238.3"/>
<path class="st0" d="M307.8,465.6c-7,0-13.9-0.1-21-0.1c0.1-14.4,0.1-28.7,0.3-43.1c6.9,0,13.8,0.1,20.7,0.1
	C307.8,422.3,307.8,465.6,307.8,465.6"/>
<path class="st0" d="M351.3,265.7c-7.2,0-14.4-0.1-21.5-0.1v-24c7.2,0,14.4,0.1,21.5,0.1V265.7"/>
<polyline class="st0" points="307.8,329.3 288,329.1 288.3,305.1 307.8,305.3 307.8,329.3 "/>
<path class="st0" d="M308,109.7l-19.9-0.1c-0.3-17-0.6-34.1-1-51.1c7,0,14.1,0,21.1,0.1C308.2,75.5,308,92.5,308,109.7"/>
<polyline class="st0" points="327.4,302.3 310.1,302.2 310.1,268.3 327.4,268.5 327.4,302.3 "/>
<path class="st0" d="M353.9,113c7.9,0.1,15.8,0.1,23.7,0.3c0.1,17.9,0.3,35.8,0.4,53.5c-8.1-0.1-16.3-0.1-24.3-0.3
	C353.9,148.8,353.9,130.9,353.9,113"/>
<path class="st0" d="M354.6,4.9c7.3,0,14.7,0,22,0c0.1,17,0.4,34,0.6,51.1c-7.6-0.1-15.2-0.1-22.9-0.3
	C354.3,38.7,354.5,21.9,354.6,4.9"/>
<path class="st0" d="M353.8,241.7c8.4,0.1,16.6,0.1,24.9,0.3l0.1,24c-8.4-0.1-16.7-0.1-24.9-0.3
	C353.6,265.7,353.8,241.7,353.8,241.7"/>
<path class="st0" d="M307.8,387.3c-6.7,0-13.5-0.1-20.2-0.1l0.3-29c6.7,0,13.3,0,19.9,0.1C307.8,358.3,307.8,387.3,307.8,387.3"/>
<path class="st0" d="M328,55.6l-17.3-0.1c0.1-16.8,0.3-33.7,0.3-50.5c5.7,0,11.4,0,17.3,0C328.1,21.7,328,38.6,328,55.6"/>
<path class="st0" d="M307.8,166.2l-19.2-0.1c-0.1-17.9-0.3-35.8-0.4-53.5l19.8,0.1C307.9,130.5,307.9,148.3,307.8,166.2"/>
<path class="st0" d="M353.8,332.7c8.4,0.1,16.7,0.1,25.1,0.3v22.9c-8.4-0.1-16.7-0.1-25.1-0.3V332.7"/>
<path class="st0" d="M351.9,55.7c-7.2,0-14.4-0.1-21.5-0.1c0.1-16.8,0.3-33.7,0.3-50.7c7.2,0,14.4,0,21.5,0
	C352.2,21.9,352,38.7,351.9,55.7"/>
<path class="st0" d="M307.8,419.3c-6.9,0-13.8-0.1-20.5-0.1l0.3-28.9c6.7,0,13.5,0.1,20.4,0.1C307.8,390.4,307.8,419.3,307.8,419.3"
	/>
<path class="st0" d="M353.8,305.7c8.4,0.1,16.7,0.1,25.1,0.3v24c-8.4-0.1-16.7-0.1-25.1-0.3C353.8,329.6,353.8,305.7,353.8,305.7"/>
<path class="st0" d="M353.8,599.2h23.3c0.3-17.4,0.4-34.9,0.7-52.3c-8.1-0.1-16-0.3-24-0.3V599.2"/>
<path class="st0" d="M287.1,599.2h20.7v-53c-7,0-14.1-0.1-21-0.1C286.8,563.6,286.9,581.3,287.1,599.2"/>
<polyline class="st0" points="310.1,599.2 327.4,599.2 327.4,546.3 310.1,546.1 310.1,599.2 "/>
<path class="st0" d="M351.3,546.4c-7.2-0.1-14.4-0.1-21.5-0.3V599h21.5V546.4"/>
<path class="st0" d="M381.3,599.2h23.3c0.3-17.4,0.4-34.9,0.7-52.3c-8.1-0.1-16-0.3-24-0.3V599.2"/>
<path class="st0" d="M381.3,305.7c8.4,0.1,16.7,0.1,25.1,0.3v24c-8.4-0.1-16.7-0.1-25.1-0.3C381.3,329.6,381.3,305.7,381.3,305.7"/>
<path class="st0" d="M381.3,332.7c8.4,0.1,16.7,0.1,25.1,0.3v22.9c-8.4-0.1-16.7-0.1-25.1-0.3V332.7"/>
<path class="st0" d="M381.3,241.7c8.4,0.1,16.6,0.1,24.9,0.3l0.1,24c-8.4-0.1-16.7-0.1-24.9-0.3
	C381.3,265.7,381.3,241.7,381.3,241.7"/>
<path class="st0" d="M382.2,4.9c7.3,0,14.7,0,22,0c0.1,17,0.4,34,0.6,51.1c-7.6-0.1-15.2-0.1-22.9-0.3
	C381.9,38.7,382,21.9,382.2,4.9"/>
<path class="st0" d="M381.6,113c7.9,0.1,15.8,0.1,23.7,0.3c0.1,17.9,0.3,35.8,0.4,53.5c-8.1-0.1-16.3-0.1-24.3-0.3
	C381.5,148.8,381.5,130.9,381.6,113"/>
<path class="st0" d="M381.3,169.6c8.1,0.1,16.3,0.1,24.3,0.3c0.1,12.7,0.1,25.5,0.3,38.2c-8.2-0.1-16.4-0.1-24.6-0.3
	C381.3,195.1,381.3,182.3,381.3,169.6"/>
<path class="st0" d="M381.3,469.1c8.2,0.1,16.4,0.1,24.6,0.3c0,10.3-0.1,20.5-0.3,30.8c-8.2-0.1-16.3-0.3-24.5-0.3
	C381.3,499.7,381.3,469.1,381.3,469.1"/>
<path class="st0" d="M381.3,268.8c8.4,0.1,16.7,0.1,25.1,0.3c0,11.3,0,22.6,0.1,33.8c-8.4-0.1-16.7-0.1-25.1-0.3
	C381.3,302.6,381.3,268.8,381.3,268.8"/>
<path class="st0" d="M381.3,502.8c8.2,0.1,16.3,0.1,24.5,0.3c-0.1,13.5-0.3,27.1-0.4,40.6c-8.1-0.1-16-0.3-24-0.3
	C381.3,543.5,381.3,502.8,381.3,502.8"/>
<path class="st0" d="M381.7,58.8c7.6,0,15.2,0.1,22.9,0.3c0.1,17,0.3,34.1,0.4,51.1c-7.9-0.1-15.8-0.1-23.7-0.3
	C381.6,93,381.7,75.8,381.7,58.8"/>
<path class="st0" d="M381.3,210.9c8.2,0.1,16.4,0.1,24.8,0.3l0.1,27.8c-8.4-0.1-16.6-0.1-24.9-0.3
	C381.3,238.6,381.3,210.9,381.3,210.9"/>
<path class="st0" d="M381.3,422.8c8.4,0.1,16.6,0.1,24.9,0.3c0,14.4-0.1,28.9-0.3,43.2c-8.2-0.1-16.4-0.3-24.8-0.3
	C381.3,466,381.3,422.8,381.3,422.8"/>
<path class="st0" d="M381.3,358.6c8.4,0.1,16.7,0.1,25.1,0.3c0,9.7,0,19.3,0,29c-8.4-0.1-16.7-0.3-25.1-0.3
	C381.3,387.8,381.3,358.6,381.3,358.6"/>
<path class="st0" d="M381.3,390.8c8.4,0.1,16.7,0.1,25.1,0.3c0,9.7,0,19.3-0.1,28.9c-8.4-0.1-16.6-0.3-24.9-0.3
	C381.3,419.7,381.3,390.8,381.3,390.8"/>
<polyline class="st0" points="408.3,5 408.3,4.7 408.1,0.5 403.9,0.5 393.5,0.6 383.1,0.6 362.1,0.6 351.7,0.6 333.1,0.6 327.4,0.6 
	321.8,0.6 315.8,0.5 310,0.5 297.6,0.4 291.6,0.4 288.6,0.4 285.5,0.4 280.9,0.4 281.1,4.9 281.4,9.7 281.7,14.6 281.8,19.4 
	282.1,24.2 282.3,29.1 282.4,33.9 282.7,38.7 282.8,43.7 283,48.6 283.1,53.4 283.3,58.2 283.4,63.1 283.6,67.9 283.7,72.7 
	283.9,77.6 284,82.6 284.2,87.4 284.3,92.2 284.5,97.1 284.5,101.9 284.6,106.7 284.6,111.7 284.8,116.5 284.9,121.4 285,131.1 
	285,140.9 285.2,150.5 285.3,160.2 285.3,170 285.3,179.7 285.3,189.5 285.5,199.2 285.5,209 285.3,218.7 285.3,228.5 285.3,238.2 
	285.2,247.8 285.2,257.6 285,267.3 285,277.1 284.9,286.8 284.9,296.6 284.6,316.1 284.5,334 284.2,351.9 283.7,387.6 283.6,405.5 
	283.3,423.4 283.3,432.3 283.1,441.2 283,450.2 283,459.1 283,468.1 282.8,477 282.8,485.9 282.8,494.9 282.7,503.9 282.7,512.9 
	282.7,521.8 282.7,530.8 282.7,539.7 282.8,548.6 282.8,557.6 282.8,566.5 283,575.5 283.1,584.4 283.1,593.3 283.3,602.3 
	408.7,602.3 409,592.9 409.1,583.5 409.3,574.3 409.4,564.9 409.6,555.7 409.7,546.3 409.9,536.9 410,527.5 410,518.3 410.2,508.9 
	410.3,499.6 410.5,490.2 410.5,480.8 410.6,471.4 410.6,462.2 410.8,452.8 410.8,443.4 410.9,434.1 410.9,424.7 410.9,415.3 
	411.1,405.9 411.1,396.5 411.1,387.2 411.1,377.8 411.2,368.4 411.2,359 411.2,340.3 411.2,321.5 411.1,302.8 411.1,284 
	410.9,265.3 410.9,246.7 410.8,227.9 410.6,209.1 410.5,190.5 410.3,171.9 410.2,153.2 410,134.6 409.7,116 409.6,97.5 409.3,78.9 
	409,60.4 408.9,42 408.6,23.5 408.3,5 "/>
<path class="st1" d="M408.3,5V4.7V0.5H404h-10.4h-10.4h-20.8H352h-18.6h-5.7H322h-6h-6l-12.2-0.1h-6.2h-3.1h-3.1h-4.5l0.3,4.5
	l0.3,4.8l0.3,4.8l0.3,4.8l0.1,4.8l0.1,4.8l0.1,4.8l0.1,4.8l0.1,4.8l0.1,4.8l0.1,4.8l0.1,4.8l0.1,4.8l0.1,4.8l0.1,4.8l0.1,4.8
	l0.1,4.8l0.1,4.8l0.1,4.8l0.1,4.8l0.1,4.8l0.1,4.8l0.1,4.8l0.1,4.8l0.1,4.8l0.1,9.7l0.1,9.7l0.1,9.7l0.1,9.7v9.7v9.7v9.7v9.7v9.7
	v9.7v9.7v9.7v9.7v9.7l-0.1,9.7l-0.1,9.7l-0.1,9.8l-0.1,9.8l-0.1,19.5l-0.1,17.9l-0.7,53.6l-0.1,17.9l-0.1,17.9l-0.1,8.9l-0.1,8.9
	l-0.1,8.9l-0.1,8.9v8.9v8.9v8.9v8.9v8.9v8.9v8.9v8.9v8.9v8.9v8.9v8.9l0.1,8.9l0.1,8.9l0.1,8.9l0.1,8.9h125.4l0.1-9.4l0.1-9.4
	l0.1-9.4l0.1-9.4l0.1-9.4l0.1-9.4l0.1-9.4l0.1-9.4l0.1-9.4l0.1-9.4l0.1-9.4l0.1-9.4l0.1-9.4l0.1-9.4l0.1-9.4v-9.4v-9.4V432v-9.4
	v-9.4v-9.4v-9.4v-9.4v-9.4v-9.4V357v-18.8v-18.8v-18.8V282l-0.1-18.8l-0.1-18.8l-0.1-18.8l-0.1-18.8l-0.1-18.6l-0.1-18.6l-0.1-18.6
	l-0.1-18.6l-0.1-18.6l-0.3-18.6l-0.3-18.6l-0.3-18.5L409,39.8l-0.3-18.5L408.3,5z M381.3,390.8l12.5,0.1l12.6,0.1v14.5v14.5
	l-12.6-0.1l-12.3-0.1v-18.9L381.3,390.8z M381.3,358.6l12.5,0.1l12.6,0.1v14.5v14.5l-12.6-0.1l-12.5-0.1V358.6z M381.3,422.8
	l12.3,0.1l12.6,0.1v10.8v10.8v10.8v10.8l-12.5-0.1l-12.2-0.1L381.3,422.8z M381.3,210.9l12.2,0.1l12.5,0.1l0.1,13.9V239l-12.6-0.1
	l-12.3-0.1L381.3,210.9z M381.7,58.8L393,59l11.6,0.1l0.3,25.6l0.3,25.6l-12-0.1l-11.7-0.1l0.1-25.2V72L381.7,58.8z M381.3,502.8
	l12,0.1l12.3,0.1l-0.1,10.1l-0.1,10.1l-0.1,10.1l-0.1,10.1l-12.2-0.1l-11.9-0.1L381.3,502.8z M381.3,268.8l12.3,0.1l12.6,0.1v16.8
	v16.8l-12.6-0.1l-12.5-0.1L381.3,268.8z M381.3,469.1l12.2,0.1l12.5,0.1l-0.1,15.4l-0.1,15.4l-12.3-0.1l-12.2-0.1v-15.4L381.3,469.1
	z M381.3,169.6l12,0.1l12.3,0.1l0.1,19l0.1,19l-12.5-0.1l-12.2-0.1v-18.9L381.3,169.6z M381.6,113l11.7,0.1l12,0.1l0.1,13.3
	l0.1,13.3l0.1,13.3l0.1,13.3l-12.3-0.1l-12-0.1l0.1-26.2v-13.5L381.6,113z M382.2,4.9h11h5.4h5.4v0.3l0.3,25.3l0.3,25.5L393,55.9
	l-11.3-0.1l0.1-25.1l0.1-12.7L382.2,4.9z M381.3,241.7l12.3,0.1l12.6,0.1v12v12l-12.6-0.1l-12.3-0.1V241.7z M381.3,332.7l12.5,0.1
	l12.7,0.1v11.4v11.4l-12.7-0.1l-12.5-0.1V353V332.7z M381.3,305.7l12.5,0.1l12.6,0.1v12v12l-12.7-0.1l-12.5-0.1L381.3,305.7z
	 M381.3,599.2v-52.6l11.9,0.1l12.2,0.1l-0.1,13l-0.1,13l-0.1,13l-0.1,13h-23.4V599.2z M351.3,546.4V599h-21.5v-52.9l10.7,0.1
	L351.3,546.4z M310.1,599.2v-53l8.5,0.1l8.6,0.1v52.9h-17.1V599.2z M287.1,599.2l-0.1-6.6V586v-6.6v-6.6v-6.6v-6.6V553v-6.6h10.4
	l10.5,0.1v53h-20.8V599.2z M353.8,599.2v-52.6l11.9,0.1l12.2,0.1l-0.1,13l-0.1,13l-0.1,13l-0.1,13h-23.4V599.2z M353.8,305.7
	l12.5,0.1l12.6,0.1v12v12l-12.7-0.1l-12.5-0.1L353.8,305.7z M307.8,419.3l-10.4-0.1h-10.1l0.1-14.5l0.1-14.5h10.1l10.3,0.1v10.5
	L307.8,419.3z M351.9,55.7L341,55.6l-10.7-0.1l0.1-24.9l0.1-12.7l0.1-12.9h3.1h9.2h9.2l-0.1,13L352,30.7L351.9,55.7z M353.8,332.7
	l12.5,0.1L379,333v11.4v11.4l-12.7-0.1l-12.5-0.1V353V332.7z M307.8,166.2h-9.7h-9.5v-6.7v-6.7V146v-6.7v-6.7v-6.7l-0.1-6.7
	l-0.1-6.7h9.8h10v13.8v13.5L307.8,166.2z M328,55.6h-8.6h-8.5l0.1-24.9l0.1-12.7L311.3,5h4.2h4.2h8.6l-0.1,12.9l-0.1,12.7L328,55.6z
	 M307.8,387.3l-10.3-0.1h-10.1l0.3-29h10h10.1V387.3z M353.8,241.7l12.3,0.1l12.6,0.1v12v12l-12.6-0.1l-12.3-0.1V241.7z M354.6,4.9
	h11h5.4h5.4v0.3l0.3,25.3l0.3,25.5l-11.6-0.1l-11.3-0.1l0.1-25.1l0.1-12.7L354.6,4.9z M353.9,113l11.7,0.1l12,0.1l0.1,13.3l0.1,13.3
	l0.1,13.3l0.1,13.3l-12.3-0.1l-12-0.1l0.1-26.2v-13.5L353.9,113z M327.4,302.3h-8.6h-8.5v-33.8h8.5h8.6V302.3z M308,109.7h-10h-9.8
	l-0.1-6.4l-0.1-6.4l-0.1-6.4l-0.1-6.4l-0.1-6.4l-0.1-6.4l-0.1-6.4l-0.1-6.4h10.4h10.7l-0.1,13V84L308,109.7z M307.8,329.3h-10H288
	l0.1-24h9.7h9.8L307.8,329.3z M351.3,265.7l-10.8-0.1l-10.7-0.1v-24l10.7,0.1l10.8,0.1V265.7z M307.8,465.6l-10.5-0.1l-10.4-0.1
	v-10.8v-10.8l0.1-10.8l0.1-10.8h10.3l10.4,0.1V465.6z M307.8,238.3h-9.7h-9.4v-13.9v-13.9h9.4h9.5L307.8,238.3z M353.8,169.6l12,0.1
	l12.3,0.1l0.1,19l0.1,19l-12.5-0.1l-12.2-0.1v-18.9L353.8,169.6z M351.3,355.5l-10.8-0.1l-10.7-0.1v-2.3v-20.5l10.7,0.1l10.8,0.1
	V353V355.5z M351.6,110l-10.8-0.1l-10.7-0.1l0.1-25.2V71.6l0.1-13l10.7,0.1l10.8,0.1l-0.1,13v12.9L351.6,110z M307.8,355.2h-10.1
	h-10l0.1-22.9h9.8h10V353L307.8,355.2z M351.3,302.5l-10.8-0.1l-10.7-0.1v-33.8l10.7,0.1l10.8,0.1V302.5z M353.8,469.1l12.2,0.1
	l12.5,0.1l-0.1,15.4l-0.1,15.4l-12.3-0.1l-12.2-0.1v-15.4L353.8,469.1z M353.6,268.8l12.3,0.1l12.6,0.1v16.8v16.8l-12.6-0.1
	l-12.5-0.1L353.6,268.8z M351.3,387.6l-10.8-0.1l-10.7-0.1v-29l10.7,0.1l10.8,0.1V387.6z M307.8,542.9l-10.5-0.1h-10.4v-10.1v-10.1
	v-10.1v-10.1h10.4l10.5,0.1V542.9z M351.4,166.5l-10.8-0.1l-10.7-0.1L330,140v-13.5v-13.8l10.7,0.1l10.8,0.1v13.8v13.5L351.4,166.5z
	 M351.3,207.8l-10.8-0.1l-10.7-0.1v-18.9v-19.3l10.7,0.1l10.8,0.1v19.3V207.8z M327.4,543.2l-8.6-0.1l-8.5-0.1v-40.6l8.5,0.1
	l8.6,0.1V543.2z M353.8,502.8l12,0.1l12.3,0.1l-0.1,10.1l-0.1,10.1l-0.1,10.1l-0.1,10.1l-12.2-0.1l-11.9-0.1L353.8,502.8z
	 M327.4,329.4h-8.6h-8.5v-24h8.5h8.6V329.4z M354.2,58.8l11.3,0.1l11.6,0.1l0.3,25.6l0.3,25.6l-12-0.1l-11.7-0.1l0.1-25.2V72
	L354.2,58.8z M327.4,387.5l-8.6-0.1h-8.5v-29h8.5h8.6V387.5z M327.4,355.4h-8.6h-8.5v-2.2v-20.7h8.5h8.6V353V355.4z M307.8,207.4
	h-9.5h-9.4v-9.5v-9.5v-9.5v-9.5h9.5h9.7v19.3L307.8,207.4z M307.8,302.2h-9.8h-9.7l0.1-16.8l0.1-16.8h9.5h9.7V302.2z M327.4,238.5
	h-8.6h-8.5v-27.7h8.5h8.6V238.5z M307.8,265.3h-9.7h-9.5v-12v-12h9.4h9.7L307.8,265.3z M327.7,109.8H319h-8.5l0.1-25.2V71.7l0.1-13
	h8.5h8.6l-0.1,13v12.9L327.7,109.8z M307.8,499.3l-10.5-0.1h-10.4v-7.6v-7.6v-15.4l10.4,0.1l10.5,0.1v15.8V499.3z M353.8,210.9
	l12.2,0.1l12.5,0.1l0.1,13.9V239l-12.6-0.1l-12.3-0.1L353.8,210.9z M327.4,499.4l-8.6-0.1l-8.5-0.1v-14.9v-15.7l8.5,0.1l8.6,0.1
	v15.5V499.4z M351.3,238.6l-10.8-0.1l-10.7-0.1v-27.7l10.7,0.1l10.8,0.1V238.6z M353.8,422.8l12.3,0.1l12.6,0.1v10.8v10.8v10.8v10.8
	l-12.5-0.1l-12.2-0.1L353.8,422.8z M351.3,499.7l-10.8-0.1l-10.7-0.1v-15.2v-15.5l10.7,0.1l10.8,0.1v15.2V499.7z M351.3,329.6
	l-10.8-0.1l-10.7-0.1v-24l10.7,0.1l10.8,0.1V329.6z M351.3,543.4l-10.8-0.1l-10.7-0.1v-40.6l10.7,0.1l10.8,0.1V543.4z M351.3,466
	l-10.8-0.1l-10.7-0.1v-43.2l10.7,0.1l10.8,0.1V466z M327.4,207.5h-8.6h-8.5v-18.9v-19.3h8.5h8.6v19.3V207.5z M327.4,465.7l-8.6-0.1
	l-8.5-0.1v-43.2h8.5l8.6,0.1V465.7z M327.4,166.4h-8.6h-8.5l0.1-26.2v-13.5v-13.8h8.5h8.6v13.8v13.5L327.4,166.4z M353.8,358.6
	l12.5,0.1l12.6,0.1v14.5v14.5l-12.6-0.1l-12.5-0.1V358.6z M353.8,390.8l12.5,0.1l12.6,0.1v14.5v14.5l-12.6-0.1l-12.3-0.1v-18.9
	L353.8,390.8z M351.3,419.7l-10.8-0.1l-10.7-0.1v-18.6v-10.3l10.7,0.1l10.8,0.1v10.1V419.7z M308.3,55.4h-10.7h-10.5l-0.1-6.3
	l-0.1-6.3l-0.1-6.3l-0.1-6.3l-0.1-6.3l-0.1-6.3l-0.3-6.3L285.6,5h2.9h2.9h5.9l5.9,0.1h5.9l-0.1,12.9l-0.1,12.7L308.3,55.4z
	 M327.4,419.4l-8.6-0.1h-8.5v-18.5v-10.5h8.5l8.6,0.1v10.4V419.4z M327.4,265.4h-8.6h-8.5v-24h8.5h8.6V265.4z"/>
<polyline class="st0" points="495,324 476.5,323.9 476.5,303.9 495,304.1 495,324 "/>
<polyline class="st0" points="495,451.6 476.5,451.6 476.5,427.6 495,427.8 495,451.6 "/>
<path class="st0" d="M474.6,149.8h-22.6c-0.4-14.1-1-28-1.8-42.1h3.1h3.1h6.2h6.2h6.2C474.9,121.8,474.8,135.9,474.6,149.8"/>
<path class="st0" d="M520.5,451.9c-7.6,0-15.2-0.1-23-0.1v-24c7.6,0,15.2,0.1,23,0.1V451.9"/>
<path class="st0" d="M523,427.9c8.9,0.1,17.7,0.1,26.7,0.3c0,8.1,0,16-0.1,24c-8.8-0.1-17.7-0.1-26.5-0.3V427.9"/>
<path class="st0" d="M523,401.4c8.9,0.1,17.9,0.1,26.7,0.3c0,8.1,0,16.1,0,24.2c-8.9-0.1-17.7-0.1-26.7-0.3
	C523,425.4,523,401.4,523,401.4"/>
<path class="st0" d="M495.2,241.8l-18.3-0.1c0-14.8,0.1-29.6,0.1-44.4l18.3,0.1C495.2,212.2,495.2,227,495.2,241.8"/>
<polyline class="st0" points="495,490 476.5,489.9 476.5,454.1 495,454.3 495,490 "/>
<path class="st0" d="M495,276l-18.3-0.1c0-10.5,0-21.1,0.1-31.6l18.3,0.1C495,254.9,495,265.4,495,276"/>
<path class="st0" d="M520.5,490.3c-7.6-0.1-15.2-0.1-23-0.1v-35.8c7.6,0,15.2,0.1,23,0.1C520.5,454.4,520.5,490.3,520.5,490.3"/>
<path class="st0" d="M520.5,554.5c-7.6,0-15.2-0.1-23-0.1v-33.7c7.6,0,15.2,0.1,23,0.1V554.5"/>
<path class="st0" d="M520.5,377.2c-7.6,0-15.2-0.1-23-0.1v-19.9c7.6,0,15.2,0.1,23,0.1V377.2"/>
<path class="st0" d="M520.5,518.3c-7.6,0-15.2-0.1-23-0.1v-25.5c7.6,0,15.2,0.1,23,0.1C520.5,492.8,520.5,518.3,520.5,518.3"/>
<path class="st0" d="M523,454.4c8.8,0.1,17.7,0.1,26.5,0.3c0,12-0.1,23.9-0.3,35.9c-8.8-0.1-17.6-0.1-26.4-0.3
	C523,490.3,523,454.4,523,454.4"/>
<path class="st0" d="M520.5,301.7c-7.6,0-15.2-0.1-23-0.1v-23c7.6,0,15.2,0.1,23,0.1C520.5,278.7,520.5,301.7,520.5,301.7"/>
<polyline class="st0" points="495,518.2 476.7,518 476.5,492.5 495,492.7 495,518.2 "/>
<path class="st0" d="M523.1,278.7c8.8,0,17.6,0.1,26.4,0.3l0.1,23c-8.8-0.1-17.7-0.1-26.5-0.3C523,301.7,523.1,278.7,523.1,278.7"/>
<path class="st0" d="M474.1,518l-22.4-0.1c0-8.5,0-17,0.1-25.5l22.3,0.1L474.1,518"/>
<path class="st0" d="M495.3,194.8l-18.3-0.1c0.1-14.1,0.1-28.3,0.3-42.3l18.3,0.1C495.4,166.7,495.4,180.7,495.3,194.8"/>
<path class="st0" d="M474.1,323.9l-20.5-0.1c0-6.6,0.1-13.3,0.1-19.9l20.4,0.1V323.9"/>
<polyline class="st0" points="495,301.6 476.5,301.5 476.7,278.5 495,278.6 495,301.6 "/>
<path class="st0" d="M474.1,354.5l-20.8-0.1c0.1-9.4,0.1-18.8,0.3-28l20.5,0.1V354.5"/>
<path class="st0" d="M474.1,276l-20.2-0.1c0-10.5,0-21.1,0-31.6l20.4,0.1C474.2,254.9,474.1,265.4,474.1,276"/>
<polyline class="st0" points="495,398.6 476.7,398.5 476.7,379.6 495,379.6 495,398.6 "/>
<polyline class="st0" points="495,425.1 476.5,425 476.7,400.9 495,401.1 495,425.1 "/>
<path class="st0" d="M523.6,152.6c8.2,0,16.3,0.1,24.5,0.1c0.1,14.2,0.4,28.3,0.6,42.5c-8.4-0.1-16.8-0.1-25.2-0.1
	C523.4,180.9,523.6,166.8,523.6,152.6"/>
<polyline class="st0" points="495,377.1 476.7,376.9 476.5,357 495,357.1 495,377.1 "/>
<path class="st0" d="M523,520.9c8.6,0.1,17.3,0.1,26.1,0.3c-0.1,11.3-0.3,22.4-0.4,33.7c-8.5-0.1-17-0.1-25.6-0.3
	C523,554.6,523,520.9,523,520.9"/>
<polyline class="st0" points="495,554.4 476.7,554.2 476.7,520.5 495,520.7 495,554.4 "/>
<path class="st0" d="M520.5,276.3c-7.6,0-15.2-0.1-23-0.1c0-10.5,0-21.1,0.1-31.6c7.6,0,15.2,0.1,23,0.1
	C520.5,255,520.5,265.6,520.5,276.3"/>
<path class="st0" d="M520.7,242c-7.6,0-15.2-0.1-23-0.1c0-14.8,0.1-29.6,0.1-44.4c7.6,0,15.2,0.1,23,0.1
	C520.7,212.4,520.7,227.2,520.7,242"/>
<path class="st0" d="M474.1,554.2l-22.4-0.1c0-11.3,0-22.4,0-33.7l22.4,0.1V554.2"/>
<path class="st0" d="M520.5,425.4c-7.6,0-15.2-0.1-23-0.1v-24c7.6,0,15.2,0.1,23,0.1C520.5,401.2,520.5,425.4,520.5,425.4"/>
<path class="st0" d="M523,326.8c8.9,0,17.7,0.1,26.7,0.3c0,9.4,0,18.8,0.1,28c-8.9-0.1-17.7-0.1-26.7-0.3
	C523,354.8,523,326.8,523,326.8"/>
<path class="st0" d="M523,492.8c8.8,0.1,17.6,0.1,26.2,0.3c0,8.5-0.1,17-0.3,25.5c-8.6-0.1-17.3-0.1-26.1-0.3
	C523,518.3,523,492.8,523,492.8"/>
<path class="st0" d="M520.5,354.8c-7.6,0-15.2-0.1-23-0.1v-28c7.6,0,15.2,0.1,23,0.1V354.8"/>
<polyline class="st0" points="474.1,398.5 452.8,398.3 453,379.4 474.1,379.6 474.1,398.5 "/>
<path class="st0" d="M520.8,195.1c-7.6,0-15.2-0.1-23-0.1c0.1-14.1,0.1-28.3,0.3-42.3c7.6,0,15.2,0.1,23,0.1
	C520.9,166.8,520.9,180.9,520.8,195.1"/>
<path class="st0" d="M520.5,398.7c-7.6,0-15.2-0.1-23-0.1v-18.9c7.6,0,15.2,0.1,23,0.1V398.7"/>
<path class="st0" d="M523.1,244.6c8.6,0,17.3,0.1,25.9,0.1c0.1,10.5,0.1,21.1,0.3,31.6c-8.8-0.1-17.6-0.1-26.2-0.3
	C523.1,265.7,523.1,255.2,523.1,244.6"/>
<path class="st0" d="M474.1,301.5l-20.4-0.1c0-7.6,0-15.4,0.1-23l20.2,0.1V301.5"/>
<path class="st0" d="M474.1,489.9l-22.3-0.1c0.1-11.9,0.1-23.9,0.3-35.8l22,0.1V489.9"/>
<path class="st0" d="M520.5,324.2c-7.6,0-15.2-0.1-23-0.1v-19.9c7.6,0,15.2,0.1,23,0.1V324.2"/>
<polyline class="st0" points="474.1,376.9 453.1,376.9 453.3,357 474.1,357 474.1,376.9 "/>
<path class="st0" d="M474.4,194.8l-21.2-0.1c-0.3-14.1-0.6-28.3-1-42.3h22.6C474.5,166.5,474.5,180.6,474.4,194.8"/>
<polyline class="st0" points="495,354.6 476.5,354.5 476.5,326.5 495,326.5 495,354.6 "/>
<path class="st0" d="M523.3,197.6c8.4,0,16.8,0.1,25.2,0.1c0.1,14.8,0.3,29.6,0.4,44.4c-8.6-0.1-17.3-0.1-25.9-0.1
	C523.1,227.2,523.3,212.4,523.3,197.6"/>
<path class="st0" d="M524,107.9c7.8,0,15.5,0,23.3,0c0.1,14.1,0.4,28.3,0.6,42.3c-8.1,0-16.3-0.1-24.3-0.1
	C523.7,136,523.9,122,524,107.9"/>
<path class="st0" d="M523,304.4c8.8,0,17.7,0.1,26.5,0.3l0.1,19.9c-8.9-0.1-17.7-0.1-26.7-0.3C523,324.2,523,304.4,523,304.4"/>
<polyline class="st0" points="474.1,425 452.5,425 452.8,400.9 474.1,400.9 474.1,425 "/>
<path class="st0" d="M495.6,150l-18.3-0.1c0.1-13.9,0.3-28,0.4-41.9c6.2,0,12.3,0,18.3,0C495.9,122,495.7,135.9,495.6,150"/>
<path class="st0" d="M474.2,241.7l-20.4-0.1c-0.1-14.8-0.3-29.6-0.4-44.4l21.1,0.1C474.4,212.1,474.2,226.9,474.2,241.7"/>
<path class="st0" d="M523,379.8c8.9,0,17.9,0.1,26.7,0.3v19c-8.9-0.1-17.9-0.1-26.7-0.3C523,398.7,523,379.8,523,379.8"/>
<path class="st0" d="M521.1,150.1c-7.6,0-15.2-0.1-23-0.1c0.1-14.1,0.3-28,0.4-42.1c7.6,0,15.2,0,23,0
	C521.4,122,521.2,136,521.1,150.1"/>
<polyline class="st0" points="474.1,451.5 452.2,451.5 452.4,427.5 474.1,427.6 474.1,451.5 "/>
<path class="st0" d="M523,357.3c8.9,0,17.9,0.1,26.7,0.3v19.9c-8.9-0.1-17.9-0.1-26.7-0.3C523,377.2,523,357.3,523,357.3"/>
<path class="st0" d="M523,600.8h24.8c0.3-14.5,0.6-28.9,0.7-43.4c-8.5-0.1-17-0.1-25.5-0.3C523,557.1,523,600.8,523,600.8"/>
<path class="st0" d="M452.1,600.8h22v-44l-22.4-0.1C451.8,571.3,451.9,586,452.1,600.8"/>
<polyline class="st0" points="476.5,600.8 495,600.8 495,556.8 476.7,556.7 476.5,600.8 "/>
<polyline class="st0" points="551,108 551,107.9 551,104.2 547.5,104.4 538.8,104.4 513.2,104.4 504.7,104.4 489.3,104.4 
	484.8,104.4 480.1,104.4 475.2,104.4 470.4,104.2 460.3,104.2 455.3,104.1 450.3,104.1 446.5,104.1 446.8,107.9 447,111.9 
	447.1,116 447.4,119.9 447.5,124 447.7,128 447.8,131.9 448,136 448.1,140 448.3,144.1 448.4,148 448.6,152.2 448.7,156.1 
	448.9,160.2 448.9,164.2 449.1,172.2 449.3,180.3 449.4,188.3 449.7,196.4 449.7,204.5 449.9,212.5 450,220.6 450,228.6 
	450.2,236.8 450.2,244.9 450.2,253 450.3,261 450.3,269.1 450.3,277.1 450.3,285.2 450.2,293.3 450.2,301.3 450.2,309.5 450,317.6 
	450,325.6 449.9,333.7 449.9,341.7 449.7,349.8 449.6,366.1 449.4,380.9 449.3,395.7 448.9,425.3 448.7,440.2 448.6,455 
	448.4,469.8 448.3,477.3 448.3,484.6 448.3,492.1 448.1,499.6 448.1,506.9 448.1,514.4 448.1,521.7 448.1,529.1 448.1,536.6 
	448.1,543.9 448.1,551.4 448.1,558.7 448.1,566.2 448.3,573.7 448.3,581 448.4,588.5 448.4,595.8 448.6,603.3 551.4,603.3 
	551.6,595.5 551.7,587.9 551.9,580.1 552,572.4 552,564.6 552.2,557 552.3,549.2 552.4,541.5 552.4,533.7 552.6,525.9 552.7,510.4 
	552.9,494.9 553,479.3 553.2,463.8 553.2,448.3 553.3,432.7 553.3,417.2 553.3,401.7 553.3,386 553.3,370.5 553.3,354.9 
	553.3,339.4 553.2,323.9 553.2,308.3 553,292.8 552.9,277.3 552.9,261.9 552.7,246.4 552.6,231 552.4,215.4 552.2,200.1 552,184.7 
	551.9,169.3 551.7,153.9 551.4,138.7 551.3,123.3 551,108 "/>
<path class="st0" d="M520.5,557.1c-7.6,0-15.2-0.1-23-0.1v43.8h23V557.1"/>
<path class="st1" d="M551,108v-0.3v-3.5h-3.5H539h-25.6h-8.5h-15.2h-4.7h-4.7h-4.8h-4.8l-10-0.1h-5h-5h-3.8l0.1,3.8l0.1,4l0.1,4
	l0.1,4l0.1,4l0.1,4l0.1,4l0.1,4l0.1,4l0.1,4l0.1,4l0.1,4l0.1,4l0.1,4l0.1,4l0.1,8.1l0.1,8.1l0.1,8.1l0.1,8.1l0.1,8.1l0.1,8.1
	l0.1,8.1l0.1,8.1v8.1v8.1v8.1v8.1v8.1v8.1v8.1v8.1v8.1v8.1v8.1v8.1v8.1l-0.1,8.1l-0.1,8.1l-0.1,16.1l-0.1,14.8l-0.6,44.5l-0.1,14.8
	l-0.1,14.8l-0.1,14.8v7.5v7.5v7.5v7.5v7.5v7.5v7.5v7.5v7.5v7.5v7.5v7.5v7.5v7.5v7.5l0.1,7.5l0.1,7.5l0.1,7.5h102.9l0.1-7.8l0.1-7.8
	l0.1-7.8l0.1-7.8l0.1-7.8l0.1-7.8l0.1-7.8l0.1-7.8l0.1-7.8l0.1-7.8l0.1-15.5l0.1-15.5l0.1-15.5l0.1-15.5l0.1-15.5v-15.5v-15.5v-15.5
	v-15.5V370v-15.5V339v-15.5l-0.1-15.5l-0.1-15.5l-0.1-15.5l-0.1-15.5l-0.1-15.5l-0.1-15.4l-0.7-14.9l-0.1-15.4l-0.1-15.4l-0.1-15.4
	l-0.1-15.4l-0.1-15.4l-0.3-15.2L551,108z M520.5,557.1v43.7h-23V557l11.4,0.1H520.5z M476.5,600.8v-44l18.3,0.1v43.8H476.5z
	 M452.1,600.8l-0.1-5.6v-5.6v-5.6v-5.6V573v-5.6v-5.6v-5.6h11.1h11.3v44h-22.3V600.8z M523,600.8v-43.7l12.6,0.1l12.9,0.1l-0.1,10.8
	l-0.1,10.8l-0.1,10.8l-0.1,10.8H523z M523,357.3l13.2,0.1l13.5,0.1v10v10l-13.5-0.1l-13.2-0.1V357.3z M474.1,451.5h-11h-10.8l0.1-12
	l0.1-12h10.7h11v8.6L474.1,451.5z M521.1,150.1h-11.6h-11.4l0.1-10.3l0.1-10.4l0.1-10.5l0.1-10.7h3.2h9.8h9.8l-0.1,10.8l-0.1,10.5
	l-0.1,10.4L521.1,150.1z M523,379.8l13.2,0.1l13.5,0.1v9.5v9.5l-13.5-0.1l-13.2-0.1v-2.1V379.8z M474.2,241.7h-10.3h-10.1v-5.6v-5.6
	V225v-5.6v-5.6l-0.1-5.6l-0.1-5.6l-0.1-5.6h10.4h10.7v11.4v11.1v11L474.2,241.7z M495.6,150l-18.3-0.1l0.1-10.3l0.1-10.4l0.1-10.5
	l0.1-10.7h4.5h4.5h9.2l-0.1,10.7l-0.1,10.5l-0.1,10.4L495.6,150z M474.1,425h-10.8h-10.7l0.3-24h10.5h10.7L474.1,425z M523,304.4
	l13,0.1l13.3,0.1v10v10l-13.5-0.1l-13.2-0.1L523,304.4z M524,107.9h11.7h11.7v0.3l0.3,21.1l0.3,21.1l-12.3-0.1l-12-0.1l0.1-10.3
	l0.1-10.4l0.1-10.5L524,107.9z M523.3,197.6l12.5,0.1l12.7,0.1l0.1,11.1l0.1,11.1l0.1,11.1l0.1,11.1l-13-0.1l-12.9-0.1v-10.8v-11
	v-11.1L523.3,197.6z M495,354.6l-18.3-0.1v-28l18.3,0.1V354.6z M474.4,194.8h-10.7h-10.5l-0.1-5.3l-0.1-5.3v-5.4l-0.1-5.3l-0.1-5.3
	l-0.1-5.3l-0.1-5.3l-0.1-5.3h11.1h11.4l-0.1,10.8l-0.1,10.7v10.5L474.4,194.8z M474.1,376.9h-10.5h-10.4l0.3-19.9h10.3h10.5
	L474.1,376.9z M520.5,324.2l-11.6-0.1l-11.4-0.1v-19.9l11.4,0.1l11.6,0.1V324.2z M474.1,489.9h-11.3h-11v-8.9l0.1-8.9l0.1-8.9
	l0.1-8.9h10.8h11.1L474.1,489.9z M474.1,301.5h-10.3h-10.1V290v-11.4h10h10.3L474.1,301.5z M523.1,244.6l12.9,0.1l13,0.1l0.1,15.8
	l0.1,15.8l-13.3-0.1l-13-0.1v-15.7L523.1,244.6z M520.5,398.7l-11.6-0.1l-11.4-0.1v-1.9v-17h11.4l11.6,0.1v16.8V398.7z M520.8,195.1
	l-11.6-0.1h-11.4v-10.4V174l0.1-10.7l0.1-10.8h11.4h11.6l-0.1,10.8l-0.1,10.7v10.5V195.1z M474.1,398.5h-10.7h-10.5l0.3-18.9h10.4
	h10.5v17.1L474.1,398.5z M520.5,354.8l-11.6-0.1h-11.4v-28l11.4,0.1l11.6,0.1V354.8z M523,492.8l13,0.1l13.3,0.1l-0.1,12.7
	l-0.1,12.7l-13.2-0.1l-12.9-0.1v-12.7V492.8z M523,326.8l13.2,0.1l13.5,0.1v14.1v14.1l-13.5-0.1l-13.2-0.1V326.8z M520.5,425.4
	l-11.6-0.1l-11.4-0.1v-24l11.4,0.1l11.6,0.1V425.4z M474.1,554.2h-11.3h-11.1v-8.4v-8.4v-8.4v-8.4h11.1h11.3V554.2z M520.7,242
	l-11.6-0.1h-11.4V231v-11v-11.1v-11.4h11.4l11.6,0.1V209v11.1v11V242z M520.5,276.3l-11.6-0.1h-11.4v-15.7v-16h11.4l11.6,0.1v16
	V276.3z M495,554.4l-18.3-0.1v-33.7l18.3,0.1V554.4z M523,520.9l12.9,0.1l13.2,0.1l-0.1,8.4l-0.1,8.4l-0.1,8.4l-0.1,8.4l-12.9-0.1
	l-12.6-0.1L523,520.9z M495,377.1l-18.3-0.1V357l18.3,0.1V377.1z M523.6,152.6l12,0.1l12.3,0.1l0.3,21.2l0.3,21.2l-12.7-0.1
	l-12.5-0.1v-10.4v-10.5l0.1-10.7L523.6,152.6z M495,425.1l-18.3-0.1v-24l18.3,0.1V425.1z M495,398.6l-18.3-0.1v-1.8v-17.1l18.3,0.1
	v17V398.6z M474.1,276h-10.3h-10V268v-7.9v-7.9v-7.9h10.1h10.3v16L474.1,276z M474.1,354.5h-10.4h-10.3l0.1-14.1l0.1-14.1h10.1h10.3
	V354.5z M495,301.6l-18.3-0.1v-23l18.3,0.1V301.6z M474.1,323.9h-10.3h-10.1l0.1-10v-10h10.1h10.3L474.1,323.9z M495.3,194.8
	l-18.3-0.1v-10.4v-10.5l0.1-10.7l0.1-10.8l18.3,0.1l-0.1,10.8l-0.1,10.7v10.5V194.8z M474.1,518h-11.3h-11.1v-6.3v-6.3l0.1-12.7h11
	h11.3v13V518z M523.1,278.7l13,0.1l13.3,0.1l0.1,11.6v11.6l-13.3-0.1l-13-0.1L523.1,278.7z M495,518.2l-18.3-0.1v-12.5v-13l18.3,0.1
	v12.9V518.2z M520.5,301.7l-11.6-0.1l-11.4-0.1v-23h11.4l11.6,0.1V301.7z M523,454.4l13.2,0.1l13.5,0.1v8.9v8.9v8.9v8.9l-13.3-0.1
	l-13-0.1L523,454.4z M520.5,518.3l-11.6-0.1l-11.4-0.1v-12.6v-12.9l11.4,0.1l11.6,0.1v12.7V518.3z M520.5,377.2l-11.6-0.1h-11.4
	v-19.9h11.4l11.6,0.1V377.2z M520.5,554.5l-11.6-0.1l-11.4-0.1v-33.7l11.4,0.1l11.6,0.1V554.5z M520.5,490.3l-11.6-0.1l-11.4-0.1
	v-35.8l11.4,0.1l11.6,0.1V490.3z M495,276l-18.3-0.1v-15.7v-16l18.3,0.1v16V276z M495,490l-18.3-0.1v-35.8l18.3,0.1V490z
	 M495.2,241.8l-18.3-0.1v-10.8v-11v-11.1v-11.4l18.3,0.1v11.4V220v11V241.8z M523,401.4l13.2,0.1l13.5,0.1v12v12l-13.5-0.1
	l-13.2-0.1V401.4z M523,427.9l13.2,0.1l13.5,0.1v12v12l-13.5-0.1l-13.2-0.1v-15.7V427.9z M520.5,451.9l-11.6-0.1l-11.4-0.1v-15.4
	v-8.5l11.4,0.1l11.6,0.1v8.4V451.9z M474.6,149.8h-11.4h-11.1l-0.1-5.3l-0.1-5.3l-0.1-5.3l-0.1-5.3l-0.3-5.3l-0.3-5.3l-0.3-5.3
	l-0.3-5.3h3.1h3.1h6.2h6.2h6.2l-0.1,10.7l-0.1,10.5l-0.1,10.4L474.6,149.8z M495,451.6l-18.3-0.1v-15.2v-8.6l18.3,0.1v8.6V451.6z
	 M495,324l-18.3-0.1v-19.9l18.3,0.1V324z"/>
<polygon class="st1" points="3.1,601.2 29.1,601.1 52.7,600.9 113.6,600.5 132.4,600.4 150.8,600.4 169.9,600.2 190.8,600.2 
	213,600.1 235.8,600.1 259.4,600.1 334.7,599.9 360.9,599.9 387.6,599.9 414.9,599.8 442.3,599.8 456.2,599.8 470.1,599.6 
	484.2,599.6 498.2,599.5 512.3,599.5 526.5,599.3 540.6,599.3 554.8,599.2 569,599 583.2,598.9 583.5,598.9 583.8,598.9 583.9,599 
	584.2,599 584.5,599 584.7,599 585,599 585.1,599 585.4,599.2 585.6,599.2 585.9,599.2 586,599.3 586.1,599.3 586.3,599.3 
	586.4,599.5 586.4,599.5 586.6,599.5 586.6,599.5 586.7,599.6 586.7,599.6 586.9,599.6 586.9,599.6 587,599.8 587,599.8 587,599.8 
	587.2,599.8 587.2,599.9 587.3,599.9 587.3,599.9 587.3,599.9 587.5,600.1 587.5,600.1 587.5,600.1 587.5,600.2 587.6,600.2 
	587.6,600.2 587.6,600.2 587.6,600.4 587.6,600.4 587.6,600.4 587.8,600.4 587.8,600.4 587.8,600.4 587.8,600.5 587.8,600.5 
	587.8,600.5 587.8,600.5 587.8,600.5 587.8,600.5 587.8,600.5 587.8,600.7 587.8,600.7 587.8,600.7 587.8,600.7 587.9,600.7 
	587.9,600.7 587.9,600.8 587.9,600.8 587.9,600.8 587.9,600.8 587.9,600.8 587.9,600.8 587.9,600.8 587.9,600.9 587.9,600.9 
	587.9,600.9 587.9,600.9 587.9,600.9 587.9,600.9 587.9,601.1 587.9,601.1 587.9,601.1 587.9,601.1 587.9,601.1 587.9,601.1 
	587.9,601.2 587.9,601.2 587.9,601.2 587.9,601.2 587.9,601.2 587.9,601.2 587.8,601.2 587.8,601.4 587.8,601.4 587.8,601.4 
	587.8,601.4 587.8,601.4 587.8,601.4 587.8,601.5 587.8,601.5 587.8,601.5 587.8,601.5 587.8,601.5 587.8,601.5 587.8,601.5 
	587.6,601.7 587.6,601.7 587.6,601.7 587.6,601.7 587.6,601.7 587.6,601.8 587.5,601.8 587.5,601.8 587.5,601.8 587.5,602 
	587.3,602 587.3,602 587.3,602 587.2,602.1 587.2,602.1 587,602.1 587,602.1 587,602.3 586.9,602.3 586.9,602.3 586.7,602.3 
	586.7,602.4 586.6,602.4 586.6,602.4 586.4,602.4 586.4,602.4 586.3,602.6 586.3,602.6 586.1,602.6 586,602.7 585.7,602.7 
	585.6,602.7 585.4,602.7 585.1,602.8 585,602.8 584.7,602.8 584.5,602.8 584.2,602.8 583.9,602.8 567.5,603 551,603.1 534.4,603.3 
	517.9,603.3 501.3,603.4 484.9,603.4 468.3,603.6 451.8,603.6 435.5,603.7 419.1,603.7 386.4,603.9 353.9,603.9 321.2,603.9 
	260.7,604 232.6,604 204.5,604 191.7,604 178.8,604.2 166.1,604.2 153.3,604.2 141.2,604.3 128.9,604.3 104.5,604.5 50.5,604.9 
	26.7,605 2.8,605.2 2.8,605.2 2.7,605.2 2.7,605.2 2.6,605.2 2.6,605.2 2.4,605 2.4,605 2.3,605 2.3,605 2.1,605 2.1,605 2,605 
	2,605 1.8,605 1.8,605 1.8,604.9 1.7,604.9 1.7,604.9 1.7,604.9 1.5,604.9 1.5,604.9 1.4,604.8 1.4,604.8 1.4,604.8 1.2,604.8 
	1.2,604.8 1.2,604.6 1.1,604.6 1.1,604.6 1.1,604.6 1.1,604.6 0.9,604.5 0.9,604.5 0.9,604.5 0.9,604.5 0.8,604.3 0.8,604.3 
	0.8,604.3 0.8,604.3 0.8,604.2 0.6,604.2 0.6,604.2 0.6,604 0.6,604 0.6,604 0.6,604 0.5,603.9 0.5,603.9 0.5,603.9 0.5,603.7 
	0.5,603.7 0.5,603.7 0.5,603.7 0.5,603.6 0.5,603.6 0.5,603.6 0.5,603.4 0.4,603.4 0.4,603.4 0.4,603.3 0.4,603.3 0.4,603.3 
	0.4,603.1 0.4,603.1 0.4,603.1 0.4,603 0.4,603 0.5,603 0.5,603 0.5,602.8 0.5,602.8 0.5,602.8 0.5,602.7 0.5,602.7 0.5,602.7 
	0.5,602.6 0.5,602.6 0.5,602.6 0.6,602.4 0.6,602.4 0.6,602.4 0.6,602.4 0.6,602.3 0.6,602.3 0.8,602.3 0.8,602.1 0.8,602.1 
	0.8,602.1 0.9,602.1 0.9,602 0.9,602 0.9,602 1.1,602 1.1,601.8 1.1,601.8 1.1,601.8 1.2,601.8 1.2,601.7 1.2,601.7 1.4,601.7 
	1.4,601.7 1.4,601.7 1.5,601.5 1.5,601.5 1.5,601.5 1.7,601.5 1.7,601.5 1.8,601.5 1.8,601.4 1.8,601.4 2,601.4 2,601.4 2.1,601.4 
	2.1,601.4 2.3,601.4 2.3,601.4 2.4,601.2 2.4,601.2 2.6,601.2 2.6,601.2 2.7,601.2 2.7,601.2 2.8,601.2 2.8,601.2 3,601.2 "/>
<polyline class="st0" points="3.1,601.2 29.1,601.1 52.7,600.9 113.6,600.5 132.4,600.4 150.8,600.4 169.9,600.2 190.8,600.2 
	213,600.1 235.8,600.1 259.4,600.1 334.7,599.9 360.9,599.9 387.6,599.9 414.9,599.8 442.3,599.8 456.2,599.8 470.1,599.6 
	484.2,599.6 498.2,599.5 512.3,599.5 526.5,599.3 540.6,599.3 554.8,599.2 569,599 583.2,598.9 583.5,598.9 583.8,598.9 583.9,599 
	584.2,599 584.5,599 584.7,599 585,599 585.1,599 585.4,599.2 585.6,599.2 585.9,599.2 586,599.3 586.1,599.3 586.3,599.3 
	586.4,599.5 586.4,599.5 586.6,599.5 586.6,599.5 586.7,599.6 586.7,599.6 586.9,599.6 586.9,599.6 587,599.8 587,599.8 587,599.8 
	587.2,599.8 587.2,599.9 587.3,599.9 587.3,599.9 587.3,599.9 587.5,600.1 587.5,600.1 587.5,600.1 587.5,600.2 587.6,600.2 
	587.6,600.2 587.6,600.2 587.6,600.4 587.6,600.4 587.6,600.4 587.8,600.4 587.8,600.4 587.8,600.4 587.8,600.5 587.8,600.5 
	587.8,600.5 587.8,600.5 587.8,600.5 587.8,600.5 587.8,600.5 587.8,600.7 587.8,600.7 587.8,600.7 587.8,600.7 587.9,600.7 
	587.9,600.7 587.9,600.8 587.9,600.8 587.9,600.8 587.9,600.8 587.9,600.8 587.9,600.8 587.9,600.8 587.9,600.9 587.9,600.9 
	587.9,600.9 587.9,600.9 587.9,600.9 587.9,600.9 587.9,601.1 587.9,601.1 587.9,601.1 587.9,601.1 587.9,601.1 587.9,601.1 
	587.9,601.2 587.9,601.2 587.9,601.2 587.9,601.2 587.9,601.2 587.9,601.2 587.8,601.2 587.8,601.4 587.8,601.4 587.8,601.4 
	587.8,601.4 587.8,601.4 587.8,601.4 587.8,601.5 587.8,601.5 587.8,601.5 587.8,601.5 587.8,601.5 587.8,601.5 587.8,601.5 
	587.6,601.7 587.6,601.7 587.6,601.7 587.6,601.7 587.6,601.7 587.6,601.8 587.5,601.8 587.5,601.8 587.5,601.8 587.5,602 
	587.3,602 587.3,602 587.3,602 587.2,602.1 587.2,602.1 587,602.1 587,602.1 587,602.3 586.9,602.3 586.9,602.3 586.7,602.3 
	586.7,602.4 586.6,602.4 586.6,602.4 586.4,602.4 586.4,602.4 586.3,602.6 586.3,602.6 586.1,602.6 586,602.7 585.7,602.7 
	585.6,602.7 585.4,602.7 585.1,602.8 585,602.8 584.7,602.8 584.5,602.8 584.2,602.8 583.9,602.8 567.5,603 551,603.1 534.4,603.3 
	517.9,603.3 501.3,603.4 484.9,603.4 468.3,603.6 451.8,603.6 435.5,603.7 419.1,603.7 386.4,603.9 353.9,603.9 321.2,603.9 
	260.7,604 232.6,604 204.5,604 191.7,604 178.8,604.2 166.1,604.2 153.3,604.2 141.2,604.3 128.9,604.3 104.5,604.5 50.5,604.9 
	26.7,605 3,605.2 2.8,605.2 2.8,605.2 2.7,605.2 2.7,605.2 2.6,605.2 2.6,605.2 2.4,605 2.4,605 2.3,605 2.3,605 2.1,605 2.1,605 
	2,605 2,605 1.8,605 1.8,605 1.8,604.9 1.7,604.9 1.7,604.9 1.7,604.9 1.5,604.9 1.5,604.9 1.4,604.8 1.4,604.8 1.4,604.8 
	1.2,604.8 1.2,604.8 1.2,604.6 1.1,604.6 1.1,604.6 1.1,604.6 1.1,604.6 0.9,604.5 0.9,604.5 0.9,604.5 0.9,604.5 0.8,604.3 
	0.8,604.3 0.8,604.3 0.8,604.3 0.8,604.2 0.6,604.2 0.6,604.2 0.6,604 0.6,604 0.6,604 0.6,604 0.5,603.9 0.5,603.9 0.5,603.9 
	0.5,603.7 0.5,603.7 0.5,603.7 0.5,603.7 0.5,603.6 0.5,603.6 0.5,603.6 0.5,603.4 0.4,603.4 0.4,603.4 0.4,603.3 0.4,603.3 
	0.4,603.3 0.4,603.1 0.4,603.1 0.4,603.1 0.4,603 0.4,603 0.5,603 0.5,603 0.5,602.8 0.5,602.8 0.5,602.8 0.5,602.7 0.5,602.7 
	0.5,602.7 0.5,602.6 0.5,602.6 0.5,602.6 0.6,602.4 0.6,602.4 0.6,602.4 0.6,602.4 0.6,602.3 0.6,602.3 0.8,602.3 0.8,602.1 
	0.8,602.1 0.8,602.1 0.9,602.1 0.9,602 0.9,602 0.9,602 1.1,602 1.1,601.8 1.1,601.8 1.1,601.8 1.2,601.8 1.2,601.7 1.2,601.7 
	1.4,601.7 1.4,601.7 1.4,601.7 1.5,601.5 1.5,601.5 1.5,601.5 1.7,601.5 1.7,601.5 1.8,601.5 1.8,601.4 1.8,601.4 2,601.4 2,601.4 
	2.1,601.4 2.1,601.4 2.3,601.4 2.3,601.4 2.4,601.2 2.4,601.2 2.6,601.2 2.6,601.2 2.7,601.2 2.7,601.2 2.8,601.2 2.8,601.2 
	3,601.2 3.1,601.2 "/>
</svg>
