<?xml version="1.0" encoding="utf-8"?>
<!-- Generator: Adobe Illustrator 21.1.0, SVG Export Plug-In . SVG Version: 6.00 Build 0)  -->
<svg version="1.1" id="Слой_1" xmlns="http://www.w3.org/2000/svg" xmlns:xlink="http://www.w3.org/1999/xlink" x="0px" y="0px"
	 viewBox="0 0 1099.3 629.6" style="enable-background:new 0 0 1099.3 629.6;" xml:space="preserve">
<style type="text/css">
	.st0{fill-rule:evenodd;clip-rule:evenodd;fill:#FFFFFF;}
	.st1{fill-rule:evenodd;clip-rule:evenodd;fill:#ED6720;}
	.st2{fill:none;stroke:#FFFFFF;stroke-width:0.7087;stroke-linecap:round;stroke-linejoin:round;stroke-miterlimit:10;}
</style>
<g id="HATCH_316_">
	<polygon class="st0" points="154.3,429.1 152.8,429.9 151.3,430.8 149.8,431.6 148.2,432.5 146.9,433.2 145.6,433.8 144.3,434.5 
		143,435.2 141.6,435.8 140.3,436.5 139,437.1 137.6,437.7 136.3,438.3 135,438.9 133.6,439.5 132.3,440 131,440.6 129.6,441.1 
		128.3,441.6 126.9,442.1 125.6,442.6 124.3,443 122.9,443.5 121.6,443.9 120.3,444.3 118.9,444.6 117.6,445 116.2,445.3 
		114.9,445.6 113.6,445.9 112.2,446.2 110.9,446.5 109.6,446.7 108.2,446.9 106.9,447.1 105.5,447.2 104.2,447.4 102.9,447.5 
		101.5,447.6 100.2,447.6 98.9,447.7 97.6,447.7 96.2,447.6 94.9,447.6 93.9,447.6 92.8,447.5 91.8,447.4 90.8,447.3 89.8,447.2 
		88.7,447.1 87.7,446.9 86.7,446.8 85.7,446.6 84.6,446.4 83.6,446.1 82.5,445.9 81.5,445.6 80.5,445.4 79.4,445.1 78.4,444.8 
		77.6,442.6 76.8,440.5 76,438.4 75.2,436.3 74.3,434.1 73.4,431.8 69.7,423 67.9,418.6 66.9,416 65.9,413.5 64.9,410.9 64,408.3 
		63.5,407 63,405.7 62.6,404.4 62.2,403 61.7,401.6 61.3,400.1 60.8,398.6 60.4,397.1 60,395.6 59.5,394.1 59.1,392.6 58.8,391 
		58,388 57.3,384.9 56.4,381.1 55.6,377.4 54.8,373.6 54,369.8 53.1,365.3 50.5,351.9 49.6,347.4 48.6,342.9 47.7,338.6 46.8,334.2 
		43.9,321.6 43,317.4 42.1,313.2 41.3,309.1 40.8,306.9 40.4,304.8 40,302.6 39.6,300.5 39.2,298.2 38.8,295.9 38.1,291.4 
		37.3,286.8 36.6,282.3 33.7,263 32,251.8 31.6,249 31.2,246.2 30.8,243.4 30.4,240.6 30,237.2 29.6,233.9 29.3,230.6 28.9,227.3 
		28.7,224.6 28.5,221.9 28.2,219.2 28,216.5 27.6,211.1 26.9,200.7 26.6,195.8 26.2,190.9 26,188.4 25.7,185.9 27.2,185.3 
		29.7,186.3 32.2,187.3 34.6,188.4 37.1,189.3 38.4,189.8 39.6,190.3 40.9,190.7 42.1,191.2 43.4,191.6 44.6,192 45.9,192.4 
		47.2,192.8 48.9,193.3 50.6,193.8 52.3,194.2 54,194.6 55.8,195 57.5,195.4 59.3,195.7 61,196.1 62.8,196.4 64.5,196.7 66.3,197 
		68.1,197.2 71.6,197.8 75.1,198.3 82.2,199.3 85.8,199.8 89.3,200.3 91.1,200.6 92.9,200.9 94.6,201.2 96.4,201.5 98.1,201.9 
		99.9,202.2 101.6,202.6 103.4,203 104.7,203.4 106.1,203.7 106.5,206.9 106.8,210.1 107.2,213.3 107.7,216.4 108.1,219.6 
		108.6,222.7 109.2,225.9 109.7,229 110.3,232.2 110.9,235.3 111.5,238.5 112.2,241.6 112.8,244.7 113.5,247.9 114.2,251 
		114.9,254.1 116.1,259.1 117.3,264.1 118.5,269.1 119.1,271.6 119.6,274.1 120.2,276.6 120.7,279.1 121.2,281.6 121.7,284.1 
		122.2,286.6 122.6,289.2 123,291.7 123.3,294.2 123.5,295.7 123.7,297.3 123.9,298.8 124,300.4 124.2,301.9 124.3,303.4 
		124.6,306.5 124.8,309.6 125,312.7 125.1,315.8 125.6,325.1 125.8,328.2 125.9,331.3 126.1,334.4 126.4,337.5 126.5,339.1 
		126.7,340.6 126.8,342.2 127,343.7 127.2,345.9 127.5,348.1 127.8,350.3 128.1,352.5 128.5,354.7 128.8,356.9 129.2,359 
		129.6,361.2 130,363.4 130.5,365.6 130.9,367.8 131.4,369.9 132.3,374.3 133.2,378.6 136.2,391.7 137.1,396 138,400.3 138.5,402.5 
		138.9,404.7 139.3,406.9 139.7,409.1 140.1,411.2 140.5,413.4 141.3,414.5 142,415.7 142.8,416.7 143.7,417.8 144.5,418.9 
		145.3,419.9 146.2,420.9 147,421.9 147.9,422.8 148.8,423.8 149.7,424.7 150.6,425.6 151.5,426.5 152.4,427.4 153.4,428.2 	"/>
</g>
<g id="HATCH_317_">
	<polygon class="st0" points="915.9,171.9 917,170.8 918,169.8 919.1,168.7 920.3,167.7 921.4,166.7 922.6,165.7 923.8,164.7 
		925,163.8 926.3,162.9 927.5,162 928.8,161.1 930.1,160.3 931.5,159.4 932.9,158.7 934.2,157.9 935.7,157.2 936.5,156.7 
		937.3,156.3 938.2,156 939,155.6 939.9,155.2 940.7,154.9 941.6,154.5 942.5,154.2 943.3,153.9 944.2,153.5 945.1,153.2 946,152.9 
		946.9,152.7 947.9,152.4 948.8,152.1 949.7,151.9 944,92.1 928.3,96.7 913.9,100.9 899,105.2 884.1,109.6 869.2,113.9 854.3,118.3 
		836.6,123.6 818.8,128.8 747.9,150 730.2,155.3 712.4,160.5 694.7,165.8 676.9,171 659.2,176.2 641.4,181.4 623.6,186.5 
		614.7,189.1 605.8,191.6 596.9,194.2 588,196.7 579.1,199.2 570.2,201.7 561.2,204.2 552.3,206.7 543.4,209.1 534.5,211.6 
		525.6,214 516.7,216.4 507.7,218.8 498.8,221.2 489.9,223.6 481,225.9 472,228.2 463.1,230.5 455.6,232.4 448.1,234.4 438.3,236.8 
		428.5,239.3 389,249.1 379,251.6 369.1,254.1 359.1,256.6 349.2,259.1 339.3,261.6 329.3,264.2 329.7,268.6 330,272 330.3,275 
		330.5,278.1 330.9,284.1 331.3,290.2 331.8,296.3 332.1,300.2 332.4,304.1 332.8,308.1 333.1,312 333.5,314.9 333.8,317.9 
		334.2,321 334.6,324.1 335.2,328.6 335.9,333.2 337.3,342.2 338.4,349.4 340.3,361.9 340.9,366 341.5,370.2 342.2,374.3 
		342.9,378.4 343.3,380.4 343.6,382.5 344,384.4 344.4,386.3 345.1,390.1 345.9,393.9 346.7,397.7 347.6,401.5 350.1,412.9 
		351,416.8 351.8,420.6 352.6,424.7 353.5,428.7 354.3,432.8 357.5,448.9 358.3,452.9 359,456.2 359.7,459.6 360.4,462.9 
		361.2,466.2 361.8,469 362.5,471.7 363.2,474.5 364,477.2 364.7,479.7 365.4,482.1 366.2,484.6 366.6,485.8 367,487 367.5,488.4 
		368,489.9 368.6,491.4 369.1,492.8 370,495.1 370.9,497.4 371.8,499.7 372.8,502 376.7,511.4 378,514.6 379.3,517.8 381.4,516.7 
		383.6,515.6 385.8,514.5 387.9,513.5 390.1,512.4 392.3,511.4 394.5,510.4 396.7,509.4 399,508.4 401.2,507.4 403.4,506.5 
		405.6,505.5 407.9,504.6 410.1,503.7 412.4,502.8 414.6,501.9 417,501 419.3,500.1 421.7,499.2 424,498.3 426.4,497.5 428.7,496.6 
		431.1,495.8 433.5,494.9 435.9,494.1 438.2,493.3 440.6,492.5 443,491.7 447.8,490.2 452.6,488.6 455.5,487.7 458.5,486.8 
		461.4,485.9 464.4,485.1 467.4,484.2 470.3,483.3 473.3,482.5 476.3,481.7 479.3,480.8 482.2,480 488.2,478.4 494.2,476.9 
		500.2,475.3 506.3,473.8 512.4,472.3 518.5,470.8 524.7,469.3 530.8,467.9 537,466.5 543.1,465.1 549.3,463.7 561.6,460.9 
		586.3,455.4 598.7,452.6 604.8,451.2 610.9,449.9 616.9,448.5 623,447 629.1,445.6 635.2,444.2 641.2,442.7 647.3,441.2 
		653.1,439.7 659,438.2 664.8,436.6 670.6,435.1 673.5,434.3 676.4,433.4 679.3,432.6 682.2,431.8 685.1,430.9 688,430.1 
		690.9,429.2 693.7,428.3 696.5,427.5 699.3,426.6 702,425.7 704.8,424.8 707.6,423.9 710.3,423 713.1,422.1 715.8,421.1 
		718.5,420.2 721.1,419.2 723.7,418.3 726.4,417.3 729,416.3 731.6,415.3 734.2,414.2 736.9,413.2 739.5,412.1 742.2,411 
		744.8,409.8 747.5,408.7 750.1,407.6 752.6,406.4 755.2,405.2 757.7,404 760.2,402.8 762.7,401.6 765.2,400.3 767.6,399 
		770.1,397.8 772.5,396.5 774.8,395.1 777.2,393.8 778.8,392.9 780.4,391.9 782.1,390.9 783.7,389.9 785.3,389 786.9,388 
		788.4,386.9 790,385.9 791.5,384.9 793.1,383.9 794.6,382.8 796.1,381.8 797.6,380.7 799,379.6 800.5,378.5 801.9,377.4 
		803.4,376.3 804.8,375.2 806.2,374.1 807.6,373 808.9,371.8 810.3,370.7 811.6,369.5 813,368.3 814.3,367.1 815.6,365.9 
		816.9,364.7 818.1,363.5 819.4,362.3 820.6,361 821.8,359.8 823,358.5 823.9,357.6 824.8,356.6 825.7,355.6 826.5,354.7 
		827.4,353.7 828.2,352.7 829.1,351.7 829.9,350.7 830.7,349.7 831.5,348.7 833.1,346.7 834.7,344.6 836.2,342.6 837.1,341.4 
		837.9,340.2 838.7,339.1 839.5,337.9 840.3,336.7 841.1,335.5 841.9,334.3 842.7,333.1 843.5,331.9 844.2,330.7 845.7,328.3 
		847.2,325.8 848.6,323.3 850,320.8 851.4,318.1 852.8,315.5 854.2,312.9 855.2,310.8 856.3,308.6 857.3,306.5 858.3,304.3 
		859.6,301.4 860.9,298.5 862.2,295.6 863.4,292.7 864.7,289.6 865.9,286.5 867.2,283.4 868.4,280.2 869.6,277.1 870.7,274 
		871.9,270.8 873,267.7 874.2,264.3 875.3,261 876.4,257.7 877.6,254.3 879.2,249.3 882.9,237.8 884,234.5 885,231.3 886.1,228 
		887.2,224.8 888.4,221.6 889.5,218.3 890.3,216.2 891.1,214.2 891.9,212.1 892.8,210 893.6,208 894.5,205.9 895.4,203.9 
		896.3,201.9 897.3,199.8 898.3,197.8 899.3,195.8 900.3,193.9 901.4,191.9 901.9,190.9 902.5,190 903.1,189 903.7,188 904.2,187.1 
		904.8,186.2 905.5,185.2 906.1,184.3 906.7,183.3 907.4,182.4 908,181.5 908.7,180.6 909.3,179.7 910,178.8 910.7,177.9 911.4,177 
		912.1,176.1 912.9,175.3 913.6,174.4 914.4,173.6 915.1,172.7 	"/>
</g>
<g id="HATCH_318_">
	<polygon class="st1" points="341.6,431.2 339.7,430.6 338.2,430.1 336.6,429.6 335.1,429.1 333.5,428.6 331,427.9 328.4,427.2 
		325.8,426.5 323.2,425.9 321.3,425.4 319.4,425 315.5,424.1 307.2,422.3 304.5,421.7 303.1,421.4 301.7,421 300.4,420.7 
		299.1,420.4 297.6,420 296,419.5 294.5,419.1 293,418.6 290.5,417.8 288,416.9 284,415.6 275.8,412.7 271.6,411.1 269.2,410.3 
		266.9,409.6 264.6,408.8 262.2,408 260.1,407.3 257.9,406.6 253.6,405.3 249.2,403.9 244.9,402.6 228.6,397.9 224.3,396.6 
		222.2,395.9 220.1,395.3 217.6,394.5 215,393.6 213.4,393.1 211.7,392.5 210,391.9 208.4,391.2 207.3,390.8 206.2,390.3 
		205.1,389.9 204.1,389.4 203.2,389 202.3,388.6 201.4,388.1 200.5,387.7 199.6,387.1 198.6,386.6 197.7,386 196.8,385.4 196,381.9 
		195.2,378.3 192.1,364.4 191.4,361 190.7,357.6 189.9,353.7 189.5,351.8 189.1,349.8 188.8,347.8 188.4,345.9 188.1,343.9 
		187.8,342 187.5,339.5 187.3,338.3 187.2,337.1 187,335.8 186.9,334.5 186.7,331.9 186.5,328.9 186.3,325.8 186.1,322.8 
		185.7,314.2 185.4,308.6 185.3,306.3 185.1,304 184.9,301.7 184.8,299.3 184.6,297 184.4,294.7 184.1,292.4 183.9,290.1 
		183.6,287.8 183.3,285.5 183,283.3 182.6,281 182.3,278.7 181.9,276.5 181.5,274.2 181,271.9 180.5,269.2 179.9,266.4 179.4,263.7 
		178.7,260.9 178,257.5 177.2,254.1 174.7,243.6 173.8,239.9 173,236.1 172.1,232.4 171.6,229.8 171,227.1 173.9,228 176.9,228.9 
		179.8,229.7 182.8,230.5 185.7,231.3 188.7,232 191.6,232.8 194.6,233.5 197.6,234.2 200.5,235 206.5,236.4 218.4,239.1 
		239.7,244.1 246.8,245.8 253.9,247.4 257.5,248.2 261,249 264.6,249.8 268.1,250.5 271.7,251.3 275.3,252 280.4,253 285.6,254 
		301.2,256.9 306.4,257.9 311.5,259 314.1,259.5 316.7,260.1 317.1,263.7 317.4,267.2 317.8,270.8 318.1,274.4 318.3,278 
		318.6,281.6 319.6,296.1 319.9,299.7 320.2,303.3 320.5,306.9 320.8,310.5 321.2,314 321.6,317.6 321.8,319.5 322,321.4 
		322.5,325.2 323.1,329 323.6,332.8 324.8,340.3 325.9,347.9 328.9,367.8 329.7,372.8 330.1,375.3 330.5,377.7 330.9,380.2 
		331.4,382.7 331.8,385.2 332.3,387.7 332.7,389.9 333.2,392.2 333.6,394.5 334.1,396.8 335.1,401.3 336.1,405.9 338.1,414.9 
		339.2,419.5 340.1,424 340.9,427.6 	"/>
</g>
<g id="POLYLINE_532_">
	<path class="st2" d="M948.6,465.5c-27.4,8.1-54.8,16.2-82.1,24.3c0,0-2.3,0.7-2.3,0.7l-2.3,0.7l-2.3,0.6l-2.3,0.6L855,493l-2.3,0.6
		l-2.3,0.6l-2.3,0.6l-1.9,0.5l-2,0.5l-2,0.4l-2,0.4l-1.7,0.4l-1.7,0.3l-1.7,0.3l-1.7,0.3l-1.9,0.3l-1.9,0.3l-1.9,0.3l-1.9,0.2
		l-1.3,0.1l-1.3,0.1l-1.3,0.1l-1.3,0.1l-1.1,0.1l-1.1,0l-1.1,0l-1.1,0l-0.9,0l-0.9,0l-0.9,0l-0.9-0.1l-0.7-0.1l-0.7-0.1l-0.7-0.1
		l-0.7-0.1l-0.5-0.1l-0.5-0.1l-0.5-0.1l-0.5-0.1l-0.4-0.1l-0.4-0.1l-0.3-0.1l-0.2-0.1l-0.2-0.1l-0.2-0.1l-0.2-0.1l-0.1-0.1l-0.1-0.1
		l-0.1-0.1l-0.1-0.1l-0.1-0.1l-0.1,0l-0.1,0l-0.1,0l-0.1,0l-0.1,0l-0.1,0l-0.1-0.1l0,0l0,0l0,0l0,0l0,0l0,0l0,0l0,0l0,0l0,0l0,0l0,0
		l0,0l0,0l0,0l0,0l0,0l0,0l0-0.1l0-0.1l-0.1-0.1l-0.1-0.1l0-0.1l0-0.1l0-0.1l0-0.1l-0.1-0.3l-8.2-84.9l1.5-0.9l1.5-0.9l1.4-0.9
		l1.4-0.9l1.4-0.9l1.4-0.9l1.4-1l1.4-1l1.4-1l1.4-1l1.4-1l1.4-1l1.4-1l1.4-1l1.3-1l1.3-1l1.3-1l1.3-1.1l1.3-1.1l1.3-1.1l1.3-1.1
		l1.3-1.1l1.3-1.1l1.3-1.1l1.2-1.1l1.2-1.1l1.2-1.1l1.2-1.1l1.2-1.2l1.2-1.2l1.2-1.2l1.2-1.2c34.8-10.4,69.7-20.8,104.6-31
		c0,0,9.6-2.8,9.6-2.8L937.3,185c2.8-2.4,5.9-4.5,9.3-6.2l0.9-0.5l1-0.4l1-0.4l1-0.4l1-0.4l1-0.4l1.1-0.3l1.1-0.3l1.1-0.3l1.1-0.3
		l1.1-0.3l1.2-0.2l1.2-0.2l1.2-0.2l1.3-0.2l1.3-0.1l11.9-1.3l-9.7-100.6l-8-2.2L956,69l-2.4-0.6l-2.2-0.6l-2.2-0.6l-3-0.8l-3.1-0.7
		l-3-0.7l-3-0.7l-3-0.6l-3-0.6l-3-0.6l-3-0.6l-6-1.2l-17.6-3.3l-2.9-0.6l-2.9-0.6l-2.9-0.6l-2.8-0.6l-2.8-0.6l-2.8-0.6l-5.7-1.2
		l-5.7-1.3l-5.7-1.3l-5.7-1.3l-23-5.4l-12-2.8l-6-1.4l-6-1.4l-3-0.7l-3-0.7l-3-0.8l-3-0.8l-2.9-0.8l-2.9-0.8l-2.9-0.8l-2.9-0.9
		l-2.9-0.9l-2.9-0.9l-2.9-0.9l-2.8-1l-2.8-1l-2.8-1.1l-2.8-1.1l-2.8-1.1l-4.9-2l-9.8-4l-2.5-1l-2.5-1l-2.9-1.1l-2.9-1.1l-2.9-1.1
		l-1.5-0.5l-1.5-0.5l-1.5-0.5l-1.5-0.5l-1.5-0.5L731,9.4L729.5,9l-1.5-0.4l-1.5-0.4l-1.5-0.4l-2.1-0.5l-2.1-0.5l-2.1-0.5l-2.2-0.4
		l-2.2-0.4l-2.2-0.4l-2.2-0.4l-2.2-0.4l-3.3-0.5l-3.3-0.5l-9.3-1.3l-2.8-0.4l-2.8-0.4l-2.8-0.4l-4-0.6l-3.6,1.8l-1.9,1l-1.9,1
		l-1.9,0.9l-1.9,0.9l-1.9,0.9l-1.9,0.9l-1.9,0.9l-1.9,0.9l-3.8,1.8l-3.9,1.7l-3.9,1.7l-3.9,1.7l-3.9,1.6l-3.9,1.6l-3.9,1.6l-3.9,1.5
		l-4,1.5l-4,1.5l-4,1.4l-4,1.4l-2.7,0.9l-2.7,0.9l-2.7,0.9l-2.7,0.9l-2.7,0.8l-2.7,0.8l-2.7,0.8l-2.7,0.8l-2.6,0.7l-2.6,0.7
		l-2.6,0.7l-2.6,0.7l-2.6,0.6l-2.6,0.6l-2.6,0.6l-2.6,0.5l-1.6,0.3l-1.6,0.3l-3.1,0.6l-3.1,0.5l-3.1,0.5l-3.7,0.6l-3.7,0.5
		l-15.4,2.2l-4,0.6l-3.9,0.6l-3.4,0.5l-3.4,0.6l-3.7,0.7l-3.7,0.7l-4,0.8l-4,0.8L491.1,54l-3.4,0.7l-3.4,0.7l-3.5,0.6l-3.5,0.6
		l-1.7,0.3l-1.7,0.3l-1.7,0.3l-1.7,0.3l-1.7,0.2l-1.7,0.2l-1.7,0.2l-1.7,0.2l-1.6,0.2l-1.6,0.2l-1.6,0.1l-1.6,0.1l-1.9,0.1l-1.9,0.1
		l-3.9,0.3l-4.2,0.2l-8.5,0.5l-4.2,0.3l-3.6,0.3l-1.8,0.1l-1.8,0.2l-1.8,0.2l-1.8,0.2l-1.8,0.2L418,62l-1.8,0.2l-1.8,0.3l-1.8,0.3
		l-1.8,0.3l-1.9,0.3l-1.9,0.4l-1.9,0.4l-1.9,0.4l-1.9,0.4l-1.9,0.4l-1.9,0.4l-1.9,0.5l-1.8,0.5l-1.8,0.5l-1.8,0.5l-1.8,0.5l-1.8,0.5
		l-1.8,0.5l-3.6,1.1l-4.2,1.3l-4.2,1.4l-8.5,2.7l-4.7,1.5l-2.4,0.7l-2.4,0.7l-2.6,0.8l-2.6,0.8l-2.6,0.7l-2.6,0.7l-4.1,1.1l-4.1,1.1
		l-16.7,4.3l-4.3,1.1l-4.3,1.2l-3.6,1l-3.6,1l-3.6,1l-3.6,1.1l-6.4,1.9l-12.8,3.9l-6.4,1.9l-3.6,1.1l-3.6,1l-3.6,1l-3.6,1l-3.4,0.9
		l-3.4,0.9l-3,0.7l-3,0.7l-3.7,0.9l-3.7,0.8l-3.7,0.8l-3.7,0.8l-10.8,2.3l-5.4,1.2l-5.4,1.2l-3.3,0.8l-3.3,0.8l-3.3,0.8l-3.3,0.8
		l-3.3,0.8l-3.3,0.9l-3.3,0.9l-3.3,0.9l-3.3,0.9l-3.3,1l-3.3,1l-3.3,1l-3.3,1l-3.3,1l-3.3,1.1l-3.3,1.1l-3.1,1.1l-3.1,1.1l-4.2,1.5
		l-9.8,3.6l-2.8,1l-2.8,1l-2.7,0.9l-2.7,0.9l-2.8,0.9l-1.4,0.4l-1.4,0.4l-1.3,0.4l-1.3,0.4l-1.3,0.4l-1.3,0.3l-1.3,0.3l-1.4,0.3
		l-1.4,0.3l-1.4,0.3l-1.4,0.3l-1.4,0.3l-1.4,0.3l-1.4,0.2l-1.4,0.2l-1.4,0.2l-1.4,0.2l-1.4,0.2l-1.5,0.2l-1.5,0.2l-3,0.3l-3,0.3
		l-3,0.3l-4.2,0.3l-8.5,0.6l-4.2,0.3l-3.4,0.3l-3.4,0.3l-3.3,0.3l-1.6,0.2l-1.6,0.2l-1.6,0.2l-1.6,0.2l-1.6,0.2l-1.6,0.3l-1.7,0.3
		l-1.7,0.3l-1.7,0.3l-1.7,0.3l-1.7,0.4l-1.7,0.4l-1.7,0.4l-1.7,0.4l-1.7,0.5l-1.7,0.5l-1.7,0.5l-1.7,0.5l-1.7,0.6l-1.7,0.6l-1.7,0.6
		l-1.6,0.7l-1.7,0.7l-1.7,0.8l-1.7,0.8l-1.7,0.8l-1.6,0.9L9.7,167l-1.6,0.9l-1.6,1l-6.5,4l0.8,7.6l0.2,2.1l0.2,2.1l0.4,4.1l0.4,4.1
		l0.3,4.1l0.5,7l0.5,7l0.5,7l0.3,3.5l0.3,3.5l0.3,3.6l0.3,3.6l0.4,3.6l0.4,3.6l0.3,2.5l0.3,2.5l0.3,2.5l0.3,2.5l0.7,4.9l0.7,4.9
		l2,12.9l2.2,14.5l0.8,4.9l0.8,4.9l0.4,2.4l0.4,2.4l0.4,2.4l0.4,2.4l0.5,2.4l0.5,2.4l0.5,2.3l0.5,2.3l1,4.5l1,4.4l3,13.3l1,4.4
		l0.9,4.4l0.9,4.6l0.9,4.6l2.8,14l0.9,4.7l1,4.8l1,4.7l0.8,3.5l0.8,3.5l0.8,3.5l0.4,1.7l0.4,1.7l0.5,1.7l0.5,1.7l0.5,1.7l0.5,1.7
		l0.5,1.8l0.5,1.7L39,410l0.6,1.7l0.5,1.5l0.5,1.5l0.5,1.5l0.5,1.5l0.6,1.6l0.6,1.6l1.3,3.2l1.3,3.2l1.3,3.2l3.5,8.4l1.7,4.2
		l0.8,2.1l0.8,2.1l1,2.6l1,2.6L56,454l0.5,1.3l0.4,1.3l0.4,1.3l1.8,5.5l5.3,2.1l0.9,0.4l0.9,0.3l0.9,0.3l0.9,0.3l0.9,0.3l0.9,0.3
		l0.9,0.3l0.9,0.3l0.9,0.3l0.9,0.3l0.9,0.3l0.9,0.2l0.9,0.2l0.9,0.2l0.9,0.2l0.9,0.2l1.8,0.4l1.8,0.3l1.8,0.3l1.8,0.2l1.8,0.2
		l1.8,0.2l1.8,0.1l1.8,0.1l1.8,0.1l1.8,0l1.8,0l1.8,0l1.8-0.1l1.8-0.1l1.8-0.1l1.8-0.2l1.7-0.2l1.7-0.2l1.7-0.3l1.7-0.3l1.7-0.3
		l1.7-0.3l1.7-0.4l1.7-0.4l1.7-0.4l1.7-0.4l1.7-0.5l1.7-0.5l1.6-0.5l1.6-0.5l1.6-0.6l1.6-0.6l1.6-0.6l1.6-0.6l1.6-0.6l1.6-0.6
		l1.6-0.7l1.6-0.7l1.6-0.7l1.5-0.7l2.2-1l2.2-1l2.2-1.1l2.1-1.1l2.1-1.1l2.1-1.1l2.1-1.2l2.1-1.2l1.4,0.7l1.4,0.7l1.4,0.7l1.4,0.7
		l1.4,0.7l1.4,0.7l1.4,0.6l1.4,0.6l1.6,0.7l1.6,0.7l1.6,0.6l1.6,0.6l1.6,0.6l1.6,0.6l1.6,0.6l1.6,0.6l1.9,0.7l1.9,0.6l1.9,0.6
		l1.9,0.6l1.9,0.6l1.9,0.6l3.9,1.2l4,1.2l14,4.1l4.9,1.4l4.9,1.5l2.4,0.7l2.4,0.8l2.4,0.8l2.4,0.8l2.4,0.8l2.4,0.8l4.8,1.7l5.3,1.9
		l5.3,1.9l3.2,1.1l3.2,1.1l1.6,0.5l1.6,0.5l1.6,0.5l1.6,0.5l1.4,0.4l1.4,0.4l1.4,0.4l1.4,0.4l1.5,0.4l1.5,0.4l2.9,0.7l2,0.5l2,0.5
		l8.6,1.9l2.3,0.5l2.3,0.5l2.6,0.6l2.6,0.6l1.3,0.3l1.3,0.4l1.3,0.4l1.3,0.4l1,0.3l1,0.3l1,0.3l1,0.3l1.3,0.5l1.3,0.5l1.9,0.7
		l5.8,2.2l1.8,0.6l1.8,0.6l1.5,0.5l1.5,0.5l1.5,0.5l1.5,0.5l1.6,0.4l1.6,0.4l0.8,0.2l0.8,0.2l0.8,0.2l0.8,0.2l1.3,0.2l1.3,0.2
		l1.3,0.2l1.3,0.1c1.6,3.8,3.1,7.6,4.7,11.4c0,0,0.9,2.3,0.9,2.3l0.9,2.3l0.9,2.3l0.9,2.3l0.9,2.3l0.8,2.3l0.8,2.2l0.7,2.2l4.6,14.3
		l13-7.5l2.3-1.3l2.3-1.3l2.3-1.2l2.3-1.2l2.3-1.2l2.3-1.2l2.3-1.2l2.3-1.1l2.4-1.2l2.4-1.1l2.5-1.1l2.5-1.1l2.5-1.1l2.5-1.1
		l2.5-1.1l2.5-1l2.6-1.1l2.6-1l2.6-1l2.6-1l2.6-1l2.6-1l2.6-1l2.6-0.9l2.7-1l2.7-0.9l2.7-0.9l2.7-0.9l2.7-0.9l2.8-0.9l2.8-0.9
		l2.8-0.9l2.8-0.9l2.8-0.9l2.8-0.9l2.8-0.8l2.9-0.8l2.9-0.8l2.9-0.8l2.9-0.8l5.9-1.6l5.9-1.6l5.9-1.5l5.9-1.5l6-1.5l6-1.5l6.1-1.5
		l6.1-1.4l6.1-1.4l6.1-1.4l6.1-1.4l6.1-1.4l12.4-2.8l24.7-5.5l12.4-2.8l6.2-1.4l6.2-1.4l6.2-1.4l6.1-1.4l6.1-1.5l6.1-1.5l6.1-1.5
		l6.1-1.5l5-1.3l5-1.3l5-1.3l5-1.3l5-1.4l5-1.4l4.9-1.4l4.9-1.4l4.8-1.4l4.8-1.5l4.8-1.5l4.8-1.5l2.4-0.8l2.4-0.8l2.4-0.8l2.4-0.8
		l2.4-0.8l2.4-0.8l2.4-0.8l2.4-0.9l5.9,61.6l0.1,1.4l0.2,1.4l0.2,1.4l0.2,1.4l0.2,1.4l0.2,1.4l0.2,1.4l0.3,1.4l0.3,1.3l0.3,1.3
		l0.3,1.3l0.3,1.3l0.3,1.3l0.3,1.3l0.4,1.2l0.4,1.2l0.4,1.1l0.4,1.1l0.4,1.1l0.4,1.1l0.4,1.1l0.4,1.1l0.5,1.1l0.5,1.1l0.5,1.1
		l0.5,1.1l0.5,1.1l0.5,1.1l0.6,1.1l0.6,1.1l0.6,1l0.6,1l0.6,1l0.6,0.9l0.6,0.9l0.6,0.9l0.6,0.9l0.7,0.9l0.7,0.9l0.7,0.9l0.7,0.8
		l0.7,0.8l0.7,0.8l0.7,0.8l0.7,0.8l0.7,0.8l0.8,0.8l0.8,0.8l0.8,0.7l0.8,0.7l0.8,0.7l0.8,0.7l0.8,0.7l0.8,0.7l0.8,0.7l0.8,0.6
		l0.8,0.6l0.8,0.6l0.8,0.6l0.8,0.6l0.9,0.6l0.9,0.6l0.9,0.5l0.9,0.5l0.9,0.5l0.9,0.5l0.9,0.5l0.9,0.5l0.9,0.4l0.9,0.4l0.9,0.4
		l0.9,0.4l0.9,0.4l0.9,0.4l0.9,0.4l0.9,0.4l0.9,0.4l0.9,0.3l0.9,0.3l0.9,0.3l0.9,0.3l0.9,0.3l0.9,0.3l0.9,0.3l0.9,0.3l0.9,0.2
		l0.9,0.2l0.9,0.2l0.9,0.2l0.9,0.2l0.9,0.2l0.9,0.2l0.9,0.2l0.9,0.2l0.9,0.1l1,0.1l1.1,0.1l1.1,0.1l1.1,0.1l1.1,0.1l1.1,0.1l1.1,0.1
		l1.1,0.1l1.1,0.1l1.1,0l1.1,0l1.1,0l1.1,0l1.1,0l1.1,0l1.1,0l1.1,0l1.8-0.1l1.8-0.1l1.8-0.1l1.8-0.2l1.8-0.2l1.8-0.2l1.8-0.2
		l1.8-0.3l1.7-0.3l1.7-0.3l1.7-0.3l1.7-0.4l1.6-0.4l1.6-0.4l1.6-0.4l1.6-0.5l104-30.8l0.5,2.3l0.5,2.3l0.6,2.3l0.6,2.3l0.6,2.3
		l0.6,2.3l0.7,2.3l0.7,2.3l0.8,2.4l0.8,2.4l0.8,2.4l0.8,2.4l0.7,2l0.7,2l0.8,2l0.8,2l0.7,1.8l0.7,1.8l0.8,1.8l0.8,1.8l0.8,1.8
		l0.8,1.8l0.8,1.8l0.8,1.8l1.1,2.2l1.1,2.2l0.6,1.1l0.6,1.1l0.6,1.1l0.6,1.1l0.9,1.6l0.9,1.6l1,1.6l1,1.5l1,1.5l1,1.4l0.5,0.7
		l0.5,0.7l0.5,0.7l0.5,0.7l0.9,1.1l1,1.1l0.5,0.5l0.5,0.5l0.5,0.5l0.5,0.5l0.8,0.7l0.8,0.7l0.8,0.7l0.8,0.7l0.8,0.6l0.8,0.6l0.8,0.6
		l0.8,0.6l0.9,0.5l0.9,0.5l0.9,0.5l0.9,0.5l0.9,0.4l0.9,0.4l0.9,0.4l0.9,0.3l0.8,0.3l0.9,0.3l0.9,0.3l0.9,0.3l0.8,0.2l0.8,0.2
		l0.8,0.2l0.8,0.2l1.4,0.3l1.4,0.2l1.4,0.2l1.4,0.2l1.6,0.2l1.6,0.1l2.4,0.2l2.4,0.2l1.3,0.1l1.3,0.1l1.3,0.2l1.3,0.2l2.4,0.4
		l2.3-0.6l1.7-0.4l1.7-0.5l1.7-0.5l1.7-0.5l1.7-0.6l0.8-0.3l0.8-0.3l0.8-0.3l0.8-0.3l0.8-0.3l0.8-0.3l1.5-0.7l1.5-0.7l1.5-0.8
		l1.5-0.8l1.5-0.8l1.5-0.9l1.4-0.9l1.4-0.9l1.3-0.9l1.3-1l1.3-1l1.3-1l1.3-1l1.2-1.1l1.2-1.1l1.2-1.1l1.1-1.1l1.1-1.1l1.1-1.2
		l1.1-1.2l1-1.2l1-1.2l1-1.2l1-1.3l0.9-1.3l0.9-1.3l0.9-1.3l0.9-1.3l0.8-1.3l0.8-1.3l0.8-1.3l0.8-1.4l0.6-1.1l0.6-1.1l0.6-1.1
		l0.6-1.1l0.5-1.1l0.5-1.1l0.5-1.1l0.5-1.1l0.5-1.1l0.5-1.1l0.5-1.1l0.5-1.1l0.5-1.1l0.4-1.1l0.4-1.1l0.4-1.1l0.5-1.5l0.5-1.5
		l0.5-1.5l0.5-1.5l0.5-1.5l0.4-1.5l0.4-1.5l0.4-1.5l0.4-1.5l0.4-1.5l0.4-1.5l0.4-1.5l0.4-1.5l0.3-1.5l0.3-1.5l0.3-1.5l0.6-3l0.6-3
		l0.5-3l0.5-3l0.5-3l0.4-3l0.4-3l0.4-3l0.4-3.1l0.3-3.1l0.3-3.4l0.3-3.4l0.3-3.4l0.3-3.4l0.2-3.4l0.1-1.7l0.1-1.7l0.1-1.7l0.1-1.7
		l0-1.7l0-1.7l0-1.7l0-1.7l0-1.7l0-1.7l0-1.7l0-1.7l-0.1-1.7l-0.1-1.7l-0.1-1.7l-0.1-1.7l-0.1-1.7l-0.1-1.7l-0.1-1.7l-0.2-1.7
		l-0.2-1.7l-0.2-1.7l-0.2-1.7l-0.2-1.7l-0.2-1.7l-0.3-1.7l-0.3-1.8l-0.3-1.8l-0.3-1.8l-0.3-1.8l-0.4-1.8l-0.4-1.8l-0.4-1.8l-0.4-1.8
		l-0.5-1.9l-0.5-1.9l-0.5-1.9l-0.5-1.9l-0.6-1.9l-0.6-1.9l-0.6-1.9l-0.6-1.9l-0.6-1.9l-0.7-1.8l-0.7-1.8l-0.7-1.8l-0.7-1.8l-0.7-1.8
		l-0.8-1.8l-0.8-1.8l-1-2.1l-1-2.1l-1-2.1l-1-2.1l-1.1-2.1l-0.6-1l-0.6-1l-0.6-1l-0.6-1l-0.6-1l-0.6-1l-1-1.6l-1-1.5l-1-1.5l-1-1.5
		l-1-1.4l-1.1-1.4l-1.1-1.4l-1.1-1.4l-1.1-1.3l-1.2-1.3l-0.6-0.6l-0.6-0.6l-0.6-0.6l-0.6-0.6l-0.6-0.6l-0.6-0.6l-0.6-0.6l-0.6-0.6
		l-0.6-0.6l-0.7-0.6l-0.7-0.6l-0.7-0.5l-0.7-0.5l-0.7-0.5l-0.7-0.5l-0.7-0.5l-0.7-0.5l-0.7-0.5l-0.7-0.5l-0.7-0.4l-0.7-0.4l-0.7-0.4
		l-0.7-0.4l-0.7-0.4l-0.7-0.4l-0.7-0.4l-0.8-0.4l-0.8-0.3l-0.7-0.3l-0.7-0.3l-0.7-0.3l-0.7-0.3l-0.7-0.3l-0.7-0.3l-0.7-0.2l-0.7-0.2
		l-0.7-0.2l-0.7-0.2l-0.7-0.2l-0.7-0.2l-1.5-0.4l-1.5-0.3l-1.4-0.3l-1.4-0.2l-1.4-0.2l-1.4-0.2l-1.4-0.1l-1.4-0.1l-1.4-0.1l-1.4-0.1
		l-1.3,0l-1.3,0l-1.3,0l-1.3,0l-1.3,0l-1.3,0.1l-1.3,0.1l-1.3,0.1l-1.5,0.1l-1.5,0.1l-2.9,0.2l-5.7,0.5l-2.9,0.3l-2.9,0.3l-1.5,0.2
		l-1.5,0.2l-1.5,0.2l-0.8,0.1l-0.8,0.1l-0.9,0.2l-0.9,0.2l-0.8,0.2l-0.8,0.2l-0.8,0.2l-0.8,0.2l-0.8,0.3l-0.8,0.3l-0.9,0.3l-0.9,0.4
		l-0.9,0.4l-0.9,0.4l-0.9,0.4l-0.9,0.5l-0.8,0.5l-0.8,0.5l-0.6,0.4l-0.6,0.4l-0.6,0.4l-0.6,0.4l-0.6,0.4l-0.5,0.5l-0.5,0.5l-0.5,0.5
		l-0.8,0.8l-0.8,0.8l-0.7,0.8l-0.7,0.9l-0.7,0.9l-0.7,0.9l-0.6,1l-0.6,1l-0.7,1.1l-0.6,1.1l-0.6,1.1l-0.6,1.2l-0.5,1.2l-0.5,1.2
		l-0.5,1.2l-0.5,1.2l-0.6,1.6l-0.5,1.6l-0.5,1.6l-0.5,1.6l-0.4,1.3l-0.4,1.3l-0.3,1.4l-0.3,1.4l-0.3,1.4l-0.3,1.4l-0.3,1.4l-0.3,1.4
		l-0.3,1.6l-0.3,1.6l-0.3,1.6l-0.3,1.6l-0.5,3.3l-0.5,3.3l-0.5,3.7l-0.5,3.7l-0.5,3.7l-0.5,3.7l-0.6,4.9l-0.6,4.9l-0.6,4.9l-0.6,4.9
		l-0.6,5L948.6,465.5"/>
</g>
<g id="POLYLINE_533_">
	<polyline class="st2" points="971.8,522.1 972.1,524.1 972.3,525.5 972.5,526.9 972.7,528.3 972.9,529.8 973.1,531.2 973.4,532.6 
		973.6,534 973.9,535.4 974.2,536.9 974.5,538.3 974.9,539.8 975.2,541.3 975.6,542.7 975.9,544.2 976.3,545.6 976.7,547.1 
		977.1,548.6 977.6,550.2 978.1,551.7 978.5,553.2 979,554.8 979.5,556.3 980,557.8 980.6,559.3 981.3,561.5 982.1,563.6 
		982.9,565.7 983.7,567.8 984.4,569.4 985,571 985.7,572.5 986.3,574.1 987,575.7 987.7,577.2 988.4,578.8 989.2,580.3 990.1,582.2 
		991.1,584.1 992.1,586 993.1,587.9 993.8,589.1 994.5,590.3 995.2,591.6 996,592.8 996.7,593.8 997.4,594.8 998.1,595.7 
		998.8,596.7 999.3,597.3 999.8,598 1000.4,598.6 1000.6,598.9 1000.9,599.1 1001.3,599.5 1001.6,599.8 1001.9,600.1 1002.3,600.4 
		1002.6,600.6 1002.9,600.9 1003.2,601.1 1003.5,601.3 1003.8,601.5 1004.1,601.6 1004.3,601.8 1004.6,602 1004.9,602.1 
		1005.2,602.3 1005.5,602.4 1005.8,602.5 1006.2,602.6 1006.5,602.7 1006.8,602.8 1007.1,602.9 1007.5,603 1007.8,603.1 
		1008.6,603.3 1009.2,603.4 1009.8,603.5 1010.7,603.7 1011.7,603.8 1012.8,603.9 1013.9,604 1019.7,604.5 1021.2,604.6 
		1022.6,604.8 1024,604.9 1025,604.7 1026,604.4 1027,604 1028,603.7 1029,603.3 1030,602.9 1030.9,602.5 1031.9,602.1 
		1032.9,601.7 1033.9,601.2 1034.8,600.7 1035.8,600.2 1036.7,599.7 1037.7,599.1 1038.6,598.5 1039.5,597.9 1040.4,597.3 
		1041.3,596.6 1042.2,596 1043,595.3 1043.9,594.6 1044.7,593.8 1045.5,593.1 1046.3,592.3 1047.1,591.5 1047.9,590.7 1048.7,589.9 
		1049.4,589.1 1050.1,588.2 1050.8,587.4 1051.5,586.5 1052.2,585.6 1052.9,584.6 1053.6,583.7 1054.2,582.7 1054.9,581.7 
		1055.5,580.7 1056.1,579.7 1056.7,578.7 1057.3,577.7 1058,576.3 1058.7,575 1059.4,573.6 1060,572.2 1060.6,571 1061.1,569.9 
		1061.6,568.7 1062.1,567.5 1062.5,566.3 1063,565.1 1063.4,563.9 1063.8,562.7 1064.3,561.4 1064.7,560.2 1065.1,558.9 
		1065.5,557.6 1065.9,556.3 1066.2,555.1 1066.6,553.8 1066.9,552.5 1067.3,551.1 1067.6,549.8 1068,548.4 1068.3,547.1 
		1068.6,545.7 1068.9,544.3 1069.4,541.6 1070,538.8 1070.5,536 1070.9,533.2 1071.4,530.3 1071.8,527.5 1072.2,524.7 1072.5,521.9 
		1072.9,519 1073.2,515.9 1073.6,512.8 1073.9,509.6 1074.2,506.5 1074.4,503.3 1074.6,500.2 1074.8,497.1 1074.9,495.5 
		1074.9,493.9 1075,492.4 1075,490.9 1075,489.4 1075.1,487.9 1075.1,486.3 1075.1,484.8 1075,483.3 1075,481.8 1075,480.3 
		1074.9,478.8 1074.8,477.3 1074.8,475.8 1074.7,474.2 1074.6,472.7 1074.5,471.2 1074.3,469.7 1074.2,468.2 1074,466.7 
		1073.8,465.2 1073.6,463.7 1073.4,462.2 1073.2,460.7 1073,459.3 1072.7,457.8 1072.4,456.2 1072.1,454.6 1071.8,453 1071.5,451.4 
		1071.1,449.8 1070.8,448.2 1070.4,446.6 1070,445.1 1069.5,443.4 1069,441.7 1068.5,440 1068,438.4 1067.5,436.7 1067,435.1 
		1066.4,433.4 1065.8,431.8 1065.2,430.2 1064.7,428.7 1064,427.1 1063.4,425.5 1062.8,424 1062.1,422.4 1061.4,420.9 1060.7,419.4 
		1060,417.8 1059.2,416.3 1058.4,414.8 1057.6,413.3 1056.8,411.8 1056,410.3 1055.1,408.9 1054.2,407.4 1053.5,406.3 1052.7,405.1 
		1051.9,404 1051.2,402.9 1050.3,401.9 1049.5,400.8 1048.7,399.7 1047.8,398.7 1047,397.9 1046.2,397 1045.4,396.2 1044.6,395.4 
		1043.9,394.8 1043.1,394.1 1042.4,393.5 1041.6,392.9 1040.8,392.3 1040,391.8 1039.3,391.3 1038.5,390.9 1037.7,390.5 
		1036.9,390.1 1036.1,389.7 1035.3,389.4 1034.5,389.1 1033.7,388.8 1032.9,388.6 1032,388.3 1031.2,388.1 1030.3,387.9 
		1029.4,387.7 1028.5,387.6 1027.6,387.4 1026.6,387.3 1025.7,387.2 1024.7,387.1 1023.7,387.1 1022.8,387 1021.8,387 1020.8,387 
		1019.8,387 1018.7,387 1017.6,387 1016.5,387.1 1015.5,387.1 1014.4,387.2 1012.2,387.3 1009.3,387.6 999.6,388.5 997.6,388.6 
		996.4,388.8 995.5,388.9 994.5,389 993.5,389.2 993.1,389.3 992.6,389.4 992.2,389.5 991.9,389.6 991.5,389.7 991.1,389.8 
		990.8,389.9 990.5,390 990.2,390.1 990,390.2 989.7,390.3 989.5,390.4 989.3,390.5 989.1,390.6 989,390.7 988.9,390.7 988.8,390.8 
		988.6,390.9 988.4,391.1 988.2,391.2 988.1,391.3 988,391.4 987.8,391.5 987.6,391.7 987.4,391.9 987.3,392 987.2,392.2 
		987.1,392.3 987,392.4 986.8,392.7 986.6,392.9 986.5,393.1 986.3,393.3 986.1,393.7 985.8,394.1 985.6,394.5 985.3,395.1 
		985,395.7 984.7,396.3 984.4,396.9 984.1,397.7 983.8,398.5 983.5,399.3 983.2,400.1 982.9,400.9 982.7,401.8 982.2,403.4 
		981.8,405 981.3,406.7 981,407.9 980.8,409.1 980.5,410.3 980.2,411.5 979.7,413.9 979.3,416.4 978.8,419.4 978.3,422.3 
		977.8,425.4 977.4,428.5 976.9,431.6 976.5,434.7 975.8,440.6 975.1,446.5 974.3,452.8 973.6,459.2 973.3,462.1 973,465.1 
		972.7,468.1 972.4,471.1 997.8,463.6 998.7,463.6 999.6,463.6 1000.4,463.6 1001.2,463.7 1002,463.8 1002.8,463.9 1003.5,464 
		1004.3,464.1 1005,464.2 1005.6,464.4 1006.3,464.6 1006.9,464.8 1007.5,465 1008.1,465.2 1008.7,465.4 1009.2,465.6 1009.8,465.9 
		1010,466 1010.3,466.2 1010.5,466.3 1010.8,466.4 1011,466.6 1011.2,466.7 1011.5,466.9 1011.7,467 1011.9,467.2 1012.1,467.3 
		1012.3,467.5 1012.5,467.7 1012.7,467.8 1012.9,468 1013.1,468.2 1013.3,468.4 1013.5,468.5 1013.7,468.7 1013.9,468.9 1014,469.1 
		1014.2,469.3 1014.4,469.5 1014.5,469.7 1014.7,469.8 1014.8,470 1015,470.2 1015.1,470.4 1015.2,470.7 1015.4,470.9 1015.5,471.1 
		1015.8,471.5 1016,471.9 1016.2,472.4 1016.4,472.8 1016.6,473.3 1016.8,473.7 1017,474.2 1017.1,474.7 1017.2,475.2 1017.4,475.7 
		1017.5,476.1 1017.6,476.6 1017.7,477.2 1017.8,477.7 1017.8,478.2 1017.9,478.7 1018,479.2 1018,479.7 1018.1,480.8 1018.1,481.9 
		1018.1,483 1018,484.1 1017.9,485.1 1017.9,486.2 1017.7,487.3 1017.6,488.4 1017.4,489.5 1017.3,490.6 1017.1,491.7 1016.8,492.8 
		1016.6,493.8 1016.3,494.9 1016,495.9 1015.7,497 1015.3,498 1014.9,499 1014.5,500 1014,500.9 1013.8,501.4 1013.5,501.9 
		1013.3,502.4 1013,502.8 1012.7,503.3 1012.4,503.7 1012.1,504.2 1011.8,504.6 1011.5,505.1 1011.2,505.5 1010.9,505.9 
		1010.5,506.3 1010.2,506.7 1009.8,507.2 1009.5,507.6 1009.1,507.9 1008.7,508.3 1008.3,508.7 1007.9,509.1 1007.4,509.4 
		1007,509.8 1006.6,510.1 1006.1,510.5 1005.6,510.8 1005.2,511.1 1004.7,511.4 1004.2,511.7 1003.6,512 1003.1,512.3 1002.6,512.6 
		1002,512.8 1001.5,513.1 1000.9,513.4 1000.3,513.6 999.7,513.8 999.1,514 998.5,514.2 997.8,514.4 971.8,522.1 	"/>
</g>
<g id="POLYLINE_534_">
	<path class="st2" d="M845.8,350c26.9-8,53.8-16,80.7-23.9c0,0-12.7-131.5-12.7-131.5l-1,1.6l-0.9,1.7l-0.9,1.7l-0.9,1.7l-0.9,1.7
		l-0.9,1.7l-0.8,1.8l-0.8,1.8l-0.8,1.8l-0.8,1.8l-0.8,1.8l-0.8,1.8l-0.7,1.8l-0.7,1.9l-0.7,1.9l-0.7,1.9l-0.7,1.9l-0.7,1.9l-0.7,1.9
		l-0.7,1.9l-1.3,3.8l-1.3,3.8l-4.9,15.2l-1.2,3.6l-1.2,3.5l-1.2,3.5l-1.2,3.5l-1.2,3.4l-1.2,3.4l-1.2,3.4l-1.2,3.3l-1.2,3.3
		l-1.3,3.3l-1.3,3.2l-1.3,3.2l-1.3,3.1l-1.3,3.1l-1.3,3.1l-1.4,3l-1.4,3l-1.4,3l-1.4,2.9l-1.4,2.9l-1.5,2.9l-1.5,2.8l-1.5,2.8
		l-0.8,1.4l-0.8,1.4l-0.8,1.4l-0.8,1.4l-0.8,1.3l-0.8,1.3l-0.8,1.3l-0.8,1.3l-0.8,1.3l-0.8,1.3l-0.8,1.3l-0.8,1.3l-0.9,1.3l-0.9,1.3
		l-0.9,1.3l-0.9,1.3l-0.9,1.2L845.8,350"/>
</g>
<g id="POLYLINE_535_">
	<polyline class="st2" points="916.5,85 909.8,83.7 897.9,81.4 892.7,80.4 887.3,79.4 881.9,78.2 876.5,77.1 871.1,75.9 865.7,74.7 
		860.4,73.5 855,72.2 839,68.4 817,63.3 811.4,62 808.5,61.3 805.7,60.6 802.8,59.9 800,59.2 797.2,58.4 794.4,57.7 791.5,56.9 
		788.6,56 785.8,55.2 782.9,54.3 780.1,53.4 777.2,52.5 774.4,51.6 771.6,50.6 768.8,49.6 766,48.6 763.2,47.5 760.5,46.4 
		755.9,44.6 746.9,41 742.3,39.2 739.9,38.2 737.4,37.3 734.9,36.3 732.4,35.4 729.9,34.6 727.5,33.8 725,33 723.8,32.6 722.5,32.2 
		721.3,31.9 720.1,31.5 718.9,31.2 717.7,30.9 715.9,30.5 714.1,30 712.4,29.7 710.8,29.4 709.2,29.1 707.5,28.8 705.8,28.5 
		704,28.2 700.5,27.6 696.2,27 687.6,25.8 683.4,25.2 679.6,27.1 675.8,28.9 672,30.7 668.2,32.5 664.4,34.3 660.5,36 656.7,37.6 
		652.8,39.3 648.9,40.9 645,42.5 641.1,44 637.1,45.6 633.2,47 629.3,48.5 625.3,49.9 621.3,51.3 618.5,52.3 615.6,53.2 612.8,54.2 
		609.9,55.1 607.1,56 604.2,56.9 601.4,57.7 598.5,58.5 595.6,59.3 592.8,60.1 590,60.8 587.1,61.5 584.3,62.2 581.4,62.8 
		578.6,63.5 575.7,64 574,64.4 572.3,64.7 569,65.3 565.6,65.9 562.2,66.4 558.3,67 554.4,67.6 538.9,69.8 535.1,70.3 531.2,70.9 
		528,71.4 524.9,72 521.4,72.6 517.9,73.3 513.6,74.1 509.2,75 500.6,76.8 494.3,78.1 491.2,78.7 488,79.3 484.3,80 482.4,80.4 
		480.5,80.7 478.7,81 476.8,81.3 474.9,81.6 473,81.8 471.2,82.1 469.3,82.3 467.4,82.5 465.5,82.8 463.7,82.9 461.9,83.1 460,83.3 
		458.2,83.4 456.1,83.6 454,83.7 449.8,84 437.9,84.7 433.9,84.9 430.6,85.2 427.4,85.4 425.7,85.6 424.1,85.7 422.5,85.9 
		420.8,86.1 419.3,86.3 417.7,86.5 416.1,86.8 414.6,87 412.9,87.3 411.3,87.6 409.7,87.9 408.1,88.2 406.4,88.6 404.7,89 
		403.1,89.4 401.4,89.8 399.8,90.3 398.1,90.7 396.5,91.2 394.8,91.6 391.4,92.6 388,93.7 383.9,95 379.8,96.3 371.6,98.9 
		366.7,100.5 364.3,101.2 361.9,102 359.1,102.8 356.4,103.6 353.6,104.4 350.9,105.2 346.9,106.3 342.8,107.3 338.8,108.4 
		326.2,111.6 321.9,112.8 317.6,113.9 314.3,114.8 311.1,115.7 307.5,116.8 303.9,117.9 297.6,119.8 285,123.6 278.6,125.5 
		274.9,126.6 271.1,127.7 267.4,128.8 263.6,129.8 259.9,130.8 256.2,131.8 253,132.6 249.9,133.3 246.3,134.2 242.7,135 
		239.1,135.8 235.4,136.6 218.9,140.2 213.4,141.4 210.3,142.1 207.2,142.9 204,143.6 200.9,144.4 197.7,145.2 194.5,146 
		191.4,146.8 188.2,147.7 185,148.6 181.9,149.5 178.7,150.4 175.6,151.4 172.4,152.3 169.3,153.3 166.2,154.3 163.1,155.4 
		160.3,156.3 157.6,157.3 154.2,158.5 143.9,162.2 140.5,163.4 137.1,164.6 134.1,165.6 131.1,166.6 128.1,167.6 126.6,168 
		125.1,168.5 123.5,169 122,169.4 120.4,169.8 118.8,170.2 117.3,170.6 115.7,171 114.1,171.4 112.5,171.7 110.9,172.1 109.2,172.4 
		107.6,172.7 105.9,173 104.3,173.3 102.6,173.5 100.9,173.8 99.3,174 97.6,174.2 96,174.4 94.3,174.6 92.7,174.7 89.4,175.1 
		86.1,175.3 81.7,175.7 73.1,176.3 68.7,176.7 65.4,177 62.1,177.3 59.2,177.6 57.7,177.7 56.2,177.9 54.8,178.1 53.3,178.3 
		51.9,178.5 50.4,178.8 49.2,178.9 48.1,179.2 46.9,179.4 45.7,179.6 46.9,180 48.1,180.4 49.3,180.8 50.5,181.2 52,181.6 53.6,182 
		55.1,182.4 56.7,182.8 58.3,183.1 59.8,183.5 61.4,183.8 63,184.1 64.7,184.4 66.3,184.7 68,185 69.7,185.2 72,185.6 74.4,185.9 
		83.5,187.2 88,187.9 90.2,188.2 92.5,188.5 94.7,188.9 96.9,189.3 98.8,189.7 100.7,190 102.6,190.4 104.4,190.8 106.4,191.3 
		108.3,191.8 110.2,192.3 112.1,192.8 114,193.4 115.9,193.9 117.8,194.5 119.6,195.1 121.5,195.7 123.3,196.4 125.2,197 127,197.7 
		129.5,198.6 131.9,199.6 134.4,200.5 136.9,201.5 141.8,203.4 150.7,207.1 154.8,208.7 156.9,209.5 158.9,210.2 161,211 163,211.7 
		164.8,212.4 166.5,212.9 168.3,213.5 170,214.1 171.8,214.7 173.5,215.2 175.3,215.8 177.1,216.3 178.9,216.8 180.6,217.3 
		184.2,218.3 187.9,219.3 191.5,220.2 195.2,221.2 198.9,222.1 202.6,223 206.3,223.9 213.7,225.6 221.1,227.3 242.4,232.3 
		249.5,234 256.5,235.6 260.1,236.4 263.6,237.1 267.1,237.9 270.6,238.7 274.1,239.4 277.7,240.1 282.8,241.1 287.9,242.1 
		298.2,244.1 305.4,245.4 309,246.1 312.5,246.8 316.1,247.6 319.7,248.3 323.2,249.1 326.8,249.9 336.6,247.3 346.4,244.8 
		356.2,242.3 366.1,239.8 375.9,237.4 385.7,234.9 425,225.2 434.8,222.7 444.5,220.3 452,218.4 459.5,216.5 468.4,214.2 
		477.3,211.8 486.2,209.5 495.1,207.2 504,204.8 512.9,202.4 521.8,200 530.7,197.6 539.6,195.1 548.5,192.7 557.4,190.2 
		566.2,187.7 575.1,185.2 584,182.7 592.9,180.2 601.8,177.7 610.7,175.1 619.6,172.6 637.4,167.4 655.1,162.2 672.8,157 
		690.6,151.8 708.3,146.6 726.1,141.3 743.8,136 814.7,114.9 832.5,109.6 850.2,104.4 865.1,100 880,95.6 894.9,91.2 909.8,86.9 
		916.5,85 	"/>
</g>
<g id="POLYLINE_536_">
	<polyline class="st2" points="341.6,431.2 339.7,430.6 338.2,430.1 336.6,429.6 335.1,429.1 333.5,428.6 331,427.9 328.4,427.2 
		325.8,426.5 323.2,425.9 321.3,425.4 319.4,425 315.5,424.1 307.2,422.3 304.5,421.7 303.1,421.4 301.7,421 300.4,420.7 
		299.1,420.4 297.6,420 296,419.5 294.5,419.1 293,418.6 290.5,417.8 288,416.9 284,415.6 275.8,412.7 271.6,411.1 269.2,410.3 
		266.9,409.6 264.6,408.8 262.2,408 260.1,407.3 257.9,406.6 253.6,405.3 249.2,403.9 244.9,402.6 228.6,397.9 224.3,396.6 
		222.2,395.9 220.1,395.3 217.6,394.5 215,393.6 213.4,393.1 211.7,392.5 210,391.9 208.4,391.2 207.3,390.8 206.2,390.3 
		205.1,389.9 204.1,389.4 203.2,389 202.3,388.6 201.4,388.1 200.5,387.7 199.6,387.1 198.6,386.6 197.7,386 196.8,385.4 196,381.9 
		195.2,378.3 192.1,364.4 191.4,361 190.7,357.6 189.9,353.7 189.5,351.8 189.1,349.8 188.8,347.8 188.4,345.9 188.1,343.9 
		187.8,342 187.5,339.5 187.3,338.3 187.2,337.1 187,335.8 186.9,334.5 186.7,331.9 186.5,328.9 186.3,325.8 186.1,322.8 
		185.7,314.2 185.4,308.6 185.3,306.3 185.1,304 184.9,301.7 184.8,299.3 184.6,297 184.4,294.7 184.1,292.4 183.9,290.1 
		183.6,287.8 183.3,285.5 183,283.3 182.6,281 182.3,278.7 181.9,276.5 181.5,274.2 181,271.9 180.5,269.2 179.9,266.4 179.4,263.7 
		178.7,260.9 178,257.5 177.2,254.1 174.7,243.6 173.8,239.9 173,236.1 172.1,232.4 171.6,229.8 171,227.1 173.9,228 176.9,228.9 
		179.8,229.7 182.8,230.5 185.7,231.3 188.7,232 191.6,232.8 194.6,233.5 197.6,234.2 200.5,235 206.5,236.4 218.4,239.1 
		239.7,244.1 246.8,245.8 253.9,247.4 257.5,248.2 261,249 264.6,249.8 268.1,250.5 271.7,251.3 275.3,252 280.4,253 285.6,254 
		301.2,256.9 306.4,257.9 311.5,259 314.1,259.5 316.7,260.1 317.1,263.7 317.4,267.2 317.8,270.8 318.1,274.4 318.3,278 
		318.6,281.6 319.6,296.1 319.9,299.7 320.2,303.3 320.5,306.9 320.8,310.5 321.2,314 321.6,317.6 321.8,319.5 322,321.4 
		322.5,325.2 323.1,329 323.6,332.8 324.8,340.3 325.9,347.9 328.9,367.8 329.7,372.8 330.1,375.3 330.5,377.7 330.9,380.2 
		331.4,382.7 331.8,385.2 332.3,387.7 332.7,389.9 333.2,392.2 333.6,394.5 334.1,396.8 335.1,401.3 336.1,405.9 338.1,414.9 
		339.2,419.5 340.1,424 340.9,427.6 341.6,431.2 	"/>
</g>
<g id="POLYLINE_537_">
	<path class="st2" d="M154.3,429.1l-1.5,0.9l-1.5,0.9l-1.5,0.8l-1.5,0.8l-1.3,0.7l-1.3,0.7l-1.3,0.7l-1.3,0.7l-1.3,0.7l-1.3,0.6
		l-1.3,0.6l-1.3,0.6l-1.3,0.6l-1.3,0.6l-1.3,0.6l-1.3,0.6l-1.3,0.5l-1.3,0.5l-1.4,0.5l-1.4,0.5l-1.3,0.5l-1.3,0.4l-1.3,0.4l-1.3,0.4
		l-1.3,0.4l-1.3,0.4l-1.4,0.4l-1.4,0.3l-1.3,0.3l-1.3,0.3l-1.3,0.3l-1.3,0.2l-1.3,0.2l-1.3,0.2l-1.3,0.2l-1.3,0.2l-1.3,0.1l-1.3,0.1
		l-1.3,0.1l-1.3,0.1l-1.3,0l-1.3,0l-1.3,0l-1.3,0l-1-0.1l-1-0.1l-1-0.1l-1-0.1l-1-0.1l-1-0.1l-1-0.1l-1-0.2l-1-0.2l-1-0.2l-1-0.2
		l-1-0.2l-1-0.3l-1-0.3l-1-0.3l-1-0.3l-0.8-2.1l-0.8-2.1l-0.8-2.1l-0.8-2.1l-0.9-2.2l-0.9-2.2l-3.7-8.8l-1.8-4.4l-1-2.6l-1-2.6
		l-1-2.6l-0.9-2.6l-0.5-1.3l-0.5-1.3l-0.4-1.3l-0.4-1.3l-0.5-1.5l-0.5-1.5l-0.4-1.5l-0.4-1.5l-0.4-1.5l-0.4-1.5l-0.4-1.5l-0.4-1.5
		L58,388l-0.7-3.1l-0.9-3.8l-0.8-3.8l-0.8-3.8l-0.8-3.8l-0.9-4.5l-2.6-13.4l-0.9-4.5l-0.9-4.5l-0.9-4.4l-0.9-4.3l-2.8-12.6l-0.9-4.2
		l-0.9-4.1l-0.9-4.1l-0.4-2.1l-0.4-2.2l-0.4-2.2l-0.4-2.2l-0.4-2.3l-0.4-2.3l-0.8-4.5l-0.7-4.6l-0.7-4.6L33.7,263L32,251.8l-0.4-2.8
		l-0.4-2.8l-0.4-2.8l-0.4-2.8l-0.4-3.4l-0.4-3.4l-0.3-3.3l-0.3-3.3l-0.2-2.7l-0.2-2.7l-0.2-2.7l-0.2-2.7l-0.4-5.4l-0.7-10.4
		l-0.4-4.9l-0.4-4.9l-0.2-2.5l-0.2-2.5l1.5-0.7l2.5,1.1l2.5,1l2.5,1l2.5,1l1.2,0.5l1.2,0.5l1.3,0.5l1.3,0.4l1.3,0.4l1.3,0.4l1.3,0.4
		l1.3,0.4l1.7,0.5l1.7,0.5l1.7,0.4l1.7,0.4l1.7,0.4l1.7,0.4l1.7,0.3l1.8,0.3l1.8,0.3l1.8,0.3l1.8,0.3l1.8,0.3l3.5,0.5l3.5,0.5l7.1,1
		l3.5,0.5l3.5,0.5l1.8,0.3l1.8,0.3l1.8,0.3l1.8,0.3l1.8,0.3l1.7,0.4l1.7,0.4l1.7,0.4l1.4,0.3l1.4,0.4l0.3,3.2l0.4,3.2l0.4,3.2
		l0.4,3.2l0.5,3.2l0.5,3.2l0.5,3.2l0.6,3.1l0.6,3.1l0.6,3.1l0.6,3.1l0.6,3.1l0.7,3.1l0.7,3.1l0.7,3.1l0.7,3.1l1.2,5l1.2,5l1.2,5
		l0.6,2.5l0.6,2.5l0.6,2.5l0.5,2.5l0.5,2.5l0.5,2.5l0.5,2.5l0.4,2.5l0.4,2.5l0.4,2.5l0.2,1.5l0.2,1.5l0.2,1.5l0.2,1.5l0.1,1.5
		l0.1,1.5l0.2,3.1l0.2,3.1l0.2,3.1l0.2,3.1l0.5,9.3l0.2,3.1l0.2,3.1l0.2,3.1l0.2,3.1l0.1,1.5l0.1,1.5l0.2,1.5l0.2,1.5l0.3,2.2
		l0.3,2.2l0.3,2.2l0.3,2.2l0.3,2.2l0.4,2.2l0.4,2.2l0.4,2.2l0.4,2.2l0.4,2.2l0.4,2.2l0.5,2.2l0.9,4.3l1,4.3l2.9,13l0.9,4.3l0.9,4.3
		l0.4,2.2l0.4,2.2l0.4,2.2l0.4,2.2l0.4,2.2l0.4,2.2C144.4,419.2,149,424.5,154.3,429.1"/>
</g>
<g id="POLYLINE_538_">
	<polyline class="st2" points="152,408.7 151.4,405.5 150.8,402.4 150.2,399.2 149.5,396.1 148.8,393 148.2,389.8 146.8,383.6 
		144.6,374 143.9,370.9 143.3,367.7 142.6,364.5 142,361.3 141.4,358.1 140.8,354.9 140.5,353.3 140.3,351.8 140,350.2 139.8,348.6 
		139.6,347 139.4,345.4 139,342.7 138.8,340.1 138.6,337.8 138.4,335.6 138.2,332.5 138,329.5 137.8,326.5 137.2,315.6 137,311.7 
		136.8,307.7 136.6,305.2 136.4,302.8 136.2,300.3 136,297.8 135.7,295.5 135.4,293.2 135.1,290.9 134.8,288.6 134.4,286.6 
		134.1,284.6 133.7,282.5 133.4,280.5 133,278.5 132.5,276.5 132.1,274.5 131.7,272.5 130.8,268.7 129.9,264.8 127.1,253.2 
		126.2,249.2 125.7,246.8 125.2,244.5 124.7,242.1 124.2,239.8 123.7,237.4 123.2,235.1 122.7,232.8 122.3,230.5 121.9,228.1 
		121.4,225.8 121,223.4 120.6,221.1 120.1,217.7 119.6,214.4 119.2,211 118.7,207.6 121.2,208.5 123.7,209.4 126.1,210.3 
		128.5,211.2 131,212.2 133.4,213.1 138.3,215.1 143.2,217.1 148,219 150.5,220 152.9,220.9 155.4,221.8 157.8,222.7 158.5,226.3 
		159.2,229.8 159.9,233.3 160.7,236.8 161.7,241.4 162.8,246.1 164.9,254.7 165.7,258.4 166.6,262.1 167.4,265.8 168.2,269.5 
		168.7,272 169.2,274.5 169.7,277.1 170.1,279.6 170.5,282.2 170.9,284.7 171.3,287.3 171.6,289.8 171.9,291.9 172.1,294 172.3,296 
		172.5,298.1 172.7,300.2 172.8,302.3 173,304.4 173.1,306.5 173.3,309.4 173.5,312.3 174,323.1 174.1,325.6 174.3,328 174.4,330.3 
		174.6,332.6 174.8,334.7 175,336.8 175.1,338.4 175.3,340.1 175.5,341.6 175.7,343.1 175.9,344.5 176.2,346 176.6,348.3 177,350.6 
		177.4,352.9 177.8,355.2 178.3,357.5 178.8,359.8 179.7,364.4 180.5,368.1 183,379.2 183.7,382.4 184.5,385.7 185.1,389 
		185.8,392.3 186.4,392.7 186.9,393.2 187.5,393.6 188,394.1 188.6,394.5 189.2,394.9 189.8,395.3 190.3,395.7 191.2,396.3 
		192,396.8 192.9,397.3 193.8,397.8 194.6,398.2 195.4,398.7 196.2,399.1 197,399.5 197.8,399.9 198.7,400.3 200.3,401 201.6,401.5 
		202.8,402 204.1,402.6 205.4,403 206.8,403.6 208.2,404.1 209.6,404.6 211,405.1 212.6,405.6 214.2,406.1 217.3,407.1 220.7,408.2 
		224.1,409.2 230.6,411.1 236.9,412.9 243.1,414.7 246.4,415.7 249.7,416.7 253,417.8 256.3,418.8 259.7,419.9 263.2,421.1 
		266.7,422.3 270.3,423.5 279.8,426.9 282.9,428 285.8,429 288.6,429.9 290,430.4 291.4,430.8 292.9,431.2 294.3,431.6 295.9,432.1 
		297.5,432.5 299,432.8 300.5,433.2 303.4,433.9 313.1,436 316.3,436.7 318.1,437.1 320,437.5 321.8,438 323.6,438.5 325.9,439.1 
		328.2,439.7 330.5,440.4 332.8,441 335,441.8 337.2,442.5 339.7,443.4 342.1,444.3 344.4,445.1 345.2,449.4 346.1,453.7 347,458 
		347.9,462.3 348.5,465.2 349.2,468.1 349.9,471 350.6,473.8 351.3,476.7 352.1,479.6 352.5,481 352.9,482.4 353.3,483.8 
		353.7,485.2 353.2,485.2 352.7,485.2 352.2,485.2 351.7,485.2 351.3,485.1 350.8,485.1 349.8,484.9 348.8,484.8 347.7,484.6 
		346.7,484.3 345.6,484 344.5,483.8 343.4,483.4 342.2,483 341,482.6 339.9,482.2 338.2,481.7 336.6,481.1 330.9,478.9 329,478.1 
		327,477.4 325.1,476.8 323.1,476.1 321.1,475.5 319.6,475 318.2,474.6 316.7,474.2 315.2,473.8 313.7,473.4 312.2,473.1 
		309.3,472.4 307,471.8 304.6,471.3 295.9,469.4 293.8,468.9 291.7,468.5 289.1,467.8 287.8,467.5 286.5,467.2 285.3,466.8 
		284,466.5 281.5,465.8 280,465.3 278.5,464.8 275.6,463.9 272.7,462.9 269.7,461.9 264.5,460.1 259.3,458.2 256.7,457.3 
		254.1,456.4 251.5,455.5 248.9,454.6 246.4,453.8 243.9,453 241.4,452.2 238.9,451.4 233.8,449.9 228.8,448.4 214.8,444.3 
		210.9,443.2 207.3,442.1 203.8,440.9 202,440.4 200.2,439.8 198.4,439.2 196.7,438.6 195,438 193.3,437.3 191.6,436.7 190,436.1 
		188.3,435.4 186.7,434.7 185,434 183.4,433.2 181.9,432.5 180.3,431.8 178.8,431 177.3,430.2 175.8,429.4 174.3,428.5 172.8,427.6 
		171.4,426.7 169.8,425.7 168.5,424.9 167.3,424 166.1,423.1 164.9,422.1 163.7,421.2 162.5,420.2 161.4,419.2 160.3,418.1 
		159.2,417.1 158.1,416 157,414.8 156,413.7 154.9,412.5 153.9,411.3 152.9,410 152,408.7 	"/>
</g>
<g id="POLYLINE_539_">
	<path class="st2" d="M915.9,171.9c0,0,1.1-1.1,1.1-1.1l1.1-1.1l1.1-1l1.1-1l1.1-1l1.2-1l1.2-1l1.2-0.9l1.2-0.9l1.3-0.9l1.3-0.9
		l1.3-0.8l1.3-0.8l1.4-0.8l1.4-0.8l1.4-0.7c4.5-2.3,9.2-4,14.1-5.3c0,0-5.8-59.7-5.8-59.7l-30.1,8.7l-14.9,4.3l-14.9,4.4l-14.9,4.4
		l-14.9,4.4l-17.7,5.3l-17.7,5.3L747.9,150l-17.7,5.3l-17.7,5.3l-17.8,5.3l-17.8,5.2l-17.8,5.2l-17.8,5.2l-17.8,5.1l-8.9,2.6
		l-8.9,2.5l-8.9,2.5l-8.9,2.5l-8.9,2.5l-8.9,2.5l-8.9,2.5l-8.9,2.5l-8.9,2.5l-8.9,2.4l-8.9,2.4l-8.9,2.4l-8.9,2.4l-8.9,2.4l-8.9,2.4
		l-8.9,2.3l-8.9,2.3l-8.9,2.3l-7.5,1.9l-7.5,1.9l-9.8,2.5l-9.8,2.5l-39.5,9.8l-10,2.5l-10,2.5l-9.9,2.5l-9.9,2.5l-9.9,2.6l-9.9,2.6
		l0.4,4.3l0.3,3.4l0.2,3l0.2,3l0.4,6.1l0.4,6.1l0.4,6.1l0.3,3.9l0.3,3.9l0.3,3.9l0.4,3.9l0.3,3l0.3,3l0.4,3.1l0.4,3.1l0.6,4.5
		l0.7,4.5l1.4,9.1l1.1,7.2l1.9,12.5l0.6,4.1l0.6,4.1l0.7,4.1l0.7,4.1l0.4,2l0.4,2l0.4,1.9l0.4,1.9l0.8,3.8l0.8,3.8l0.8,3.8l0.8,3.8
		l2.6,11.5l0.8,3.8l0.8,3.8l0.9,4l0.8,4.1l0.8,4.1l3.2,16.1l0.8,4l0.7,3.3l0.7,3.3l0.7,3.3l0.8,3.3l0.7,2.8l0.7,2.8l0.7,2.8l0.7,2.7
		l0.7,2.4l0.7,2.4l0.8,2.4l0.4,1.2l0.4,1.2l0.5,1.5l0.5,1.5l0.5,1.5l0.5,1.5l0.9,2.3l0.9,2.3l0.9,2.3l0.9,2.3l3.9,9.4
		c0.9,2.1,1.7,4.2,2.6,6.3c0,0,2.2-1.1,2.2-1.1l2.2-1.1l2.2-1.1l2.2-1.1l2.2-1l2.2-1l2.2-1l2.2-1l2.2-1l2.2-1l2.2-1l2.2-0.9l2.2-0.9
		l2.2-0.9l2.2-0.9l2.3-0.9l2.3-0.9l2.3-0.9l2.4-0.9l2.4-0.9l2.4-0.9l2.4-0.9l2.4-0.8l2.4-0.8l2.4-0.8l2.4-0.8l2.4-0.8l2.4-0.8
		l4.8-1.6l4.8-1.5l3-0.9l3-0.9l3-0.9l3-0.9l3-0.9l3-0.9l3-0.8l3-0.8l3-0.8l3-0.8l6-1.6l6-1.6l6-1.5l6.1-1.5l6.1-1.5l6.1-1.5l6.1-1.5
		l6.1-1.4l6.1-1.4l6.1-1.4l6.2-1.4l12.4-2.8l24.7-5.5l12.4-2.8l6.1-1.4l6.1-1.4l6.1-1.4l6.1-1.4l6.1-1.4l6.1-1.5l6.1-1.5l6.1-1.5
		l5.8-1.5l5.8-1.5l5.8-1.5l5.8-1.6l2.9-0.8l2.9-0.8l2.9-0.8l2.9-0.8l2.9-0.8l2.9-0.9l2.9-0.9l2.9-0.9l2.8-0.9l2.8-0.9l2.8-0.9
		l2.8-0.9l2.8-0.9l2.8-0.9l2.7-0.9l2.7-1l2.7-0.9l2.6-1l2.6-1l2.6-1l2.6-1l2.6-1l2.6-1l2.6-1l2.7-1.1l2.7-1.1l2.6-1.1l2.6-1.1
		l2.6-1.2l2.6-1.2l2.6-1.2l2.5-1.2l2.5-1.2l2.5-1.2l2.5-1.2l2.4-1.3l2.4-1.3l2.4-1.3l2.4-1.3l2.3-1.3l1.6-1l1.6-1l1.6-1l1.6-1l1.6-1
		l1.6-1l1.6-1l1.6-1l1.5-1l1.5-1l1.5-1l1.5-1.1l1.5-1.1l1.5-1.1l1.5-1.1l1.4-1.1l1.4-1.1l1.4-1.1l1.4-1.1l1.4-1.1l1.4-1.1l1.4-1.2
		l1.3-1.2l1.3-1.2l1.3-1.2l1.3-1.2l1.3-1.2l1.3-1.2l1.3-1.2l1.2-1.2l1.2-1.3l1.2-1.3l0.9-0.9l0.9-1l0.9-1l0.9-1l0.9-1l0.8-1l0.8-1
		l0.8-1l0.8-1l0.8-1l1.6-2l1.6-2.1l1.5-2.1l0.8-1.2l0.8-1.2l0.8-1.2l0.8-1.2l0.8-1.2l0.8-1.2l0.8-1.2l0.8-1.2l0.8-1.2l0.8-1.2
		l1.5-2.4l1.5-2.5l1.4-2.5l1.4-2.6l1.4-2.6l1.4-2.6l1.3-2.6l1.1-2.1l1-2.1l1-2.1l1-2.2l1.3-2.9l1.3-2.9l1.3-2.9l1.2-2.9l1.3-3.1
		l1.3-3.1l1.2-3.1l1.2-3.1l1.2-3.1l1.2-3.1l1.1-3.1l1.1-3.2l1.2-3.3l1.1-3.3l1.1-3.3l1.1-3.3l1.6-5l3.7-11.5l1.1-3.3l1.1-3.3
		l1.1-3.2l1.1-3.2l1.1-3.2l1.2-3.2l0.8-2.1l0.8-2.1l0.8-2.1l0.8-2.1l0.9-2.1l0.9-2l0.9-2l0.9-2l1-2l1-2l1-2l1-2l1.1-2l0.6-1l0.6-1
		l0.6-1l0.6-1l0.6-1l0.6-0.9l0.6-0.9l0.6-0.9l0.6-0.9l0.6-0.9l0.7-0.9l0.7-0.9l0.7-0.9l0.7-0.9l0.7-0.9l0.7-0.9l0.7-0.9l0.7-0.9
		l0.7-0.9l0.8-0.8l0.8-0.8L915.9,171.9"/>
</g>
<g id="POLYLINE_540_">
	<path class="st2" d="M956.6,514l37.8-11.2l0.5-0.1l0.5-0.2l0.5-0.2l0.5-0.2l0.5-0.2l0.4-0.2l0.2-0.1l0.2-0.1l0.2-0.1l0.2-0.1
		l0.3-0.2l0.3-0.2l0.3-0.2l0.3-0.2l0.3-0.2l0.3-0.3l0.3-0.3l0.3-0.3l0.3-0.3l0.3-0.3l0.2-0.3l0.2-0.3l0.2-0.3l0.2-0.3l0.2-0.3
		l0.2-0.3l0.2-0.4l0.2-0.4l0.2-0.4l0.2-0.4l0.2-0.4l0.2-0.4l0.2-0.4l0.2-0.4l0.2-0.5l0.2-0.5l0.2-0.5l0.1-0.5l0.1-0.5l0.1-0.5l0.2-1
		l0.2-1.1l0.2-1.1l0.2-1.2l0.1-1.2l0.1-1.1l0.1-1.1l0-0.5l0-0.5l0-0.5l0-0.5l0-0.5l0-0.5l0-0.2l0-0.2l0-0.2l0-0.2l-0.1-0.2l-0.1-0.2
		l0-0.1l0-0.1l0-0.1l0-0.1l-0.1-0.1l0-0.1l0-0.1l0-0.1l0-0.1l0-0.1l0-0.1l0-0.1l0,0l0,0l0,0l0,0l0,0l0,0l0,0l0,0l0,0l0,0l0,0l0,0
		l0,0l0,0l0,0l0,0l0,0l-0.1,0l-0.1,0l-0.1,0l-0.1,0l-0.1,0l-0.1-0.1l-0.1-0.1l-0.1-0.1l-0.1-0.1l-0.1,0l-0.2-0.1l-0.2-0.1l-0.2-0.1
		l-0.2-0.1l-0.2-0.1l-0.2-0.1l-0.4-0.1l-0.4-0.1l-0.4-0.1l-0.5-0.1l-0.5,0l-0.5,0l-0.5,0l-28.2,8.3l-7.9,2.3
		c-30,8.9-60,17.8-90,26.7c0,0-2.4,0.7-2.4,0.7l-2.4,0.7l-2.4,0.7l-2.4,0.7l-2.4,0.7l-2.4,0.6l-2.4,0.6l-2.4,0.6l-2,0.5l-2,0.5
		l-2,0.5l-2,0.4l-2,0.4l-2,0.4l-2.1,0.4l-2.1,0.4l-2.3,0.4l-2.3,0.4l-2.3,0.3l-2.3,0.3l-1.6,0.2l-1.6,0.2l-1.6,0.1l-1.6,0.1
		l-1.5,0.1l-1.5,0.1l-1.5,0l-1.5,0l-1.3,0l-1.3,0l-1.3-0.1l-1.3-0.1l-1.2-0.1l-1.2-0.1l-1.2-0.2l-1.2-0.2l-1.2-0.2l-1.2-0.2
		l-1.2-0.3l-1.2-0.3l-1.1-0.3l-1.1-0.4l-1.1-0.4l-1.1-0.4l-1-0.4l-0.5-0.2l-0.5-0.2l-0.5-0.3l-0.5-0.3l-0.5-0.3l-0.5-0.3l-0.5-0.3
		l-0.5-0.3l-0.4-0.3l-0.4-0.3l-0.4-0.3l-0.4-0.3l-0.4-0.3l-0.4-0.3l-0.4-0.3l-0.4-0.3l-0.4-0.4l-0.4-0.4l-0.4-0.4l-0.4-0.4l-0.4-0.4
		l-0.3-0.4l-0.3-0.4l-0.3-0.4l-0.3-0.4l-0.3-0.4l-0.3-0.4l-0.3-0.4l-0.3-0.4l-0.3-0.4l-0.3-0.4l-0.2-0.4l-0.2-0.4l-0.2-0.4l-0.2-0.4
		l-0.2-0.4l-0.2-0.4l-0.2-0.4l-0.3-0.8l-0.3-0.8l-0.3-0.8l-0.3-0.8l-0.2-0.8l-0.2-0.8l-0.2-0.8l-0.2-0.8l-0.1-0.7l-7.3-76
		c-6.1,3-12.3,5.9-18.6,8.6c0,0,6.6,68.6,6.6,68.6l0.1,1.1l0.1,1.1l0.1,1.1l0.1,1.1l0.2,1.1l0.2,1.1l0.2,1.1l0.2,1.1l0.2,1l0.2,1
		l0.2,0.9l0.2,0.9l0.2,0.9l0.3,0.9l0.3,0.9l0.3,0.9l0.3,0.8l0.3,0.8l0.3,0.8l0.3,0.8l0.3,0.8l0.3,0.8l0.3,0.8l0.3,0.8l0.3,0.7
		l0.3,0.7l0.3,0.7l0.4,0.7l0.4,0.7l0.4,0.7l0.4,0.7l0.4,0.7l0.4,0.6l0.4,0.6l0.4,0.6l0.4,0.6l0.4,0.6l0.4,0.6l0.4,0.6l0.5,0.6
		l0.4,0.5l0.4,0.5l0.5,0.5l0.5,0.5l0.5,0.5l0.5,0.5l0.5,0.5l0.5,0.5l0.5,0.5l0.5,0.5l0.5,0.4l0.5,0.4l0.5,0.4l0.5,0.4l0.5,0.4
		l0.5,0.4l0.5,0.4l0.5,0.4l1.1,0.8l1.1,0.7l1.1,0.7l1.2,0.7l1.2,0.6l1.2,0.6l1.2,0.6l1.2,0.5l1.2,0.5l1.3,0.5l1.3,0.4l1.3,0.4
		l1.3,0.4l1.3,0.4l1.3,0.3l1.3,0.3l1.4,0.3l1.4,0.2l1.4,0.2l1.6,0.2l1.6,0.2l1.6,0.1l1.6,0.1l1.6,0.1l1.6,0l1.6,0l1.6,0l1.4-0.1
		l1.4-0.1l1.4-0.1l1.4-0.1l1.4-0.1l1.4-0.2l1.4-0.2l1.4-0.2l1.3-0.2l1.3-0.2l1.3-0.3l1.3-0.3l1.3-0.3l1.3-0.3l1.3-0.3l1.3-0.4
		C878.5,537.1,917.6,525.6,956.6,514"/>
</g>
<g id="HATCH_319_">
	<path class="st0" d="M948.6,465.5l-41.1,12.2l-41.1,12.2l-2.3,0.7l-2.3,0.7l-2.3,0.6l-2.3,0.6L855,493l-2.3,0.6l-2.3,0.6l-2.3,0.6
		l-1.9,0.5l-2,0.5l-2,0.4l-2,0.4l-1.7,0.4l-1.7,0.3l-1.7,0.3l-1.7,0.3l-1.9,0.3l-1.9,0.3l-1.9,0.3l-1.9,0.2l-1.3,0.1l-1.3,0.1
		l-1.3,0.1l-1.3,0.1l-1.1,0.1l-1.1,0l-1.1,0l-1.1,0l-0.9,0l-0.9,0l-0.9,0l-0.9-0.1l-0.7-0.1l-0.7-0.1l-0.7-0.1l-0.7-0.1l-0.5-0.1
		l-0.5-0.1l-0.5-0.1l-0.5-0.1l-0.4-0.1l-0.4-0.1l-0.3-0.1l-0.2-0.1l-0.2-0.1l-0.2-0.1l-0.2-0.1l-0.1-0.1l-0.1-0.1l-0.1-0.1l-0.1-0.1
		l-0.1-0.1l-0.1,0l-0.1,0l-0.1,0l-0.1,0l-0.1,0l-0.1,0l-0.1-0.1l0,0l0,0l0,0l0,0l0,0l0,0l0,0l0,0l0,0l0,0l0,0l0,0l0,0l0,0l0,0l0,0
		l0,0l0,0l0-0.1l0-0.1l-0.1-0.1l-0.1-0.1l0-0.1l0-0.1l0-0.1l0-0.1l-0.1-0.3l-8.2-84.9l1.5-0.9l1.5-0.9l1.4-0.9l1.4-0.9l1.4-0.9
		l1.4-0.9l1.4-1l1.4-1l1.4-1l1.4-1l1.4-1l1.4-1l1.4-1l1.4-1l1.3-1l1.3-1l1.3-1l1.3-1.1l1.3-1.1l1.3-1.1l1.3-1.1l1.3-1.1l1.3-1.1
		l1.3-1.1l1.2-1.1l1.2-1.1l1.2-1.1l1.2-1.1l1.2-1.2l1.2-1.2l1.2-1.2l1.2-1.2l26.2-7.8l26.2-7.8l26.1-7.7l13.1-3.9l13.1-3.8l9.6-2.8
		L937.3,185l0.5-0.5l0.5-0.4l0.5-0.4l0.6-0.4l0.6-0.4l0.6-0.4l0.6-0.4l0.6-0.4l0.6-0.4l0.6-0.4l0.6-0.4l0.6-0.4l0.6-0.3l0.6-0.3
		l0.6-0.3l0.6-0.3l0.9-0.5l1-0.4l1-0.4l1-0.4l1-0.4l1-0.4l1.1-0.3l1.1-0.3l1.1-0.3l1.1-0.3l1.1-0.3l1.2-0.2l1.2-0.2l1.2-0.2l1.3-0.2
		l1.3-0.1l11.9-1.3l-9.7-100.6l-8-2.2L956,69l-2.4-0.6l-2.2-0.6l-2.2-0.6l-3-0.8l-3.1-0.7l-3-0.7l-3-0.7l-3-0.6l-3-0.6l-3-0.6
		l-3-0.6l-6-1.2l-17.6-3.3l-2.9-0.6l-2.9-0.6l-2.9-0.6l-2.8-0.6l-2.8-0.6l-2.8-0.6l-5.7-1.2l-5.7-1.3l-5.7-1.3l-5.7-1.3l-23-5.4
		l-12-2.8l-6-1.4l-6-1.4l-3-0.7l-3-0.7l-3-0.8l-3-0.8l-2.9-0.8l-2.9-0.8l-2.9-0.8l-2.9-0.9l-2.9-0.9l-2.9-0.9l-2.9-0.9l-2.8-1
		l-2.8-1l-2.8-1.1l-2.8-1.1l-2.8-1.1l-4.9-2l-9.8-4l-2.5-1l-2.5-1l-2.9-1.1l-2.9-1.1l-2.9-1.1l-1.5-0.5l-1.5-0.5l-1.5-0.5l-1.5-0.5
		l-1.5-0.5L731,9.4L729.5,9l-1.5-0.4l-1.5-0.4l-1.5-0.4l-2.1-0.5l-2.1-0.5l-2.1-0.5l-2.2-0.4l-2.2-0.4l-2.2-0.4l-2.2-0.4l-2.2-0.4
		l-3.3-0.5l-3.3-0.5l-9.3-1.3l-2.8-0.4l-2.8-0.4l-2.8-0.4l-4-0.6l-3.6,1.8l-1.9,1l-1.9,1l-1.9,0.9l-1.9,0.9l-1.9,0.9l-1.9,0.9
		l-1.9,0.9l-1.9,0.9l-3.8,1.8l-3.9,1.7l-3.9,1.7l-3.9,1.7l-3.9,1.6l-3.9,1.6l-3.9,1.6l-3.9,1.5l-4,1.5l-4,1.5l-4,1.4l-4,1.4
		l-2.7,0.9l-2.7,0.9l-2.7,0.9l-2.7,0.9l-2.7,0.8l-2.7,0.8l-2.7,0.8l-2.7,0.8l-2.6,0.7l-2.6,0.7l-2.6,0.7l-2.6,0.7l-2.6,0.6l-2.6,0.6
		l-2.6,0.6l-2.6,0.5l-1.6,0.3l-1.6,0.3l-3.1,0.6l-3.1,0.5l-3.1,0.5l-3.7,0.6l-3.7,0.5l-15.4,2.2l-4,0.6l-3.9,0.6l-3.4,0.5l-3.4,0.6
		l-3.7,0.7l-3.7,0.7l-4,0.8l-4,0.8L491.1,54l-3.4,0.7l-3.4,0.7l-3.5,0.6l-3.5,0.6l-1.7,0.3l-1.7,0.3l-1.7,0.3l-1.7,0.3l-1.7,0.2
		l-1.7,0.2l-1.7,0.2l-1.7,0.2l-1.6,0.2l-1.6,0.2l-1.6,0.1l-1.6,0.1l-1.9,0.1l-1.9,0.1l-3.9,0.3l-4.2,0.2l-8.5,0.5l-4.2,0.3l-3.6,0.3
		l-1.8,0.1l-1.8,0.2l-1.8,0.2l-1.8,0.2l-1.8,0.2L418,62l-1.8,0.2l-1.8,0.3l-1.8,0.3l-1.8,0.3l-1.9,0.3l-1.9,0.4l-1.9,0.4l-1.9,0.4
		l-1.9,0.4l-1.9,0.4l-1.9,0.4l-1.9,0.5l-1.8,0.5l-1.8,0.5l-1.8,0.5l-1.8,0.5l-1.8,0.5l-1.8,0.5l-3.6,1.1l-4.2,1.3l-4.2,1.4l-8.5,2.7
		l-4.7,1.5l-2.4,0.7l-2.4,0.7l-2.6,0.8l-2.6,0.8l-2.6,0.7l-2.6,0.7l-4.1,1.1l-4.1,1.1l-16.7,4.3l-4.3,1.1l-4.3,1.2l-3.6,1l-3.6,1
		l-3.6,1l-3.6,1.1l-6.4,1.9l-12.8,3.9l-6.4,1.9l-3.6,1.1l-3.6,1l-3.6,1l-3.6,1l-3.4,0.9l-3.4,0.9l-3,0.7l-3,0.7l-3.7,0.9l-3.7,0.8
		l-3.7,0.8l-3.7,0.8l-10.8,2.3l-5.4,1.2l-5.4,1.2l-3.3,0.8l-3.3,0.8l-3.3,0.8l-3.3,0.8l-3.3,0.8l-3.3,0.9l-3.3,0.9l-3.3,0.9
		l-3.3,0.9l-3.3,1l-3.3,1l-3.3,1l-3.3,1l-3.3,1l-3.3,1.1l-3.3,1.1l-3.1,1.1l-3.1,1.1l-4.2,1.5l-9.8,3.6l-2.8,1l-2.8,1l-2.7,0.9
		l-2.7,0.9l-2.8,0.9l-1.4,0.4l-1.4,0.4l-1.3,0.4l-1.3,0.4l-1.3,0.4l-1.3,0.3l-1.3,0.3l-1.4,0.3l-1.4,0.3l-1.4,0.3l-1.4,0.3l-1.4,0.3
		l-1.4,0.3l-1.4,0.2l-1.4,0.2l-1.4,0.2l-1.4,0.2l-1.4,0.2l-1.5,0.2l-1.5,0.2l-3,0.3l-3,0.3l-3,0.3l-4.2,0.3l-8.5,0.6l-4.2,0.3
		l-3.4,0.3l-3.4,0.3l-3.3,0.3l-1.6,0.2l-1.6,0.2l-1.6,0.2l-1.6,0.2l-1.6,0.2l-1.6,0.3l-1.7,0.3l-1.7,0.3l-1.7,0.3l-1.7,0.3l-1.7,0.4
		l-1.7,0.4l-1.7,0.4l-1.7,0.4l-1.7,0.5l-1.7,0.5l-1.7,0.5l-1.7,0.5l-1.7,0.6l-1.7,0.6l-1.7,0.6l-1.6,0.7l-1.7,0.7l-1.7,0.8l-1.7,0.8
		l-1.7,0.8l-1.6,0.9L9.7,167l-1.6,0.9l-1.6,1l-6.5,4l0.8,7.6l0.2,2.1l0.2,2.1l0.4,4.1l0.4,4.1l0.3,4.1l0.5,7l0.5,7l0.5,7l0.3,3.5
		l0.3,3.5l0.3,3.6l0.3,3.6l0.4,3.6l0.4,3.6l0.3,2.5l0.3,2.5l0.3,2.5l0.3,2.5l0.7,4.9l0.7,4.9l2,12.9l2.2,14.5l0.8,4.9l0.8,4.9
		l0.4,2.4l0.4,2.4l0.4,2.4l0.4,2.4l0.5,2.4l0.5,2.4l0.5,2.3l0.5,2.3l1,4.5l1,4.4l3,13.3l1,4.4l0.9,4.4l0.9,4.6l0.9,4.6l2.8,14
		l0.9,4.7l1,4.8l1,4.7l0.8,3.5l0.8,3.5l0.8,3.5l0.4,1.7l0.4,1.7l0.5,1.7l0.5,1.7l0.5,1.7l0.5,1.7l0.5,1.8l0.5,1.7L39,410l0.6,1.7
		l0.5,1.5l0.5,1.5l0.5,1.5l0.5,1.5l0.6,1.6l0.6,1.6l1.3,3.2l1.3,3.2l1.3,3.2l3.5,8.4l1.7,4.2l0.8,2.1l0.8,2.1l1,2.6l1,2.6L56,454
		l0.5,1.3l0.4,1.3l0.4,1.3l1.8,5.5l5.3,2.1l0.9,0.4l0.9,0.3l0.9,0.3l0.9,0.3l0.9,0.3l0.9,0.3l0.9,0.3l0.9,0.3l0.9,0.3l0.9,0.3
		l0.9,0.3l0.9,0.2l0.9,0.2l0.9,0.2l0.9,0.2l0.9,0.2l1.8,0.4l1.8,0.3l1.8,0.3l1.8,0.2l1.8,0.2l1.8,0.2l1.8,0.1l1.8,0.1l1.8,0.1l1.8,0
		l1.8,0l1.8,0l1.8-0.1l1.8-0.1l1.8-0.1l1.8-0.2l1.7-0.2l1.7-0.2l1.7-0.3l1.7-0.3l1.7-0.3l1.7-0.3l1.7-0.4l1.7-0.4l1.7-0.4l1.7-0.4
		l1.7-0.5l1.7-0.5l1.6-0.5l1.6-0.5l1.6-0.6l1.6-0.6l1.6-0.6l1.6-0.6l1.6-0.6l1.6-0.6l1.6-0.7l1.6-0.7l1.6-0.7l1.5-0.7l2.2-1l2.2-1
		l2.2-1.1l2.1-1.1l2.1-1.1l2.1-1.1l2.1-1.2l2.1-1.2l1.4,0.7l1.4,0.7l1.4,0.7l1.4,0.7l1.4,0.7l1.4,0.7l1.4,0.6l1.4,0.6l1.6,0.7
		l1.6,0.7l1.6,0.6l1.6,0.6l1.6,0.6l1.6,0.6l1.6,0.6l1.6,0.6l1.9,0.7l1.9,0.6l1.9,0.6l1.9,0.6l1.9,0.6l1.9,0.6l3.9,1.2l4,1.2l14,4.1
		l4.9,1.4l4.9,1.5l2.4,0.7l2.4,0.8l2.4,0.8l2.4,0.8l2.4,0.8l2.4,0.8l4.8,1.7l5.3,1.9l5.3,1.9l3.2,1.1l3.2,1.1l1.6,0.5l1.6,0.5
		l1.6,0.5l1.6,0.5l1.4,0.4l1.4,0.4l1.4,0.4l1.4,0.4l1.5,0.4l1.5,0.4l2.9,0.7l2,0.5l2,0.5l8.6,1.9l2.3,0.5l2.3,0.5l2.6,0.6l2.6,0.6
		l1.3,0.3l1.3,0.4l1.3,0.4l1.3,0.4l1,0.3l1,0.3l1,0.3l1,0.3l1.3,0.5l1.3,0.5l1.9,0.7l5.8,2.2l1.8,0.6l1.8,0.6l1.5,0.5l1.5,0.5
		l1.5,0.5l1.5,0.5l1.6,0.4l1.6,0.4l0.8,0.2l0.8,0.2l0.8,0.2l0.8,0.2l1.3,0.2l1.3,0.2l1.3,0.2l1.3,0.1l1.2,2.9l3.5,8.5l0.9,2.3
		l0.9,2.3l0.9,2.3l0.9,2.3l0.9,2.3l0.8,2.3l0.8,2.2l0.7,2.2l4.6,14.3l13-7.5l2.3-1.3l2.3-1.3l2.3-1.2l2.3-1.2l2.3-1.2l2.3-1.2
		l2.3-1.2l2.3-1.1l2.4-1.2l2.4-1.1l2.5-1.1l2.5-1.1l2.5-1.1l2.5-1.1l2.5-1.1l2.5-1l2.6-1.1l2.6-1l2.6-1l2.6-1l2.6-1l2.6-1l2.6-1
		l2.6-0.9l2.7-1l2.7-0.9l2.7-0.9l2.7-0.9l2.7-0.9l2.8-0.9l2.8-0.9l2.8-0.9l2.8-0.9l2.8-0.9l2.8-0.9l2.8-0.8l2.9-0.8l2.9-0.8l2.9-0.8
		l2.9-0.8l5.9-1.6l5.9-1.6l5.9-1.5l5.9-1.5l6-1.5l6-1.5l6.1-1.5l6.1-1.4l6.1-1.4l6.1-1.4l6.1-1.4l6.1-1.4l12.4-2.8l24.7-5.5
		l12.4-2.8l6.2-1.4l6.2-1.4l6.2-1.4l6.1-1.4l6.1-1.5l6.1-1.5l6.1-1.5l6.1-1.5l5-1.3l5-1.3l5-1.3l5-1.3l5-1.4l5-1.4l4.9-1.4l4.9-1.4
		l4.8-1.4l4.8-1.5l4.8-1.5l4.8-1.5l2.4-0.8l2.4-0.8l2.4-0.8l2.4-0.8l2.4-0.8l2.4-0.8l2.4-0.8l2.4-0.9l5.9,61.6l0.1,1.4l0.2,1.4
		l0.2,1.4l0.2,1.4l0.2,1.4l0.2,1.4l0.2,1.4l0.3,1.4l0.3,1.3l0.3,1.3l0.3,1.3l0.3,1.3l0.3,1.3l0.3,1.3l0.4,1.2l0.4,1.2l0.4,1.1
		l0.4,1.1l0.4,1.1l0.4,1.1l0.4,1.1l0.4,1.1l0.5,1.1l0.5,1.1l0.5,1.1l0.5,1.1l0.5,1.1l0.5,1.1l0.6,1.1l0.6,1.1l0.6,1l0.6,1l0.6,1
		l0.6,0.9l0.6,0.9l0.6,0.9l0.6,0.9l0.7,0.9l0.7,0.9l0.7,0.9l0.7,0.8l0.7,0.8l0.7,0.8l0.7,0.8l0.7,0.8l0.7,0.8l0.8,0.8l0.8,0.8
		l0.8,0.7l0.8,0.7l0.8,0.7l0.8,0.7l0.8,0.7l0.8,0.7l0.8,0.7l0.8,0.6l0.8,0.6l0.8,0.6l0.8,0.6l0.8,0.6l0.9,0.6l0.9,0.6l0.9,0.5
		l0.9,0.5l0.9,0.5l0.9,0.5l0.9,0.5l0.9,0.5l0.9,0.4l0.9,0.4l0.9,0.4l0.9,0.4l0.9,0.4l0.9,0.4l0.9,0.4l0.9,0.4l0.9,0.4l0.9,0.3
		l0.9,0.3l0.9,0.3l0.9,0.3l0.9,0.3l0.9,0.3l0.9,0.3l0.9,0.3l0.9,0.2l0.9,0.2l0.9,0.2l0.9,0.2l0.9,0.2l0.9,0.2l0.9,0.2l0.9,0.2
		l0.9,0.2l0.9,0.1l1,0.1l1.1,0.1l1.1,0.1l1.1,0.1l1.1,0.1l1.1,0.1l1.1,0.1l1.1,0.1l1.1,0.1l1.1,0l1.1,0l1.1,0l1.1,0l1.1,0l1.1,0
		l1.1,0l1.1,0l1.8-0.1l1.8-0.1l1.8-0.1l1.8-0.2l1.8-0.2l1.8-0.2l1.8-0.2l1.8-0.3l1.7-0.3l1.7-0.3l1.7-0.3l1.7-0.4l1.6-0.4l1.6-0.4
		l1.6-0.4l1.6-0.5l52-15.4l52-15.4l0.5,2.3l0.5,2.3l0.6,2.3l0.6,2.3l0.6,2.3l0.6,2.3l0.7,2.3l0.7,2.3l0.8,2.4l0.8,2.4l0.8,2.4
		l0.8,2.4l0.7,2l0.7,2l0.8,2l0.8,2l0.7,1.8l0.7,1.8l0.8,1.8l0.8,1.8l0.8,1.8l0.8,1.8l0.8,1.8l0.8,1.8l1.1,2.2l1.1,2.2l0.6,1.1
		l0.6,1.1l0.6,1.1l0.6,1.1l0.9,1.6l0.9,1.6l1,1.6l1,1.5l1,1.5l1,1.4l0.5,0.7l0.5,0.7l0.5,0.7l0.5,0.7l0.9,1.1l1,1.1l0.5,0.5l0.5,0.5
		l0.5,0.5l0.5,0.5l0.8,0.7l0.8,0.7l0.8,0.7l0.8,0.7l0.8,0.6l0.8,0.6l0.8,0.6l0.8,0.6l0.9,0.5l0.9,0.5l0.9,0.5l0.9,0.5l0.9,0.4
		l0.9,0.4l0.9,0.4l0.9,0.3l0.8,0.3l0.9,0.3l0.9,0.3l0.9,0.3l0.8,0.2l0.8,0.2l0.8,0.2l0.8,0.2l1.4,0.3l1.4,0.2l1.4,0.2l1.4,0.2
		l1.6,0.2l1.6,0.1l2.4,0.2l2.4,0.2l1.3,0.1l1.3,0.1l1.3,0.2l1.3,0.2l2.4,0.4l2.3-0.6l1.7-0.4l1.7-0.5l1.7-0.5l1.7-0.5l1.7-0.6
		l0.8-0.3l0.8-0.3l0.8-0.3l0.8-0.3l0.8-0.3l0.8-0.3l1.5-0.7l1.5-0.7l1.5-0.8l1.5-0.8l1.5-0.8l1.5-0.9l1.4-0.9l1.4-0.9l1.3-0.9l1.3-1
		l1.3-1l1.3-1l1.3-1l1.2-1.1l1.2-1.1l1.2-1.1l1.1-1.1l1.1-1.1l1.1-1.2l1.1-1.2l1-1.2l1-1.2l1-1.2l1-1.3l0.9-1.3l0.9-1.3l0.9-1.3
		l0.9-1.3l0.8-1.3l0.8-1.3l0.8-1.3l0.8-1.4l0.6-1.1l0.6-1.1l0.6-1.1l0.6-1.1l0.5-1.1l0.5-1.1l0.5-1.1l0.5-1.1l0.5-1.1l0.5-1.1
		l0.5-1.1l0.5-1.1l0.5-1.1l0.4-1.1l0.4-1.1l0.4-1.1l0.5-1.5l0.5-1.5l0.5-1.5l0.5-1.5l0.5-1.5l0.4-1.5l0.4-1.5l0.4-1.5l0.4-1.5
		l0.4-1.5l0.4-1.5l0.4-1.5l0.4-1.5l0.3-1.5l0.3-1.5l0.3-1.5l0.6-3l0.6-3l0.5-3l0.5-3l0.5-3l0.4-3l0.4-3l0.4-3l0.4-3.1l0.3-3.1
		l0.3-3.4l0.3-3.4l0.3-3.4l0.3-3.4l0.2-3.4l0.1-1.7l0.1-1.7l0.1-1.7l0.1-1.7l0-1.7l0-1.7l0-1.7l0-1.7l0-1.7l0-1.7l0-1.7l0-1.7
		l-0.1-1.7l-0.1-1.7l-0.1-1.7l-0.1-1.7l-0.1-1.7l-0.1-1.7l-0.1-1.7l-0.2-1.7l-0.2-1.7l-0.2-1.7l-0.2-1.7l-0.2-1.7l-0.2-1.7l-0.3-1.7
		l-0.3-1.8l-0.3-1.8l-0.3-1.8l-0.3-1.8l-0.4-1.8l-0.4-1.8l-0.4-1.8l-0.4-1.8l-0.5-1.9l-0.5-1.9l-0.5-1.9l-0.5-1.9l-0.6-1.9l-0.6-1.9
		l-0.6-1.9l-0.6-1.9l-0.6-1.9l-0.7-1.8l-0.7-1.8l-0.7-1.8l-0.7-1.8l-0.7-1.8l-0.8-1.8l-0.8-1.8l-1-2.1l-1-2.1l-1-2.1l-1-2.1
		l-1.1-2.1l-0.6-1l-0.6-1l-0.6-1l-0.6-1l-0.6-1l-0.6-1l-1-1.6l-1-1.5l-1-1.5l-1-1.5l-1-1.4l-1.1-1.4l-1.1-1.4l-1.1-1.4l-1.1-1.3
		l-1.2-1.3l-0.6-0.6l-0.6-0.6l-0.6-0.6l-0.6-0.6l-0.6-0.6l-0.6-0.6l-0.6-0.6l-0.6-0.6l-0.6-0.6l-0.7-0.6l-0.7-0.6l-0.7-0.5l-0.7-0.5
		l-0.7-0.5l-0.7-0.5l-0.7-0.5l-0.7-0.5l-0.7-0.5l-0.7-0.5l-0.7-0.4l-0.7-0.4l-0.7-0.4l-0.7-0.4l-0.7-0.4l-0.7-0.4l-0.7-0.4l-0.8-0.4
		l-0.8-0.3l-0.7-0.3l-0.7-0.3l-0.7-0.3l-0.7-0.3l-0.7-0.3l-0.7-0.3l-0.7-0.2l-0.7-0.2l-0.7-0.2l-0.7-0.2l-0.7-0.2l-0.7-0.2l-1.5-0.4
		l-1.5-0.3l-1.4-0.3l-1.4-0.2l-1.4-0.2l-1.4-0.2l-1.4-0.1l-1.4-0.1l-1.4-0.1l-1.4-0.1l-1.3,0l-1.3,0l-1.3,0l-1.3,0l-1.3,0l-1.3,0.1
		l-1.3,0.1l-1.3,0.1l-1.5,0.1l-1.5,0.1l-2.9,0.2l-5.7,0.5l-2.9,0.3l-2.9,0.3l-1.5,0.2l-1.5,0.2l-1.5,0.2l-0.8,0.1l-0.8,0.1l-0.9,0.2
		l-0.9,0.2l-0.8,0.2l-0.8,0.2l-0.8,0.2l-0.8,0.2l-0.8,0.3l-0.8,0.3l-0.9,0.3l-0.9,0.4l-0.9,0.4l-0.9,0.4l-0.9,0.4l-0.9,0.5l-0.8,0.5
		l-0.8,0.5l-0.6,0.4l-0.6,0.4l-0.6,0.4l-0.6,0.4l-0.6,0.4l-0.5,0.5l-0.5,0.5l-0.5,0.5l-0.8,0.8l-0.8,0.8l-0.7,0.8l-0.7,0.9l-0.7,0.9
		l-0.7,0.9l-0.6,1l-0.6,1l-0.7,1.1l-0.6,1.1l-0.6,1.1l-0.6,1.2l-0.5,1.2l-0.5,1.2l-0.5,1.2l-0.5,1.2l-0.6,1.6l-0.5,1.6l-0.5,1.6
		l-0.5,1.6l-0.4,1.3l-0.4,1.3l-0.3,1.4l-0.3,1.4l-0.3,1.4l-0.3,1.4l-0.3,1.4l-0.3,1.4l-0.3,1.6l-0.3,1.6l-0.3,1.6l-0.3,1.6l-0.5,3.3
		l-0.5,3.3l-0.5,3.7l-0.5,3.7l-0.5,3.7l-0.5,3.7l-0.6,4.9l-0.6,4.9l-0.6,4.9l-0.6,4.9l-0.6,5L948.6,465.5z M956.6,514L898,531.4
		l-58.6,17.4l-1.3,0.4l-1.3,0.3l-1.3,0.3l-1.3,0.3l-1.3,0.3l-1.3,0.3l-1.3,0.2l-1.3,0.2l-1.4,0.2l-1.4,0.2l-1.4,0.2l-1.4,0.1
		l-1.4,0.1L821,552l-1.4,0.1l-1.4,0.1l-1.6,0l-1.6,0l-1.6,0l-1.6-0.1l-1.6-0.1l-1.6-0.1l-1.6-0.2l-1.6-0.2l-1.4-0.2l-1.4-0.2
		l-1.4-0.3l-1.3-0.3l-1.3-0.3l-1.3-0.4l-1.3-0.4l-1.3-0.4l-1.3-0.4l-1.3-0.5l-1.2-0.5l-1.2-0.5l-1.2-0.6l-1.2-0.6l-1.2-0.6l-1.2-0.7
		l-1.1-0.7l-1.1-0.7l-1.1-0.8l-0.5-0.4l-0.5-0.4l-0.5-0.4l-0.5-0.4l-0.5-0.4l-0.5-0.4l-0.5-0.4l-0.5-0.4l-0.5-0.5l-0.5-0.5l-0.5-0.5
		l-0.5-0.5l-0.5-0.5l-0.5-0.5l-0.5-0.5l-0.5-0.5l-0.4-0.5l-0.4-0.5l-0.5-0.6l-0.4-0.6l-0.4-0.6l-0.4-0.6l-0.4-0.6l-0.4-0.6l-0.4-0.6
		l-0.4-0.6l-0.4-0.7l-0.4-0.7l-0.4-0.7l-0.4-0.7l-0.4-0.7l-0.3-0.7l-0.3-0.7l-0.3-0.7l-0.3-0.8l-0.3-0.8l-0.3-0.8l-0.3-0.8l-0.3-0.8
		l-0.3-0.8l-0.3-0.8l-0.3-0.8l-0.3-0.9l-0.3-0.9l-0.3-0.9l-0.2-0.9l-0.2-0.9l-0.2-0.9l-0.2-1l-0.2-1l-0.2-1.1l-0.2-1.1l-0.2-1.1
		l-0.2-1.1l-0.1-1.1l-0.1-1.1l-0.1-1.1l-0.1-1.1l-6.6-68.6l2.4-1l2.4-1l2.3-1.1l2.3-1.1l2.3-1.1l2.3-1.1l2.3-1.1l2.3-1.1l7.3,76
		l0.1,0.7l0.2,0.8l0.2,0.8l0.2,0.8l0.2,0.8l0.3,0.8l0.3,0.8l0.3,0.8l0.3,0.8l0.2,0.4l0.2,0.4l0.2,0.4l0.2,0.4l0.2,0.4l0.2,0.4
		l0.2,0.4l0.3,0.4l0.3,0.4l0.3,0.4l0.3,0.4l0.3,0.4l0.3,0.4l0.3,0.4l0.3,0.4l0.3,0.4l0.3,0.4l0.4,0.4l0.4,0.4l0.4,0.4l0.4,0.4
		l0.4,0.4l0.4,0.3l0.4,0.3l0.4,0.3l0.4,0.3l0.4,0.3l0.4,0.3l0.4,0.3l0.4,0.3l0.5,0.3l0.5,0.3l0.5,0.3l0.5,0.3l0.5,0.3l0.5,0.3
		l0.5,0.2l0.5,0.2l1,0.4l1.1,0.4l1.1,0.4l1.1,0.4l1.1,0.3l1.2,0.3l1.2,0.3l1.2,0.2l1.2,0.2l1.2,0.2l1.2,0.2l1.2,0.1l1.2,0.1l1.3,0.1
		l1.3,0.1l1.3,0l1.3,0l1.5,0l1.5,0l1.5-0.1l1.5-0.1l1.6-0.1l1.6-0.1l1.6-0.2l1.6-0.2l2.3-0.3l2.3-0.3l2.3-0.4l2.3-0.4l2.1-0.4
		l2.1-0.4l2-0.4l2-0.4l2-0.4l2-0.5l2-0.5l2-0.5l2.4-0.6l2.4-0.6l2.4-0.6l2.4-0.7l2.4-0.7l2.4-0.7l2.4-0.7l2.4-0.7l45-13.3l45-13.3
		l7.9-2.3l28.2-8.3l0.5,0l0.5,0l0.5,0l0.5,0.1l0.4,0.1l0.4,0.1l0.4,0.1l0.2,0.1l0.2,0.1l0.2,0.1l0.2,0.1l0.2,0.1l0.2,0.1l0.1,0
		l0.1,0.1l0.1,0.1l0.1,0.1l0.1,0.1l0.1,0l0.1,0l0.1,0l0.1,0l0.1,0l0,0l0,0l0,0l0,0l0,0l0,0l0,0l0,0l0,0l0,0l0,0l0,0l0,0l0,0l0,0l0,0
		l0,0l0,0.1l0,0.1l0,0.1l0,0.1l0,0.1l0,0.1l0,0.1l0.1,0.1l0,0.1l0,0.1l0,0.1l0,0.1l0.1,0.2l0.1,0.2l0,0.2l0,0.2l0,0.2l0,0.2l0,0.5
		l0,0.5l0,0.5l0,0.5l0,0.5l0,0.5l-0.1,1.1l-0.1,1.1l-0.1,1.2l-0.2,1.2l-0.2,1.1l-0.2,1.1l-0.2,1l-0.1,0.5l-0.1,0.5l-0.1,0.5
		l-0.2,0.5l-0.2,0.5l-0.2,0.5l-0.2,0.4l-0.2,0.4l-0.2,0.4l-0.2,0.4l-0.2,0.4l-0.2,0.4l-0.2,0.4l-0.2,0.4l-0.2,0.3l-0.2,0.3l-0.2,0.3
		l-0.2,0.3l-0.2,0.3l-0.2,0.3l-0.3,0.3l-0.3,0.3l-0.3,0.3l-0.3,0.3l-0.3,0.3l-0.3,0.2l-0.3,0.2l-0.3,0.2l-0.3,0.2l-0.3,0.2l-0.2,0.1
		l-0.2,0.1l-0.2,0.1l-0.2,0.1l-0.4,0.2l-0.5,0.2l-0.5,0.2l-0.5,0.2l-0.5,0.2l-0.5,0.1L956.6,514z M915.9,171.9l-0.8,0.8l-0.8,0.8
		l-0.8,0.8l-0.7,0.9l-0.7,0.9l-0.7,0.9l-0.7,0.9l-0.7,0.9l-0.7,0.9l-0.7,0.9l-0.7,0.9l-0.7,0.9l-0.6,0.9l-0.6,0.9l-0.6,0.9l-0.6,0.9
		l-0.6,0.9l-0.6,1l-0.6,1l-0.6,1l-0.6,1l-0.6,1l-1.1,2l-1,2l-1,2l-1,2l-1,2l-0.9,2l-0.9,2l-0.9,2l-0.9,2.1l-0.8,2.1l-0.8,2.1
		l-0.8,2.1l-0.8,2.1l-1.2,3.2l-1.1,3.2l-1.1,3.2l-1.1,3.2l-1.1,3.3l-1.1,3.3l-3.7,11.5l-1.6,5l-1.1,3.3l-1.1,3.3l-1.1,3.3l-1.2,3.3
		l-1.1,3.2l-1.1,3.1l-1.2,3.1l-1.2,3.1l-1.2,3.1l-1.2,3.1l-1.3,3.1l-1.3,3.1l-1.2,2.9l-1.3,2.9l-1.3,2.9l-1.3,2.9l-1,2.2l-1,2.1
		l-1,2.1l-1.1,2.1l-1.3,2.6l-1.4,2.6l-1.4,2.6l-1.4,2.6l-1.4,2.5l-1.5,2.5l-1.5,2.4l-0.8,1.2l-0.8,1.2l-0.8,1.2l-0.8,1.2l-0.8,1.2
		l-0.8,1.2l-0.8,1.2l-0.8,1.2l-0.8,1.2l-0.8,1.2l-1.5,2.1l-1.6,2.1l-1.6,2l-0.8,1l-0.8,1l-0.8,1l-0.8,1l-0.8,1l-0.9,1l-0.9,1l-0.9,1
		l-0.9,1l-0.9,0.9l-1.2,1.3l-1.2,1.3l-1.2,1.2l-1.3,1.2l-1.3,1.2l-1.3,1.2l-1.3,1.2l-1.3,1.2l-1.3,1.2l-1.3,1.2l-1.4,1.2l-1.4,1.1
		l-1.4,1.1l-1.4,1.1l-1.4,1.1l-1.4,1.1l-1.4,1.1l-1.5,1.1l-1.5,1.1l-1.5,1.1l-1.5,1.1l-1.5,1l-1.5,1l-1.5,1l-1.6,1l-1.6,1l-1.6,1
		l-1.6,1l-1.6,1l-1.6,1l-1.6,1l-1.6,1l-2.3,1.3l-2.4,1.3l-2.4,1.3l-2.4,1.3l-2.4,1.3l-2.5,1.2l-2.5,1.2l-2.5,1.2l-2.5,1.2l-2.6,1.2
		l-2.6,1.2l-2.6,1.2l-2.6,1.1l-2.6,1.1l-2.7,1.1l-2.7,1.1l-2.6,1l-2.6,1l-2.6,1l-2.6,1l-2.6,1l-2.6,1l-2.6,1l-2.7,0.9l-2.7,1
		l-2.7,0.9l-2.8,0.9l-2.8,0.9l-2.8,0.9l-2.8,0.9l-2.8,0.9l-2.8,0.9l-2.9,0.9l-2.9,0.9l-2.9,0.9l-2.9,0.8l-2.9,0.8l-2.9,0.8l-2.9,0.8
		l-2.9,0.8l-5.8,1.6l-5.8,1.5l-5.8,1.5l-5.8,1.5l-6.1,1.5l-6.1,1.5l-6.1,1.5L623,447l-6.1,1.4l-6.1,1.4l-6.1,1.4l-6.1,1.4l-12.4,2.8
		l-24.7,5.5l-12.4,2.8l-6.2,1.4l-6.1,1.4l-6.1,1.4l-6.1,1.4l-6.1,1.5l-6.1,1.5l-6.1,1.5l-6.1,1.5l-6,1.5l-6,1.6l-6,1.6l-3,0.8
		l-3,0.8l-3,0.8l-3,0.8l-3,0.9l-3,0.9l-3,0.9l-3,0.9l-3,0.9l-3,0.9l-4.8,1.5l-4.8,1.6l-2.4,0.8l-2.4,0.8l-2.4,0.8l-2.4,0.8l-2.4,0.8
		l-2.4,0.8l-2.4,0.9l-2.4,0.9l-2.4,0.9l-2.4,0.9L417,501l-2.3,0.9l-2.3,0.9l-2.2,0.9l-2.2,0.9l-2.2,0.9l-2.2,0.9l-2.2,1l-2.2,1
		l-2.2,1l-2.2,1l-2.2,1l-2.2,1l-2.2,1l-2.2,1.1l-2.2,1.1l-2.2,1.1l-2.2,1.1l-1.3-3.2l-1.3-3.2l-3.9-9.4l-0.9-2.3l-0.9-2.3l-0.9-2.3
		l-0.9-2.3l-0.5-1.5l-0.5-1.5l-0.5-1.5L367,487l-0.4-1.2l-0.4-1.2l-0.8-2.4l-0.7-2.4l-0.7-2.4l-0.7-2.7l-0.7-2.8l-0.7-2.8l-0.7-2.8
		l-0.8-3.3l-0.7-3.3l-0.7-3.3l-0.7-3.3l-0.8-4l-0.8-4l-2.4-12.1l-0.8-4.1l-0.8-4.1l-0.9-4l-0.8-3.8l-0.8-3.8l-2.6-11.5l-0.8-3.8
		l-0.8-3.8l-0.8-3.8l-0.8-3.8l-0.4-1.9l-0.4-1.9l-0.4-2l-0.4-2l-0.7-4.1l-0.7-4.1l-0.6-4.1l-0.6-4.1l-1.9-12.5l-1.1-7.2l-1.4-9.1
		l-0.7-4.5l-0.6-4.5l-0.4-3.1l-0.4-3.1l-0.3-3l-0.3-3l-0.4-3.9l-0.3-3.9l-0.3-3.9l-0.3-3.9l-0.4-6.1l-0.4-6.1l-0.4-6.1l-0.2-3
		l-0.2-3l-0.3-3.4l-0.4-4.3l9.9-2.6l9.9-2.6l9.9-2.5l9.9-2.5l10-2.5l10-2.5l39.5-9.8l9.8-2.5l9.8-2.5l7.5-1.9l7.5-1.9l8.9-2.3
		l8.9-2.3l8.9-2.3l8.9-2.4l8.9-2.4l8.9-2.4l8.9-2.4l8.9-2.4l8.9-2.4l8.9-2.5l8.9-2.5l8.9-2.5l8.9-2.5l8.9-2.5l8.9-2.5l8.9-2.5
		l8.9-2.5l8.9-2.6l17.8-5.1l17.8-5.2l17.8-5.2l17.8-5.2l17.8-5.3l17.7-5.3l17.7-5.3l70.9-21.1l17.7-5.3l17.7-5.3l14.9-4.4l14.9-4.4
		l14.9-4.4l14.9-4.3l30.1-8.7l5.8,59.7l-0.9,0.3l-0.9,0.3l-0.9,0.3l-0.9,0.3l-0.9,0.3l-0.9,0.3l-0.9,0.3l-0.9,0.3l-0.9,0.3l-0.9,0.3
		l-0.9,0.4l-0.9,0.4l-0.8,0.4l-0.8,0.4l-0.8,0.4l-0.8,0.4l-1.4,0.7l-1.4,0.8l-1.4,0.8l-1.3,0.8l-1.3,0.8l-1.3,0.9l-1.3,0.9l-1.2,0.9
		l-1.2,0.9l-1.2,1l-1.2,1l-1.1,1l-1.1,1l-1.1,1l-1.1,1.1L915.9,171.9z M152,408.7l1,1.3l1,1.3l1,1.2l1,1.2l1,1.2l1.1,1.1l1.1,1.1
		l1.1,1.1l1.1,1l1.1,1l1.2,1l1.2,1l1.2,0.9l1.2,0.9l1.2,0.9l1.3,0.9l1.6,1l1.4,0.9l1.5,0.9l1.5,0.8l1.5,0.8l1.5,0.8l1.5,0.8l1.5,0.7
		l1.5,0.7l1.6,0.7l1.6,0.7l1.6,0.7l1.7,0.7l1.7,0.7l1.7,0.6l1.7,0.6l1.7,0.6l1.8,0.6l1.8,0.6l1.8,0.6l1.8,0.6l3.6,1.1l3.6,1.1
		l3.9,1.2l13.9,4.1l5.1,1.5l5.1,1.5l2.5,0.8l2.5,0.8l2.5,0.8l2.5,0.8l2.6,0.9l2.6,0.9l2.6,0.9l2.6,0.9l5.2,1.9l5.2,1.8l2.9,1l2.9,1
		l2.9,0.9l1.5,0.5l1.5,0.4l2.5,0.7l1.3,0.4l1.3,0.3l1.3,0.3l1.3,0.3l2.6,0.6l2.1,0.5l2.1,0.5l8.8,1.9l2.3,0.5l2.3,0.5l3,0.7l1.5,0.4
		l1.5,0.4l1.5,0.4l1.5,0.4l1.5,0.4l1.5,0.4l2,0.6l2,0.7l2,0.7l1.9,0.7l1.9,0.7l5.8,2.2l1.6,0.6l1.6,0.6l1.2,0.4l1.2,0.4l1.2,0.4
		l1.2,0.3l1.1,0.3l1.1,0.3l1.1,0.2l1.1,0.2l1,0.2l1,0.1l0.5,0.1l0.5,0l0.5,0l0.5,0l0.5,0l0.5,0l-0.4-1.4l-0.4-1.4l-0.4-1.4l-0.4-1.4
		l-0.8-2.9l-0.7-2.9l-0.7-2.9l-0.7-2.9l-0.7-2.9l-0.6-2.9L347,458l-0.9-4.3l-0.9-4.3l-0.9-4.3l-2.3-0.9l-2.4-0.9l-2.4-0.9l-2.2-0.7
		l-2.2-0.7l-2.3-0.7l-2.3-0.7l-2.3-0.6l-2.3-0.6l-1.8-0.5l-1.8-0.5l-1.8-0.4l-1.8-0.4l-3.2-0.7l-9.6-2.1l-3-0.7l-1.5-0.4l-1.5-0.4
		l-1.6-0.4l-1.6-0.4l-1.4-0.4l-1.4-0.4l-1.4-0.4l-1.4-0.4l-2.8-0.9l-2.8-1l-3.2-1.1l-9.5-3.4l-3.6-1.3l-3.6-1.2l-3.4-1.1l-3.4-1.1
		l-3.3-1l-3.3-1l-3.3-1l-3.3-1l-6.3-1.8l-6.3-1.8l-6.5-1.9l-3.4-1l-3.4-1l-3.1-1l-1.6-0.5l-1.6-0.5l-1.4-0.5l-1.4-0.5l-1.4-0.5
		l-1.4-0.5l-1.3-0.5l-1.3-0.5l-1.3-0.5l-1.2-0.5l-1.7-0.7l-0.8-0.4l-0.8-0.4l-0.8-0.4l-0.8-0.4l-0.8-0.4l-0.8-0.4l-0.9-0.5l-0.9-0.5
		l-0.9-0.5l-0.8-0.5l-0.6-0.4l-0.6-0.4l-0.6-0.4l-0.6-0.4l-0.6-0.4l-0.6-0.4l-0.5-0.5l-0.5-0.5l-0.7-3.3l-0.7-3.3l-0.7-3.3l-0.7-3.3
		l-2.5-11.1l-0.8-3.7l-1-4.6l-0.5-2.3l-0.5-2.3l-0.4-2.3l-0.4-2.3l-0.4-2.3l-0.4-2.3l-0.2-1.5l-0.2-1.5l-0.2-1.5l-0.2-1.5l-0.2-1.7
		l-0.2-1.7l-0.2-2.1l-0.2-2.1l-0.2-2.3l-0.1-2.3l-0.1-2.4l-0.1-2.4l-0.5-10.8l-0.2-2.9l-0.2-2.9l-0.1-2.1l-0.1-2.1l-0.2-2.1
		l-0.2-2.1l-0.2-2.1l-0.2-2.1l-0.2-2.1l-0.2-2.1l-0.3-2.6l-0.4-2.6l-0.4-2.6l-0.4-2.5l-0.4-2.5l-0.5-2.5l-0.5-2.5l-0.5-2.5l-0.8-3.7
		l-0.8-3.7l-0.8-3.7l-0.9-3.7l-2.1-8.6l-1.1-4.6l-1-4.6l-0.8-3.5l-0.7-3.5l-0.7-3.5l-0.7-3.5l-2.5-0.9l-2.4-0.9l-2.4-0.9l-2.4-1
		l-4.9-1.9l-9.7-3.9l-2.4-1l-2.4-1l-2.4-0.9l-2.4-0.9l-2.5-0.9l-2.5-0.9l0.4,3.4l0.5,3.4l0.5,3.4l0.5,3.4l0.4,2.3l0.4,2.3l0.4,2.3
		l0.4,2.3l0.4,2.3l0.5,2.3l0.5,2.3l0.5,2.3l0.5,2.3l0.5,2.3l0.5,2.3l0.5,2.3l0.9,4l2.8,11.7l0.9,3.8l0.9,3.8l0.4,2l0.4,2l0.4,2
		l0.4,2l0.4,2l0.4,2l0.3,2l0.3,2l0.3,2.3l0.3,2.3l0.3,2.3l0.3,2.3l0.2,2.5l0.2,2.5l0.2,2.5l0.2,2.5l0.2,3.9l0.2,3.9l0.5,10.9l0.2,3
		l0.2,3l0.2,3l0.2,2.2l0.2,2.2l0.3,2.7l0.3,2.7l0.2,1.6l0.2,1.6l0.2,1.6l0.2,1.6l0.3,1.6l0.3,1.6l0.6,3.2l0.6,3.2l0.6,3.2l0.7,3.2
		l0.7,3.2l0.7,3.2l3.5,15.8l0.7,3.1l0.7,3.1l0.6,3.1l0.6,3.1l0.6,3.1L152,408.7z M154.3,429.1l-0.9-0.8l-0.9-0.9l-0.9-0.9l-0.9-0.9
		l-0.9-0.9l-0.9-0.9l-0.9-0.9l-0.9-1l-0.9-1l-0.9-1l-0.8-1l-0.8-1l-0.8-1.1l-0.8-1.1l-0.8-1.1l-0.8-1.1l-0.4-2.2l-0.4-2.2l-0.4-2.2
		l-0.4-2.2l-0.4-2.2l-0.4-2.2l-0.9-4.3l-0.9-4.3l-2.9-13l-1-4.3l-0.9-4.3l-0.5-2.2l-0.4-2.2l-0.4-2.2l-0.4-2.2l-0.4-2.2l-0.4-2.2
		l-0.4-2.2l-0.3-2.2l-0.3-2.2l-0.3-2.2l-0.3-2.2l-0.3-2.2l-0.2-1.5l-0.2-1.5l-0.1-1.5l-0.1-1.5l-0.2-3.1l-0.2-3.1l-0.2-3.1l-0.2-3.1
		l-0.5-9.3l-0.2-3.1l-0.2-3.1l-0.2-3.1l-0.2-3.1l-0.1-1.5l-0.1-1.5l-0.2-1.5l-0.2-1.5l-0.2-1.5l-0.2-1.5l-0.4-2.5l-0.4-2.5l-0.4-2.5
		l-0.5-2.5l-0.5-2.5l-0.5-2.5l-0.5-2.5l-0.6-2.5l-0.6-2.5l-0.6-2.5l-1.2-5l-1.2-5l-1.2-5l-0.7-3.1l-0.7-3.1l-0.7-3.1l-0.7-3.1
		l-0.6-3.1l-0.6-3.1l-0.6-3.1l-0.6-3.1l-0.6-3.1l-0.5-3.2l-0.5-3.2l-0.5-3.2l-0.4-3.2l-0.4-3.2l-0.4-3.2l-0.3-3.2l-1.4-0.4l-1.4-0.3
		l-1.7-0.4l-1.7-0.4l-1.7-0.4l-1.8-0.3l-1.8-0.3l-1.8-0.3l-1.8-0.3l-1.8-0.3l-3.5-0.5l-3.5-0.5l-7.1-1l-3.5-0.5l-3.5-0.5l-1.8-0.3
		l-1.8-0.3l-1.8-0.3l-1.8-0.3l-1.8-0.3l-1.7-0.3l-1.7-0.4l-1.7-0.4l-1.7-0.4l-1.7-0.4l-1.7-0.5l-1.7-0.5l-1.3-0.4l-1.3-0.4l-1.3-0.4
		l-1.3-0.4l-1.3-0.4l-1.3-0.5l-1.2-0.5l-1.2-0.5l-2.5-1l-2.5-1l-2.5-1l-2.5-1.1l-1.5,0.7l0.2,2.5l0.2,2.5l0.4,4.9l0.4,4.9l0.7,10.4
		l0.4,5.4l0.2,2.7l0.2,2.7l0.2,2.7l0.2,2.7l0.3,3.3l0.3,3.3l0.4,3.4l0.4,3.4l0.4,2.8l0.4,2.8l0.4,2.8l0.4,2.8l1.7,11.2l2.9,19.3
		l0.7,4.6l0.7,4.6l0.8,4.5l0.4,2.3l0.4,2.3l0.4,2.2l0.4,2.2l0.4,2.2l0.4,2.1l0.9,4.1l0.9,4.1l0.9,4.2l2.8,12.6l0.9,4.3l0.9,4.4
		l0.9,4.5l0.9,4.5l2.6,13.4l0.9,4.5l0.8,3.8l0.8,3.8l0.8,3.8l0.9,3.8L58,388l0.8,3.1l0.4,1.5l0.4,1.5l0.4,1.5l0.4,1.5l0.4,1.5
		l0.4,1.5l0.5,1.5l0.5,1.5l0.4,1.3l0.4,1.3l0.5,1.3l0.5,1.3l0.9,2.6l1,2.6l1,2.6l1,2.6l1.8,4.4l3.7,8.8l0.9,2.2l0.9,2.2l0.8,2.1
		l0.8,2.1l0.8,2.1l0.8,2.1l1,0.3l1,0.3l1,0.3l1,0.3l1,0.2l1,0.2l1,0.2l1,0.2l1,0.2l1,0.1l1,0.1l1,0.1l1,0.1l1,0.1l1,0.1l1,0.1l1.3,0
		l1.3,0l1.3,0l1.3,0l1.3-0.1l1.3-0.1l1.3-0.1l1.3-0.1l1.3-0.2l1.3-0.2l1.3-0.2l1.3-0.2l1.3-0.2l1.3-0.3l1.3-0.3l1.3-0.3l1.4-0.3
		l1.4-0.4l1.3-0.4l1.3-0.4l1.3-0.4l1.3-0.4l1.3-0.4l1.3-0.5l1.4-0.5l1.4-0.5l1.3-0.5l1.3-0.5l1.3-0.6l1.3-0.6l1.3-0.6l1.3-0.6
		l1.3-0.6l1.3-0.6l1.3-0.6l1.3-0.7l1.3-0.7l1.3-0.7l1.3-0.7l1.3-0.7l1.5-0.8l1.5-0.8l1.5-0.9L154.3,429.1z M341.6,431.2l-0.7-3.6
		l-0.8-3.6l-1-4.5l-1-4.5l-2-9.1l-1-4.5l-1-4.5l-0.5-2.3l-0.5-2.3l-0.5-2.3l-0.4-2.3l-0.5-2.5l-0.4-2.5l-0.4-2.5l-0.4-2.5l-0.4-2.5
		l-0.4-2.5l-0.8-5l-3-19.9l-1.2-7.6l-1.2-7.6l-0.6-3.8l-0.5-3.8l-0.5-3.8l-0.2-1.9l-0.2-1.9l-0.4-3.6l-0.4-3.6l-0.3-3.6l-0.3-3.6
		l-0.3-3.6l-0.3-3.6l-1-14.4l-0.3-3.6l-0.3-3.6l-0.3-3.6l-0.3-3.6l-0.3-3.6l-0.4-3.6l-2.6-0.5l-2.6-0.5l-5.2-1l-5.2-1l-15.6-2.9
		l-5.2-1l-5.2-1l-3.6-0.7l-3.6-0.7l-3.6-0.8L261,249l-3.6-0.8l-3.6-0.8l-7.1-1.6l-7.1-1.7l-21.3-5l-11.9-2.8l-5.9-1.4l-3-0.7l-3-0.7
		l-3-0.7l-3-0.7l-3-0.8l-3-0.8l-2.9-0.8l-2.9-0.8l-2.9-0.9l-2.9-0.9l0.5,2.6l0.6,2.6l0.8,3.7l0.9,3.7l0.9,3.7l2.5,10.5l0.8,3.4
		l0.8,3.4l0.6,2.7l0.6,2.7l0.6,2.8l0.5,2.8l0.4,2.3l0.4,2.3l0.4,2.3l0.4,2.3l0.3,2.3l0.3,2.3l0.3,2.3l0.3,2.3l0.3,2.3l0.2,2.3
		l0.2,2.3l0.2,2.3l0.2,2.3l0.2,2.3l0.2,2.3l0.1,2.3l0.3,5.6l0.4,8.6l0.2,3l0.2,3l0.2,3l0.2,2.6l0.1,1.3l0.1,1.3l0.1,1.2l0.2,1.2
		l0.3,2.4l0.3,2l0.3,2l0.3,2l0.4,2l0.4,2l0.4,2l0.8,3.9l0.7,3.4l0.7,3.4l3.1,13.9l0.8,3.6l0.8,3.6l0.9,0.6l0.9,0.6l0.9,0.5l1,0.5
		l0.9,0.5l0.9,0.4l0.9,0.4l0.9,0.4l1.1,0.5l1.1,0.5l1.1,0.4l1.1,0.4l1.6,0.6l1.7,0.6l1.7,0.6l1.7,0.6l2.5,0.8l2.5,0.8l2.1,0.7
		l2.1,0.6l4.2,1.3l16.3,4.8l4.4,1.3l4.3,1.3l4.3,1.4l2.2,0.7l2.2,0.7l2.3,0.8l2.3,0.8l2.3,0.8l2.3,0.8l4.3,1.5l8.2,2.9l3.9,1.4
		l2.5,0.8l2.5,0.8l1.5,0.5l1.5,0.5l1.5,0.4l1.5,0.4l1.3,0.3l1.3,0.3l1.4,0.3l1.4,0.3l2.7,0.6l8.3,1.8l3.8,0.9l1.9,0.4l1.9,0.5
		l2.6,0.6l2.6,0.7l2.6,0.7l2.6,0.7l1.6,0.5l1.6,0.5l1.5,0.5l1.5,0.5L341.6,431.2z M916.5,85l-6.7,1.9l-14.9,4.3L880,95.6l-14.9,4.4
		l-14.9,4.4l-17.7,5.3l-17.7,5.3L743.8,136l-17.7,5.3l-17.7,5.3l-17.7,5.2l-17.7,5.2l-17.7,5.2l-17.8,5.2l-17.8,5.1l-8.9,2.6
		l-8.9,2.5l-8.9,2.5l-8.9,2.5l-8.9,2.5l-8.9,2.5l-8.9,2.5l-8.9,2.5l-8.9,2.5l-8.9,2.4l-8.9,2.4l-8.9,2.4l-8.9,2.4l-8.9,2.4l-8.9,2.4
		l-8.9,2.3l-8.9,2.3l-8.9,2.3l-7.5,1.9l-7.5,1.9l-9.8,2.5l-9.8,2.4l-39.2,9.7l-9.8,2.4l-9.8,2.5l-9.8,2.5l-9.8,2.5l-9.8,2.5
		l-9.8,2.6l-3.6-0.8l-3.6-0.8l-3.6-0.8l-3.6-0.7l-3.6-0.7l-3.6-0.7l-7.2-1.4l-10.3-1.9l-5.1-1l-5.1-1l-3.5-0.7l-3.5-0.7l-3.5-0.8
		l-3.5-0.8l-3.5-0.8l-3.5-0.8l-7-1.6l-7.1-1.7l-21.3-5l-7.4-1.7l-7.4-1.7l-3.7-0.9l-3.7-0.9l-3.7-0.9l-3.7-0.9l-3.6-0.9l-3.6-1
		l-3.6-1l-1.8-0.5l-1.8-0.5l-1.8-0.5l-1.8-0.5l-1.8-0.6l-1.8-0.6l-1.8-0.6l-1.7-0.6l-1.7-0.6l-1.7-0.6L161,211l-2.1-0.8l-2.1-0.8
		l-2-0.8l-4.1-1.6l-9-3.6l-4.9-2l-2.5-1l-2.5-1l-2.5-0.9l-2.5-0.9l-1.8-0.7l-1.8-0.7l-1.9-0.6l-1.9-0.6l-1.9-0.6l-1.9-0.6l-1.9-0.6
		l-1.9-0.5l-1.9-0.5l-1.9-0.5l-1.9-0.5l-1.9-0.5l-1.9-0.4l-1.9-0.4l-1.9-0.4l-1.9-0.4l-2.2-0.4l-2.2-0.4l-2.2-0.4l-2.2-0.3l-4.5-0.6
		l-9.2-1.3l-2.3-0.3l-2.3-0.4L68,185l-1.7-0.3l-1.7-0.3l-1.7-0.3l-1.6-0.3l-1.6-0.3l-1.6-0.3l-1.6-0.4l-1.6-0.4l-1.6-0.4l-1.6-0.4
		l-1.5-0.4l-1.2-0.4l-1.2-0.4l-1.2-0.4l-1.2-0.4l1.2-0.2l1.2-0.2l1.2-0.2l1.2-0.2l1.5-0.2l1.5-0.2l1.5-0.2l1.5-0.2l1.5-0.2l1.5-0.2
		l2.9-0.3l3.3-0.3l3.3-0.3l4.3-0.3l8.7-0.7l4.3-0.3l3.3-0.3l3.3-0.3l1.6-0.2l1.6-0.2l1.6-0.2l1.6-0.2l1.7-0.2l1.7-0.2l1.7-0.3
		l1.7-0.3l1.7-0.3l1.7-0.3l1.7-0.3l1.6-0.3l1.6-0.3l1.6-0.4l1.6-0.4l1.6-0.4l1.6-0.4l1.6-0.4l1.6-0.4l1.6-0.5l1.5-0.5l1.5-0.5l3-1
		l3-1l3-1l3.4-1.2l3.4-1.2l10.2-3.7l3.4-1.2l2.7-0.9l2.7-0.9l3.1-1l3.1-1l3.1-1l3.1-1l3.1-0.9l3.2-0.9l3.2-0.9l3.2-0.9l3.2-0.9
		l3.2-0.8l3.2-0.8l3.2-0.8l3.1-0.8l3.1-0.7l3.1-0.7l3.1-0.7l5.5-1.2l16.5-3.6l3.6-0.8l3.6-0.8l3.6-0.8l3.6-0.8l3.2-0.8l3.2-0.8
		l3.7-1l3.7-1l3.8-1l3.8-1.1l3.8-1.1l3.8-1.1l6.3-1.9l12.6-3.8l6.3-1.9l3.6-1.1l3.6-1l3.2-0.9l3.3-0.9l4.3-1.2l4.3-1.1l12.6-3.3
		l4-1.1l4-1.1l4-1.1l2.8-0.8l2.8-0.8l2.7-0.8l2.7-0.8l2.4-0.7l2.4-0.8l4.8-1.5l8.2-2.7l4.1-1.3l4.1-1.3l3.4-1l3.4-1l1.6-0.5l1.6-0.5
		l1.7-0.4l1.7-0.4l1.7-0.4l1.7-0.4l1.7-0.4l1.7-0.4l1.6-0.3l1.6-0.3l1.6-0.3l1.6-0.3l1.6-0.2l1.6-0.2l1.6-0.2l1.6-0.2l1.6-0.2
		l1.6-0.2l1.6-0.2l1.6-0.2l3.3-0.3l3.3-0.2l4-0.3l11.9-0.7l4.2-0.3l2.1-0.1l2.1-0.2l1.8-0.1l1.8-0.2l1.8-0.2l1.8-0.2l1.9-0.2
		l1.9-0.2l1.9-0.2l1.9-0.3l1.9-0.3l1.9-0.3l1.9-0.3l1.9-0.3l1.9-0.3l1.9-0.3l3.7-0.7l3.1-0.6l3.1-0.6l6.3-1.3l8.7-1.8l4.3-0.9
		l4.3-0.9l3.5-0.7l3.5-0.6l3.2-0.5l3.2-0.5l3.8-0.6l3.8-0.6l15.5-2.2l3.9-0.6l3.9-0.6l3.4-0.5l3.4-0.6l3.4-0.6l1.7-0.3l1.7-0.3
		l2.9-0.6l2.9-0.6l2.9-0.6l2.8-0.7l2.8-0.7l2.8-0.7l2.8-0.8l2.8-0.8l2.9-0.8l2.9-0.9l2.9-0.9l2.9-0.9l2.9-0.9l2.8-0.9l2.8-1l2.8-1
		l4-1.4l4-1.4l4-1.5l3.9-1.5l3.9-1.5l3.9-1.5l3.9-1.6l3.9-1.6l3.9-1.6l3.9-1.7l3.8-1.7l3.8-1.7l3.8-1.8l3.8-1.8l3.8-1.8l3.8-1.9
		l4.3,0.6l8.6,1.2l4.3,0.6l3.5,0.5l1.8,0.3l1.8,0.3l1.6,0.3l1.6,0.3l1.6,0.3l1.6,0.3l1.8,0.4l1.8,0.4l1.2,0.3l1.2,0.3l1.2,0.3
		l1.2,0.3l1.2,0.4L725,33l2.5,0.8l2.5,0.8l2.4,0.9l2.5,0.9l2.5,0.9l2.5,0.9l2.5,1l4.5,1.8l9.1,3.7l4.5,1.8l2.8,1.1l2.8,1.1l2.8,1
		l2.8,1l2.8,1l2.8,0.9l2.8,0.9l2.8,0.9l2.9,0.9l2.9,0.8l2.9,0.8l2.9,0.8l2.8,0.8l2.8,0.7l2.8,0.7l2.8,0.7l2.8,0.7l2.8,0.7l5.7,1.4
		l22,5.1l16,3.8l5.3,1.2l5.4,1.2l5.4,1.2l5.4,1.2l5.4,1.2l5.4,1.1l5.4,1.1l5.2,1l11.9,2.2L916.5,85z M845.8,350l0.9-1.2l0.9-1.2
		l0.9-1.3l0.9-1.3l0.9-1.3l0.9-1.3l0.8-1.3l0.8-1.3l0.8-1.3l0.8-1.3l0.8-1.3l0.8-1.3l0.8-1.3l0.8-1.3l0.8-1.4l0.8-1.4l0.8-1.4
		l0.8-1.4l1.5-2.8l1.5-2.8l1.5-2.9l1.4-2.9l1.4-2.9l1.4-3l1.4-3l1.4-3l1.3-3.1l1.3-3.1l1.3-3.1l1.3-3.2l1.3-3.2l1.3-3.3l1.2-3.3
		l1.2-3.3l1.2-3.4l1.2-3.4l1.2-3.4l1.2-3.5l1.2-3.5l1.2-3.5l1.2-3.6l4.9-15.2l1.3-3.8l1.3-3.8l0.7-1.9l0.7-1.9l0.7-1.9l0.7-1.9
		l0.7-1.9l0.7-1.9l0.7-1.9l0.7-1.8l0.8-1.8l0.8-1.8l0.8-1.8l0.8-1.8l0.8-1.8l0.8-1.8l0.9-1.7l0.9-1.7l0.9-1.7l0.9-1.7l0.9-1.7l1-1.6
		l12.7,131.5l-20.2,5.9l-20.2,6l-20.2,6L845.8,350z M971.8,522.1l26-7.7l0.6-0.2l0.6-0.2l0.6-0.2l0.6-0.2l0.6-0.2l0.6-0.2l0.6-0.3
		l0.6-0.3l0.5-0.3l0.5-0.3l0.5-0.3l0.5-0.3l0.5-0.3l0.5-0.3l0.5-0.3l0.5-0.3l0.4-0.3l0.4-0.4l0.4-0.4l0.4-0.4l0.4-0.4l0.4-0.4
		l0.4-0.4l0.4-0.4l0.4-0.4l0.4-0.4l0.3-0.4l0.3-0.4l0.3-0.4l0.3-0.4l0.3-0.4l0.3-0.4l0.3-0.5l0.3-0.5l0.3-0.5l0.3-0.5l0.2-0.5
		l0.2-0.5l0.5-1l0.4-1l0.4-1l0.4-1l0.3-1l0.3-1l0.3-1.1l0.3-1.1l0.2-1.1l0.2-1.1l0.2-1.1l0.2-1.1l0.1-1.1l0.1-1.1l0.1-1.1l0.1-1.1
		l0-1.1l0-1.1l0-1.1l-0.1-1.1l0-0.5l-0.1-0.5l-0.1-0.5l-0.1-0.5l-0.1-0.5l-0.1-0.5l-0.1-0.5l-0.1-0.5l-0.1-0.5l-0.1-0.5l-0.2-0.5
		l-0.2-0.5l-0.2-0.5l-0.2-0.5l-0.2-0.4l-0.2-0.4l-0.2-0.4l-0.2-0.4l-0.1-0.2l-0.1-0.2l-0.1-0.2l-0.1-0.2l-0.1-0.2l-0.1-0.2l-0.2-0.2
		l-0.2-0.2l-0.2-0.2l-0.2-0.2l-0.2-0.2l-0.2-0.2l-0.2-0.2l-0.2-0.2l-0.2-0.2l-0.2-0.2l-0.2-0.2l-0.2-0.2l-0.2-0.2l-0.2-0.2l-0.2-0.2
		l-0.2-0.2l-0.2-0.2l-0.2-0.1l-0.2-0.1l-0.2-0.1l-0.2-0.1l-0.2-0.1l-0.3-0.1l-0.3-0.1l-0.5-0.3l-0.5-0.2l-0.6-0.2l-0.6-0.2l-0.6-0.2
		l-0.6-0.2l-0.7-0.2l-0.7-0.2l-0.7-0.1l-0.7-0.1l-0.7-0.1l-0.8-0.1l-0.8-0.1l-0.8-0.1l-0.8,0l-0.9,0l-0.9,0l-25.4,7.5l0.3-3l0.3-3
		l0.3-3l0.3-3l0.7-6.3l0.7-6.3l0.7-5.9l0.7-5.9l0.4-3.1l0.4-3.1l0.4-3.1l0.5-3.1l0.5-3l0.5-3l0.5-2.4l0.5-2.4l0.3-1.2l0.3-1.2
		l0.3-1.2l0.3-1.2l0.4-1.6l0.5-1.6l0.5-1.6l0.3-0.8l0.3-0.8l0.3-0.8l0.3-0.8l0.3-0.8l0.3-0.8l0.3-0.6l0.3-0.6l0.3-0.6l0.3-0.6
		l0.2-0.4l0.2-0.4l0.2-0.4l0.1-0.2l0.1-0.2l0.2-0.3l0.2-0.3l0.1-0.1l0.1-0.1l0.1-0.1l0.1-0.1l0.2-0.2l0.2-0.2l0.2-0.2l0.1-0.1
		l0.1-0.1l0.2-0.1l0.2-0.1l0.2-0.1l0.1-0.1l0.1-0.1l0.1-0.1l0.1-0.1l0.2-0.1l0.2-0.1l0.2-0.1l0.3-0.1l0.3-0.1l0.3-0.1l0.3-0.1
		l0.4-0.1l0.4-0.1l0.4-0.1l0.4-0.1l0.5-0.1l0.5-0.1l1-0.2l1-0.1l1-0.1l1.1-0.1l2-0.2l9.7-0.9l2.9-0.2l2.1-0.1l1.1-0.1l1.1-0.1l1.1,0
		l1.1,0l1.1,0l1.1,0l1,0l1,0l1,0l1,0.1l1,0.1l1,0.1l1,0.1l1,0.1l0.9,0.2l0.9,0.2l0.9,0.2l0.9,0.2l0.8,0.2l0.8,0.3l0.8,0.3l0.8,0.3
		l0.8,0.3l0.8,0.4l0.8,0.4l0.8,0.4l0.8,0.5l0.8,0.5l0.8,0.5l0.7,0.5l0.8,0.6l0.8,0.6l0.8,0.7l0.7,0.7l0.8,0.8l0.8,0.8l0.8,0.8
		l0.8,0.9l0.9,1l0.9,1l0.8,1.1l0.8,1.1l0.8,1.1l0.8,1.1l0.7,1.1l0.7,1.1l0.9,1.4l0.9,1.5l0.8,1.5l0.8,1.5l0.8,1.5l0.8,1.5l0.8,1.5
		l0.7,1.5l0.7,1.5l0.7,1.5l0.7,1.5l0.7,1.6l0.6,1.6l0.6,1.6l0.6,1.6l0.6,1.6l0.6,1.6l0.6,1.6l0.5,1.6l0.5,1.7l0.5,1.7l0.5,1.7
		l0.5,1.7l0.5,1.7l0.4,1.6l0.4,1.6l0.4,1.6l0.4,1.6l0.3,1.6l0.3,1.6l0.3,1.6l0.3,1.6l0.3,1.5l0.2,1.5l0.2,1.5l0.2,1.5l0.2,1.5
		l0.2,1.5l0.2,1.5l0.1,1.5l0.1,1.5l0.1,1.5l0.1,1.5l0.1,1.5l0.1,1.5l0.1,1.5l0.1,1.5l0,1.5l0,1.5l0,1.5l0,1.5l0,1.5l0,1.5l0,1.5
		l0,1.5l0,1.5l-0.1,1.6l-0.1,1.6l-0.2,3.1l-0.2,3.1l-0.2,3.1l-0.3,3.1l-0.3,3.1l-0.3,3.1l-0.4,3.1l-0.3,2.8l-0.4,2.8l-0.4,2.8
		l-0.4,2.8l-0.4,2.8l-0.5,2.8l-0.5,2.8l-0.5,2.8l-0.6,2.7l-0.3,1.4l-0.3,1.4l-0.3,1.4l-0.3,1.4l-0.3,1.4l-0.3,1.3l-0.3,1.3l-0.4,1.3
		l-0.4,1.3l-0.4,1.3l-0.4,1.3l-0.4,1.3l-0.4,1.3l-0.4,1.3l-0.4,1.2l-0.4,1.2l-0.5,1.2l-0.5,1.2l-0.5,1.2l-0.5,1.2l-0.5,1.2l-0.5,1.2
		l-0.7,1.4l-0.7,1.4l-0.7,1.4l-0.7,1.4l-0.6,1l-0.6,1l-0.6,1l-0.6,1l-0.6,1l-0.7,1l-0.7,1l-0.7,0.9l-0.7,0.9l-0.7,0.9l-0.7,0.9
		l-0.7,0.9l-0.7,0.8l-0.8,0.8l-0.8,0.8l-0.8,0.8l-0.8,0.8l-0.8,0.7l-0.8,0.7l-0.8,0.7l-0.9,0.7l-0.9,0.7l-0.9,0.7l-0.9,0.6l-0.9,0.6
		l-0.9,0.6l-0.9,0.6l-0.9,0.5l-1,0.5l-1,0.5l-1,0.5l-1,0.5l-1,0.4l-1,0.4l-1,0.4l-1,0.4l-1,0.3l-1,0.3l-1,0.3l-1,0.3l-1.4-0.2
		l-1.4-0.2l-1.4-0.1l-1.4-0.1l-4.4-0.4l-1.1-0.1l-1.1-0.1l-1-0.1l-1-0.1l-0.6-0.1l-0.6-0.1l-0.7-0.2l-0.4-0.1l-0.4-0.1l-0.3-0.1
		l-0.3-0.1l-0.3-0.1l-0.3-0.1l-0.3-0.1l-0.3-0.1l-0.3-0.1l-0.3-0.1l-0.3-0.2l-0.3-0.2l-0.3-0.2l-0.3-0.2l-0.3-0.2l-0.3-0.2l-0.3-0.2
		l-0.3-0.2l-0.3-0.3l-0.3-0.3l-0.3-0.3l-0.3-0.3l-0.3-0.3l-0.3-0.3l-0.5-0.6l-0.5-0.6l-0.5-0.6l-0.7-1l-0.7-1l-0.7-1l-0.7-1
		l-0.8-1.2l-0.7-1.2l-0.7-1.2l-0.7-1.2l-1-1.9l-1-1.9l-1-1.9l-0.9-1.9l-0.7-1.5l-0.7-1.6l-0.7-1.6l-0.7-1.6l-0.7-1.6L985,571
		l-0.6-1.6l-0.6-1.6l-0.8-2.1l-0.8-2.1l-0.8-2.1l-0.8-2.1l-0.5-1.5l-0.5-1.5l-0.5-1.5l-0.5-1.5l-0.5-1.5l-0.5-1.5l-0.4-1.5l-0.4-1.5
		l-0.4-1.4l-0.4-1.5l-0.4-1.5l-0.4-1.5l-0.3-1.5l-0.3-1.5l-0.3-1.5l-0.3-1.5l-0.3-1.4l-0.3-1.4l-0.3-1.4l-0.2-1.4l-0.2-1.4l-0.2-1.4
		l-0.2-1.4l-0.2-1.4L971.8,522.1z"/>
</g>
</svg>
