<?xml version="1.0" encoding="utf-8"?>
<!-- Generator: Adobe Illustrator 21.1.0, SVG Export Plug-In . SVG Version: 6.00 Build 0)  -->
<svg version="1.1" id="Слой_1" xmlns="http://www.w3.org/2000/svg" xmlns:xlink="http://www.w3.org/1999/xlink" x="0px" y="0px"
	 viewBox="0 0 1123.5 794" style="enable-background:new 0 0 1123.5 794;" xml:space="preserve">
<style type="text/css">
	.st0{fill:none;stroke:#FFFFFF;stroke-width:0.7087;stroke-linecap:round;stroke-linejoin:round;stroke-miterlimit:10;}
	.st1{fill-rule:evenodd;clip-rule:evenodd;fill:#FFFFFF;}
	.st2{fill:none;stroke:#ED6720;stroke-width:0.7087;stroke-linecap:round;stroke-linejoin:round;stroke-miterlimit:10;}
	.st3{fill-rule:evenodd;clip-rule:evenodd;fill:#ED6720;}
</style>
<g id="POLYLINE_415_">
	<path class="st0" d="M152.8,359.1c-0.5,9.5-0.8,19.1-0.7,28.6c0,0,6.6,0,6.6,0l6.6,0l6.6,0l6.6,0l13.2,0l13.2,0l13.2,0.1l13.2,0.1
		l13.2,0.1l13.2,0.2l14.1,0.2l14.1,0.2l14.1,0.2l14.1,0.2l14.1,0.3l14.1,0.3l28.2,0.6l28.2,0.6l28.2,0.6l14.1,0.3l14.1,0.3l14.1,0.2
		l14.1,0.2l14.1,0.2l14.1,0.2l14.1,0.2l14.1,0.1l14.1,0.1l7,0l7,0l7,0l7,0l7,0l7,0L608,393l11.9-0.1l11.9-0.1l11.9-0.1l7.5-0.1
		l7.5-0.1l7.5-0.1l7.5-0.1l7.5-0.2l7.5-0.2l15-0.4l15-0.4l15-0.4l15-0.4l15-0.4l44.9-1.4l15-0.4l15-0.4l15-0.4l15-0.4l7.5-0.2
		l7.5-0.2l7.5-0.2l7.5-0.1l7.5-0.1l7.5-0.1l7.5-0.1l7.5-0.1l7.5-0.1l7.5-0.1l9.9-0.1l9.9,0l11.6,0l11.6,0c0.2-5.4,0.5-10.8,0.9-16.2
		c0,0-10.4-0.5-10.4-0.5l-10.4-0.5l-10.4-0.4l-10.4-0.4l-10.4-0.4l-10.4-0.4l-10.4-0.4l-10.4-0.4l-9.7-0.3l-9.7-0.3l-9.7-0.3
		l-9.7-0.3l-9.7-0.3L845,364l-9.7-0.2l-9.7-0.2l-9.2-0.2l-9.2-0.2l-9.2-0.2l-9.2-0.2l-9.1-0.2l-9.1-0.1l-9.1-0.1l-9.1-0.1l-9.1-0.1
		l-9.1-0.1l-18.3-0.2l-11.4-0.1l-11.4-0.1l-11.4-0.1l-11.4-0.1l-11.4-0.1l-11.4,0l-22.8-0.1l-22.8,0l-22.8,0l-22.8,0l-68.5,0
		l-22.8,0l-22.8,0l-22.8,0l-22.8,0l-22.8-0.1l-11.4-0.1l-11.4-0.1l-17.4-0.1l-17.4-0.1l-17.4-0.2l-17.4-0.2l-13.1-0.2l-38.5-0.5
		l-12.7-0.2l-12.7-0.1l-12.7-0.1l-12.7-0.1l-6.3,0l-6.3,0l-6.3,0L152.8,359.1"/>
</g>
<g id="HATCH_221_">
	<polygon class="st1" points="902.8,127.6 902.1,118.3 908.9,118.5 877.8,110 815.8,93 784.8,84.4 746.1,73.7 707.4,63.1 688,57.7 
		668.7,52.3 649.3,47 630,41.6 608,35.4 601,33.5 597.4,32.4 593.9,31.4 590.3,30.4 586.8,29.3 583.2,28.2 579.6,27.1 576.1,26 
		572.6,24.8 569,23.6 567.3,23 565.5,22.4 563.8,21.8 562,21.1 560.3,20.5 558.5,19.8 547.8,22.6 537.2,25.5 526.5,28.3 515.8,31.2 
		505.2,34 494.5,36.9 483.9,39.8 473.2,42.7 464.2,45.1 455.3,47.6 446.3,50.1 437.4,52.6 428.4,55.1 419.4,57.6 410.5,60.1 
		401.5,62.7 393.9,64.9 386.3,67 378.6,69.3 371,71.5 363.3,73.7 355.7,75.9 348.1,78.2 340.5,80.5 328,84.2 315.6,87.9 304.4,91.3 
		298.7,93 293.1,94.6 286.9,96.5 280.6,98.3 274.4,100.1 268.1,101.9 261.5,103.7 255,105.6 248.4,107.4 241.9,109.2 231.7,112 
		221.6,114.7 221,121.6 231.1,121.7 241.3,121.8 281.9,122.4 302.2,122.7 317.4,122.8 332.6,123 347.9,123.1 363.1,123.2 
		378.3,123.3 393.5,123.3 408.7,123.4 424,123.4 439.2,123.4 454.4,123.5 484.9,123.5 576.2,123.4 606.6,123.4 621.9,123.4 
		637.1,123.5 652.3,123.5 667.5,123.6 682.7,123.6 698,123.7 713.2,123.8 728.4,123.9 743.6,124.1 758.8,124.3 774,124.5 
		789.3,124.7 803.5,124.9 817.7,125.2 831.9,125.5 839,125.7 846.1,125.8 853.2,126 860.3,126.2 867.4,126.4 874.4,126.6 
		881.5,126.8 888.6,127.1 895.7,127.3 	"/>
</g>
<g id="HATCH_222_">
	<polygon class="st1" points="178.3,351.3 187.8,351.4 197.3,351.4 206.9,351.5 216.4,351.7 235.4,351.9 267.6,352.4 280.7,352.5 
		298.1,352.7 315.5,352.9 332.9,353 350.2,353.2 361.7,353.2 373.1,353.3 395.9,353.4 418.7,353.4 441.6,353.4 464.4,353.4 
		487.2,353.4 555.7,353.4 578.6,353.4 601.4,353.4 624.2,353.4 647.1,353.5 658.5,353.5 669.9,353.6 681.3,353.7 692.7,353.7 
		704.2,353.8 715.6,353.9 733.9,354.1 743,354.2 752.1,354.3 761.3,354.4 770.4,354.6 779.6,354.7 788.7,354.9 797.9,355 
		807.2,355.2 816.4,355.4 825.7,355.6 835.5,355.9 845.2,356.1 855,356.4 864.7,356.6 874.5,356.9 884.2,357.2 894,357.6 
		903.8,357.9 912.1,358.2 920.3,358.5 928.6,358.8 936.9,359.1 953.5,359.8 970.1,360.5 966.4,359.5 956.5,356.6 946.7,353.8 
		936.8,351.1 926.9,348.3 917,345.6 787,309.8 744.2,298 722.8,292.1 701.4,286.2 679.9,280.3 658.4,274.3 636.9,268.3 609.2,260.6 
		603,258.8 596.7,257.1 593.6,256.1 590.5,255.2 586.5,254 582.5,252.8 580.5,252.2 578.5,251.5 576.5,250.9 574.6,250.2 
		572.6,249.6 570.6,248.9 568.6,248.2 566.7,247.5 564.7,246.8 562.7,246.1 560.8,245.3 558.8,244.6 544.6,248.3 530.5,252.1 
		516.3,255.9 502.2,259.7 488,263.5 473.9,267.3 459.7,271.2 445.6,275.1 434.4,278.2 423.2,281.3 412.1,284.5 400.9,287.7 
		389.7,290.9 378.5,294.1 367.4,297.3 356.2,300.6 349,302.7 341.9,304.8 334.7,307 327.5,309.1 305,315.9 297.2,318.2 289.4,320.5 
		281.6,322.8 273.6,325.1 265.6,327.4 257.6,329.6 249.6,331.9 242.1,334 234.6,336 219.5,340.1 187.1,348.9 	"/>
</g>
<g id="POLYLINE_416_">
	<path class="st0" d="M994.1,385.5l14.3,0.1l14.1,0.1l13.7,0.1l13,0.2l12.2,0.2l11.1,0.2l9.8,0.2l8.3,0.2l9.2,0l3.9,0l-0.1-1.5
		l-0.1-1.5l-0.1-1.5l-0.1-1.5l0-1.7l0-1.7l0-1.7l0-1.7l0.1-5.4l0-1.7l0-1.7l0-1.1l0-1.1l-0.1-2.2l-0.1-2.6l-0.3-5.3l-0.1-2.7
		l-0.1-1.3l0-1.3l0-1.3l0-1.3l0-2.4l0-2.4l0.1-9.6l0-4.7l-0.1-10.2l-11.5-0.2l-11.5-0.1l-11.5-0.1l-11.5-0.1l-11.5-0.1l-11.5,0
		l-11.5,0l-11.5,0l-11.5,0l-11.5,0l-23.1,0l-46.2,0.2l-9.4,0c-23.9,0.1-47.9,0.1-71.8,0.1c0,0,88.5,24.4,88.5,24.4l10.1,2.8
		l10.1,2.8l10.1,2.8l10,2.8l5,1.4l5,1.4l1.8,0.5l1.8,0.5l1.8,0.6l0.9,0.3l0.9,0.3l0.8,0.3l0.8,0.3l0.8,0.3l0.8,0.3l0.8,0.3l0.8,0.3
		l0.8,0.4l0.8,0.4l0.8,0.4l0.8,0.4l0.8,0.4l0.8,0.4l0.8,0.5l0.8,0.5l0.7,0.5l0.7,0.5C994.5,370.1,994.2,377.8,994.1,385.5"/>
</g>
<g id="POLYLINE_417_">
	<polyline class="st0" points="178.3,351.3 187.8,351.4 197.3,351.4 206.9,351.5 216.4,351.7 235.4,351.9 267.6,352.4 280.7,352.5 
		298.1,352.7 315.5,352.9 332.9,353 350.2,353.2 361.7,353.2 373.1,353.3 395.9,353.4 418.7,353.4 441.6,353.4 464.4,353.4 
		487.2,353.4 555.7,353.4 578.6,353.4 601.4,353.4 624.2,353.4 647.1,353.5 658.5,353.5 669.9,353.6 681.3,353.7 692.7,353.7 
		704.2,353.8 715.6,353.9 733.9,354.1 743,354.2 752.1,354.3 761.3,354.4 770.4,354.6 779.6,354.7 788.7,354.9 797.9,355 
		807.2,355.2 816.4,355.4 825.7,355.6 835.5,355.9 845.2,356.1 855,356.4 864.7,356.6 874.5,356.9 884.2,357.2 894,357.6 
		903.8,357.9 912.1,358.2 920.3,358.5 928.6,358.8 936.9,359.1 953.5,359.8 970.1,360.5 966.4,359.5 956.5,356.6 946.7,353.8 
		936.8,351.1 926.9,348.3 917,345.6 787,309.8 744.2,298 722.8,292.1 701.4,286.2 679.9,280.3 658.4,274.3 636.9,268.3 609.2,260.6 
		603,258.8 596.7,257.1 593.6,256.1 590.5,255.2 586.5,254 582.5,252.8 580.5,252.2 578.5,251.5 576.5,250.9 574.6,250.2 
		572.6,249.6 570.6,248.9 568.6,248.2 566.7,247.5 564.7,246.8 562.7,246.1 560.8,245.3 558.8,244.6 544.6,248.3 530.5,252.1 
		516.3,255.9 502.2,259.7 488,263.5 473.9,267.3 459.7,271.2 445.6,275.1 434.4,278.2 423.2,281.3 412.1,284.5 400.9,287.7 
		389.7,290.9 378.5,294.1 367.4,297.3 356.2,300.6 349,302.7 341.9,304.8 334.7,307 327.5,309.1 305,315.9 297.2,318.2 289.4,320.5 
		281.6,322.8 273.6,325.1 265.6,327.4 257.6,329.6 249.6,331.9 242.1,334 234.6,336 219.5,340.1 187.1,348.9 178.3,351.3 	"/>
</g>
<g id="POLYLINE_418_">
	<path class="st0" d="M20.7,315.6l0,5.4l0,5.4l0,5l0,7.6l0,2.6l0,2.6l0,1.3l0,1.3l0,1.4l-0.1,1.4l-0.1,1.4l-0.1,1.4l-0.2,2.8
		l-0.2,2.8l-0.1,2.7l-0.1,1.3l0,1.3l0,1.6l0,1.6l0,1.3l0,1.3l0.1,5.2l0,2.5l0,1.6l0,1.6l0,1.4l-0.1,1.4l-0.1,1.9l-0.1,1.9l-0.3,4.4
		l3.9-0.2l9.6-0.4l7-0.3l7-0.3l7-0.2l7-0.2l7-0.2l7-0.2l7-0.2l7-0.2l7-0.2l7-0.1l7-0.1l7-0.1l7-0.1l7-0.1l7-0.1l7-0.1l0-4.4l0-4.4
		l0.1-4.4l0.1-2.2l0.1-2.2l0.1-2.2l0.1-2.2l0.1-2.2l0.1-2.2l0.1-2.2l0.1-2.2l0.1-2.2l0.2-2.2l5-1.4l5-1.4l5-1.4l5-1.4l5-1.4l5-1.4
		l9.9-2.7l32.4-8.8l15-4.1l7.5-2.1l7.5-2.1l7.9-2.2l7.9-2.2l7.9-2.2l7.8-2.3c-21.4,0-42.8-0.1-64.2-0.1c0,0-9.4,0-9.4,0l-46.2-0.2
		l-23.1,0l-11.5,0l-11.5,0l-11.5,0l-11.5,0l-11.5,0l-11.5,0.1l-11.5,0.1l-11.5,0.1l-11.5,0.1L20.7,315.6"/>
</g>
<g id="POLYLINE_419_">
	<polyline class="st0" points="902.8,127.6 902.1,118.3 908.9,118.5 877.8,110 815.8,93 784.8,84.4 746.1,73.7 707.4,63.1 688,57.7 
		668.7,52.3 649.3,47 630,41.6 608,35.4 601,33.5 597.4,32.4 593.9,31.4 590.3,30.4 586.8,29.3 583.2,28.2 579.6,27.1 576.1,26 
		572.6,24.8 569,23.6 567.3,23 565.5,22.4 563.8,21.8 562,21.1 560.3,20.5 558.5,19.8 547.8,22.6 537.2,25.5 526.5,28.3 515.8,31.2 
		505.2,34 494.5,36.9 483.9,39.8 473.2,42.7 464.2,45.1 455.3,47.6 446.3,50.1 437.4,52.6 428.4,55.1 419.4,57.6 410.5,60.1 
		401.5,62.7 393.9,64.9 386.3,67 378.6,69.3 371,71.5 363.3,73.7 355.7,75.9 348.1,78.2 340.5,80.5 328,84.2 315.6,87.9 304.4,91.3 
		298.7,93 293.1,94.6 286.9,96.5 280.6,98.3 274.4,100.1 268.1,101.9 261.5,103.7 255,105.6 248.4,107.4 241.9,109.2 231.7,112 
		221.6,114.7 221,121.6 231.1,121.7 241.3,121.8 281.9,122.4 302.2,122.7 317.4,122.8 332.6,123 347.9,123.1 363.1,123.2 
		378.3,123.3 393.5,123.3 408.7,123.4 424,123.4 439.2,123.4 454.4,123.5 484.9,123.5 576.2,123.4 606.6,123.4 621.9,123.4 
		637.1,123.5 652.3,123.5 667.5,123.6 682.7,123.6 698,123.7 713.2,123.8 728.4,123.9 743.6,124.1 758.8,124.3 774,124.5 
		789.3,124.7 803.5,124.9 817.7,125.2 831.9,125.5 839,125.7 846.1,125.8 853.2,126 860.3,126.2 867.4,126.4 874.4,126.6 
		881.5,126.8 888.6,127.1 895.7,127.3 902.8,127.6 	"/>
</g>
<g id="POLYLINE_420_">
	<path class="st0" d="M908.7,305.9L908.7,305.9l0-3.9l0.1-3.8l0-2.1l0-2.1l0-1.3l0-1.3l-0.1-1.8l-0.1-1.8l-0.1-1.8l-0.1-1.8
		l-0.1-1.8l-0.2-1.8l-0.2-1.9l-0.2-1.9l-0.4-3.7l-0.8-7.8L906,261l-0.4-4.2l-0.4-4.2l-0.3-4.2l-0.2-2.1l-0.2-2.1l-0.1-2.1l-0.1-2.1
		l-0.1-1.9l-0.1-1.9l-0.2-3.8l-0.1-3.8l-0.1-3.8l-0.1-4.1l-0.1-4.1l0-4.1l0-4.1l0-4.1l0-4.1l0.1-8.1l0.2-16l0-4l0-4l0-4l0-4l0-3.1
		l0-3.1l0-3.1l-0.1-3.1l-0.1-3.1l-0.1-3.1l-0.1-3.1l-0.1-3.1l-7.1-0.3L889,135l-7.1-0.2l-7.1-0.2l-7.1-0.2l-7.1-0.2l-7.1-0.2
		l-7.1-0.2l-7.1-0.2l-7.1-0.2l-14.3-0.3l-14.3-0.3l-14.3-0.2l-15.2-0.2l-15.2-0.2l-15.2-0.2l-15.2-0.1l-15.2-0.1l-15.2-0.1
		l-15.2-0.1l-15.2-0.1l-15.2-0.1l-15.2,0l-15.2,0l-15.2,0l-30.4,0l-91.3,0.1l-30.4,0l-15.2,0l-15.2,0l-15.2,0l-15.2,0l-15.2-0.1
		l-15.2-0.1l-15.2-0.1l-15.2-0.1l-15.2-0.1l-15.2-0.2l-20.5-0.3l-40.9-0.6l-10.2-0.1l-10.2-0.1l-0.1,2.3l-0.1,2.3l-0.1,2.3l-0.1,2.3
		l-0.1,2.1l-0.1,2.1l-0.1,2.1l-0.1,2.1l-0.1,4.2l-0.1,4.2l0,4.2l0,4.2l0,4.2l0,4.2l0.1,8.5l0.1,8.5l0.1,8.6l0,4.3l0,4.3l0,4.3l0,4.3
		l-0.1,4.3l-0.1,4.3l-0.1,4.1l-0.1,4.1l-0.1,2l-0.1,2l-0.1,2l-0.1,2l-0.1,2.1l-0.1,2.1l-0.2,2.1l-0.2,2.1l-0.3,4.2l-0.4,4.2
		l-0.4,4.2l-0.4,4.2L216,273l-0.4,3.7l-0.2,1.9l-0.2,1.9l-0.2,1.8l-0.1,1.8l-0.1,1.8l-0.1,1.8l-0.1,1.6l-0.1,1.6l0,1.6l0,1.6l0,2.1
		l0,2.1l0.1,3.8l0,3.8l0,0.1c32,0.1,64,0.1,96,0c0,0,14.6-4.4,14.6-4.4l7.2-2.2l7.2-2.2l7.2-2.1l7.2-2.1l11.2-3.3l11.2-3.3l11.2-3.2
		l11.2-3.2l11.2-3.2l11.3-3.2l11.3-3.1l11.3-3.1l14.2-3.9l14.2-3.9l14.2-3.9l14.2-3.8l14.3-3.8l14.3-3.8l14.3-3.8l14.3-3.8l1.3-0.3
		l1.2,0.5l2,0.8l2,0.8l2,0.7l2,0.7l2,0.7l2,0.7l2,0.7l2,0.7l2,0.7l2,0.7l2,0.7l2,0.6l4.1,1.3l4.1,1.2l4.6,1.3l4.6,1.3l4.6,1.3
		l4.6,1.3l17.5,4.9l17.5,4.9l35,9.7l30.3,8.4l30.3,8.4l30.3,8.4l30.3,8.3l13.3,0.1l13.3,0l13.3,0l13.3,0l13.3,0l13.3,0L908.7,305.9"
		/>
</g>
<g id="SPLINE_56_">
	<path class="st0" d="M33.1,708.2c196.3-7.6,394.1,5,591.3,2.7c106.6-1.2,213-6.8,319.6-7.3c48.7-0.2,97.5,0.6,146.4,0.9"/>
</g>
<g id="POLYLINE_421_">
	<polyline class="st0" points="1090.3,704.4 1090.4,694.8 1090.5,685.2 1090.6,675.5 1090.7,665.9 1090.8,656.3 1090.8,646.7 
		1090.9,637.1 1090.9,627.4 1090.9,617.8 1090.9,608.2 1090.9,588.9 1090.8,569.6 1090.8,550.3 1090.6,511.8 1090.5,492.5 
		1090.5,473.2 1090.4,453.9 1090.4,444.2 1090.4,434.6 1090.4,424.9 1090.5,415.3 1090.5,405.6 1090.5,396 1090.6,394.2 
		1078.3,394.1 1066,394 1029.1,393.7 1016.8,393.6 1004.5,393.5 992.2,393.4 984.9,393.4 977.6,393.4 970.3,393.3 963,393.4 
		953.2,393.4 943.3,393.4 935.9,393.5 928.4,393.6 920.9,393.7 913.4,393.8 905.9,393.9 898.4,394 890.9,394.2 883.5,394.3 
		876,394.5 868.5,394.7 853.5,395.1 838.5,395.5 823.6,395.9 808.6,396.3 748.7,398.1 733.7,398.6 718.7,399 703.8,399.4 
		688.8,399.7 681.3,399.9 673.8,400.1 666.3,400.2 658.8,400.3 651.3,400.5 643.8,400.6 631.9,400.7 620,400.9 608.1,400.9 
		596.2,401 589.1,401 582.1,401 575,401 568,401 560.9,401 553.9,400.9 539.7,400.8 525.6,400.7 511.5,400.6 497.4,400.4 
		483.3,400.2 469.2,400 455.1,399.7 441,399.5 426.9,399.2 398.7,398.6 370.5,398.1 342.3,397.5 328.2,397.2 314.1,397 300,396.7 
		286,396.5 271.9,396.3 257.8,396.1 243.7,396 229.6,395.8 215.6,395.7 201.5,395.6 194.5,395.6 187.4,395.6 180.4,395.6 
		173.4,395.6 166.3,395.6 159.3,395.7 152.3,395.7 145.2,395.8 138.2,395.8 131.2,395.9 124.1,396 117.1,396.1 110.1,396.2 
		103.1,396.3 96,396.5 89,396.6 82,396.8 74.9,397 67.9,397.2 60.9,397.4 53.8,397.6 46.8,397.9 39.8,398.2 32.8,398.4 32.8,400.1 
		32.8,409.8 32.8,419.4 32.9,429 32.9,438.7 32.9,448.3 32.9,458 32.8,477.2 32.7,496.5 32.7,515.8 32.5,554.3 32.4,573.6 
		32.4,592.8 32.4,602.5 32.4,612.1 32.4,621.7 32.4,631.3 32.4,640.9 32.5,650.5 32.5,660.2 32.6,669.8 32.7,679.4 32.8,689 
		32.9,698.6 33.1,708.2 	"/>
</g>
<g id="POLYLINE_422_">
	<path class="st0" d="M33.2,716.1c0.1,6.6,0.3,13.2,0.4,19.9c0,0,0.2,8.4,0.2,8.4l0.1,4.2l0.1,4.2l0.2,4.2l0.2,4.1l0.2,4.1l0.2,4.1
		l9.7,0l9.7,0.1l9.7,0.1l9.7,0.1l13.1,0.1l13.1,0.1l14.8,0.2l14.8,0.2l29.6,0.4l71.4,1l41.7,0.6l20.8,0.3l20.8,0.3l23.2,0.3
		l23.2,0.3l23.2,0.3l23.2,0.2l23.2,0.2l23.2,0.2l23.2,0.2l23.2,0.2l23.2,0.1l23.2,0.1l23.2,0.1l23.2,0.1l29.5,0.1l29.5,0l29.5,0
		l29.5,0l14.7,0l14.7,0l14.7,0l14.7,0l14.7-0.1l14.7-0.1l14.7-0.1l14.7-0.1l16.3-0.1l16.3-0.1l16.3-0.1l16.3-0.1l16.3-0.2l16.3-0.2
		l16.3-0.2l16.3-0.2l16.3-0.2l16.3-0.2l16.3-0.2l16.3-0.2l16.3-0.2l16.3-0.3l16.3-0.3l16.3-0.3l0.1-2.2l0.1-2.2l0.2-4.4l0.2-4.4
		l0.2-4.4l0.1-4.4l0.1-4.5l0.1-4.5l0.1-4.5c0.2-7.9,0.3-15.8,0.5-23.7"/>
</g>
<g id="SPLINE_57_">
	<path class="st0" d="M33.2,716.1c21.8-0.8,43.7-1.4,65.6-1.8c24.9-0.4,49.9-0.6,74.8-0.6c50,0,100,0.8,150,1.7
		c50.1,1,100.2,2.1,150.4,2.8c50.2,0.8,100.3,1.1,150.5,0.5c26.7-0.3,53.4-0.9,80-1.6c26.6-0.7,53.3-1.5,79.9-2.3
		c26.6-0.8,53.2-1.6,79.8-2.2c26.6-0.6,53.2-1.1,79.8-1.2c25.9-0.1,51.8,0.1,77.7,0.3c22.8,0.2,45.7,0.5,68.5,0.6"/>
</g>
<g id="HATCH_223_">
	<path class="st1" d="M190.5,126.3l0.1,0.2l0.1,0.2l0.1,0.2l0.1,0.2l0.1,0.2l0.1,0.2l0.1,0.2l0.1,0.2l0.1,0.2l0.1,0.1l0.1,0.1
		l0.1,0.1l0.1,0.1l0.1,0.1l0.1,0.1l0.1,0.1l0.1,0.1l0.1,0.1l0.1,0.1l0.2,0.1l0.3,0.2l0.3,0.2l0.3,0.2l0.3,0.2l0.3,0.2l0.3,0.2
		l0.6,0.3l1.2,0.5l0.6,0.3l0.3,0.1l0.3,0.1l0.3,0.1l0.1,0.1l0.1,0.1l0.1,0.1l0.1,0.1l0.1,0.1l0.1,0.1l0.1,0.1l0.1,0.1l0.1,0.1
		l0.1,0.1l0.1,0.1l0.1,0.1l0.1,0.1l0.1,0.1l0.1,0.1l0.1,0.1l0.1,0.1l0.1,0.1l0.1,0.1l0.1,0.1l0.1,0.1l0.1,0.1l0.1,0.1l0.1,0.1
		l0.1,0.1l0.1,0.2l0,0.2l0,0.2l0,0.2l0,0.2l0,0.2l0,0.2l0.1,0.4l0.1,0.4l0,0.4l0,0.4l0,0.5l0,1l0,1.1l0,1.2l0,1.4l-0.1,3.1l-0.2,5.6
		l0,2.3l0,3l0,3.8l0,5l0.1,5.8l0.2,21l0.1,7.8l0,3.9l0,3.9l0,3.9l0,3.9l0,3.8l-0.1,3.8L201,227l-0.1,3.8l-0.1,2.8l-0.1,2.8l-0.2,2.8
		l-0.2,2.8l-0.3,3.7l-0.3,3.7l-0.3,3.7l-0.3,3.7l-0.4,3.8l-0.4,3.8l-0.8,7.1l-0.4,3.6l-0.2,1.8l-0.2,1.8l-0.2,1.8l-0.1,1.8l-0.1,1.8
		l-0.1,1.8l-0.1,1.8l-0.1,1.8l-0.1,1.8l0,1.8l0,1.9l0,1.9l-23.1-0.1l-23.1-0.1l-11.5,0l-11.5,0l-11.5,0l-11.5,0l-11.5,0l-11.5,0
		L69,296.5l-11.5,0.1l-11.5,0.1l-11.5,0.1L22.8,297l-11.5,0.2l-9.2,0.2l0.1,9.2l0,3.1l0,3.1l-0.1,13l0,3.4l0,3.4l0,6.7l0,3.2l0,1.6
		l0,1.6l0,1.6l-0.1,1.6L2,350.7l-0.1,1.8l-0.2,3.8l-0.1,1.9l-0.1,1.9l-0.1,2l0,2l0,2.1l0,1.8l0,1.8l0.1,3.6l0,2.5l0,1.3l0,1.3l0,1.6
		l-0.1,1.6L1.2,383l-0.1,1.3l-0.4,5.2l-0.1,1.4l-0.1,1.4l-0.1,1.8l-0.1,1.8l0,1.3l0,1.3l0,2.6l0.1,9.6l9.6-0.5l4.2-0.2l0,10.2
		l0,10.2l0,10.2l0,10.2l0,20.4l-0.1,20.4L14,552.6L13.9,573l-0.1,20.4l0,10.2l0,10.2l0,10.2l0,10.2l0,10.2l0.1,10.2l0.1,10.2
		l0.1,10.2l0.1,10.2l0.1,10.2l0.1,10.2l0.2,10.2l0.2,10.2l0.2,10.2l0.1,5.3l0.1,5.3l0.2,5.3l0.2,5.3l0.1,2.7l0.1,2.7l0.1,2.7
		l0.1,2.7l0.2,2.7l0.2,2.7l0.2,2.7l0.2,2.7l0.7,8.5l8.6,0l9.4,0l9.4,0l9.4,0.1l9.4,0.1l13.7,0.1l13.7,0.1l15.7,0.2l15.7,0.2
		l31.5,0.4l73.5,1l41.8,0.6l41.8,0.5l23.2,0.3l23.2,0.3l23.2,0.3l23.2,0.2l19.5,0.2l19.5,0.2l19.5,0.2l19.5,0.1l26.9,0.2l26.9,0.2
		l26.9,0.1l26.9,0.1l30,0.1l30,0.1l15,0l15,0l15,0l15,0l15,0l15,0l15,0l15-0.1l15-0.1l15-0.1l15-0.1l15-0.1l16.7-0.1l16.7-0.1
		l16.7-0.1l16.7-0.1l16.7-0.2l16.7-0.2l16.7-0.2l16.7-0.2l16.7-0.2l16.7-0.2l16.7-0.2l16.7-0.2l16.7-0.3l16.7-0.3l16.7-0.3l16.7-0.3
		l8.4-0.2l0.7-8.3l0.2-2.8l0.2-2.8l0.2-2.8l0.2-2.8l0.2-2.8l0.1-2.8l0.1-2.8l0.1-2.8l0.1-2.8l0.1-2.8l0.2-5.6l0.2-5.6l0.1-5.6
		l0.2-10.3l0.2-10.4l0.2-10.4l0.1-10.4l0.1-10.4l0.1-10.4l0.1-10.4l0.1-10.4l0-10.4l0-10.4l0-10.4l0-10.4l0-10.4l0-10.4l-0.1-20.7
		L1109,488l-0.1-20.7l0-10.3l0-10.3l0-10.3l0-10.3l0-10.3l0-10.3l4.6,0l9.5,0l-0.2-9.5l-0.1-1.8l-0.1-1.8l-0.1-1.3l-0.1-1.3
		l-0.4-5.1l-0.1-1.3l-0.1-1.3l-0.1-1.4l0-1.4l0-0.9l0-0.9l0-1.9l0.1-7.2l0-2.4l0-1.2l0-1.2l-0.1-1.9l-0.1-1.9l-0.1-1.9l-0.3-5.3
		l-0.1-1.7l-0.1-1.7l-0.1-1.5l0-1.5l0-1.5l0-1.5l0-3.1l0.1-9.4l0-3.1l0-3.1l-0.1-12.1l0-2.9l0-2.9l0.1-9.2l-9.2-0.2l-11.5-0.2
		l-11.5-0.2l-11.5-0.1l-11.5-0.1l-11.5-0.1l-11.5-0.1l-11.5,0l-11.5,0l-11.5,0l-11.5,0l-11.5,0l-11.5,0l-23.1,0.1l-23.1,0.1l0-1.9
		l0-1.9l0-1.8l-0.1-1.8l-0.1-1.8l-0.1-1.8l-0.1-1.8l-0.1-1.8l-0.1-1.8l-0.2-1.8l-0.2-1.8l-0.2-1.8l-0.4-3.6l-0.8-7.1l-0.4-3.8
		l-0.4-3.8l-0.3-3.7l-0.3-3.7l-0.3-3.7l-0.3-3.7l-0.2-2.7l-0.1-2.7l-0.1-2.7l-0.1-2.7l-0.1-3.6l-0.1-3.6l-0.1-3.6l-0.1-3.6l0-3.7
		l0-3.7l0-3.7l0-3.7l0.1-7.4l0.2-13.6l0.1-6.3l0-6.3l0-3.1l0-3.1l0-3.1l0-3.1l0-3.1l0-3.1l-0.1-3.1l-0.1-3.1l-0.1-3.1l-0.1-3.1
		l1.9,0.1l1.8,0l1.7,0l0.8,0l0.8,0l0.8,0l0.7,0l0.7,0l0.7-0.1l0.7-0.1l0.6-0.1l0.6-0.1l0.6-0.1l0.6-0.1l0.6-0.1l0.5-0.1l0.5-0.1
		l0.5-0.1l0.5-0.1l0.5-0.1l0.5-0.1l0.4-0.1l0.4-0.1l0.4-0.2l0.4-0.2l0.4-0.2l0.4-0.2l0.3-0.2l0.3-0.2l0.3-0.2l0.3-0.2l0.3-0.2
		l0.3-0.2l0.3-0.2l0.2-0.2l0.2-0.2l0.2-0.2l0.2-0.2l0.2-0.2l0.2-0.2l0.2-0.2l0.2-0.2l0.2-0.2l0.1-0.2l0.1-0.2l0.1-0.2l0.1-0.2
		l0.1-0.2l0.1-0.2l0.1-0.2l0.1-0.2l0.1-0.2l0.1-0.2l0.1-0.2l0.1-0.2l0.1-0.5l0.1-0.4l0.1-0.4l0.1-0.4l0.1-0.4l0.1-0.4l0.1-0.4
		l0.1-0.4l0-0.4l0-0.4l0-0.4l0-0.4l0-0.4l0-0.4l0-0.4l0-0.4l0-0.3l0-0.3l0-0.3l0-0.3l0-0.3l-0.1-0.3l-0.1-0.3l-0.1-0.3l-0.1-0.3
		l-0.1-0.3l-0.1-0.3l-0.1-0.3l-0.1-0.3l-0.1-0.3l-0.1-0.3l-0.1-0.3l-0.1-0.3l-0.1-0.3l-0.1-0.3l-0.1-0.3l-0.2-0.3l-0.2-0.3l-0.2-0.3
		l-0.2-0.3l-0.2-0.3l-0.2-0.3l-0.2-0.3l-0.2-0.3l-0.2-0.3l-0.2-0.3l-0.2-0.2l-0.2-0.2l-0.2-0.2l-0.5-0.5l-0.5-0.5l-0.5-0.5l-0.5-0.4
		l-0.6-0.4l-0.6-0.4l-0.6-0.4l-0.6-0.4l-0.6-0.4l-0.7-0.4l-0.7-0.4l-0.7-0.4l-0.7-0.4l-0.7-0.4l-0.7-0.4l-0.8-0.3l-0.8-0.3l-0.8-0.3
		l-0.8-0.3l-0.8-0.3l-0.8-0.3l-1.7-0.6l-1.7-0.6l-1.8-0.6l-1.8-0.6l-1.9-0.6l-1.9-0.6l-1.9-0.6l-1.9-0.6l-4-1.1L817,74.1l-54.6-15
		l-27.3-7.5l-27.3-7.5l-27.3-7.6l-27.3-7.6l-19.9-5.6l-19.9-5.6l-5.2-1.5l-5.2-1.5l-5.1-1.5l-2.6-0.8l-2.6-0.8l-2.6-0.8l-2.6-0.8
		l-2.6-0.8l-2.6-0.8l-2.5-0.8l-2.5-0.8L574.8,6l-2.5-0.9l-2.5-0.9l-2.5-0.9l-2.5-0.9l-2.5-1l-2.8-1.1l-2.9,0.8l-14.3,3.8l-14.3,3.8
		l-14.3,3.8l-14.3,3.8l-14.3,3.9l-14.3,3.9L456.9,28l-14.2,3.9L431.4,35l-11.3,3.2l-11.3,3.2l-11.3,3.2l-11.3,3.2L375.1,51
		l-11.2,3.3l-11.2,3.3l-7.2,2.1l-7.2,2.1l-7.2,2.2l-7.2,2.2l-14.8,4.4l-7.7,2.3l-7.7,2.3l-7.7,2.3l-7.8,2.3l-8.7,2.5l-8.7,2.5
		l-7.2,2l-6.5,1.8l-10.3,2.8l-13.5,3.7l-2.9,0.8l-2.8,0.8l-2.7,0.8l-1.3,0.4l-1.3,0.4l-1.2,0.4l-1.2,0.4l-1.2,0.4l-1.1,0.4l-1.1,0.4
		l-1.1,0.4l-1,0.4l-1,0.4l-1,0.4l-0.9,0.4l-0.9,0.4l-0.9,0.5l-0.8,0.5l-0.8,0.5l-0.8,0.5l-0.7,0.5l-0.4,0.3l-0.3,0.3l-0.3,0.3
		l-0.3,0.3l-0.3,0.3l-0.3,0.3l-0.3,0.3l-0.3,0.3l-0.3,0.3l-0.3,0.3l-0.3,0.3l-0.3,0.3l-0.2,0.3l-0.2,0.3l-0.2,0.3l-0.2,0.3l-0.2,0.3
		l-0.2,0.3l-0.2,0.3l-0.2,0.3l-0.2,0.3l-0.2,0.3l-0.2,0.3l-0.1,0.3l-0.1,0.3L190,113l-0.1,0.3l-0.1,0.3l-0.1,0.3l-0.1,0.3l-0.1,0.3
		l-0.1,0.3l-0.1,0.3l-0.1,0.3l-0.1,0.3l-0.1,0.3l-0.1,0.3l0,0.3l0,0.3l0,0.3l0,0.3l0,0.3l0,0.3l0,0.3l0,0.3l0,0.3l0,0.3l0,0.3l0,0.3
		l0,0.3l0,0.3l0,0.3l0,0.3l0,0.3l0,0.3l0.1,0.3l0.1,0.3l0.1,0.3l0.1,0.3l0.1,0.3l0.1,0.3l0.1,0.3l0.1,0.3l0.1,0.2l0.1,0.2l0.1,0.2
		l0.1,0.2l0.1,0.2l0.1,0.2l0.1,0.2l0.1,0.2L190.5,126.3z M152.8,359.1l6.3,0l6.3,0l6.3,0l6.3,0l12.7,0.1l12.7,0.1l12.7,0.1l12.7,0.2
		l38.5,0.5l13.1,0.2l17.4,0.2l17.4,0.2l17.4,0.1l17.4,0.1l11.4,0.1l11.4,0.1l22.8,0.1l22.8,0l22.8,0l22.8,0l22.8,0l68.5,0l22.8,0
		l22.8,0l22.8,0l22.8,0.1l11.4,0l11.4,0.1l11.4,0.1l11.4,0.1l11.4,0.1l11.4,0.1l18.3,0.2l9.1,0.1l9.1,0.1l9.1,0.1l9.1,0.1l9.1,0.1
		l9.1,0.2l9.2,0.2l9.2,0.2l9.2,0.2l9.2,0.2l9.7,0.2l9.7,0.2l9.7,0.3l9.7,0.3l9.7,0.3l9.7,0.3l9.7,0.3l9.7,0.3l10.4,0.4l10.4,0.4
		l10.4,0.4l10.4,0.4l10.4,0.4l10.4,0.4l10.4,0.5l10.4,0.5l-0.1,2l-0.1,2l-0.1,2l-0.1,2l-0.1,2l-0.1,2l-0.1,2l-0.1,2l-11.6,0l-11.6,0
		l-9.9,0l-9.9,0.1l-7.5,0.1l-7.5,0.1l-7.5,0.1l-7.5,0.1l-7.5,0.1l-7.5,0.1l-7.5,0.1l-7.5,0.2l-7.5,0.2l-7.5,0.2l-15,0.4l-15,0.4
		l-15,0.4l-15,0.4l-59.9,1.8l-15,0.4l-15,0.4l-15,0.4l-15,0.4l-7.5,0.2l-7.5,0.2l-7.5,0.1l-7.5,0.1l-7.5,0.1l-7.5,0.1l-11.9,0.1
		l-11.9,0.1L608,393l-11.9,0.1l-7,0l-7,0l-7,0l-7,0l-7,0l-7,0l-14.1-0.1l-14.1-0.1l-14.1-0.2l-14.1-0.2l-14.1-0.2l-14.1-0.2
		l-14.1-0.2l-14.1-0.3l-14.1-0.3l-28.2-0.6l-28.2-0.6l-28.2-0.6l-14.1-0.3l-14.1-0.3l-14.1-0.2l-14.1-0.2l-14.1-0.2l-14.1-0.2
		l-13.2-0.2l-13.2-0.1l-13.2-0.1l-13.2-0.1l-13.2,0l-13.2,0l-6.6,0l-6.6,0l-6.6,0l-6.6,0l0-3.6l0-3.6l0.1-3.6l0.1-3.6l0.1-3.6
		l0.1-3.6l0.2-3.6L152.8,359.1z M994.1,385.5l0.1-2.9l0.1-2.9l0.1-2.9l0.1-2.9l0.1-2.9l0.1-2.9l0.1-2.9l0.2-2.9l-0.7-0.5l-0.7-0.5
		l-0.8-0.5l-0.8-0.5l-0.8-0.4l-0.8-0.4l-0.8-0.4l-0.8-0.4l-0.8-0.4l-0.8-0.4l-0.8-0.3l-0.8-0.3L985,357l-0.8-0.3l-0.8-0.3l-0.8-0.3
		l-0.9-0.3l-0.9-0.3l-1.8-0.6l-1.8-0.5l-1.8-0.5l-5-1.4l-5-1.4l-10-2.8l-10.1-2.8l-10.1-2.8l-10.1-2.8l-88.5-24.4l17.9,0l17.9,0
		l17.9,0l17.9-0.1l9.4,0l46.2-0.2l23.1,0l11.5,0l11.5,0l11.5,0l11.5,0l11.5,0l11.5,0.1l11.5,0.1l11.5,0.1l11.5,0.1l11.5,0.2l0,5.1
		l0,5.1l0,4.7l-0.1,9.6l0,2.4l0,2.4l0,1.3l0,1.3l0,1.3l0.1,1.3l0.1,2.7l0.3,5.3l0.1,2.6l0.1,2.2l0,1.1l0,1.1l0,1.7l0,1.7l-0.1,5.4
		l0,1.7l0,1.7l0,1.7l0,1.7l0.1,1.5l0.1,1.5l0.1,1.5l0.1,1.5l-3.9,0l-9.2,0l-8.3-0.2l-9.8-0.2l-11.1-0.2l-12.2-0.2l-13-0.2l-13.7-0.1
		l-14.1-0.1L994.1,385.5z M178.3,351.3l8.8-2.4l32.4-8.8l15.1-4.1l7.5-2.1l7.5-2.1l8-2.2l8-2.3l8-2.3l8-2.3l7.8-2.3l7.8-2.3l7.8-2.3
		l22.5-6.8l7.2-2.2l7.2-2.1l7.2-2.1l7.2-2.1l11.1-3.3l11.2-3.2l11.2-3.2l11.2-3.2l11.2-3.2l11.2-3.1l11.2-3.1l11.2-3.1l14.1-3.9
		l14.1-3.9l14.1-3.8l14.1-3.8l14.2-3.8l14.2-3.8l14.2-3.8l14.2-3.7l2,0.8l2,0.7l2,0.7l2,0.7l2,0.7l2,0.7l2,0.7l2,0.7l2,0.7l2,0.6
		l2,0.6l2,0.6l4,1.2l4,1.2l3.1,0.9l3.1,0.9l6.2,1.8l6.2,1.8l27.7,7.7l21.5,6l21.5,6l21.5,6l21.4,5.9l21.4,5.9l42.8,11.8l85.7,23.6
		l44.3,12.2l9.9,2.7l9.9,2.7l9.9,2.8l9.9,2.8l9.9,2.8l3.7,1.1l-16.6-0.7l-16.6-0.7l-8.3-0.3l-8.3-0.3l-8.3-0.3l-8.3-0.3l-9.8-0.3
		l-9.8-0.3l-9.8-0.3l-9.8-0.3l-9.8-0.3l-9.8-0.3l-9.8-0.2l-9.8-0.2l-9.2-0.2l-9.2-0.2l-9.2-0.2l-9.2-0.2l-9.1-0.2l-9.1-0.1l-9.1-0.1
		l-9.1-0.1l-9.1-0.1l-9.1-0.1l-18.3-0.2l-11.4-0.1l-11.4-0.1l-11.4-0.1l-11.4-0.1l-11.4-0.1l-11.4,0l-22.8-0.1l-22.8,0l-22.8,0
		l-22.8,0l-68.5,0l-22.8,0l-22.8,0l-22.8,0l-22.8,0l-22.8-0.1l-11.4-0.1l-11.4-0.1l-17.4-0.1l-17.4-0.1l-17.4-0.2l-17.4-0.2
		l-13.1-0.2l-32.1-0.4l-19-0.2l-9.5-0.1l-9.5-0.1l-9.5-0.1L178.3,351.3z M20.7,315.6l11.5-0.2l11.5-0.1l11.5-0.1l11.5-0.1l11.5-0.1
		l11.5,0l11.5,0l11.5,0l11.5,0l11.5,0l23.1,0l46.2,0.2l9.4,0l16.1,0.1l16.1,0l16.1,0l16.1,0l-7.8,2.3l-7.9,2.2l-7.9,2.2l-7.9,2.2
		l-7.5,2.1l-7.5,2.1l-15,4.1l-32.4,8.8l-9.9,2.7l-5,1.4l-5,1.4l-5,1.4l-5,1.4l-5,1.4l-5,1.4l-0.2,2.2l-0.1,2.2l-0.1,2.2l-0.1,2.2
		l-0.1,2.2l-0.1,2.2l-0.1,2.2l-0.1,2.2l-0.1,2.2l-0.1,2.2l-0.1,4.4l0,4.4l0,4.4l-7,0.1l-7,0.1l-7,0.1l-7,0.1l-7,0.1l-7,0.1l-7,0.1
		l-7,0.2l-7,0.2l-7,0.2l-7,0.2l-7,0.2l-7,0.2l-7,0.2l-7,0.3l-7,0.3l-9.6,0.4l-3.9,0.2l0.3-4.4l0.1-1.9l0.1-1.9l0.1-1.4l0-1.4l0-1.6
		l0-1.6l0-2.5l-0.1-5.2l0-1.3l0-1.3l0-1.6l0-1.6l0-1.3l0.1-1.3l0.1-2.7l0.2-2.8l0.2-2.8l0.1-1.4l0.1-1.4l0.1-1.4l0-1.4l0-1.3l0-1.3
		l0-2.6l0-2.6l0-7.6l0-5l0-5.4L20.7,315.6z M902.8,127.6l-7.1-0.3l-7.1-0.2l-7.1-0.2l-7.1-0.2l-7.1-0.2l-7.1-0.2l-7.1-0.2l-7.1-0.2
		l-7.1-0.2l-7.1-0.2l-14.2-0.3l-14.2-0.3l-14.2-0.2l-15.2-0.2l-15.2-0.2l-15.2-0.2l-15.2-0.1l-15.2-0.1l-15.2-0.1l-15.2-0.1
		l-15.2-0.1l-15.2-0.1l-15.2,0l-15.2,0l-15.2,0l-30.4,0l-91.3,0.1l-30.4,0l-15.2,0l-15.2,0l-15.2,0l-15.2,0l-15.2-0.1l-15.2-0.1
		l-15.2-0.1l-15.2-0.1l-15.2-0.1l-15.2-0.2l-20.3-0.3l-40.6-0.6l-10.2-0.1l-10.2-0.1l0.6-6.9l10.1-2.8l10.1-2.8l6.6-1.8l6.6-1.8
		l6.5-1.8l6.5-1.8l6.3-1.8l6.3-1.8l6.3-1.8l6.3-1.8l5.6-1.7l5.6-1.7l11.2-3.4l12.4-3.7l12.5-3.7l7.6-2.3l7.6-2.3l7.6-2.2l7.6-2.2
		l7.6-2.2l7.6-2.2l7.6-2.2l7.6-2.2l8.9-2.5l9-2.5l9-2.5l9-2.5l9-2.5l9-2.5l9-2.5l9-2.5l10.7-2.9l10.7-2.9l10.7-2.9l10.7-2.9
		l10.7-2.9l10.7-2.8l10.7-2.8l10.7-2.8l1.7,0.7l1.7,0.6l1.8,0.6l1.8,0.6l1.8,0.6l1.8,0.6l3.5,1.2l3.5,1.2l3.5,1.1l3.6,1.1l3.6,1.1
		l3.5,1.1l3.5,1l3.6,1l3.6,1l7.1,2l21.9,6.1l19.3,5.4l19.3,5.4l19.3,5.4l19.4,5.4l38.7,10.7l38.7,10.7l62,17.1l31,8.5l31,8.5
		l-6.7-0.3L902.8,127.6z M908.7,305.9l-26.6,0.1l-13.3,0l-13.3,0l-13.3,0l-13.3,0l-13.3,0l-13.3-0.1l-30.3-8.3l-30.3-8.4l-30.3-8.4
		l-30.3-8.4l-35-9.7l-17.5-4.9l-17.5-4.9l-4.6-1.3l-4.6-1.3l-4.6-1.3l-4.6-1.3l-4.1-1.2l-4.1-1.3l-2-0.6l-2-0.7l-2-0.7l-2-0.7
		l-2-0.7l-2-0.7l-2-0.7l-2-0.7l-2-0.7l-2-0.7l-2-0.8l-2-0.8l-1.2-0.5l-1.3,0.3l-14.3,3.8l-14.3,3.8l-14.3,3.8l-14.3,3.8l-14.2,3.8
		l-14.2,3.9l-14.2,3.9l-14.2,3.9l-11.3,3.1l-11.3,3.1l-11.3,3.2l-11.2,3.2l-11.2,3.2l-11.2,3.2l-11.2,3.3l-11.2,3.3l-7.2,2.1
		l-7.2,2.1l-7.2,2.2l-7.2,2.2l-14.6,4.4l-12,0.1l-12,0l-12,0l-12,0l-12,0l-12,0l-24-0.1l0-0.1l0-3.8l-0.1-3.8l0-2.1l0-2.1l0-1.6
		l0-1.6l0.1-1.6l0.1-1.6l0.1-1.8l0.1-1.8l0.1-1.8l0.2-1.8l0.2-1.9l0.2-1.9l0.4-3.7l0.8-7.8l0.4-4.2l0.4-4.2l0.4-4.2l0.3-4.2l0.2-2.1
		l0.2-2.1l0.1-2.1l0.1-2.1l0.1-2l0.1-2l0.1-2l0.1-2l0.1-4.1l0.1-4.1l0.1-4.3l0.1-4.3l0-4.3l0-4.3l0-4.3l0-4.3l-0.1-8.6l-0.1-8.5
		l-0.1-8.5l0-4.2l0-4.2l0-4.2l0-4.2l0.1-4.2l0.1-4.2l0.1-2.1l0.1-2.1l0.1-2.1l0.1-2.1l0.1-2.3l0.1-2.3l0.1-2.3l0.1-2.3l10.2,0.1
		l10.2,0.1l40.9,0.6l20.5,0.3l15.2,0.2l15.2,0.1l15.2,0.1l15.2,0.1l15.2,0.1l15.2,0.1l15.2,0l15.2,0l15.2,0l15.2,0l30.4,0l91.3-0.1
		l30.4,0l15.2,0l15.2,0l15.2,0l15.2,0.1l15.2,0.1l15.2,0.1l15.2,0.1l15.2,0.1l15.2,0.1l15.2,0.2l15.2,0.2l15.2,0.2l14.3,0.2
		l14.3,0.3l14.3,0.3l7.1,0.2l7.1,0.2l7.1,0.2l7.1,0.2l7.1,0.2l7.1,0.2l7.1,0.2l7.1,0.2l7.1,0.2l7.1,0.3l0.1,3.1l0.1,3.1l0.1,3.1
		l0.1,3.1l0.1,3.1l0,3.1l0,3.1l0,3.1l0,4l0,4l0,4l0,4l-0.2,16l-0.1,8.1l0,4.1l0,4.1l0,4.1l0,4.1l0.1,4.1l0.1,4.1l0.1,3.8l0.1,3.8
		l0.2,3.8l0.1,1.9l0.1,1.9l0.1,2.1l0.1,2.1l0.2,2.1l0.2,2.1l0.3,4.2l0.4,4.2l0.4,4.2l0.4,4.2l0.8,7.8l0.4,3.7l0.2,1.9l0.2,1.9
		l0.2,1.8l0.1,1.8l0.1,1.8l0.1,1.8l0.1,1.8l0.1,1.8l0,1.3l0,1.3l0,2.1l0,2.1l-0.1,3.8L908.7,305.9L908.7,305.9z M33.2,716.1l0.2,9.9
		l0.2,9.9l0.2,8.4l0.1,4.2l0.1,4.2l0.2,4.2l0.2,4.1l0.2,4.1l0.2,4.1l9.7,0l9.7,0.1l9.7,0.1l9.7,0.1l13.1,0.1l13.1,0.1l14.8,0.2
		l14.8,0.2l29.6,0.4l71.4,1l41.7,0.6l20.8,0.3l20.8,0.3l23.2,0.3l23.2,0.3l23.2,0.3l23.2,0.2l23.2,0.2l23.2,0.2l23.2,0.2l23.2,0.2
		l23.2,0.1l23.2,0.1l23.2,0.1l23.2,0.1l29.5,0.1l29.5,0l29.5,0l29.5,0l14.7,0l14.7,0l14.7,0l14.7,0l14.7-0.1l14.7-0.1l14.7-0.1
		l14.7-0.1l16.3-0.1l16.3-0.1l16.3-0.1l16.3-0.1l16.3-0.2l16.3-0.2l16.3-0.2l16.3-0.2l16.3-0.2l16.3-0.2l16.3-0.2l16.3-0.2l16.3-0.2
		l16.3-0.3l16.3-0.3l16.3-0.3l0.1-2.2l0.1-2.2l0.2-4.4l0.2-4.4l0.2-4.4l0.1-4.4l0.1-4.5l0.1-4.5l0.2-10.4l0.1-5.9l0.2-11.8l-8.6-0.1
		l-8.6-0.1l-17.1-0.1l-34.3-0.3l-19.4-0.2l-9.7-0.1l-9.7-0.1l-9.7,0l-9.7,0l-9.7,0l-9.7,0l-10,0.1l-10,0.1l-10,0.1l-10,0.1l-10,0.2
		l-10,0.2l-10,0.2l-10,0.2l-10,0.2l-10,0.3l-10,0.3l-10,0.3l-20,0.6l-59.9,1.8l-20,0.6l-10,0.3l-10,0.3l-10,0.3l-10,0.2l-10,0.2
		l-10,0.2l-10,0.2l-10,0.2l-10,0.2l-10,0.1l-9.4,0.1l-9.4,0.1l-9.4,0.1l-9.4,0l-9.4,0l-9.4,0l-9.4,0l-9.4,0l-9.4-0.1l-9.4-0.1
		l-9.4-0.1l-9.4-0.1l-9.4-0.1l-9.4-0.1l-9.4-0.1l-9.4-0.1l-18.8-0.3l-18.8-0.3l-18.8-0.4l-18.8-0.4l-56.4-1.1l-18.8-0.4l-18.8-0.3
		l-18.8-0.3l-18.8-0.3l-9.4-0.1l-9.4-0.1l-9.4-0.1l-9.4-0.1l-9.4-0.1l-9.4-0.1l-9.4-0.1l-9.4,0l-9.4,0l-9.4,0l-9.4,0l-9.4,0l-9.4,0
		l-9.4,0.1l-9.4,0.1l-9.4,0.1l-9.4,0.1l-9.3,0.2l-8.2,0.2l-8.2,0.2l-8.2,0.2L66,715l-8.2,0.2l-8.2,0.3l-8.2,0.3L33.2,716.1z
		 M33.1,708.2l-0.1-9.6l-0.1-9.6l-0.1-9.6l-0.1-9.6l-0.1-9.6l-0.1-9.6l0-9.6l0-9.6l0-9.6l0-9.6l0-9.6l0-9.6l0-19.3l0.1-19.3
		l0.3-57.8l0.1-19.3l0-19.3l0-9.6l0-9.6l0-9.6l0-9.6l0-9.6l0-9.6l0-1.7l7-0.3l7-0.3l7-0.3l7-0.2l7-0.2l7-0.2l7-0.2l7-0.2l7-0.2
		l7-0.1l7-0.1l7-0.1l7-0.1l7-0.1l7-0.1l7-0.1l7-0.1l7,0l7,0l7,0l7,0l7,0l7,0l7,0l14.1,0.1l14.1,0.1l14.1,0.1l14.1,0.2l14.1,0.2
		l14.1,0.2l14.1,0.2l14.1,0.2l14.1,0.3l14.1,0.3l28.2,0.6l28.2,0.6l28.2,0.6l14.1,0.3l14.1,0.3l14.1,0.2l14.1,0.2l14.1,0.2l14.1,0.2
		l14.1,0.2l14.1,0.1l14.1,0.1l7.1,0l7.1,0l7.1,0l7.1,0l7.1,0l7.1,0l11.9-0.1l11.9-0.1l11.9-0.1l11.9-0.1l7.5-0.1l7.5-0.1l7.5-0.1
		l7.5-0.1l7.5-0.2l7.5-0.2l15-0.4l15-0.4l15-0.4l15-0.4l15-0.4l44.9-1.4l15-0.4l15-0.4l15-0.4l15-0.4l7.5-0.2l7.5-0.2l7.5-0.2
		l7.5-0.1l7.5-0.1l7.5-0.1l7.5-0.1l7.5-0.1l7.5-0.1l7.5-0.1l9.9-0.1l9.9,0l7.3,0l7.3,0l7.3,0l7.3,0l12.3,0.1l12.3,0.1l12.3,0.1
		l36.9,0.3l12.3,0.1l12.3,0.1l0,1.8l-0.1,9.7l0,9.7l0,9.7l0,9.7l0,9.7l0,9.7l0,19.3l0.1,19.3l0.3,57.9l0.1,19.3l0.1,19.3l0,19.3
		l0,9.6l0,9.6l0,9.6l0,9.6l-0.1,9.6l-0.1,9.6l-0.1,9.6l-0.1,9.6l-0.1,9.6l-0.1,9.6l-9.2-0.1l-9.2-0.1l-18.3-0.2l-36.6-0.3l-18.3-0.1
		l-9.1-0.1l-9.1,0l-9.1,0l-9.1,0l-9.1,0l-9.1,0l-10,0.1l-10,0.1l-10,0.1l-10,0.1l-10,0.2l-10,0.2l-10,0.2l-10,0.2l-10,0.2l-10,0.3
		l-10,0.3l-10,0.3l-20,0.6l-59.9,1.8l-20,0.6l-10,0.3l-10,0.3l-10,0.3l-10,0.2l-10,0.2l-10,0.2l-10,0.2l-10,0.2l-10,0.2l-10,0.1
		l-9.2,0.1l-9.2,0.1l-9.2,0.1l-9.2,0l-9.2,0l-9.2,0l-9.2,0l-9.2,0l-9.2,0l-9.2-0.1l-9.2-0.1l-9.3-0.1l-9.3-0.1l-9.3-0.1l-9.3-0.1
		l-9.3-0.1l-18.5-0.3l-18.5-0.3l-18.5-0.3l-18.5-0.4l-55.5-1.1l-18.5-0.4l-18.5-0.3l-18.5-0.3l-18.5-0.3l-9.2-0.1l-9.2-0.1l-9.2-0.1
		l-9.2-0.1l-9.2-0.1l-9.2-0.1l-9.2-0.1l-9.2-0.1l-9.2,0l-9.2,0l-9.2,0l-9.2,0l-9.2,0l-9.2,0l-9.2,0.1l-9.2,0.1l-9.2,0.1l-9.2,0.1
		l-9.2,0.2l-9.2,0.2l-9.2,0.2l-9.2,0.2l-9.2,0.3l-9.2,0.3l-9.2,0.3L33.1,708.2z"/>
</g>
<g id="POLYLINE_423_">
	<polyline class="st0" points="190.5,126.3 190.7,126.5 190.8,126.7 190.9,126.9 191,127 191.2,127.2 191.3,127.4 191.4,127.6 
		191.5,127.7 191.7,127.9 191.8,128 192,128.2 192.1,128.3 192.2,128.4 192.4,128.6 192.5,128.7 192.7,128.8 192.8,128.9 193,129 
		193.1,129.2 193.3,129.3 193.6,129.5 193.9,129.7 194.2,129.8 194.5,130 194.8,130.2 195.1,130.3 195.7,130.6 196.9,131.1 
		197.5,131.4 197.8,131.5 198,131.7 198.3,131.8 198.4,131.9 198.5,131.9 198.7,132 198.8,132.1 198.9,132.2 199,132.3 199.1,132.3 
		199.2,132.4 199.3,132.5 199.4,132.6 199.5,132.7 199.6,132.8 199.7,132.9 199.8,133 199.9,133.1 199.9,133.2 200,133.3 
		200.1,133.5 200.2,133.6 200.2,133.7 200.3,133.8 200.3,134 200.4,134.1 200.5,134.3 200.5,134.4 200.6,134.6 200.6,134.7 
		200.7,134.9 200.7,135 200.7,135.2 200.8,135.4 200.8,135.6 200.9,135.9 200.9,136.3 201,136.8 201,137.2 201.1,137.7 201.1,138.7 
		201.1,139.8 201.1,141 201.1,142.4 201,145.5 200.9,151.2 200.8,153.5 200.8,156.4 200.8,160.3 200.8,165.2 200.9,171.1 201.1,192 
		201.2,199.8 201.2,203.7 201.2,207.6 201.2,211.5 201.2,215.5 201.2,219.3 201.1,223.1 201,227 200.9,230.8 200.7,233.6 
		200.6,236.3 200.5,239.1 200.3,241.9 200,245.6 199.7,249.3 199.4,253.1 199.1,256.8 198.7,260.5 198.3,264.3 197.5,271.4 
		197.1,275 197,276.8 196.8,278.6 196.6,280.4 196.5,282.3 196.4,284.1 196.2,285.9 196.1,287.6 196.1,289.4 196,291.1 196,292.9 
		196,294.7 196,296.6 172.9,296.5 149.8,296.4 138.3,296.4 126.7,296.4 115.2,296.4 103.6,296.4 92.1,296.4 80.6,296.5 69,296.5 
		57.5,296.6 45.9,296.7 34.4,296.9 22.8,297 11.3,297.2 2.1,297.4 2.2,306.5 2.2,309.7 2.2,312.8 2.1,325.7 2.1,329.1 2.2,332.5 
		2.2,339.2 2.2,342.5 2.2,344.1 2.2,345.7 2.1,347.3 2.1,348.9 2,350.7 1.9,352.6 1.6,356.4 1.5,358.3 1.4,360.2 1.3,362.3 
		1.3,364.3 1.3,366.4 1.3,368.1 1.3,369.9 1.4,373.5 1.4,376.1 1.4,377.3 1.4,378.6 1.4,380.1 1.3,381.7 1.2,383 1.1,384.2 
		0.7,389.4 0.6,390.8 0.5,392.2 0.4,393.9 0.4,395.7 0.4,397 0.4,398.3 0.4,400.9 0.4,410.5 10.1,410 14.3,409.8 14.3,420 
		14.3,430.2 14.3,440.4 14.3,450.6 14.3,471 14.2,491.4 14,552.6 13.9,573 13.8,593.5 13.8,603.7 13.8,613.9 13.8,624.1 13.9,634.3 
		13.9,644.5 13.9,654.7 14,664.9 14.1,675.1 14.2,685.4 14.3,695.6 14.5,705.8 14.7,716 14.8,726.2 15.1,736.4 15.2,741.7 15.3,747 
		15.5,752.4 15.7,757.7 15.8,760.4 15.9,763.1 16.1,765.8 16.2,768.4 16.4,771.1 16.5,773.8 16.7,776.5 16.9,779.2 17.6,787.7 
		26.2,787.8 35.6,787.8 45,787.8 54.4,787.9 63.8,788 77.5,788.1 91.3,788.2 107,788.4 122.7,788.6 154.2,789 227.7,790.1 
		269.4,790.6 311.2,791.2 334.4,791.5 357.7,791.7 380.9,792 404.2,792.2 423.7,792.4 443.2,792.6 462.7,792.7 482.2,792.9 
		509.1,793.1 536.1,793.2 563,793.4 590,793.5 620,793.6 650,793.6 665,793.6 680,793.6 695,793.6 710,793.6 725,793.6 740,793.5 
		755,793.5 769.9,793.5 784.9,793.4 799.9,793.3 814.9,793.2 829.9,793.2 846.6,793 863.3,792.9 880,792.8 896.7,792.6 913.4,792.5 
		930.1,792.3 946.8,792.1 963.5,791.9 980.2,791.7 996.9,791.5 1013.6,791.3 1030.3,791 1047,790.8 1063.7,790.5 1080.4,790.2 
		1097.1,789.9 1105.5,789.8 1106.2,781.4 1106.4,778.6 1106.6,775.7 1106.8,772.9 1107,770.1 1107.1,767.3 1107.3,764.4 
		1107.4,761.6 1107.5,758.8 1107.6,756 1107.7,753.2 1107.9,747.6 1108.1,742 1108.2,736.4 1108.4,726.1 1108.6,715.7 1108.8,705.4 
		1109,695 1109.1,684.7 1109.2,674.3 1109.3,663.9 1109.3,653.6 1109.4,643.2 1109.4,632.9 1109.5,622.5 1109.5,612.2 1109.5,601.8 
		1109.4,591.5 1109.4,570.8 1109,488 1109,467.3 1109,457 1108.9,446.6 1108.9,436.3 1109,426 1109,415.6 1109,405.3 1113.6,405.3 
		1123.1,405.3 1122.9,395.9 1122.8,394 1122.8,392.2 1122.7,390.9 1122.6,389.7 1122.2,384.6 1122.1,383.4 1122,382.1 1122,380.7 
		1121.9,379.3 1121.9,378.4 1121.9,377.4 1121.9,375.5 1122,368.4 1122,366 1122,364.7 1122,363.5 1121.9,361.7 1121.8,359.8 
		1121.7,358 1121.4,352.7 1121.3,350.9 1121.2,349.2 1121.2,347.7 1121.1,346.2 1121.1,344.7 1121.1,343.1 1121.1,340.1 
		1121.1,330.7 1121.1,327.6 1121.1,324.4 1121.1,312.4 1121.1,309.5 1121.1,306.5 1121.2,297.4 1112,297.2 1100.4,297 1088.9,296.9 
		1077.4,296.7 1065.8,296.6 1054.3,296.5 1042.7,296.5 1031.2,296.4 1019.6,296.4 1008.1,296.4 996.6,296.4 985,296.4 973.5,296.4 
		950.4,296.5 927.3,296.6 927.3,294.7 927.3,292.9 927.3,291.1 927.2,289.4 927.1,287.6 927,285.9 926.9,284.1 926.8,282.3 
		926.6,280.4 926.5,278.6 926.3,276.8 926.1,275 925.8,271.4 925,264.3 924.6,260.5 924.2,256.8 923.9,253.1 923.6,249.3 
		923.3,245.6 923,241.9 922.8,239.2 922.7,236.5 922.6,233.9 922.4,231.2 922.3,227.6 922.2,224 922.1,220.3 922.1,216.7 922.1,213 
		922,209.3 922,205.7 922.1,202 922.1,194.6 922.3,181 922.4,174.7 922.4,168.4 922.4,165.3 922.4,162.1 922.4,159.1 922.4,156 
		922.4,152.9 922.3,149.9 922.2,146.8 922.2,143.7 922.1,140.7 921.9,137.6 923.8,137.7 925.6,137.7 927.3,137.7 928.1,137.7 
		928.9,137.7 929.6,137.6 930.3,137.6 931.1,137.5 931.7,137.5 932.4,137.4 933.1,137.3 933.7,137.3 934.3,137.2 934.9,137.1 
		935.4,137 936,136.9 936.5,136.8 937,136.6 937.5,136.5 938,136.4 938.4,136.2 938.9,136.1 939.3,136 939.7,135.8 940.1,135.6 
		940.5,135.5 940.8,135.3 941.2,135.2 941.5,135 941.8,134.8 942.1,134.6 942.4,134.4 942.6,134.2 942.9,134 943.1,133.8 
		943.4,133.6 943.6,133.4 943.8,133.2 944,133 944.2,132.8 944.4,132.6 944.5,132.4 944.7,132.2 944.9,132 945,131.7 945.1,131.5 
		945.3,131.3 945.4,131.1 945.5,130.8 945.6,130.6 945.7,130.4 945.8,130.2 945.9,129.9 945.9,129.7 946,129.5 946.1,129 
		946.3,128.6 946.4,128.1 946.4,127.7 946.5,127.3 946.6,126.9 946.6,126.6 946.7,126.2 946.7,125.8 946.8,125.4 946.8,125.1 
		946.8,124.7 946.8,124.3 946.9,124 946.9,123.6 946.8,123.3 946.8,122.9 946.8,122.6 946.8,122.2 946.7,121.9 946.7,121.6 
		946.6,121.2 946.6,120.9 946.5,120.6 946.4,120.3 946.3,120 946.3,119.6 946.2,119.3 946.1,119 946,118.7 945.8,118.4 945.7,118.1 
		945.6,117.9 945.4,117.6 945.3,117.3 945.2,117 945,116.7 944.8,116.4 944.7,116.2 944.5,115.9 944.3,115.6 944.1,115.4 
		943.9,115.1 943.7,114.9 943.5,114.6 943.3,114.4 943.1,114.1 942.9,113.9 942.7,113.6 942.2,113.1 941.7,112.7 941.2,112.2 
		940.7,111.8 940.1,111.3 939.5,110.9 938.9,110.5 938.3,110.1 937.7,109.7 937,109.3 936.4,108.9 935.7,108.5 935,108.2 
		934.3,107.8 933.5,107.4 932.8,107.1 932,106.8 931.2,106.4 930.4,106.1 929.6,105.8 928.8,105.4 927.1,104.8 925.4,104.2 
		923.6,103.6 921.8,103 919.9,102.5 918,101.9 916.1,101.3 914.2,100.8 910.2,99.7 817,74.1 762.4,59 735.1,51.5 707.8,43.9 
		680.5,36.4 653.1,28.8 633.2,23.2 613.3,17.7 608,16.2 602.8,14.7 597.7,13.2 595.1,12.5 592.6,11.7 590,10.9 587.4,10.1 
		584.9,9.3 582.3,8.5 579.8,7.7 577.3,6.9 574.8,6 572.3,5.1 569.8,4.3 567.4,3.3 564.9,2.4 562.5,1.5 559.6,0.4 556.7,1.1 
		542.4,4.9 528.1,8.7 513.9,12.5 499.6,16.3 485.4,20.2 471.1,24.1 456.9,28 442.6,31.9 431.4,35 420.1,38.2 408.8,41.3 397.6,44.5 
		386.3,47.7 375.1,51 363.8,54.3 352.6,57.5 345.4,59.7 338.1,61.8 330.9,64 323.7,66.1 308.9,70.6 301.2,72.9 293.4,75.2 
		285.7,77.5 277.9,79.8 269.3,82.3 260.6,84.7 253.4,86.8 246.9,88.6 236.6,91.4 223.1,95.1 220.2,95.9 217.4,96.7 214.7,97.5 
		213.4,97.9 212.2,98.3 210.9,98.7 209.7,99.1 208.5,99.5 207.4,99.9 206.3,100.3 205.2,100.7 204.1,101.2 203.1,101.6 202.1,102 
		201.2,102.5 200.3,102.9 199.4,103.4 198.6,103.8 197.8,104.3 197,104.8 196.2,105.3 195.9,105.6 195.5,105.8 195.2,106.1 
		194.9,106.3 194.6,106.6 194.2,106.9 193.9,107.2 193.7,107.4 193.4,107.7 193.1,108 192.8,108.3 192.6,108.6 192.4,108.9 
		192.1,109.2 191.9,109.5 191.7,109.8 191.5,110.1 191.3,110.4 191.1,110.7 190.9,111 190.7,111.3 190.6,111.7 190.4,112 
		190.3,112.3 190.1,112.6 190,113 189.9,113.3 189.8,113.6 189.6,113.9 189.5,114.2 189.5,114.6 189.4,114.9 189.3,115.2 
		189.2,115.6 189.1,115.9 189.1,116.2 189,116.5 189,116.9 188.9,117.2 188.9,117.5 188.9,117.8 188.9,118.1 188.9,118.5 
		188.8,118.8 188.8,119.1 188.8,119.4 188.8,119.7 188.9,120 188.9,120.3 188.9,120.6 188.9,120.9 189,121.2 189,121.5 189.1,121.8 
		189.1,122.1 189.2,122.4 189.2,122.6 189.3,122.9 189.3,123.2 189.4,123.5 189.5,123.7 189.6,124 189.6,124.2 189.7,124.5 
		189.8,124.7 189.9,125 190,125.2 190.1,125.4 190.2,125.7 190.3,125.9 190.4,126.1 190.5,126.3 	"/>
</g>
<g id="POLYLINE_424_">
	<polyline class="st2" points="946.6,514.6 946.6,520.6 946.7,526.5 946.7,532.4 946.7,538.3 946.7,550.1 946.7,562 946.6,573.8 
		946.6,585.6 946.4,609.3 946.3,633 946.2,644.8 946.2,656.6 946.2,668.5 946.2,680.3 946.2,686.2 946.2,692.1 946.3,698 
		946.3,703.9 945.5,703.8 944.6,703.6 943.8,703.5 942.9,703.4 942.1,703.2 941.2,703.1 940.3,703 939.4,702.9 938.5,702.8 
		937.6,702.7 936.7,702.7 935.8,702.6 934.9,702.5 934,702.5 933.1,702.5 932.2,702.4 931.3,702.4 930.4,702.4 929.5,702.4 
		928.5,702.4 927.7,702.5 926.8,702.5 925.9,702.5 925,702.6 924.1,702.7 923.2,702.7 922.4,702.8 921.5,702.9 920.7,703 
		919.8,703.2 919,703.3 918.2,703.4 917.7,688.5 917.5,681 917.3,673.5 917.2,668.7 917.1,663.9 917,659.1 916.9,654.2 916.8,649.4 
		916.7,644.6 916.6,635 916.5,625.3 916.5,615.7 916.4,606 916.4,596.4 916.4,586.7 916.4,577.1 916.5,567.4 916.5,557.7 
		916.7,519.1 917,517.8 917.4,516.5 917.8,515.2 918.2,514 918.6,512.7 919,511.6 919.4,510.4 919.9,509.3 920.3,508.3 920.8,507.3 
		921.3,506.3 921.8,505.4 922.3,504.5 922.8,503.7 923.3,502.9 923.5,502.5 923.8,502.1 924.1,501.8 924.3,501.5 924.6,501.1 
		924.9,500.8 925.1,500.5 925.4,500.2 925.7,499.9 925.9,499.7 926.2,499.4 926.5,499.2 926.7,498.9 927,498.7 927.3,498.5 
		927.5,498.3 927.8,498.1 928.1,497.9 928.3,497.8 928.6,497.6 928.9,497.5 929.1,497.4 929.4,497.2 929.7,497.1 929.8,497.1 
		929.9,497 930.1,497 930.2,496.9 930.3,496.9 930.5,496.9 930.6,496.8 930.7,496.8 930.9,496.8 931,496.8 931.1,496.7 931.3,496.7 
		931.4,496.7 931.5,496.7 931.6,496.7 931.8,496.7 931.9,496.6 932,496.6 932.2,496.6 932.3,496.6 932.5,496.6 932.7,496.6 
		933,496.7 933.2,496.7 933.4,496.7 933.7,496.8 933.9,496.8 934.1,496.9 934.4,496.9 934.6,497 934.8,497.1 935.1,497.2 
		935.3,497.3 935.6,497.4 935.8,497.5 936,497.7 936.3,497.8 936.5,497.9 936.7,498.1 937,498.3 937.2,498.4 937.5,498.6 
		937.7,498.8 937.9,499 938.2,499.2 938.4,499.5 938.7,499.7 938.9,499.9 939.1,500.2 939.4,500.4 939.6,500.7 939.9,501 
		940.1,501.3 940.3,501.6 940.8,502.2 941.2,502.9 941.7,503.5 942.2,504.3 942.6,505.1 943,505.9 943.5,506.7 943.9,507.6 
		944.3,508.5 944.7,509.4 945.1,510.4 945.5,511.4 945.9,512.5 946.2,513.5 946.6,514.6 	"/>
</g>
<g id="POLYLINE_425_">
	<polyline class="st2" points="807.6,709.8 807.8,704.6 808.1,699.4 808.3,694.2 808.5,689 808.7,683.8 808.9,678.6 809.1,673.4 
		809.3,668.2 809.5,662.5 809.6,656.7 809.8,650.9 809.9,645.2 810,639.4 810.2,633.7 810.2,627.9 810.3,622.1 810.4,616.4 
		810.5,610.6 810.5,604.8 810.6,599 810.6,587.5 810.6,576 810.6,564.4 810.6,552.8 810.6,541.3 810.5,529.7 810.3,483.5 
		810.6,482.6 811,481.7 811.3,480.8 811.7,479.9 812.1,479.1 812.5,478.3 812.9,477.5 813.3,476.8 813.7,476 814.1,475.4 
		814.5,474.7 815,474.1 815.4,473.5 815.8,472.9 816.2,472.4 816.5,472.2 816.7,471.9 816.9,471.7 817.1,471.5 817.3,471.2 
		817.6,471 817.8,470.8 818,470.6 818.2,470.4 818.4,470.3 818.7,470.1 818.9,469.9 819.1,469.8 819.3,469.6 819.5,469.5 
		819.8,469.4 820,469.2 820.2,469.1 820.4,469 820.6,468.9 820.9,468.8 821.1,468.7 821.3,468.7 821.5,468.6 821.7,468.5 
		821.9,468.5 822.2,468.4 822.4,468.4 822.6,468.3 822.8,468.3 823,468.3 823.2,468.3 823.4,468.3 823.6,468.3 823.8,468.3 
		823.9,468.3 824,468.3 824.1,468.3 824.3,468.3 824.4,468.3 824.5,468.3 824.7,468.3 824.8,468.4 824.9,468.4 825,468.4 
		825.2,468.4 825.3,468.5 825.4,468.5 825.6,468.5 825.7,468.6 825.8,468.6 825.9,468.6 826.2,468.7 826.5,468.8 826.7,469 
		827,469.1 827.3,469.2 827.5,469.4 827.8,469.5 828.1,469.7 828.3,469.9 828.6,470.1 828.8,470.3 829.1,470.5 829.4,470.7 
		829.6,470.9 829.9,471.2 830.2,471.5 830.4,471.7 830.7,472 831,472.3 831.2,472.6 831.5,472.9 831.7,473.3 832,473.6 832.2,474 
		832.5,474.3 833,475.1 833.5,475.9 834,476.7 834.5,477.6 835,478.6 835.4,479.6 835.9,480.6 836.3,481.6 836.7,482.8 837.2,483.9 
		837.6,485.1 838,486.3 838.3,487.5 838.7,488.8 839.1,490.1 839.2,496.9 839.3,503.8 839.3,510.6 839.4,517.5 839.4,524.3 
		839.5,531.2 839.5,538.1 839.5,544.9 839.5,551.8 839.5,558.6 839.4,572.3 839.4,586.1 839.3,599.8 839.1,627.2 839,641 839,654.7 
		838.9,668.4 838.9,675.3 839,682.1 839,689 839,695.8 839,702.7 839.1,709.5 838.2,709.3 837.2,709.2 836.2,709 835.2,708.9 
		834.2,708.7 833.2,708.6 832.2,708.5 831.2,708.4 830.2,708.3 829.2,708.2 828.1,708.1 827.1,708.1 826.1,708 825,708 824,708 
		823,708 821.9,708 820.9,708 819.9,708 818.9,708.1 817.9,708.2 816.9,708.2 815.9,708.3 814.9,708.4 813.9,708.5 813,708.7 
		812,708.8 811.1,709 810.2,709.2 809.3,709.4 808.4,709.6 807.6,709.8 	"/>
</g>
<g id="POLYLINE_426_">
	<polyline class="st2" points="707.7,711.8 707.3,696.5 707.1,688.9 706.8,681.2 706.7,674.7 706.6,668.1 706.4,661.5 706.3,654.9 
		706.2,648.3 706.2,641.7 706.1,635.1 706,628.5 706,621.9 706,615.3 706,608.7 705.9,602.1 706,588.9 706,575.6 706,562.4 
		706.2,522.8 706.3,509.6 706.3,496.4 706.4,483.2 706.3,469.9 706.7,468.9 707.1,467.8 707.4,466.8 707.8,465.8 708.2,464.9 
		708.6,463.9 709,463 709.5,462.2 709.9,461.4 710.3,460.6 710.8,459.8 711.2,459.1 711.7,458.4 712.1,457.8 712.6,457.2 
		712.8,456.9 713.1,456.6 713.3,456.3 713.5,456.1 713.8,455.8 714,455.6 714.2,455.3 714.5,455.1 714.7,454.9 714.9,454.7 
		715.2,454.5 715.4,454.3 715.7,454.1 715.9,453.9 716.1,453.8 716.4,453.6 716.6,453.5 716.8,453.4 717.1,453.2 717.3,453.1 
		717.5,453 717.8,452.9 718,452.8 718.2,452.7 718.5,452.7 718.7,452.6 718.9,452.5 719.2,452.5 719.4,452.4 719.6,452.4 
		719.9,452.4 720.1,452.4 720.3,452.3 720.5,452.3 720.8,452.4 720.9,452.4 721,452.4 721.1,452.4 721.3,452.4 721.4,452.4 
		721.5,452.4 721.8,452.5 722,452.5 722.2,452.6 722.5,452.6 722.7,452.7 723,452.8 723.2,452.9 723.5,453 723.7,453.1 724,453.2 
		724.2,453.3 724.5,453.5 724.7,453.6 725,453.8 725.2,454 725.5,454.2 725.7,454.4 726,454.6 726.3,454.8 726.5,455 726.8,455.2 
		727,455.5 727.3,455.7 727.5,456 727.8,456.3 728,456.6 728.3,456.9 728.5,457.2 728.7,457.5 729,457.8 729.5,458.5 730,459.2 
		730.4,460 730.9,460.8 731.4,461.7 731.8,462.6 732.3,463.5 732.7,464.5 733.1,465.5 733.5,466.5 733.9,467.6 734.3,468.7 
		734.7,469.9 735.1,471 735.4,472.2 735.6,479.7 735.8,487.2 735.9,494.7 736,502.3 736.1,509.8 736.1,517.3 736.2,524.8 
		736.2,532.3 736.3,539.8 736.3,547.3 736.3,554.9 736.2,562.4 736.2,577.4 736.1,592.5 735.9,622.6 735.8,637.6 735.8,652.7 
		735.7,667.7 735.7,675.2 735.7,682.7 735.7,690.3 735.8,697.8 735.8,705.3 735.9,712.8 735,712.6 734.2,712.4 733.4,712.3 
		732.5,712.1 731.7,712 730.8,711.9 729.9,711.7 729.1,711.6 728.2,711.5 727.3,711.4 726.4,711.3 725.5,711.2 724.6,711.2 
		723.7,711.1 722.8,711 721.9,711 721,711 720,711 719.1,710.9 718.2,710.9 717.3,711 716.4,711 715.5,711 714.6,711 713.7,711.1 
		712.9,711.2 712,711.2 711.1,711.3 710.3,711.4 709.4,711.5 708.6,711.6 707.7,711.8 	"/>
</g>
<g id="POLYLINE_427_">
	<polyline class="st2" points="599.8,713.8 600.1,708.6 600.3,703.4 600.5,698.2 600.7,693 601,687.8 601.1,682.6 601.3,677.4 
		601.5,672.2 601.7,665.6 601.9,659 602,652.5 602.2,645.9 602.3,639.3 602.4,632.7 602.5,626.2 602.6,619.6 602.7,613 602.7,606.4 
		602.8,599.9 602.8,593.3 602.8,586.7 602.8,580.1 602.8,566.9 602.8,553.8 602.7,540.6 602.7,527.4 602.5,487.9 602.4,474.7 
		602.4,461.5 602.7,460.5 603.1,459.5 603.5,458.5 603.8,457.6 604.2,456.7 604.6,455.8 605,454.9 605.5,454.1 605.9,453.3 
		606.3,452.6 606.7,451.9 607.2,451.2 607.6,450.5 608.1,449.9 608.5,449.3 608.8,449 609,448.8 609.2,448.5 609.4,448.3 609.7,448 
		609.9,447.8 610.1,447.6 610.4,447.4 610.6,447.2 610.8,447 611.1,446.8 611.3,446.6 611.5,446.4 611.8,446.3 612,446.1 612.2,446 
		612.4,445.8 612.7,445.7 612.9,445.6 613.1,445.5 613.4,445.4 613.6,445.3 613.8,445.2 614.1,445.1 614.3,445 614.5,445 
		614.7,444.9 615,444.9 615.2,444.8 615.4,444.8 615.6,444.8 615.9,444.7 616.1,444.7 616.3,444.7 616.5,444.7 616.7,444.7 
		617,444.8 617.2,444.8 617.4,444.8 617.7,444.9 617.9,444.9 618.1,445 618.4,445.1 618.6,445.1 618.9,445.2 619.1,445.3 
		619.3,445.4 619.6,445.5 619.8,445.6 620.1,445.8 620.3,445.9 620.5,446.1 620.8,446.2 621,446.4 621.3,446.6 621.5,446.7 
		621.7,446.9 622,447.1 622.2,447.4 622.5,447.6 622.7,447.8 622.9,448 623.2,448.3 623.4,448.6 623.6,448.8 623.9,449.1 
		624.1,449.4 624.4,449.7 624.8,450.3 625.3,451 625.7,451.7 626.2,452.4 626.6,453.2 627.1,454 627.5,454.9 627.9,455.8 
		628.4,456.7 628.8,457.6 629.2,458.6 629.5,459.6 629.9,460.7 630.3,461.7 630.6,462.8 630.9,470.7 631,478.6 631.2,486.5 
		631.3,494.4 631.4,502.3 631.5,510.1 631.6,518 631.6,525.9 631.7,533.8 631.7,541.7 631.7,549.6 631.7,557.5 631.7,565.4 
		631.6,573.3 631.6,589.1 631.4,620.7 631.3,636.5 631.2,652.3 631.2,660.2 631.1,668 631.1,675.9 631.1,683.8 631.2,691.7 
		631.2,699.6 631.2,707.5 631.3,715.4 630.4,715.2 629.5,714.9 628.6,714.7 627.7,714.5 626.8,714.3 625.8,714.1 624.8,714 
		623.9,713.8 622.9,713.7 621.9,713.5 620.9,713.4 619.9,713.3 618.9,713.2 617.8,713.1 616.8,713 615.8,713 614.8,712.9 
		613.7,712.9 612.7,712.9 611.7,712.8 610.6,712.9 609.6,712.9 608.6,712.9 607.6,712.9 606.6,713 605.6,713.1 604.6,713.2 
		603.6,713.3 602.6,713.4 601.7,713.5 600.7,713.6 599.8,713.8 	"/>
</g>
<g id="POLYLINE_428_">
	<polyline class="st2" points="496,712.8 495.5,697.5 495.3,689.9 495.1,682.2 494.9,675.4 494.8,668.6 494.6,661.8 494.5,655 
		494.4,648.2 494.4,641.3 494.3,634.5 494.2,627.7 494.2,620.9 494.2,614.1 494.2,607.3 494.2,600.4 494.2,586.8 494.2,573.1 
		494.3,559.5 494.5,518.6 494.5,504.9 494.6,491.3 494.6,477.6 494.6,470.8 494.6,464 494.9,462.8 495.3,461.7 495.7,460.6 
		496,459.5 496.5,458.5 496.9,457.4 497.3,456.5 497.7,455.5 498.2,454.6 498.6,453.8 499.1,452.9 499.5,452.2 500,451.4 
		500.5,450.7 500.9,450 501.2,449.7 501.4,449.4 501.7,449.1 501.9,448.8 502.2,448.5 502.4,448.3 502.7,448 502.9,447.8 
		503.1,447.5 503.4,447.3 503.6,447.1 503.9,446.9 504.1,446.7 504.4,446.5 504.6,446.3 504.9,446.1 505.1,446 505.4,445.8 
		505.6,445.7 505.9,445.6 506.1,445.5 506.4,445.3 506.6,445.2 506.9,445.2 507.1,445.1 507.3,445 507.6,444.9 507.8,444.9 
		508.1,444.8 508.3,444.8 508.5,444.8 508.8,444.8 509,444.7 509.3,444.7 509.5,444.7 509.7,444.7 509.9,444.8 510.2,444.8 
		510.4,444.8 510.6,444.9 510.8,444.9 511.1,445 511.3,445 511.5,445.1 511.8,445.2 512,445.3 512.2,445.4 512.5,445.5 512.7,445.6 
		512.9,445.7 513.2,445.9 513.4,446 513.7,446.2 513.9,446.3 514.1,446.5 514.4,446.7 514.6,446.9 514.8,447 515.1,447.3 
		515.3,447.5 515.5,447.7 515.8,447.9 516,448.2 516.2,448.4 516.5,448.7 516.7,448.9 516.9,449.2 517.2,449.5 517.6,450.1 
		518.1,450.8 518.5,451.4 519,452.1 519.4,452.9 519.9,453.7 520.3,454.5 520.7,455.3 521.1,456.2 521.5,457.1 521.9,458.1 
		522.3,459.1 522.7,460.1 523,461.1 523.4,462.2 523.6,470.1 523.8,477.9 524,485.8 524.1,493.7 524.2,501.5 524.3,509.4 
		524.4,517.3 524.4,525.2 524.5,533.1 524.5,540.9 524.5,548.8 524.5,556.7 524.5,564.6 524.4,572.5 524.4,588.2 524.2,619.8 
		524.1,635.6 524,651.3 524,659.2 523.9,667.1 523.9,675 523.9,682.9 523.9,690.7 524,698.6 524,706.5 524.1,714.4 523.3,714.2 
		522.5,714 521.7,713.8 520.8,713.6 520,713.5 519.1,713.3 518.3,713.2 517.4,713.1 516.5,712.9 515.6,712.8 514.7,712.7 
		513.9,712.6 513,712.5 512,712.4 511.1,712.4 510.2,712.3 509.3,712.3 508.4,712.2 507.5,712.2 506.6,712.2 505.7,712.2 
		504.8,712.2 503.9,712.2 503,712.2 502.1,712.3 501.2,712.3 500.3,712.4 499.4,712.4 498.5,712.5 497.7,712.6 496.8,712.7 
		496,712.8 	"/>
</g>
<g id="POLYLINE_429_">
	<polyline class="st2" points="416.3,468.3 416.5,475.9 416.7,483.6 416.8,491.3 416.9,499 417,506.7 417.1,514.4 417.2,522.1 
		417.2,529.8 417.3,537.5 417.3,545.2 417.3,552.9 417.3,560.6 417.2,576 417.1,591.4 416.9,622.2 416.8,637.6 416.8,653 
		416.7,668.4 416.7,676.1 416.7,683.8 416.7,691.5 416.8,699.2 416.8,706.9 416.9,714.6 415.9,714.4 415,714.2 414.1,714 
		413.1,713.8 412.1,713.7 411.1,713.5 410.1,713.4 409.1,713.3 408.1,713.2 407.1,713.1 406.1,713 405.1,712.9 404,712.8 403,712.8 
		402,712.7 400.9,712.7 399.9,712.7 398.9,712.7 397.9,712.7 396.8,712.8 395.8,712.8 394.8,712.9 393.8,712.9 392.8,713 
		391.9,713.1 390.9,713.2 389.9,713.4 389,713.5 388.1,713.7 387.1,713.8 386.2,714 385.4,714.2 385.6,709 385.9,703.8 386.1,698.5 
		386.3,693.3 386.5,688.1 386.7,682.8 386.9,677.6 387.1,672.4 387.3,666.1 387.4,659.8 387.6,653.6 387.7,647.3 387.8,641.1 
		388,634.8 388.1,628.5 388.1,622.3 388.2,616 388.3,609.7 388.3,603.5 388.3,597.2 388.4,590.9 388.4,584.6 388.4,572.1 
		388.4,559.6 388.3,547 388.3,534.5 388,484.2 388,471.7 388.3,470.5 388.7,469.4 389.1,468.3 389.5,467.2 389.9,466.1 390.3,465.1 
		390.7,464.2 391.1,463.2 391.6,462.3 392,461.4 392.5,460.6 392.9,459.8 393.4,459.1 393.9,458.3 394.4,457.7 394.6,457.4 
		394.8,457 395.1,456.7 395.3,456.5 395.6,456.2 395.8,455.9 396.1,455.6 396.3,455.4 396.6,455.2 396.8,454.9 397.1,454.7 
		397.3,454.5 397.6,454.3 397.8,454.1 398.1,453.9 398.3,453.8 398.6,453.6 398.8,453.5 399.1,453.3 399.3,453.2 399.5,453.1 
		399.8,453 400,452.9 400.3,452.8 400.5,452.7 400.8,452.6 401,452.6 401.3,452.5 401.5,452.4 401.7,452.4 402,452.4 402.2,452.4 
		402.5,452.4 402.7,452.3 402.9,452.3 403.1,452.4 403.3,452.4 403.6,452.4 403.8,452.4 404,452.5 404.2,452.5 404.4,452.6 
		404.7,452.6 404.9,452.7 405.1,452.8 405.3,452.8 405.5,452.9 405.8,453 406,453.1 406.2,453.3 406.4,453.4 406.7,453.5 
		406.9,453.6 407.1,453.8 407.3,453.9 407.6,454.1 407.8,454.3 408,454.4 408.2,454.6 408.5,454.8 408.7,455 408.9,455.2 
		409.1,455.5 409.4,455.7 409.6,455.9 409.8,456.2 410,456.4 410.3,456.7 410.7,457.2 411.1,457.8 411.6,458.4 412,459.1 
		412.4,459.8 412.8,460.5 413.3,461.2 413.7,462 414.1,462.8 414.5,463.6 414.9,464.5 415.2,465.4 415.6,466.3 416,467.3 
		416.3,468.3 	"/>
</g>
<g id="POLYLINE_430_">
	<polyline class="st2" points="313.5,482.9 313.6,490 313.7,497.1 313.8,504.1 313.9,511.2 313.9,518.3 314,525.4 314,532.4 
		314,539.5 314,546.6 314,553.7 314,567.9 313.9,582 313.8,596.2 313.7,624.5 313.6,638.7 313.5,652.9 313.5,667 313.5,674.1 
		313.5,681.2 313.5,688.3 313.5,695.3 313.6,702.4 313.6,709.5 312.8,709.3 312,709.1 311.2,708.9 310.4,708.8 309.5,708.6 
		308.7,708.5 307.8,708.3 306.9,708.2 306.1,708.1 305.2,708 304.3,707.9 303.4,707.8 302.5,707.7 301.6,707.6 300.7,707.5 
		299.8,707.5 298.9,707.4 298,707.4 297,707.4 296.1,707.4 295.2,707.3 294.3,707.3 293.4,707.4 292.5,707.4 291.6,707.4 
		290.7,707.5 289.8,707.5 288.9,707.6 288.1,707.7 287.2,707.8 286.3,707.8 285.5,708 285,693 284.8,685.5 284.6,678 284.5,672.2 
		284.3,666.5 284.2,660.7 284.1,654.9 284,649.2 284,643.4 283.9,637.6 283.8,631.8 283.8,626.1 283.8,620.3 283.7,608.8 
		283.7,597.2 283.7,585.6 284.1,493.2 284.4,491.7 284.8,490.3 285.2,488.9 285.6,487.6 286,486.2 286.4,484.9 286.8,483.7 
		287.3,482.5 287.8,481.3 288.2,480.2 288.7,479.1 289.2,478.1 289.7,477.1 290.3,476.2 290.8,475.3 291.1,474.8 291.3,474.4 
		291.6,474 291.9,473.7 292.2,473.3 292.4,472.9 292.7,472.6 293,472.3 293.3,472 293.6,471.7 293.8,471.4 294.1,471.1 294.4,470.8 
		294.7,470.6 295,470.4 295.3,470.1 295.5,469.9 295.8,469.7 296.1,469.5 296.4,469.4 296.7,469.2 297,469.1 297.1,469 297.2,468.9 
		297.4,468.9 297.5,468.8 297.7,468.8 297.8,468.7 297.9,468.7 298.1,468.6 298.2,468.6 298.4,468.5 298.5,468.5 298.6,468.5 
		298.8,468.4 298.9,468.4 299.1,468.4 299.2,468.3 299.3,468.3 299.5,468.3 299.6,468.3 299.7,468.3 299.9,468.3 300,468.3 
		300.1,468.3 300.3,468.3 300.5,468.3 300.7,468.3 300.9,468.3 301.1,468.3 301.3,468.3 301.5,468.4 301.7,468.4 301.9,468.5 
		302.2,468.5 302.4,468.6 302.6,468.6 302.8,468.7 303,468.8 303.2,468.9 303.4,469 303.7,469.1 303.9,469.2 304.1,469.3 
		304.3,469.5 304.5,469.6 304.7,469.7 305,469.9 305.2,470 305.4,470.2 305.6,470.4 305.8,470.5 306,470.7 306.2,470.9 306.5,471.1 
		306.7,471.3 306.9,471.5 307.1,471.8 307.3,472 307.5,472.2 308,472.7 308.4,473.3 308.8,473.8 309.2,474.4 309.6,475.1 310,475.7 
		310.4,476.4 310.8,477.1 311.2,477.9 311.6,478.6 312,479.4 312.4,480.3 312.7,481.1 313.1,482 313.5,482.9 	"/>
</g>
<g id="POLYLINE_431_">
	<polyline class="st2" points="209.3,514.3 209.4,520.4 209.4,526.5 209.4,532.7 209.5,538.8 209.5,551 209.4,563.2 209.4,575.4 
		209.3,587.6 209.2,612.1 209,636.5 209,648.8 208.9,661 208.9,673.2 208.9,685.4 208.9,691.5 209,697.6 209,703.7 209.1,709.8 
		208.2,709.6 207.3,709.4 206.4,709.2 205.5,709 204.5,708.8 203.6,708.6 202.6,708.4 201.6,708.3 200.6,708.1 199.6,708 
		198.6,707.9 197.6,707.8 196.6,707.7 195.6,707.6 194.6,707.5 193.5,707.5 192.5,707.4 191.5,707.4 190.5,707.4 189.4,707.3 
		188.4,707.3 187.4,707.4 186.4,707.4 185.3,707.4 184.3,707.5 183.3,707.6 182.4,707.6 181.4,707.7 180.4,707.9 179.4,708 
		178.5,708.1 177.6,708.3 177.8,703.2 178.1,698.1 178.3,693.1 178.5,688 178.7,682.9 178.9,677.8 179.1,672.8 179.3,667.7 
		179.4,662.9 179.5,658.2 179.7,653.5 179.8,648.7 179.9,644 180,639.3 180.2,629.8 180.3,620.3 180.4,610.8 180.5,601.3 
		180.5,591.9 180.6,582.4 180.6,572.9 180.6,563.4 180.6,553.9 180.5,544.4 180.5,534.9 180.4,515.9 180.7,514.8 181.1,513.6 
		181.5,512.5 181.9,511.4 182.3,510.4 182.7,509.4 183.1,508.4 183.6,507.5 184,506.6 184.4,505.7 184.9,504.9 185.4,504.1 
		185.8,503.3 186.3,502.6 186.8,501.9 187,501.6 187.3,501.3 187.5,501 187.8,500.7 188,500.4 188.2,500.2 188.5,499.9 188.7,499.7 
		189,499.4 189.2,499.2 189.5,499 189.7,498.8 190,498.6 190.2,498.4 190.5,498.2 190.7,498 191,497.9 191.2,497.7 191.5,497.6 
		191.7,497.5 192,497.4 192.2,497.2 192.5,497.1 192.7,497.1 192.9,497 193.2,496.9 193.4,496.8 193.7,496.8 193.9,496.7 
		194.2,496.7 194.4,496.7 194.6,496.6 194.9,496.6 195.1,496.6 195.3,496.6 195.6,496.6 195.8,496.7 196,496.7 196.2,496.7 
		196.5,496.8 196.7,496.8 196.9,496.9 197.2,496.9 197.4,497 197.6,497.1 197.9,497.2 198.1,497.3 198.3,497.4 198.6,497.5 
		198.8,497.6 199.1,497.8 199.3,497.9 199.5,498.1 199.8,498.2 200,498.4 200.2,498.6 200.5,498.8 200.7,499 201,499.2 201.2,499.4 
		201.4,499.6 201.7,499.9 201.9,500.1 202.1,500.4 202.4,500.6 202.6,500.9 202.8,501.2 203.1,501.5 203.5,502.1 204,502.7 
		204.4,503.4 204.9,504.1 205.3,504.9 205.8,505.7 206.2,506.5 206.6,507.4 207,508.3 207.4,509.2 207.8,510.2 208.2,511.2 
		208.6,512.2 209,513.3 209.3,514.3 	"/>
</g>
<g id="HATCH_224_">
	<polygon class="st3" points="209.3,514.3 209.4,520.4 209.4,526.5 209.4,532.7 209.5,538.8 209.5,551 209.4,563.2 209.4,575.4 
		209.3,587.6 209,636.5 209,648.8 208.9,661 208.9,673.2 208.9,685.4 208.9,691.5 209,697.6 209,703.7 209.1,709.8 208.2,709.6 
		207.3,709.4 206.4,709.2 205.5,709 204.5,708.8 203.6,708.6 202.6,708.4 201.6,708.3 200.6,708.1 199.6,708 198.6,707.9 
		197.6,707.8 196.6,707.7 195.6,707.6 194.6,707.5 193.5,707.5 192.5,707.4 191.5,707.4 190.5,707.4 189.4,707.3 188.4,707.3 
		187.4,707.4 186.4,707.4 185.3,707.4 184.3,707.5 183.3,707.6 182.4,707.6 181.4,707.7 180.4,707.9 179.4,708 178.5,708.1 
		177.6,708.3 177.8,703.2 178.1,698.1 178.3,693.1 178.5,688 178.7,682.9 178.9,677.8 179.1,672.8 179.3,667.7 179.4,662.9 
		179.5,658.2 179.7,653.5 179.8,648.7 179.9,644 180,639.3 180.2,629.8 180.3,620.3 180.4,610.8 180.5,601.3 180.5,591.9 
		180.6,582.4 180.6,572.9 180.6,563.4 180.6,553.9 180.5,544.4 180.5,534.9 180.4,515.9 180.7,514.8 181.1,513.6 181.5,512.5 
		181.9,511.4 182.3,510.4 182.7,509.4 183.1,508.4 183.6,507.5 184,506.6 184.4,505.7 184.9,504.9 185.4,504.1 185.8,503.3 
		186.3,502.6 186.8,501.9 187,501.6 187.3,501.3 187.5,501 187.8,500.7 188,500.4 188.2,500.2 188.5,499.9 188.7,499.7 189,499.4 
		189.2,499.2 189.5,499 189.7,498.8 190,498.6 190.2,498.4 190.5,498.2 190.7,498 191,497.9 191.2,497.7 191.5,497.6 191.7,497.5 
		192,497.4 192.2,497.2 192.5,497.1 192.7,497.1 192.9,497 193.2,496.9 193.4,496.8 193.7,496.8 193.9,496.7 194.2,496.7 
		194.4,496.7 194.6,496.6 194.9,496.6 195.1,496.6 195.3,496.6 195.6,496.6 195.8,496.7 196,496.7 196.2,496.7 196.5,496.8 
		196.7,496.8 196.9,496.9 197.2,496.9 197.4,497 197.6,497.1 197.9,497.2 198.1,497.3 198.3,497.4 198.6,497.5 198.8,497.6 
		199.1,497.8 199.3,497.9 199.5,498.1 199.8,498.2 200,498.4 200.2,498.6 200.5,498.8 200.7,499 201,499.2 201.2,499.4 201.4,499.6 
		201.7,499.9 201.9,500.1 202.1,500.4 202.4,500.6 202.6,500.9 202.8,501.2 203.1,501.5 203.5,502.1 204,502.7 204.4,503.4 
		204.9,504.1 205.3,504.9 205.8,505.7 206.2,506.5 206.6,507.4 207,508.3 207.4,509.2 207.8,510.2 208.2,511.2 208.6,512.2 
		209,513.3 	"/>
</g>
<g id="HATCH_225_">
	<polygon class="st3" points="313.5,482.9 313.6,490 313.7,497.1 313.8,504.1 313.9,511.2 313.9,518.3 314,525.4 314,532.4 
		314,539.5 314,546.6 314,553.7 314,567.9 313.9,582 313.8,596.2 313.7,624.5 313.6,638.7 313.5,652.9 313.5,667 313.5,674.1 
		313.5,681.2 313.5,688.3 313.5,695.3 313.6,702.4 313.6,709.5 312.8,709.3 312,709.1 311.2,708.9 310.4,708.8 309.5,708.6 
		308.7,708.5 307.8,708.3 306.9,708.2 306.1,708.1 305.2,708 304.3,707.9 303.4,707.8 302.5,707.7 301.6,707.6 300.7,707.5 
		299.8,707.5 298.9,707.4 298,707.4 297,707.4 296.1,707.4 295.2,707.3 294.3,707.3 293.4,707.4 292.5,707.4 291.6,707.4 
		290.7,707.5 289.8,707.5 288.9,707.6 288.1,707.7 287.2,707.8 286.3,707.8 285.5,708 285,693 284.8,685.5 284.6,678 284.5,672.2 
		284.3,666.5 284.2,660.7 284.1,654.9 284,649.2 284,643.4 283.9,637.6 283.8,631.8 283.8,626.1 283.8,620.3 283.7,608.8 
		283.7,597.2 283.7,585.6 284.1,493.2 284.4,491.7 284.8,490.3 285.2,488.9 285.6,487.6 286,486.2 286.4,484.9 286.8,483.7 
		287.3,482.5 287.8,481.3 288.2,480.2 288.7,479.1 289.2,478.1 289.7,477.1 290.3,476.2 290.8,475.3 291.1,474.8 291.3,474.4 
		291.6,474 291.9,473.7 292.2,473.3 292.4,472.9 292.7,472.6 293,472.3 293.3,472 293.6,471.7 293.8,471.4 294.1,471.1 294.4,470.8 
		294.7,470.6 295,470.4 295.3,470.1 295.5,469.9 295.8,469.7 296.1,469.5 296.4,469.4 296.7,469.2 297,469.1 297.1,469 297.2,468.9 
		297.4,468.9 297.5,468.8 297.7,468.8 297.8,468.7 297.9,468.7 298.1,468.6 298.2,468.6 298.4,468.5 298.5,468.5 298.6,468.5 
		298.8,468.4 298.9,468.4 299.1,468.4 299.2,468.3 299.3,468.3 299.5,468.3 299.6,468.3 299.7,468.3 299.9,468.3 300,468.3 
		300.1,468.3 300.3,468.3 300.5,468.3 300.7,468.3 300.9,468.3 301.1,468.3 301.3,468.3 301.5,468.4 301.7,468.4 301.9,468.5 
		302.2,468.5 302.4,468.6 302.6,468.6 302.8,468.7 303,468.8 303.2,468.9 303.4,469 303.7,469.1 303.9,469.2 304.1,469.3 
		304.3,469.5 304.5,469.6 304.7,469.7 305,469.9 305.2,470 305.4,470.2 305.6,470.4 305.8,470.5 306,470.7 306.2,470.9 306.5,471.1 
		306.7,471.3 306.9,471.5 307.1,471.8 307.3,472 307.5,472.2 308,472.7 308.4,473.3 308.8,473.8 309.2,474.4 309.6,475.1 310,475.7 
		310.4,476.4 310.8,477.1 311.2,477.9 311.6,478.6 312,479.4 312.4,480.3 312.7,481.1 313.1,482 	"/>
</g>
<g id="HATCH_226_">
	<polygon class="st3" points="416.3,468.3 416.5,475.9 416.7,483.6 416.8,491.3 416.9,499 417,506.7 417.1,514.4 417.2,522.1 
		417.2,529.8 417.3,537.5 417.3,545.2 417.3,552.9 417.3,560.6 417.2,576 417.1,591.4 416.8,637.6 416.8,653 416.7,668.4 
		416.7,676.1 416.7,683.8 416.7,691.5 416.8,699.2 416.8,706.9 416.9,714.6 415.9,714.4 415,714.2 414.1,714 413.1,713.8 
		412.1,713.7 411.1,713.5 410.1,713.4 409.1,713.3 408.1,713.2 407.1,713.1 406.1,713 405.1,712.9 404,712.8 403,712.8 402,712.7 
		400.9,712.7 399.9,712.7 398.9,712.7 397.9,712.7 396.8,712.8 395.8,712.8 394.8,712.9 393.8,712.9 392.8,713 391.9,713.1 
		390.9,713.2 389.9,713.4 389,713.5 388.1,713.7 387.1,713.8 386.2,714 385.4,714.2 385.6,709 385.9,703.8 386.1,698.5 386.3,693.3 
		386.5,688.1 386.7,682.8 386.9,677.6 387.1,672.4 387.3,666.1 387.4,659.8 387.6,653.6 387.7,647.3 387.8,641.1 388,634.8 
		388.1,628.5 388.1,622.3 388.2,616 388.3,609.7 388.3,603.5 388.3,597.2 388.4,590.9 388.4,584.6 388.4,572.1 388.4,559.6 
		388.3,547 388.3,534.5 388,484.2 388,471.7 388.3,470.5 388.7,469.4 389.1,468.3 389.5,467.2 389.9,466.1 390.3,465.1 390.7,464.2 
		391.1,463.2 391.6,462.3 392,461.4 392.5,460.6 392.9,459.8 393.4,459.1 393.9,458.3 394.4,457.7 394.6,457.4 394.8,457 
		395.1,456.7 395.3,456.5 395.6,456.2 395.8,455.9 396.1,455.6 396.3,455.4 396.6,455.2 396.8,454.9 397.1,454.7 397.3,454.5 
		397.6,454.3 397.8,454.1 398.1,453.9 398.3,453.8 398.6,453.6 398.8,453.5 399.1,453.3 399.3,453.2 399.5,453.1 399.8,453 
		400,452.9 400.3,452.8 400.5,452.7 400.8,452.6 401,452.6 401.3,452.5 401.5,452.4 401.7,452.4 402,452.4 402.2,452.4 402.5,452.4 
		402.7,452.3 402.9,452.3 403.1,452.4 403.3,452.4 403.6,452.4 403.8,452.4 404,452.5 404.2,452.5 404.4,452.6 404.7,452.6 
		404.9,452.7 405.1,452.8 405.3,452.8 405.5,452.9 405.8,453 406,453.1 406.2,453.3 406.4,453.4 406.7,453.5 406.9,453.6 
		407.1,453.8 407.3,453.9 407.6,454.1 407.8,454.3 408,454.4 408.2,454.6 408.5,454.8 408.7,455 408.9,455.2 409.1,455.5 
		409.4,455.7 409.6,455.9 409.8,456.2 410,456.4 410.3,456.7 410.7,457.2 411.1,457.8 411.6,458.4 412,459.1 412.4,459.8 
		412.8,460.5 413.3,461.2 413.7,462 414.1,462.8 414.5,463.6 414.9,464.5 415.2,465.4 415.6,466.3 416,467.3 	"/>
</g>
<g id="HATCH_227_">
	<polygon class="st3" points="496,712.8 495.5,697.5 495.3,689.9 495.1,682.2 494.9,675.4 494.8,668.6 494.6,661.8 494.5,655 
		494.4,648.2 494.4,641.3 494.3,634.5 494.2,627.7 494.2,620.9 494.2,614.1 494.2,607.3 494.2,600.4 494.2,586.8 494.2,573.1 
		494.3,559.5 494.5,518.6 494.5,504.9 494.6,491.3 494.6,477.6 494.6,470.8 494.6,464 494.9,462.8 495.3,461.7 495.7,460.6 
		496,459.5 496.5,458.5 496.9,457.4 497.3,456.5 497.7,455.5 498.2,454.6 498.6,453.8 499.1,452.9 499.5,452.2 500,451.4 
		500.5,450.7 500.9,450 501.2,449.7 501.4,449.4 501.7,449.1 501.9,448.8 502.2,448.5 502.4,448.3 502.7,448 502.9,447.8 
		503.1,447.5 503.4,447.3 503.6,447.1 503.9,446.9 504.1,446.7 504.4,446.5 504.6,446.3 504.9,446.1 505.1,446 505.4,445.8 
		505.6,445.7 505.9,445.6 506.1,445.5 506.4,445.3 506.6,445.2 506.9,445.2 507.1,445.1 507.3,445 507.6,444.9 507.8,444.9 
		508.1,444.8 508.3,444.8 508.5,444.8 508.8,444.8 509,444.7 509.3,444.7 509.5,444.7 509.7,444.7 509.9,444.8 510.2,444.8 
		510.4,444.8 510.6,444.9 510.8,444.9 511.1,445 511.3,445 511.5,445.1 511.8,445.2 512,445.3 512.2,445.4 512.5,445.5 512.7,445.6 
		512.9,445.7 513.2,445.9 513.4,446 513.7,446.2 513.9,446.3 514.1,446.5 514.4,446.7 514.6,446.9 514.8,447 515.1,447.3 
		515.3,447.5 515.5,447.7 515.8,447.9 516,448.2 516.2,448.4 516.5,448.7 516.7,448.9 516.9,449.2 517.2,449.5 517.6,450.1 
		518.1,450.8 518.5,451.4 519,452.1 519.4,452.9 519.9,453.7 520.3,454.5 520.7,455.3 521.1,456.2 521.5,457.1 521.9,458.1 
		522.3,459.1 522.7,460.1 523,461.1 523.4,462.2 523.6,470.1 523.8,477.9 524,485.8 524.1,493.7 524.2,501.5 524.3,509.4 
		524.4,517.3 524.4,525.2 524.5,533.1 524.5,540.9 524.5,548.8 524.5,556.7 524.5,564.6 524.4,572.5 524.4,588.2 524.1,635.6 
		524,651.3 524,659.2 523.9,667.1 523.9,675 523.9,682.9 523.9,690.7 524,698.6 524,706.5 524.1,714.4 523.3,714.2 522.5,714 
		521.7,713.8 520.8,713.6 520,713.5 519.1,713.3 518.3,713.2 517.4,713.1 516.5,712.9 515.6,712.8 514.7,712.7 513.9,712.6 
		513,712.5 512,712.4 511.1,712.4 510.2,712.3 509.3,712.3 508.4,712.2 507.5,712.2 506.6,712.2 505.7,712.2 504.8,712.2 
		503.9,712.2 503,712.2 502.1,712.3 501.2,712.3 500.3,712.4 499.4,712.4 498.5,712.5 497.7,712.6 496.8,712.7 496,712.8 	"/>
</g>
<g id="HATCH_228_">
	<polygon class="st3" points="599.8,713.8 600.1,708.6 600.3,703.4 600.5,698.2 600.7,693 601,687.8 601.1,682.6 601.3,677.4 
		601.5,672.2 601.7,665.6 601.9,659 602,652.5 602.2,645.9 602.3,639.3 602.4,632.7 602.5,626.2 602.6,619.6 602.7,613 602.7,606.4 
		602.8,599.9 602.8,593.3 602.8,586.7 602.8,580.1 602.8,566.9 602.8,553.8 602.7,540.6 602.7,527.4 602.5,487.9 602.4,474.7 
		602.4,461.5 602.7,460.5 603.1,459.5 603.5,458.5 603.8,457.6 604.2,456.7 604.6,455.8 605,454.9 605.5,454.1 605.9,453.3 
		606.3,452.6 606.7,451.9 607.2,451.2 607.6,450.5 608.1,449.9 608.5,449.3 608.8,449 609,448.8 609.2,448.5 609.4,448.3 609.7,448 
		609.9,447.8 610.1,447.6 610.4,447.4 610.6,447.2 610.8,447 611.1,446.8 611.3,446.6 611.5,446.4 611.8,446.3 612,446.1 612.2,446 
		612.4,445.8 612.7,445.7 612.9,445.6 613.1,445.5 613.4,445.4 613.6,445.3 613.8,445.2 614.1,445.1 614.3,445 614.5,445 
		614.7,444.9 615,444.9 615.2,444.8 615.4,444.8 615.6,444.8 615.9,444.7 616.1,444.7 616.3,444.7 616.5,444.7 616.7,444.7 
		617,444.8 617.2,444.8 617.4,444.8 617.7,444.9 617.9,444.9 618.1,445 618.4,445.1 618.6,445.1 618.9,445.2 619.1,445.3 
		619.3,445.4 619.6,445.5 619.8,445.6 620.1,445.8 620.3,445.9 620.5,446.1 620.8,446.2 621,446.4 621.3,446.6 621.5,446.7 
		621.7,446.9 622,447.1 622.2,447.4 622.5,447.6 622.7,447.8 622.9,448 623.2,448.3 623.4,448.6 623.6,448.8 623.9,449.1 
		624.1,449.4 624.4,449.7 624.8,450.3 625.3,451 625.7,451.7 626.2,452.4 626.6,453.2 627.1,454 627.5,454.9 627.9,455.8 
		628.4,456.7 628.8,457.6 629.2,458.6 629.5,459.6 629.9,460.7 630.3,461.7 630.6,462.8 630.9,470.7 631,478.6 631.2,486.5 
		631.3,494.4 631.4,502.3 631.5,510.1 631.6,518 631.6,525.9 631.7,533.8 631.7,541.7 631.7,549.6 631.7,557.5 631.7,565.4 
		631.6,573.3 631.6,589.1 631.3,636.5 631.2,652.3 631.2,660.2 631.1,668 631.1,675.9 631.1,683.8 631.2,691.7 631.2,699.6 
		631.2,707.5 631.3,715.4 630.4,715.2 629.5,714.9 628.6,714.7 627.7,714.5 626.8,714.3 625.8,714.1 624.8,714 623.9,713.8 
		622.9,713.7 621.9,713.5 620.9,713.4 619.9,713.3 618.9,713.2 617.8,713.1 616.8,713 615.8,713 614.8,712.9 613.7,712.9 
		612.7,712.9 611.7,712.8 610.6,712.9 609.6,712.9 608.6,712.9 607.6,712.9 606.6,713 605.6,713.1 604.6,713.2 603.6,713.3 
		602.6,713.4 601.7,713.5 600.7,713.6 	"/>
</g>
<g id="HATCH_229_">
	<polygon class="st3" points="707.7,711.8 707.3,696.5 707.1,688.9 706.8,681.2 706.7,674.7 706.6,668.1 706.4,661.5 706.3,654.9 
		706.2,648.3 706.2,641.7 706.1,635.1 706,628.5 706,621.9 706,615.3 706,608.7 705.9,602.1 706,588.9 706,575.6 706,562.4 
		706.2,522.8 706.3,509.6 706.3,496.4 706.4,483.2 706.3,469.9 706.7,468.9 707.1,467.8 707.4,466.8 707.8,465.8 708.2,464.9 
		708.6,463.9 709,463 709.5,462.2 709.9,461.4 710.3,460.6 710.8,459.8 711.2,459.1 711.7,458.4 712.1,457.8 712.6,457.2 
		712.8,456.9 713.1,456.6 713.3,456.3 713.5,456.1 713.8,455.8 714,455.6 714.2,455.3 714.5,455.1 714.7,454.9 714.9,454.7 
		715.2,454.5 715.4,454.3 715.7,454.1 715.9,453.9 716.1,453.8 716.4,453.6 716.6,453.5 716.8,453.4 717.1,453.2 717.3,453.1 
		717.5,453 717.8,452.9 718,452.8 718.2,452.7 718.5,452.7 718.7,452.6 718.9,452.5 719.2,452.5 719.4,452.4 719.6,452.4 
		719.9,452.4 720.1,452.4 720.3,452.3 720.5,452.3 720.8,452.4 720.9,452.4 721,452.4 721.1,452.4 721.3,452.4 721.4,452.4 
		721.5,452.4 721.8,452.5 722,452.5 722.2,452.6 722.5,452.6 722.7,452.7 723,452.8 723.2,452.9 723.5,453 723.7,453.1 724,453.2 
		724.2,453.3 724.5,453.5 724.7,453.6 725,453.8 725.2,454 725.5,454.2 725.7,454.4 726,454.6 726.3,454.8 726.5,455 726.8,455.2 
		727,455.5 727.3,455.7 727.5,456 727.8,456.3 728,456.6 728.3,456.9 728.5,457.2 728.7,457.5 729,457.8 729.5,458.5 730,459.2 
		730.4,460 730.9,460.8 731.4,461.7 731.8,462.6 732.3,463.5 732.7,464.5 733.1,465.5 733.5,466.5 733.9,467.6 734.3,468.7 
		734.7,469.9 735.1,471 735.4,472.2 735.6,479.7 735.8,487.2 735.9,494.7 736,502.3 736.1,509.8 736.1,517.3 736.2,524.8 
		736.2,532.3 736.3,539.8 736.3,547.3 736.3,554.9 736.2,562.4 736.2,577.4 736.1,592.5 735.8,637.6 735.8,652.7 735.7,667.7 
		735.7,675.2 735.7,682.7 735.7,690.3 735.8,697.8 735.8,705.3 735.9,712.8 735,712.6 734.2,712.4 733.4,712.3 732.5,712.1 
		731.7,712 730.8,711.9 729.9,711.7 729.1,711.6 728.2,711.5 727.3,711.4 726.4,711.3 725.5,711.2 724.6,711.2 723.7,711.1 
		722.8,711 721.9,711 721,711 720,711 719.1,710.9 718.2,710.9 717.3,711 716.4,711 715.5,711 714.6,711 713.7,711.1 712.9,711.2 
		712,711.2 711.1,711.3 710.3,711.4 709.4,711.5 708.6,711.6 707.7,711.8 	"/>
</g>
<g id="HATCH_230_">
	<polygon class="st3" points="807.6,709.8 807.8,704.6 808.1,699.4 808.3,694.2 808.5,689 808.7,683.8 808.9,678.6 809.1,673.4 
		809.3,668.2 809.5,662.5 809.6,656.7 809.8,650.9 809.9,645.2 810,639.4 810.2,633.7 810.2,627.9 810.3,622.1 810.4,616.4 
		810.5,610.6 810.5,604.8 810.6,599 810.6,587.5 810.6,576 810.6,564.4 810.6,552.8 810.6,541.3 810.5,529.7 810.3,483.5 
		810.6,482.6 811,481.7 811.3,480.8 811.7,479.9 812.1,479.1 812.5,478.3 812.9,477.5 813.3,476.8 813.7,476 814.1,475.4 
		814.5,474.7 815,474.1 815.4,473.5 815.8,472.9 816.2,472.4 816.5,472.2 816.7,471.9 816.9,471.7 817.1,471.5 817.3,471.2 
		817.6,471 817.8,470.8 818,470.6 818.2,470.4 818.4,470.3 818.7,470.1 818.9,469.9 819.1,469.8 819.3,469.6 819.5,469.5 
		819.8,469.4 820,469.2 820.2,469.1 820.4,469 820.6,468.9 820.9,468.8 821.1,468.7 821.3,468.7 821.5,468.6 821.7,468.5 
		821.9,468.5 822.2,468.4 822.4,468.4 822.6,468.3 822.8,468.3 823,468.3 823.2,468.3 823.4,468.3 823.6,468.3 823.8,468.3 
		823.9,468.3 824,468.3 824.1,468.3 824.3,468.3 824.4,468.3 824.5,468.3 824.7,468.3 824.8,468.4 824.9,468.4 825,468.4 
		825.2,468.4 825.3,468.5 825.4,468.5 825.6,468.5 825.7,468.6 825.8,468.6 825.9,468.6 826.2,468.7 826.5,468.8 826.7,469 
		827,469.1 827.3,469.2 827.5,469.4 827.8,469.5 828.1,469.7 828.3,469.9 828.6,470.1 828.8,470.3 829.1,470.5 829.4,470.7 
		829.6,470.9 829.9,471.2 830.2,471.5 830.4,471.7 830.7,472 831,472.3 831.2,472.6 831.5,472.9 831.7,473.3 832,473.6 832.2,474 
		832.5,474.3 833,475.1 833.5,475.9 834,476.7 834.5,477.6 835,478.6 835.4,479.6 835.9,480.6 836.3,481.6 836.7,482.8 837.2,483.9 
		837.6,485.1 838,486.3 838.3,487.5 838.7,488.8 839.1,490.1 839.2,496.9 839.3,503.8 839.3,510.6 839.4,517.5 839.4,524.3 
		839.5,531.2 839.5,538.1 839.5,544.9 839.5,551.8 839.5,558.6 839.4,572.3 839.4,586.1 839.1,627.2 839,641 839,654.7 838.9,668.4 
		838.9,675.3 839,682.1 839,689 839,695.8 839,702.7 839.1,709.5 838.2,709.3 837.2,709.2 836.2,709 835.2,708.9 834.2,708.7 
		833.2,708.6 832.2,708.5 831.2,708.4 830.2,708.3 829.2,708.2 828.1,708.1 827.1,708.1 826.1,708 825,708 824,708 823,708 
		821.9,708 820.9,708 819.9,708 818.9,708.1 817.9,708.2 816.9,708.2 815.9,708.3 814.9,708.4 813.9,708.5 813,708.7 812,708.8 
		811.1,709 810.2,709.2 809.3,709.4 808.4,709.6 	"/>
</g>
<g id="HATCH_231_">
	<polygon class="st3" points="946.6,514.6 946.6,520.6 946.7,526.5 946.7,532.4 946.7,538.3 946.7,550.1 946.7,562 946.6,573.8 
		946.6,585.6 946.3,633 946.2,644.8 946.2,656.6 946.2,668.5 946.2,680.3 946.2,686.2 946.2,692.1 946.3,698 946.3,703.9 
		945.5,703.8 944.6,703.6 943.8,703.5 942.9,703.4 942.1,703.2 941.2,703.1 940.3,703 939.4,702.9 938.5,702.8 937.6,702.7 
		936.7,702.7 935.8,702.6 934.9,702.5 934,702.5 933.1,702.5 932.2,702.4 931.3,702.4 930.4,702.4 929.5,702.4 928.5,702.4 
		927.7,702.5 926.8,702.5 925.9,702.5 925,702.6 924.1,702.7 923.2,702.7 922.4,702.8 921.5,702.9 920.7,703 919.8,703.2 919,703.3 
		918.2,703.4 917.7,688.5 917.5,681 917.3,673.5 917.2,668.7 917.1,663.9 917,659.1 916.9,654.2 916.8,649.4 916.7,644.6 916.6,635 
		916.5,625.3 916.5,615.7 916.4,606 916.4,596.4 916.4,586.7 916.4,577.1 916.5,567.4 916.5,557.7 916.7,519.1 917,517.8 
		917.4,516.5 917.8,515.2 918.2,514 918.6,512.7 919,511.6 919.4,510.4 919.9,509.3 920.3,508.3 920.8,507.3 921.3,506.3 
		921.8,505.4 922.3,504.5 922.8,503.7 923.3,502.9 923.5,502.5 923.8,502.1 924.1,501.8 924.3,501.5 924.6,501.1 924.9,500.8 
		925.1,500.5 925.4,500.2 925.7,499.9 925.9,499.7 926.2,499.4 926.5,499.2 926.7,498.9 927,498.7 927.3,498.5 927.5,498.3 
		927.8,498.1 928.1,497.9 928.3,497.8 928.6,497.6 928.9,497.5 929.1,497.4 929.4,497.2 929.7,497.1 929.8,497.1 929.9,497 
		930.1,497 930.2,496.9 930.3,496.9 930.5,496.9 930.6,496.8 930.7,496.8 930.9,496.8 931,496.8 931.1,496.7 931.3,496.7 
		931.4,496.7 931.5,496.7 931.6,496.7 931.8,496.7 931.9,496.6 932,496.6 932.2,496.6 932.3,496.6 932.5,496.6 932.7,496.6 
		933,496.7 933.2,496.7 933.4,496.7 933.7,496.8 933.9,496.8 934.1,496.9 934.4,496.9 934.6,497 934.8,497.1 935.1,497.2 
		935.3,497.3 935.6,497.4 935.8,497.5 936,497.7 936.3,497.8 936.5,497.9 936.7,498.1 937,498.3 937.2,498.4 937.5,498.6 
		937.7,498.8 937.9,499 938.2,499.2 938.4,499.5 938.7,499.7 938.9,499.9 939.1,500.2 939.4,500.4 939.6,500.7 939.9,501 
		940.1,501.3 940.3,501.6 940.8,502.2 941.2,502.9 941.7,503.5 942.2,504.3 942.6,505.1 943,505.9 943.5,506.7 943.9,507.6 
		944.3,508.5 944.7,509.4 945.1,510.4 945.5,511.4 945.9,512.5 946.2,513.5 	"/>
</g>
<g id="POLYLINE_432_">
	<path class="st0" d="M940.6,393.5l0.3,2.1l0.3,2.1l0.3,2.1l0.3,2.1l0.3,2.1l0.2,2.1l0.2,2.1l0.2,2.1l0.2,2.1l0.2,2.1l0.2,2.1
		l0.2,2.1l0.3,4.2l0.3,4.2l0.3,4.2l0.2,4.2l0.2,4.2l0.2,4.2l0.2,4.2l0.2,4.2l0.1,4.2l0.1,4.2l0.2,6.8l0.2,6.8l0.2,6.8l0.1,6.8
		l0.1,6.8l0.1,6.8l0.1,6.8l0.1,6.8l-0.4-1.1l-0.4-1.1l-0.4-1l-0.4-1l-0.4-1l-0.4-0.9l-0.4-0.9l-0.4-0.9l-0.4-0.8l-0.4-0.8l-0.4-0.8
		l-0.5-0.7l-0.5-0.7l-0.5-0.7l-0.5-0.6l-0.2-0.3l-0.2-0.3l-0.2-0.3l-0.2-0.3l-0.2-0.3l-0.2-0.2l-0.2-0.2l-0.2-0.2l-0.2-0.2l-0.2-0.2
		l-0.2-0.2l-0.2-0.2l-0.2-0.2l-0.2-0.2l-0.2-0.2l-0.2-0.2l-0.2-0.1l-0.2-0.1l-0.2-0.1l-0.2-0.1l-0.2-0.1l-0.2-0.1l-0.2-0.1l-0.2-0.1
		l-0.2-0.1l-0.2-0.1l-0.2-0.1l-0.2-0.1l-0.2,0l-0.2,0l-0.2,0l-0.2,0l-0.2,0l-0.2,0l-0.1,0l-0.1,0l-0.1,0l-0.1,0l-0.1,0l-0.1,0
		l-0.1,0l-0.1,0l-0.1,0l-0.1,0l-0.1,0l-0.1,0l-0.1,0l-0.1,0l-0.1,0l-0.1,0l-0.1,0l-0.1,0l-0.1,0l-0.1,0l-0.3,0.1l-0.3,0.1l-0.3,0.1
		l-0.3,0.1l-0.3,0.2l-0.3,0.2l-0.3,0.2l-0.3,0.2l-0.3,0.2l-0.3,0.2l-0.3,0.2l-0.3,0.2l-0.3,0.2l-0.3,0.3l-0.3,0.3l-0.3,0.3l-0.3,0.3
		l-0.3,0.3l-0.3,0.3l-0.3,0.3l-0.3,0.3l-0.3,0.4l-0.3,0.4l-0.3,0.4l-0.5,0.8l-0.5,0.8l-0.5,0.9l-0.5,0.9l-0.5,1l-0.5,1l-0.5,1.1
		l-0.4,1.1l-0.4,1.1l-0.4,1.2l-0.4,1.2l-0.4,1.2l-0.4,1.3l-0.4,1.3l-0.3,1.3l0.1-15.7l0-15.7l0-7.8l0-7.8l0-7.8l0-7.8l0-7.8
		l-0.1-7.8l-0.1-7.8l-0.1-7.8l-0.1-7.8l-0.2-7.8l-0.2-7.8l-0.2-7.8C924,393.7,932.3,393.5,940.6,393.5"/>
</g>
<g id="POLYLINE_433_">
	<polyline class="st0" points="810.3,483.5 810.2,472.6 810.2,461.8 810.1,450.9 810.1,440 810.2,429.1 810.2,418.3 810.3,407.4 
		810.4,402 810.4,396.5 833.7,395.8 834,397.8 834.2,399.8 834.5,401.9 834.7,403.9 835,405.9 835.2,408 835.4,410 835.6,412 
		835.8,414.1 836,416.1 836.3,420.2 836.6,424.3 836.9,428.4 837.2,432.4 837.4,436.5 837.6,440.6 837.8,444.7 838,448.8 
		838.1,452.9 838.3,457 838.4,461.1 838.6,468.3 838.8,475.6 838.9,482.8 839.1,490.1 838.7,488.8 838.3,487.5 838,486.3 
		837.6,485.1 837.2,483.9 836.7,482.8 836.3,481.6 835.9,480.6 835.4,479.6 835,478.6 834.5,477.6 834,476.7 833.5,475.9 833,475.1 
		832.5,474.3 832.2,474 832,473.6 831.7,473.3 831.5,472.9 831.2,472.6 831,472.3 830.7,472 830.4,471.7 830.2,471.5 829.9,471.2 
		829.6,470.9 829.4,470.7 829.1,470.5 828.8,470.3 828.6,470.1 828.3,469.9 828.1,469.7 827.8,469.5 827.5,469.4 827.3,469.2 
		827,469.1 826.7,469 826.5,468.8 826.2,468.7 825.9,468.6 825.8,468.6 825.7,468.6 825.6,468.5 825.4,468.5 825.3,468.5 
		825.2,468.4 825,468.4 824.9,468.4 824.8,468.4 824.7,468.3 824.5,468.3 824.4,468.3 824.3,468.3 824.1,468.3 824,468.3 
		823.9,468.3 823.8,468.3 823.6,468.3 823.4,468.3 823.2,468.3 823,468.3 822.8,468.3 822.6,468.3 822.4,468.4 822.2,468.4 
		821.9,468.5 821.7,468.5 821.5,468.6 821.3,468.7 821.1,468.7 820.9,468.8 820.6,468.9 820.4,469 820.2,469.1 820,469.2 
		819.8,469.4 819.5,469.5 819.3,469.6 819.1,469.8 818.9,469.9 818.7,470.1 818.4,470.3 818.2,470.4 818,470.6 817.8,470.8 
		817.6,471 817.3,471.2 817.1,471.5 816.9,471.7 816.7,471.9 816.5,472.2 816.2,472.4 815.8,472.9 815.4,473.5 815,474.1 
		814.5,474.7 814.1,475.4 813.7,476 813.3,476.8 812.9,477.5 812.5,478.3 812.1,479.1 811.7,479.9 811.3,480.8 811,481.7 
		810.6,482.6 810.3,483.5 	"/>
</g>
<g id="POLYLINE_434_">
	<path class="st0" d="M706.3,469.9c0-23.3-0.3-46.7-0.9-70c8.5-0.2,16.9-0.5,25.4-0.8c0,0,0.2,1.9,0.2,1.9l0.2,1.9l0.2,1.9l0.2,1.9
		l0.2,1.9l0.2,1.9l0.4,3.9l0.3,3.9l0.3,3.9l0.3,3.9l0.3,3.9l0.2,3.9l0.2,3.9l0.2,3.9l0.2,3.9l0.2,3.9l0.1,3.9l0.1,3.9l0.1,3.9
		l0.2,5.3l0.1,5.3l-0.4-1.2l-0.4-1.2l-0.4-1.1l-0.4-1.1l-0.4-1.1l-0.4-1l-0.4-1l-0.4-1l-0.4-0.9l-0.5-0.9l-0.5-0.9l-0.5-0.8
		l-0.5-0.8l-0.5-0.7l-0.5-0.7l-0.2-0.3l-0.2-0.3l-0.2-0.3l-0.2-0.3l-0.2-0.3l-0.2-0.3l-0.2-0.3l-0.3-0.3l-0.3-0.2l-0.3-0.2l-0.3-0.2
		l-0.3-0.2l-0.3-0.2l-0.3-0.2l-0.3-0.2l-0.3-0.2l-0.3-0.2l-0.3-0.2l-0.3-0.1l-0.3-0.1l-0.3-0.1l-0.3-0.1l-0.2-0.1l-0.2-0.1l-0.2-0.1
		l-0.2-0.1l-0.2-0.1l-0.2-0.1l-0.2,0l-0.2,0l-0.1,0l-0.1,0l-0.1,0l-0.1,0l-0.1,0l-0.1,0l-0.2,0l-0.2,0l-0.2,0l-0.2,0l-0.2,0l-0.2,0
		l-0.2,0l-0.2,0l-0.2,0.1l-0.2,0.1l-0.2,0.1l-0.2,0.1l-0.2,0.1l-0.2,0.1l-0.2,0.1l-0.2,0.1l-0.2,0.1l-0.2,0.1l-0.2,0.1l-0.2,0.2
		l-0.2,0.2l-0.2,0.2l-0.2,0.2l-0.2,0.2l-0.2,0.2l-0.2,0.2l-0.2,0.2l-0.2,0.2l-0.2,0.2l-0.2,0.2l-0.2,0.3l-0.2,0.3l-0.2,0.3l-0.2,0.3
		l-0.2,0.3l-0.5,0.6l-0.5,0.6l-0.5,0.7l-0.4,0.7l-0.4,0.8l-0.4,0.8l-0.4,0.8L709,463l-0.4,0.9l-0.4,0.9l-0.4,1l-0.4,1l-0.4,1l-0.4,1
		L706.3,469.9"/>
</g>
<g id="POLYLINE_435_">
	<path class="st0" d="M602.4,461.5c-0.1-20.7,0-41.4,0.2-62c8,0,16.1-0.1,24.1-0.2c0,0,0.2,1.9,0.2,1.9l0.2,1.9l0.4,3.8l0.4,3.8
		l0.3,3.8l0.3,3.8l0.3,3.8l0.3,3.8l0.2,3.8l0.2,3.8l0.2,3.8l0.2,3.8l0.2,3.8l0.1,3.8l0.1,3.8l0.2,7.6l0.1,2.6l-0.4-1.1l-0.4-1.1
		l-0.4-1l-0.4-1l-0.4-1l-0.4-1l-0.4-0.9l-0.4-0.9l-0.4-0.8l-0.4-0.8l-0.4-0.8l-0.5-0.7l-0.5-0.7l-0.5-0.7l-0.5-0.6l-0.2-0.3
		l-0.2-0.3l-0.2-0.3l-0.2-0.3l-0.2-0.3l-0.2-0.3l-0.2-0.2l-0.2-0.2l-0.2-0.2l-0.2-0.2l-0.2-0.2l-0.2-0.2l-0.2-0.2l-0.2-0.2l-0.2-0.2
		l-0.2-0.2l-0.2-0.1l-0.2-0.1l-0.2-0.1l-0.2-0.1l-0.2-0.1l-0.2-0.1l-0.2-0.1l-0.2-0.1l-0.2-0.1l-0.2-0.1l-0.2-0.1l-0.2-0.1l-0.2,0
		l-0.2,0l-0.2,0l-0.2,0l-0.2,0l-0.2,0l-0.2,0l-0.2,0l-0.2,0l-0.2,0l-0.2,0l-0.2,0l-0.2,0l-0.2,0.1l-0.2,0.1l-0.2,0.1l-0.2,0.1
		l-0.2,0.1l-0.2,0.1l-0.2,0.1l-0.2,0.1l-0.2,0.1l-0.2,0.1l-0.2,0.1l-0.2,0.1l-0.2,0.2l-0.2,0.2l-0.2,0.2l-0.2,0.2l-0.2,0.2l-0.2,0.2
		l-0.2,0.2l-0.2,0.2l-0.2,0.2l-0.2,0.2l-0.2,0.2l-0.2,0.2l-0.2,0.3l-0.2,0.3l-0.2,0.3l-0.5,0.6l-0.4,0.6l-0.4,0.7l-0.4,0.7l-0.4,0.7
		l-0.4,0.8l-0.4,0.8l-0.4,0.8l-0.4,0.9l-0.4,0.9l-0.4,0.9l-0.4,0.9l-0.4,1l-0.4,1L602.4,461.5"/>
</g>
<g id="POLYLINE_436_">
	<path class="st0" d="M494.6,464c0-21.5-0.3-43-0.8-64.5c8.6,0.1,17.1,0.3,25.7,0.4c0,0,0.2,1.9,0.2,1.9l0.2,1.9l0.4,3.8l0.4,3.8
		l0.3,3.8l0.3,3.8l0.3,3.8l0.3,3.8l0.2,3.8l0.2,3.8l0.2,3.8l0.2,3.8l0.2,3.8l0.1,3.8l0.1,3.8l0.3,9.2l-0.4-1.1l-0.4-1l-0.4-1l-0.4-1
		l-0.4-0.9l-0.4-0.9l-0.4-0.9l-0.4-0.9l-0.4-0.8l-0.4-0.8l-0.4-0.7l-0.4-0.7l-0.5-0.7l-0.5-0.6l-0.5-0.6l-0.2-0.3l-0.2-0.3l-0.2-0.3
		l-0.2-0.3l-0.2-0.3l-0.2-0.2l-0.2-0.2l-0.2-0.2l-0.2-0.2l-0.2-0.2l-0.2-0.2l-0.2-0.2l-0.2-0.2l-0.2-0.2l-0.2-0.2l-0.2-0.2l-0.2-0.1
		l-0.2-0.1l-0.2-0.1l-0.2-0.1l-0.2-0.1l-0.2-0.1l-0.2-0.1l-0.2-0.1l-0.2-0.1l-0.2-0.1l-0.2-0.1l-0.2,0l-0.2,0l-0.2,0l-0.2,0l-0.2,0
		l-0.2,0l-0.2,0l-0.2,0l-0.2,0l-0.2,0l-0.2,0l-0.2,0l-0.2,0l-0.2,0.1l-0.2,0.1l-0.2,0.1l-0.2,0.1l-0.2,0.1l-0.2,0.1l-0.2,0.1
		l-0.2,0.1l-0.2,0.1l-0.2,0.1l-0.2,0.1l-0.2,0.2l-0.2,0.2l-0.2,0.2l-0.2,0.2l-0.2,0.2l-0.2,0.2l-0.2,0.2l-0.2,0.2l-0.2,0.2l-0.2,0.2
		l-0.2,0.3l-0.2,0.3l-0.2,0.3l-0.2,0.3l-0.2,0.3l-0.2,0.3l-0.2,0.3l-0.5,0.7l-0.5,0.7l-0.5,0.7l-0.5,0.8l-0.5,0.8l-0.4,0.9l-0.4,0.9
		l-0.4,0.9l-0.4,1l-0.4,1l-0.4,1l-0.4,1.1l-0.4,1.1l-0.4,1.1L494.6,464"/>
</g>
<g id="POLYLINE_437_">
	<path class="st0" d="M411.9,399.5l0.2,1.9l0.2,1.9l0.2,1.9l0.2,1.9l0.4,3.9l0.4,3.9l0.3,3.9l0.3,3.9l0.3,3.9l0.3,3.9l0.2,3.9
		l0.2,3.9l0.2,3.9l0.2,3.9l0.2,3.9l0.1,3.9l0.1,3.9l0.1,3.9l0.2,6.2l-0.4-1l-0.4-1l-0.4-0.9l-0.4-0.9l-0.4-0.9l-0.4-0.8l-0.4-0.8
		l-0.4-0.8l-0.4-0.7l-0.4-0.7l-0.4-0.7l-0.4-0.6l-0.4-0.6l-0.4-0.6l-0.4-0.5l-0.2-0.3l-0.2-0.3l-0.2-0.2l-0.2-0.2l-0.2-0.2l-0.2-0.2
		l-0.2-0.2l-0.2-0.2l-0.2-0.2l-0.2-0.2l-0.2-0.2l-0.2-0.2l-0.2-0.2l-0.2-0.2l-0.2-0.1l-0.2-0.1l-0.2-0.1l-0.2-0.1l-0.2-0.1l-0.2-0.1
		l-0.2-0.1l-0.2-0.1l-0.2-0.1l-0.2-0.1l-0.2-0.1l-0.2-0.1l-0.2-0.1l-0.2,0l-0.2,0l-0.2,0l-0.2,0l-0.2,0l-0.2,0l-0.2,0l-0.2,0l-0.2,0
		l-0.2,0l-0.2,0l-0.2,0l-0.2,0l-0.2,0.1l-0.2,0.1l-0.2,0.1l-0.2,0.1l-0.2,0.1l-0.2,0.1l-0.2,0.1l-0.2,0.1l-0.2,0.1l-0.2,0.1
		l-0.2,0.1l-0.2,0.2l-0.2,0.2l-0.2,0.2l-0.2,0.2l-0.2,0.2l-0.2,0.2l-0.2,0.2l-0.2,0.2l-0.2,0.2l-0.2,0.2l-0.2,0.3l-0.2,0.3l-0.2,0.3
		l-0.2,0.3l-0.2,0.3l-0.2,0.3l-0.2,0.3l-0.5,0.7l-0.5,0.7l-0.5,0.8l-0.5,0.8l-0.5,0.8l-0.4,0.9l-0.4,0.9l-0.4,0.9l-0.4,1l-0.4,1
		l-0.4,1l-0.4,1.1l-0.4,1.1l-0.4,1.1l-0.4,1.2c-0.1-24.3-0.1-48.5,0.2-72.8C388.2,398.9,411.9,399.5,411.9,399.5"/>
</g>
<g id="POLYLINE_438_">
	<path class="st0" d="M284.1,493.2l0-12.1l0-12.1l0-12.1l0-6l0-6l-0.1-6l-0.1-6l-0.1-6l-0.1-6l-0.1-6l-0.1-6l-0.1-6l-0.2-6
		c8.4,0.1,16.8,0.3,25.2,0.5c0,0,0.3,2,0.3,2l0.3,2l0.2,2l0.2,2l0.2,2l0.2,2l0.2,2l0.2,2l0.4,4l0.3,4l0.3,4l0.3,4l0.2,4l0.2,4l0.2,4
		l0.2,4l0.2,4l0.1,4l0.1,4l0.1,4l0.2,5.5l0.1,5.5l0.1,5.5l0.1,5.5l-0.4-0.9l-0.4-0.9l-0.4-0.9l-0.4-0.8l-0.4-0.8l-0.4-0.8l-0.4-0.7
		l-0.4-0.7l-0.4-0.7l-0.4-0.7l-0.4-0.6l-0.4-0.6l-0.4-0.6l-0.4-0.5l-0.4-0.5l-0.2-0.2l-0.2-0.2l-0.2-0.2l-0.2-0.2l-0.2-0.2l-0.2-0.2
		l-0.2-0.2l-0.2-0.2l-0.2-0.2l-0.2-0.2l-0.2-0.2l-0.2-0.2l-0.2-0.1l-0.2-0.1l-0.2-0.1l-0.2-0.1l-0.2-0.1l-0.2-0.1l-0.2-0.1l-0.2-0.1
		l-0.2-0.1l-0.2-0.1l-0.2-0.1l-0.2-0.1l-0.2-0.1l-0.2-0.1l-0.2,0l-0.2,0l-0.2,0l-0.2,0l-0.2,0l-0.2,0l-0.2,0l-0.2,0l-0.1,0l-0.1,0
		l-0.1,0l-0.1,0l-0.1,0l-0.1,0l-0.1,0l-0.1,0l-0.1,0l-0.1,0l-0.1,0l-0.1,0l-0.1,0l-0.1,0l-0.1,0l-0.1,0l-0.1,0l-0.1,0l-0.1,0.1
		l-0.1,0.1l-0.1,0.1l-0.1,0.1l-0.1,0.1l-0.1,0.1l-0.3,0.1l-0.3,0.2l-0.3,0.2l-0.3,0.2l-0.3,0.2l-0.3,0.2l-0.3,0.2l-0.3,0.2l-0.3,0.2
		l-0.3,0.3l-0.3,0.3l-0.3,0.3l-0.3,0.3l-0.3,0.3l-0.3,0.3l-0.3,0.3l-0.3,0.4l-0.3,0.4l-0.3,0.4l-0.3,0.4l-0.3,0.4l-0.3,0.4l-0.5,0.9
		l-0.5,0.9l-0.5,1l-0.5,1l-0.5,1.1l-0.5,1.1l-0.5,1.2l-0.5,1.2l-0.4,1.3l-0.4,1.3l-0.4,1.3l-0.4,1.4l-0.4,1.4l-0.4,1.4L284.1,493.2"
		/>
</g>
<g id="POLYLINE_439_">
	<path class="st0" d="M203.7,395.9l0.3,2l0.3,2l0.3,2l0.2,2l0.2,2l0.2,2l0.2,2l0.2,2l0.2,2l0.2,2l0.3,4.1l0.3,4.1l0.3,4.1l0.3,4.1
		l0.2,4.1l0.2,4.1l0.2,4.1l0.2,4.1l0.2,4.1l0.1,4.1l0.1,4.1l0.2,6.7l0.2,6.7l0.1,6.7l0.1,6.7l0.1,6.7l0.1,6.7l0.1,6.7l0.1,6.7
		l-0.4-1.1l-0.4-1.1l-0.4-1l-0.4-1l-0.4-1l-0.4-0.9l-0.4-0.9l-0.4-0.9l-0.4-0.8l-0.4-0.8l-0.4-0.8l-0.4-0.7l-0.5-0.7l-0.5-0.6
		l-0.5-0.6l-0.2-0.3l-0.2-0.3l-0.2-0.3l-0.2-0.3l-0.2-0.3l-0.2-0.2l-0.2-0.2l-0.2-0.2l-0.2-0.2l-0.2-0.2l-0.2-0.2l-0.2-0.2l-0.2-0.2
		l-0.2-0.2l-0.2-0.2l-0.2-0.2l-0.2-0.1l-0.2-0.1l-0.2-0.1l-0.2-0.1l-0.2-0.1l-0.2-0.1l-0.2-0.1l-0.2-0.1l-0.2-0.1l-0.2-0.1l-0.2-0.1
		l-0.2-0.1l-0.2,0l-0.2,0l-0.2,0l-0.2,0l-0.2,0l-0.2,0l-0.2,0l-0.2,0l-0.2,0l-0.2,0l-0.2,0l-0.2,0l-0.2,0.1l-0.2,0.1l-0.2,0.1
		l-0.2,0.1l-0.2,0.1l-0.2,0.1l-0.2,0.1l-0.2,0.1l-0.2,0.1l-0.2,0.1l-0.2,0.1l-0.2,0.2l-0.2,0.2l-0.2,0.2l-0.2,0.2l-0.2,0.2l-0.2,0.2
		l-0.2,0.2l-0.2,0.2l-0.2,0.2l-0.2,0.2l-0.2,0.3l-0.2,0.3l-0.2,0.3l-0.2,0.3l-0.2,0.3l-0.2,0.3l-0.2,0.3l-0.5,0.7l-0.5,0.7l-0.5,0.8
		l-0.5,0.8l-0.5,0.8l-0.4,0.9l-0.4,0.9l-0.4,0.9l-0.4,1l-0.4,1l-0.4,1l-0.4,1.1l-0.4,1.1l-0.4,1.1l-0.4,1.2l-0.2-30l-0.1-15l0-15
		l0-7.5l0-7.5l0-7.5l0-7.5l0-7.5l0.1-7.5l0.1-7.5l0.1-7.5C188.1,395.8,195.9,395.8,203.7,395.9"/>
</g>
<g id="HATCH_232_">
	<polygon class="st1" points="203.7,395.9 203.9,397.9 204.2,399.9 204.4,401.9 204.7,403.9 204.9,406 205.1,408 205.4,410 
		205.6,412.1 205.8,414.1 205.9,416.1 206.3,420.2 206.6,424.2 206.9,428.3 207.1,432.4 207.4,436.5 207.6,440.6 207.7,444.6 
		207.9,448.7 208.1,452.8 208.2,456.9 208.3,461 208.5,467.6 208.7,474.3 208.8,481 209,487.6 209.1,494.3 209.2,501 209.3,507.7 
		209.3,514.3 209,513.3 208.6,512.2 208.2,511.2 207.8,510.2 207.4,509.2 207,508.3 206.6,507.4 206.2,506.5 205.8,505.7 
		205.3,504.9 204.9,504.1 204.4,503.4 204,502.7 203.5,502.1 203.1,501.5 202.8,501.2 202.6,500.9 202.4,500.6 202.1,500.4 
		201.9,500.1 201.7,499.9 201.4,499.6 201.2,499.4 201,499.2 200.7,499 200.5,498.8 200.2,498.6 200,498.4 199.8,498.2 199.5,498.1 
		199.3,497.9 199.1,497.8 198.8,497.6 198.6,497.5 198.3,497.4 198.1,497.3 197.9,497.2 197.6,497.1 197.4,497 197.2,496.9 
		196.9,496.9 196.7,496.8 196.5,496.8 196.2,496.7 196,496.7 195.8,496.7 195.6,496.6 195.3,496.6 195.1,496.6 194.9,496.6 
		194.6,496.6 194.4,496.7 194.2,496.7 193.9,496.7 193.7,496.8 193.4,496.8 193.2,496.9 192.9,497 192.7,497.1 192.5,497.1 
		192.2,497.2 192,497.4 191.7,497.5 191.5,497.6 191.2,497.7 191,497.9 190.7,498 190.5,498.2 190.2,498.4 190,498.6 189.7,498.8 
		189.5,499 189.2,499.2 189,499.4 188.7,499.7 188.5,499.9 188.2,500.2 188,500.4 187.8,500.7 187.5,501 187.3,501.3 187,501.6 
		186.8,501.9 186.3,502.6 185.8,503.3 185.4,504.1 184.9,504.9 184.4,505.7 184,506.6 183.6,507.5 183.1,508.4 182.7,509.4 
		182.3,510.4 181.9,511.4 181.5,512.5 181.1,513.6 180.7,514.8 180.4,515.9 180.2,485.9 180.2,470.9 180.1,455.8 180.1,448.3 
		180.1,440.8 180.1,433.3 180.1,425.8 180.2,418.3 180.2,410.8 180.3,403.3 180.4,395.8 192,395.8 203.7,395.9 	"/>
</g>
<g id="HATCH_233_">
	<polygon class="st1" points="284.1,493.2 284.1,481.1 284.1,469.1 284.1,457 284,451 284,445 283.9,438.9 283.9,432.9 283.8,426.9 
		283.7,420.9 283.6,414.8 283.5,408.8 283.3,402.8 283.2,396.8 295.8,397 308.4,397.2 308.7,399.2 308.9,401.2 309.2,403.2 
		309.4,405.1 309.6,407.1 309.8,409.1 310,411.1 310.2,413.1 310.6,417.1 310.9,421 311.2,425 311.5,429 311.7,433 312,437 
		312.1,441 312.3,445 312.5,449 312.6,453 312.8,457 312.9,461 313.1,466.5 313.2,471.9 313.3,477.4 313.5,482.9 313.1,482 
		312.7,481.1 312.4,480.3 312,479.4 311.6,478.6 311.2,477.9 310.8,477.1 310.4,476.4 310,475.7 309.6,475.1 309.2,474.4 
		308.8,473.8 308.4,473.3 308,472.7 307.5,472.2 307.3,472 307.1,471.8 306.9,471.5 306.7,471.3 306.5,471.1 306.2,470.9 306,470.7 
		305.8,470.5 305.6,470.4 305.4,470.2 305.2,470 305,469.9 304.7,469.7 304.5,469.6 304.3,469.5 304.1,469.3 303.9,469.2 
		303.7,469.1 303.4,469 303.2,468.9 303,468.8 302.8,468.7 302.6,468.6 302.4,468.6 302.2,468.5 301.9,468.5 301.7,468.4 
		301.5,468.4 301.3,468.3 301.1,468.3 300.9,468.3 300.7,468.3 300.5,468.3 300.3,468.3 300.1,468.3 300,468.3 299.9,468.3 
		299.7,468.3 299.6,468.3 299.5,468.3 299.3,468.3 299.2,468.3 299.1,468.4 298.9,468.4 298.8,468.4 298.6,468.5 298.5,468.5 
		298.4,468.5 298.2,468.6 298.1,468.6 297.9,468.7 297.8,468.7 297.7,468.8 297.5,468.8 297.4,468.9 297.2,468.9 297.1,469 
		297,469.1 296.7,469.2 296.4,469.4 296.1,469.5 295.8,469.7 295.5,469.9 295.3,470.1 295,470.4 294.7,470.6 294.4,470.8 
		294.1,471.1 293.8,471.4 293.6,471.7 293.3,472 293,472.3 292.7,472.6 292.4,472.9 292.2,473.3 291.9,473.7 291.6,474 291.3,474.4 
		291.1,474.8 290.8,475.3 290.3,476.2 289.7,477.1 289.2,478.1 288.7,479.1 288.2,480.2 287.8,481.3 287.3,482.5 286.8,483.7 
		286.4,484.9 286,486.2 285.6,487.6 285.2,488.9 284.8,490.3 284.4,491.7 284.1,493.2 	"/>
</g>
<g id="HATCH_234_">
	<polygon class="st1" points="411.9,399.5 412.2,401.4 412.4,403.4 412.6,405.3 412.9,407.2 413.3,411.1 413.6,415 414,418.9 
		414.3,422.9 414.5,426.8 414.8,430.7 415,434.6 415.2,438.5 415.4,442.4 415.6,446.3 415.8,450.3 415.9,454.2 416,458.1 416.1,462 
		416.3,468.3 416,467.3 415.6,466.3 415.2,465.4 414.9,464.5 414.5,463.6 414.1,462.8 413.7,462 413.3,461.2 412.8,460.5 
		412.4,459.8 412,459.1 411.6,458.4 411.1,457.8 410.7,457.2 410.3,456.7 410,456.4 409.8,456.2 409.6,455.9 409.4,455.7 
		409.1,455.5 408.9,455.2 408.7,455 408.5,454.8 408.2,454.6 408,454.4 407.8,454.3 407.6,454.1 407.3,453.9 407.1,453.8 
		406.9,453.6 406.7,453.5 406.4,453.4 406.2,453.3 406,453.1 405.8,453 405.5,452.9 405.3,452.8 405.1,452.8 404.9,452.7 
		404.7,452.6 404.4,452.6 404.2,452.5 404,452.5 403.8,452.4 403.6,452.4 403.3,452.4 403.1,452.4 402.9,452.3 402.7,452.3 
		402.5,452.4 402.2,452.4 402,452.4 401.7,452.4 401.5,452.4 401.3,452.5 401,452.6 400.8,452.6 400.5,452.7 400.3,452.8 400,452.9 
		399.8,453 399.5,453.1 399.3,453.2 399.1,453.3 398.8,453.5 398.6,453.6 398.3,453.8 398.1,453.9 397.8,454.1 397.6,454.3 
		397.3,454.5 397.1,454.7 396.8,454.9 396.6,455.2 396.3,455.4 396.1,455.6 395.8,455.9 395.6,456.2 395.3,456.5 395.1,456.7 
		394.8,457 394.6,457.4 394.4,457.7 393.9,458.3 393.4,459.1 392.9,459.8 392.5,460.6 392,461.4 391.6,462.3 391.1,463.2 
		390.7,464.2 390.3,465.1 389.9,466.1 389.5,467.2 389.1,468.3 388.7,469.4 388.3,470.5 388,471.7 387.9,462.6 387.9,453.5 
		387.9,444.4 387.9,435.3 388,426.2 388,417.1 388.1,408 388.2,398.9 	"/>
</g>
<g id="HATCH_235_">
	<polygon class="st1" points="494.6,464 494.5,455.9 494.5,447.8 494.4,439.8 494.3,431.7 494.2,423.6 494.1,415.6 493.9,407.5 
		493.7,399.5 506.6,399.7 519.4,399.8 519.6,401.7 519.8,403.6 520.3,407.4 520.6,411.2 521,415 521.3,418.8 521.6,422.6 
		521.8,426.4 522.1,430.2 522.3,434 522.5,437.8 522.7,441.6 522.8,445.4 523,449.2 523.1,453 523.4,462.2 523,461.1 522.7,460.1 
		522.3,459.1 521.9,458.1 521.5,457.1 521.1,456.2 520.7,455.3 520.3,454.5 519.9,453.7 519.4,452.9 519,452.1 518.5,451.4 
		518.1,450.8 517.6,450.1 517.2,449.5 516.9,449.2 516.7,448.9 516.5,448.7 516.2,448.4 516,448.2 515.8,447.9 515.5,447.7 
		515.3,447.5 515.1,447.3 514.8,447 514.6,446.9 514.4,446.7 514.1,446.5 513.9,446.3 513.7,446.2 513.4,446 513.2,445.9 
		512.9,445.7 512.7,445.6 512.5,445.5 512.2,445.4 512,445.3 511.8,445.2 511.5,445.1 511.3,445 511.1,445 510.8,444.9 510.6,444.9 
		510.4,444.8 510.2,444.8 509.9,444.8 509.7,444.7 509.5,444.7 509.3,444.7 509,444.7 508.8,444.8 508.5,444.8 508.3,444.8 
		508.1,444.8 507.8,444.9 507.6,444.9 507.3,445 507.1,445.1 506.9,445.2 506.6,445.2 506.4,445.3 506.1,445.5 505.9,445.6 
		505.6,445.7 505.4,445.8 505.1,446 504.9,446.1 504.6,446.3 504.4,446.5 504.1,446.7 503.9,446.9 503.6,447.1 503.4,447.3 
		503.1,447.5 502.9,447.8 502.7,448 502.4,448.3 502.2,448.5 501.9,448.8 501.7,449.1 501.4,449.4 501.2,449.7 500.9,450 
		500.5,450.7 500,451.4 499.5,452.2 499.1,452.9 498.6,453.8 498.2,454.6 497.7,455.5 497.3,456.5 496.9,457.4 496.5,458.5 
		496,459.5 495.7,460.6 495.3,461.7 494.9,462.8 	"/>
</g>
<g id="HATCH_236_">
	<polygon class="st1" points="602.4,461.5 602.3,453.8 602.3,446 602.3,438.3 602.4,430.5 602.4,422.7 602.4,415 602.5,407.2 
		602.6,399.5 608.6,399.5 614.6,399.4 620.6,399.4 626.6,399.3 626.9,401.2 627.1,403.1 627.5,406.9 627.9,410.7 628.2,414.5 
		628.5,418.3 628.8,422.1 629.1,425.9 629.3,429.7 629.5,433.5 629.7,437.3 629.9,441.1 630,444.9 630.2,448.8 630.3,452.6 
		630.6,460.2 630.6,462.8 630.3,461.7 629.9,460.7 629.5,459.6 629.2,458.6 628.8,457.6 628.4,456.7 627.9,455.8 627.5,454.9 
		627.1,454 626.6,453.2 626.2,452.4 625.7,451.7 625.3,451 624.8,450.3 624.4,449.7 624.1,449.4 623.9,449.1 623.6,448.8 
		623.4,448.6 623.2,448.3 622.9,448 622.7,447.8 622.5,447.6 622.2,447.4 622,447.1 621.7,446.9 621.5,446.7 621.3,446.6 621,446.4 
		620.8,446.2 620.5,446.1 620.3,445.9 620.1,445.8 619.8,445.6 619.6,445.5 619.3,445.4 619.1,445.3 618.9,445.2 618.6,445.1 
		618.4,445.1 618.1,445 617.9,444.9 617.7,444.9 617.4,444.8 617.2,444.8 617,444.8 616.7,444.7 616.5,444.7 616.3,444.7 
		616.1,444.7 615.9,444.7 615.6,444.8 615.4,444.8 615.2,444.8 615,444.9 614.7,444.9 614.5,445 614.3,445 614.1,445.1 613.8,445.2 
		613.6,445.3 613.4,445.4 613.1,445.5 612.9,445.6 612.7,445.7 612.4,445.8 612.2,446 612,446.1 611.8,446.3 611.5,446.4 
		611.3,446.6 611.1,446.8 610.8,447 610.6,447.2 610.4,447.4 610.1,447.6 609.9,447.8 609.7,448 609.4,448.3 609.2,448.5 609,448.8 
		608.8,449 608.5,449.3 608.1,449.9 607.6,450.5 607.2,451.2 606.7,451.9 606.3,452.6 605.9,453.3 605.5,454.1 605,454.9 
		604.6,455.8 604.2,456.7 603.8,457.6 603.5,458.5 603.1,459.5 602.7,460.5 	"/>
</g>
<g id="HATCH_237_">
	<polygon class="st1" points="706.3,469.9 706.3,461.2 706.3,452.4 706.2,443.7 706.1,434.9 706,426.2 705.9,417.4 705.7,408.7 
		705.5,400 718.2,399.6 730.9,399.2 731.1,401.1 731.4,403.1 731.6,405 731.8,407 732,408.9 732.2,410.8 732.6,414.7 732.9,418.6 
		733.2,422.5 733.5,426.4 733.8,430.4 734,434.3 734.2,438.2 734.4,442.1 734.6,446 734.7,449.9 734.9,453.9 735,457.8 735.1,461.7 
		735.3,467 735.4,472.2 735.1,471 734.7,469.9 734.3,468.7 733.9,467.6 733.5,466.5 733.1,465.5 732.7,464.5 732.3,463.5 
		731.8,462.6 731.4,461.7 730.9,460.8 730.4,460 730,459.2 729.5,458.5 729,457.8 728.7,457.5 728.5,457.2 728.3,456.9 728,456.6 
		727.8,456.3 727.5,456 727.3,455.7 727,455.5 726.8,455.2 726.5,455 726.3,454.8 726,454.6 725.7,454.4 725.5,454.2 725.2,454 
		725,453.8 724.7,453.6 724.5,453.5 724.2,453.3 724,453.2 723.7,453.1 723.5,453 723.2,452.9 723,452.8 722.7,452.7 722.5,452.6 
		722.2,452.6 722,452.5 721.8,452.5 721.5,452.4 721.4,452.4 721.3,452.4 721.1,452.4 721,452.4 720.9,452.4 720.8,452.4 
		720.5,452.3 720.3,452.3 720.1,452.4 719.9,452.4 719.6,452.4 719.4,452.4 719.2,452.5 718.9,452.5 718.7,452.6 718.5,452.7 
		718.2,452.7 718,452.8 717.8,452.9 717.5,453 717.3,453.1 717.1,453.2 716.8,453.4 716.6,453.5 716.4,453.6 716.1,453.8 
		715.9,453.9 715.7,454.1 715.4,454.3 715.2,454.5 714.9,454.7 714.7,454.9 714.5,455.1 714.2,455.3 714,455.6 713.8,455.8 
		713.5,456.1 713.3,456.3 713.1,456.6 712.8,456.9 712.6,457.2 712.1,457.8 711.7,458.4 711.2,459.1 710.8,459.8 710.3,460.6 
		709.9,461.4 709.5,462.2 709,463 708.6,463.9 708.2,464.9 707.8,465.8 707.4,466.8 707.1,467.8 706.7,468.9 	"/>
</g>
<g id="HATCH_238_">
	<polygon class="st1" points="810.3,483.5 810.2,472.6 810.2,461.8 810.1,450.9 810.1,440 810.2,429.1 810.2,418.3 810.3,407.4 
		810.4,402 810.4,396.5 822.1,396.2 833.7,395.8 834,397.8 834.2,399.8 834.5,401.9 834.7,403.9 835,405.9 835.2,408 835.4,410 
		835.6,412 835.8,414.1 836,416.1 836.3,420.2 836.6,424.3 836.9,428.4 837.2,432.4 837.4,436.5 837.6,440.6 837.8,444.7 838,448.8 
		838.1,452.9 838.3,457 838.4,461.1 838.6,468.3 838.8,475.6 838.9,482.8 839.1,490.1 838.7,488.8 838.3,487.5 838,486.3 
		837.6,485.1 837.2,483.9 836.7,482.8 836.3,481.6 835.9,480.6 835.4,479.6 835,478.6 834.5,477.6 834,476.7 833.5,475.9 833,475.1 
		832.5,474.3 832.2,474 832,473.6 831.7,473.3 831.5,472.9 831.2,472.6 831,472.3 830.7,472 830.4,471.7 830.2,471.5 829.9,471.2 
		829.6,470.9 829.4,470.7 829.1,470.5 828.8,470.3 828.6,470.1 828.3,469.9 828.1,469.7 827.8,469.5 827.5,469.4 827.3,469.2 
		827,469.1 826.7,469 826.5,468.8 826.2,468.7 825.9,468.6 825.8,468.6 825.7,468.6 825.6,468.5 825.4,468.5 825.3,468.5 
		825.2,468.4 825,468.4 824.9,468.4 824.8,468.4 824.7,468.3 824.5,468.3 824.4,468.3 824.3,468.3 824.1,468.3 824,468.3 
		823.9,468.3 823.8,468.3 823.6,468.3 823.4,468.3 823.2,468.3 823,468.3 822.8,468.3 822.6,468.3 822.4,468.4 822.2,468.4 
		821.9,468.5 821.7,468.5 821.5,468.6 821.3,468.7 821.1,468.7 820.9,468.8 820.6,468.9 820.4,469 820.2,469.1 820,469.2 
		819.8,469.4 819.5,469.5 819.3,469.6 819.1,469.8 818.9,469.9 818.7,470.1 818.4,470.3 818.2,470.4 818,470.6 817.8,470.8 
		817.6,471 817.3,471.2 817.1,471.5 816.9,471.7 816.7,471.9 816.5,472.2 816.2,472.4 815.8,472.9 815.4,473.5 815,474.1 
		814.5,474.7 814.1,475.4 813.7,476 813.3,476.8 812.9,477.5 812.5,478.3 812.1,479.1 811.7,479.9 811.3,480.8 811,481.7 
		810.6,482.6 810.3,483.5 	"/>
</g>
<g id="HATCH_239_">
	<polygon class="st1" points="940.6,393.5 940.9,395.5 941.2,397.6 941.4,399.7 941.7,401.7 941.9,403.8 942.2,405.9 942.4,407.9 
		942.6,410 942.8,412.1 943,414.1 943.2,416.2 943.4,418.3 943.7,422.4 944,426.6 944.3,430.8 944.6,434.9 944.8,439.1 945,443.3 
		945.2,447.4 945.3,451.6 945.5,455.8 945.6,459.9 945.8,466.8 946,473.6 946.1,480.4 946.3,487.3 946.4,494.1 946.5,501 
		946.5,507.8 946.6,514.6 946.2,513.5 945.9,512.5 945.5,511.4 945.1,510.4 944.7,509.4 944.3,508.5 943.9,507.6 943.5,506.7 
		943,505.9 942.6,505.1 942.2,504.3 941.7,503.5 941.2,502.9 940.8,502.2 940.3,501.6 940.1,501.3 939.9,501 939.6,500.7 
		939.4,500.4 939.1,500.2 938.9,499.9 938.7,499.7 938.4,499.5 938.2,499.2 937.9,499 937.7,498.8 937.5,498.6 937.2,498.4 
		937,498.3 936.7,498.1 936.5,497.9 936.3,497.8 936,497.7 935.8,497.5 935.6,497.4 935.3,497.3 935.1,497.2 934.8,497.1 934.6,497 
		934.4,496.9 934.1,496.9 933.9,496.8 933.7,496.8 933.4,496.7 933.2,496.7 933,496.7 932.7,496.6 932.5,496.6 932.3,496.6 
		932.2,496.6 932,496.6 931.9,496.6 931.8,496.7 931.6,496.7 931.5,496.7 931.4,496.7 931.3,496.7 931.1,496.7 931,496.8 
		930.9,496.8 930.7,496.8 930.6,496.8 930.5,496.9 930.3,496.9 930.2,496.9 930.1,497 929.9,497 929.8,497.1 929.7,497.1 
		929.4,497.2 929.1,497.4 928.9,497.5 928.6,497.6 928.3,497.8 928.1,497.9 927.8,498.1 927.5,498.3 927.3,498.5 927,498.7 
		926.7,498.9 926.5,499.2 926.2,499.4 925.9,499.7 925.7,499.9 925.4,500.2 925.1,500.5 924.9,500.8 924.6,501.1 924.3,501.5 
		924.1,501.8 923.8,502.1 923.5,502.5 923.3,502.9 922.8,503.7 922.3,504.5 921.8,505.4 921.3,506.3 920.8,507.3 920.3,508.3 
		919.9,509.3 919.4,510.4 919,511.6 918.6,512.7 918.2,514 917.8,515.2 917.4,516.5 917,517.8 916.7,519.1 916.8,503.4 916.8,487.7 
		916.8,479.9 916.8,472.1 916.8,464.2 916.8,456.4 916.7,448.6 916.6,440.7 916.6,432.9 916.5,425.1 916.3,417.3 916.2,409.4 
		916,401.6 915.8,393.8 922,393.7 928.2,393.6 934.4,393.5 	"/>
</g>
</svg>
