<?xml version="1.0" encoding="utf-8"?>
<!-- Generator: Adobe Illustrator 21.1.0, SVG Export Plug-In . SVG Version: 6.00 Build 0)  -->
<svg version="1.1" id="Слой_1" xmlns="http://www.w3.org/2000/svg" xmlns:xlink="http://www.w3.org/1999/xlink" x="0px" y="0px"
	 viewBox="0 0 947.3 453.7" style="enable-background:new 0 0 947.3 453.7;" xml:space="preserve">
<style type="text/css">
	.st0{fill:none;stroke:#FFFFFF;stroke-width:0.7087;stroke-linecap:round;stroke-linejoin:round;stroke-miterlimit:10;}
	.st1{fill-rule:evenodd;clip-rule:evenodd;fill:#FFFFFF;}
	.st2{fill-rule:evenodd;clip-rule:evenodd;fill:#ED6720;}
	.st3{fill:none;stroke:#ED6720;stroke-width:0.7087;stroke-linecap:round;stroke-linejoin:round;stroke-miterlimit:10;}
</style>
<g id="POLYLINE_562_">
	<polyline class="st0" points="321.7,391.8 321.1,384.2 320.5,376.6 319.9,369 319.7,365.2 319.4,361.3 319.2,357.5 318.9,353.7 
		318.7,349.9 318.5,346 318.3,342.2 318.2,338.3 318.1,334.5 318,330.6 317.9,328.1 317.9,325.6 317.8,320.6 317.8,315.6 
		317.8,310.6 317.8,305.6 317.9,300.5 318,295.5 318.1,290.4 318.2,285.4 318.4,280.3 319,260.1 319.1,255.1 319.3,250 319.4,242.9 
		319.5,235.9 319.7,228.8 319.8,221.8 319.8,214.7 319.9,207.6 319.9,200.6 320,193.5 320,179.4 320,165.3 319.9,137 319.9,117.7 
		319.9,98.3 319.9,88.5 319.9,78.8 320,69.1 320,59.4 322.1,60 324.3,60.6 326.4,61.1 328.5,61.5 330.6,62 332.7,62.3 334.8,62.7 
		336.9,63 339,63.3 341.1,63.6 343.2,63.8 345.3,64 347.4,64.2 349.5,64.4 351.6,64.5 353.8,64.6 355.9,64.7 358,64.8 360.1,64.9 
		362.2,64.9 364.3,64.9 366.4,64.9 368.5,64.9 370.6,64.9 372.8,64.8 374.9,64.8 379.1,64.7 383.3,64.5 387.6,64.4 396,64 
		400.2,63.8 404.5,63.7 408.7,63.6 410.8,63.5 412.9,63.5 415,63.4 417.1,63.4 419.2,63.4 421.4,63.5 423.5,63.5 425.6,63.5 
		427.7,63.6 429.8,63.7 431.9,63.8 434,63.9 436.1,64.1 438.2,64.3 440.3,64.5 442.4,64.7 444.6,65 446.7,65.3 448.8,65.6 450.9,66 
		453,66.4 455.1,66.8 456.8,67.2 458.5,67.6 459.4,67.8 460.2,68 461.1,68.3 461.9,68.5 462.8,68.8 463.6,69.1 464.4,69.4 
		465.3,69.7 466.1,70 466.9,70.4 467.6,70.8 468.4,71.2 469.2,71.6 469.9,72.1 470.7,72.5 471.4,73 472.1,73.6 472.5,73.8 
		472.8,74.1 473.2,74.4 473.5,74.7 473.9,75 474.2,75.3 474.5,75.6 474.8,76 475.1,76.3 475.5,76.6 475.8,77 476.1,77.3 476.4,77.7 
		476.7,78.1 477,78.5 477.2,78.9 477.5,79.3 477.8,79.7 478.1,80.1 478.3,80.5 478.6,81 478.8,81.4 478.9,81.6 479,81.8 479.1,81.9 
		479.2,82.1 479.3,82.5 479.5,82.9 479.6,83.3 479.8,83.7 479.9,84.2 480.1,84.6 480.2,85.1 480.3,85.7 480.6,86.7 480.8,87.9 
		481,89.1 481.2,90.4 481.3,91.8 481.5,93.2 481.7,94.7 481.8,96.3 481.9,97.9 482,99.5 482.1,101.2 482.2,102.9 482.3,104.7 
		482.4,108.4 482.5,112.2 482.6,116.2 482.7,120.2 482.7,124.3 482.7,132.6 482.8,163.1 482.9,178.4 482.9,193.7 483,209 483,224.3 
		483,239.6 483,254.9 482.9,270.2 482.9,285.5 482.8,300.8 482.7,316 482.7,331.3 482.5,346.5 482.4,361.8 482.2,377 482.1,390.2 
		481.9,403.5 421,403.5 415.2,403.5 409.4,403.4 406.6,403.4 403.7,403.5 400.2,403.5 396.7,403.5 395,403.5 393.2,403.5 
		391.5,403.4 389.7,403.3 388,403.2 384.5,403 382.8,402.8 381.9,402.8 381,402.8 380.1,402.8 379.3,402.8 378.4,402.8 377.5,402.9 
		376.6,403 376.2,403 375.8,403.1 374.9,403.2 374.1,403.4 370.8,404.1 370,404.3 369.1,404.5 368.7,404.5 368.3,404.6 367.9,404.6 
		367.5,404.7 367.1,404.7 366.6,404.7 366.2,404.7 365.8,404.7 365.6,404.7 365.4,404.7 365.2,404.7 365,404.7 364.8,404.6 
		364.6,404.6 364.4,404.6 364.2,404.5 364,404.5 363.8,404.5 363.6,404.4 363.4,404.3 363.2,404.3 362.9,404.2 362.7,404.2 
		362.5,404.1 362.2,403.9 361.9,403.8 361.6,403.7 361.3,403.5 361,403.3 360.7,403.2 360.4,403 360,402.8 359.4,402.4 358.8,401.9 
		358.2,401.5 355.1,399.1 354.5,398.7 353.8,398.3 353.2,397.9 352.9,397.7 352.6,397.5 352.3,397.3 352,397.2 351.7,397 
		351.4,396.9 351.1,396.7 350.8,396.6 350.5,396.5 350.2,396.4 349.5,396.1 348.9,395.9 348.3,395.8 347.7,395.6 347.1,395.5 
		346.5,395.3 345.2,395.1 344,394.8 342.8,394.5 341.5,394.2 340.1,393.9 336.2,392.8 334.9,392.5 333.6,392.2 332.3,391.9 
		331.6,391.8 331,391.6 330.3,391.5 329.6,391.4 329,391.4 328.3,391.3 327.7,391.3 327,391.2 326.4,391.2 325.7,391.2 325,391.3 
		324.7,391.3 324.4,391.3 324,391.4 323.7,391.4 323.4,391.5 323.1,391.5 322.7,391.6 322.4,391.7 322.1,391.7 321.7,391.8 	"/>
</g>
<g id="POLYLINE_563_">
	<polyline class="st0" points="684.7,366.9 685.1,364.8 685.4,362.6 685.8,360.3 686.1,357.9 686.4,355.3 686.7,352.7 686.9,350 
		687.1,347.2 687.3,344.3 687.5,341.2 687.7,338.1 687.8,334.9 687.9,331.6 688,328.1 688.1,324.6 688.1,321 688.1,317.3 
		688.1,313.5 688,309.7 687.9,305.7 687.9,301.7 687.8,297.7 687.5,289.3 686.7,263.4 686.4,254.6 686.3,247.3 686.1,239.9 
		686,232.6 685.9,225.2 685.8,217.9 685.7,210.5 685.7,203.2 685.6,195.9 685.6,188.5 685.6,181.2 685.6,166.6 685.7,132.6 
		685.7,127.8 685.7,122.9 685.6,118.3 685.6,116 685.5,113.7 685.5,111.5 685.4,109.3 685.3,107.2 685.2,105.2 685.1,103.2 
		684.9,101.3 684.8,99.5 684.6,97.7 684.4,96 684.2,94.4 683.9,92.9 683.8,92.2 683.7,91.5 683.5,90.8 683.4,90.2 683.2,89.6 
		683,89 682.9,88.4 682.7,87.9 682.5,87.4 682.3,86.9 682.2,86.6 682.1,86.4 682,86.2 681.9,86 681.8,85.8 681.7,85.6 681.6,85.4 
		681.4,85.2 681.3,85.1 681.2,84.9 681.1,84.7 681,84.6 680.9,84.5 680.8,84.4 680.8,84.4 680.7,84.3 680.7,84.2 680.6,84.2 
		680.5,84.1 680.5,84.1 680.4,84 680.3,84 680.3,83.9 680.2,83.9 680.1,83.8 680.1,83.8 680,83.7 679.9,83.7 679.9,83.7 679.8,83.6 
		679.7,83.6 679.6,83.6 679.6,83.5 679.5,83.5 679.4,83.5 679.3,83.4 664.6,79.1 660.8,78 657,76.9 653.1,75.8 649.2,74.8 
		645.3,73.7 641.4,72.7 637.4,71.7 635.4,71.2 633.4,70.7 631.4,70.3 629.4,69.8 627.4,69.4 625.4,69 623.4,68.5 621.3,68.1 
		619.3,67.7 617.3,67.4 615.2,67 613.2,66.7 611.1,66.3 609.1,66 607,65.7 604.9,65.4 602.9,65.2 600.8,64.9 598.7,64.7 596.7,64.5 
		594.6,64.4 592.5,64.2 590.4,64.1 588.3,64 586.2,63.9 584.1,63.8 582,63.8 579.9,63.8 577.8,63.8 575.8,63.9 573.7,63.9 571.6,64 
		569.4,64.2 567.3,64.3 565.2,64.5 563.1,64.8 561,65 558.9,65.3 556.8,65.6 554.7,66 552.6,66.4 550.5,66.8 548.8,67.2 547.1,67.6 
		546.2,67.8 545.4,68 544.5,68.3 543.7,68.5 542.8,68.8 542,69.1 541.2,69.4 540.3,69.7 539.5,70 538.7,70.4 537.9,70.8 537.2,71.2 
		536.4,71.6 535.6,72.1 534.9,72.5 534.2,73 533.5,73.6 533.1,73.8 532.8,74.1 532.4,74.4 532.1,74.7 531.7,75 531.4,75.3 
		531.1,75.6 530.8,76 530.4,76.3 530.1,76.6 529.8,77 529.5,77.3 529.2,77.7 528.9,78.1 528.6,78.5 528.3,78.9 528.1,79.3 
		527.8,79.7 527.5,80.1 527.3,80.5 527,81 526.8,81.4 526.7,81.6 526.6,81.8 526.5,81.9 526.4,82.1 526.3,82.5 526.1,82.9 526,83.3 
		525.8,83.7 525.7,84.2 525.5,84.6 525.4,85.1 525.3,85.7 525,86.7 524.8,87.9 524.6,89.1 524.4,90.4 524.2,91.8 524.1,93.2 
		523.9,94.7 523.8,96.3 523.7,97.9 523.6,99.5 523.5,101.2 523.4,102.9 523.3,104.7 523.2,108.4 523.1,112.2 523,116.2 522.9,120.2 
		522.9,124.3 522.9,132.6 522.7,163.1 522.7,178.4 522.7,193.7 522.6,209 522.6,224.3 522.6,239.6 522.6,254.9 522.7,270.2 
		522.7,285.5 522.8,300.8 522.8,316 522.9,331.3 523.1,346.5 523.2,361.8 523.4,377 523.4,380.3 523.5,383.5 523.5,385 523.6,386.6 
		523.6,388 523.7,389.4 523.8,390.7 524,391.9 524.1,392.5 524.2,393.1 524.3,393.6 524.4,394.1 524.5,394.6 524.5,394.8 524.6,395 
		524.6,395.2 524.7,395.4 524.8,395.6 524.8,395.8 524.9,396 525,396.1 525.1,396.3 525.1,396.4 525.1,396.4 525.2,396.5 
		525.2,396.6 525.3,396.6 525.3,396.7 525.4,396.8 525.4,396.8 525.4,396.9 525.5,396.9 525.7,397.2 526,397.5 526.3,397.8 
		526.5,398.1 526.8,398.4 527.1,398.6 527.3,398.9 527.6,399.1 527.9,399.3 528.2,399.5 528.4,399.8 528.7,400 529,400.2 
		529.3,400.4 529.6,400.5 529.9,400.7 530.2,400.9 530.5,401 530.8,401.2 531.1,401.3 531.4,401.5 531.7,401.6 532,401.7 
		532.3,401.9 532.6,402 532.9,402.1 533.2,402.2 533.5,402.3 534.1,402.5 534.8,402.6 535.4,402.8 536.1,402.9 536.7,403 
		537.4,403.1 538,403.2 538.7,403.3 539.4,403.3 540,403.4 541.4,403.4 542.7,403.5 545.4,403.5 584.6,403.5 590.4,403.5 
		596.2,403.4 599,403.4 601.9,403.5 605.4,403.5 608.9,403.5 610.6,403.5 612.4,403.5 614.1,403.4 615.9,403.3 617.6,403.2 
		621.1,403 622.8,402.8 623.7,402.8 624.6,402.8 625.5,402.8 626.3,402.8 627.2,402.8 628.1,402.9 629,403 629.4,403 629.8,403.1 
		630.7,403.2 631.5,403.4 634.8,404.1 635.6,404.3 636.5,404.5 636.9,404.5 637.3,404.6 637.7,404.6 638.1,404.7 638.5,404.7 
		638.9,404.7 639.4,404.7 639.8,404.7 640,404.7 640.2,404.7 640.4,404.7 640.6,404.7 640.8,404.6 641,404.6 641.2,404.6 
		641.4,404.5 641.6,404.5 641.8,404.5 642,404.4 642.2,404.3 642.4,404.3 642.6,404.2 642.8,404.2 643.1,404.1 643.4,403.9 
		643.7,403.8 644,403.7 644.3,403.5 644.6,403.3 644.9,403.2 645.2,403 645.5,402.8 646.2,402.4 646.8,401.9 648,401 649.3,400.1 
		650.5,399.1 651.2,398.7 651.8,398.3 652.4,397.9 652.7,397.7 653.1,397.5 653.4,397.3 653.7,397.2 654,397 654.3,396.9 
		654.6,396.7 654.9,396.6 655.2,396.5 655.6,396.4 656.2,396.1 656.8,395.9 657.4,395.8 658,395.6 658.6,395.5 659.3,395.3 
		660.5,395.1 662.8,394.7 663.8,394.4 664.9,394.2 665.9,393.9 666.8,393.7 667.3,393.5 667.8,393.4 668.2,393.2 668.7,393 
		669.1,392.8 669.5,392.7 670,392.5 670.4,392.3 670.8,392.1 671.2,391.8 671.6,391.6 672,391.4 672.4,391.1 672.7,390.9 
		673.1,390.6 673.5,390.3 673.8,390.1 674.2,389.8 674.5,389.5 674.9,389.1 675.2,388.8 675.6,388.5 675.9,388.1 676.2,387.8 
		676.5,387.4 676.9,387 677.2,386.6 677.5,386.2 677.8,385.7 678.1,385.3 678.4,384.8 678.7,384.3 679,383.8 679.3,383.3 
		679.6,382.8 679.9,382.3 680.2,381.7 680.4,381.1 680.7,380.5 681,379.9 681.3,379.2 681.5,378.6 681.8,377.9 682,377.2 
		682.3,376.5 682.5,375.7 682.7,374.9 683,374.1 683.2,373.3 683.4,372.5 683.7,371.6 683.9,370.7 684.1,369.8 684.3,368.8 
		684.5,367.9 684.7,366.9 	"/>
</g>
<g id="HATCH_335_">
	<path class="st1" d="M683.9,391.8l0.6-7.6l0.6-7.6l0.6-7.6l0.3-3.8l0.3-3.8l0.2-3.8l0.2-3.8l0.2-3.8l0.2-3.8l0.2-3.8l0.2-3.8
		l0.1-3.9l0.1-3.9l0.1-2.5l0-2.5l0.1-5l0-5l0-5l0-5l-0.1-5l-0.1-5l-0.1-5l-0.1-5l-0.1-5.1l-0.6-20.2l-0.1-5.1l-0.1-5.1l-0.2-7.1
		l-0.1-7.1l-0.1-7.1l-0.1-7.1l-0.1-7.1l-0.1-7.1l0-7.1l0-7.1l0-14.1l0-14.1l0.1-28.3l0-19.4l0-19.4l0-9.7l0-9.7l0-9.7l-0.1-9.7
		l-2.1,0.6l-2.1,0.5l-2.1,0.5l-2.1,0.5L675,62l-2.1,0.4l-2.1,0.4l-2.1,0.3l-2.1,0.3l-2.1,0.3l-2.1,0.2l-2.1,0.2l-2.1,0.2l-2.1,0.2
		l-2.1,0.1l-2.1,0.1l-2.1,0.1l-2.1,0.1l-2.1,0.1l-2.1,0l-2.1,0l-2.1,0l-2.1,0l-2.1,0l-2.1,0l-2.1,0l-4.2-0.1l-4.2-0.1l-4.2-0.2
		l-8.5-0.4l-4.2-0.2l-4.2-0.2l-4.2-0.1l-2.1,0l-2.1,0l-2.1,0l-2.1,0l-2.1,0l-2.1,0l-2.1,0l-2.1,0.1l-2.1,0.1l-2.1,0.1l-2.1,0.1
		l-2.1,0.1l-2.1,0.2l-2.1,0.2l-2.1,0.2l-2.1,0.2L561,65l-2.1,0.3l-2.1,0.3l-2.1,0.4l-2.1,0.4l-2.1,0.4l-1.7,0.4l-3.5,0.8l-1.7,0.4
		l-1.7,0.3l-0.9,0.2l-0.9,0.1l-0.9,0.1l-0.9,0.1l-0.9,0.1l-0.9,0.1l-0.9,0l-0.9,0l-0.9,0l-0.9,0l-0.9-0.1l-0.4,0l-0.4,0l-0.4-0.1
		l-0.4-0.1l-0.4-0.1l-0.4-0.1l-0.4-0.1l-0.4-0.1l-0.4-0.1l-0.4-0.1l-0.4-0.1l-0.4-0.1l-0.4-0.1l-0.4-0.2l-0.4-0.2l-0.4-0.2l-0.4-0.2
		l-0.4-0.2l-0.4-0.2l-0.4-0.2l-0.4-0.2l-0.4-0.2l0,0.9l0.1,8l0,8.1l0,8.1l0,8.1l0,8.2l0,8.2l-0.2,47l0,15.3l0,15.3l0,15.3l0,15.3
		l0,15.3l0,15.3l0,15.3l0,15.3l0.1,15.3l0.1,15.3l0.1,15.3l0.1,15.3l0.1,15.2l0.2,15.2l0,3.3l0.1,3.2l0,1.6l0.1,1.5l0.1,1.5l0.1,1.4
		l0.1,1.3l0.1,1.2l0.1,0.6l0.1,0.6l0.1,0.5l0.1,0.5l0.1,0.5l0.1,0.2l0.1,0.2l0.1,0.2l0.1,0.2l0.1,0.2l0.1,0.2l0.1,0.2l0.1,0.2
		l0.1,0.2l0,0.1l0,0.1l0,0.1l0,0.1l0,0.1l0,0.1l0,0.1l0,0.1l0,0.1l0,0.1l0.3,0.3l0.3,0.3l0.3,0.3l0.3,0.3l0.3,0.3l0.3,0.3l0.3,0.2
		l0.3,0.2l0.3,0.2l0.3,0.2l0.3,0.2l0.3,0.2l0.3,0.2l0.3,0.2l0.3,0.2l0.3,0.2l0.3,0.2l0.3,0.2l0.3,0.2l0.3,0.1l0.3,0.1l0.3,0.1
		l0.3,0.1l0.3,0.1l0.3,0.1l0.3,0.1l0.3,0.1l0.3,0.1l0.6,0.2l0.6,0.2l0.6,0.1l0.6,0.1l0.6,0.1l0.7,0.1l0.7,0.1l0.7,0.1l0.7,0.1l0.7,0
		l1.3,0.1l1.4,0l2.7,0l39.1,0l5.9,0l5.7,0l2.9,0l2.9,0l3.5,0l3.5,0l1.7,0l1.7,0l1.7-0.1l1.7-0.1l1.7-0.1l3.5-0.3l1.7-0.1l0.9,0
		l0.9,0l0.9,0l0.9,0l0.9,0l0.9,0.1l0.9,0.1l0.4,0.1l0.4,0.1l0.8,0.1l0.8,0.2l3.3,0.7l0.8,0.2l0.8,0.2l0.4,0.1l0.4,0.1l0.4,0l0.4,0
		l0.4,0l0.4,0l0.4,0l0.4,0l0.2,0l0.2,0l0.2,0l0.2,0l0.2,0l0.2,0l0.2,0l0.2,0l0.2,0l0.2,0l0.2-0.1l0.2-0.1l0.2-0.1l0.2-0.1l0.2-0.1
		l0.2-0.1l0.3-0.1l0.3-0.1l0.3-0.1l0.3-0.2l0.3-0.2l0.3-0.2l0.3-0.2l0.3-0.2l0.6-0.4l0.6-0.4l0.6-0.5l3.1-2.3l0.6-0.4l0.6-0.4
		l0.6-0.4l0.3-0.2l0.3-0.2l0.3-0.2l0.3-0.2l0.3-0.2l0.3-0.1l0.3-0.1l0.3-0.1l0.3-0.1l0.3-0.1l0.6-0.2l0.6-0.2l0.6-0.2l0.6-0.2
		l0.6-0.2l0.6-0.1l1.2-0.3l1.2-0.3l1.2-0.3l1.3-0.3l1.3-0.3l3.9-1.1l1.3-0.3l1.3-0.3l1.3-0.3l0.7-0.1l0.7-0.1l0.7-0.1l0.7-0.1
		l0.7-0.1l0.7-0.1l0.7,0l0.7,0l0.7,0l0.7,0l0.7,0l0.3,0l0.3,0l0.3,0l0.3,0l0.3,0.1l0.3,0.1l0.3,0.1l0.3,0.1l0.3,0.1L683.9,391.8z
		 M678.4,385.2l-0.8,0l-0.8,0.1l-0.8,0.1l-0.8,0.1l-0.8,0.1l-0.8,0.1l-0.8,0.1L672,386l-1.5,0.3l-1.5,0.4l-1.6,0.4l-2.9,0.8
		l-1.3,0.3l-1.2,0.3l-1.2,0.3l-2.4,0.5l-1.4,0.3l-0.8,0.2l-0.8,0.2l-0.8,0.2l-0.8,0.3l-0.4,0.2l-0.4,0.2l-0.4,0.2l-0.4,0.2l-0.4,0.2
		l-0.4,0.2l-0.4,0.2l-0.4,0.2l-0.5,0.3l-0.5,0.3l-0.5,0.3l-0.5,0.3l-0.8,0.5l-0.8,0.5l-0.8,0.6l-2.3,1.7l-0.6,0.4l-0.6,0.4l-0.5,0.3
		l-0.2,0.2l-0.2,0.1l-0.2,0.1l-0.2,0.1l-0.2,0.1l-0.2,0.1l-0.1,0.1l-0.1,0.1l-0.1,0l-0.1,0l-0.1,0l-0.1,0l-0.1,0l-0.1,0l-0.1,0
		l-0.1,0l-0.1,0l-0.1,0l-0.1,0l-0.1,0l-0.1,0l-0.1,0l-0.1,0l-0.1,0l-0.2,0l-0.2,0l-0.3,0l-0.3,0l-0.3,0l-0.3,0l-0.3,0l-0.3-0.1
		l-0.7-0.1l-0.7-0.2l-2.5-0.6l-1-0.2l-1-0.2l-0.7-0.1l-0.7-0.1l-1.1-0.1l-1.1-0.1l-1,0l-1,0l-1,0l-1,0l-1.1,0l-1.1,0.1l-2.2,0.2
		l-1.7,0.1l-1.7,0.1l-1.5,0.1l-1.5,0.1l-1.1,0l-1.1,0l-2.2,0l-7.8-0.1l-3,0l-11.9,0l-56.3,0l-0.2-14.1l-0.2-14.1l-0.2-17.2L529,335
		l-0.1-17.2l-0.1-17.2l-0.1-17.2l0-17.2l0-17.2l0-17.2l0-17.2l0-17.2l0-17.2l0.1-17.2l0.2-55.8l0-8l0-8l0-8l0-8l0.8,0.1l0.8,0.1
		l0.8,0.1l0.8,0.1l0.8,0l0.8,0l0.8,0l0.8,0l0.8,0l0.8,0l0.8-0.1l0.8-0.1l0.8-0.1l0.8-0.1l0.8-0.1l0.8-0.1l1.5-0.3l1.5-0.3l2.2-0.5
		l4.2-0.9l1.5-0.3l1.5-0.3l1.5-0.3l1.5-0.3l1.5-0.2l1.5-0.2l1.5-0.2l1.5-0.2l1.6-0.2l1.6-0.2l1.6-0.2l1.6-0.1l1.6-0.1l1.6-0.1
		l1.7-0.1l1.7-0.1l1.7-0.1l1.7-0.1l1.7,0l1.7,0l1.7,0l1.7,0l3.3,0l3.4,0l3.4,0.1l3.4,0.1l3.4,0.1l3.4,0.1l13.7,0.6l3.4,0.1l3.4,0.1
		l3.4,0.1l3.5,0.1l3.5,0l3.5,0l1.7,0l1.7,0l1.6,0l1.6,0l1.6-0.1l1.6-0.1l1.6-0.1l1.6-0.1l1.6-0.1l1.6-0.1l1.4-0.1l1.4-0.1l1.4-0.1
		l1.4-0.1l1.4-0.2l1.4-0.2l1.4-0.2l1.4-0.2l1.4-0.2l1.4-0.2l1.4-0.2l1.4-0.2l1.4-0.3l1.4-0.3l1.4-0.3l1.4-0.3l0,8.7l0,8.7l0,17.5
		l0,17.5l0,17.5l-0.1,28.3l0,14.1l0,14.1l0,7.1l0,7.1l0.1,7.1l0.1,7.1l0.1,7.1l0.1,7.1l0.1,7.1l0.2,7.1l0.1,5.1l0.1,5.1l0.6,20.2
		l0.1,5.1l0.1,5.1l0.1,5l0.1,5l0.1,5l0,5l0,5l0,5l-0.1,5l0,2.5l-0.1,2.5l-0.1,3.4l-0.1,3.4l-0.1,3.4l-0.1,3.4l-0.2,3.4l-0.2,3.4
		l-0.2,3.4l-0.2,3.4l-0.2,3.4l-0.2,3.4l-0.5,6.8l-0.5,6.8L678.4,385.2z"/>
</g>
<g id="HATCH_336_">
	<path class="st1" d="M729.8,72.3l-0.6,7.6l-0.6,7.6l-0.6,7.6l-0.3,3.8l-0.3,3.8l-0.2,3.8l-0.2,3.8l-0.2,3.8l-0.2,3.8l-0.2,3.8
		l-0.2,3.8l-0.1,3.9l-0.1,3.9l-0.1,2.5l0,2.5l-0.1,5l0,5l0,5l0,5l0.1,5l0.1,5l0.1,5l0.1,5l0.1,5.1l0.6,20.2l0.1,5.1l0.1,5.1l0.2,7.1
		l0.1,7.1l0.1,7.1l0.1,7.1l0.1,7.1l0.1,7.1l0,7.1l0,7.1l0,14.1l0,14.1l-0.1,28.3l0,19.4l0,19.4l0,9.7l0,9.7l0,9.7l0.1,9.7l2.1-0.6
		l2.1-0.5l2.1-0.5l2.1-0.5l2.1-0.4l2.1-0.4l2.1-0.4l2.1-0.3l2.1-0.3l2.1-0.3l2.1-0.2l2.1-0.2l2.1-0.2l2.1-0.2l2.1-0.1l2.1-0.1
		l2.1-0.1l2.1-0.1l2.1-0.1l2.1,0l2.1,0l2.1,0l2.1,0l2.1,0l2.1,0l2.1,0l4.2,0.1l4.2,0.1l4.2,0.2l8.5,0.4l4.2,0.2l4.2,0.2l4.2,0.1
		l2.1,0l2.1,0l2.1,0l2.1,0l2.1,0l2.1,0l2.1,0l2.1-0.1l2.1-0.1l2.1-0.1l2.1-0.1l2.1-0.1l2.1-0.2l2.1-0.2l2.1-0.2l2.1-0.2l2.1-0.3
		l2.1-0.3l2.1-0.3l2.1-0.4l2.1-0.4l2.1-0.4l6.9-1.5l1.7-0.3l0.9-0.2l0.9-0.1l0.9-0.1l0.9-0.1l0.9-0.1l0.9-0.1l0.9-0.1l0.9,0l0.9,0
		l0.9,0l0.9,0l0.9,0.1l0.4,0l0.4,0.1l0.4,0.1l0.4,0.1l0.4,0.1l0.4,0.1l0.4,0.1l0.4,0.1l0.4,0.1l0.4,0.1l0.4,0.1l0.4,0.1l0.4,0.2
		l0.4,0.2l0.4,0.2l0.4,0.2l0.4,0.2l0.4,0.2l0.4,0.2l0.4,0.2c0,0,0,0,0,0c0,0,0,0,0,0c0,0,0,0,0,0c0,0,0,0,0,0c0,0,0,0,0,0
		c0,0,0,0,0,0c0,0,0,0,0,0c0,0,0,0,0,0c0,0,0,0,0,0c0,0,0,0,0,0c0,0,0,0,0,0l0,0l0,0l0,0l0,0l0,0l0,0l0,0l0,0l0,0l0,0l0,0l0,0l0-0.1
		l-0.1-8.2l0-8.1l0-8.1l0-8.1l0-8.2l0-8.2l0.2-47l0-15.3l0-15.3l0-15.3l0-15.3l0-15.3l0-15.3l0-15.3l0-15.3l-0.1-15.3l-0.1-15.3
		l-0.1-15.3l-0.1-15.3l-0.1-15.2l-0.2-15.2l0-3.3l0-1.6l0-1.6l-0.1-1.6l-0.1-1.5l-0.1-1.4l-0.1-0.7l-0.1-0.7l-0.1-0.6l-0.1-0.6
		l-0.1-0.6l-0.1-0.6l-0.1-0.6l-0.1-0.3l-0.1-0.3l-0.1-0.3l-0.1-0.2l-0.1-0.2l-0.1-0.2l-0.1-0.2l-0.1-0.2l-0.1-0.2l-0.1-0.2l-0.1-0.1
		l-0.1-0.1l-0.1-0.1l-0.1-0.1l-0.1-0.1l-0.1-0.1l-0.1-0.1l-0.1-0.1l-0.1-0.1l-0.1-0.1l-0.1-0.1l-0.1-0.1l-0.1-0.1l-0.1-0.1l-0.1-0.1
		l-0.1-0.1l-0.1-0.1l-0.1-0.1l-0.1-0.1L887,68l-0.1,0l-0.1,0l-0.1,0l-0.1,0l-1.4-0.7l-1.4-0.6l-1.3-0.6l-1.3-0.5L880,65l-1.3-0.5
		l-1.2-0.4l-1.2-0.4l-1.2-0.4l-1.2-0.3l-1.2-0.3l-1.1-0.3l-1.1-0.2l-1.1-0.2l-1.1-0.2l-1.1-0.2l-1-0.2l-1-0.1l-1-0.1l-1-0.1l-1-0.1
		l-0.9-0.1l-0.9-0.1l-0.9,0l-1.7-0.1l-1.6,0l-1.6,0l-25.4,0l-5.9,0l-5.7,0l-2.9,0l-2.9,0l-3.5,0l-3.5,0l-1.7,0l-1.7,0l-1.7,0.1
		l-1.7,0.1l-1.7,0.1l-3.5,0.3l-1.7,0.1l-0.9,0l-0.9,0l-0.9,0l-0.9,0l-0.9,0l-0.9-0.1l-0.9-0.1l-0.4-0.1l-0.4-0.1l-0.8-0.1l-0.8-0.2
		l-3.3-0.7l-0.8-0.2l-0.8-0.2l-0.4-0.1l-0.4-0.1l-0.4,0l-0.4,0l-0.4,0l-0.4,0l-0.4,0l-0.4,0l-0.2,0l-0.2,0l-0.2,0l-0.2,0l-0.2,0
		l-0.2,0l-0.2,0l-0.2,0l-0.2,0l-0.2,0l-0.2,0.1l-0.2,0.1l-0.2,0.1l-0.2,0.1l-0.2,0.1l-0.2,0.1l-0.3,0.1l-0.3,0.1l-0.3,0.1l-0.3,0.2
		l-0.3,0.2l-0.3,0.2l-0.3,0.2l-0.3,0.2l-0.6,0.4l-0.6,0.4l-0.6,0.5l-3.1,2.3l-0.6,0.4l-0.6,0.4l-0.6,0.4l-0.3,0.2l-0.3,0.2l-0.3,0.2
		l-0.3,0.2l-0.3,0.2l-0.3,0.1l-0.3,0.1l-0.3,0.1l-0.3,0.1l-0.3,0.1l-0.6,0.2l-0.6,0.2l-0.6,0.2l-0.6,0.2l-0.6,0.2l-0.6,0.1l-1.2,0.3
		l-1.2,0.3l-1.2,0.3l-1.3,0.3l-1.3,0.3l-3.9,1.1l-1.3,0.3l-1.3,0.3l-1.3,0.3l-0.7,0.1l-0.7,0.1l-0.7,0.1l-0.7,0.1l-0.7,0.1l-0.7,0.1
		l-0.7,0l-0.7,0l-0.7,0l-0.7,0l-0.7,0l-0.3,0l-0.3,0l-0.3,0l-0.3,0l-0.3-0.1l-0.3-0.1l-0.3-0.1l-0.3-0.1l-0.3-0.1L729.8,72.3z
		 M735.3,78.9l0.8,0l0.8-0.1l0.8-0.1l0.8-0.1l0.8-0.1l0.8-0.1l0.8-0.1l0.8-0.2l1.5-0.3l1.5-0.4l1.6-0.4l2.9-0.8l1.3-0.3l1.2-0.3
		l1.2-0.3l2.4-0.5l1.4-0.3l0.8-0.2l0.8-0.2l0.8-0.2l0.8-0.3l0.4-0.2l0.4-0.2l0.4-0.2l0.4-0.2l0.4-0.2l0.4-0.2l0.4-0.2l0.4-0.2
		l0.5-0.3l0.5-0.3l0.5-0.3l0.5-0.3l0.8-0.5l0.8-0.5l0.8-0.6l2.3-1.7l0.6-0.4l0.6-0.4l0.5-0.3l0.2-0.2l0.2-0.1l0.2-0.1l0.2-0.1
		l0.2-0.1l0.2-0.1l0.1-0.1l0.1-0.1l0.1,0l0.1,0l0.1,0l0.1,0l0.1,0l0.1,0l0.1,0l0.1,0l0.1,0l0.1,0l0.1,0l0.1,0l0.1,0l0.1,0l0.1,0
		l0.1,0l0.2,0l0.2,0l0.3,0l0.3,0l0.3,0l0.3,0l0.3,0l0.3,0.1l0.7,0.1l0.7,0.2l2.5,0.6l1,0.2l1,0.2L783,67l0.7,0.1l1.1,0.1l1.1,0.1
		l1,0l1,0l1,0l1,0l1.1,0l1.1-0.1l2.2-0.2l1.7-0.1l1.7-0.1l1.5-0.1l1.5-0.1l1.1,0l1.1,0l2.2,0l7.8,0.1l3,0l11.9,0l56.3,0l0.2,14.1
		l0.2,14.1l0.2,17.2l0.1,17.2l0.1,17.2l0.1,17.2l0.1,17.2l0,17.2l0,17.2l0,17.2l0,17.2l0,17.2l0,17.2l-0.1,17.2l-0.2,55.8l0,8l0,8
		l0,8l0,8l-0.8-0.1l-0.8-0.1l-0.8-0.1l-0.8-0.1l-0.8,0l-0.8,0l-0.8,0l-0.8,0l-0.8,0l-0.8,0l-0.8,0.1l-0.8,0.1l-0.8,0.1l-0.8,0.1
		l-0.8,0.1l-0.8,0.1l-1.5,0.3l-1.5,0.3l-2.2,0.5l-4.2,0.9l-1.5,0.3l-1.5,0.3l-1.5,0.3l-1.5,0.3l-1.5,0.2l-1.5,0.2l-1.5,0.2l-1.5,0.2
		l-1.6,0.2l-1.6,0.2l-1.6,0.2l-1.6,0.1l-1.6,0.1l-1.6,0.1l-1.7,0.1l-1.7,0.1l-1.7,0.1l-1.7,0.1l-1.7,0l-1.7,0l-1.7,0l-1.7,0l-3.3,0
		l-3.4,0l-3.4-0.1l-3.4-0.1l-3.4-0.1l-3.4-0.1l-13.7-0.6l-3.4-0.1l-3.4-0.1l-3.4-0.1l-3.5-0.1l-3.5,0l-3.5,0l-1.7,0l-1.7,0l-1.6,0
		l-1.6,0l-1.6,0.1l-1.6,0.1l-1.6,0.1l-1.6,0.1l-1.6,0.1l-1.6,0.1L755,394l-1.4,0.1l-1.4,0.1l-1.4,0.1l-1.4,0.2l-1.4,0.2l-1.4,0.2
		l-1.4,0.2l-1.4,0.2l-1.4,0.2l-1.4,0.2l-1.4,0.2l-1.4,0.3l-1.4,0.3l-1.4,0.3l-1.4,0.3l0-8.7l0-8.7l0-17.5l0-17.5l0-17.5l0.1-28.3
		l0-14.1l0-14.1l0-7.1l0-7.1l-0.1-7.1l-0.1-7.1l-0.1-7.1l-0.1-7.1l-0.1-7.1l-0.2-7.1l-0.1-5.1l-0.1-5.1l-0.6-20.2l-0.1-5.1l-0.1-5.1
		l-0.1-5l-0.1-5l-0.1-5l0-5l0-5l0-5l0.1-5l0-2.5l0.1-2.5l0.1-3.4l0.1-3.4l0.1-3.4l0.1-3.4l0.2-3.4l0.2-3.4l0.2-3.4l0.2-3.4l0.2-3.4
		l0.2-3.4l0.5-6.8l0.5-6.8L735.3,78.9z"/>
</g>
<g id="POLYLINE_564_">
	<polyline class="st0" points="729.8,72.3 729.2,79.9 728.6,87.6 728,95.2 727.8,99 727.5,102.8 727.3,106.7 727,110.5 726.8,114.3 
		726.6,118.2 726.5,122 726.3,125.8 726.2,129.7 726.1,133.6 726,136.1 726,138.6 725.9,143.6 725.9,148.6 725.9,153.6 725.9,158.6 
		726,163.6 726.1,168.7 726.2,173.7 726.4,178.8 726.5,183.8 727.1,204.1 727.2,209.1 727.4,214.2 727.5,221.2 727.7,228.3 
		727.8,235.4 727.9,242.4 727.9,249.5 728,256.5 728,263.6 728.1,270.6 728.1,284.8 728.1,298.9 728,332 728,336.8 728,341.5 
		728.1,346.1 728.1,348.4 728.2,350.6 728.2,352.8 728.3,355 728.4,357 728.5,359.1 728.6,361 728.8,362.9 728.9,364.7 729.1,366.5 
		729.3,368.2 729.5,369.8 729.8,371.3 729.9,372 730.1,372.7 730.2,373.3 730.4,374 730.5,374.6 730.7,375.2 730.8,375.8 731,376.3 
		731.2,376.8 731.4,377.3 731.5,377.5 731.6,377.8 731.7,378 731.8,378.2 731.9,378.4 732,378.6 732.1,378.8 732.3,378.9 
		732.4,379.1 732.5,379.3 732.6,379.4 732.7,379.6 732.8,379.7 732.9,379.7 732.9,379.8 733,379.9 733,379.9 733.1,380 733.2,380 
		733.2,380.1 733.3,380.2 733.4,380.2 733.4,380.3 733.5,380.3 733.6,380.4 733.6,380.4 733.7,380.4 733.8,380.5 733.9,380.5 
		733.9,380.6 734,380.6 734.1,380.6 734.1,380.6 734.2,380.7 734.3,380.7 734.4,380.7 749.2,385.1 752.9,386.2 756.8,387.2 
		760.6,388.3 764.5,389.4 768.4,390.4 772.3,391.5 776.3,392.5 778.3,393 780.3,393.4 782.3,393.9 784.3,394.3 786.3,394.8 
		788.3,395.2 790.3,395.6 792.4,396 794.4,396.4 796.4,396.8 798.5,397.2 800.5,397.5 802.6,397.8 804.6,398.2 806.7,398.5 
		808.8,398.7 810.8,399 812.9,399.2 815,399.4 817.1,399.6 819.1,399.8 821.2,400 823.3,400.1 825.4,400.2 827.5,400.3 829.6,400.3 
		831.7,400.4 833.8,400.4 835.9,400.4 838,400.3 840.1,400.2 842.2,400.1 844.3,400 846.4,399.8 848.5,399.6 850.6,399.4 
		852.7,399.2 854.8,398.9 856.9,398.6 859,398.2 861.1,397.8 863.2,397.4 864.9,397 866.6,396.6 867.5,396.4 868.4,396.1 
		869.2,395.9 870,395.6 870.9,395.4 871.7,395.1 872.5,394.8 873.4,394.5 874.2,394.1 875,393.8 875.8,393.4 876.5,393 877.3,392.6 
		878.1,392.1 878.8,391.6 879.5,391.1 880.2,390.6 880.6,390.3 880.9,390.1 881.3,389.8 881.6,389.5 882,389.2 882.3,388.9 
		882.6,388.5 882.9,388.2 883.3,387.9 883.6,387.5 883.9,387.2 884.2,386.8 884.5,386.5 884.8,386.1 885.1,385.7 885.4,385.3 
		885.6,384.9 885.9,384.5 886.2,384.1 886.4,383.6 886.7,383.2 887,382.7 887,382.6 887.1,382.4 887.2,382.2 887.3,382.1 
		887.4,381.7 887.6,381.3 887.7,380.9 887.9,380.5 888,380 888.2,379.5 888.3,379 888.4,378.5 888.7,377.4 888.9,376.3 889.1,375 
		889.3,373.7 889.5,372.4 889.6,370.9 889.8,369.5 889.9,367.9 890,366.3 890.1,364.7 890.2,363 890.3,361.2 890.4,359.4 
		890.5,355.8 890.6,351.9 890.7,348 890.8,344 890.8,339.9 890.8,331.6 891,301.1 891,285.8 891,270.5 891.1,255.2 891.1,239.9 
		891.1,224.6 891.1,209.3 891,194 891,178.7 890.9,163.4 890.9,148.1 890.8,132.9 890.6,117.6 890.5,102.4 890.4,87.2 890.3,83.9 
		890.3,82.3 890.2,80.7 890.2,79.1 890.1,77.6 889.9,76.2 889.9,75.5 889.8,74.9 889.7,74.2 889.6,73.6 889.5,73 889.3,72.4 
		889.2,71.8 889.1,71.6 889,71.3 889,71.1 888.9,70.8 888.8,70.6 888.7,70.3 888.6,70.1 888.5,69.9 888.4,69.7 888.3,69.5 
		888.2,69.4 888.2,69.3 888.1,69.2 888.1,69.1 888,69.1 887.9,69 887.9,68.9 887.8,68.8 887.8,68.7 887.7,68.7 887.6,68.6 
		887.6,68.5 887.5,68.4 887.4,68.4 887.4,68.3 887.3,68.3 887.2,68.2 887.1,68.1 887.1,68.1 887,68 886.9,68 886.8,67.9 886.8,67.9 
		886.7,67.9 885.3,67.2 883.9,66.6 882.6,66 881.3,65.5 880,65 878.7,64.5 877.5,64.1 876.2,63.7 875,63.4 873.9,63 872.7,62.7 
		871.5,62.5 870.4,62.2 869.3,62 868.3,61.8 867.2,61.6 866.2,61.4 865.2,61.3 864.2,61.2 863.2,61.1 862.2,61 861.3,60.9 
		860.4,60.9 859.5,60.8 857.8,60.8 856.2,60.7 854.6,60.7 829.1,60.7 823.3,60.7 817.5,60.7 814.7,60.7 811.8,60.7 808.3,60.7 
		804.8,60.6 803.1,60.7 801.3,60.7 799.6,60.7 797.8,60.8 796.1,60.9 792.6,61.2 790.9,61.3 790,61.4 789.1,61.4 788.3,61.4 
		787.4,61.4 786.5,61.4 785.6,61.3 784.8,61.2 784.3,61.1 783.9,61.1 783,60.9 782.2,60.8 778.9,60 778.1,59.9 777.2,59.7 
		776.8,59.6 776.4,59.6 776,59.5 775.6,59.5 775.2,59.5 774.8,59.4 774.3,59.4 773.9,59.5 773.7,59.5 773.5,59.5 773.3,59.5 
		773.1,59.5 772.9,59.5 772.7,59.6 772.5,59.6 772.3,59.6 772.1,59.7 771.9,59.7 771.7,59.8 771.5,59.8 771.3,59.9 771.1,59.9 
		770.9,60 770.7,60.1 770.3,60.2 770,60.4 769.7,60.5 769.4,60.7 769.1,60.8 768.8,61 768.5,61.2 768.2,61.4 767.5,61.8 766.9,62.2 
		766.3,62.7 763.2,65 762.6,65.5 762,65.9 761.3,66.3 761,66.5 760.7,66.7 760.4,66.8 760.1,67 759.8,67.2 759.5,67.3 759.2,67.4 
		758.9,67.6 758.6,67.7 758.3,67.8 757.7,68 757,68.2 756.4,68.4 755.8,68.6 755.2,68.7 754.6,68.9 753.3,69.1 752.1,69.4 
		750.9,69.6 749.6,69.9 748.3,70.3 744.3,71.3 743,71.7 741.7,72 740.4,72.3 739.7,72.4 739.1,72.5 738.4,72.6 737.8,72.7 
		737.1,72.8 736.4,72.9 735.8,72.9 735.1,72.9 734.5,73 733.8,72.9 733.1,72.9 732.8,72.9 732.5,72.8 732.2,72.8 731.8,72.8 
		731.5,72.7 731.2,72.6 730.8,72.6 730.5,72.5 730.2,72.4 729.8,72.3 	"/>
</g>
<g id="HATCH_337_">
	<polygon class="st1" points="327.2,385.2 328,385.3 328.9,385.3 329.7,385.4 330.5,385.5 331.3,385.6 332.1,385.7 332.9,385.9 
		333.6,386 335.1,386.4 336.6,386.7 338.2,387.2 341.1,387.9 342.4,388.3 343.6,388.6 344.7,388.8 347.1,389.3 348.5,389.6 
		349.3,389.8 350.1,390 350.9,390.3 351.6,390.5 352,390.7 352.5,390.8 352.9,391 353.3,391.2 353.7,391.4 354.1,391.5 354.6,391.7 
		355,392 355.5,392.2 356,392.5 356.4,392.8 356.9,393.1 357.7,393.6 358.4,394.2 359.2,394.7 361.5,396.4 362.1,396.9 362.7,397.3 
		363.2,397.6 363.4,397.8 363.6,397.9 363.8,398 364,398.1 364.2,398.2 364.4,398.3 364.5,398.4 364.7,398.5 364.7,398.5 
		364.8,398.5 364.9,398.5 365,398.6 365,398.6 365.1,398.6 365.2,398.6 365.3,398.6 365.4,398.7 365.5,398.7 365.6,398.7 
		365.6,398.7 365.7,398.7 365.8,398.7 366,398.7 366.1,398.7 366.3,398.7 366.5,398.7 366.8,398.7 367,398.7 367.3,398.7 
		367.6,398.6 367.9,398.6 368.2,398.5 368.9,398.4 369.6,398.2 372.2,397.7 373.2,397.5 374.2,397.3 374.9,397.2 375.6,397.1 
		376.7,396.9 377.8,396.8 378.9,396.8 379.9,396.8 380.9,396.8 382,396.8 383.1,396.8 384.2,396.9 386.4,397.1 388.1,397.2 
		389.7,397.3 391.2,397.4 392.7,397.5 393.8,397.5 394.9,397.5 397.1,397.5 404.9,397.5 407.9,397.4 419.7,397.5 476,397.5 
		476.2,383.4 476.3,369.3 476.5,352.1 476.6,335 476.7,317.8 476.8,300.7 476.9,283.4 476.9,266.2 477,249 477,231.8 477,214.5 
		476.9,197.3 476.9,180.1 476.8,162.9 476.6,107.1 476.6,99 476.6,91 476.6,82.9 476.7,74.9 475.9,75 475,75.1 474.2,75.2 
		473.4,75.3 472.5,75.3 471.7,75.4 470.8,75.4 470,75.4 469.2,75.3 468.4,75.3 467.6,75.2 466.8,75.1 466,75 465.2,74.9 464.4,74.8 
		463.6,74.7 462.1,74.4 460.6,74.1 458.5,73.7 454.3,72.7 452.8,72.4 451.3,72.2 449.9,71.9 448.4,71.6 446.9,71.4 445.4,71.2 
		443.9,71 442.4,70.8 440.8,70.6 439.1,70.4 437.5,70.2 435.9,70.1 434.2,70 432.6,69.9 430.9,69.8 429.3,69.7 427.6,69.6 
		425.9,69.6 424.3,69.5 422.6,69.5 420.9,69.5 419.3,69.4 415.9,69.4 412.5,69.5 409.1,69.6 405.8,69.6 402.4,69.8 398.9,69.9 
		385.2,70.5 381.8,70.6 378.3,70.7 374.9,70.8 371.4,70.9 367.9,70.9 364.5,70.9 362.7,70.9 361,70.9 359.4,70.9 357.8,70.8 
		356.2,70.8 354.6,70.7 353,70.6 351.5,70.5 349.9,70.4 348.3,70.3 346.9,70.2 345.5,70.1 344.1,70 342.7,69.8 341.3,69.7 
		339.9,69.5 338.5,69.3 337.1,69.1 335.7,68.9 334.3,68.7 332.9,68.5 331.6,68.2 330.2,68 328.8,67.7 327.4,67.4 326,67.1 326,75.9 
		325.9,84.6 325.9,102.1 325.9,119.6 325.9,137 326,165.3 326,179.4 326,193.5 325.9,200.6 325.9,207.7 325.8,214.8 325.8,221.8 
		325.7,228.9 325.5,236 325.4,243.1 325.2,250.1 325.1,255.2 325,260.3 324.4,280.5 324.2,285.5 324.1,290.6 324,295.6 323.9,300.6 
		323.8,305.5 323.8,310.5 323.8,315.5 323.8,320.5 323.9,325.5 323.9,328 323.9,330.5 324,333.9 324.2,337.3 324.3,340.8 
		324.4,344.2 324.6,347.6 324.8,351 325,354.5 325.2,357.9 325.4,361.3 325.6,364.7 326.1,371.6 326.7,378.4 	"/>
</g>
<g id="HATCH_338_">
	<polygon class="st1" points="678.4,385.2 678.9,378.4 679.5,371.6 679.9,364.7 680.2,361.3 680.4,357.9 680.6,354.5 680.8,351 
		681,347.6 681.2,344.2 681.3,340.8 681.4,337.3 681.6,333.9 681.6,330.5 681.7,328 681.7,325.5 681.8,320.5 681.8,315.5 
		681.8,310.5 681.8,305.5 681.7,300.6 681.6,295.6 681.5,290.6 681.4,285.5 681.2,280.5 680.6,260.3 680.5,255.2 680.3,250.1 
		680.2,243.1 680,236 679.9,228.9 679.8,221.8 679.8,214.8 679.7,207.7 679.7,200.6 679.6,193.5 679.6,179.4 679.6,165.3 679.7,137 
		679.7,119.6 679.7,102.1 679.7,84.6 679.6,75.9 679.6,67.1 678.2,67.4 676.8,67.7 675.4,68 674,68.2 672.6,68.5 671.2,68.7 
		669.8,68.9 668.4,69.1 667.1,69.3 665.7,69.5 664.3,69.7 662.9,69.8 661.5,70 660.1,70.1 658.7,70.2 657.3,70.3 655.7,70.4 
		654.1,70.5 652.6,70.6 651,70.7 649.4,70.8 647.8,70.8 646.2,70.9 644.6,70.9 642.9,70.9 641.1,70.9 637.7,70.9 634.2,70.9 
		630.7,70.8 627.3,70.7 623.8,70.6 620.4,70.5 606.7,69.9 603.2,69.8 599.8,69.6 596.4,69.6 593.1,69.5 589.7,69.4 586.3,69.4 
		584.7,69.5 583,69.5 581.3,69.5 579.7,69.6 578,69.6 576.3,69.7 574.7,69.8 573,69.9 571.4,70 569.7,70.1 568.1,70.2 566.4,70.4 
		564.8,70.6 563.2,70.8 561.7,71 560.2,71.2 558.7,71.4 557.2,71.6 555.7,71.9 554.3,72.2 552.8,72.4 551.3,72.7 547.1,73.7 
		545,74.1 543.5,74.4 542,74.7 541.2,74.8 540.4,74.9 539.6,75 538.8,75.1 538,75.2 537.2,75.3 536.4,75.3 535.6,75.4 534.7,75.4 
		533.9,75.4 533.1,75.3 532.2,75.3 531.4,75.2 530.6,75.1 529.7,75 528.9,74.9 529,82.9 529,91 529,99 529,107.1 528.7,162.9 
		528.7,180.1 528.7,197.3 528.6,214.5 528.6,231.8 528.6,249 528.7,266.2 528.7,283.4 528.8,300.7 528.9,317.8 529,335 529.1,352.1 
		529.3,369.3 529.4,383.4 529.6,397.5 579.9,397.5 591.8,397.5 597.7,397.4 600.7,397.5 608.5,397.5 610.7,397.5 611.8,397.5 
		612.9,397.5 614.4,397.4 615.9,397.3 617.5,397.2 619.2,397.1 621.4,396.9 622.5,396.8 623.6,396.8 624.7,396.8 625.7,396.8 
		626.7,396.8 627.8,396.8 628.9,396.9 630,397.1 630.7,397.2 631.4,397.3 632.4,397.5 633.4,397.7 635.9,398.2 636.7,398.4 
		637.4,398.5 637.7,398.6 638,398.6 638.3,398.7 638.6,398.7 638.8,398.7 639.1,398.7 639.3,398.7 639.5,398.7 639.6,398.7 
		639.7,398.7 639.9,398.7 640,398.7 640,398.7 640.1,398.7 640.2,398.7 640.3,398.6 640.4,398.6 640.5,398.6 640.5,398.6 
		640.6,398.6 640.7,398.5 640.8,398.5 640.9,398.5 640.9,398.5 641.1,398.4 641.2,398.3 641.4,398.2 641.6,398.1 641.8,398 
		642,397.9 642.2,397.8 642.4,397.6 642.9,397.3 643.5,396.9 644.1,396.4 646.4,394.7 647.1,394.2 647.9,393.6 648.7,393.1 
		649.1,392.8 649.6,392.5 650.1,392.2 650.6,392 651,391.7 651.4,391.5 651.9,391.4 652.3,391.2 652.7,391 653.1,390.8 653.5,390.7 
		654,390.5 654.7,390.3 655.5,390 656.3,389.8 657.1,389.6 658.5,389.3 660.8,388.8 662,388.6 663.2,388.3 664.5,387.9 667.4,387.2 
		669,386.7 670.5,386.4 672,386 672.7,385.9 673.5,385.7 674.3,385.6 675.1,385.5 675.9,385.4 676.7,385.3 677.5,385.3 	"/>
</g>
<g id="HATCH_339_">
	<polygon class="st1" points="735.3,78.9 734.8,85.8 734.3,92.6 733.8,99.4 733.5,102.9 733.3,106.3 733.1,109.7 732.9,113.1 
		732.7,116.6 732.5,120 732.4,123.4 732.3,126.8 732.2,130.3 732.1,133.7 732,136.2 732,138.7 731.9,143.7 731.9,148.7 731.9,153.6 
		732,158.6 732,163.6 732.1,168.6 732.2,173.6 732.4,178.6 732.5,183.7 733.1,203.9 733.2,209 733.4,214 733.5,221.1 733.7,228.2 
		733.8,235.2 733.9,242.3 733.9,249.4 734,256.5 734,263.6 734.1,270.6 734.1,284.8 734.1,298.9 734,327.1 734,344.6 734,362.1 
		734,379.6 734.1,388.3 734.1,397 735.5,396.7 736.9,396.5 738.3,396.2 739.7,395.9 741.1,395.7 742.5,395.5 743.9,395.2 745.3,395 
		746.6,394.8 748,394.7 749.4,394.5 750.8,394.4 752.2,394.2 753.6,394.1 755,394 756.4,393.9 758,393.7 759.6,393.6 761.2,393.6 
		762.7,393.5 764.3,393.4 765.9,393.4 767.5,393.3 769.1,393.3 770.8,393.3 772.6,393.3 776,393.3 779.5,393.3 783,393.4 
		786.4,393.5 789.9,393.6 793.3,393.7 807,394.3 810.5,394.4 813.9,394.5 817.3,394.6 820.6,394.7 824,394.7 827.4,394.7 829,394.7 
		830.7,394.7 832.4,394.7 834,394.6 835.7,394.6 837.4,394.5 839,394.4 840.7,394.3 842.3,394.2 844,394.1 845.6,393.9 847.3,393.8 
		848.9,393.6 850.5,393.4 852,393.2 853.5,393 855,392.8 856.5,392.5 858,392.3 859.4,392 860.9,391.7 862.4,391.4 866.6,390.5 
		868.7,390 870.2,389.7 871.7,389.5 872.5,389.3 873.3,389.2 874.1,389.1 874.9,389 875.7,389 876.5,388.9 877.3,388.8 878.1,388.8 
		879,388.8 879.8,388.8 880.6,388.8 881.5,388.9 882.3,388.9 883.1,389 884,389.2 884.8,389.3 884.8,381.2 884.7,373.2 884.7,365.2 
		884.7,357.1 885,301.3 885,284.1 885.1,266.8 885.1,249.6 885.1,232.4 885.1,215.2 885.1,198 885,180.7 884.9,163.5 884.8,146.4 
		884.7,129.2 884.6,112 884.4,94.9 884.3,80.8 884.1,66.7 833.8,66.7 821.9,66.7 816,66.7 813,66.7 805.2,66.6 803,66.7 801.9,66.7 
		800.8,66.7 799.3,66.8 797.8,66.8 796.2,67 794.5,67.1 792.3,67.3 791.2,67.3 790.1,67.4 789.1,67.4 788,67.4 787,67.4 785.9,67.3 
		784.8,67.2 783.7,67.1 783,67 782.3,66.9 781.3,66.7 780.3,66.5 777.8,65.9 777,65.8 776.4,65.6 776,65.6 775.7,65.5 775.4,65.5 
		775.1,65.5 774.9,65.5 774.6,65.4 774.4,65.4 774.2,65.4 774.1,65.5 774,65.5 773.9,65.5 773.7,65.5 773.7,65.5 773.6,65.5 
		773.5,65.5 773.4,65.5 773.3,65.5 773.2,65.6 773.2,65.6 773.1,65.6 773,65.6 772.9,65.7 772.9,65.7 772.8,65.7 772.6,65.8 
		772.5,65.8 772.3,65.9 772.1,66 771.9,66.1 771.7,66.2 771.5,66.4 771.3,66.5 770.8,66.8 770.2,67.3 769.6,67.7 767.3,69.4 
		766.6,70 765.8,70.5 765,71.1 764.6,71.4 764.1,71.7 763.6,71.9 763.1,72.2 762.7,72.4 762.3,72.6 761.8,72.8 761.4,73 761,73.2 
		760.6,73.3 760.2,73.5 759.7,73.7 759,73.9 758.2,74.1 757.4,74.4 756.6,74.5 755.2,74.9 752.9,75.3 751.7,75.6 750.5,75.9 
		749.2,76.2 746.3,77 744.7,77.4 743.2,77.8 741.7,78.1 741,78.3 740.2,78.4 739.4,78.6 738.6,78.7 737.8,78.8 737,78.8 736.2,78.9 
			"/>
</g>
<g id="HATCH_340_">
	<polygon class="st2" points="126.1,385.2 125.5,378.4 125,371.6 124.5,364.7 124.3,361.3 124.1,357.9 123.9,354.5 123.7,351 
		123.5,347.6 123.3,344.2 123.2,340.8 123,337.3 122.9,333.9 122.8,330.5 122.8,328 122.7,325.5 122.7,320.5 122.7,315.5 
		122.7,310.5 122.7,305.5 122.8,300.6 122.9,295.6 123,290.6 123.1,285.5 123.3,280.5 123.9,260.3 124,255.2 124.1,250.1 
		124.3,243.1 124.4,236 124.5,228.9 124.6,221.8 124.7,214.8 124.8,207.7 124.8,200.6 124.8,193.5 124.9,179.4 124.8,165.3 
		124.8,137 124.8,119.6 124.8,102.1 124.8,84.6 124.8,75.9 124.9,67.1 126.3,67.4 127.7,67.7 129,68 130.4,68.2 131.8,68.5 
		133.2,68.7 134.6,68.9 136,69.1 137.4,69.3 138.8,69.5 140.2,69.7 141.6,69.8 143,70 144.4,70.1 145.8,70.2 147.2,70.3 148.8,70.4 
		150.3,70.5 151.9,70.6 153.5,70.7 155.1,70.8 156.7,70.8 158.3,70.9 159.9,70.9 161.6,70.9 163.3,70.9 166.8,70.9 170.3,70.9 
		173.8,70.8 177.2,70.7 180.6,70.6 184.1,70.5 197.8,69.9 201.2,69.8 204.6,69.6 208,69.6 211.4,69.5 214.8,69.4 218.1,69.4 
		219.8,69.5 221.5,69.5 223.1,69.5 224.8,69.6 226.5,69.6 228.1,69.7 229.8,69.8 231.4,69.9 233.1,70 234.7,70.1 236.4,70.2 
		238,70.4 239.7,70.6 241.3,70.8 242.8,71 244.3,71.2 245.8,71.4 247.3,71.6 248.7,71.9 250.2,72.2 251.7,72.4 253.2,72.7 
		257.3,73.7 259.5,74.1 261,74.4 262.5,74.7 263.3,74.8 264.1,74.9 264.9,75 265.7,75.1 266.5,75.2 267.3,75.3 268.1,75.3 
		268.9,75.4 269.7,75.4 270.6,75.4 271.4,75.3 272.2,75.3 273.1,75.2 273.9,75.1 274.7,75 275.6,74.9 275.5,82.9 275.5,91 275.5,99 
		275.5,107.1 275.7,162.9 275.8,180.1 275.8,197.3 275.8,214.5 275.9,231.8 275.8,249 275.8,266.2 275.8,283.4 275.7,300.7 
		275.6,317.8 275.5,335 275.4,352.1 275.2,369.3 275,383.4 274.9,397.5 224.6,397.5 212.6,397.5 206.7,397.4 203.8,397.5 196,397.5 
		193.8,397.5 192.7,397.5 191.6,397.5 190.1,397.4 188.6,397.3 186.9,397.2 185.3,397.1 183.1,396.9 182,396.8 180.9,396.8 
		179.8,396.8 178.8,396.8 177.7,396.8 176.7,396.8 175.6,396.9 174.5,397.1 173.8,397.2 173,397.3 172,397.5 171.1,397.7 
		168.5,398.2 167.8,398.4 167.1,398.5 166.8,398.6 166.5,398.6 166.2,398.7 165.9,398.7 165.6,398.7 165.4,398.7 165.2,398.7 
		164.9,398.7 164.8,398.7 164.7,398.7 164.6,398.7 164.5,398.7 164.4,398.7 164.3,398.7 164.3,398.7 164.2,398.6 164.1,398.6 
		164,398.6 163.9,398.6 163.8,398.6 163.8,398.5 163.7,398.5 163.6,398.5 163.5,398.5 163.4,398.4 163.3,398.3 163.1,398.2 
		162.9,398.1 162.7,398 162.5,397.9 162.3,397.8 162,397.6 161.6,397.3 161,396.9 160.4,396.4 158.1,394.7 157.3,394.2 156.6,393.6 
		155.8,393.1 155.3,392.8 154.8,392.5 154.3,392.2 153.8,392 153.4,391.7 153,391.5 152.6,391.4 152.2,391.2 151.8,391 151.4,390.8 
		150.9,390.7 150.5,390.5 149.7,390.3 149,390 148.2,389.8 147.4,389.6 146,389.3 143.6,388.8 142.5,388.6 141.2,388.3 139.9,387.9 
		137.1,387.2 135.5,386.7 134,386.4 132.5,386 131.7,385.9 131,385.7 130.2,385.6 129.4,385.5 128.6,385.4 127.7,385.3 126.9,385.3 
			"/>
</g>
<g id="HATCH_341_">
	<path class="st1" d="M321.7,391.8l0.3-0.1l0.3-0.1l0.3-0.1l0.3-0.1l0.3-0.1l0.3-0.1l0.3,0l0.3,0l0.3,0l0.3,0l0.7,0l0.7,0l0.7,0
		l0.7,0l0.7,0l0.7,0.1l0.7,0.1l0.7,0.1l0.7,0.1l0.7,0.1l0.7,0.1l1.3,0.3l1.3,0.3l1.3,0.3l3.9,1.1l1.3,0.3l1.3,0.3l1.2,0.3l1.2,0.3
		l1.2,0.3l0.6,0.1l0.6,0.2l0.6,0.2l0.6,0.2l0.6,0.2l0.6,0.2l0.3,0.1l0.3,0.1l0.3,0.1l0.3,0.1l0.3,0.1l0.3,0.2l0.3,0.2l0.3,0.2
		l0.3,0.2l0.3,0.2l0.6,0.4l0.6,0.4l0.6,0.4l1.2,0.9l1.9,1.4l0.6,0.5l0.6,0.4l0.6,0.4l0.3,0.2l0.3,0.2l0.3,0.2l0.3,0.2l0.3,0.2
		l0.3,0.1l0.3,0.1l0.3,0.1l0.2,0.1l0.2,0.1l0.2,0.1l0.2,0.1l0.2,0.1l0.2,0.1l0.2,0l0.2,0l0.2,0l0.2,0l0.2,0l0.2,0l0.2,0l0.2,0l0.2,0
		l0.2,0l0.4,0l0.4,0l0.4,0l0.4,0l0.4,0l0.4,0l0.4-0.1l0.4-0.1l0.8-0.2l0.8-0.2l3.3-0.7l0.8-0.2l0.8-0.1l0.4-0.1l0.4-0.1l0.9-0.1
		l0.9-0.1l0.9,0l0.9,0l0.9,0l0.9,0l0.9,0l1.7,0.1l3.5,0.3l1.7,0.1l1.7,0.1l1.7,0.1l1.7,0l1.7,0l3.5,0l3.5,0l2.9,0l2.9,0l5.7,0
		l11.7,0l55,0l0.2-13.2l0.2-13.3l0.2-15.2l0.1-15.2l0.1-15.3l0.1-15.3l0.1-15.3l0.1-15.3l0-15.3l0-15.3l0-15.3l0-15.3l0-15.3l0-15.3
		l0-15.3l0-15.3l-0.2-55.2l0-8.2l0-8.1l0-8.1l0-8.1l0.1-8.9l-0.4,0.2l-0.4,0.2l-0.4,0.2l-0.4,0.2l-0.4,0.2l-0.4,0.2l-0.4,0.2
		l-0.4,0.2l-0.4,0.2l-0.4,0.1l-0.4,0.1l-0.4,0.1l-0.4,0.1l-0.4,0.1l-0.4,0.1l-0.4,0.1l-0.4,0.1l-0.4,0.1l-0.4,0.1l-0.4,0.1l-0.4,0
		l-0.4,0l-0.9,0.1l-0.9,0l-0.9,0l-0.9,0l-0.9,0l-0.9-0.1l-0.9-0.1l-0.9-0.1l-0.9-0.1l-0.9-0.1l-0.9-0.2l-1.7-0.3l-1.7-0.4l-3.5-0.8
		l-1.7-0.4l-2.1-0.4l-2.1-0.4l-2.1-0.4l-2.1-0.3l-2.1-0.3l-2.1-0.3l-2.1-0.2l-2.1-0.2l-2.1-0.2l-2.1-0.2l-2.1-0.1l-2.1-0.1l-2.1-0.1
		l-2.1-0.1l-2.1-0.1l-2.1,0l-2.1,0l-2.1,0l-2.1,0l-2.1,0l-2.1,0l-2.1,0l-4.2,0.1l-4.2,0.2L396,64l-8.5,0.4l-4.2,0.2l-4.2,0.1
		l-4.2,0.1l-2.1,0l-2.1,0l-2.1,0l-2.1,0l-2.1,0l-2.1,0l-2.1,0l-2.1-0.1l-2.1-0.1l-2.1-0.1l-2.1-0.1l-2.1-0.1l-2.1-0.2l-2.1-0.2
		l-2.1-0.2l-2.1-0.2l-2.1-0.3l-2.1-0.3l-2.1-0.3l-2.1-0.4l-2.1-0.4l-2.1-0.4l-2.1-0.5l-2.1-0.5l-2.1-0.5l-2.1-0.6l-0.1,9.7l0,9.7
		l0,9.7l0,9.7l0,19.4l0,19.4l0.1,28.3l0,14.1l0,14.1l0,7.1l0,7.1l-0.1,7.1l-0.1,7.1l-0.1,7.1l-0.1,7.1l-0.1,7.1l-0.2,7.1l-0.1,5.1
		l-0.1,5.1l-0.6,20.2l-0.1,5.1l-0.1,5l-0.1,5l-0.1,5l-0.1,5l0,5l0,5l0,5l0.1,5l0,2.5l0.1,2.5l0.1,3.9l0.1,3.9l0.2,3.8l0.2,3.8
		l0.2,3.8l0.2,3.8l0.2,3.8l0.2,3.8l0.3,3.8l0.3,3.8l0.6,7.6l0.6,7.6L321.7,391.8z M327.2,385.2l-0.5-6.8l-0.5-6.8l-0.5-6.8l-0.2-3.4
		l-0.2-3.4l-0.2-3.4l-0.2-3.4l-0.2-3.4l-0.2-3.4l-0.1-3.4l-0.1-3.4l-0.1-3.4l-0.1-3.4l-0.1-2.5l0-2.5l-0.1-5l0-5l0-5l0-5l0.1-5
		l0.1-5l0.1-5l0.1-5.1l0.1-5.1l0.6-20.2l0.1-5.1l0.1-5.1l0.2-7.1l0.1-7.1l0.1-7.1l0.1-7.1l0.1-7.1l0.1-7.1l0-7.1l0-7.1l0-14.1
		l0-14.1l-0.1-28.3l0-17.5l0-17.5l0-17.5l0-8.7l0-8.7l1.4,0.3l1.4,0.3l1.4,0.3l1.4,0.3l1.4,0.2l1.4,0.2l1.4,0.2l1.4,0.2l1.4,0.2
		l1.4,0.2l1.4,0.2l1.4,0.2l1.4,0.1l1.4,0.1l1.4,0.1l1.4,0.1l1.6,0.1l1.6,0.1l1.6,0.1l1.6,0.1l1.6,0.1l1.6,0.1l1.6,0l1.6,0l1.7,0
		l1.7,0l3.5,0l3.5,0l3.5-0.1l3.4-0.1l3.4-0.1l3.4-0.1l13.7-0.6l3.4-0.1l3.4-0.1l3.4-0.1l3.4-0.1l3.4,0l3.3,0l1.7,0l1.7,0l1.7,0
		l1.7,0l1.7,0.1l1.7,0.1l1.7,0.1l1.7,0.1l1.6,0.1l1.6,0.1l1.6,0.1l1.6,0.2l1.6,0.2l1.6,0.2l1.5,0.2l1.5,0.2l1.5,0.2l1.5,0.2l1.5,0.3
		l1.5,0.3l1.5,0.3l1.5,0.3l4.2,0.9l2.2,0.5l1.5,0.3l1.5,0.3l0.8,0.1l0.8,0.1L466,75l0.8,0.1l0.8,0.1l0.8,0.1l0.8,0l0.8,0l0.8,0
		l0.8,0l0.8,0l0.8,0l0.8-0.1l0.8-0.1l0.8-0.1l0.8-0.1l0,8l0,8l0,8l0,8l0.2,55.8l0.1,17.2l0,17.2l0,17.2l0,17.2l0,17.2l0,17.2l0,17.2
		l-0.1,17.2l-0.1,17.2l-0.1,17.2l-0.1,17.2l-0.2,17.2l-0.2,14.1l-0.2,14.1l-50.3,0l-12,0l-5.9,0l-3,0l-7.8,0.1l-2.2,0l-1.1,0l-1.1,0
		l-1.5-0.1l-1.5-0.1l-1.7-0.1l-1.7-0.1l-2.2-0.2l-1.1-0.1l-1.1,0l-1,0l-1,0l-1,0l-1,0l-1.1,0.1l-1.1,0.1l-0.7,0.1l-0.7,0.1l-1,0.2
		l-1,0.2l-2.5,0.6l-0.7,0.2l-0.7,0.1l-0.3,0.1l-0.3,0l-0.3,0l-0.3,0l-0.3,0l-0.3,0l-0.2,0l-0.2,0l-0.1,0l-0.1,0l-0.1,0l-0.1,0
		l-0.1,0l-0.1,0l-0.1,0l-0.1,0l-0.1,0l-0.1,0l-0.1,0l-0.1,0l-0.1,0l-0.1,0l-0.1,0l-0.1,0l-0.1-0.1l-0.1-0.1l-0.2-0.1l-0.2-0.1
		l-0.2-0.1l-0.2-0.1l-0.2-0.1l-0.2-0.2l-0.5-0.3l-0.6-0.4l-0.6-0.4l-2.3-1.7l-0.8-0.6l-0.8-0.5l-0.8-0.5l-0.5-0.3l-0.5-0.3l-0.5-0.3
		L355,392l-0.4-0.2l-0.4-0.2l-0.4-0.2l-0.4-0.2l-0.4-0.2l-0.4-0.2l-0.4-0.2l-0.4-0.2l-0.8-0.3l-0.8-0.2l-0.8-0.2l-0.8-0.2l-1.4-0.3
		l-2.4-0.5l-1.2-0.3l-1.2-0.3l-1.3-0.3l-2.9-0.8l-1.6-0.4l-1.5-0.4l-1.5-0.3l-0.8-0.2l-0.8-0.1l-0.8-0.1l-0.8-0.1l-0.8-0.1l-0.8-0.1
		l-0.8-0.1L327.2,385.2z"/>
</g>
<g id="POLYLINE_565_">
	<polyline class="st0" points="735.3,78.9 734.8,85.8 734.3,92.6 733.8,99.4 733.5,102.9 733.3,106.3 733.1,109.7 732.9,113.1 
		732.7,116.6 732.5,120 732.4,123.4 732.3,126.8 732.2,130.3 732.1,133.7 732,136.2 732,138.7 731.9,143.7 731.9,148.7 731.9,153.6 
		732,158.6 732,163.6 732.1,168.6 732.2,173.6 732.4,178.6 732.5,183.7 733.1,203.9 733.2,209 733.4,214 733.5,221.1 733.7,228.2 
		733.8,235.2 733.9,242.3 733.9,249.4 734,256.5 734,263.6 734.1,270.6 734.1,284.8 734.1,298.9 734,327.1 734,344.6 734,362.1 
		734,379.6 734.1,388.3 734.1,397 735.5,396.7 736.9,396.5 738.3,396.2 739.7,395.9 741.1,395.7 742.5,395.5 743.9,395.2 745.3,395 
		746.6,394.8 748,394.7 749.4,394.5 750.8,394.4 752.2,394.2 753.6,394.1 755,394 756.4,393.9 758,393.7 759.6,393.6 761.2,393.6 
		762.7,393.5 764.3,393.4 765.9,393.4 767.5,393.3 769.1,393.3 770.8,393.3 772.6,393.3 776,393.3 779.5,393.3 783,393.4 
		786.4,393.5 789.9,393.6 793.3,393.7 807,394.3 810.5,394.4 813.9,394.5 817.3,394.6 820.6,394.7 824,394.7 827.4,394.7 829,394.7 
		830.7,394.7 832.4,394.7 834,394.6 835.7,394.6 837.4,394.5 839,394.4 840.7,394.3 842.3,394.2 844,394.1 845.6,393.9 847.3,393.8 
		848.9,393.6 850.5,393.4 852,393.2 853.5,393 855,392.8 856.5,392.5 858,392.3 859.4,392 860.9,391.7 862.4,391.4 866.6,390.5 
		868.7,390 870.2,389.7 871.7,389.5 872.5,389.3 873.3,389.2 874.1,389.1 874.9,389 875.7,389 876.5,388.9 877.3,388.8 878.1,388.8 
		879,388.8 879.8,388.8 880.6,388.8 881.5,388.9 882.3,388.9 883.1,389 884,389.2 884.8,389.3 884.8,381.2 884.7,373.2 884.7,365.2 
		884.7,357.1 885,301.3 885,284.1 885.1,266.8 885.1,249.6 885.1,232.4 885.1,215.2 885.1,198 885,180.7 884.9,163.5 884.8,146.4 
		884.7,129.2 884.6,112 884.4,94.9 884.3,80.8 884.1,66.7 827.8,66.7 816,66.7 813,66.7 805.2,66.6 803,66.7 801.9,66.7 800.8,66.7 
		799.3,66.8 797.8,66.8 796.2,67 794.5,67.1 792.3,67.3 791.2,67.3 790.1,67.4 789.1,67.4 788,67.4 787,67.4 785.9,67.3 784.8,67.2 
		783.7,67.1 783,67 782.3,66.9 781.3,66.7 780.3,66.5 777.8,65.9 777,65.8 776.4,65.6 776,65.6 775.7,65.5 775.4,65.5 775.1,65.5 
		774.9,65.5 774.6,65.4 774.4,65.4 774.2,65.4 774.1,65.5 774,65.5 773.9,65.5 773.7,65.5 773.7,65.5 773.6,65.5 773.5,65.5 
		773.4,65.5 773.3,65.5 773.2,65.6 773.2,65.6 773.1,65.6 773,65.6 772.9,65.7 772.9,65.7 772.8,65.7 772.6,65.8 772.5,65.8 
		772.3,65.9 772.1,66 771.9,66.1 771.7,66.2 771.5,66.4 771.3,66.5 770.8,66.8 770.2,67.3 769.6,67.7 767.3,69.4 766.6,70 
		765.8,70.5 765,71.1 764.6,71.4 764.1,71.7 763.6,71.9 763.1,72.2 762.7,72.4 762.3,72.6 761.8,72.8 761.4,73 761,73.2 760.6,73.3 
		760.2,73.5 759.7,73.7 759,73.9 758.2,74.1 757.4,74.4 756.6,74.5 755.2,74.9 752.9,75.3 751.7,75.6 750.5,75.9 749.2,76.2 
		746.3,77 744.7,77.4 743.2,77.8 741.7,78.1 741,78.3 740.2,78.4 739.4,78.6 738.6,78.7 737.8,78.8 737,78.8 736.2,78.9 735.3,78.9 
			"/>
</g>
<g id="POLYLINE_566_">
	<polyline class="st0" points="678.4,385.2 678.9,378.4 679.5,371.6 679.9,364.7 680.2,361.3 680.4,357.9 680.6,354.5 680.8,351 
		681,347.6 681.2,344.2 681.3,340.8 681.4,337.3 681.6,333.9 681.6,330.5 681.7,328 681.7,325.5 681.8,320.5 681.8,315.5 
		681.8,310.5 681.8,305.5 681.7,300.6 681.6,295.6 681.5,290.6 681.4,285.5 681.2,280.5 680.6,260.3 680.5,255.2 680.3,250.1 
		680.2,243.1 680,236 679.9,228.9 679.8,221.8 679.8,214.8 679.7,207.7 679.7,200.6 679.6,193.5 679.6,179.4 679.6,165.3 679.7,137 
		679.7,119.6 679.7,102.1 679.7,84.6 679.6,75.9 679.6,67.1 678.2,67.4 676.8,67.7 675.4,68 674,68.2 672.6,68.5 671.2,68.7 
		669.8,68.9 668.4,69.1 667.1,69.3 665.7,69.5 664.3,69.7 662.9,69.8 661.5,70 660.1,70.1 658.7,70.2 657.3,70.3 655.7,70.4 
		654.1,70.5 652.6,70.6 651,70.7 649.4,70.8 647.8,70.8 646.2,70.9 644.6,70.9 642.9,70.9 641.1,70.9 637.7,70.9 634.2,70.9 
		630.7,70.8 627.3,70.7 623.8,70.6 620.4,70.5 606.7,69.9 603.2,69.8 599.8,69.6 596.4,69.6 593.1,69.5 589.7,69.4 586.3,69.4 
		584.7,69.5 583,69.5 581.3,69.5 579.7,69.6 578,69.6 576.3,69.7 574.7,69.8 573,69.9 571.4,70 569.7,70.1 568.1,70.2 566.4,70.4 
		564.8,70.6 563.2,70.8 561.7,71 560.2,71.2 558.7,71.4 557.2,71.6 555.7,71.9 554.3,72.2 552.8,72.4 551.3,72.7 547.1,73.7 
		545,74.1 543.5,74.4 542,74.7 541.2,74.8 540.4,74.9 539.6,75 538.8,75.1 538,75.2 537.2,75.3 536.4,75.3 535.6,75.4 534.7,75.4 
		533.9,75.4 533.1,75.3 532.2,75.3 531.4,75.2 530.6,75.1 529.7,75 528.9,74.9 529,82.9 529,91 529,99 529,107.1 528.7,162.9 
		528.7,180.1 528.7,197.3 528.6,214.5 528.6,231.8 528.6,249 528.7,266.2 528.7,283.4 528.8,300.7 528.9,317.8 529,335 529.1,352.1 
		529.3,369.3 529.4,383.4 529.6,397.5 585.9,397.5 597.7,397.4 600.7,397.5 608.5,397.5 610.7,397.5 611.8,397.5 612.9,397.5 
		614.4,397.4 615.9,397.3 617.5,397.2 619.2,397.1 621.4,396.9 622.5,396.8 623.6,396.8 624.7,396.8 625.7,396.8 626.7,396.8 
		627.8,396.8 628.9,396.9 630,397.1 630.7,397.2 631.4,397.3 632.4,397.5 633.4,397.7 635.9,398.2 636.7,398.4 637.4,398.5 
		637.7,398.6 638,398.6 638.3,398.7 638.6,398.7 638.8,398.7 639.1,398.7 639.3,398.7 639.5,398.7 639.6,398.7 639.7,398.7 
		639.9,398.7 640,398.7 640,398.7 640.1,398.7 640.2,398.7 640.3,398.6 640.4,398.6 640.5,398.6 640.5,398.6 640.6,398.6 
		640.7,398.5 640.8,398.5 640.9,398.5 640.9,398.5 641.1,398.4 641.2,398.3 641.4,398.2 641.6,398.1 641.8,398 642,397.9 
		642.2,397.8 642.4,397.6 642.9,397.3 643.5,396.9 644.1,396.4 646.4,394.7 647.1,394.2 647.9,393.6 648.7,393.1 649.1,392.8 
		649.6,392.5 650.1,392.2 650.6,392 651,391.7 651.4,391.5 651.9,391.4 652.3,391.2 652.7,391 653.1,390.8 653.5,390.7 654,390.5 
		654.7,390.3 655.5,390 656.3,389.8 657.1,389.6 658.5,389.3 660.8,388.8 662,388.6 663.2,388.3 664.5,387.9 667.4,387.2 669,386.7 
		670.5,386.4 672,386 672.7,385.9 673.5,385.7 674.3,385.6 675.1,385.5 675.9,385.4 676.7,385.3 677.5,385.3 678.4,385.2 	"/>
</g>
<g id="POLYLINE_567_">
	<polyline class="st0" points="327.2,385.2 326.7,378.4 326.1,371.6 325.6,364.7 325.4,361.3 325.2,357.9 325,354.5 324.8,351 
		324.6,347.6 324.4,344.2 324.3,340.8 324.2,337.3 324,333.9 323.9,330.5 323.9,328 323.9,325.5 323.8,320.5 323.8,315.5 
		323.8,310.5 323.8,305.5 323.9,300.6 324,295.6 324.1,290.6 324.2,285.5 324.4,280.5 325,260.3 325.1,255.2 325.2,250.1 
		325.4,243.1 325.5,236 325.7,228.9 325.8,221.8 325.8,214.8 325.9,207.7 325.9,200.6 326,193.5 326,179.4 326,165.3 325.9,137 
		325.9,119.6 325.9,102.1 325.9,84.6 326,75.9 326,67.1 327.4,67.4 328.8,67.7 330.2,68 331.6,68.2 332.9,68.5 334.3,68.7 
		335.7,68.9 337.1,69.1 338.5,69.3 339.9,69.5 341.3,69.7 342.7,69.8 344.1,70 345.5,70.1 346.9,70.2 348.3,70.3 349.9,70.4 
		351.5,70.5 353,70.6 354.6,70.7 356.2,70.8 357.8,70.8 359.4,70.9 361,70.9 362.7,70.9 364.5,70.9 367.9,70.9 371.4,70.9 
		374.9,70.8 378.3,70.7 381.8,70.6 385.2,70.5 398.9,69.9 402.4,69.8 405.8,69.6 409.1,69.6 412.5,69.5 415.9,69.4 419.3,69.4 
		420.9,69.5 422.6,69.5 424.3,69.5 425.9,69.6 427.6,69.6 429.3,69.7 430.9,69.8 432.6,69.9 434.2,70 435.9,70.1 437.5,70.2 
		439.1,70.4 440.8,70.6 442.4,70.8 443.9,71 445.4,71.2 446.9,71.4 448.4,71.6 449.9,71.9 451.3,72.2 452.8,72.4 454.3,72.7 
		458.5,73.7 460.6,74.1 462.1,74.4 463.6,74.7 464.4,74.8 465.2,74.9 466,75 466.8,75.1 467.6,75.2 468.4,75.3 469.2,75.3 470,75.4 
		470.8,75.4 471.7,75.4 472.5,75.3 473.4,75.3 474.2,75.2 475,75.1 475.9,75 476.7,74.9 476.6,82.9 476.6,91 476.6,99 476.6,107.1 
		476.8,162.9 476.9,180.1 476.9,197.3 477,214.5 477,231.8 477,249 476.9,266.2 476.9,283.4 476.8,300.7 476.7,317.8 476.6,335 
		476.5,352.1 476.3,369.3 476.2,383.4 476,397.5 419.7,397.5 407.9,397.4 404.9,397.5 397.1,397.5 394.9,397.5 393.8,397.5 
		392.7,397.5 391.2,397.4 389.7,397.3 388.1,397.2 386.4,397.1 384.2,396.9 383.1,396.8 382,396.8 380.9,396.8 379.9,396.8 
		378.9,396.8 377.8,396.8 376.7,396.9 375.6,397.1 374.9,397.2 374.2,397.3 373.2,397.5 372.2,397.7 369.6,398.2 368.9,398.4 
		368.2,398.5 367.9,398.6 367.6,398.6 367.3,398.7 367,398.7 366.8,398.7 366.5,398.7 366.3,398.7 366.1,398.7 366,398.7 
		365.8,398.7 365.7,398.7 365.6,398.7 365.6,398.7 365.5,398.7 365.4,398.7 365.3,398.6 365.2,398.6 365.1,398.6 365,398.6 
		365,398.6 364.9,398.5 364.8,398.5 364.7,398.5 364.7,398.5 364.5,398.4 364.4,398.3 364.2,398.2 364,398.1 363.8,398 363.6,397.9 
		363.4,397.8 363.2,397.6 362.7,397.3 362.1,396.9 361.5,396.4 359.2,394.7 358.4,394.2 357.7,393.6 356.9,393.1 356.4,392.8 
		356,392.5 355.5,392.2 355,392 354.6,391.7 354.1,391.5 353.7,391.4 353.3,391.2 352.9,391 352.5,390.8 352,390.7 351.6,390.5 
		350.9,390.3 350.1,390 349.3,389.8 348.5,389.6 347.1,389.3 344.7,388.8 343.6,388.6 342.4,388.3 341.1,387.9 338.2,387.2 
		336.6,386.7 335.1,386.4 333.6,386 332.9,385.9 332.1,385.7 331.3,385.6 330.5,385.5 329.7,385.4 328.9,385.3 328,385.3 
		327.2,385.2 	"/>
</g>
<g id="HATCH_342_">
	<path class="st2" d="M120.6,391.8l-0.6-7.6l-0.6-7.6l-0.6-7.6l-0.3-3.8l-0.3-3.8l-0.2-3.8l-0.2-3.8l-0.2-3.8l-0.2-3.8l-0.2-3.8
		l-0.2-3.8l-0.1-3.9l-0.1-3.9l-0.1-2.5l0-2.5l-0.1-5l0-5l0-5l0-5l0.1-5l0.1-5l0.1-5l0.1-5l0.1-5.1l0.6-20.2l0.1-5.1l0.1-5.1l0.2-7.1
		l0.1-7.1l0.1-7.1l0.1-7.1l0.1-7.1l0.1-7.1l0-7.1l0-7.1l0-14.1l0-14.1l-0.1-28.3l0-19.4l0-19.4l0-9.7l0-9.7l0-9.7l0.1-9.7L121,60
		l2.1,0.5l2.1,0.5l2.1,0.5l2.1,0.4l2.1,0.4l2.1,0.4l2.1,0.3l2.1,0.3l2.1,0.3l2.1,0.2l2.1,0.2l2.1,0.2l2.1,0.2l2.1,0.1l2.1,0.1
		l2.1,0.1l2.1,0.1l2.1,0.1l2.1,0l2.1,0l2.1,0l2.1,0l2.1,0l2.1,0l2.1,0l4.2-0.1l4.2-0.1l4.2-0.2l8.5-0.4l4.2-0.2l4.2-0.2l4.2-0.1
		l2.1,0l2.1,0l2.1,0l2.1,0l2.1,0l2.1,0l2.1,0l2.1,0.1l2.1,0.1l2.1,0.1l2.1,0.1l2.1,0.1l2.1,0.2l2.1,0.2l2.1,0.2l2.1,0.2l2.1,0.3
		l2.1,0.3l2.1,0.3l2.1,0.4l2.1,0.4l2.1,0.4l1.7,0.4l3.5,0.8l1.7,0.4l1.7,0.3l0.9,0.2l0.9,0.1l0.9,0.1l0.9,0.1l0.9,0.1l0.9,0.1l0.9,0
		l0.9,0l0.9,0l0.9,0l0.9-0.1l0.4,0l0.4,0l0.4-0.1l0.4-0.1l0.4-0.1l0.4-0.1l0.4-0.1l0.4-0.1l0.4-0.1l0.4-0.1l0.4-0.1l0.4-0.1l0.4-0.1
		l0.4-0.2l0.4-0.2l0.4-0.2l0.4-0.2l0.4-0.2l0.4-0.2l0.4-0.2l0.4-0.2l0.4-0.2l0,0.9l-0.1,8l0,8.1l0,8.1l0,8.1l0,8.2l0,8.2l0.2,47
		l0,15.3l0,15.3l0,15.3l0,15.3l0,15.3l0,15.3l0,15.3l0,15.3l-0.1,15.3l-0.1,15.3l-0.1,15.3l-0.1,15.3l-0.1,15.2l-0.2,15.2l-0.2,13.3
		l-0.2,13.2H259l-39.1,0l-5.9,0l-5.7,0l-2.9,0l-2.9,0l-3.5,0l-3.5,0l-1.7,0l-1.7,0l-1.7-0.1l-1.7-0.1l-1.7-0.1l-3.5-0.3l-1.7-0.1
		l-0.9,0l-0.9,0l-0.9,0l-0.9,0l-0.9,0l-0.9,0.1l-0.9,0.1l-0.4,0.1l-0.4,0.1l-0.8,0.1l-0.8,0.2l-3.3,0.7l-0.8,0.2l-0.8,0.2l-0.4,0.1
		l-0.4,0.1l-0.4,0l-0.4,0l-0.4,0l-0.4,0l-0.4,0l-0.4,0l-0.2,0l-0.2,0l-0.2,0l-0.2,0l-0.2,0l-0.2,0l-0.2,0l-0.2,0l-0.2,0l-0.2,0
		l-0.2-0.1l-0.2-0.1l-0.2-0.1l-0.2-0.1l-0.2-0.1l-0.2-0.1l-0.3-0.1l-0.3-0.1l-0.3-0.1l-0.3-0.2l-0.3-0.2l-0.3-0.2l-0.3-0.2l-0.3-0.2
		l-0.6-0.4l-0.6-0.4l-0.6-0.5l-3.1-2.3l-0.6-0.4l-0.6-0.4l-0.6-0.4l-0.3-0.2l-0.3-0.2l-0.3-0.2l-0.3-0.2l-0.3-0.2l-0.3-0.1l-0.3-0.1
		l-0.3-0.1l-0.3-0.1l-0.3-0.1l-0.6-0.2l-0.6-0.2l-0.6-0.2l-0.6-0.2l-0.6-0.2l-0.6-0.1l-1.2-0.3l-1.2-0.3l-1.2-0.3l-1.3-0.3l-1.3-0.3
		l-3.9-1.1l-1.3-0.3l-1.3-0.3l-1.3-0.3l-0.7-0.1l-0.7-0.1l-0.7-0.1l-0.7-0.1l-0.7-0.1l-0.7-0.1l-0.7,0l-0.7,0l-0.7,0l-0.7,0l-0.7,0
		l-0.3,0l-0.3,0l-0.3,0l-0.3,0l-0.3,0.1l-0.3,0.1l-0.3,0.1l-0.3,0.1l-0.3,0.1L120.6,391.8z M126.1,385.2l0.8,0l0.8,0.1l0.8,0.1
		l0.8,0.1l0.8,0.1l0.8,0.1l0.8,0.1l0.8,0.2l1.5,0.3l1.5,0.4l1.6,0.4l2.9,0.8l1.3,0.3l1.2,0.3l1.2,0.3l2.4,0.5l1.4,0.3l0.8,0.2
		l0.8,0.2l0.8,0.2l0.8,0.3l0.4,0.2l0.4,0.2l0.4,0.2l0.4,0.2l0.4,0.2l0.4,0.2l0.4,0.2l0.4,0.2l0.5,0.3l0.5,0.3l0.5,0.3l0.5,0.3
		l0.8,0.5l0.8,0.5l0.8,0.6l2.3,1.7l0.6,0.4l0.6,0.4l0.5,0.3l0.2,0.2l0.2,0.1l0.2,0.1l0.2,0.1l0.2,0.1l0.2,0.1l0.1,0.1l0.1,0.1l0.1,0
		l0.1,0l0.1,0l0.1,0l0.1,0l0.1,0l0.1,0l0.1,0l0.1,0l0.1,0l0.1,0l0.1,0l0.1,0l0.1,0l0.1,0l0.1,0l0.2,0l0.2,0l0.3,0l0.3,0l0.3,0l0.3,0
		l0.3,0l0.3-0.1l0.7-0.1l0.7-0.2l2.5-0.6l1-0.2l1-0.2l0.7-0.1l0.7-0.1l1.1-0.1l1.1-0.1l1,0l1,0l1,0l1,0l1.1,0l1.1,0.1l2.2,0.2
		l1.7,0.1l1.7,0.1l1.5,0.1l1.5,0.1l1.1,0l1.1,0l2.2,0l7.8-0.1l3,0l11.9,0l56.3,0l0.2-14.1l0.2-14.1l0.2-17.2l0.1-17.2l0.1-17.2
		l0.1-17.2l0.1-17.2l0-17.2l0-17.2l0-17.2l0-17.2l0-17.2l0-17.2l-0.1-17.2l-0.2-55.8l0-8l0-8l0-8l0-8l-0.8,0.1l-0.8,0.1l-0.8,0.1
		l-0.8,0.1l-0.8,0l-0.8,0l-0.8,0l-0.8,0l-0.8,0l-0.8,0l-0.8-0.1l-0.8-0.1l-0.8-0.1l-0.8-0.1l-0.8-0.1l-0.8-0.1l-1.5-0.3l-1.5-0.3
		l-2.2-0.5l-4.2-0.9l-1.5-0.3l-1.5-0.3l-1.5-0.3l-1.5-0.3l-1.5-0.2l-1.5-0.2l-1.5-0.2l-1.5-0.2l-1.6-0.2l-1.6-0.2l-1.6-0.2l-1.6-0.1
		l-1.6-0.1l-1.6-0.1l-1.7-0.1l-1.7-0.1l-1.7-0.1l-1.7-0.1l-1.7,0l-1.7,0l-1.7,0l-1.7,0l-3.3,0l-3.4,0l-3.4,0.1l-3.4,0.1l-3.4,0.1
		l-3.4,0.1l-13.7,0.6l-3.4,0.1l-3.4,0.1l-3.4,0.1l-3.5,0.1l-3.5,0l-3.5,0l-1.7,0l-1.7,0l-1.6,0l-1.6,0l-1.6-0.1l-1.6-0.1l-1.6-0.1
		l-1.6-0.1l-1.6-0.1l-1.6-0.1l-1.4-0.1l-1.4-0.1L143,70l-1.4-0.1l-1.4-0.2l-1.4-0.2l-1.4-0.2l-1.4-0.2l-1.4-0.2l-1.4-0.2l-1.4-0.2
		l-1.4-0.2L129,68l-1.4-0.3l-1.4-0.3l-1.4-0.3l0,8.7l0,8.7l0,17.5l0,17.5l0,17.5l0.1,28.3l0,14.1l0,14.1l0,7.1l0,7.1l-0.1,7.1
		l-0.1,7.1l-0.1,7.1l-0.1,7.1l-0.1,7.1l-0.2,7.1l-0.1,5.1l-0.1,5.1l-0.6,20.2l-0.1,5.1l-0.1,5.1l-0.1,5l-0.1,5l-0.1,5l0,5l0,5l0,5
		l0.1,5l0,2.5l0.1,2.5l0.1,3.4l0.1,3.4l0.1,3.4l0.1,3.4l0.2,3.4l0.2,3.4l0.2,3.4l0.2,3.4l0.2,3.4l0.2,3.4l0.5,6.8l0.5,6.8
		L126.1,385.2z"/>
</g>
<g id="POLYLINE_568_">
	<polyline class="st3" points="126.1,385.2 125.5,378.4 125,371.6 124.5,364.7 124.3,361.3 124.1,357.9 123.9,354.5 123.7,351 
		123.5,347.6 123.3,344.2 123.2,340.8 123,337.3 122.9,333.9 122.8,330.5 122.8,328 122.7,325.5 122.7,320.5 122.7,315.5 
		122.7,310.5 122.7,305.5 122.8,300.6 122.9,295.6 123,290.6 123.1,285.5 123.3,280.5 123.9,260.3 124,255.2 124.1,250.1 
		124.3,243.1 124.4,236 124.5,228.9 124.6,221.8 124.7,214.8 124.8,207.7 124.8,200.6 124.8,193.5 124.9,179.4 124.8,165.3 
		124.8,137 124.8,119.6 124.8,102.1 124.8,84.6 124.8,75.9 124.9,67.1 126.3,67.4 127.7,67.7 129,68 130.4,68.2 131.8,68.5 
		133.2,68.7 134.6,68.9 136,69.1 137.4,69.3 138.8,69.5 140.2,69.7 141.6,69.8 143,70 144.4,70.1 145.8,70.2 147.2,70.3 148.8,70.4 
		150.3,70.5 151.9,70.6 153.5,70.7 155.1,70.8 156.7,70.8 158.3,70.9 159.9,70.9 161.6,70.9 163.3,70.9 166.8,70.9 170.3,70.9 
		173.8,70.8 177.2,70.7 180.6,70.6 184.1,70.5 197.8,69.9 201.2,69.8 204.6,69.6 208,69.6 211.4,69.5 214.8,69.4 218.1,69.4 
		219.8,69.5 221.5,69.5 223.1,69.5 224.8,69.6 226.5,69.6 228.1,69.7 229.8,69.8 231.4,69.9 233.1,70 234.7,70.1 236.4,70.2 
		238,70.4 239.7,70.6 241.3,70.8 242.8,71 244.3,71.2 245.8,71.4 247.3,71.6 248.7,71.9 250.2,72.2 251.7,72.4 253.2,72.7 
		257.3,73.7 259.5,74.1 261,74.4 262.5,74.7 263.3,74.8 264.1,74.9 264.9,75 265.7,75.1 266.5,75.2 267.3,75.3 268.1,75.3 
		268.9,75.4 269.7,75.4 270.6,75.4 271.4,75.3 272.2,75.3 273.1,75.2 273.9,75.1 274.7,75 275.6,74.9 275.5,82.9 275.5,91 275.5,99 
		275.5,107.1 275.7,162.9 275.8,180.1 275.8,197.3 275.8,214.5 275.9,231.8 275.8,249 275.8,266.2 275.8,283.4 275.7,300.7 
		275.6,317.8 275.5,335 275.4,352.1 275.2,369.3 275,383.4 274.9,397.5 218.6,397.5 206.7,397.4 203.8,397.5 196,397.5 193.8,397.5 
		192.7,397.5 191.6,397.5 190.1,397.4 188.6,397.3 186.9,397.2 185.3,397.1 183.1,396.9 182,396.8 180.9,396.8 179.8,396.8 
		178.8,396.8 177.7,396.8 176.7,396.8 175.6,396.9 174.5,397.1 173.8,397.2 173,397.3 172,397.5 171.1,397.7 168.5,398.2 
		167.8,398.4 167.1,398.5 166.8,398.6 166.5,398.6 166.2,398.7 165.9,398.7 165.6,398.7 165.4,398.7 165.2,398.7 164.9,398.7 
		164.8,398.7 164.7,398.7 164.6,398.7 164.5,398.7 164.4,398.7 164.3,398.7 164.3,398.7 164.2,398.6 164.1,398.6 164,398.6 
		163.9,398.6 163.8,398.6 163.8,398.5 163.7,398.5 163.6,398.5 163.5,398.5 163.4,398.4 163.3,398.3 163.1,398.2 162.9,398.1 
		162.7,398 162.5,397.9 162.3,397.8 162,397.6 161.6,397.3 161,396.9 160.4,396.4 158.1,394.7 157.3,394.2 156.6,393.6 155.8,393.1 
		155.3,392.8 154.8,392.5 154.3,392.2 153.8,392 153.4,391.7 153,391.5 152.6,391.4 152.2,391.2 151.8,391 151.4,390.8 150.9,390.7 
		150.5,390.5 149.7,390.3 149,390 148.2,389.8 147.4,389.6 146,389.3 143.6,388.8 142.5,388.6 141.2,388.3 139.9,387.9 137.1,387.2 
		135.5,386.7 134,386.4 132.5,386 131.7,385.9 131,385.7 130.2,385.6 129.4,385.5 128.6,385.4 127.7,385.3 126.9,385.3 126.1,385.2 
			"/>
</g>
<g id="HATCH_343_">
	<path class="st1" d="M43.9,166.7l-2.7,0.1l-3,0.1l-3,0.1l-1.5,0l-1.5,0l-1.5,0l-1.5,0l-1.4,0l-1.4,0l-1.4-0.1l-1.4-0.1l-1.4-0.1
		l-1.4-0.1l-1.4-0.1l-1.4-0.2L0.4,164l0.9,18l0.1,1.2l0,1.2l0,1.2l0,1.2l0,2.7l0,2.7l0,2.9L1.2,205l-0.1,5.5l-0.1,5.5l0,5.6l0,5.6
		l0,5.6l0,5.6l0.1,5.6l0.1,5.6l0.1,5.6l0.2,5.6l0.2,4.9l0.2,4.9l0.1,2.4l0.1,2.5l0.2,2.5l0.9,14l14.1,0l35.2,0l0,5.5l0,5.5
		l-0.1,10.9l-0.2,25.6l-0.1,8.5L52,359l0,5.6l0,5.6l0,5.6l0,5.6l0,5.6l0,5.6l0.1,5.6l0.1,5.6l0.1,5.6l0.1,5.6l0.1,5.6l0.1,5.6
		l0.1,5.6l0.2,5.6l0.5,15.5l15.5-1L74,452l5.1-0.3l10.1-0.6l10.1-0.6l10.1-0.5l10.1-0.5l10.1-0.5l10.1-0.4l10.2-0.4l10.3-0.4
		l10.3-0.3l10.3-0.3l10.3-0.3l10.3-0.2l10.3-0.2l10.3-0.2l10.3-0.2l10.3-0.1l10.3-0.1l10.3-0.1l10.3-0.1l10.3-0.1l10.3,0l10.3,0
		l10.3,0l10.3,0l10.3,0l10.3,0l10.3,0l20.5,0.1l20.5,0.2l20.6,0.2l61.8,0.6l20.6,0.2l20.6,0.2l20.6,0.1l10.3,0.1l10.3,0l10.3,0
		l10.3,0l10.3,0l10.3,0l10.3,0l10.3-0.1l10.3-0.1l10.3-0.1l10.3-0.1l10.3-0.1l10.3-0.2l10.3-0.2l10.3-0.2l10.3-0.2l10.3-0.3
		l10.3-0.3l10.2-0.3l10.2-0.3l10.2-0.4l10.2-0.4l9.5-0.4l9.5-0.4l8.6-0.4L811,442l8.4-0.4l8.4-0.4l4.4-0.2l4.4-0.2l4.4-0.2l4.4-0.1
		l4.5-0.1l4.5-0.1l4.5-0.1l4.5,0l4.1,0l4.1,0l4.1,0l4.1,0.1l4.1,0.1l4.1,0.1l4.1,0.2l4.1,0.2l4.1,0.2l4.1,0.3l4.1,0.3l2,0.2l2,0.2
		l2,0.2l2,0.2l2,0.2l2,0.2l2,0.2l2,0.2l2,0.3l2,0.3l17.9,2.4l-0.9-18l-0.1-2.7l-0.1-2.7l-0.1-2.7l-0.1-2.7l-0.1-3.1l-0.1-3.1
		l-0.1-3.1l0-3.1l0-3.1l0-3.1l0-3.1l0-3.1l0-6.2l0.1-6.2l0.1-6.3l0.1-6.3l0.6-30.5l0.2-11.5l0.2-11.9l0.2-11.9l0.1-11.9l0.1-11.9
		l0.1-11.9l0.1-11.9l0.1-11.9l0-11.9l0-11.9l0-11.9l-0.1-11.9l-0.1-11.9l-0.1-11.9l-0.2-11.9l-0.2-11.9l-0.2-11.9l-0.3-11.9
		l-0.2-5.9l-0.2-5.9l-0.2-5.9l-0.2-5.9l-0.2-5.9l-0.2-5.9L944.3,78l-0.4-10.3l-0.4-10.3l-0.5-10.3l-0.3-5.2l-0.3-5.2l-0.3-5.2
		l-0.3-5.2l-0.3-5.2l-0.3-5.2l-0.9-14l-14.1,0l-303.6,0l-40.6,0l-39.6,0l-19.7,0l-10.8,0l-22.8-0.1l-12,0l-12,0l-6,0l-6,0l-6,0
		l-6,0.1l-6,0.1l-6,0.1l-17.9,0.3l-6,0.1l-6.6,0.1l-6.6,0l-3.3,0l-3.3,0l-3.3,0l-3.3,0l-2.9,0l-2.9-0.1l-2.9-0.1l-2.9-0.1l-3.6-0.1
		l-3.6-0.1l-4-0.2l-4-0.2l-8-0.4L337,1.1l-3.3-0.2l-3.3-0.1l-3-0.1l-3-0.1l-3-0.1l-3-0.1l-3,0l-3,0l-3,0l-3,0l-3,0.1l-3,0.1
		l-1.5,0.1l-1.5,0.1l-1.5,0.1L294.7,1l-2.5,0.2l-2.5,0.2l-2.5,0.3L284.8,2l-2.3,0.3l-2.3,0.3L278,2.9l-2.3,0.3l-3.9,0.6L268,4.5
		l-3.9,0.7l-7.8,1.4l-3.9,0.7l-3.9,0.7l-3.9,0.6l-2,0.3l-2,0.3l-2,0.3l-2,0.3l-2,0.2l-2,0.2l-2,0.2l-2,0.2l-2,0.2l-2,0.2l-4,0.3
		l-4.3,0.3l-4.3,0.3l-4.3,0.2l-4.3,0.2l-14.1,0.7l-4.6,0.2l-4.6,0.3l-4.5,0.3l-4.5,0.3L154,14.8l-7.8,0.5l-3.9,0.2l-3.9,0.2
		l-3.9,0.2l-3.9,0.2l-4.4,0.2l-4.4,0.2l-4.4,0.1l-4.4,0.1l-4.4,0.1l-4.4,0l-2.2,0l-2.2,0l-2.2,0l-2.2,0l-2.2,0l-2.2-0.1l-2.2-0.1
		l-2.2-0.1l-2.2-0.1l-2.2-0.1L80,16.3l-2.2-0.1l-11.3-0.7l-3.8,10.6l-2.2,6.3l-2.2,6.3l-1.1,3.1L56.1,45l-1.1,3.2l-1,3.2l-0.7,2.3
		l-0.7,2.3l-0.7,2.3l-0.7,2.3l-0.7,2.3L49.8,65l-0.6,2.3l-0.6,2.3L47.9,72l-0.6,2.3l-0.6,2.3L46.2,79l-0.5,2.4l-0.5,2.4l-0.5,2.4
		l-0.5,2.4l-0.4,2.4l-0.4,2.4L43,95.7l-0.3,2.4l-0.3,2.1l-0.3,2.1l-0.2,2.1l-0.2,2.1l-0.1,1.6l-0.1,1.6l-0.1,1.6l-0.1,1.6l-0.1,1.6
		l-0.1,1.6l-0.1,1.6l0,1.6l0,1.6l0,1.6l0,1.6l0,1.6l0,1.6l0,1.6l0.1,3.1l0.1,3l0.1,3l0.2,3l0.2,3l0.2,3l0.3,3l0.3,3l0.3,3l0.3,2.7
		l0.3,2.7l0.3,2.7L43.9,166.7z M45.7,181.6l1.2,9.6l0.5,3.9L48,199l0.5,3.9l0.4,3.7l0.4,3.7l0.4,3.7l0.3,3.7l0.3,4l0.3,4l0.3,4
		l0.3,4l0.2,4l0.2,4l0.2,4l0.2,4l0.1,3.4l0.1,3.4l0.1,3.4l0.1,3.4l0.1,3.4l0.1,3.4l0,3.4l0,3.4l-8.4,0H17.3l-0.2-3.8l-0.2-3.8
		l-0.2-4.3l-0.2-4.3l-0.1-4.3l-0.1-4.3l-0.1-4.3l-0.1-4.3l-0.1-4.3l0-4.3l0-4.3l0-4.3l0-4.3l0-4.3l0-4.3l0.1-4.3l0.1-4.3l0.2-9
		l0-2.3l0-2.3l0-2.3l0-2.3l-0.1-2.3l-0.1-2.5l1.8,0.2l1.8,0.2l1.8,0.2l1.8,0.1l1.8,0.1l1.8,0.1l1.8,0l1.8,0l1.8,0l1.8,0l1.8,0
		l1.8-0.1l3.7-0.2L45.7,181.6z M76.9,31.1l3.5,0.2l3.5,0.2l3.5,0.1l3.5,0.1l3.5,0.1l3.5,0l3.5,0l3.5,0l3.5,0l3.5-0.1l3.5-0.1
		l3.5-0.1l3.5-0.1l3.5-0.1l3.5-0.1l3.5-0.2l3.5-0.2l3.5-0.2l7-0.4l7-0.4l20.9-1.3l7-0.4l7-0.4l6.5-0.3l6.5-0.3l6.5-0.3l3.3-0.2
		l3.3-0.2l3.3-0.2l3.3-0.2l3.3-0.2l3.2-0.3l3.2-0.3l3.2-0.3l3.2-0.4l1.6-0.2l1.6-0.2l1.7-0.2l1.7-0.2l3.3-0.5l3.3-0.5l3.3-0.5
		l3.3-0.6l9.9-1.7l3.3-0.6l3.3-0.6l3.3-0.5l3.3-0.5l3.3-0.5l1.7-0.2l1.7-0.2l1.7-0.2l1.7-0.2l1.7-0.2l1.7-0.2l2.2-0.2l2.2-0.2
		l2.2-0.1l2.2-0.1l2.2-0.1l2.2-0.1l2.2,0l2.2,0l2.2,0l2.2,0l2.2,0l2.2,0l2.2,0l2.2,0.1l4.4,0.2l4.4,0.2l4.4,0.2l13.2,0.7l4.4,0.2
		l4.4,0.2l4.4,0.2l4.7,0.1l4.6,0.1l4.6,0.1l4.6,0l4.6,0l4.6,0l4.6,0l4.6,0l4.6-0.1l4.6-0.1l18.5-0.3l9.2-0.1l4.6-0.1l4.6,0l9.3-0.1
		l9.3,0l9.3,0l9.3,0l27.8,0.1l15.2,0l15.2,0l30.4,0l31.1,0l322.8,0l0.3,4l0.2,4l0.5,8.1l0.4,8.1l0.4,8.1l0.4,9.3l0.4,9.3l0.4,9.3
		l0.3,9.3l0.3,9.3l0.3,9.3l0.3,9.3l0.2,9.3l0.2,9.3l0.2,9.3l0.2,9.4l0.1,9.4l0.1,9.4l0.1,9.4l0.1,9.4l0.1,9.4l0,9.4l0,9.4l0,9.4
		l0,9.4l0,9.4l0,9.4l-0.1,9.4l-0.1,9.4l-0.1,9.4l-0.1,9.4l-0.1,9.3l-0.1,9.3l-0.1,9.3l-0.2,9.3l-0.2,9.3l-0.4,19.4l-0.2,10l-0.1,5
		l-0.1,5l-0.1,5l0,5l0,5l0,5l0,5l0.1,4.9l0.1,4.9l0.1,4.9l0.1,2.5l0.1,2.4l0.1,2.4l0.2,3.5l-2.3-0.3l-2.3-0.3l-2.3-0.3l-2.3-0.3
		l-2.3-0.2l-2.3-0.2l-2.3-0.2l-2.3-0.2l-2.3-0.2l-2.3-0.2l-2.3-0.2l-2.3-0.2l-2.3-0.1l-2.3-0.1l-2.3-0.1l-2.3-0.1l-2.3-0.1l-2.3-0.1
		l-4.6-0.1l-4.6-0.1l-4.6-0.1l-4.6,0l-4.6,0l-4.6,0l-4.6,0.1l-4.6,0.1l-4.6,0.1l-4.6,0.1l-4.6,0.2l-4.6,0.2l-4.6,0.2l-4.6,0.2
		l-4.6,0.2l-9.2,0.4l-18.4,0.9l-9.2,0.5l-5.6,0.3l-5.6,0.3l-5.6,0.2l-5.6,0.2l-11.2,0.4l-11.2,0.4l-11.2,0.4l-11.2,0.3l-11.2,0.3
		l-11.2,0.3l-11.2,0.2l-11.2,0.2l-11.2,0.2l-11.2,0.1l-11.2,0.1l-11.2,0.1l-11.2,0.1l-11.2,0l-11.2,0l-11.2,0l-11.2,0l-11.2,0
		l-11.2,0l-11.2-0.1l-11.2-0.1l-11.2-0.1l-22.4-0.2l-22.4-0.2l-44.8-0.4l-22.4-0.2l-22.4-0.2l-11.2-0.1l-11.2-0.1l-11.2-0.1l-11.2,0
		l-11.2,0l-11.2,0l-11.2,0l-11.2,0l-11.2,0l-11.2,0.1l-11.2,0.1l-11.2,0.1l-11.2,0.1l-11.2,0.2l-11.2,0.2l-11.2,0.2l-11.2,0.3
		l-11.2,0.3l-11.2,0.3l-11.2,0.4l-11.2,0.4l-5.6,0.2l-5.6,0.2l-5.6,0.2l-5.6,0.2l-5.6,0.3l-5.6,0.3l-5.6,0.3l-5.6,0.3l-5.6,0.3
		l-5.6,0.3l-5.6,0.3l-5.6,0.3l-5.6,0.3l-5.6,0.4l-0.2-5.9l-0.1-5.9l-0.1-5.9l-0.1-5.9l-0.1-5.9l-0.1-5.9l-0.1-5.9l-0.1-5.9l0-5.9
		l0-5.9l0-5.9l0-5.9l0-5.9l0-5.9l0.1-11.8l0.3-34.5l0-8.6l0-8.6l0-4.3l0-4.3l0-4.3l0-4.3l-0.1-4.3l-0.1-4.3l-0.1-4.3l-0.1-4.3
		l-0.1-4.3l-0.2-4.3l-0.2-4.3l-0.2-4.3l-0.2-4.3l-0.3-4.3l-0.3-4.3l-0.3-4.3l-0.3-4.3l-0.4-4.3l-0.4-4.3l-0.4-4.3l-0.3-3.1l-0.4-3.1
		l-0.4-3.1l-0.4-3.1l-0.8-6.2l-1.6-12.4l-0.8-6.2l-0.4-3.1l-0.4-3.1l-0.3-3.1l-0.3-3.1l-0.3-3.1l-0.3-3.1l-0.3-3.1l-0.2-3.1
		l-0.2-3.1l-0.2-3.1l-0.1-3.1l-0.1-3.1l0-1.5l0-1.5l0-1.5l0-1.5l0-1.5l0-1.5l0-1.5l0-1.5l0.1-1.5l0.1-1.5l0.1-1.5l0.1-1.5l0.1-1.5
		l0.1-1.5l0.1-1.5l0.1-1.5l0.3-2.4l0.3-2.4l0.3-2.4l0.4-2.4l0.4-2.4l0.4-2.4l0.5-2.3l0.5-2.3l0.5-2.3l0.5-2.3l0.6-2.3l0.6-2.3
		l0.6-2.3l0.6-2.3l0.6-2.3l0.7-2.3l0.7-2.3l0.7-2.3l0.7-2.3l0.7-2.3l0.7-2.3l0.8-2.3l0.8-2.3l0.8-2.3l1.6-4.7l1.6-4.7l1.6-4.6
		L76.9,31.1z"/>
</g>
<g id="POLYLINE_569_">
	<polyline class="st0" points="45.7,181.6 42.1,181.8 38.4,181.9 36.5,182 34.7,182.1 32.8,182.1 31,182.1 29.2,182.1 27.3,182.1 
		25.5,182 23.6,181.9 21.8,181.8 20,181.7 18.1,181.5 16.3,181.2 16.4,183.7 16.4,186 16.5,188.3 16.5,190.6 16.4,193 16.4,195.3 
		16.2,204.3 16.2,208.6 16.1,213 16.1,217.3 16,221.6 16,226 16,230.3 16,234.7 16.1,239 16.1,243.4 16.2,247.7 16.3,252 
		16.4,256.4 16.6,260.7 16.7,265 16.9,269.3 17.1,273.1 17.3,276.8 52.4,276.8 52.4,273.4 52.3,270 52.3,266.5 52.2,263.1 
		52.1,259.7 52,256.3 51.9,252.8 51.8,249.4 51.6,245.4 51.5,241.4 51.3,237.4 51,233.4 50.8,229.4 50.5,225.5 50.2,221.5 
		49.9,217.5 49.5,213.8 49.2,210.2 48.8,206.5 48.4,202.9 48,199 47.5,195.1 47,191.2 45.7,181.6 	"/>
</g>
<g id="POLYLINE_570_">
	<polyline class="st0" points="43.9,166.7 41.1,166.8 38.1,166.9 35.2,167 33.7,167.1 32.2,167.1 30.7,167.1 29.2,167.1 27.8,167.1 
		26.5,167 25.1,167 23.7,166.9 22.4,166.8 21,166.7 19.6,166.5 18.3,166.4 0.4,164 1.3,182 1.3,183.2 1.4,184.4 1.4,185.7 
		1.4,186.9 1.5,189.6 1.4,192.4 1.4,195.2 1.2,205 1.1,210.5 1.1,216.1 1,221.6 1,227.2 1,232.8 1.1,238.4 1.1,243.9 1.2,249.5 
		1.4,255.1 1.5,260.7 1.7,265.6 2,270.4 2.1,272.9 2.2,275.3 2.4,277.8 3.3,291.8 17.3,291.8 52.5,291.8 52.5,297.3 52.5,302.7 
		52.4,313.7 52.1,339.2 52.1,347.8 52,359 52,364.7 52,370.3 52,375.9 52,381.5 52,387.2 52.1,392.8 52.1,398.4 52.2,404 
		52.3,409.7 52.4,415.3 52.5,420.9 52.6,426.5 52.8,432.2 52.9,437.8 53.4,453.3 68.9,452.3 74,452 79,451.7 89.2,451.1 99.3,450.5 
		109.5,450 119.6,449.5 129.7,449 139.9,448.6 150,448.2 160.3,447.9 170.6,447.5 180.8,447.2 191.1,447 201.4,446.7 211.6,446.5 
		221.9,446.3 232.2,446.2 242.4,446 252.7,445.9 263,445.8 273.2,445.8 283.5,445.7 293.7,445.7 304,445.7 314.3,445.7 324.5,445.7 
		334.8,445.7 345,445.7 355.3,445.8 375.8,445.9 396.4,446.1 416.9,446.3 478.7,446.9 499.3,447 519.9,447.2 540.4,447.3 
		550.7,447.4 561,447.4 571.4,447.5 581.7,447.5 592.1,447.5 602.4,447.5 612.8,447.4 623.1,447.4 633.4,447.3 643.8,447.2 
		654,447.1 664.3,447 674.6,446.8 684.8,446.6 695.1,446.4 705.3,446.2 715.6,445.9 725.8,445.6 736,445.3 746.1,445 756.3,444.6 
		766.5,444.2 776,443.8 785.5,443.3 794.2,442.9 811,442 819.5,441.6 827.9,441.2 832.4,441 836.8,440.9 841.3,440.7 845.7,440.6 
		850.2,440.5 854.6,440.4 859.1,440.3 863.5,440.2 867.6,440.2 871.7,440.2 875.8,440.3 879.9,440.3 884,440.4 888.1,440.5 
		892.2,440.7 896.3,440.9 900.4,441.1 904.5,441.4 908.5,441.7 910.6,441.8 912.6,442 914.6,442.2 916.7,442.4 918.7,442.6 
		920.7,442.8 922.8,443.1 924.8,443.3 926.8,443.6 928.8,443.8 946.7,446.2 945.8,428.2 945.7,425.5 945.6,422.8 945.4,420.2 
		945.4,417.5 945.3,414.4 945.2,411.4 945.1,408.3 945.1,405.3 945.1,402.2 945,399.1 945,396 945,392.9 945,386.7 945.1,380.5 
		945.2,374.1 945.3,367.8 945.8,337.3 946,325.8 946.2,313.9 946.4,302.1 946.5,290.2 946.6,278.4 946.7,266.5 946.8,254.6 
		946.9,242.7 946.9,230.8 946.9,219 946.9,207.1 946.8,195.2 946.7,183.3 946.6,171.4 946.4,159.5 946.2,147.7 946,135.8 
		945.7,123.9 945.6,118 945.4,112.1 945.2,106.1 945.1,100.2 944.9,94.2 944.7,88.3 944.3,78 943.9,67.6 943.4,57.3 942.9,46.9 
		942.7,41.8 942.4,36.6 942.1,31.4 941.8,26.3 941.5,21.1 941.2,15.9 940.3,1.9 926.2,1.9 582,1.9 542.4,1.9 522.7,1.9 511.9,1.9 
		489.1,1.8 477.1,1.8 465,1.8 459,1.9 453,1.9 446.9,1.9 440.9,2 434.8,2.1 428.8,2.2 410.8,2.5 404.9,2.6 398.3,2.7 391.7,2.7 
		388.5,2.7 385.2,2.7 381.9,2.7 378.6,2.7 375.7,2.7 372.7,2.6 369.8,2.5 366.9,2.5 363.2,2.3 359.6,2.2 355.6,2 351.6,1.8 
		343.5,1.4 337,1.1 333.7,0.9 330.4,0.8 327.5,0.6 324.5,0.5 321.6,0.5 318.6,0.4 315.6,0.4 312.7,0.4 309.7,0.4 306.8,0.4 
		303.7,0.5 300.7,0.6 299.2,0.7 297.7,0.8 296.2,0.9 294.7,1 292.2,1.2 289.7,1.4 287.3,1.7 284.8,2 282.6,2.2 280.3,2.5 278,2.9 
		275.8,3.2 271.9,3.8 268,4.5 264.1,5.2 256.3,6.5 252.4,7.2 248.5,7.8 244.6,8.5 242.5,8.8 240.5,9.1 238.5,9.3 236.4,9.6 
		234.4,9.8 232.4,10 230.4,10.3 228.4,10.4 226.4,10.6 224.3,10.8 220.3,11.1 216,11.4 211.8,11.6 207.5,11.9 203.2,12.1 
		189.1,12.8 184.5,13 179.9,13.2 175.4,13.5 170.8,13.8 154,14.8 146.1,15.3 142.2,15.5 138.3,15.7 134.4,15.9 130.5,16.1 
		126.1,16.3 121.6,16.5 117.2,16.6 112.8,16.7 108.4,16.8 104,16.9 101.9,16.9 99.7,16.9 97.5,16.8 95.3,16.8 93.1,16.8 90.9,16.7 
		88.7,16.7 86.5,16.6 84.3,16.5 82.2,16.4 80,16.3 77.8,16.2 66.5,15.5 62.7,26.1 60.5,32.4 58.3,38.7 57.2,41.8 56.1,45 55.1,48.1 
		54,51.3 53.3,53.6 52.6,55.9 51.9,58.1 51.2,60.4 50.5,62.7 49.8,65 49.2,67.4 48.5,69.7 47.9,72 47.3,74.3 46.7,76.7 46.2,79 
		45.7,81.4 45.1,83.8 44.7,86.1 44.2,88.5 43.8,90.9 43.3,93.3 43,95.7 42.6,98.1 42.3,100.2 42.1,102.4 41.9,104.5 41.6,106.6 
		41.5,108.1 41.4,109.7 41.3,111.2 41.2,112.8 41.1,114.4 41,115.9 41,117.5 40.9,119 40.9,120.6 40.9,122.1 40.9,123.7 40.9,125.2 
		40.9,126.8 40.9,128.4 41,131.5 41.1,134.5 41.2,137.6 41.4,140.6 41.6,143.6 41.8,146.7 42.1,149.7 42.3,152.7 42.6,155.8 
		42.9,158.5 43.2,161.2 43.5,164 43.9,166.7 	"/>
</g>
<g id="POLYLINE_571_">
	<polyline class="st3" points="120.6,391.8 120,384.2 119.4,376.6 118.8,369 118.5,365.2 118.3,361.3 118,357.5 117.8,353.7 
		117.6,349.9 117.4,346 117.2,342.2 117.1,338.3 116.9,334.5 116.8,330.6 116.8,328.1 116.7,325.6 116.7,320.6 116.7,315.6 
		116.7,310.6 116.7,305.6 116.8,300.5 116.9,295.5 117,290.4 117.1,285.4 117.3,280.3 117.9,260.1 118,255.1 118.1,250 118.3,242.9 
		118.4,235.9 118.5,228.8 118.6,221.8 118.7,214.7 118.8,207.6 118.8,200.6 118.8,193.5 118.8,179.4 118.8,165.3 118.8,137 
		118.8,117.7 118.8,98.3 118.8,88.5 118.8,78.8 118.9,69.1 118.9,59.4 121,60 123.1,60.6 125.2,61.1 127.3,61.5 129.4,62 
		131.5,62.3 133.7,62.7 135.8,63 137.9,63.3 140,63.6 142.1,63.8 144.2,64 146.3,64.2 148.4,64.4 150.5,64.5 152.6,64.6 154.7,64.7 
		156.9,64.8 159,64.9 161.1,64.9 163.2,64.9 165.3,64.9 167.4,64.9 169.5,64.9 171.6,64.8 173.8,64.8 178,64.7 182.2,64.5 
		186.4,64.4 194.9,64 199.1,63.8 203.3,63.7 207.6,63.6 209.7,63.5 211.8,63.5 213.9,63.4 216,63.4 218.1,63.4 220.2,63.5 
		222.4,63.5 224.5,63.5 226.6,63.6 228.7,63.7 230.8,63.8 232.9,63.9 235,64.1 237.1,64.3 239.2,64.5 241.3,64.7 243.4,65 
		245.5,65.3 247.6,65.6 249.7,66 251.8,66.4 254,66.8 255.7,67.2 259.1,67.9 260.9,68.3 262.6,68.6 263.5,68.8 264.3,68.9 265.2,69 
		266.1,69.1 266.9,69.2 267.8,69.3 268.7,69.3 269.5,69.4 270.4,69.4 271.3,69.3 272.1,69.3 272.6,69.2 273,69.2 273.4,69.1 
		273.9,69.1 274.3,69 274.7,68.9 275.2,68.8 275.6,68.7 276,68.6 276.5,68.5 276.9,68.4 277.3,68.3 277.8,68.1 278.2,68 278.6,67.8 
		279,67.6 279.5,67.4 279.9,67.2 280.3,67 280.8,66.8 281.2,66.6 281.6,66.3 281.6,75.2 281.5,83.2 281.5,91.3 281.5,99.5 
		281.5,107.7 281.5,115.9 281.7,162.9 281.8,178.2 281.8,193.5 281.8,208.8 281.9,224.1 281.9,239.4 281.8,254.8 281.8,270.1 
		281.8,285.4 281.7,300.7 281.6,316 281.5,331.3 281.4,346.5 281.3,361.7 281.1,377 281,390.2 280.8,403.5 219.9,403.5 214,403.5 
		208.3,403.4 205.4,403.4 202.6,403.5 199.1,403.5 195.6,403.5 193.8,403.5 192.1,403.5 190.4,403.4 188.6,403.3 186.9,403.2 
		183.4,403 181.6,402.8 180.8,402.8 179.9,402.8 179,402.8 178.1,402.8 177.3,402.8 176.4,402.9 175.5,403 175.1,403 174.6,403.1 
		173.8,403.2 173,403.4 169.7,404.1 168.8,404.3 168,404.5 167.6,404.5 167.2,404.6 166.8,404.6 166.3,404.7 165.9,404.7 
		165.5,404.7 165.1,404.7 164.7,404.7 164.5,404.7 164.3,404.7 164.1,404.7 163.9,404.7 163.7,404.6 163.5,404.6 163.3,404.6 
		163.1,404.5 162.8,404.5 162.6,404.5 162.4,404.4 162.2,404.3 162,404.3 161.8,404.2 161.6,404.2 161.4,404.1 161.1,403.9 
		160.8,403.8 160.5,403.7 160.2,403.5 159.9,403.3 159.5,403.2 159.2,403 158.9,402.8 158.3,402.4 157.7,401.9 157.1,401.5 
		154,399.1 153.3,398.7 152.7,398.3 152.1,397.9 151.8,397.7 151.5,397.5 151.2,397.3 150.9,397.2 150.6,397 150.3,396.9 150,396.7 
		149.6,396.6 149.3,396.5 149,396.4 148.4,396.1 147.8,395.9 147.2,395.8 146.6,395.6 146,395.5 145.3,395.3 144.1,395.1 
		142.9,394.8 141.7,394.5 140.3,394.2 139,393.9 135.1,392.8 133.8,392.5 132.5,392.2 131.1,391.9 130.5,391.8 129.8,391.6 
		129.2,391.5 128.5,391.4 127.9,391.4 127.2,391.3 126.5,391.3 125.9,391.2 125.2,391.2 124.6,391.2 123.9,391.3 123.6,391.3 
		123.3,391.3 122.9,391.4 122.6,391.4 122.3,391.5 121.9,391.5 121.6,391.6 121.3,391.7 120.9,391.7 120.6,391.8 	"/>
</g>
<g id="POLYLINE_572_">
	<polyline class="st0" points="76.9,31.1 75.2,35.8 73.6,40.4 71.9,45.1 70.4,49.7 69.6,52 68.8,54.4 68,56.7 67.3,59 66.6,61.4 
		65.9,63.7 65.2,66 64.5,68.4 63.8,70.7 63.2,73.1 62.5,75.4 61.9,77.7 61.4,80.1 60.8,82.4 60.3,84.8 59.8,87.1 59.3,89.5 
		58.8,91.8 58.4,94.2 58,96.5 57.7,98.9 57.3,101.2 57,103.6 56.8,105.9 56.6,107.5 56.5,109 56.4,110.5 56.3,112 56.2,113.6 
		56.1,115.1 56,116.6 56,118.2 55.9,119.7 55.9,121.2 55.9,122.7 55.9,124.3 55.9,125.8 55.9,127.3 55.9,128.9 55.9,130.4 56,133.5 
		56.2,136.6 56.3,139.6 56.6,142.7 56.8,145.8 57,148.9 57.3,151.9 57.6,155 58,158.1 58.3,161.2 58.7,164.3 59,167.4 59.8,173.6 
		61.4,185.9 62.2,192.1 62.6,195.2 63,198.3 63.3,201.4 63.7,204.5 64.1,208.8 64.5,213.1 64.9,217.4 65.3,221.7 65.6,226 
		65.9,230.4 66.1,234.7 66.4,239 66.6,243.3 66.7,247.6 66.9,251.9 67,256.2 67.2,260.5 67.2,264.9 67.3,269.2 67.4,273.5 
		67.4,277.8 67.5,282.1 67.5,286.4 67.5,290.7 67.5,299.4 67.4,308 67.1,342.5 67,354.4 67,360.3 67,366.2 67,372.1 67,378.1 
		67,384 67.1,389.9 67.1,395.9 67.2,401.8 67.3,407.7 67.4,413.6 67.5,419.6 67.6,425.5 67.7,431.4 67.9,437.4 73.5,437 79.1,436.6 
		84.6,436.3 90.2,436 95.8,435.7 101.4,435.4 106.9,435.1 112.5,434.8 118.1,434.5 123.7,434.3 129.3,434 134.8,433.8 140.4,433.6 
		146,433.4 157.2,433 168.4,432.6 179.5,432.3 190.7,432 201.9,431.7 213.1,431.5 224.3,431.3 235.5,431.1 246.6,431 257.8,430.9 
		269,430.8 280.2,430.7 291.4,430.7 302.6,430.7 313.8,430.7 325,430.7 336.2,430.7 347.4,430.7 358.7,430.8 369.9,430.9 381.1,431 
		403.5,431.1 425.9,431.3 470.7,431.8 493.2,432 515.6,432.2 526.8,432.3 538,432.3 549.2,432.4 560.4,432.4 571.6,432.5 
		582.8,432.5 594,432.5 605.2,432.4 616.4,432.4 627.6,432.3 638.7,432.3 649.9,432.1 661.1,432 672.3,431.8 683.5,431.7 
		694.7,431.4 705.8,431.2 717,430.9 728.2,430.6 739.3,430.2 750.5,429.8 761.6,429.4 767.2,429.1 772.8,428.9 778.4,428.6 
		783.9,428.4 793.1,427.9 811.5,427 820.7,426.5 825.3,426.3 829.8,426.1 834.4,426 839,425.8 843.6,425.6 848.2,425.5 852.8,425.4 
		857.4,425.3 862,425.3 866.6,425.2 871.1,425.2 875.7,425.3 880.3,425.3 884.9,425.4 889.5,425.6 891.8,425.7 894.1,425.8 
		896.4,425.9 898.7,426 901,426.1 903.3,426.3 905.6,426.4 907.9,426.6 910.2,426.8 912.4,426.9 914.7,427.1 917,427.4 919.3,427.6 
		921.6,427.8 923.9,428.1 926.2,428.4 928.5,428.7 930.8,429 930.7,425.5 930.5,423 930.5,420.6 930.4,418.1 930.2,413.2 
		930.1,408.3 930.1,403.3 930,398.4 930,393.4 930,388.4 930.1,383.4 930.1,378.4 930.2,373.4 930.2,368.4 930.4,358.3 930.8,339 
		931,329.6 931.1,320.3 931.3,311 931.4,301.6 931.5,292.3 931.6,282.9 931.7,273.6 931.8,264.2 931.8,254.8 931.9,245.5 
		931.9,236.1 931.9,226.7 931.9,217.4 931.9,208 931.8,198.7 931.8,189.3 931.7,179.9 931.6,170.6 931.4,161.2 931.3,151.9 
		931.1,142.5 930.9,133.2 930.7,123.8 930.5,114.5 930.2,105.2 929.9,95.8 929.6,86.5 929.2,77.2 928.9,67.9 928.5,58.6 928,49.3 
		927.6,41.2 927.2,33.1 926.7,25 926.5,20.9 926.2,16.9 603.4,16.9 572.3,16.9 541.9,16.9 526.7,16.9 511.5,16.9 483.7,16.8 
		474.5,16.8 465.2,16.8 455.9,16.9 446.7,16.9 442.1,17 437.4,17 428.2,17.2 409.7,17.5 405.1,17.6 400.5,17.7 395.8,17.7 
		391.2,17.7 386.6,17.7 381.9,17.7 377.3,17.7 372.7,17.6 368,17.5 363.4,17.4 359,17.2 354.6,17 350.2,16.8 337,16.1 332.6,15.9 
		328.2,15.7 323.8,15.5 321.6,15.5 319.4,15.4 317.2,15.4 315,15.4 312.8,15.4 310.6,15.4 308.4,15.4 306.3,15.4 304.1,15.5 
		301.9,15.6 299.7,15.7 297.6,15.8 295.4,16 293.2,16.2 291.6,16.3 289.9,16.5 288.3,16.7 286.6,16.9 285,17.1 283.3,17.3 280,17.7 
		276.7,18.2 273.4,18.8 270.2,19.3 266.9,19.9 257,21.6 253.7,22.2 250.4,22.7 247.1,23.2 243.8,23.7 242.2,24 240.5,24.2 
		238.9,24.4 237.3,24.6 234.1,25 230.8,25.3 227.6,25.6 224.3,25.8 221.1,26.1 217.8,26.3 214.5,26.5 211.3,26.7 208,26.9 
		201.5,27.2 194.9,27.5 188.4,27.8 181.4,28.2 174.5,28.6 153.6,29.9 146.6,30.3 139.7,30.7 136.2,30.9 132.7,31.1 129.2,31.2 
		125.7,31.4 122.3,31.5 118.8,31.6 115.3,31.7 111.8,31.8 108.3,31.8 104.8,31.9 101.3,31.9 97.9,31.8 94.4,31.8 90.9,31.7 
		87.4,31.6 83.9,31.5 80.4,31.3 76.9,31.1 	"/>
</g>
</svg>
