<?xml version="1.0" encoding="utf-8"?>
<!-- Generator: Adobe Illustrator 21.1.0, SVG Export Plug-In . SVG Version: 6.00 Build 0)  -->
<svg version="1.1" id="Слой_1" xmlns="http://www.w3.org/2000/svg" xmlns:xlink="http://www.w3.org/1999/xlink" x="0px" y="0px"
	 viewBox="0 0 254.4 164.7" style="enable-background:new 0 0 254.4 164.7;" xml:space="preserve">
<style type="text/css">
	.st0{fill:#FF7E03;}
</style>
<g>
	<path class="st0" d="M237,0H17.4C7.8,0,0,7.8,0,17.4v63.9c0,16,13,29,29,29h196.4c16,0,29-13,29-29V17.4C254.4,7.8,246.6,0,237,0
		L237,0z M37.8,14h178.8v16.5c0,6.5-5.3,11.8-11.8,11.8H49.6c-6.5,0-11.8-5.3-11.8-11.8L37.8,14L37.8,14z M240.4,81.4
		c0,8.3-6.7,15-15,15H29c-8.3,0-15-6.7-15-15V17.4c0-1.9,1.5-3.4,3.4-3.4h6.4v16.5c0,14.2,11.6,25.8,25.8,25.8h155.3
		c14.2,0,25.8-11.6,25.8-25.8V14h6.4c1.9,0,3.4,1.5,3.4,3.4L240.4,81.4L240.4,81.4z"/>
	<path class="st0" d="M223.6,74.4H30.8c-3.9,0-7,3.1-7,7s3.1,7,7,7h192.8c3.9,0,7-3.1,7-7S227.5,74.4,223.6,74.4z"/>
	<path class="st0" d="M84.2,132.5c-0.2-0.1-0.5-0.3-0.7-0.4c3.3-1.4,5-5.1,3.9-8.6c-1.2-3.7-5.2-5.7-8.8-4.5
		c-1.7,0.6-10.5,3.8-11.2,11.6c-0.5,5.3,2.8,10.1,10,14.1c2.3,1.3,2.9,2.3,2.9,2.4c0.1,1-1.8,3.5-3.7,5c-3.1,2.3-3.7,6.7-1.4,9.8
		c1.4,1.8,3.5,2.8,5.6,2.8c1.5,0,2.9-0.5,4.2-1.4c1-0.8,9.8-7.7,9.2-17.1C93.9,142.4,92,136.9,84.2,132.5L84.2,132.5z"/>
	<path class="st0" d="M130.6,132.5c-0.2-0.1-0.5-0.3-0.7-0.4c3.3-1.4,5-5.1,3.9-8.6c-1.2-3.7-5.2-5.7-8.8-4.5
		c-1.7,0.6-10.5,3.8-11.2,11.6c-0.5,5.3,2.8,10.1,10,14.1c2.3,1.3,2.9,2.3,2.9,2.4c0.1,1-1.8,3.5-3.7,5c-3.1,2.3-3.7,6.7-1.4,9.8
		c1.4,1.8,3.5,2.8,5.6,2.8c1.5,0,3-0.5,4.2-1.4c1-0.8,9.8-7.7,9.2-17.1C140.4,142.4,138.4,136.9,130.6,132.5L130.6,132.5z"/>
	<path class="st0" d="M177.1,132.5c-0.2-0.1-0.5-0.3-0.7-0.4c3.3-1.4,5-5.1,3.9-8.6c-1.2-3.7-5.2-5.7-8.8-4.5
		c-1.7,0.6-10.5,3.8-11.2,11.6c-0.5,5.3,2.8,10.1,10,14.1c2.3,1.3,2.9,2.3,2.9,2.4c0.1,1-1.8,3.5-3.7,5c-3.1,2.3-3.7,6.7-1.4,9.8
		c1.4,1.8,3.5,2.8,5.6,2.8c1.5,0,2.9-0.5,4.2-1.4c1-0.8,9.8-7.7,9.2-17.1C186.8,142.4,184.9,136.9,177.1,132.5L177.1,132.5z"/>
</g>
</svg>
