<?xml version="1.0" encoding="utf-8"?>
<!-- Generator: Adobe Illustrator 21.1.0, SVG Export Plug-In . SVG Version: 6.00 Build 0)  -->
<svg version="1.1" id="Слой_1" xmlns="http://www.w3.org/2000/svg" xmlns:xlink="http://www.w3.org/1999/xlink" x="0px" y="0px"
	 viewBox="0 0 146.6 105.6" style="enable-background:new 0 0 146.6 105.6;" xml:space="preserve">
<style type="text/css">
	.st0{fill-rule:evenodd;clip-rule:evenodd;fill:#FFFFFF;}
	.st1{fill:none;stroke:#FFFFFF;stroke-width:0.7087;stroke-linecap:round;stroke-linejoin:round;stroke-miterlimit:10;}
	.st2{fill-rule:evenodd;clip-rule:evenodd;fill:#ED6720;}
	.st3{fill:none;stroke:#ED6720;stroke-width:0.7087;stroke-linecap:round;stroke-linejoin:round;stroke-miterlimit:10;}
</style>
<g id="HATCH_373_">
	<polygon class="st0" points="68.7,55.8 71.9,55.8 75.1,55.8 78.5,55.8 81.9,55.8 85.4,55.8 89.1,55.8 92.9,55.7 97,55.7 
		101.2,55.7 103.3,55.7 105.5,55.7 107.7,55.7 109.9,55.7 111,55.6 112.1,55.6 113.2,55.6 114.3,55.6 115.4,55.6 116.5,55.6 
		117.5,55.5 118.6,55.5 119.7,55.5 120.7,55.4 121.8,55.4 122.8,55.4 123.8,55.3 124.8,55.3 125.8,55.2 126.8,55.2 127.8,55.2 
		128.7,55.1 129.7,55 130.6,55 131.2,54.9 131.8,54.9 132.3,54.8 132.9,54.8 133.4,54.8 133.9,54.7 134.4,54.7 134.7,54.6 
		134.9,54.6 135.1,54.6 135.2,54.5 135.4,54.5 135.5,54.5 135.6,54.5 135.6,54.5 135.7,54.5 135.7,54.5 135.7,54.4 135.8,54.4 
		135.8,54.4 135.8,54.4 135.8,54.4 135.8,54.4 135.8,54.4 135.8,54.4 135.8,54.4 135.8,54.4 135.8,54.4 135.8,54.4 135.8,54.4 
		135.8,54.4 135.8,54.4 135.8,54.4 135.8,54.4 135.8,54.4 135.8,54.4 135.8,54.4 135.9,54.4 135.9,54.4 135.9,54.4 135.9,54.4 
		135.9,54.4 135.9,54.4 135.9,54.4 135.8,54.4 135.8,54.4 135.8,54.4 135.8,54.4 135.8,54.4 135.8,54.4 135.8,54.4 135.8,54.4 
		135.8,54.4 135.8,54.4 135.8,54.4 135.8,54.4 135.8,54.3 135.8,54.3 135.8,54.3 135.8,54.3 135.8,54.3 135.8,54.3 135.7,54.3 
		135.7,54.3 135.7,54.3 135.6,54.3 135.6,54.3 135.5,54.3 135.4,54.3 135.2,54.3 135.1,54.3 134.8,54.2 134.4,54.2 133.9,54.2 
		133.4,54.2 132.9,54.2 132.3,54.2 131.1,54.2 129.8,54.2 127,54.1 117.9,54.1 109.2,54 104.9,54 100.7,54 96.6,54 92.5,54 88.4,54 
		84.3,54 80.2,54 76.1,54 72,54 67.8,54 63.7,54 59.4,54 57.8,54 56.2,54 55.4,54.1 54.6,54.1 53.7,54.1 52.9,54.1 52.1,54.1 
		51.3,54.1 50.5,54.2 49.7,54.2 48.9,54.2 48.1,54.2 47.3,54.3 46.6,54.3 45.9,54.4 45.3,54.4 44.8,54.4 44.2,54.5 43.6,54.5 
		43.1,54.6 42.6,54.6 42.2,54.6 41.8,54.7 41.4,54.7 41.3,54.8 41.1,54.8 41,54.8 40.9,54.8 40.8,54.8 40.8,54.9 40.7,54.9 
		40.7,54.9 40.7,54.9 40.7,54.9 40.7,54.9 40.7,54.9 40.6,54.9 40.6,54.9 40.6,54.9 40.6,54.9 40.6,54.9 40.6,54.9 40.6,54.9 
		40.6,54.9 40.6,54.9 40.6,54.9 40.6,54.9 40.6,54.9 40.6,54.9 40.6,54.9 40.6,54.9 40.6,54.9 40.6,54.9 40.6,54.9 40.6,54.9 
		40.6,54.9 40.6,54.9 40.6,54.9 40.6,54.9 40.6,54.9 40.6,55 40.6,55 40.6,55 40.6,55 40.6,55 40.6,55 40.6,55 40.6,55 40.6,55 
		40.6,55 40.6,55 40.8,55 41,55.1 41.1,55.1 41.3,55.2 41.5,55.2 41.6,55.3 41.8,55.3 41.9,55.3 42.1,55.4 42.3,55.4 42.4,55.4 
		42.6,55.5 42.8,55.5 43,55.5 43.1,55.5 43.3,55.5 43.6,55.6 43.8,55.6 44,55.6 44.2,55.6 44.5,55.6 44.7,55.6 45.3,55.6 45.9,55.6 
		46.6,55.7 47.3,55.7 48.1,55.7 49.9,55.7 52,55.7 54.4,55.7 57,55.7 59.7,55.7 62.6,55.7 65.6,55.7 	"/>
</g>
<g id="SPLINE_89_">
	<path class="st1" d="M68.7,55.8c8.4,0,17.3,0,28.2,0s24-0.1,33.6-0.8c3.3-0.2,6.2-0.5,5-0.7c-1-0.1-4.9-0.1-8.6-0.2
		C102.3,54,82.2,53.9,59.4,54c-4.3,0-8.7,0.1-12.9,0.3c-3.3,0.2-6.4,0.5-5.9,0.7c1.8,0.6,2.9,0.7,7.4,0.7
		C52.6,55.7,60.4,55.7,68.7,55.8z"/>
</g>
<g id="SPLINE_90_">
	<path class="st1" d="M66,39c9.3-0.1,19.1-0.4,31.2-0.5s26.7-0.1,36.1-0.6c2.2-0.1,4-0.3,3.4-0.4c-1.1-0.2-8.5-0.4-14.1-0.6
		c-4-0.1-7.1-0.1-10.3-0.2c-12-0.1-26-0.2-38.8,0.1c-5.9,0.1-11.6,0.3-17.6,0.4c-3.7,0.1-7.5,0.2-11.1,0.3c-2.4,0.1-4.7,0.2-4.9,0.3
		c-1.1,0.7-0.8,0.8,3.7,0.9S56.7,39,66,39z"/>
</g>
<g id="HATCH_374_">
	<polygon class="st0" points="66,39 67.7,38.9 69.5,38.9 71.3,38.9 73.1,38.9 74.9,38.8 76.7,38.8 84.4,38.7 86.4,38.6 88.5,38.6 
		90.6,38.6 92.7,38.5 94.9,38.5 97.2,38.5 116.3,38.3 118.6,38.3 119.8,38.3 120.9,38.3 122.1,38.2 123.2,38.2 124.3,38.2 
		125.4,38.2 126.4,38.1 127.5,38.1 128.5,38.1 129.5,38.1 130.5,38 131.5,38 132.4,37.9 133.3,37.9 134.1,37.9 134.4,37.8 
		134.8,37.8 135.1,37.8 135.5,37.8 135.8,37.7 136,37.7 136.2,37.7 136.4,37.7 136.5,37.6 136.6,37.6 136.6,37.6 136.7,37.6 
		136.7,37.6 136.7,37.6 136.7,37.6 136.7,37.6 136.7,37.6 136.7,37.6 136.7,37.6 136.7,37.6 136.7,37.6 136.8,37.6 136.8,37.6 
		136.8,37.6 136.8,37.6 136.8,37.6 136.8,37.6 136.8,37.6 136.8,37.6 136.8,37.6 136.8,37.6 136.8,37.6 136.8,37.6 136.8,37.6 
		136.8,37.6 136.8,37.6 136.8,37.6 136.8,37.6 136.8,37.6 136.8,37.6 136.8,37.6 136.8,37.6 136.8,37.6 136.8,37.6 136.8,37.6 
		136.8,37.5 136.8,37.5 136.8,37.5 136.8,37.5 136.8,37.5 136.8,37.5 136.8,37.5 136.8,37.5 136.7,37.5 136.7,37.5 136.7,37.5 
		136.7,37.5 136.7,37.5 136.7,37.5 136.7,37.5 136.7,37.5 136.7,37.5 136.7,37.5 136.6,37.5 136.6,37.5 136.5,37.5 136.4,37.5 
		136.2,37.4 135.9,37.4 135.7,37.4 135.4,37.4 135.1,37.4 134.8,37.3 134,37.3 133.2,37.3 132.3,37.2 131.3,37.2 130.3,37.1 
		129.2,37.1 128.1,37.1 127,37 125.9,37 124.7,37 123.6,37 122.6,36.9 121.1,36.9 119.7,36.9 118.4,36.9 117.1,36.8 115.9,36.8 
		114.6,36.8 112.2,36.8 110,36.8 107.6,36.7 105.3,36.7 102.9,36.7 100.5,36.7 98,36.7 95.6,36.7 93.1,36.7 90.6,36.7 88.1,36.7 
		85.7,36.7 83.2,36.7 81.9,36.7 80.7,36.7 79.5,36.7 78.2,36.8 77,36.8 75.8,36.8 74.6,36.8 73.4,36.8 72.3,36.9 71.2,36.9 69,36.9 
		66.8,37 64.6,37 60.2,37.2 58,37.2 55.8,37.3 50.2,37.4 48.8,37.4 47.4,37.5 46,37.5 44.7,37.5 43.8,37.6 42.9,37.6 42.1,37.6 
		41.7,37.7 41.4,37.7 41.1,37.7 40.8,37.7 40.5,37.7 40.3,37.7 40.1,37.8 40,37.8 39.9,37.8 39.9,37.8 39.9,37.8 39.8,37.8 
		39.8,37.8 39.8,37.8 39.8,37.8 39.8,37.8 39.8,37.8 39.8,37.8 39.8,37.8 39.8,37.8 39.8,37.8 39.8,37.8 39.8,37.8 39.7,37.9 
		39.6,37.9 39.5,38 39.5,38 39.4,38.1 39.4,38.1 39.4,38.1 39.4,38.1 39.3,38.1 39.3,38.1 39.3,38.1 39.3,38.2 39.3,38.2 39.3,38.2 
		39.3,38.2 39.3,38.2 39.3,38.2 39.3,38.2 39.3,38.2 39.3,38.2 39.3,38.2 39.2,38.2 39.2,38.2 39.2,38.2 39.2,38.2 39.2,38.2 
		39.2,38.3 39.2,38.3 39.2,38.3 39.2,38.3 39.2,38.3 39.2,38.3 39.2,38.3 39.2,38.3 39.2,38.3 39.2,38.3 39.2,38.3 39.2,38.3 
		39.2,38.3 39.2,38.3 39.2,38.3 39.2,38.3 39.2,38.3 39.2,38.3 39.2,38.3 39.2,38.3 39.2,38.3 39.2,38.3 39.2,38.4 39.2,38.4 
		39.2,38.4 39.2,38.4 39.3,38.4 39.3,38.4 39.3,38.4 39.3,38.4 39.3,38.4 39.3,38.4 39.3,38.4 39.3,38.4 39.3,38.4 39.3,38.4 
		39.3,38.4 39.3,38.4 39.3,38.4 39.3,38.4 39.3,38.4 39.3,38.4 39.3,38.4 39.4,38.4 39.4,38.4 39.4,38.5 39.4,38.5 39.4,38.5 
		39.4,38.5 39.5,38.5 39.5,38.5 39.6,38.5 39.6,38.5 39.7,38.5 39.7,38.5 39.9,38.6 40,38.6 40.2,38.6 40.4,38.6 40.6,38.6 
		40.8,38.7 41.1,38.7 41.3,38.7 41.6,38.7 42,38.7 42.7,38.7 43.5,38.8 44.3,38.8 45.3,38.8 46.4,38.8 47.6,38.9 48.8,38.9 
		50.1,38.9 51.5,38.9 52.9,39 54.4,39 56,39 57.6,39 59.2,39 60.9,39 62.5,39 64.3,39 	"/>
</g>
<g id="SPLINE_91_">
	<path class="st1" d="M116.2,35.7c0.1,4.3,0.4,8.8,0.5,14.5s0.1,12.4,0.6,16.7c0.1,1,0.3,1.9,0.4,1.6c0.2-0.5,0.5-3.9,0.6-6.5
		c0.1-1.9,0.1-3.3,0.2-4.8c0.1-5.6,0.2-12.1-0.1-18c-0.1-2.7-0.3-5.4-0.5-8.2c-0.1-1.7-0.2-3.5-0.3-5.2c-0.1-1.1-0.2-2.2-0.3-2.3
		c-0.7-0.5-0.8-0.4-1,1.7S116.2,31.4,116.2,35.7z"/>
</g>
<g id="HATCH_375_">
	<polygon class="st0" points="116.2,35.7 116.3,36.6 116.3,37.4 116.3,38.2 116.3,39 116.4,39.9 116.4,40.7 116.6,44.3 116.6,45.2 
		116.6,46.2 116.7,47.2 116.7,48.2 116.7,49.2 116.8,50.2 116.9,59.1 116.9,60.2 117,60.7 117,61.2 117,61.8 117,62.3 117,62.8 
		117.1,63.3 117.1,63.8 117.1,64.3 117.2,64.7 117.2,65.2 117.2,65.7 117.3,66.1 117.3,66.5 117.4,67 117.4,67.3 117.4,67.5 
		117.5,67.7 117.5,67.8 117.5,68 117.5,68.1 117.6,68.2 117.6,68.3 117.6,68.3 117.6,68.4 117.6,68.4 117.6,68.4 117.6,68.5 
		117.6,68.5 117.6,68.5 117.6,68.5 117.6,68.5 117.6,68.5 117.7,68.5 117.7,68.5 117.7,68.5 117.7,68.5 117.7,68.5 117.7,68.5 
		117.7,68.6 117.7,68.6 117.7,68.6 117.7,68.6 117.7,68.6 117.7,68.6 117.7,68.6 117.7,68.6 117.7,68.6 117.7,68.6 117.7,68.6 
		117.7,68.6 117.7,68.6 117.7,68.6 117.7,68.6 117.7,68.6 117.7,68.6 117.7,68.6 117.7,68.6 117.7,68.6 117.7,68.6 117.7,68.6 
		117.7,68.6 117.7,68.6 117.7,68.6 117.7,68.6 117.7,68.6 117.7,68.6 117.7,68.6 117.7,68.6 117.7,68.6 117.7,68.6 117.7,68.6 
		117.7,68.6 117.7,68.6 117.7,68.6 117.7,68.6 117.7,68.6 117.7,68.6 117.7,68.6 117.7,68.6 117.7,68.6 117.7,68.6 117.7,68.6 
		117.7,68.6 117.7,68.6 117.7,68.6 117.8,68.5 117.8,68.5 117.8,68.5 117.8,68.5 117.8,68.5 117.8,68.5 117.8,68.5 117.8,68.5 
		117.8,68.5 117.8,68.5 117.8,68.5 117.8,68.5 117.8,68.5 117.8,68.4 117.8,68.4 117.8,68.4 117.8,68.3 117.8,68.3 117.9,68.2 
		117.9,68.1 117.9,67.9 117.9,67.8 117.9,67.6 118,67.5 118,67.3 118,66.9 118.1,66.5 118.1,66 118.2,65.6 118.2,65.1 118.2,64.6 
		118.3,64 118.3,63.5 118.3,63 118.3,62.5 118.4,62 118.4,61.3 118.4,60.7 118.5,60 118.5,59.5 118.5,58.9 118.5,58.3 118.5,57.2 
		118.6,56.1 118.6,55.1 118.6,54 118.6,52.9 118.6,51.7 118.6,50.6 118.6,49.5 118.6,48.3 118.6,47.2 118.6,46 118.6,44.9 
		118.6,43.7 118.6,43.1 118.6,42.6 118.6,42 118.6,41.4 118.5,40.9 118.5,40.3 118.5,39.7 118.5,39.2 118.5,38.7 118.4,38.2 
		118.4,37.1 118.3,36.1 118.3,35.1 118.1,33.1 118.1,32 118,31 117.9,28.4 117.9,27.8 117.8,27.1 117.8,26.5 117.7,25.9 117.7,25.4 
		117.7,25 117.6,24.7 117.6,24.5 117.6,24.3 117.6,24.2 117.6,24.1 117.5,23.9 117.5,23.8 117.5,23.8 117.5,23.7 117.5,23.7 
		117.5,23.7 117.5,23.7 117.5,23.7 117.5,23.7 117.5,23.6 117.5,23.6 117.5,23.6 117.5,23.6 117.5,23.6 117.5,23.6 117.5,23.6 
		117.4,23.6 117.4,23.6 117.4,23.6 117.4,23.6 117.4,23.6 117.4,23.6 117.4,23.6 117.4,23.6 117.4,23.6 117.4,23.6 117.4,23.6 
		117.4,23.6 117.4,23.6 117.4,23.6 117.4,23.5 117.3,23.5 117.3,23.5 117.2,23.4 117.2,23.4 117.2,23.4 117.1,23.4 117.1,23.4 
		117.1,23.4 117.1,23.4 117.1,23.4 117.1,23.4 117.1,23.4 117,23.4 117,23.3 117,23.3 117,23.3 117,23.3 117,23.3 117,23.3 
		117,23.3 117,23.3 117,23.3 117,23.3 116.9,23.3 116.9,23.3 116.9,23.3 116.9,23.3 116.9,23.3 116.9,23.3 116.9,23.3 116.9,23.3 
		116.9,23.3 116.9,23.3 116.9,23.3 116.9,23.3 116.9,23.3 116.9,23.3 116.9,23.3 116.9,23.3 116.9,23.3 116.9,23.3 116.9,23.3 
		116.9,23.3 116.9,23.3 116.9,23.3 116.8,23.4 116.8,23.4 116.8,23.4 116.8,23.4 116.8,23.4 116.8,23.4 116.8,23.4 116.8,23.4 
		116.8,23.4 116.8,23.4 116.8,23.4 116.8,23.4 116.8,23.4 116.8,23.4 116.8,23.4 116.8,23.4 116.8,23.4 116.8,23.4 116.8,23.4 
		116.8,23.4 116.8,23.4 116.8,23.4 116.8,23.4 116.7,23.4 116.7,23.4 116.7,23.5 116.7,23.5 116.7,23.5 116.7,23.5 116.7,23.5 
		116.7,23.5 116.7,23.5 116.7,23.5 116.7,23.6 116.7,23.6 116.7,23.6 116.7,23.7 116.6,23.7 116.6,23.7 116.6,23.8 116.6,23.9 
		116.6,24 116.6,24.1 116.5,24.2 116.5,24.3 116.5,24.4 116.5,24.6 116.5,24.9 116.4,25.3 116.4,25.7 116.4,26.2 116.4,26.7 
		116.3,27.2 116.3,27.8 116.3,28.4 116.3,29 116.3,29.7 116.2,30.4 116.2,31.1 116.2,31.8 116.2,32.6 116.2,33.4 116.2,34.1 
		116.2,34.9 	"/>
</g>
<g id="POLYLINE_738_">
	<path class="st1" d="M95,27.2l0,0.2l0,0.2l0,0.2l0,0.2l0,0.2c0,0,0,0.2,0,0.2l0,0.4c0,0,0,0.5,0,0.5l0,1.5l0,0.5l0,0.6l0,0.6l0,0.6
		l0,0.6c0,0,0,0.6,0,0.6s0,1.2,0,1.2l0,1.2c0,0,0,1.2,0,1.2l0,1.2l0,1.1l0,1.1l-0.1,1.1l-0.1,1.1l-0.2,3.8l0,0.9l0,0.9l0,0.9l0,0.9
		c0,0,0,0.9,0,0.9s0,0.9,0,0.9l0,1l0,1l0,2.8l0,0.9l0,0.8l-0.1,2l0,0.5c0,0,0,0.5,0,0.5l0,0.6c0,0,0,0.6,0,0.6l0,0.4l0,0.4l0,0.4
		l0,0.4l0,0.4l0,0.4c0,0,0,0.4,0,0.4l0,0.4c0,0,0,0.2,0,0.2s0,0.2,0,0.2l0,0.2l0,0.2c0,0,0,0.2,0,0.2l0,0.2l0,0.1l0,0.1l0,0.1
		c0,0,0,0.1,0,0.1l0,0.1c0,0,0,0.1,0,0.1l0,0c0,0,0,0,0,0c0,0,0,0,0,0c0,0,0,0,0,0c0,0,0,0,0,0c0,0,0,0,0,0c0,0,0,0,0,0c0,0,0,0,0,0
		c0,0,0,0,0,0c0,0,0,0,0,0c0,0,0,0,0,0c0,0,0,0,0,0c0,0,0,0,0,0c0,0,0,0,0,0c0,0,0,0,0,0c0,0,0,0,0,0c0,0,0,0,0,0c0,0,0,0,0,0
		c0,0,0,0,0,0c0,0,0,0,0,0l0,0l0,0l0,0l0,0l0-0.1l0-0.1l0-0.1l0-0.1l0-0.1c0,0,0-0.1,0-0.1l0-0.1l0-0.1l0-0.1l0.1-0.2l0.1-0.2
		l0.1-0.2l0.1-0.3l0.1-0.3c0,0,0.1-0.3,0.1-0.3l0-0.2c0,0,0-0.2,0-0.2s0-0.2,0-0.2s0-0.2,0-0.2s0-0.2,0-0.2l0-0.2c0,0,0-0.2,0-0.2
		l0-0.2l0-0.2l0-0.2l0-0.2l0-0.2l0-0.2l0-0.2l0-0.3l0-0.3l0-0.5l0-0.5l0-0.5l0-1.5l0-0.5l0-0.5l0-0.5l0-0.5l0-0.5l0-0.5l0-0.5l0-0.5
		l0-0.5l0-0.5l0-1l0.1-2l0-0.5l0-0.5l0-0.7l0-0.7l0-0.7l0-0.7l0-0.7l0-0.7l0-0.7l0-0.7l0-0.7l0-0.7l0-0.7l0-0.7c0,0,0-0.7,0-0.7
		l0-0.7l0-1.5l0-1.5l0-1.5l-0.1-4.3l0-1.4l0-1.4l0-0.7l0-0.7l0-0.2l0-0.2l0-0.2l0-0.2l0-0.1l0-0.1l0-0.1l0,0l0,0c0,0,0,0,0,0
		c0,0,0,0,0,0c0,0,0,0,0,0c0,0,0,0,0,0c0,0,0,0,0,0c0,0,0,0,0,0c0,0,0,0,0,0c0,0,0,0,0,0c0,0,0,0,0,0c0,0,0,0,0,0c0,0,0,0,0,0
		c0,0,0,0,0,0c0,0,0,0,0,0c0,0,0,0,0,0c0,0,0,0,0,0l0,0l0,0l0,0l0,0l0,0l0,0l0,0l0,0c0,0,0,0,0,0l0,0l0,0.1l0,0.1l0,0.1l0,0.1l0,0.1
		l0,0.1l0,0.2L95,27.2"/>
</g>
<g id="HATCH_376_">
	<polygon class="st0" points="95,27.2 95,27.4 95,27.6 95,27.8 95,28 95,28.2 95,28.4 94.9,28.8 94.9,29.3 94.9,30.8 94.9,31.4 
		94.9,31.9 94.9,32.5 94.9,33.1 94.9,33.7 94.9,34.2 94.9,35.4 94.8,36.6 94.8,37.8 94.8,38.9 94.7,40.1 94.7,41.2 94.6,42.3 
		94.6,43.4 94.4,47.2 94.3,48.1 94.3,49 94.2,49.9 94.2,50.8 94.2,51.8 94.2,52.7 94.1,53.7 94.1,54.6 94.1,57.4 94.1,58.3 
		94.1,59.2 94,61.2 94,61.7 94,62.3 94,62.8 94,63.5 94,63.9 94,64.3 94,64.8 94,65.2 94,65.6 94,66.1 94.1,66.5 94.1,66.9 
		94.1,67.1 94.1,67.3 94.1,67.5 94.2,67.7 94.2,67.8 94.2,68 94.2,68.1 94.2,68.3 94.3,68.4 94.3,68.5 94.3,68.6 94.3,68.6 
		94.3,68.7 94.4,68.7 94.4,68.7 94.4,68.7 94.4,68.8 94.4,68.8 94.4,68.8 94.4,68.8 94.4,68.8 94.4,68.9 94.4,68.9 94.4,68.9 
		94.4,68.9 94.4,68.9 94.4,68.9 94.4,68.9 94.5,68.9 94.5,68.9 94.5,68.9 94.5,68.9 94.5,68.9 94.5,68.9 94.5,68.9 94.5,68.9 
		94.5,68.9 94.5,68.9 94.5,68.9 94.5,68.9 94.5,68.9 94.5,68.9 94.5,68.9 94.5,68.9 94.5,68.9 94.5,69 94.5,69 94.5,69 94.5,69 
		94.5,69 94.5,69 94.5,69 94.5,69 94.6,69 94.6,69 94.6,69 94.6,69 94.6,69 94.6,69 94.6,69 94.6,69 94.6,69 94.6,69 94.6,69 
		94.6,69 94.6,69 94.6,69 94.6,68.9 94.6,68.9 94.6,68.9 94.6,68.9 94.6,68.9 94.6,68.9 94.6,68.9 94.6,68.9 94.6,68.9 94.6,68.9 
		94.6,68.9 94.7,68.9 94.7,68.9 94.7,68.9 94.7,68.9 94.7,68.9 94.7,68.9 94.7,68.9 94.7,68.9 94.7,68.9 94.7,68.9 94.7,68.8 
		94.7,68.8 94.7,68.8 94.8,68.8 94.8,68.8 94.8,68.8 94.8,68.7 94.8,68.7 94.9,68.7 94.9,68.6 94.9,68.5 95,68.4 95,68.4 95,68.3 
		95.1,68.2 95.1,68.1 95.1,68 95.2,67.9 95.2,67.6 95.3,67.4 95.4,67.2 95.4,66.9 95.5,66.6 95.5,66.4 95.6,66.1 95.6,65.9 
		95.7,65.7 95.7,65.4 95.7,65.2 95.7,64.9 95.8,64.7 95.8,64.4 95.8,64.2 95.8,63.9 95.8,63.7 95.8,63.4 95.8,63.2 95.8,62.9 
		95.8,62.7 95.8,62.4 95.8,61.9 95.8,61.4 95.8,60.9 95.8,59.4 95.8,58.9 95.8,58.4 95.8,57.9 95.8,57.4 95.8,56.9 95.8,56.4 
		95.8,55.9 95.8,55.3 95.8,54.8 95.8,54.3 95.9,53.3 96,51.3 96,50.8 96,50.3 96,49.5 96.1,48.8 96.1,48 96.1,47.3 96.1,46.5 
		96.1,45.8 96.1,45.1 96.1,44.3 96.1,43.6 96.1,42.8 96.1,42.1 96.1,41.3 96.1,40.6 96.1,39.8 96,38.4 96,36.9 96,35.5 95.8,31.2 
		95.8,29.8 95.8,28.4 95.8,27.7 95.7,27.1 95.7,26.8 95.7,26.6 95.7,26.4 95.7,26.3 95.7,26.1 95.7,26 95.7,26 95.7,25.9 95.7,25.9 
		95.7,25.8 95.7,25.8 95.7,25.8 95.7,25.8 95.6,25.8 95.6,25.8 95.6,25.7 95.6,25.7 95.6,25.7 95.6,25.7 95.6,25.7 95.6,25.7 
		95.6,25.7 95.6,25.7 95.6,25.7 95.6,25.7 95.6,25.7 95.6,25.7 95.6,25.7 95.6,25.7 95.6,25.7 95.6,25.7 95.6,25.7 95.6,25.7 
		95.6,25.7 95.6,25.7 95.6,25.7 95.6,25.7 95.6,25.7 95.6,25.7 95.6,25.7 95.6,25.7 95.6,25.7 95.6,25.7 95.6,25.7 95.6,25.7 
		95.6,25.7 95.6,25.7 95.6,25.7 95.6,25.7 95.6,25.7 95.6,25.7 95.6,25.7 95.6,25.7 95.6,25.7 95.6,25.7 95.6,25.7 95.6,25.7 
		95.6,25.7 95.6,25.7 95.6,25.7 95.6,25.7 95.6,25.7 95.6,25.7 95.6,25.7 95.6,25.7 95.5,25.7 95.5,25.7 95.5,25.7 95.5,25.7 
		95.5,25.7 95.5,25.7 95.5,25.7 95.5,25.7 95.5,25.7 95.5,25.7 95.5,25.7 95.5,25.7 95.5,25.7 95.5,25.7 95.5,25.7 95.5,25.7 
		95.5,25.7 95.5,25.7 95.5,25.7 95.5,25.7 95.5,25.7 95.5,25.7 95.5,25.7 95.5,25.7 95.5,25.7 95.5,25.7 95.5,25.7 95.5,25.7 
		95.5,25.7 95.5,25.7 95.5,25.7 95.5,25.7 95.5,25.7 95.4,25.7 95.4,25.7 95.4,25.7 95.4,25.8 95.4,25.8 95.4,25.8 95.4,25.8 
		95.4,25.8 95.4,25.9 95.3,25.9 95.3,25.9 95.3,26 95.3,26 95.3,26 95.3,26.1 95.2,26.1 95.2,26.2 95.2,26.3 95.2,26.4 95.1,26.5 
		95.1,26.6 95.1,26.8 95.1,26.9 95,27.1 	"/>
</g>
<g id="SPLINE_92_">
	<path class="st1" d="M70.3,35.7c0.1,4.3,0.4,8.8,0.5,14.5s0.1,12.4,0.6,16.7c0.1,1,0.3,1.9,0.4,1.6c0.2-0.5,0.4-3.9,0.6-6.5
		c0.1-1.9,0.1-3.3,0.2-4.8c0.1-5.6,0.2-12.1-0.1-18c-0.1-2.7-0.3-5.4-0.4-8.2c-0.1-1.7-0.2-3.5-0.3-5.2c-0.1-1.1-0.2-2.2-0.3-2.3
		c-0.7-0.5-0.8-0.4-0.9,1.7S70.2,31.4,70.3,35.7z"/>
</g>
<g id="HATCH_377_">
	<polygon class="st0" points="70.3,35.7 70.3,36.6 70.3,37.4 70.3,38.2 70.4,39 70.4,39.9 70.4,40.7 70.6,44.3 70.6,45.2 70.7,46.2 
		70.7,47.2 70.7,48.2 70.7,49.2 70.8,50.2 70.9,59.1 70.9,60.2 71,60.7 71,61.2 71,61.8 71,62.3 71,62.8 71.1,63.3 71.1,63.8 
		71.1,64.3 71.1,64.7 71.2,65.2 71.2,65.7 71.3,66.1 71.3,66.5 71.3,67 71.4,67.3 71.4,67.5 71.4,67.7 71.5,67.8 71.5,68 71.5,68.1 
		71.5,68.2 71.5,68.3 71.6,68.3 71.6,68.4 71.6,68.4 71.6,68.4 71.6,68.5 71.6,68.5 71.6,68.5 71.6,68.5 71.6,68.5 71.6,68.5 
		71.6,68.5 71.6,68.5 71.6,68.5 71.6,68.5 71.6,68.5 71.6,68.5 71.6,68.6 71.6,68.6 71.6,68.6 71.6,68.6 71.6,68.6 71.6,68.6 
		71.6,68.6 71.6,68.6 71.6,68.6 71.6,68.6 71.6,68.6 71.7,68.6 71.7,68.6 71.7,68.6 71.7,68.6 71.7,68.6 71.7,68.6 71.7,68.6 
		71.7,68.6 71.7,68.6 71.7,68.6 71.7,68.6 71.7,68.6 71.7,68.6 71.7,68.6 71.7,68.6 71.7,68.6 71.7,68.6 71.7,68.6 71.7,68.6 
		71.7,68.6 71.7,68.6 71.7,68.6 71.7,68.6 71.7,68.6 71.7,68.6 71.7,68.6 71.7,68.6 71.7,68.6 71.7,68.6 71.7,68.6 71.7,68.6 
		71.7,68.6 71.7,68.6 71.7,68.6 71.7,68.6 71.7,68.6 71.7,68.5 71.7,68.5 71.7,68.5 71.7,68.5 71.7,68.5 71.7,68.5 71.7,68.5 
		71.7,68.5 71.7,68.5 71.7,68.5 71.7,68.5 71.7,68.5 71.8,68.5 71.8,68.4 71.8,68.4 71.8,68.3 71.8,68.3 71.8,68.2 71.8,68.1 
		71.9,67.9 71.9,67.8 71.9,67.6 71.9,67.3 72,66.9 72,66.5 72.1,66 72.1,65.6 72.1,65.1 72.2,64.6 72.2,64 72.2,63.5 72.2,63 
		72.3,62.5 72.3,62 72.3,61.3 72.4,60.7 72.4,60 72.4,59.5 72.4,58.9 72.4,58.3 72.5,57.2 72.5,56.1 72.5,55.1 72.5,54 72.5,52.9 
		72.5,51.7 72.5,50.6 72.6,49.5 72.6,48.3 72.6,47.2 72.6,46 72.5,44.9 72.5,43.7 72.5,43.1 72.5,42.6 72.5,42 72.5,41.4 72.5,40.9 
		72.4,40.3 72.4,39.7 72.4,39.2 72.4,38.7 72.4,38.2 72.3,37.1 72.3,36.1 72.2,35.1 72.1,33.1 72,32 72,31 71.8,28.4 71.8,27.8 
		71.8,27.1 71.7,26.5 71.7,25.9 71.7,25.4 71.6,25 71.6,24.7 71.6,24.5 71.6,24.3 71.5,24.2 71.5,24.1 71.5,23.9 71.5,23.8 
		71.5,23.8 71.5,23.7 71.5,23.7 71.5,23.7 71.5,23.7 71.4,23.7 71.4,23.7 71.4,23.6 71.4,23.6 71.4,23.6 71.4,23.6 71.4,23.6 
		71.4,23.6 71.4,23.6 71.4,23.6 71.4,23.6 71.4,23.6 71.4,23.6 71.4,23.6 71.4,23.6 71.4,23.6 71.4,23.6 71.4,23.6 71.4,23.6 
		71.4,23.6 71.4,23.6 71.4,23.6 71.4,23.6 71.3,23.5 71.3,23.5 71.2,23.5 71.2,23.4 71.2,23.4 71.2,23.4 71.1,23.4 71.1,23.4 
		71.1,23.4 71.1,23.4 71.1,23.4 71.1,23.4 71,23.4 71,23.4 71,23.3 71,23.3 71,23.3 71,23.3 71,23.3 71,23.3 71,23.3 71,23.3 
		71,23.3 71,23.3 71,23.3 70.9,23.3 70.9,23.3 70.9,23.3 70.9,23.3 70.9,23.3 70.9,23.3 70.9,23.3 70.9,23.3 70.9,23.3 70.9,23.3 
		70.9,23.3 70.9,23.3 70.9,23.3 70.9,23.3 70.9,23.3 70.9,23.3 70.9,23.3 70.9,23.3 70.9,23.3 70.9,23.3 70.9,23.3 70.9,23.3 
		70.9,23.4 70.8,23.4 70.8,23.4 70.8,23.4 70.8,23.4 70.8,23.4 70.8,23.4 70.8,23.4 70.8,23.4 70.8,23.4 70.8,23.4 70.8,23.4 
		70.8,23.4 70.8,23.4 70.8,23.4 70.8,23.4 70.8,23.4 70.8,23.4 70.8,23.4 70.8,23.4 70.8,23.4 70.8,23.4 70.8,23.4 70.8,23.4 
		70.8,23.4 70.7,23.5 70.7,23.5 70.7,23.5 70.7,23.5 70.7,23.5 70.7,23.5 70.7,23.5 70.7,23.6 70.7,23.6 70.7,23.6 70.7,23.7 
		70.7,23.7 70.6,23.7 70.6,23.8 70.6,23.9 70.6,24 70.6,24.1 70.6,24.2 70.6,24.3 70.5,24.4 70.5,24.6 70.5,24.9 70.5,25.3 
		70.4,25.7 70.4,26.2 70.4,26.7 70.4,27.2 70.3,27.8 70.3,28.4 70.3,29 70.3,29.7 70.3,30.4 70.3,31.1 70.3,31.8 70.3,32.6 
		70.3,33.4 70.3,34.1 70.3,34.9 	"/>
</g>
<g id="SPLINE_93_">
	<path class="st1" d="M49,38.5c0,3.4,0,7,0,11.4s0.1,9.7,0.8,13.6c0.2,1.3,0.6,2.5,0.7,2c0.1-0.4,0.2-2,0.2-3.5
		c0.1-10,0.3-18.1,0.1-27.2c0-1.7-0.1-3.5-0.3-5.2c-0.2-1.3-0.5-2.6-0.7-2.4c-0.7,0.7-0.7,1.2-0.7,3C49.1,32,49,35.1,49,38.5z"/>
</g>
<g id="HATCH_378_">
	<polygon class="st0" points="49,38.5 49,39.8 49,41.1 49,42.4 49,43.8 49,45.2 49,46.7 49,48.3 49,49.9 49,51.6 49,52.4 49.1,53.3 
		49.1,54.2 49.1,55.1 49.1,55.5 49.1,56 49.2,56.4 49.2,56.9 49.2,57.3 49.2,57.7 49.2,58.2 49.3,58.6 49.3,59 49.3,59.5 49.4,59.9 
		49.4,60.3 49.4,60.7 49.5,61.1 49.5,61.5 49.6,61.9 49.6,62.3 49.7,62.7 49.8,63.1 49.8,63.4 49.9,63.7 49.9,63.9 50,64.1 50,64.4 
		50.1,64.6 50.1,64.8 50.2,65 50.2,65.1 50.2,65.2 50.3,65.3 50.3,65.3 50.3,65.4 50.3,65.4 50.3,65.4 50.3,65.4 50.3,65.5 
		50.3,65.5 50.4,65.5 50.4,65.5 50.4,65.5 50.4,65.5 50.4,65.5 50.4,65.5 50.4,65.5 50.4,65.5 50.4,65.5 50.4,65.5 50.4,65.5 
		50.4,65.5 50.4,65.5 50.4,65.5 50.4,65.5 50.4,65.5 50.4,65.5 50.4,65.5 50.4,65.6 50.4,65.6 50.4,65.6 50.4,65.6 50.4,65.6 
		50.4,65.6 50.4,65.6 50.4,65.6 50.4,65.6 50.4,65.6 50.4,65.6 50.4,65.6 50.4,65.6 50.4,65.6 50.4,65.6 50.5,65.6 50.5,65.6 
		50.5,65.6 50.5,65.6 50.5,65.6 50.5,65.6 50.5,65.6 50.5,65.6 50.5,65.6 50.5,65.6 50.5,65.6 50.5,65.5 50.5,65.5 50.5,65.5 
		50.5,65.5 50.5,65.5 50.5,65.5 50.5,65.5 50.5,65.5 50.5,65.5 50.5,65.5 50.5,65.5 50.5,65.5 50.5,65.5 50.5,65.5 50.5,65.5 
		50.5,65.5 50.5,65.5 50.5,65.5 50.5,65.5 50.5,65.5 50.5,65.5 50.5,65.5 50.5,65.4 50.5,65.4 50.5,65.4 50.6,65.4 50.6,65.3 
		50.6,65.3 50.6,65.2 50.6,65.1 50.6,65 50.6,64.8 50.6,64.6 50.6,64.4 50.7,64.1 50.7,63.9 50.7,63.6 50.7,63.1 50.7,62.5 
		50.8,58.3 50.8,54.8 50.8,53.1 50.8,51.4 50.9,49.7 50.9,48.1 50.9,46.4 50.9,44.8 50.9,43.1 50.9,41.5 50.9,39.8 50.9,38.1 
		50.8,36.4 50.8,34.7 50.8,34.1 50.8,33.4 50.8,33.1 50.8,32.8 50.8,32.4 50.8,32.1 50.7,31.8 50.7,31.5 50.7,31.1 50.7,30.8 
		50.6,30.5 50.6,30.2 50.6,29.9 50.5,29.5 50.5,29.3 50.4,29.1 50.4,28.8 50.4,28.6 50.3,28.4 50.3,28.2 50.2,28 50.2,27.8 
		50.1,27.6 50.1,27.5 50.1,27.5 50,27.4 50,27.4 50,27.3 50,27.3 50,27.3 50,27.3 50,27.2 50,27.2 50,27.2 50,27.2 49.9,27.2 
		49.9,27.2 49.9,27.2 49.9,27.2 49.9,27.2 49.9,27.2 49.9,27.2 49.9,27.2 49.9,27.2 49.9,27.2 49.9,27.2 49.9,27.2 49.9,27.2 
		49.9,27.2 49.9,27.2 49.9,27.2 49.9,27.2 49.9,27.1 49.9,27.1 49.9,27.1 49.9,27.1 49.9,27.1 49.9,27.1 49.9,27.1 49.9,27.1 
		49.9,27.1 49.9,27.1 49.9,27.1 49.9,27.1 49.9,27.1 49.9,27.1 49.9,27.1 49.9,27.1 49.9,27.1 49.9,27.1 49.8,27.1 49.8,27.1 
		49.8,27.1 49.8,27.1 49.8,27.1 49.8,27.1 49.8,27.1 49.8,27.2 49.8,27.2 49.8,27.2 49.8,27.2 49.8,27.2 49.8,27.2 49.8,27.2 
		49.7,27.3 49.7,27.4 49.6,27.4 49.6,27.5 49.5,27.5 49.5,27.6 49.5,27.6 49.5,27.6 49.4,27.7 49.4,27.7 49.4,27.7 49.4,27.8 
		49.4,27.8 49.4,27.8 49.3,27.9 49.3,27.9 49.3,27.9 49.3,28 49.3,28 49.3,28.1 49.3,28.1 49.2,28.2 49.2,28.2 49.2,28.3 49.2,28.4 
		49.2,28.5 49.2,28.6 49.2,28.7 49.1,28.8 49.1,29 49.1,29.3 49.1,29.5 49.1,29.8 49.1,30.2 49.1,30.9 49.1,31.8 49,32.7 49,33.7 
		49,34.9 49,36 49,37.2 	"/>
</g>
<g id="HATCH_423_">
	<path class="st2" d="M109,86.3l-0.2,0.1l-0.2,0.1l-0.2,0.1l-0.2,0.1l-0.2,0.1l-0.1,0.1l-0.1,0.1l-0.1,0.1l-0.1,0.1l-0.1,0.1
		l-0.1,0.1l-0.1,0.1l-0.1,0.1l-0.1,0.1l-0.1,0.1l-0.1,0.1l-0.1,0.1l-0.1,0.1l-0.1,0.1l-0.1,0.1l-0.1,0.1l-0.1,0.1l-0.1,0.1l-0.1,0.1
		l-0.1,0.1l-0.1,0.1l-0.1,0.1l-0.1,0.1l-0.1,0.1l-0.1,0.1l-0.1,0.1l-0.1,0.1l-0.1,0.1l-0.1,0.1l-0.1,0.1l-0.1,0.1l-0.1,0.1l-0.1,0.1
		l-0.1,0.1l-0.1,0.1l-0.1,0.1l0,0.1l0,0.1l0,0.1l0,0.1l0,0.1l0,0.1l0,0.1l0,0.1l0,0.1l0,0.1l0,0.1l0,0.1l0,0.1l0,0.1l0,0.1l0,0.1
		l0,0.1l0,0.1l0,0.1l0,0.1l0,0.1l0,0.1l0,0.1l0,0.1l0,0.1l0,0.1l0,0.1l0,0.1l0,0.1l0,0.1l0,0.1l0,0.1l0,0.1l0,0.1l0,0.2l0,0.2l0,0.2
		l0,0.2l0,0.2l0,0.2l0,0.2l0,0.2l0,0.1l0,0.1l0,0.1l0,0.1l0,0.1l0,0.1l0,0.1l0,0.1l0.1,0.2l0.1,0.2l0.1,0.2l0.1,0.2l0.1,0.2l0.1,0.2
		l0.1,0.2l0.1,0.2l0.1,0.2l0.1,0.2l0.1,0.2l0.1,0.2l0.1,0.2l0.1,0.2l0.1,0.2l0.1,0.2l0.1,0.1l0.1,0.1l0.1,0.1l0.1,0.1l0.1,0.1
		l0.1,0.1l0.1,0.1l0.1,0.1l0.1,0.1l0.1,0.1l0.1,0.1l0.1,0.1l0.1,0.1l0.1,0.1l0.1,0.1l0.1,0.1l0.1,0.1l0.1,0.1l0.1,0.1l0.1,0.1
		l0.1,0.1l0.1,0.1l0.1,0.1l0.1,0.1l0.1,0.1l0.1,0.1l0.1,0.1l0.1,0.1l0.1,0.1l0.1,0.1l0.1,0.1l0.1,0l0.1,0l0.1,0l0.2,0.1l0.2,0.1
		l0.2,0.1l0.2,0.1l0.2,0.1l0.2,0.1l0.2,0.1l0.2,0l0.2,0l0.2,0l0.2,0l0.2,0l0.2,0l0.2,0l0.2,0l0.2,0l0.2,0l0.2,0l0.2,0l0.2,0l0.2,0
		l0.2,0l0.2,0l0.2,0l0.2,0l0.2,0l0.2,0l0.2,0l0.2,0l0.2,0l0.2,0l0.2,0l0.2,0l0.2-0.1l0.2-0.1l0.2-0.1l0.2-0.1l0.2-0.1l0.2-0.1
		l0.2-0.1l0.2-0.1l0.2-0.1l0.1,0l0.1,0l0.1-0.1l0.1-0.1l0.1-0.1l0.1-0.1l0.1-0.1l0.1-0.1l0.1-0.1l0.1-0.1l0.2-0.1l0.2-0.1l0.2-0.1
		l0.1-0.1l0.1-0.1l0.1-0.1l0.1-0.1l0.1-0.1l0.1-0.1l0.1-0.1l0.1-0.1l0.1-0.1l0.1-0.1l0.1-0.1l0.1-0.1l0.1-0.1l0.1-0.1l0.1-0.1
		l0.1-0.1l0.1-0.1l0.1-0.1l0.1-0.1l0.1-0.1l0.1-0.1l0-0.1l0-0.1l0-0.1l0-0.1l0-0.1l0-0.1l0-0.1l0-0.1l0-0.2l0-0.2l0-0.2l0-0.2l0-0.1
		l0-0.1l0-0.1l0-0.1l0-0.1l0-0.1l0-0.1l0-0.1l0-0.1l0-0.1l0-0.1l0-0.1l0-0.1l0-0.1l0-0.1l0-0.1l0-0.2l-0.1-0.2l-0.1-0.2l-0.1-0.2
		l-0.1-0.2l-0.1-0.2l-0.1-0.2l-0.1-0.2l-0.1-0.2l-0.1-0.2l-0.1-0.2l-0.1-0.2l-0.1-0.1l-0.1-0.1l-0.1-0.1l-0.1-0.1l-0.1-0.3l-0.1-0.3
		l-0.1-0.2l-0.1-0.2l-0.1-0.2l-0.1-0.2l-0.1-0.2l-0.1-0.2l-0.1-0.2l-0.1-0.2l-0.2-0.2l-0.2-0.2l-0.2-0.2l-0.2-0.2l-0.1-0.1l-0.1-0.1
		l-0.1-0.1l-0.1-0.1l-0.1-0.1l-0.1-0.1l-0.1-0.1l-0.1-0.1l-0.1-0.1l-0.1-0.1l-0.1-0.1l-0.1-0.1l-0.1-0.1l-0.1-0.1l-0.1-0.1l-0.1-0.1
		l-0.1-0.1l-0.1-0.1l-0.1-0.1l-0.1-0.1l-0.1-0.1l-0.1-0.1l-0.1-0.1l-0.1-0.1l-0.1-0.1l-0.1-0.1l-0.1-0.1l-0.1-0.1l-0.2-0.1l-0.2-0.1
		l-0.2-0.1l-0.2-0.1l-0.2-0.1l-0.2-0.1l-0.2-0.1l-0.2-0.1l-0.1,0l-0.2,0l-0.2,0l-0.2,0l-0.2,0l-0.2,0l-0.2,0l-0.2,0l-0.1,0l-0.1,0
		l-0.1,0l-0.1,0l-0.1,0l-0.1,0l-0.1,0l-0.1,0l-0.1,0l-0.1,0l-0.1,0l-0.1,0l-0.1,0l-0.1,0l-0.1,0l-0.1,0l-0.1,0l-0.1,0l-0.1,0l-0.1,0
		l-0.1,0l-0.1,0l-0.1,0l-0.1,0l-0.2,0.1l-0.2,0.1l-0.2,0.1L109,86.3z M110.5,89.4l0.1-0.1l0.1-0.1l0.1,0l0.1,0l0.1,0l0.1,0l0.1,0
		l0.1,0l0.1,0l0.1,0l0.1,0l0.1,0l0.1,0l0.1,0l0.1,0l0.1,0l0.1,0l0.1,0l0.1,0l0.1,0l0.1,0l0.1,0l0.1,0l0.1,0l0.1,0l0.1,0l0.1,0l0.1,0
		l0.1,0l0.1,0l0.1,0l0.1,0l0.1,0l0.1,0l0.1,0l0.1,0l0.1,0l0.1,0l0.1,0l0.1,0l0.1,0l0.1,0l0.1,0l0.1,0l0.1,0l0.1,0.1l0.1,0.1l0.1,0.1
		l0.1,0.1l0.1,0.1l0.1,0.1l0.1,0.1l0.1,0.1l0.1,0.1l0.1,0.1l0.1,0.1l0.1,0.1l0.1,0.1l0.1,0.1l0.1,0.1l0.1,0.1l0.1,0.1l0.1,0.1
		l0.1,0.1l0.2,0.2l0.2,0.2l0.2,0.2l0.2,0.2l0.2,0.2l0.2,0.2l0.2,0.2l0.1,0.1l0.1,0.1l0.1,0.1l0.1,0.1l0.1,0.1l0.1,0.1l0.1,0.1
		l0.1,0.1l0.1,0.1l0.1,0.1l0.1,0.1L118,94l0.1,0.1l0.1,0.1l0.1,0.1l0.1,0.1l0.1,0.1l0.1,0.1l0.1,0.1l0.1,0.1l0,0.1l0,0.1l0,0.1
		l0,0.1l0,0.1l0,0.1l0,0.1l0,0.1l0,0.1l0,0.1l0,0.1l0,0.1l0,0.1l0,0.1l0,0.1l0,0.1l0,0.1l0,0.1l0,0.1l0,0.1l0,0.1l0,0.1l0,0.1l0,0.1
		l0,0.1l0,0l0,0l0,0l0,0l0,0l0,0l0,0l0,0l0,0l0,0l0,0l0,0l0,0l0,0l0,0l0,0l0,0l0,0l0,0l0,0l0,0l0,0l0,0l0,0l0,0l0,0l0,0l0,0l0,0l0,0
		l0,0l0,0l0,0l0,0l0,0l0,0l-0.1,0.1l-0.1,0.1l-0.1,0.1l-0.1,0l-0.1,0l-0.1,0l-0.1,0l-0.1,0l-0.1,0l-0.1,0l-0.1,0l-0.1,0l-0.1,0
		l-0.1,0l-0.1,0l-0.1,0l-0.1,0l-0.1,0l-0.1,0l-0.1,0l-0.1,0l-0.1,0l-0.1,0l-0.1,0l-0.1,0l-0.1,0l-0.1,0l-0.1,0l-0.1,0l-0.1,0l-0.1,0
		l-0.1,0l-0.1,0l-0.1,0l-0.1,0l-0.1,0l-0.1,0l-0.1,0l-0.1,0l-0.1,0l-0.1,0l-0.1,0l-0.1,0l-0.1,0l-0.1-0.1l-0.1-0.1l-0.1-0.1
		l-0.1-0.1l-0.1-0.1l-0.1-0.1l-0.1-0.1l-0.1-0.1l-0.1-0.1l-0.1-0.1l-0.1-0.1l-0.1-0.1l-0.1-0.1l-0.1-0.1l-0.1-0.1l-0.1-0.1l-0.1-0.1
		l-0.1-0.1l-0.1-0.1l-0.1-0.1l-0.1-0.1l-0.1-0.1l-0.1-0.1l-0.1-0.1l-0.1-0.1l-0.1-0.1l-0.1-0.1l-0.1-0.1l-0.1-0.1l-0.1-0.1l-0.1-0.1
		l-0.1-0.1l-0.1-0.1l-0.1-0.1l-0.1-0.1l-0.1-0.1l-0.1-0.1l-0.1-0.1l0-0.1l0-0.1l0-0.1l0-0.1l0-0.1l0-0.1l-0.1-0.2l-0.1-0.2l-0.1-0.2
		l-0.1-0.2l-0.1-0.2l0-0.2l0-0.2l0-0.2l0-0.2l0-0.2l0-0.2l0-0.2l0-0.2l0-0.2l0-0.2l0-0.1l0-0.1l0-0.1l0-0.1l0-0.1l0-0.1l0-0.1l0-0.1
		l0-0.1l0-0.1l0-0.1l0-0.1l0-0.1l0-0.1l0-0.1l0-0.1l0-0.1l0-0.1l0-0.1l0-0.1l0-0.1l0-0.1l0-0.1l0-0.1l0-0.1l0,0l0,0l0,0l0,0l0,0l0,0
		l0,0l0,0l0,0l0,0l0,0l0,0l0,0l0,0l0,0l0.1-0.1l0.1-0.1l0.1-0.1l0.1-0.1l0.1-0.1l0.1-0.1l0.1-0.1l0.1-0.1L110.5,89.4z"/>
</g>
<g id="SPLINE_97_">
	<path class="st3" d="M110.5,89.4c-1.2,0.6-2,1.4-1.9,3.3c0.1,1.9,1.1,4.8,3.5,6.1c2.4,1.3,6.1,0.9,6.8-1.2c0.6-2-1.8-5.7-3.7-7.3
		S111.7,88.8,110.5,89.4z"/>
</g>
<g id="SPLINE_98_">
	<path class="st3" d="M109,86.3c-0.2,0.1-0.5,0.2-0.7,0.4c-0.3,0.2-0.5,0.3-0.7,0.5c-0.2,0.2-0.5,0.4-0.7,0.6
		c-0.2,0.2-0.4,0.5-0.6,0.7c-0.2,0.3-0.4,0.6-0.5,0.8c-0.2,0.3-0.3,0.6-0.4,0.9c-0.1,0.3-0.2,0.6-0.3,1c-0.1,0.3-0.2,0.7-0.2,1
		c-0.1,0.8-0.2,1.5-0.2,2.3c0,0.4,0.1,0.9,0.1,1.3c0.1,0.4,0.1,0.7,0.2,1.1c0.1,0.5,0.3,1,0.5,1.4c0.2,0.5,0.5,0.9,0.9,1.4
		c0.4,0.5,0.8,0.9,1.2,1.2c0.2,0.2,0.5,0.4,0.7,0.5c0.3,0.2,0.5,0.3,0.8,0.4c0.3,0.1,0.6,0.2,0.8,0.3c0.3,0.1,0.6,0.2,0.8,0.2
		c0.3,0.1,0.6,0.1,0.9,0.2c0.3,0,0.6,0.1,0.9,0.1c0.6,0.1,1.1,0.1,1.7,0c0.6,0,1.1-0.1,1.7-0.2c0.3-0.1,0.6-0.1,0.8-0.2
		c0.3-0.1,0.6-0.2,0.8-0.3c0.3-0.1,0.6-0.2,0.8-0.4c0.3-0.1,0.6-0.3,0.8-0.5c0.4-0.3,0.8-0.6,1.2-1c0.3-0.3,0.5-0.6,0.7-0.9
		c0.2-0.3,0.4-0.7,0.5-1c0.1-0.3,0.2-0.7,0.3-1.1c0-0.2,0.1-0.4,0.1-0.6c0-0.3,0-0.6,0-1c0-0.3-0.1-0.6-0.1-0.9
		c-0.1-0.3-0.1-0.6-0.2-0.8c-0.1-0.3-0.2-0.5-0.3-0.8c-0.1-0.3-0.2-0.5-0.3-0.7c-0.2-0.3-0.3-0.7-0.5-1c-0.3-0.4-0.5-0.9-0.8-1.3
		c-0.2-0.3-0.4-0.6-0.7-0.9c-0.2-0.2-0.3-0.4-0.5-0.6c-0.3-0.4-0.7-0.7-1-1c-0.3-0.3-0.6-0.5-0.9-0.7c-0.4-0.3-0.7-0.5-1.1-0.7
		c-0.4-0.2-0.9-0.4-1.4-0.6c-0.4-0.1-0.8-0.2-1.2-0.3c-0.4,0-0.8-0.1-1.2,0c-0.4,0-0.7,0.1-1.1,0.2c-0.3,0.1-0.6,0.2-0.9,0.3
		C109.5,86.1,109.3,86.2,109,86.3z"/>
</g>
<g id="SPLINE_99_">
	<path class="st3" d="M55.9,87.6c-0.4-0.1-0.8-0.1-1.2-0.2c-0.3,0-0.7-0.1-1-0.1c-0.4,0-0.7,0-1.1,0c-0.3,0-0.6,0-0.9,0.1
		c-0.4,0-0.8,0.1-1.2,0.2c-0.4,0.1-0.9,0.3-1.3,0.4c-0.4,0.2-0.9,0.4-1.3,0.7c-0.4,0.3-0.8,0.7-1.1,1c-0.3,0.4-0.6,0.8-0.9,1.2
		c-0.1,0.2-0.3,0.5-0.4,0.7c-0.2,0.5-0.4,0.9-0.5,1.4c-0.1,0.2-0.1,0.5-0.2,0.7c0,0.3-0.1,0.5-0.1,0.8c0,0.5,0,1.1,0,1.6
		c0.1,0.7,0.2,1.5,0.5,2.2c0.2,0.5,0.5,1.1,0.8,1.6c0.2,0.3,0.4,0.6,0.6,0.8c0.2,0.3,0.5,0.5,0.7,0.8c0.3,0.2,0.5,0.5,0.8,0.7
		c0.3,0.2,0.6,0.4,0.8,0.6c0.6,0.4,1.2,0.7,1.8,1c0.6,0.3,1.3,0.5,2,0.7c0.7,0.2,1.3,0.3,2,0.4c0.7,0.1,1.4,0.1,2.1,0.1
		c0.4,0,0.7-0.1,1.1-0.1c0.3-0.1,0.6-0.1,1-0.2c0.4-0.1,0.7-0.2,1.1-0.4c0.4-0.2,0.8-0.4,1.2-0.7c0.3-0.2,0.5-0.4,0.8-0.7
		c0.2-0.2,0.4-0.5,0.6-0.8c0.4-0.5,0.7-1,0.9-1.6c0.2-0.5,0.4-1.1,0.5-1.6c0.1-0.3,0.1-0.5,0.1-0.8c0.1-0.5,0.1-1,0.1-1.5
		c0-0.5,0-1-0.1-1.6c0-0.3-0.1-0.5-0.1-0.8c-0.1-0.5-0.2-1-0.4-1.5c-0.2-0.5-0.4-0.9-0.6-1.4c-0.3-0.4-0.5-0.8-0.9-1.2
		c-0.3-0.4-0.7-0.7-1.1-1c-0.4-0.3-0.7-0.5-1.1-0.7c-0.3-0.2-0.6-0.3-0.9-0.4c-0.4-0.1-0.7-0.2-1.1-0.3c-0.3-0.1-0.7-0.2-1-0.2
		C56.6,87.7,56.3,87.6,55.9,87.6z"/>
</g>
<g id="POLYLINE_785_">
	<path class="st1" d="M1.5,0.8L1.5,0.8L1.3,0.9l0,0l0,0c0,0,0,0,0,0s0,0,0,0s0,0,0,0l0,0l0,0l0,0l0,0c0,0,0,0,0,0l0,0l0,0l0,0
		c0,0,0,0,0,0l0,0c0,0,0,0,0,0l0,0c0,0,0,0,0,0s0,0,0,0s0,0,0,0l0,0l0,0l0,0l0,0l0,0l0,0l0,0c0,0,0,0,0,0l0,0l0,0l0,0c0,0,0,0,0,0
		l0,0l0,0c0,0,0,0,0,0l0,0l0,0l0,0l0,0l0,0l0,0l0,0l0,0c0,0,0,0,0,0l0,0l0,0l0,0l0,0l0,0l0,0c0,0,0,0,0,0s0,0,0,0s0,0,0,0l0,0l0,0
		l0,0l0,0l0,0c0,0,0,0,0,0s0,0,0,0l0,0l0,0c0,0,0,0,0,0s0,0,0,0l0,0c0,0,0,0,0,0l0,0l0,0l0,0l0,0c0,0,0,0,0,0l0,0c0,0,0,0,0,0l0,0
		l0,0c0,0,0,0,0,0s0,0,0,0l0,0l0,0c0,0,0,0,0,0l0,0l0,0l0,0c0,0,0,0,0,0l0,0c0,0,0,0,0,0c0,0,0,0,0,0c0,0,0,0,0,0c0,0,0,0,0,0
		c0,0,0,0,0,0l0,0l0,0c0,0,0,0,0,0l0,0l0,0l0,0l0,0l0,0l0,0l0,0l0,0l0,0l0,0l0,0l0,0l0,0l0,0l0,0l0,0l0,0l0,0l0,0l0,0l0,0l0,0l0,0
		l0,0l0,0c0,0,0,0,0,0S3,4.1,3,4.1l0.6,0l0.6,0c0,0,0.6,0,0.6,0s0.6,0,0.6,0l0.6,0c0,0,0.6,0,0.6,0s0.5,0,0.5,0s0.5,0,0.5,0l0.5,0
		c0,0,0.5,0,0.5,0l0.5,0l0.5,0l0.5,0l0.5,0l0.4,0l0.4,0c0,0,0.2,0,0.2,0s0.2,0,0.2,0l0.2,0l0.2,0l0.2,0l0.2,0c0,0,0.2,0,0.2,0
		s0.2,0,0.2,0l0.2,0l0.2,0l0.2,0c0,0,0.2,0,0.2,0s0.2,0,0.2,0l0.2,0c0,0,0.2,0,0.2,0s0.2,0,0.2,0l0.2,0l0.2,0l0.2,0l0.2,0
		c0,0,0.1,0,0.1,0l0.1,0l0.1,0l0.1,0l0.1,0l0.1,0c0,0,0.1,0,0.1,0l0.1,0.1l0.1,0l0.1,0l0.1,0l0.1,0l0.1,0.1l0.1,0.1L17.4,5
		c0,0,0.1,0.1,0.1,0.1s0.1,0.1,0.1,0.1l0.1,0.1l0.1,0.1l0.1,0.1l0.1,0.1L18,5.3l0.1,0.1l0.1,0.1l0.1,0.1l0.1,0.1
		c0,0,0.1,0.1,0.1,0.1l0.1,0.1c0,0,0.1,0.1,0.1,0.1l0.1,0.1l0.1,0.1L18.7,6l0.1,0.1l0.1,0.1l0.1,0.1L19,6.4c0,0,0.1,0.1,0.1,0.1
		s0.1,0.1,0.1,0.1s0.1,0.1,0.1,0.1l0.1,0.1l0.1,0.1L19.3,7l0.1,0.1c0,0,0.1,0.1,0.1,0.1s0.1,0.1,0.1,0.1s0.1,0.1,0.1,0.1l0.1,0.1
		l0.1,0.1l0.1,0.2L19.8,8l0.1,0.2l0.1,0.2c0,0,0.1,0.2,0.1,0.2S20,8.7,20,8.7l0,0.2l0,0.2c0,0,0.1,0.2,0.1,0.2l0.1,0.2l0,0.2l0,0.2
		l0,0.2c0,0,0,0.2,0,0.2s0,0.2,0,0.2l0,0.2l0,0.2l0,0.2l0,0.2c0,0,0,0.2,0,0.2l0.1,0.4l0.1,0.4l0.1,0.5c0,0,0.1,0.5,0.1,0.5
		s0.1,0.5,0.1,0.5l0.1,0.5c0,0,0.1,0.7,0.1,0.7s0.1,0.7,0.1,0.7s0.1,0.7,0.1,0.7l0.1,0.7l0.1,0.6l0.1,0.6l0.1,1.2
		c0,0,0.2,2.5,0.2,2.5l0.1,0.9l0.1,0.9l0.1,0.9l0.1,0.9l0.1,1l0.1,1l0.1,1l0.1,1l0.1,0.5l0.1,0.5c0,0,0.1,0.5,0.1,0.5l0.1,0.5
		l0.1,0.5c0,0,0.1,0.5,0.1,0.5l0.1,0.5l0.1,0.5l0.1,0.5c0,0,0.1,0.5,0.1,0.5s0.1,0.5,0.1,0.5l0.1,0.5l0.1,0.5l0.1,0.5l0.1,0.5
		l0.1,0.5c0,0,0.1,0.5,0.1,0.5l0.1,0.5l0.1,0.5c0,0,0.1,0.5,0.1,0.5l0.1,0.5c0,0,0.1,0.5,0.1,0.5s0.1,0.5,0.1,0.5s0.1,0.5,0.1,0.5
		l0.1,0.5c0,0,0.1,0.5,0.1,0.5s0.1,0.5,0.1,0.5l0.1,0.5l0.1,0.5l0.1,0.5l0.1,0.5l0.1,0.5l0.1,0.5l0.1,0.5l0.1,0.5l0.1,0.5l0.1,0.5
		c0,0,0.1,0.5,0.1,0.5l0.2,0.5c0,0,0.2,0.5,0.2,0.5l0.2,0.5l0.2,0.5l0.2,0.5l0.2,0.5l0.2,0.5l0.2,0.5l0.2,0.5c0,0,0.2,0.5,0.2,0.5
		l0.2,0.5l0.2,0.5l0.2,0.5l0.2,0.5c0,0,0.2,0.5,0.2,0.5s0.2,0.5,0.2,0.5s0.2,0.5,0.2,0.5l0.2,0.5l0.1,0.3c0,0,0.1,0.3,0.1,0.3
		s0.1,0.3,0.1,0.3l0.1,0.3l0.1,0.3l0.1,0.3l0.1,0.3c0,0,0.1,0.3,0.1,0.3l0.2,0.4l0.2,0.4l0.1,0.2l0.1,0.2l0.1,0.2l0.1,0.2l0.1,0.2
		c0,0,0.1,0.2,0.1,0.2l0.1,0.2c0,0,0.1,0.2,0.1,0.2s0.1,0.2,0.1,0.2l0.1,0.2l0.1,0.2l0.1,0.2l0.1,0.2l0.1,0.2l0.1,0.2l0.1,0.2
		l0.1,0.2l0.1,0.2l0.1,0.2c0,0,0.1,0.2,0.1,0.2s0.2,0.2,0.2,0.2l0.2,0.2l0.2,0.2l0.2,0.2l0.2,0.2l0.2,0.2l0.2,0.2l0.2,0.2l0.2,0.2
		l0.2,0.2l0.2,0.2l0.2,0.2L36,67l0.2,0.2l0.2,0.2l0.2,0.2l0.2,0.2L37,68l0.2,0.2l0.2,0.2l0.2,0.2l0.2,0.2l0.2,0.2
		c0,0,0.2,0.2,0.2,0.2l0.2,0.2l0.2,0.2c0,0,0.2,0.2,0.2,0.2l0.2,0.2l0.2,0.2c0,0,0.2,0.2,0.2,0.2s0.2,0.2,0.2,0.2s0.2,0.2,0.2,0.2
		s0.2,0.2,0.2,0.2l0.2,0.2l0.2,0.2c0,0,0.2,0.2,0.2,0.2l0.3,0.2l0.3,0.2l0.3,0.2l0.3,0.2l0.3,0.2l0.3,0.2l0.3,0.2l0.3,0.1l0.3,0.1
		l0.3,0.1l0.3,0.1l0.3,0.1c0,0,0.3,0.1,0.3,0.1l0.3,0.1l0.3,0.1c0,0,0.3,0.1,0.3,0.1l0.3,0.1l0.3,0.1l0.3,0.1c0,0,0.3,0.1,0.3,0.1
		l0.3,0.1c0,0,0.3,0.1,0.3,0.1s0.3,0.1,0.3,0.1l0.3,0.1l0.3,0.1l0.3,0.1l0.3,0.1c0,0,0.3,0.1,0.3,0.1s0.3,0.1,0.3,0.1l0.3,0.1
		c0,0,0.3,0.1,0.3,0.1s0.3,0.1,0.3,0.1l0.3,0.1l0.3,0.1l0.3,0.1l0.3,0.1l0.3,0.1c0,0,0.3,0.1,0.3,0.1l0.3,0.1l0.3,0.1l0.3,0.1
		l0.3,0.1l0.3,0.1l0.3,0.1l0.3,0.1l0.3,0.1l0.3,0.1l0.3,0.1l0.3,0.1l0.3,0.1l0.3,0.1c0,0,0.3,0.1,0.3,0.1s0.4,0.1,0.4,0.1l0.4,0.1
		l0.4,0.1c0,0,0.4,0.1,0.4,0.1s0.4,0.1,0.4,0.1s0.4,0.1,0.4,0.1l0.4,0.1l0.4,0.1l0.4,0.1l0.4,0.1l0.4,0.1c0,0,0.4,0.1,0.4,0.1
		l0.4,0.1l0.4,0.1l0.4,0c0,0,0.4,0,0.4,0l0.6,0.1c0,0,0.6,0.1,0.6,0.1l0.6,0.1c0,0,0.6,0.1,0.6,0.1s0.6,0.1,0.6,0.1l0.6,0.1
		c0,0,0.6,0,0.6,0l0.6,0l0.6,0l0.6,0l0.6,0l0.6,0l0.6,0l0.6,0l0.6,0l0.6,0l0.6,0c0,0,0.6,0,0.6,0s0.6,0,0.6,0s0.6,0,0.6,0l0.6,0
		l0.6,0l0.6,0l0.6,0l0.7,0l0.7,0l0.7,0l0.7,0l0.8,0c0,0,0.8,0,0.8,0l1.6,0l1.6,0l3.7-0.1l2.1-0.1l1.1,0l1.1,0l1.1,0l1.1,0l1.2,0
		l1.2,0l1.2-0.1l1.2-0.1l0.7,0c0,0,0.7,0,0.7,0l0.7,0l0.7,0l0.7,0l0.7,0l0.7,0c0,0,0.7,0,0.7,0l0.6,0c0,0,0.6,0,0.6,0s0.6,0,0.6,0
		l0.6-0.1l0.6-0.1l0.6-0.1l0.6-0.1l0.6-0.1c0,0,0.6-0.1,0.6-0.1s0.6-0.1,0.6-0.1s0.6-0.1,0.6-0.1s0.6-0.1,0.6-0.1l0.6-0.1l0.6-0.1
		l0.6-0.1l0.6-0.1l0.7-0.1l0.7-0.1c0,0,0.7-0.1,0.7-0.1l0.7-0.1l0.7-0.1c0,0,0.7-0.1,0.7-0.1l0.7-0.1l0.7-0.1l0.6-0.1l0.6-0.1
		l0.6-0.1l0.6-0.1l0.6-0.1l0.3-0.1l0.3-0.1l0.3-0.1l0.3-0.1l0.3-0.1c0,0,0.3-0.1,0.3-0.1s0.3-0.1,0.3-0.1l0.3-0.1l0.3-0.1l0.3-0.1
		l0.3-0.1c0,0,0.3-0.1,0.3-0.1l0.3-0.1l0.3-0.1l0.3-0.1l0.3-0.1l0.3-0.1l0.3-0.1l0.3-0.1c0,0,0.3-0.1,0.3-0.1s0.3-0.1,0.3-0.1
		l0.3-0.1l0.3-0.1l0.3-0.1l0.3-0.1c0,0,0.3-0.1,0.3-0.1l0.3-0.1l0.3-0.1c0,0,0.3-0.1,0.3-0.1l0.3-0.1l0.3-0.1l0.3-0.1l0.3-0.1
		l0.3-0.1l0.3-0.1l0.3-0.1l0.3-0.1c0,0,0.3-0.1,0.3-0.1l0.3-0.1c0,0,0.2-0.1,0.2-0.1l0.2-0.2l0.2-0.2l0.2-0.2l0.2-0.2
		c0,0,0.2-0.2,0.2-0.2l0.2-0.2c0,0,0.2-0.2,0.2-0.2l0.2-0.2c0,0,0.2-0.2,0.2-0.2l0.2-0.2c0,0,0.1-0.1,0.1-0.1l0.1-0.1l0.1-0.1
		l0.1-0.1l0.1-0.1l0.1-0.1l0.1-0.1l0.1-0.1l0.1-0.1c0,0,0.1-0.1,0.1-0.1l0.1-0.1l0.1-0.1l0.1-0.1l0.1-0.1l0.1-0.1l0.1-0.1l0.2-0.2
		l0.2-0.2l0.2-0.2l0.2-0.2l0.2-0.2l0.1-0.2l0.1-0.2l0.1-0.2l0.1-0.2l0.1-0.2l0.1-0.2l0.1-0.2c0,0,0.1-0.2,0.1-0.2s0.1-0.2,0.1-0.2
		l0.1-0.2l0.1-0.2l0.1-0.2l0.1-0.2l0.1-0.2l0.1-0.2l0.1-0.2l0.1-0.2l0.1-0.2l0.1-0.2l0.1-0.2c0,0,0.1-0.2,0.1-0.2l0.1-0.4l0.1-0.4
		l0.1-0.4l0.3-1.1l0.6-2.2l0.2-0.7l0.2-0.7l0.2-0.7l0.1-0.4l0.1-0.4c0,0,0.2-0.6,0.2-0.6l0.1-0.6c0,0,0.1-0.6,0.1-0.6l0.1-0.3
		c0,0,0.1-0.3,0.1-0.3l0.1-0.4l0.1-0.4l0.1-0.4c0,0,0.1-0.4,0.1-0.4l0.1-0.4l0.1-0.4l0.1-0.4l0.1-0.4l0.1-0.4l0.1-0.4l0.1-0.4
		l0.1-0.4l0.1-0.4l0.1-0.4l0.1-0.4l0.1-0.4l0.1-0.4l0-0.4c0,0,0-0.4,0-0.4s0-0.4,0-0.4l0.1-0.8l0.1-0.8l0.1-0.5l0-0.5l0.1-1
		c0,0,0.1-0.8,0.1-0.8l0.1-0.8l0.1-0.8l0.1-0.8c0,0,0.1-0.8,0.1-0.8l0.1-0.8l0.1-0.8l0.1-0.8l0-0.8l0-0.8l0-0.8l0-0.8l0-0.7
		c0,0,0-0.7,0-0.7l0-0.7l0-0.7l0-0.5l0-0.5l0-0.4c0,0,0-0.2,0-0.2s0-0.2,0-0.2l0-0.3l0-0.3l0-0.2l0-0.2l0-0.2l0-0.2l0-0.2l0-0.2
		l0-0.2c0,0,0-0.2,0-0.2l0-0.2l0-0.2l0-0.1c0,0,0-0.1,0-0.1l0-0.1c0,0,0-0.1,0-0.1l0-0.1l0-0.1c0,0,0-0.1,0-0.1s0-0.1,0-0.1l0-0.1
		l0-0.1l0-0.1l0-0.1c0,0-0.1-0.1-0.1-0.1l-0.1-0.1l-0.1-0.1l-0.1-0.1l-0.1-0.1l-0.1-0.1l-0.1-0.1l-0.1-0.1l-0.1-0.1l-0.1-0.1
		l-0.1-0.1l-0.1-0.1l-0.1-0.1l-0.1-0.1l-0.1-0.1c0,0-0.1-0.1-0.1-0.1l-0.1-0.1l-0.1-0.1l-0.1-0.1l-0.1-0.1l-0.1-0.1
		c0,0-0.1-0.1-0.1-0.1l-0.1-0.1l-0.1-0.1l-0.1-0.1c0,0-0.1-0.1-0.1-0.1s-0.1-0.1-0.1-0.1l-0.1-0.1l-0.1-0.1l-0.1-0.1l-0.1-0.1
		l-0.1-0.1c0,0-0.1-0.1-0.1-0.1l-0.1-0.1l-0.2-0.2l-0.2-0.2l-0.2-0.2c0,0-0.2-0.2-0.2-0.2l-0.2-0.2l-0.2-0.2l-0.2-0.1l-0.2-0.1
		l-0.2-0.1l-0.2-0.1l-0.2-0.1l-0.2-0.1c0,0-0.2-0.1-0.2-0.1l-0.2-0.1l-0.3-0.1l-0.3-0.1c0,0-0.3-0.1-0.3-0.1l-0.3-0.1l-0.3-0.1
		l-0.3-0.1l-0.3-0.1l-0.3-0.1l-0.3-0.1c0,0-0.3-0.1-0.3-0.1s-0.3-0.1-0.3-0.1l-0.3-0.1l-0.3-0.1l-0.3-0.1l-0.3-0.1l-0.3-0.1
		l-0.3-0.1l-0.3-0.1l-0.3-0.1l-0.3-0.1l-0.3-0.1l-0.3-0.1l-0.3-0.1l-0.3-0.1c0,0-0.3-0.1-0.3-0.1l-0.3-0.1l-0.3-0.1
		c0,0-0.3-0.1-0.3-0.1l-0.3-0.1l-0.3,0l-0.3,0l-0.3,0l-0.3,0l-0.3,0l-0.3,0l-0.3,0l-0.3,0l-0.3,0l-0.3,0c0,0-0.3,0-0.3,0l-0.3,0
		l-0.3,0l-0.3,0c0,0-0.6-0.1-0.6-0.1l-0.6-0.1c0,0-0.6,0-0.6,0s-0.6,0-0.6,0l-0.6,0l-0.6,0l-0.7,0l-0.7,0l-0.7,0l-0.7,0
		c0,0-0.7,0-0.7,0l-0.7,0l-0.7,0l-0.7,0c0,0-0.7,0-0.7,0l-0.7,0c0,0-0.7,0-0.7,0l-0.7,0l-0.7,0c0,0-0.7,0-0.7,0l-0.7,0l-0.7,0
		l-0.8,0c0,0-0.8,0-0.8,0l-0.8,0l-0.8,0l-0.8,0l-0.8,0l-0.8,0l-0.8,0l-1.6,0.1l-1.6,0.1l-1.5,0.1l-5.8,0.3c0,0-1.4,0.1-1.4,0.1
		l-1.4,0.1l-1.4,0.1L89,14.6l-2.7,0.1l-2.7,0.1l-1.3,0.1L81,15l-1.4,0.1c0,0-1.4,0.1-1.4,0.1l-1.4,0.1c0,0-1.4,0.1-1.4,0.1
		s-1.4,0.1-1.4,0.1s-0.7,0.1-0.7,0.1s-0.7,0.1-0.7,0.1s-0.7,0.1-0.7,0.1s-0.7,0.1-0.7,0.1l-0.7,0.1c0,0-0.7,0.1-0.7,0.1l-1.2,0.1
		l-0.6,0.1c0,0-0.6,0.1-0.6,0.1L66.6,16L66,16.1l-0.6,0.1l-0.6,0.1l-0.6,0.1l-0.6,0.1c0,0-0.6,0.1-0.6,0.1l-0.6,0.1l-0.6,0.1
		l-0.6,0.1c0,0-0.6,0.1-0.6,0.1s-0.6,0.1-0.6,0.1l-0.6,0.1L58.7,17c0,0-0.6,0.1-0.6,0.1l-0.6,0.1l-0.6,0.1l-0.6,0.1l-0.6,0.1
		c0,0-0.6,0.1-0.6,0.1l-0.6,0.1l-0.6,0.1l-0.6,0.1l-0.6,0.1c0,0-0.6,0.1-0.6,0.1l-0.6,0.1l-0.6,0.1l-0.6,0.1c0,0-0.6,0.1-0.6,0.1
		l-0.6,0.1l-0.6,0.1l-0.6,0.1l-0.6,0.1l-0.6,0.1L46,19.4c0,0-0.6,0.1-0.6,0.1l-0.6,0.2c0,0-0.6,0.2-0.6,0.2S43.6,20,43.6,20L43,20.2
		l-0.6,0.2l-0.6,0.2l-0.6,0.2l-0.6,0.2l-0.1,0c0,0-0.1,0-0.1,0l-0.1,0l-0.1,0c0,0-0.1,0-0.1,0l-0.1,0l-0.1,0l0,0l0,0l0,0l0,0l0,0
		l0,0c0,0,0,0,0,0s0,0,0,0l0,0l0,0l0,0l0,0l0,0l0,0l0,0l0,0l0,0l0,0l0,0l0,0c0,0,0,0,0,0l0,0c0,0,0,0,0,0s0,0,0,0l0,0l0,0
		c0,0,0,0,0,0l0,0l0,0l0,0c0,0,0,0,0,0l0,0c0,0,0,0,0,0l0,0c0,0,0,0,0,0l0,0l0,0l0,0l0,0l0,0l0,0l0,0c0,0,0,0,0,0l0,0l0,0l0,0
		c0,0,0,0,0,0l0,0.1l0,0.1c0,0,0,0.1,0,0.1l0,0.1l0,0.1c0,0,0,0.1,0,0.1s0,0.1,0,0.1s0,0.1,0,0.1l0,0l0,0c0,0,0,0,0,0c0,0,0,0,0,0
		c0,0,0,0,0,0c0,0,0,0,0,0c0,0,0,0,0,0c0,0,0,0,0,0c0,0,0,0,0,0c0,0,0,0,0,0c0,0,0,0,0,0l0,0l0,0l0,0c0,0,0,0,0,0l0,0l0,0l0,0
		c0,0,0,0,0,0l0.1,0l0.1,0l0.1,0c0,0,0.1,0,0.1,0l0.1,0l0.1,0l0.1,0l0.1,0l0.1,0l0.1,0l0.2,0l0.2,0l0.8-0.2l0.8-0.2
		c0,0,0.8-0.1,0.8-0.1l0.8-0.1l0.8-0.1c0,0,0.8-0.1,0.8-0.1s0.8-0.1,0.8-0.1S48,23,48,23s0.8-0.1,0.8-0.1l0.8-0.1l0.8-0.1l0.8-0.1
		l0.8-0.1l0.8-0.1l0.8-0.1c0,0,0.8-0.1,0.8-0.1l0.8-0.1l0.8-0.1l0.8-0.1c0,0,0.8-0.1,0.8-0.1s0.8-0.1,0.8-0.1l0.8-0.1l0.8-0.1
		l0.8-0.1c0,0,0.8-0.1,0.8-0.1s0.8-0.1,0.8-0.1s0.8-0.1,0.8-0.1l0.8-0.1l0.8-0.1c0,0,0.8-0.1,0.8-0.1l0.8-0.1l0.8-0.1l0.8,0l0.8,0
		l0.8,0c0,0,0.8,0,0.8,0l1.7-0.1c0,0,1.7-0.1,1.7-0.1l1.7-0.1l1.7-0.1l3.5-0.2l3.5-0.2l1.8-0.1c0,0,1.8-0.1,1.8-0.1l1.8-0.1l1.9-0.1
		c0,0,1.9-0.1,1.9-0.1l1.9-0.1c0,0,1.9-0.1,1.9-0.1l1.9-0.1l3.9-0.2l2-0.1l2-0.1l1-0.1l1,0c0,0,1,0,1,0l1,0l1,0l1,0l1,0l1,0l1,0
		l0.9,0l0.9,0l0.9,0l0.9,0l0.9,0l0.9,0l0.4,0l0.4,0l0.4,0l0.4,0l0.4,0l0.4,0l0.4,0l0.4,0l0.4,0c0,0,0.4,0,0.4,0l0.4,0l0.4,0l0.4,0
		l0.4,0l0.4,0l0.4,0l0.4,0l0.4,0l0.4,0l0.4,0l0.4,0l0.4,0c0,0,0.4,0,0.4,0l0.4,0l0.4,0l0.4,0.1l0.4,0.1l0.4,0.1l0.3,0.1
		c0,0,0.3,0.1,0.3,0.1l0.3,0.1l0.3,0.1l0.3,0.1l0.3,0.1l0.3,0.1l0.3,0.1l0.3,0.1c0,0,0.3,0.1,0.3,0.1l0.3,0.1l0.3,0.1l0.3,0.1
		l0.3,0.1l0.3,0.1l0.3,0.1l0.3,0.1l0.3,0.1l0.2,0.1l0.2,0.1l0.2,0.1l0.2,0.1c0,0,0.1,0.1,0.1,0.1l0.1,0.1l0.1,0.1l0.1,0.1l0.1,0.1
		l0.1,0.1l0.1,0.1l0.1,0.1c0,0,0.1,0.1,0.1,0.1l0.1,0.1l0.1,0.1l0.1,0.1l0.1,0.1l0.1,0.1l0.1,0.1l0.1,0.1l0.1,0.1l0.1,0.1
		c0,0,0.1,0.1,0.1,0.1l0.1,0.1l0.1,0.1l0.1,0.1l0.1,0.1l0.1,0.1l0.1,0.1l0.1,0.1l0.1,0.1c0,0,0.1,0.1,0.1,0.1s0.1,0.1,0.1,0.1
		l0.1,0.1l0.1,0.1c0,0,0.1,0.1,0.1,0.1l0.1,0.1l0.1,0.1l0.1,0.1c0,0,0,0.1,0,0.1l0,0.1l0,0.1l0,0.1l0,0.1l0,0.1l0,0.1l0,0.1l0,0.1
		l0,0.1l0,0.1l0,0.1l0,0.1l0,0.2l0,0.2c0,0,0,0.2,0,0.2l0,0.2l0,0.2l0,0.2l0,0.2l0,0.2l0,0.2l0,0.2l0,0.2l0,0.2l0,0.5l0,0.5l0,0.8
		l0,0.9l0,0.9l-0.1,1c0,0-0.1,1-0.1,1l-0.1,1l-0.1,1.1c0,0,0,0.5,0,0.5l0,0.6l0,0.6l0,0.6l0,0.6l0,0.6l-0.1,0.6l-0.1,0.6l-0.1,0.6
		l-0.1,0.6l-0.1,0.6l-0.1,0.5l-0.1,0.5l-0.1,0.5l-0.1,0.5l-0.1,0.5c0,0-0.1,0.5-0.1,0.5l-0.1,0.5l0,0.3l0,0.3l-0.1,0.3l-0.1,0.3
		l-0.1,0.3l-0.1,0.3l-0.1,0.3l-0.1,0.3l-0.1,0.3l-0.1,0.3l-0.1,0.3l-0.1,0.3l-0.1,0.3c0,0-0.1,0.3-0.1,0.3l-0.1,0.5l-0.1,0.5
		c0,0-0.1,0.5-0.1,0.5l-0.1,0.5l-0.1,0.5l-0.1,0.4l-0.1,0.4c0,0-0.1,0.4-0.1,0.4l-0.1,0.4c0,0-0.1,0.4-0.1,0.4l-0.1,0.4l-0.1,0.4
		l-0.2,0.4l-0.2,0.4l-0.2,0.4l-0.2,0.4l-0.2,0.4l-0.2,0.4l-0.2,0.4l-0.2,0.4l-0.2,0.4l-0.2,0.4l-0.2,0.3l-0.3,0.7l-0.3,0.5l-0.3,0.5
		l-0.1,0.3l-0.1,0.3L136,61l-0.1,0.3l-0.1,0.3l-0.1,0.3l-0.1,0.3l-0.1,0.3l-0.1,0.3l-0.2,0.3l-0.2,0.3c0,0-0.2,0.2-0.2,0.2l-0.2,0.2
		l-0.2,0.2l-0.2,0.2l-0.2,0.2l-0.2,0.2l-0.2,0.2l-0.2,0.2l-0.1,0.1l-0.1,0.1l-0.1,0.1l-0.1,0.1l-0.1,0.1l-0.1,0.1l-0.1,0.1l-0.1,0.1
		l-0.1,0.1l-0.1,0.1l-0.1,0.1c0,0-0.1,0.1-0.1,0.1l-0.1,0.1l-0.1,0.1l-0.1,0.1l-0.1,0.1l-0.1,0.1l-0.1,0.1c0,0-0.1,0.1-0.1,0.1
		l-0.1,0.1l-0.1,0.1l-0.1,0.1l-0.1,0.1l-0.1,0.1l-0.1,0.1l-0.1,0.1l-0.1,0.1c0,0-0.1,0.1-0.1,0.1l-0.1,0.1l-0.1,0.1l-0.1,0.1
		l-0.1,0.1c0,0-0.3,0.1-0.3,0.1l-0.3,0.1c0,0-0.3,0.1-0.3,0.1l-0.3,0.1l-0.3,0.1l-0.3,0.1l-0.3,0.1l-0.3,0.1l-0.3,0.1
		c0,0-0.3,0.1-0.3,0.1l-0.3,0.1l-0.3,0.1l-0.3,0.1l-0.3,0.1l-0.3,0.1l-0.3,0.1l-0.3,0.1l-0.3,0.1l-0.3,0.1l-0.3,0.1l-0.3,0.1
		l-0.3,0.1l-0.3,0.1l-0.3,0.1l-0.4,0.1l-0.4,0.1l-0.4,0.1l-0.4,0.1l-0.4,0.1l-0.4,0.1l-0.4,0.1l-0.4,0.1c0,0-0.4,0-0.4,0l-0.4,0
		l-0.4,0l-0.4,0l-0.4,0l-0.4,0l-0.4,0l-0.8,0.1l-0.8,0.1l-0.8,0.1l-0.8,0.1l-0.8,0.1l-0.8,0.1l-0.8,0.1l-1.5,0.1l-1.5,0.1l-1.5,0.1
		l-1.5,0.1l-1.5,0.1l-3.1,0.2c0,0-6.2,0.3-6.2,0.3l-3.2,0.2l-1.6,0.1l-1.6,0.1L86.6,73L85,73.1l-2.8,0.2l-1.4,0.1l-0.7,0l-0.7,0
		c0,0-0.7,0-0.7,0l-0.7,0l-0.7,0l-0.7,0l-0.7,0l-0.7,0c0,0-0.7,0-0.7,0l-0.7,0c0,0-0.7,0-0.7,0s-0.7,0-0.7,0s-0.7,0-0.7,0
		s-0.7,0-0.7,0s-0.7,0-0.7,0s-0.7,0-0.7,0l-0.4,0c0,0-0.4,0-0.4,0s-0.4,0-0.4,0l-0.4,0l-0.4,0l-0.4,0c0,0-0.4,0-0.4,0l-0.4,0l-0.4,0
		l-0.4,0c0,0-0.4,0-0.4,0l-0.4,0l-0.4,0c0,0-0.4,0-0.4,0l-0.4,0l-0.4,0c0,0-0.4,0-0.4,0l-0.4,0l-0.4,0l-0.4,0l-0.4,0l-0.4,0
		c0,0-0.4,0-0.4,0L60.1,73L59.8,73l-0.4-0.1c0,0-0.4-0.1-0.4-0.1l-0.4-0.1l-0.4-0.1L58,72.7c0,0-0.4-0.1-0.4-0.1s-0.4-0.1-0.4-0.1
		S57,72.5,57,72.5l-0.3-0.1l-0.3-0.1l-0.3-0.1l-0.3-0.1L55.2,72l-0.3-0.1l-0.3-0.1l-0.3-0.1l-0.3-0.1l-0.3-0.1l-0.3-0.1l-0.3-0.1
		l-0.3-0.1l-0.3-0.1c0,0-0.3-0.1-0.3-0.1l-0.3-0.1l-0.3-0.1l-0.3-0.1l-0.3-0.1l-0.3-0.1l-0.3-0.1l-0.3-0.1c0,0-0.3-0.1-0.3-0.1
		l-0.3-0.2l-0.3-0.2l-0.3-0.2L48,69.3l-0.3-0.2l-0.3-0.2l-0.3-0.2c0,0-0.3-0.2-0.3-0.2l-0.3-0.2l-0.3-0.2L45.9,68
		c0,0-0.3-0.2-0.3-0.2l-0.3-0.2c0,0-0.3-0.2-0.3-0.2l-0.3-0.2c0,0-0.3-0.2-0.3-0.2l-0.3-0.2l-0.3-0.2c0,0-0.3-0.2-0.3-0.2
		s-0.3-0.2-0.3-0.2S43,65.9,43,65.9s-0.3-0.2-0.3-0.2l-0.3-0.2l-0.3-0.2L41.9,65l-0.3-0.3c0,0-0.3-0.3-0.3-0.3s-0.3-0.3-0.3-0.3
		S40.9,64,40.9,64s-0.2-0.2-0.2-0.2l-0.2-0.2c0,0-0.2-0.2-0.2-0.2l-0.2-0.2l-0.2-0.2l-0.2-0.2l-0.2-0.2l-0.2-0.2L39.2,62L39,61.7
		l-0.2-0.2l-0.2-0.2L38.4,61l-0.2-0.2l-0.2-0.3l-0.2-0.3L37.7,60l-0.2-0.3c0,0-0.2-0.3-0.2-0.3l-0.2-0.3L37,58.9l-0.2-0.3
		c0,0-0.2-0.3-0.2-0.3s-0.2-0.3-0.2-0.3l-0.2-0.3l-0.2-0.3L36,57.3L35.8,57l-0.2-0.3l-0.2-0.3l-0.2-0.3l-0.2-0.3L35,55.6l-0.2-0.3
		L34.7,55l-0.2-0.3c0,0-0.2-0.3-0.2-0.3l-0.1-0.3c0,0-0.1-0.3-0.1-0.3S34,53.5,34,53.5s-0.1-0.3-0.1-0.3l-0.1-0.3l-0.1-0.3l-0.1-0.3
		L33.3,52l-0.1-0.3c0,0-0.1-0.3-0.1-0.3S32.8,51,32.8,51s-0.1-0.3-0.1-0.3s-0.1-0.3-0.1-0.3l-0.1-0.3l-0.1-0.3l-0.1-0.3
		c0,0-0.1-0.3-0.1-0.3s-0.1-0.3-0.1-0.3l-0.1-0.3c0,0-0.1-0.3-0.1-0.3l-0.1-0.3c0,0-0.1-0.3-0.1-0.3l-0.1-0.3c0,0-0.1-0.3-0.1-0.3
		L31,46.2l-0.2-0.7l-0.2-0.7l-0.2-0.7l-0.2-0.7c0,0-0.2-0.7-0.2-0.7s-0.2-0.7-0.2-0.7s-0.2-0.7-0.2-0.7l-0.2-0.7l-0.2-0.7l-0.2-0.7
		c0,0-0.2-0.7-0.2-0.7s-0.2-0.7-0.2-0.7s-0.2-0.7-0.2-0.7l-0.2-0.7l-0.2-0.7l-0.2-0.7c0,0-0.2-0.7-0.2-0.7l-0.1-0.7l-0.1-0.7
		l-0.1-0.7c0,0-0.1-0.7-0.1-0.7L27,31.4l-0.1-0.7l-0.1-0.7c0,0-0.1-0.7-0.1-0.7l-0.1-0.6c0,0-0.1-0.6-0.1-0.6l-0.1-0.6l-0.1-0.6
		l-0.1-0.6c0,0-0.1-0.6-0.1-0.6L26,25l-0.1-0.5l-0.1-0.5l-0.1-0.9l-0.1-0.9l-0.1-0.9l-0.1-0.9l-0.1-0.9c0,0-0.3-2.5-0.3-2.5
		l-0.1-0.8l-0.1-0.8l-0.1-0.8L24.6,14l-0.1-0.4l-0.1-0.4l-0.1-0.4l-0.1-0.4l-0.1-0.4l-0.1-0.3l-0.1-0.3l-0.1-0.3
		c0,0-0.1-0.3-0.1-0.3S24,10.5,24,10.5l-0.1-0.3l-0.1-0.3l-0.1-0.3l-0.1-0.3l-0.1-0.3l-0.1-0.3l-0.1-0.3c0,0-0.1-0.3-0.1-0.3
		l-0.1-0.3l-0.1-0.3l-0.1-0.3L23,6.9c0,0-0.1-0.3-0.1-0.3l-0.1-0.3l-0.1-0.3l-0.1-0.2c0,0-0.1-0.1-0.1-0.1l-0.1-0.1l-0.1-0.1
		l-0.1-0.1l-0.1-0.1l-0.1-0.1l-0.1-0.1c0,0-0.1-0.1-0.1-0.1l-0.1-0.1L22,4.8l-0.1-0.1l-0.1-0.1l-0.1-0.1l-0.1-0.1l-0.1-0.1l-0.1-0.1
		L21.5,4c0,0-0.1-0.1-0.1-0.1l-0.1-0.1l-0.1-0.1l-0.1-0.1c0,0-0.1-0.1-0.1-0.1S21,3.5,21,3.5l-0.1-0.1c0,0-0.1-0.1-0.1-0.1l-0.1-0.1
		c0,0-0.1-0.1-0.1-0.1s-0.1-0.1-0.1-0.1S20.5,3,20.5,3l-0.1-0.1l-0.1-0.1c0,0-0.1-0.1-0.1-0.1l-0.1-0.1c0,0-0.1-0.1-0.1-0.1
		s-0.1-0.1-0.1-0.1l-0.1-0.1c0,0-0.1-0.1-0.1-0.1l-0.1-0.1l-0.1-0.1c0,0-0.1-0.1-0.1-0.1l-0.1-0.1l-0.1-0.1L19.1,2L19,2
		c0,0-0.1-0.1-0.1-0.1l-0.1-0.1l-0.1-0.1l-0.1-0.1l-0.1-0.1c0,0-0.1-0.1-0.1-0.1l-0.1-0.1l-0.1,0c0,0-0.1,0-0.1,0s-0.1,0-0.1,0
		s-0.2-0.1-0.2-0.1l-0.2-0.1l-0.3-0.1l-0.3-0.1L16.6,1L16.3,1c0,0-0.3-0.1-0.3-0.1s-0.3-0.1-0.3-0.1l-0.3-0.1l-0.3-0.1l-0.3,0
		l-0.3,0l-0.3,0c0,0-0.3,0-0.3,0s-0.3,0-0.3,0l-0.3,0c0,0-0.3,0-0.3,0l-0.3,0l-0.3,0l-0.3,0l-0.3,0l-0.3,0l-0.3,0c0,0-0.3,0-0.3,0
		s-0.3,0-0.3,0l-0.3,0l-0.3,0l-0.3,0l-0.4,0l-0.4,0l-0.4,0l-0.4,0c0,0-0.4,0-0.4,0l-0.4,0L7,0.4l-0.7,0l-0.8,0L4.7,0.6L3.9,0.6
		c0,0-0.8,0.1-0.8,0.1L2.3,0.8L1.5,0.8"/>
</g>
<g id="SPLINE_100_">
	<path class="st3" d="M55.4,90.9c-2.1-0.3-4.3-0.5-5.7,0.8c-1.4,1.4-2.1,4.3-0.5,6.6c1,1.4,2.8,2.5,4.5,2.8c1.6,0.3,3.1-0.1,4.2-1
		c1.9-1.6,2.7-4.8,2.1-6.7S57.5,91.2,55.4,90.9z"/>
</g>
<g id="HATCH_424_">
	<path class="st2" d="M55.9,87.6l-0.3,0l-0.3,0l-0.3,0l-0.3,0l-0.3,0l-0.3,0l-0.3,0l-0.3,0l-0.3,0l-0.3,0l-0.3,0l-0.1,0l-0.1,0
		l-0.2,0l-0.2,0l-0.2,0l-0.2,0l-0.2,0l-0.2,0l-0.2,0l-0.2,0l-0.2,0l-0.2,0l-0.2,0l-0.2,0l-0.2,0l-0.2,0L50,87.7l-0.2,0.1l-0.2,0.1
		l-0.2,0.1l-0.2,0.1L49.2,88l-0.2,0.1l-0.2,0.1l-0.2,0.1l-0.2,0.1l-0.2,0.1l-0.2,0.1l-0.2,0.1L48,88.7l-0.2,0.1L47.7,89l-0.1,0.1
		l-0.1,0.1l-0.1,0.1l-0.1,0.1L47,89.6l-0.1,0.1l-0.1,0.1l-0.1,0.1l-0.1,0.1l-0.1,0.2l-0.1,0.2l-0.1,0.2l-0.1,0.2L46,91l-0.1,0.2
		l-0.1,0.2l-0.1,0.2l-0.1,0.2l-0.1,0.2l-0.1,0.2l-0.1,0.2l-0.1,0.2l-0.1,0.2l-0.1,0.2l-0.1,0.2l0,0.2l0,0.2l0,0.2l0,0.2l0,0.2l0,0.2
		l0,0.2l0,0.2l0,0.2l0,0.2l0,0.2l0,0.2l0,0.2l0,0.2l0,0.2l0,0.2l0,0.2l0,0.1l0,0.1l0,0.1l0,0.1l0,0.1l0,0.1l0,0.1l0,0.1l0,0.1l0,0.1
		l0,0.1l0,0.1l0,0.1l0,0.1l0,0.1l0,0.1l0.1,0.2l0.1,0.2l0.1,0.2l0.1,0.2l0.1,0.2l0.1,0.2l0.1,0.2l0.1,0.2l0.1,0.1l0.1,0.1l0.1,0.1
		l0.1,0.1l0.1,0.1l0.1,0.1l0.1,0.1l0.1,0.1l0.1,0.1l0.1,0.1l0.1,0.1l0.1,0.1l0.1,0.1l0.1,0.1l0.1,0.1l0.1,0.1l0.1,0.1l0.1,0.1
		l0.1,0.1l0.1,0.1l0.1,0.1l0.1,0.1l0.1,0.1l0.1,0.1l0.1,0.1l0.1,0.1l0.2,0.2l0.2,0.2l0.2,0.1l0.2,0.1l0.2,0.1l0.2,0.1l0.2,0.1
		l0.2,0.1l0.2,0.1l0.2,0.1l0.2,0.1l0.2,0.1l0.2,0.1l0.2,0.1l0.2,0.1l0.2,0.1l0.2,0.1l0.3,0.1l0.3,0.1l0.2,0.1l0.2,0.1l0.2,0.1
		l0.2,0.1l0.3,0.1l0.3,0l0.3,0l0.3,0l0.3,0l0.3,0l0.3,0l0.3,0l0.1,0l0.1,0l0.1,0l0.1,0l0.1,0l0.1,0l0.1,0l0.1,0l0.1,0l0.1,0l0.1,0
		l0.1,0l0.1,0l0.1,0l0.1,0l0.1,0l0.1,0l0.1,0l0.1,0l0.1,0l0.1,0l0.1,0l0.1,0l0.1,0l0.1,0l0.1,0l0.1,0l0.1,0l0.1-0.1l0.1-0.1l0.1-0.1
		l0.1-0.1l0.2-0.1l0.2-0.1l0.2-0.1l0.2-0.1l0.2-0.1L61,104l0.1-0.1l0.1-0.1l0.1-0.1l0.1-0.1l0.1-0.1l0.1-0.1l0.1-0.1l0.1-0.1
		l0.1-0.1l0.1-0.1l0.1-0.1l0.1-0.1l0.1-0.1l0.1-0.1l0.1-0.1l0.1-0.1l0.1-0.1l0.1-0.1l0.1-0.1l0.1-0.1l0.1-0.1l0.1-0.1l0.1-0.1
		l0.1-0.1l0.1-0.1l0.1-0.1l0.1-0.1l0.1-0.1l0.1-0.1l0.1-0.1l0-0.1l0-0.1l0-0.1l0-0.1l0.1-0.2l0.1-0.2l0.1-0.2l0.1-0.2l0.1-0.2
		l0.1-0.2l0.1-0.2l0-0.2l0-0.2l0-0.2l0-0.2l0-0.2l0-0.2l0-0.2l0-0.2l0-0.2l0-0.2l0-0.2l0-0.2l0-0.2l0-0.2l0-0.2l0-0.2l0-0.2l0-0.2
		l0-0.2l0-0.2l0-0.2l0-0.2l0-0.2l0-0.2l0-0.2l0-0.2l0-0.2l0-0.2l0-0.2l-0.1-0.2l-0.1-0.2l-0.1-0.2L63.7,93l-0.1-0.2l-0.1-0.2
		l-0.1-0.2l-0.1-0.2l-0.1-0.2l-0.1-0.2l-0.1-0.2L63,91.6L63,91.4l-0.1-0.2l-0.1-0.2L62.6,91l-0.1-0.2l-0.1-0.1l-0.1-0.1l-0.1-0.1
		l-0.1-0.1l-0.1-0.1L61.8,90l-0.1-0.1l-0.1-0.1l-0.1-0.1l-0.1-0.1l-0.1-0.1L61,89.3l-0.1-0.1l-0.1-0.1L60.6,89L60.4,89l-0.1-0.1
		l-0.1-0.1L60,88.7l-0.1-0.1l-0.1-0.1l-0.1-0.1l-0.1-0.1l-0.1,0l-0.1,0l-0.1,0l-0.1,0l-0.1,0l-0.1,0l-0.1,0l-0.1,0l-0.1,0l-0.1,0
		l-0.1,0L58,88l-0.3-0.1l-0.3-0.1l-0.3-0.1L57,87.7l-0.3-0.1l-0.3,0l-0.3,0L55.9,87.6z M55.4,90.9l0.4,0.1l0.2,0l0.2,0l0.2,0l0.2,0
		l0.2,0l0.2,0l0.2,0l0.2,0l0.2,0l0.2,0.1l0.2,0.1l0.2,0.1l0.2,0.1l0.2,0.1l0.1,0l0.1,0l0.1,0l0.1,0l0.1,0l0.1,0l0.1,0l0.1,0l0.1,0
		l0.1,0l0.1,0l0.1,0l0.1,0.1l0.1,0.1l0.1,0.1l0.1,0.1l0.1,0.1l0.1,0.1l0.1,0.1l0,0.1l0,0.1l0,0.1l0,0.1l0,0.1l0,0.1l0,0.1l0,0.1
		l0,0.1l0,0.1l0,0.1l0,0.1l0,0.1l0,0.1l0,0.1l0,0.1l0,0.1l0,0.1l0,0.1l0,0.1l0,0.1l0,0.1l0,0.1l0,0.1l0,0.1l0,0.1l0,0.1l0,0.1l0,0.1
		l0,0.1l0,0.1l0,0.1l0,0.1l0,0.1l0,0.1l0,0.1l0,0.1l0,0.1l0,0.1l0,0.1l0,0.1l0,0.1l0,0.1l0,0.1l0,0.1l0,0.1l0,0.1l0,0.1l0,0.1l0,0.1
		l0,0.1l0,0.1l0,0.1l0,0.1L59.4,98l-0.1,0.1l-0.1,0.1l-0.1,0.1l-0.1,0.1l-0.1,0.1l-0.1,0.1L59,98.8L59,98.9L58.9,99l-0.1,0.1
		l-0.1,0.1l-0.1,0.1l-0.1,0.1l-0.1,0.1l-0.1,0.1l-0.1,0.1l-0.1,0.1l-0.1,0.1l-0.1,0.1l-0.1,0.1l-0.1,0.1l-0.1,0.1l-0.1,0.1l-0.1,0.1
		l-0.1,0.1l-0.1,0.1l-0.1,0.1l-0.1,0.1l-0.1,0.1l-0.1,0.1l-0.1,0.1l-0.1,0.1l-0.1,0.1l-0.1,0.1l-0.1,0l-0.1,0l-0.1,0l-0.1,0l-0.1,0
		l-0.1,0l-0.1,0l-0.1,0l-0.1,0l-0.1,0l-0.1,0l-0.1,0l-0.1,0l-0.1,0l-0.1,0l-0.1,0l-0.1,0l-0.1,0l-0.2,0l-0.2,0l-0.2,0l-0.2,0l-0.2,0
		l-0.2,0l-0.2-0.1l-0.2-0.1l-0.2-0.1l-0.2-0.1l-0.2-0.1l-0.2-0.1l-0.2-0.1l-0.2-0.1l-0.2-0.1l-0.2-0.1l-0.2-0.1l-0.1-0.1l-0.1-0.1
		l-0.1-0.1l-0.1-0.1l-0.1-0.1l-0.1-0.1l-0.1-0.1l-0.1-0.1l-0.1-0.1l-0.1-0.1l-0.1-0.1L49.7,99l-0.1-0.1l-0.1-0.1l-0.1-0.1l-0.1-0.1
		l-0.1-0.1l-0.1-0.1L49,98.1L49,98l-0.1-0.1l-0.1-0.1l-0.1-0.1l-0.1-0.1l-0.1-0.1l0-0.1l0-0.1l0-0.1l0-0.1l0-0.1l0-0.1l0-0.1l0-0.1
		l0-0.1l0-0.1l0-0.1l0-0.1l0-0.1l0-0.1l0-0.1l0-0.1l0-0.1l0-0.1l0-0.1l0-0.1l0-0.1l0-0.1l0-0.1l0-0.1l0-0.1l0-0.1l0-0.1l0-0.1l0-0.1
		l0-0.1l0-0.1l0-0.1l0-0.1l0-0.1l0-0.1l0-0.1l0-0.1l0-0.1l0-0.1l0-0.1l0-0.1l0-0.1l0-0.1l0.1-0.1l0.1-0.1l0.1-0.1l0.1-0.1l0.1-0.1
		l0.1-0.1l0.1-0.1l0.1-0.1l0.1-0.1l0.1-0.1l0.1-0.1l0.1-0.1l0.1-0.1l0.1-0.1l0.1-0.1l0.1-0.1l0.1-0.1l0.1-0.1l0.1-0.1l0.1,0l0.1,0
		l0.1,0l0.1,0l0.1,0l0.1,0l0.1,0l0.1,0l0.1,0l0.1,0l0.1,0l0.1,0l0.1,0l0.1,0l0.1,0l0.1,0l0.1,0l0.1,0l0.1,0l0.1,0l0.2,0l0.2,0l0.2,0
		l0.2,0l0.2,0l0.2,0l0.2,0l0.2,0l0.2,0l0.2,0l0.2,0l0.2,0l0.2,0l0.2,0l0.2,0l0.4,0.1L55.4,90.9z"/>
</g>
<g id="HATCH_425_">
	<polygon class="st0" points="1.5,0.8 1.4,0.9 1.3,0.9 1.3,1 1.2,1 1.2,1 1.2,1.1 1.1,1.1 1.1,1.1 1,1.2 1,1.2 1,1.2 0.9,1.3 
		0.9,1.3 0.9,1.3 0.8,1.4 0.8,1.4 0.8,1.4 0.7,1.5 0.7,1.5 0.7,1.5 0.7,1.6 0.6,1.6 0.6,1.6 0.6,1.7 0.6,1.7 0.6,1.7 0.5,1.8 
		0.5,1.8 0.5,1.9 0.5,1.9 0.5,1.9 0.5,2 0.4,2 0.4,2 0.4,2.1 0.4,2.1 0.4,2.1 0.4,2.2 0.4,2.2 0.4,2.3 0.4,2.3 0.4,2.3 0.4,2.4 
		0.4,2.4 0.4,2.4 0.4,2.5 0.4,2.5 0.4,2.5 0.4,2.6 0.4,2.6 0.4,2.6 0.4,2.7 0.4,2.7 0.4,2.8 0.4,2.8 0.4,2.8 0.4,2.9 0.4,2.9 
		0.4,2.9 0.4,3 0.4,3 0.4,3 0.4,3.1 0.4,3.1 0.5,3.1 0.5,3.2 0.5,3.2 0.5,3.2 0.5,3.3 0.5,3.3 0.5,3.3 0.5,3.3 0.6,3.4 0.6,3.4 
		0.6,3.4 0.6,3.5 0.6,3.5 0.6,3.5 0.7,3.6 0.7,3.6 0.7,3.6 0.7,3.6 0.7,3.7 0.8,3.7 0.8,3.7 0.8,3.7 0.8,3.8 0.8,3.8 0.9,3.8 
		0.9,3.8 0.9,3.9 0.9,3.9 1,3.9 1,3.9 1,3.9 1,4 1,4 1.1,4 1.1,4 1.1,4 1.1,4 1.2,4.1 1.2,4.1 1.2,4.1 1.2,4.1 1.3,4.1 1.3,4.1 
		1.3,4.1 1.3,4.2 1.4,4.2 1.4,4.2 1.4,4.2 1.5,4.2 1.5,4.2 1.5,4.2 1.5,4.2 1.6,4.2 1.6,4.2 1.6,4.2 1.6,4.2 1.7,4.2 1.7,4.2 
		1.7,4.2 1.7,4.2 1.8,4.2 1.8,4.2 3,4.1 3.6,4.1 4.2,4 4.8,4 5.4,4 6,3.9 6.6,3.9 7.1,3.9 7.6,3.8 8.1,3.8 8.6,3.8 9.1,3.8 9.6,3.8 
		10.1,3.8 10.6,3.8 11,3.8 11.4,3.8 11.7,3.8 11.9,3.8 12.1,3.8 12.3,3.8 12.5,3.8 12.8,3.9 13,3.9 13.2,3.9 13.4,3.9 13.7,4 
		13.9,4 14.1,4 14.3,4 14.5,4.1 14.6,4.1 14.8,4.1 15,4.2 15.1,4.2 15.3,4.2 15.5,4.3 15.6,4.3 15.7,4.3 15.9,4.4 16,4.4 16.2,4.5 
		16.3,4.5 16.4,4.6 16.6,4.6 16.7,4.6 16.8,4.7 16.9,4.7 17,4.8 17.1,4.8 17.2,4.9 17.4,5 17.5,5 17.6,5.1 17.6,5.1 17.7,5.2 
		17.8,5.2 17.9,5.3 18,5.3 18.1,5.4 18.1,5.5 18.2,5.5 18.3,5.6 18.4,5.7 18.4,5.7 18.5,5.8 18.6,5.9 18.6,5.9 18.7,6 18.8,6.1 
		18.8,6.2 18.9,6.3 19,6.4 19,6.5 19.1,6.6 19.1,6.6 19.2,6.7 19.3,6.9 19.3,7 19.4,7.1 19.5,7.2 19.5,7.3 19.6,7.5 19.6,7.6 
		19.7,7.7 19.7,7.9 19.8,8 19.9,8.2 19.9,8.3 20,8.5 20,8.7 20.1,8.8 20.1,9 20.2,9.2 20.2,9.4 20.3,9.5 20.3,9.7 20.4,9.9 
		20.4,10.1 20.4,10.3 20.5,10.5 20.5,10.7 20.6,10.9 20.6,11.2 20.7,11.4 20.7,11.8 20.8,12.3 20.9,12.7 20.9,13.2 21,13.7 
		21.1,14.1 21.1,14.8 21.2,15.5 21.3,16.1 21.3,16.8 21.4,17.4 21.4,18 21.5,19.3 21.7,21.8 21.8,22.6 21.9,23.5 22,24.4 22.1,25.3 
		22.2,26.3 22.3,27.2 22.4,28.2 22.5,29.1 22.5,29.6 22.6,30.1 22.7,30.6 22.7,31.1 22.8,31.6 22.9,32.1 22.9,32.6 23,33.1 
		23.1,33.6 23.1,34.1 23.2,34.6 23.3,35.1 23.4,35.6 23.5,36.1 23.5,36.6 23.6,37.1 23.7,37.6 23.8,38.2 23.9,38.7 24,39.2 
		24.1,39.7 24.2,40.2 24.3,40.7 24.4,41.3 24.5,41.8 24.7,42.3 24.8,42.8 24.9,43.3 25,43.8 25.1,44.3 25.3,44.8 25.4,45.3 
		25.5,45.9 25.7,46.4 25.8,46.9 25.9,47.4 26.1,47.9 26.2,48.4 26.4,48.9 26.5,49.4 26.7,49.9 26.9,50.4 27,50.9 27.2,51.4 
		27.4,51.9 27.6,52.4 27.7,52.9 27.9,53.4 28.1,53.8 28.3,54.3 28.5,54.8 28.7,55.3 28.9,55.7 29.1,56.2 29.3,56.7 29.5,57.2 
		29.7,57.4 29.8,57.7 29.9,58 30.1,58.2 30.2,58.5 30.3,58.8 30.5,59 30.6,59.3 30.8,59.7 31.1,60.2 31.2,60.4 31.3,60.6 31.5,60.8 
		31.6,61.1 31.7,61.3 31.9,61.5 32,61.7 32.1,61.9 32.3,62.1 32.4,62.4 32.5,62.6 32.7,62.8 32.8,63 33,63.2 33.1,63.4 33.2,63.6 
		33.4,63.8 33.5,64 33.7,64.2 33.8,64.4 34,64.6 34.1,64.8 34.3,65 34.4,65.2 34.6,65.4 34.8,65.6 34.9,65.8 35.1,66 35.3,66.2 
		35.4,66.4 35.6,66.6 35.8,66.8 36,67 36.2,67.2 36.4,67.4 36.6,67.6 36.8,67.8 37,68 37.2,68.2 37.4,68.4 37.7,68.6 37.9,68.8 
		38.1,69 38.4,69.2 38.6,69.4 38.8,69.6 39,69.8 39.3,70 39.5,70.2 39.8,70.4 40,70.5 40.2,70.7 40.5,70.9 40.7,71.1 41,71.2 
		41.2,71.4 41.5,71.6 41.7,71.7 42,71.9 42.2,72.1 42.5,72.2 42.8,72.4 43,72.5 43.3,72.7 43.5,72.8 43.8,73 44.1,73.1 44.3,73.2 
		44.6,73.4 44.9,73.5 45.1,73.7 45.4,73.8 45.7,73.9 45.9,74 46.2,74.2 46.5,74.3 46.7,74.4 47,74.5 47.3,74.6 47.6,74.8 47.8,74.9 
		48.1,75 48.4,75.1 48.7,75.2 49,75.3 49.2,75.4 49.5,75.5 49.8,75.6 50.1,75.7 50.4,75.8 50.6,75.9 50.9,76 51.2,76.1 51.5,76.2 
		51.8,76.2 52.1,76.3 52.4,76.4 52.7,76.5 52.9,76.6 53.2,76.6 53.5,76.7 53.8,76.8 54.1,76.9 54.4,76.9 54.7,77 55,77.1 55.3,77.1 
		55.6,77.2 55.9,77.3 56.3,77.4 56.7,77.4 57,77.5 57.4,77.6 57.8,77.6 58.2,77.7 58.5,77.8 58.9,77.8 59.3,77.9 59.6,77.9 60,78 
		60.4,78.1 60.8,78.1 61.1,78.2 61.5,78.2 62.1,78.3 62.7,78.3 63.3,78.4 63.9,78.5 64.5,78.5 65.1,78.6 65.7,78.6 66.3,78.7 
		66.9,78.7 67.5,78.7 68.1,78.8 68.7,78.8 69.3,78.8 69.9,78.9 70.5,78.9 71.1,78.9 71.7,78.9 72.3,78.9 72.9,78.9 73.5,78.9 
		74.1,79 74.7,79 75.3,79 75.9,79 76.6,79 77.3,79 78,79 78.7,78.9 79.5,78.9 80.3,78.9 81.9,78.9 83.5,78.9 87.2,78.8 89.3,78.7 
		90.3,78.7 91.4,78.7 92.4,78.6 93.5,78.6 94.7,78.6 95.9,78.5 97.1,78.5 98.3,78.4 99,78.4 99.6,78.3 100.3,78.3 101,78.3 
		101.7,78.2 102.3,78.2 103,78.1 103.7,78.1 104.3,78 104.9,78 105.5,77.9 106.2,77.9 106.8,77.8 107.4,77.8 108,77.7 108.6,77.7 
		109.2,77.6 109.9,77.5 110.5,77.5 111.2,77.4 111.8,77.3 112.4,77.3 113.1,77.2 113.7,77.1 114.5,77 115.2,76.9 115.9,76.8 
		116.7,76.7 117.4,76.6 118.1,76.5 118.9,76.4 119.6,76.2 120.3,76.1 120.9,76 121.6,75.9 122.2,75.8 122.9,75.6 123.2,75.5 
		123.5,75.5 123.8,75.4 124.1,75.3 124.5,75.3 124.8,75.2 125.1,75.1 125.4,75 125.7,74.9 126,74.9 126.3,74.8 126.6,74.7 127,74.6 
		127.3,74.5 127.6,74.4 127.9,74.3 128.2,74.2 128.5,74.1 128.8,74 129,73.9 129.3,73.8 129.6,73.7 129.9,73.6 130.2,73.5 
		130.5,73.4 130.8,73.3 131,73.2 131.3,73.1 131.6,73 131.9,72.9 132.1,72.7 132.4,72.6 132.7,72.5 132.9,72.4 133.2,72.2 
		133.4,72.1 133.7,72 133.9,71.8 134.2,71.7 134.4,71.5 134.7,71.4 134.9,71.2 135.2,71.1 135.4,70.9 135.6,70.7 135.9,70.6 
		136.1,70.4 136.3,70.2 136.5,70 136.8,69.9 136.9,69.8 137,69.7 137.1,69.6 137.2,69.5 137.3,69.4 137.4,69.3 137.5,69.2 
		137.6,69.1 137.7,69 137.8,68.8 137.9,68.7 138,68.6 138.1,68.5 138.2,68.4 138.3,68.3 138.4,68.2 138.5,68 138.7,67.8 138.9,67.5 
		139,67.3 139.2,67.1 139.3,66.9 139.5,66.6 139.6,66.4 139.7,66.2 139.8,65.9 140,65.7 140.1,65.5 140.2,65.2 140.3,65 140.4,64.8 
		140.5,64.5 140.6,64.3 140.7,64.1 140.7,63.9 140.8,63.7 140.9,63.4 141,63.2 141.1,63 141.1,62.8 141.2,62.6 141.3,62.3 
		141.4,61.9 141.5,61.5 141.6,61.2 141.9,60 142.5,57.8 142.7,57.1 142.9,56.4 143.1,55.7 143.2,55.4 143.2,55 143.4,54.4 
		143.5,53.8 143.7,53.1 143.8,52.8 143.8,52.5 143.9,52.1 144,51.7 144.1,51.4 144.1,51 144.2,50.6 144.3,50.3 144.3,49.9 
		144.4,49.5 144.5,49.1 144.5,48.7 144.6,48.2 144.7,47.8 144.7,47.4 144.8,47 144.8,46.5 144.9,46.1 144.9,45.7 145,45.3 145,44.9 
		145.1,44.5 145.2,43.7 145.3,42.8 145.3,42.3 145.4,41.8 145.4,40.8 145.5,39.9 145.6,39.1 145.6,38.2 145.7,37.4 145.8,36.6 
		145.8,35.7 145.9,34.9 145.9,34.1 146,33.3 146,32.6 146.1,31.8 146.1,31 146.1,30.4 146.1,29.7 146.2,29.1 146.2,28.4 146.2,27.9 
		146.2,27.5 146.2,27.1 146.2,26.9 146.2,26.7 146.2,26.4 146.2,26.1 146.2,25.8 146.2,25.6 146.2,25.4 146.2,25.2 146.2,25 
		146.1,24.8 146.1,24.6 146.1,24.4 146,24.1 146,23.9 146,23.8 145.9,23.7 145.9,23.5 145.9,23.4 145.8,23.3 145.8,23.1 145.7,23 
		145.7,22.9 145.7,22.7 145.6,22.6 145.6,22.5 145.5,22.4 145.5,22.2 145.4,22.1 145.4,22 145.3,21.9 145.2,21.8 145.2,21.6 
		145.1,21.5 145.1,21.4 145,21.3 144.9,21.2 144.9,21 144.8,20.9 144.7,20.8 144.7,20.7 144.6,20.6 144.5,20.5 144.4,20.4 
		144.4,20.3 144.3,20.2 144.2,20.1 144.1,20 144.1,19.9 144,19.8 143.9,19.7 143.8,19.6 143.7,19.5 143.6,19.4 143.5,19.3 
		143.5,19.2 143.4,19.1 143.3,19 143.2,18.9 143.1,18.8 143,18.7 142.8,18.5 142.6,18.4 142.4,18.2 142.2,18 142,17.9 141.8,17.7 
		141.6,17.6 141.4,17.4 141.2,17.3 140.9,17.2 140.7,17 140.5,16.9 140.3,16.8 140,16.6 139.8,16.5 139.5,16.4 139.3,16.3 139,16.1 
		138.7,16 138.5,15.9 138.2,15.8 138,15.7 137.7,15.6 137.5,15.5 137.2,15.4 137,15.4 136.7,15.3 136.4,15.2 136.2,15.1 135.9,15 
		135.6,15 135.4,14.9 135.1,14.8 134.8,14.8 134.6,14.7 134.3,14.6 134,14.6 133.7,14.5 133.4,14.4 133.2,14.4 132.9,14.3 
		132.6,14.3 132.3,14.2 132,14.2 131.7,14.1 131.4,14.1 131.1,14 130.8,14 130.5,13.9 130.2,13.9 129.9,13.9 129.6,13.8 129.3,13.8 
		129,13.8 128.7,13.7 128.4,13.7 128,13.7 127.4,13.6 126.8,13.6 126.1,13.5 125.5,13.5 124.8,13.4 124.2,13.4 123.5,13.4 
		122.8,13.3 122.1,13.3 121.4,13.3 120.7,13.3 120,13.3 119.3,13.3 118.6,13.3 117.9,13.3 117.1,13.3 116.4,13.3 115.7,13.3 
		115,13.3 114.3,13.3 113.6,13.3 112.9,13.4 112.1,13.4 111.3,13.4 110.5,13.4 109.7,13.5 108.9,13.5 108.1,13.5 107.3,13.6 
		106.4,13.6 104.8,13.7 103.2,13.8 101.7,13.9 95.9,14.2 94.5,14.3 93.1,14.4 91.7,14.4 89,14.6 86.4,14.7 83.7,14.9 82.4,14.9 
		81,15 79.6,15.1 78.2,15.2 76.8,15.3 75.3,15.3 73.9,15.4 73.2,15.5 72.5,15.5 71.8,15.6 71.1,15.6 70.4,15.7 69.7,15.8 68.4,15.9 
		67.8,15.9 67.2,16 66.6,16 66,16.1 65.4,16.2 64.8,16.2 64.2,16.3 63.6,16.4 63,16.4 62.4,16.5 61.8,16.6 61.2,16.6 60.5,16.7 
		59.9,16.8 59.3,16.9 58.7,17 58.1,17.1 57.5,17.1 56.9,17.2 56.3,17.3 55.7,17.4 55.1,17.5 54.5,17.6 53.9,17.7 53.3,17.8 
		52.7,17.9 52.1,18.1 51.5,18.2 50.9,18.3 50.3,18.4 49.7,18.5 49.1,18.7 48.5,18.8 47.9,18.9 47.3,19.1 46.7,19.2 46,19.4 
		45.4,19.5 44.8,19.7 44.2,19.8 43.6,20 43,20.2 42.4,20.3 41.8,20.5 41.2,20.7 40.6,20.8 40.5,20.9 40.5,20.9 40.4,20.9 40.4,21 
		40.3,21 40.2,21 40.2,21.1 40.1,21.1 40.1,21.2 40,21.2 40,21.2 40,21.3 39.9,21.3 39.9,21.3 39.8,21.4 39.8,21.4 39.8,21.5 
		39.8,21.5 39.7,21.5 39.7,21.6 39.7,21.6 39.6,21.6 39.6,21.7 39.6,21.7 39.6,21.8 39.6,21.8 39.6,21.8 39.5,21.9 39.5,21.9 
		39.5,21.9 39.5,22 39.5,22 39.5,22 39.5,22.1 39.5,22.1 39.5,22.2 39.5,22.2 39.5,22.2 39.5,22.3 39.5,22.3 39.5,22.3 39.5,22.4 
		39.5,22.4 39.5,22.4 39.5,22.5 39.5,22.5 39.5,22.6 39.5,22.6 39.5,22.6 39.5,22.7 39.5,22.7 39.5,22.7 39.5,22.8 39.6,22.8 
		39.6,22.8 39.6,22.9 39.6,23 39.6,23 39.7,23.1 39.7,23.1 39.7,23.2 39.8,23.2 39.8,23.3 39.8,23.3 39.8,23.4 39.9,23.4 39.9,23.4 
		39.9,23.4 39.9,23.5 39.9,23.5 39.9,23.5 40,23.5 40,23.5 40,23.6 40,23.6 40,23.6 40.1,23.6 40.1,23.6 40.1,23.6 40.1,23.7 
		40.2,23.7 40.2,23.7 40.2,23.7 40.2,23.7 40.3,23.7 40.3,23.8 40.3,23.8 40.3,23.8 40.4,23.8 40.4,23.8 40.4,23.8 40.5,23.9 
		40.6,23.9 40.6,23.9 40.7,23.9 40.8,24 40.9,24 41,24 41.1,24 41.1,24 41.3,24.1 41.6,24.1 42.4,24 43.2,23.8 44,23.7 44.8,23.5 
		45.6,23.4 46.4,23.2 47.2,23.1 48,23 48.8,22.9 49.6,22.7 50.4,22.6 51.2,22.5 52,22.4 52.8,22.3 53.6,22.2 54.4,22.1 55.2,22 
		56,21.9 56.8,21.9 57.6,21.8 58.4,21.7 59.2,21.6 60,21.5 60.8,21.5 61.6,21.4 62.4,21.3 63.2,21.3 64,21.2 64.8,21.2 65.6,21.1 
		66.5,21.1 67.3,21 68.1,21 68.9,20.9 69.7,20.9 70.6,20.8 72.2,20.7 73.9,20.7 75.6,20.6 77.3,20.5 80.8,20.3 84.3,20.2 86.1,20.1 
		87.9,20 89.8,19.9 91.7,19.9 93.6,19.8 95.5,19.7 97.4,19.6 99.3,19.4 103.2,19.2 105.2,19.1 107.2,19 108.1,18.9 109.1,18.9 
		110.1,18.8 111.1,18.8 112.1,18.8 113,18.7 114,18.7 115,18.7 115.9,18.6 116.9,18.6 117.8,18.6 118.7,18.6 119.7,18.6 120.6,18.6 
		121.5,18.6 121.9,18.6 122.4,18.6 122.8,18.6 123.3,18.6 123.7,18.6 124.1,18.6 124.6,18.6 125,18.6 125.4,18.6 125.9,18.7 
		126.3,18.7 126.7,18.7 127.1,18.7 127.5,18.8 127.9,18.8 128.3,18.8 128.7,18.8 129.1,18.9 129.5,18.9 129.9,19 130.3,19 130.7,19 
		131,19.1 131.4,19.1 131.8,19.2 132.1,19.2 132.5,19.3 132.8,19.3 133.2,19.4 133.5,19.5 133.9,19.5 134.2,19.6 134.5,19.7 
		134.9,19.7 135.2,19.8 135.5,19.9 135.8,20 136.1,20.1 136.4,20.2 136.7,20.2 137,20.3 137.2,20.4 137.5,20.5 137.8,20.6 138,20.7 
		138.3,20.8 138.5,21 138.8,21.1 139,21.2 139.2,21.3 139.4,21.4 139.5,21.4 139.6,21.5 139.7,21.6 139.8,21.6 139.9,21.7 140,21.8 
		140.1,21.8 140.2,21.9 140.3,22 140.4,22 140.5,22.1 140.6,22.2 140.7,22.2 140.8,22.3 140.8,22.4 140.9,22.5 141,22.5 141.1,22.6 
		141.2,22.7 141.3,22.8 141.3,22.9 141.4,22.9 141.5,23 141.6,23.1 141.6,23.2 141.7,23.3 141.8,23.4 141.8,23.4 141.9,23.5 
		141.9,23.6 142,23.7 142.1,23.8 142.1,23.9 142.2,24 142.2,24.1 142.3,24.2 142.3,24.3 142.3,24.4 142.4,24.5 142.4,24.6 
		142.5,24.7 142.5,24.8 142.5,24.9 142.6,25 142.6,25.1 142.6,25.2 142.6,25.3 142.7,25.4 142.7,25.6 142.7,25.8 142.8,26 
		142.8,26.2 142.8,26.4 142.8,26.6 142.8,26.8 142.8,27 142.8,27.2 142.8,27.4 142.8,27.6 142.8,28.1 142.8,28.6 142.8,29.4 
		142.7,30.3 142.7,31.2 142.6,32.2 142.6,33.2 142.5,34.2 142.4,35.3 142.4,35.9 142.3,36.4 142.3,37 142.2,37.5 142.2,38.1 
		142.1,38.7 142.1,39.2 142,39.8 142,40.3 141.9,40.9 141.9,41.4 141.8,42 141.7,42.5 141.7,43.1 141.6,43.6 141.5,44.1 141.5,44.6 
		141.4,45.1 141.3,45.5 141.3,45.8 141.2,46.1 141.2,46.3 141.1,46.6 141.1,46.9 141,47.2 141,47.5 140.9,47.8 140.8,48 140.8,48.3 
		140.7,48.6 140.7,48.8 140.6,49.1 140.5,49.6 140.4,50.1 140.2,50.6 140.1,51 140,51.5 139.8,51.9 139.7,52.4 139.6,52.8 
		139.4,53.2 139.3,53.6 139.1,54 139,54.4 138.8,54.8 138.7,55.2 138.5,55.6 138.4,55.9 138.2,56.3 138,56.7 137.9,57 137.7,57.4 
		137.6,57.7 137.4,58.1 137.2,58.4 136.9,59.1 136.6,59.7 136.4,60.2 136.2,60.5 136.1,60.7 136,61 135.8,61.3 135.7,61.5 
		135.6,61.8 135.4,62 135.3,62.3 135.1,62.6 135,62.8 134.8,63.1 134.7,63.3 134.5,63.6 134.3,63.8 134.2,64 134,64.3 133.8,64.5 
		133.6,64.7 133.5,65 133.4,65.1 133.3,65.2 133.2,65.3 133.1,65.4 133,65.5 132.9,65.6 132.8,65.7 132.7,65.8 132.6,65.9 132.5,66 
		132.4,66.1 132.3,66.2 132.1,66.3 132,66.4 131.9,66.5 131.8,66.6 131.7,66.7 131.6,66.8 131.5,66.9 131.3,67 131.2,67.1 
		131.1,67.2 131,67.3 130.9,67.3 130.8,67.4 130.6,67.5 130.5,67.6 130.4,67.6 130.3,67.7 130.1,67.8 130,67.9 129.9,67.9 
		129.6,68.1 129.4,68.2 129.1,68.4 128.8,68.5 128.5,68.6 128.2,68.7 128,68.9 127.7,69 127.4,69.1 127.1,69.2 126.8,69.3 
		126.4,69.4 126.1,69.5 125.8,69.6 125.5,69.7 125.2,69.8 124.8,69.9 124.5,70 124.2,70 123.8,70.1 123.5,70.2 123.2,70.3 
		122.8,70.3 122.5,70.4 122.1,70.5 121.8,70.5 121.4,70.6 121,70.7 120.7,70.7 120.3,70.8 120,70.8 119.6,70.9 119.2,70.9 118.8,71 
		118.5,71 118.1,71.1 117.7,71.1 117.3,71.1 117,71.2 116.2,71.3 115.4,71.3 114.7,71.4 113.9,71.5 113.1,71.5 112.4,71.6 
		111.6,71.6 110,71.7 108.5,71.8 107,71.9 105.4,72 103.9,72.1 100.8,72.2 94.6,72.6 91.5,72.8 89.9,72.9 88.3,72.9 86.6,73 
		85,73.1 82.1,73.3 80.7,73.4 80,73.4 79.2,73.5 78.5,73.5 77.8,73.6 77,73.6 76.3,73.6 75.6,73.6 74.8,73.7 74.1,73.7 73.4,73.7 
		72.6,73.7 71.9,73.7 71.1,73.7 70.4,73.7 69.6,73.7 68.9,73.7 68.5,73.7 68.2,73.7 67.8,73.7 67.4,73.7 67.1,73.7 66.7,73.7 
		66.3,73.6 66,73.6 65.6,73.6 65.2,73.6 64.9,73.5 64.5,73.5 64.1,73.5 63.8,73.5 63.4,73.4 63,73.4 62.7,73.4 62.3,73.3 61.9,73.3 
		61.6,73.2 61.2,73.2 60.9,73.1 60.5,73.1 60.1,73 59.8,73 59.4,72.9 59.1,72.9 58.7,72.8 58.4,72.7 58,72.7 57.7,72.6 57.3,72.5 
		57,72.5 56.6,72.4 56.3,72.3 55.9,72.2 55.6,72.1 55.2,72 54.9,71.9 54.5,71.9 54.2,71.8 53.9,71.7 53.5,71.5 53.2,71.4 52.9,71.3 
		52.5,71.2 52.2,71.1 51.9,71 51.5,70.9 51.2,70.7 50.9,70.6 50.5,70.5 50.2,70.3 49.9,70.2 49.6,70.1 49.3,69.9 48.9,69.8 
		48.6,69.6 48.3,69.4 48,69.3 47.7,69.1 47.4,68.9 47.1,68.8 46.8,68.6 46.5,68.4 46.2,68.2 45.9,68 45.6,67.9 45.3,67.7 45,67.5 
		44.7,67.3 44.4,67 44.1,66.8 43.9,66.6 43.6,66.4 43.3,66.2 43,65.9 42.7,65.7 42.5,65.5 42.2,65.2 41.9,65 41.7,64.7 41.4,64.5 
		41.2,64.2 40.9,64 40.7,63.8 40.5,63.6 40.3,63.3 40.1,63.1 39.9,62.9 39.8,62.7 39.6,62.4 39.4,62.2 39.2,62 39,61.7 38.8,61.5 
		38.6,61.2 38.4,61 38.2,60.7 38.1,60.5 37.9,60.2 37.7,60 37.5,59.7 37.3,59.5 37.2,59.2 37,58.9 36.8,58.7 36.6,58.4 36.5,58.1 
		36.3,57.8 36.1,57.6 36,57.3 35.8,57 35.7,56.7 35.5,56.4 35.3,56.2 35.2,55.9 35,55.6 34.9,55.3 34.7,55 34.6,54.7 34.4,54.4 
		34.3,54.1 34.1,53.8 34,53.5 33.8,53.2 33.7,52.9 33.5,52.6 33.4,52.3 33.3,52 33.1,51.7 33,51.3 32.8,51 32.7,50.7 32.6,50.4 
		32.4,50.1 32.3,49.8 32.2,49.4 32.1,49.1 31.9,48.8 31.8,48.5 31.7,48.2 31.6,47.8 31.4,47.5 31.3,47.2 31.2,46.9 31,46.2 
		30.7,45.5 30.5,44.9 30.3,44.2 30.1,43.5 29.9,42.9 29.7,42.2 29.5,41.5 29.3,40.9 29.1,40.2 28.9,39.5 28.7,38.8 28.6,38.2 
		28.4,37.5 28.2,36.8 28.1,36.1 27.9,35.5 27.7,34.8 27.6,34.1 27.5,33.4 27.3,32.8 27.2,32.1 27,31.4 26.9,30.8 26.8,30.1 
		26.7,29.5 26.6,28.8 26.5,28.2 26.3,27.5 26.2,26.9 26.1,26.3 26,25.7 26,25 25.9,24.6 25.8,24.1 25.7,23.2 25.6,22.3 25.5,21.4 
		25.4,20.5 25.3,19.6 25,17.1 24.9,16.3 24.8,15.5 24.7,14.7 24.6,14 24.5,13.6 24.5,13.2 24.4,12.9 24.4,12.5 24.3,12.2 24.3,11.8 
		24.2,11.5 24.1,11.1 24.1,10.8 24,10.5 23.9,10.2 23.9,9.8 23.8,9.5 23.7,9.2 23.6,8.9 23.6,8.6 23.5,8.3 23.4,8 23.3,7.7 
		23.2,7.5 23.1,7.2 23,6.9 22.9,6.7 22.8,6.4 22.7,6.2 22.6,5.9 22.6,5.8 22.5,5.7 22.4,5.6 22.4,5.4 22.3,5.3 22.3,5.2 22.2,5.1 
		22.1,5 22.1,4.9 22,4.8 21.9,4.7 21.9,4.6 21.8,4.4 21.7,4.3 21.6,4.2 21.6,4.1 21.5,4 21.4,3.9 21.3,3.9 21.3,3.8 21.2,3.7 
		21.1,3.6 21,3.5 20.9,3.4 20.9,3.3 20.8,3.2 20.7,3.1 20.6,3.1 20.5,3 20.4,2.9 20.3,2.8 20.2,2.8 20.1,2.7 20,2.6 19.9,2.5 
		19.8,2.5 19.7,2.4 19.6,2.3 19.5,2.3 19.4,2.2 19.3,2.1 19.2,2.1 19.1,2 19,2 18.9,1.9 18.8,1.8 18.7,1.8 18.6,1.7 18.4,1.7 
		18.3,1.6 18.2,1.6 18.1,1.5 18,1.5 17.8,1.4 17.6,1.3 17.4,1.3 17.1,1.2 16.8,1.1 16.6,1 16.3,1 16,0.9 15.8,0.8 15.5,0.8 
		15.2,0.7 14.9,0.7 14.6,0.6 14.3,0.6 14,0.6 13.7,0.5 13.4,0.5 13.1,0.5 12.8,0.4 12.5,0.4 12.2,0.4 11.8,0.4 11.5,0.4 11.2,0.4 
		10.8,0.4 10.5,0.4 10.2,0.4 9.8,0.4 9.5,0.4 9.1,0.4 8.8,0.4 8.4,0.4 8.1,0.4 7.7,0.4 7.3,0.4 7,0.4 6.2,0.5 5.5,0.5 4.7,0.6 
		3.9,0.6 3.1,0.7 2.3,0.8 	"/>
</g>
</svg>
