<?xml version="1.0" encoding="utf-8"?>
<!-- Generator: Adobe Illustrator 21.1.0, SVG Export Plug-In . SVG Version: 6.00 Build 0)  -->
<svg version="1.1" id="Capa_1" xmlns="http://www.w3.org/2000/svg" xmlns:xlink="http://www.w3.org/1999/xlink" x="0px" y="0px"
	 viewBox="0 0 510 510" style="enable-background:new 0 0 510 510;" xml:space="preserve">
<style type="text/css">
	.st0{fill:none;}
	.st1{fill:#434A54;stroke:#D7D7D7;stroke-miterlimit:10;}
</style>
<g>
	<g>
		<path class="st0" d="M255,484.5c-61.3,0-118.9-23.9-162.3-67.2C49.4,374,25.5,316.3,25.5,255S49.4,136.1,92.7,92.7
			C136,49.4,193.7,25.5,255,25.5s118.9,23.9,162.3,67.2c43.3,43.3,67.2,101,67.2,162.3s-23.9,118.9-67.2,162.3
			S316.3,484.5,255,484.5z"/>
	</g>
	<path class="st1" d="M255,51c54.5,0,105.7,21.2,144.2,59.8C437.8,149.3,459,200.5,459,255s-21.2,105.7-59.8,144.2
		C360.7,437.8,309.5,459,255,459s-105.7-21.2-144.2-59.8C72.2,360.7,51,309.5,51,255s21.2-105.7,59.8-144.2
		C149.3,72.2,200.5,51,255,51 M255,0C114.2,0,0,114.2,0,255s114.2,255,255,255s255-114.2,255-255S395.8,0,255,0L255,0z"/>
</g>
</svg>
