<?xml version="1.0" encoding="utf-8"?>
<!-- Generator: Adobe Illustrator 21.1.0, SVG Export Plug-In . SVG Version: 6.00 Build 0)  -->
<svg version="1.1" id="Слой_1" xmlns="http://www.w3.org/2000/svg" xmlns:xlink="http://www.w3.org/1999/xlink" x="0px" y="0px"
	 viewBox="0 0 75.4 100.8" style="enable-background:new 0 0 75.4 100.8;" xml:space="preserve">
<style type="text/css">
	.st0{fill-rule:evenodd;clip-rule:evenodd;fill:#ED6720;}
	.st1{fill-rule:evenodd;clip-rule:evenodd;fill:#FFFFFF;}
	.st2{fill:none;stroke:#FFFFFF;stroke-width:0.7087;stroke-linecap:round;stroke-linejoin:round;stroke-miterlimit:10;}
	.st3{fill:none;stroke:#ED6720;stroke-width:0.7087;stroke-linecap:round;stroke-linejoin:round;stroke-miterlimit:10;}
</style>
<g id="HATCH_426_">
	<polygon class="st0" points="49.7,27.5 49.7,27.7 49.8,27.8 49.8,27.9 49.8,28 49.8,28 49.8,28.1 49.8,28.1 49.8,28.2 49.8,28.2 
		49.8,28.3 49.8,28.3 49.8,28.3 49.9,28.4 49.9,28.4 49.9,28.4 49.9,28.5 49.9,28.5 49.9,28.5 49.9,28.6 50,28.6 50,28.6 50,28.6 
		50,28.6 50,28.6 50,28.6 50,28.7 50,28.7 50,28.7 50,28.7 50,28.7 50.1,28.7 50.1,28.7 50.1,28.7 50.1,28.7 50.1,28.7 50.1,28.8 
		50.1,28.8 50.1,28.8 50.1,28.8 50.1,28.8 50.1,28.8 50.2,28.8 50.2,28.8 50.2,28.8 50.2,28.8 50.2,28.8 50.2,28.8 50.2,28.8 
		50.2,28.8 50.2,28.8 50.2,28.8 50.3,28.9 50.3,28.9 50.3,28.9 50.3,28.9 50.3,28.9 50.4,28.9 50.4,28.9 50.4,28.9 50.4,28.9 
		50.5,28.9 50.5,28.9 50.5,28.9 50.5,28.9 50.6,28.9 50.6,28.9 50.7,28.9 50.9,28.9 51,28.9 51,28.9 51.1,28.9 51.1,28.9 51.2,28.9 
		51.2,28.9 51.2,28.9 51.2,28.9 51.3,28.9 51.3,28.9 51.3,28.9 51.3,28.9 51.4,28.9 51.4,28.9 51.4,28.9 51.4,28.8 51.4,28.8 
		51.4,28.8 51.4,28.8 51.4,28.8 51.5,28.8 51.5,28.8 51.5,28.8 51.5,28.8 51.5,28.8 51.5,28.8 51.5,28.8 51.5,28.8 51.6,28.8 
		51.6,28.7 51.6,28.7 51.6,28.7 51.6,28.7 51.6,28.7 51.6,28.7 51.6,28.7 51.6,28.7 51.7,28.7 51.7,28.6 51.7,28.6 51.7,28.6 
		51.7,28.6 51.7,28.6 51.7,28.6 51.7,28.6 51.7,28.6 51.8,28.5 51.8,28.5 51.8,28.5 51.8,28.4 51.8,28.4 51.9,28.3 51.9,28.3 
		51.9,28.2 51.9,28.2 51.9,28.1 51.9,28.1 51.9,28 52,28 52,27.9 52,27.8 52,27.7 52,27.5 52.1,27.4 52.1,27.2 52.1,27 52.1,26.8 
		52.1,26.3 52.1,25.1 52.1,24.8 52.1,24.5 52.1,24.3 52.1,24 52.1,23.7 52.1,23.4 52.2,23.1 52.2,22.8 52.2,22.5 52.2,22.3 
		52.2,22.1 52.3,21.9 52.3,21.7 52.3,21.4 52.4,21.2 52.4,21 52.4,20.8 52.5,20.6 52.5,20.4 52.5,20.2 52.6,20 52.6,19.8 52.7,19.4 
		52.8,19 52.9,18.6 53,18.2 53.4,16.6 53.5,16.2 53.6,15.7 53.7,15.3 53.7,14.9 53.8,14.7 53.8,14.5 53.9,14.3 53.9,14.1 53.9,13.9 
		54,13.6 54,13.4 54,13.2 54.1,13 54.1,12.8 54.1,12.6 54.1,12.3 54.2,12.1 54.2,11.9 54.2,11.7 54.2,11.4 54.2,11.2 54.2,11 
		54.2,10.7 54.2,10.5 54.2,10.3 54.2,10.1 54.2,9.8 54.2,9.6 54.2,9.3 54.2,9.1 54.2,8.9 54.2,8.6 54.1,8.4 54.1,8.2 54.1,7.9 
		54,7.7 54,7.5 54,7.3 53.9,7.1 53.9,6.8 53.8,6.6 53.8,6.4 53.7,6.2 53.6,5.9 53.6,5.7 53.5,5.5 53.5,5.3 53.4,5.1 53.3,4.9 
		53.2,4.7 53.1,4.5 53.1,4.3 53,4.1 52.9,3.9 52.8,3.8 52.8,3.7 52.7,3.6 52.7,3.5 52.6,3.4 52.6,3.3 52.5,3.2 52.5,3.2 52.4,3.1 
		52.4,3 52.3,2.9 52.3,2.8 52.2,2.7 52.2,2.7 52.1,2.6 52,2.5 52,2.4 51.9,2.4 51.9,2.3 51.8,2.2 51.7,2.1 51.7,2.1 51.6,2 51.5,2 
		51.5,1.9 51.4,1.8 51.4,1.8 51.3,1.7 51.2,1.7 51.2,1.6 51.1,1.6 51,1.5 51,1.5 50.9,1.4 50.8,1.4 50.8,1.3 50.7,1.3 50.6,1.2 
		50.5,1.2 50.5,1.2 50.4,1.1 50.3,1.1 50.2,1.1 50.2,1 50.1,1 50,1 49.9,0.9 49.9,0.9 49.7,0.8 49.6,0.8 49.4,0.7 49.2,0.7 
		49.1,0.6 48.9,0.6 48.7,0.6 48.6,0.5 48.4,0.5 48.2,0.5 48.1,0.4 47.9,0.4 47.7,0.4 47.5,0.4 47.4,0.4 47.2,0.4 47,0.4 46.8,0.4 
		46.6,0.4 46.4,0.4 46.3,0.4 46.1,0.4 45.9,0.4 45.7,0.4 45.5,0.4 45.3,0.4 45.1,0.4 44.9,0.4 44.6,0.4 44.2,0.5 43.8,0.5 42.3,0.7 
		41.9,0.7 41.5,0.7 41.2,0.7 41,0.8 40.8,0.8 40.5,0.8 40.1,0.8 39.8,0.8 39.5,0.8 39.2,0.8 38.9,0.8 38.5,0.8 38.2,0.8 37,0.8 
		36.7,0.8 36.4,0.8 36.1,0.8 35.8,0.8 35.5,0.8 35.2,0.8 34.8,0.8 34.5,0.8 34.4,0.9 34.2,0.9 34.1,0.9 33.9,0.9 33.8,0.9 33.6,0.9 
		33.5,1 33.3,1 33.1,1 33,1 32.8,1 32.7,1.1 32.5,1.1 32.4,1.1 32.2,1.2 32,1.2 31.9,1.2 31.7,1.3 31.5,1.3 31.4,1.4 31.2,1.4 
		31.1,1.5 30.9,1.5 30.7,1.6 30.5,1.6 30.3,1.7 30.1,1.8 29.9,1.8 29.7,1.9 29.5,2 29.3,2.1 29.1,2.2 28.9,2.3 28.7,2.4 28.5,2.5 
		28.3,2.6 28.1,2.7 28,2.8 27.9,2.8 27.8,2.9 27.7,3 27.7,3 27.6,3.1 27.5,3.1 27.4,3.2 27.3,3.3 27.2,3.3 27.1,3.4 27.1,3.5 
		27,3.5 26.9,3.6 26.8,3.7 26.7,3.7 26.7,3.8 26.6,3.9 26.5,4 26.4,4 26.4,4.1 26.3,4.2 26.2,4.3 26.2,4.3 26.1,4.4 26.1,4.5 
		26,4.6 25.9,4.7 25.9,4.7 25.8,4.8 25.8,4.9 25.7,5 25.7,5.1 25.6,5.2 25.6,5.2 25.6,5.3 25.5,5.4 25.5,5.5 25.5,5.6 25.4,5.6 
		25.4,5.7 25.4,5.8 25.4,5.8 25.4,5.9 25.3,6 25.3,6.1 25.3,6.2 25.3,6.3 25.3,6.5 25.2,6.6 25.2,6.8 25.2,6.9 25.2,7.1 25.2,7.2 
		25.2,7.4 25.2,7.5 25.2,7.7 25.2,7.8 25.2,8 25.3,8.1 25.3,8.3 25.3,8.5 25.3,8.8 25.4,9.1 25.5,10 25.5,10.3 25.5,10.6 25.6,10.9 
		25.6,11.2 25.6,11.5 25.6,11.7 25.6,12 25.7,12.3 25.7,12.6 25.7,12.9 25.7,13.1 25.7,13.4 25.7,13.7 25.7,14 25.7,14.2 25.7,14.5 
		25.6,14.8 25.6,15.3 25.6,15.8 25.6,16.9 25.5,17.4 25.5,17.9 25.5,18.2 25.5,18.5 25.5,18.7 25.5,19 25.5,19.3 25.5,19.6 
		25.5,19.9 25.5,20.2 25.5,20.5 25.5,20.8 25.5,21.1 25.5,21.4 25.5,22 25.6,22.6 25.7,24.5 25.7,25.1 25.7,25.8 25.7,26.1 
		25.7,26.4 25.7,26.7 25.7,27 25.7,27.3 25.7,27.6 25.7,27.9 25.7,28.3 25.7,28.6 25.7,28.9 25.7,28.9 25.7,28.9 25.7,29 25.7,29 
		25.7,29 25.7,29.1 25.7,29.1 25.7,29.1 25.7,29.2 25.7,29.2 25.8,29.2 25.8,29.2 25.8,29.3 25.8,29.3 25.8,29.3 25.8,29.3 
		25.8,29.3 25.8,29.3 25.8,29.4 25.8,29.4 25.8,29.4 25.8,29.4 25.8,29.4 25.8,29.4 25.8,29.4 25.8,29.4 25.8,29.4 25.9,29.4 
		25.9,29.4 25.9,29.5 25.9,29.5 25.9,29.5 25.9,29.5 25.9,29.5 25.9,29.5 25.9,29.5 25.9,29.5 25.9,29.5 25.9,29.5 25.9,29.5 
		25.9,29.5 25.9,29.5 26,29.5 26,29.6 26,29.6 26,29.6 26,29.6 26,29.6 26,29.6 26,29.6 26,29.6 26,29.6 26,29.6 26.1,29.6 
		26.1,29.6 26.1,29.6 26.1,29.6 26.1,29.6 26.2,29.6 26.2,29.6 26.2,29.6 26.2,29.6 26.2,29.7 26.3,29.7 26.3,29.7 26.3,29.7 
		26.4,29.7 26.4,29.7 26.5,29.7 26.6,29.7 26.8,29.7 26.9,29.7 27,29.7 27,29.7 27.1,29.7 27.1,29.7 27.2,29.7 27.2,29.6 27.3,29.6 
		27.3,29.6 27.3,29.6 27.3,29.6 27.4,29.6 27.4,29.6 27.4,29.6 27.4,29.6 27.5,29.6 27.5,29.6 27.5,29.6 27.5,29.5 27.6,29.5 
		27.6,29.5 27.6,29.5 27.6,29.5 27.6,29.5 27.6,29.5 27.6,29.5 27.6,29.5 27.6,29.5 27.7,29.5 27.7,29.5 27.7,29.4 27.7,29.4 
		27.7,29.4 27.7,29.4 27.7,29.4 27.7,29.4 27.7,29.4 27.7,29.4 27.8,29.4 27.8,29.3 27.8,29.3 27.8,29.3 27.8,29.3 27.8,29.3 
		27.8,29.3 27.8,29.3 27.8,29.3 27.8,29.2 27.8,29.2 27.8,29.2 27.9,29.2 27.9,29.2 27.9,29.1 27.9,29.1 27.9,29.1 27.9,29 27.9,29 
		27.9,28.9 27.9,28.9 28,28.9 28,28.8 28,28.8 28,28.7 28,28.7 28,28.6 28,28.6 28,28.5 28,28.3 28,28.1 28,27.7 28,27.3 27.9,26.8 
		27.9,26.5 27.9,26.2 27.9,25.9 27.9,25.6 27.9,25.2 27.8,24.9 27.7,22.7 27.7,22.1 27.6,21.5 27.6,21.3 27.6,21 27.6,20.7 
		27.6,20.4 27.6,20 27.6,19.6 27.6,19.4 27.6,19.3 27.6,19.1 27.6,18.9 27.6,18.6 27.6,18.4 27.6,18.1 27.6,17.8 27.6,17.6 
		27.7,17.3 27.7,16.8 27.7,16.1 27.9,14.8 27.9,14.4 27.9,14.1 27.9,13.8 28,13.5 28,13.2 28,12.9 28,12.5 28,12.2 28,11.9 28,11.6 
		28,11.3 28,11 28,10.6 28,10.3 28,10 28,8.9 28,8.6 28,8.4 28,8.2 28,8.1 28,7.9 28,7.8 28,7.7 28,7.6 28,7.5 28,7.4 28,7.3 
		28,7.2 28.1,7.1 28.1,7 28.1,6.9 28.1,6.9 28.1,6.8 28.1,6.8 28.1,6.7 28.2,6.7 28.2,6.7 28.2,6.7 28.2,6.6 28.2,6.6 28.2,6.6 
		28.2,6.5 28.3,6.5 28.3,6.5 28.3,6.5 28.3,6.4 28.3,6.4 28.3,6.4 28.4,6.4 28.4,6.3 28.4,6.3 28.4,6.3 28.5,6.3 28.5,6.2 28.5,6.2 
		28.6,6.2 28.6,6.1 28.6,6.1 28.7,6.1 28.8,6 28.8,6 28.8,6 28.9,5.9 29.1,5.8 29.2,5.8 29.3,5.7 29.4,5.7 29.5,5.6 29.7,5.5 
		29.8,5.5 30,5.4 30.1,5.4 30.3,5.3 30.4,5.3 30.6,5.2 30.7,5.2 30.9,5.2 31.1,5.1 31.3,5.1 31.5,5 31.7,5 31.8,5 31.9,5 32.1,4.9 
		32.2,4.9 32.4,4.9 32.5,4.9 32.6,4.9 32.8,4.9 32.9,4.8 33.1,4.8 33.3,4.8 33.6,4.8 33.9,4.8 34.2,4.8 34.5,4.8 34.8,4.8 35.1,4.8 
		35.4,4.8 35.7,4.8 36.2,4.8 37.3,4.8 37.8,4.8 38.3,4.8 38.7,4.9 39.1,4.9 39.5,4.9 39.9,4.9 40.3,4.8 40.4,4.8 40.6,4.8 40.8,4.8 
		41,4.8 41.2,4.8 41.4,4.8 41.6,4.8 41.8,4.7 42.2,4.7 42.8,4.7 44.4,4.5 44.7,4.5 45.1,4.4 45.5,4.4 45.7,4.4 45.9,4.4 46,4.4 
		46.2,4.4 46.4,4.4 46.5,4.4 46.7,4.4 46.9,4.4 47,4.4 47.2,4.4 47.3,4.4 47.5,4.4 47.6,4.4 47.7,4.4 47.9,4.4 48,4.4 48.1,4.4 
		48.2,4.5 48.3,4.5 48.4,4.5 48.5,4.5 48.6,4.5 48.7,4.6 48.8,4.6 48.9,4.6 48.9,4.6 48.9,4.6 49,4.7 49,4.7 49.1,4.7 49.1,4.7 
		49.1,4.7 49.2,4.8 49.2,4.8 49.2,4.8 49.2,4.8 49.2,4.8 49.3,4.8 49.3,4.8 49.3,4.9 49.3,4.9 49.4,4.9 49.4,4.9 49.4,4.9 49.4,4.9 
		49.4,5 49.4,5 49.5,5 49.5,5 49.5,5 49.5,5.1 49.5,5.1 49.5,5.1 49.6,5.1 49.6,5.2 49.6,5.2 49.6,5.2 49.6,5.3 49.7,5.3 49.7,5.4 
		49.7,5.4 49.8,5.5 49.8,5.6 49.8,5.7 49.9,5.7 49.9,5.9 50,6 50,6.1 50,6.3 50.1,6.4 50.1,6.6 50.1,6.7 50.2,6.9 50.2,7 50.2,7.2 
		50.3,7.4 50.3,7.6 50.3,7.7 50.3,7.9 50.4,8.1 50.4,8.3 50.4,8.5 50.4,8.7 50.4,8.9 50.4,9 50.5,9.3 50.5,9.7 50.5,9.9 50.5,10.1 
		50.5,10.3 50.5,10.5 50.5,10.7 50.5,10.9 50.5,11.1 50.5,11.3 50.5,11.5 50.5,11.8 50.5,12 50.4,12.2 50.4,12.6 50.4,13 50.4,13.4 
		50.3,13.8 50.3,14.3 50.2,14.8 50.2,15.3 50.1,15.7 50,17.1 49.9,17.8 49.9,18.1 49.9,18.4 49.8,18.9 49.8,19.5 49.8,19.7 49.7,20 
		49.7,20.2 49.7,20.5 49.7,20.7 49.7,20.9 49.7,21.2 49.7,21.4 49.7,21.6 49.7,21.8 49.7,22.1 49.6,22.3 49.6,22.5 49.6,22.8 
		49.7,23 49.7,23.2 49.7,23.7 49.7,24.2 49.7,25.8 49.7,26 49.7,26.3 49.7,26.7 49.7,27.1 49.7,27.3 	"/>
</g>
<g id="HATCH_427_">
	<polygon class="st1" points="25.5,19.1 24.9,19 24.2,19 23.6,19 22.9,18.9 22.2,18.9 21.5,18.8 20.8,18.8 20.1,18.7 19.5,18.7 
		18.8,18.6 18.1,18.5 16.7,18.4 14,18.2 12.6,18 11.9,18 11.2,17.9 10.6,17.8 9.9,17.8 9.2,17.7 8.5,17.7 7.8,17.6 7.1,17.6 
		6.5,17.5 5.8,17.5 5.1,17.5 4.4,17.4 4.1,17.4 3.7,17.4 3.4,17.4 3,17.4 2.9,17.4 2.9,17.4 2.8,17.4 2.8,17.4 2.7,17.4 2.7,17.4 
		2.6,17.4 2.6,17.4 2.5,17.4 2.5,17.4 2.4,17.5 2.4,17.5 2.3,17.5 2.3,17.5 2.2,17.5 2.2,17.5 2.1,17.6 2.1,17.6 2,17.6 2,17.6 
		1.9,17.6 1.9,17.7 1.8,17.7 1.8,17.7 1.7,17.8 1.7,17.8 1.6,17.8 1.6,17.9 1.5,17.9 1.5,17.9 1.4,18 1.4,18 1.4,18 1.3,18.1 
		1.3,18.1 1.2,18.2 1.2,18.2 1.2,18.3 1.1,18.3 1.1,18.3 1.1,18.4 1,18.4 1,18.5 1,18.5 0.9,18.6 0.9,18.6 0.9,18.7 0.9,18.7 
		0.8,18.8 0.8,18.8 0.8,18.9 0.8,18.9 0.8,19 0.8,19 0.7,19.1 0.7,19.1 0.7,19.2 0.7,19.2 0.7,19.3 0.7,19.3 0.7,19.4 0.7,19.4 
		0.7,19.5 0.6,20 0.6,20.4 0.5,20.9 0.5,21.4 0.5,21.9 0.4,22.3 0.4,22.8 0.4,23.3 0.4,23.8 0.4,24.2 0.4,24.7 0.4,25.2 0.4,25.6 
		0.4,26.1 0.4,26.5 0.4,27 0.4,27.5 0.4,27.9 0.4,28.4 0.4,28.8 0.5,29.3 0.5,29.7 0.5,30.2 0.6,30.6 0.6,31.1 0.6,31.5 0.7,31.9 
		0.7,32.4 0.8,32.8 0.8,33.3 0.8,33.7 0.9,34.1 0.9,34.6 1,35 1,35.4 1.1,35.9 1.2,36.7 1.3,37.6 1.4,38.4 1.5,39.3 1.9,41.8 
		2,42.6 2.1,43.4 2.2,44.3 2.3,45.1 2.3,45.5 2.4,45.9 2.4,46.3 2.5,46.7 2.5,47.1 2.6,47.5 2.6,47.8 2.6,48.2 2.7,48.8 2.7,49.4 
		2.8,50.1 2.8,50.7 2.8,51.3 2.9,52 2.9,52.6 2.9,53.2 2.9,53.9 3,54.5 3,55.1 3,55.8 3,56.4 3,57 3,57.7 3,58.3 3,58.9 3,59.6 
		3,60.2 3,61.5 3,65.4 3,66.8 3,68.1 3,68.9 3,69.6 3,70.4 3,71.1 3,71.9 3,72.2 3,72.6 3.1,73 3.1,73.4 3.1,73.7 3.1,74.1 
		3.1,74.5 3.1,74.9 3.2,75.2 3.2,75.6 3.2,76 3.2,76.4 3.3,76.7 3.3,77.1 3.3,77.5 3.4,77.9 3.4,78.2 3.4,78.6 3.5,79 3.5,79.3 
		3.6,79.7 3.6,80.1 3.7,80.4 3.7,80.8 3.8,81.2 3.8,81.5 3.9,81.9 4,82.2 4,82.6 4.1,82.9 4.2,83.3 4.3,83.6 4.4,84 4.4,84.3 
		4.5,84.7 4.6,85 4.7,85.3 4.8,85.7 4.9,85.8 4.9,86 5,86.2 5.1,86.3 5.1,86.5 5.2,86.6 5.2,86.8 5.3,87 5.4,87.1 5.4,87.3 
		5.5,87.4 5.5,87.6 5.6,87.7 5.7,87.9 5.7,88.1 5.8,88.2 5.9,88.4 6,88.5 6,88.7 6.1,88.8 6.2,89 6.3,89.1 6.3,89.3 6.4,89.4 
		6.5,89.6 6.6,89.7 6.7,89.8 6.7,90 6.8,90.1 6.9,90.3 7,90.4 7.1,90.5 7.2,90.7 7.3,90.9 7.4,91 7.5,91.2 7.6,91.3 7.7,91.5 
		7.8,91.6 8,91.8 8.1,91.9 8.2,92.1 8.3,92.2 8.4,92.3 8.6,92.5 8.7,92.6 8.8,92.8 8.9,92.9 9.1,93 9.2,93.2 9.3,93.3 9.5,93.4 
		9.6,93.6 9.7,93.7 9.9,93.8 10,93.9 10.2,94.1 10.3,94.2 10.4,94.3 10.6,94.4 10.7,94.5 10.9,94.7 11,94.8 11.2,94.9 11.3,95 
		11.5,95.1 11.7,95.2 11.8,95.3 12,95.4 12.1,95.6 12.3,95.7 12.5,95.8 12.6,95.9 12.8,96 13,96.1 13.1,96.2 13.3,96.3 13.5,96.3 
		13.6,96.4 13.8,96.5 14,96.6 14.2,96.7 14.3,96.8 14.5,96.9 14.7,97 14.9,97.1 15.1,97.1 15.2,97.2 15.4,97.3 15.6,97.4 15.8,97.4 
		16,97.5 16.2,97.6 16.4,97.7 16.5,97.7 16.7,97.8 16.9,97.9 17.1,97.9 17.3,98 17.5,98.1 17.7,98.1 17.9,98.2 18.1,98.2 18.3,98.3 
		18.5,98.3 18.7,98.4 18.9,98.4 19.1,98.5 19.3,98.5 19.5,98.6 19.7,98.6 19.9,98.7 20.1,98.7 20.3,98.8 20.5,98.8 20.7,98.9 
		21.1,98.9 21.5,99 21.9,99.1 22.3,99.2 22.7,99.2 23.2,99.3 23.6,99.3 24,99.4 24.4,99.4 24.8,99.5 25.3,99.5 25.7,99.6 26.1,99.6 
		26.5,99.7 26.9,99.7 27.4,99.7 27.8,99.8 28.2,99.8 28.6,99.8 29,99.8 29.4,99.9 29.8,99.9 30.4,99.9 31,99.9 31.6,100 32.2,100 
		32.8,100 33.4,100 34,100.1 34.5,100.1 35.1,100.1 35.7,100.1 36.8,100.1 37.9,100.1 39,100.2 41.3,100.2 42.4,100.2 43.5,100.2 
		44.7,100.2 45.2,100.3 45.8,100.3 46.4,100.3 47,100.3 47.6,100.3 48.1,100.3 49.8,100.4 50.6,100.4 51,100.4 51.4,100.5 
		51.9,100.5 52.3,100.5 52.7,100.5 53.1,100.5 53.5,100.5 53.9,100.5 54.3,100.5 54.8,100.5 55,100.5 55.2,100.4 55.4,100.4 
		55.6,100.4 55.8,100.4 56,100.4 56.2,100.4 56.4,100.4 56.6,100.3 56.8,100.3 57,100.3 57.2,100.3 57.4,100.2 57.6,100.2 
		57.8,100.2 58,100.2 58.2,100.1 58.4,100.1 58.6,100.1 58.8,100 59,100 59.2,99.9 59.4,99.9 59.6,99.8 59.8,99.8 60,99.7 
		60.2,99.7 60.4,99.6 60.6,99.6 60.8,99.5 61,99.4 61.2,99.4 61.4,99.3 61.6,99.2 61.7,99.2 61.9,99.1 62.1,99 62.3,98.9 62.5,98.8 
		62.6,98.8 62.8,98.7 63,98.6 63.2,98.5 63.4,98.4 63.5,98.3 63.7,98.2 63.9,98.1 64,98 64.2,97.9 64.4,97.8 64.5,97.7 64.7,97.6 
		64.9,97.5 65,97.3 65.2,97.2 65.4,97.1 65.5,97 65.7,96.9 65.8,96.7 66,96.6 66.1,96.5 66.3,96.4 66.4,96.2 66.6,96.1 66.7,96 
		66.9,95.8 67,95.7 67.2,95.5 67.3,95.4 67.5,95.3 67.6,95.1 67.7,95 67.9,94.8 68,94.7 68.1,94.5 68.3,94.4 68.4,94.2 68.5,94.1 
		68.6,93.9 68.7,93.8 68.9,93.6 69,93.4 69.1,93.3 69.2,93.1 69.3,93 69.4,92.8 69.5,92.6 69.6,92.5 69.7,92.3 69.8,92.1 69.9,92 
		70,91.8 70.1,91.6 70.2,91.4 70.3,91.3 70.4,91.1 70.5,90.9 70.6,90.7 70.7,90.5 70.7,90.4 70.8,90.2 70.9,90 71,89.8 71,89.6 
		71.1,89.4 71.2,89.2 71.2,89 71.3,88.8 71.4,88.6 71.4,88.4 71.5,88.2 71.5,88.1 71.6,87.9 71.6,87.7 71.7,87.5 71.7,87.3 
		71.8,87.1 71.8,86.9 71.9,86.7 71.9,86.5 71.9,86.3 72,86.1 72,85.9 72.1,85.6 72.1,85.4 72.1,85.2 72.1,85 72.2,84.8 72.2,84.6 
		72.2,84.4 72.3,84.2 72.3,84 72.3,83.6 72.4,83.2 72.4,82.8 72.4,82.3 72.5,81.9 72.5,81.5 72.5,81.1 72.5,80.7 72.6,80.2 
		72.6,79.8 72.6,79 72.7,77.2 72.7,76.4 72.8,75.5 72.8,74.6 72.9,72.9 73,71.1 73.1,69.4 73.2,67.7 73.3,65.9 73.4,64.2 73.8,57.2 
		74,55.5 74.1,53.8 74.2,52 74.3,50.3 74.4,48.5 74.4,46.8 74.5,45.9 74.5,45 74.6,44.2 74.6,43.3 74.7,42.4 74.7,41.5 74.7,40.7 
		74.8,39.8 74.8,38.9 74.8,38 74.9,37.1 74.9,36.2 74.9,35.4 74.9,34.5 75,33.6 75,32.7 75,31.8 75,30.9 75,30 75,29.1 75.1,28.2 
		75.1,27.3 75.1,26.4 75.1,25.5 75.1,24.6 75.1,23.7 75,22.8 75,21.9 75,21.9 75,21.8 75,21.8 75,21.7 75,21.7 75,21.6 75,21.5 
		75,21.5 75,21.4 75,21.4 75,21.3 74.9,21.3 74.9,21.2 74.9,21.2 74.9,21.1 74.9,21.1 74.8,21 74.8,21 74.8,20.9 74.8,20.9 
		74.7,20.8 74.7,20.8 74.7,20.7 74.7,20.7 74.6,20.6 74.6,20.6 74.6,20.5 74.5,20.5 74.5,20.4 74.5,20.4 74.4,20.3 74.4,20.3 
		74.3,20.3 74.3,20.2 74.2,20.2 74.2,20.1 74.2,20.1 74.1,20.1 74.1,20 74,20 74,20 73.9,19.9 73.9,19.9 73.8,19.9 73.8,19.9 
		73.7,19.8 73.7,19.8 73.6,19.8 73.6,19.8 73.5,19.7 73.5,19.7 73.4,19.7 73.4,19.7 73.3,19.7 73.3,19.7 73.2,19.7 73.1,19.6 
		73.1,19.6 73,19.6 73,19.6 72.9,19.6 72.9,19.6 72.8,19.6 72.8,19.6 70,19.5 68.6,19.4 67.1,19.4 65.6,19.3 64.8,19.3 64.1,19.3 
		63.3,19.2 62.6,19.2 61.9,19.2 61.2,19.2 60.6,19.2 60,19.2 59.5,19.2 58.9,19.2 58.4,19.2 57.8,19.2 56.8,19.2 55.7,19.2 
		52.7,19.2 52.7,19.6 52.6,20 52.5,20.1 52.5,20.3 52.5,20.5 52.4,20.7 52.4,20.9 52.4,21.1 52.3,21.3 52.3,21.5 52.3,21.7 
		52.3,21.9 52.2,22.1 52.2,22.3 53.7,22.3 55.4,22.3 56.2,22.3 57,22.3 57.8,22.3 58.6,22.3 59,22.3 59.4,22.3 59.8,22.3 60.2,22.3 
		60.7,22.3 61.2,22.3 61.7,22.3 62.1,22.4 62.6,22.4 63.1,22.4 64,22.4 64.8,22.5 65.5,22.5 67,22.6 67.1,22.6 67.1,22.6 67.2,22.6 
		67.2,22.6 67.3,22.6 67.3,22.6 67.4,22.6 67.4,22.6 67.5,22.7 67.5,22.7 67.6,22.7 67.6,22.7 67.7,22.7 67.7,22.7 67.8,22.8 
		67.8,22.8 67.9,22.8 67.9,22.8 68,22.9 68,22.9 68.1,22.9 68.1,22.9 68.2,23 68.2,23 68.3,23 68.3,23.1 68.4,23.1 68.4,23.1 
		68.4,23.2 68.5,23.2 68.5,23.3 68.6,23.3 68.6,23.3 68.6,23.4 68.7,23.4 68.7,23.5 68.8,23.5 68.8,23.6 68.8,23.6 68.8,23.6 
		68.9,23.7 68.9,23.7 68.9,23.8 69,23.8 69,23.9 69,23.9 69,24 69,24 69.1,24.1 69.1,24.1 69.1,24.2 69.1,24.2 69.1,24.3 69.1,24.3 
		69.2,24.4 69.2,24.4 69.2,24.5 69.2,24.5 69.2,24.6 69.2,24.6 69.2,24.7 69.2,24.7 69.3,26.1 69.3,27.3 69.4,28.6 69.5,29.8 
		69.5,31.1 69.5,32.4 69.6,33.6 69.6,34.9 69.7,35.7 69.7,36.5 69.7,37.3 69.7,38.1 69.7,38.9 69.8,39.8 69.8,40.6 69.8,41.4 
		69.8,42.2 69.8,43 69.8,43.8 69.8,44.6 69.9,46.2 69.9,47.9 69.9,49.5 69.9,51.2 69.9,52.9 69.9,54.6 69.9,56.2 69.9,57.9 
		69.8,59.6 69.8,61.3 69.8,63 69.8,64.7 69.7,66.4 69.7,68.1 69.7,69.8 69.6,71.5 69.6,73.2 69.6,74.9 69.5,76.4 69.5,78.7 
		69.4,79.4 69.4,80 69.4,80.6 69.4,80.9 69.4,81.2 69.3,81.6 69.3,81.9 69.3,82.3 69.3,82.6 69.2,83 69.2,83.4 69.2,83.8 69.1,84.1 
		69.1,84.5 69,84.8 69,85.2 68.9,85.3 68.9,85.5 68.9,85.7 68.9,85.8 68.8,86 68.8,86.2 68.7,86.3 68.7,86.5 68.7,86.6 68.6,86.8 
		68.6,87 68.6,87.1 68.5,87.3 68.5,87.4 68.4,87.6 68.4,87.7 68.3,87.9 68.3,88 68.2,88.2 68.2,88.4 68.1,88.5 68.1,88.7 68,88.8 
		67.9,89 67.9,89.1 67.8,89.3 67.7,89.4 67.7,89.6 67.6,89.7 67.5,89.9 67.4,90 67.4,90.2 67.3,90.3 67.2,90.5 67.1,90.6 67,90.8 
		66.9,90.9 66.8,91.1 66.7,91.2 66.7,91.3 66.6,91.4 66.5,91.6 66.4,91.7 66.3,91.8 66.2,91.9 66.1,92 66,92.2 65.9,92.3 65.8,92.4 
		65.7,92.5 65.6,92.6 65.5,92.7 65.4,92.8 65.3,93 65.2,93.1 65.1,93.2 65,93.3 64.9,93.4 64.8,93.5 64.7,93.6 64.6,93.7 64.5,93.8 
		64.3,93.9 64.2,94 64.1,94.1 64,94.2 63.9,94.3 63.8,94.4 63.6,94.4 63.5,94.5 63.4,94.6 63.3,94.7 63.2,94.8 63,94.9 62.9,94.9 
		62.8,95 62.7,95.1 62.5,95.2 62.4,95.3 62.3,95.3 62.1,95.4 62,95.5 61.9,95.5 61.8,95.6 61.6,95.7 61.5,95.7 61.3,95.8 61.1,95.9 
		61,95.9 60.8,96 60.6,96.1 60.4,96.1 60.2,96.2 60,96.2 59.9,96.3 59.8,96.3 59.6,96.4 59.5,96.4 59.3,96.4 59.2,96.4 59,96.5 
		58.9,96.5 58.7,96.5 58.6,96.5 58.4,96.6 58.3,96.6 58.1,96.6 58,96.6 57.8,96.6 57.7,96.7 57.5,96.7 57.3,96.7 57.2,96.7 57,96.7 
		56.8,96.7 56.7,96.7 56.5,96.7 56.3,96.7 56,96.7 55.8,96.7 55.5,96.7 55.2,96.7 54.8,96.7 54.5,96.7 54.1,96.6 53.7,96.6 
		53.3,96.6 52.8,96.5 52.5,96.5 52.1,96.5 51.5,96.4 50.8,96.3 49.2,96.2 48.7,96.1 48.2,96 47.6,96 47.1,95.9 46.5,95.9 45.9,95.8 
		45.4,95.8 44.8,95.8 44.1,95.7 43.3,95.7 42.6,95.6 41.8,95.6 41.1,95.5 40.3,95.5 39.6,95.5 38.8,95.4 37.9,95.4 37,95.4 
		36.2,95.4 35.3,95.4 33.5,95.3 31.8,95.3 30.7,95.3 29.6,95.2 29,95.2 28.3,95.2 27.7,95.2 27,95.2 26.6,95.1 26.2,95.1 25.8,95.1 
		25.4,95.1 25,95.1 24.6,95 24.2,95 23.8,95 23.3,94.9 22.9,94.9 22.4,94.8 22,94.8 21.6,94.8 21.3,94.7 20.9,94.7 20.6,94.6 
		20.2,94.5 19.9,94.5 19.5,94.4 19.2,94.3 19,94.3 18.7,94.2 18.5,94.2 18.3,94.1 18.1,94.1 17.8,94 17.6,94 17.4,93.9 17.1,93.8 
		16.9,93.7 16.6,93.6 16.3,93.5 16.1,93.4 15.8,93.3 15.6,93.2 15.4,93.2 15.3,93.1 15.2,93.1 15,93 14.9,92.9 14.8,92.9 14.6,92.8 
		14.5,92.7 14.4,92.7 14.2,92.6 14.1,92.5 14,92.5 13.9,92.4 13.7,92.3 13.6,92.2 13.5,92.2 13.4,92.1 13.2,92 13.1,91.9 13,91.8 
		12.9,91.8 12.8,91.7 12.7,91.6 12.5,91.5 12.4,91.4 12.3,91.4 12.2,91.3 12.1,91.2 12,91.1 11.9,91 11.8,90.9 11.7,90.8 11.6,90.7 
		11.5,90.6 11.4,90.5 11.3,90.4 11.2,90.3 11.1,90.2 11,90.1 10.9,90 10.8,90 10.7,89.9 10.7,89.8 10.6,89.7 10.5,89.6 10.4,89.5 
		10.4,89.4 10.3,89.3 10.2,89.2 10.2,89.1 10.1,89 10,88.9 10,88.8 9.9,88.7 9.8,88.6 9.7,88.5 9.7,88.4 9.6,88.3 9.5,88.2 9.4,88 
		9.4,87.9 9.3,87.7 9.2,87.6 9.1,87.4 9.1,87.3 9,87.1 8.9,87 8.9,86.8 8.8,86.7 8.8,86.6 8.7,86.5 8.7,86.3 8.6,86.2 8.6,86.1 
		8.5,85.9 8.5,85.8 8.4,85.5 8.3,85.3 8.2,85 8.1,84.7 8,84.4 8,84.1 7.9,83.8 7.8,83.5 7.8,83.2 7.7,82.9 7.6,82.6 7.6,82.3 
		7.5,82 7.5,81.7 7.4,81.4 7.4,81.1 7.3,80.8 7.3,80.5 7.3,80.2 7.2,79.9 7.2,79.7 7.2,79.5 7.2,79.2 7.2,79 7.1,78.8 7.1,78.3 
		7.1,78 7.1,77.6 7,77.3 7,77 7,76.6 7,76.3 7,76 7,75.6 6.9,75.1 6.9,74.7 6.9,74.2 6.9,73.7 6.9,73.2 6.9,72.6 6.9,72 6.9,71.4 
		6.9,70.3 6.9,68.1 6.9,67.1 6.9,66.3 6.9,65.5 6.9,64.7 6.9,63.9 6.9,63 6.9,62.2 6.9,61.1 6.9,60.5 6.9,60 6.8,59.4 6.8,58.9 
		6.8,58.3 6.8,57.7 6.8,57.2 6.8,56.6 6.7,56 6.7,55.5 6.7,54.9 6.7,54.4 6.7,53.8 6.6,53.2 6.6,52.7 6.6,52.1 6.5,51.5 6.5,51 
		6.5,50.4 6.4,49.9 6.4,49.3 6.3,48.7 6.3,47.8 6.2,46.9 6.1,46 6,45.1 6,44.4 5.9,43.6 5.8,42.8 5.7,42.1 5.6,40.4 5.2,37.2 
		5,35.6 4.9,34.5 4.8,33.4 4.7,32.3 4.7,31.8 4.6,31.2 4.6,30.7 4.5,30.2 4.5,29.6 4.4,29.1 4.4,28.5 4.4,28 4.3,27.5 4.3,26.9 
		4.2,26.4 4.2,25.8 4.2,25.3 4.2,24.8 4.2,24.7 4.2,24.6 4.2,24.6 4.2,24.5 4.2,24.5 4.2,24.4 4.2,24.4 4.2,24.3 4.2,24.2 4.2,24.2 
		4.2,24.1 4.2,24.1 4.2,24 4.3,23.9 4.3,23.9 4.3,23.8 4.3,23.8 4.3,23.7 4.4,23.7 4.4,23.6 4.4,23.6 4.4,23.5 4.5,23.5 4.5,23.4 
		4.5,23.4 4.6,23.3 4.6,23.3 4.6,23.2 4.7,23.2 4.7,23.1 4.8,23.1 4.8,23 4.8,23 4.9,23 4.9,22.9 5,22.9 5,22.8 5.1,22.8 5.1,22.8 
		5.2,22.7 5.2,22.7 5.3,22.7 5.3,22.6 5.4,22.6 5.4,22.6 5.5,22.6 5.5,22.5 5.6,22.5 5.6,22.5 5.7,22.5 5.7,22.4 5.8,22.4 5.9,22.4 
		5.9,22.4 6,22.4 6,22.4 6.1,22.3 6.1,22.3 6.2,22.3 6.3,22.3 6.3,22.3 6.4,22.3 6.4,22.3 6.5,22.3 21.3,22.3 25.6,22.3 25.5,21.9 
		25.5,21.5 25.5,21.1 25.5,20.7 25.5,20.3 25.5,19.9 25.5,19.5 	"/>
</g>
<g id="HATCH_428_">
	<polygon class="st1" points="49.8,19.2 48.3,19.2 43.9,19.2 41.6,19.2 39.4,19.2 34.8,19.2 33,19.2 32.1,19.2 31.2,19.2 30.3,19.2 
		29.4,19.2 28.9,19.2 28.5,19.2 28,19.1 27.6,19.1 27.6,19.4 27.6,19.8 27.6,20.1 27.6,20.4 27.6,20.6 27.6,20.9 27.6,21.4 
		27.6,21.8 27.7,22.3 29.3,22.3 33.7,22.3 39.9,22.3 41.9,22.3 44.1,22.3 48,22.3 49.6,22.3 49.6,22.3 49.7,22.1 49.7,21.8 
		49.7,21.6 49.7,21.4 49.7,21.2 49.7,20.9 49.7,20.7 49.7,20.5 49.7,20.2 49.8,19.8 49.8,19.5 	"/>
</g>
<g id="POLYLINE_786_">
	<path class="st2" d="M25.5,19.1l-0.6,0l-0.7,0l-0.7,0l-0.7,0l-0.7,0l-0.7,0l-0.7-0.1c0,0-0.7-0.1-0.7-0.1s-0.7-0.1-0.7-0.1
		l-0.7-0.1l-0.7-0.1l-1.4-0.1L14,18.2L12.6,18L11.9,18c0,0-0.7-0.1-0.7-0.1l-0.7-0.1c0,0-0.7-0.1-0.7-0.1l-0.7-0.1
		c0,0-0.7-0.1-0.7-0.1l-0.7,0l-0.7,0l-0.7,0c0,0-0.7,0-0.7,0l-0.7,0c0,0-0.7,0-0.7,0s-0.3,0-0.3,0l-0.3,0l-0.3,0l-0.4,0
		c0,0-0.1,0-0.1,0l-0.1,0c0,0-0.1,0-0.1,0s-0.1,0-0.1,0l-0.1,0l-0.1,0l-0.1,0c0,0-0.1,0-0.1,0s-0.1,0-0.1,0s-0.1,0-0.1,0l-0.1,0
		l-0.1,0l-0.1,0l-0.1,0c0,0-0.1,0-0.1,0l-0.1,0l-0.1,0c0,0-0.1,0-0.1,0l-0.1,0l-0.1,0c0,0-0.1,0-0.1,0l0,0l0,0l0,0l0,0c0,0,0,0,0,0
		l0,0l0,0l0,0c0,0,0,0,0,0s0,0,0,0s0,0,0,0l0,0l0,0l0,0l0,0l0,0l0,0l0,0l0,0l0,0l0,0l0,0l0,0l0,0l0,0c0,0,0,0,0,0l0,0l0,0
		c0,0,0,0,0,0l0,0.1c0,0,0,0.1,0,0.1s0,0.1,0,0.1l0,0.1l0,0.1l0,0.1l0,0.1c0,0,0,0.1,0,0.1l0,0.1l0,0.1l0,0l0,0l0,0l0,0.5l0,0.5
		c0,0,0,0.5,0,0.5s0,0.5,0,0.5s0,0.5,0,0.5l0,0.5l0,0.5l0,0.5c0,0,0,0.5,0,0.5s0,0.5,0,0.5s0,0.5,0,0.5l0,0.5l0,0.5c0,0,0,0.5,0,0.5
		l0,0.5l0,0.5l0,0.5l0,0.5l0,0.5l0,0.5l0,0.5l0,0.4l0,0.4l0,0.4c0,0,0,0.4,0,0.4s0,0.4,0,0.4l0,0.4l0,0.4l0,0.4l0,0.4l0,0.4l0,0.4
		l0,0.4L1,35L1,35.4l0.1,0.4l0.1,0.9l0.1,0.9l0.1,0.8c0,0,0.1,0.8,0.1,0.8l0.3,2.5c0,0,0.1,0.8,0.1,0.8l0.1,0.8c0,0,0.1,0.8,0.1,0.8
		l0.1,0.8c0,0,0,0.4,0,0.4s0,0.4,0,0.4l0,0.4c0,0,0,0.4,0,0.4s0,0.4,0,0.4s0,0.4,0,0.4l0,0.3c0,0,0,0.3,0,0.3s0.1,0.6,0.1,0.6
		s0,0.6,0,0.6l0,0.6l0,0.6l0,0.6l0,0.6c0,0,0,0.6,0,0.6l0,0.6l0,0.6l0,0.6l0,0.6c0,0,0,0.6,0,0.6s0,0.6,0,0.6L3,57c0,0,0,0.6,0,0.6
		l0,0.6l0,0.6c0,0,0,0.6,0,0.6l0,0.6l0,1.3l0,3.9l0,1.3l0,1.4l0,0.7l0,0.7l0,0.7l0,0.7l0,0.7l0,0.4l0,0.4l0,0.4l0,0.4l0,0.4
		c0,0,0,0.4,0,0.4l0,0.4c0,0,0,0.4,0,0.4l0,0.4c0,0,0,0.4,0,0.4l0,0.4c0,0,0,0.4,0,0.4l0,0.4l0,0.4c0,0,0,0.4,0,0.4s0,0.4,0,0.4
		s0,0.4,0,0.4l0,0.4l0,0.4l0,0.4l0,0.4c0,0,0,0.4,0,0.4s0.1,0.4,0.1,0.4l0.1,0.4l0.1,0.4l0.1,0.4c0,0,0.1,0.4,0.1,0.4S4,82.2,4,82.2
		L4,82.6l0.1,0.4l0.1,0.3l0.1,0.3c0,0,0.1,0.3,0.1,0.3l0.1,0.3c0,0,0.1,0.3,0.1,0.3S4.6,85,4.6,85l0.1,0.3l0.1,0.3
		c0,0,0.1,0.2,0.1,0.2L4.9,86L5,86.2l0.1,0.2l0.1,0.2l0.1,0.2l0.1,0.2L5.3,87l0.1,0.2l0.1,0.2l0.1,0.2l0.1,0.2c0,0,0.1,0.2,0.1,0.2
		l0.1,0.2l0.1,0.2l0.1,0.2c0,0,0.1,0.2,0.1,0.2L6,88.5c0,0,0.1,0.2,0.1,0.2l0.1,0.1L6.2,89l0.1,0.1l0.1,0.1c0,0,0.1,0.1,0.1,0.1
		l0.1,0.1l0.1,0.1c0,0,0.1,0.1,0.1,0.1L6.7,90c0,0,0.1,0.1,0.1,0.1s0.1,0.1,0.1,0.1S7,90.4,7,90.4l0.1,0.1l0.1,0.2l0.1,0.2L7.4,91
		c0,0,0.1,0.2,0.1,0.2l0.1,0.2l0.1,0.2l0.1,0.1c0,0,0.1,0.1,0.1,0.1l0.1,0.1l0.1,0.1l0.1,0.1l0.1,0.1l0.1,0.1l0.1,0.1l0.1,0.1
		l0.1,0.1L9.1,93c0,0,0.1,0.1,0.1,0.1s0.1,0.1,0.1,0.1s0.1,0.1,0.1,0.1l0.1,0.1l0.1,0.1l0.1,0.1l0.1,0.1l0.1,0.1l0.1,0.1
		c0,0,0.1,0.1,0.1,0.1l0.1,0.1l0.1,0.1l0.1,0.1l0.2,0.1l0.2,0.1l0.2,0.1l0.2,0.1c0,0,0.2,0.1,0.2,0.1l0.2,0.1l0.2,0.1l0.2,0.1
		l0.2,0.1l0.2,0.1l0.2,0.1l0.2,0.1l0.2,0.1l0.2,0.1l0.2,0.1c0,0,0.2,0.1,0.2,0.1l0.2,0.1l0.2,0.1l0.2,0.1l0.2,0.1l0.2,0.1l0.2,0.1
		l0.2,0.1l0.2,0.1l0.2,0.1l0.2,0.1l0.2,0.1l0.2,0.1c0,0,0.2,0.1,0.2,0.1l0.2,0.1l0.2,0.1c0,0,0.2,0.1,0.2,0.1s0.2,0.1,0.2,0.1
		s0.2,0.1,0.2,0.1l0.2,0.1l0.2,0.1l0.2,0.1l0.2,0.1l0.2,0.1c0,0,0.2,0.1,0.2,0.1l0.2,0.1l0.2,0.1l0.2,0.1l0.2,0.1
		c0,0,0.2,0.1,0.2,0.1s0.2,0.1,0.2,0.1s0.2,0,0.2,0l0.2,0l0.2,0c0,0,0.2,0,0.2,0l0.2,0l0.2,0l0.2,0l0.2,0l0.4,0.1l0.4,0.1l0.4,0.1
		l0.4,0.1l0.4,0.1l0.4,0.1l0.4,0.1l0.4,0.1l0.4,0.1l0.4,0l0.4,0l0.4,0l0.4,0c0,0,0.4,0,0.4,0s0.4,0,0.4,0l0.4,0l0.4,0l0.4,0
		c0,0,0.4,0,0.4,0s0.4,0,0.4,0l0.4,0l0.4,0l0.6,0c0,0,0.6,0,0.6,0s0.6,0,0.6,0s0.6,0,0.6,0s0.6,0,0.6,0l0.6,0l0.6,0l0.6,0l0.6,0
		l0.6,0l1.1,0l1.1,0c0,0,1.1,0,1.1,0l2.2,0l1.1,0c0,0,1.1,0,1.1,0l1.1,0l0.6,0l0.6,0l0.6,0l0.6,0l0.6,0l0.6,0l1.6,0.1l0.8,0l0.4,0
		l0.4,0l0.4,0l0.4,0l0.4,0l0.4,0l0.4,0c0,0,0.4,0,0.4,0s0.4,0,0.4,0l0.4,0c0,0,0.2,0,0.2,0l0.2,0l0.2,0l0.2,0l0.2,0l0.2,0l0.2,0
		l0.2,0l0.2,0l0.2,0l0.2,0l0.2,0l0.2,0l0.2,0l0.2,0l0.2,0l0.2,0l0.2,0l0.2,0l0.2,0l0.2,0l0.2,0l0.2,0l0.2,0l0.2,0l0.2-0.1l0.2-0.1
		l0.2-0.1l0.2-0.1l0.2-0.1c0,0,0.2-0.1,0.2-0.1l0.2-0.1l0.2-0.1l0.2-0.1c0,0,0.2-0.1,0.2-0.1s0.2-0.1,0.2-0.1l0.2-0.1l0.2-0.1
		l0.2-0.1l0.2-0.1l0.2-0.1l0.2-0.1l0.2-0.1c0,0,0.2-0.1,0.2-0.1l0.2-0.1c0,0,0.2-0.1,0.2-0.1l0.2-0.1L64,98l0.2-0.1l0.2-0.1l0.2-0.1
		l0.2-0.1l0.2-0.1l0.2-0.1l0.2-0.1c0,0,0.2-0.1,0.2-0.1s0.2-0.1,0.2-0.1l0.2-0.1c0,0,0.2-0.1,0.2-0.1s0.2-0.1,0.2-0.1l0.2-0.1
		l0.2-0.1l0.2-0.1l0.1-0.1c0,0,0.1-0.1,0.1-0.1l0.1-0.1l0.1-0.1c0,0,0.1-0.1,0.1-0.1l0.1-0.1l0.1-0.1l0.1-0.1l0.1-0.1l0.1-0.1
		l0.1-0.1l0.1-0.1l0.1-0.2l0.1-0.2l0.1-0.2l0.1-0.2l0.1-0.2l0.1-0.2l0.1-0.2l0.1-0.2l0.1-0.2l0.1-0.2l0.1-0.2l0.1-0.2l0.1-0.2
		c0,0,0.1-0.2,0.1-0.2l0.1-0.2l0.1-0.2c0,0,0.1-0.2,0.1-0.2l0.1-0.2l0.1-0.2l0.1-0.2l0.1-0.2l0.1-0.2l0.1-0.2l0.1-0.2l0.1-0.2
		l0.1-0.2l0.1-0.2l0.1-0.2l0.1-0.2l0.1-0.2l0.1-0.2l0.1-0.2l0.1-0.2l0.1-0.2l0.1-0.2l0.1-0.2l0.1-0.2l0.1-0.2l0.1-0.2l0-0.2
		c0,0,0-0.2,0-0.2l0-0.2l0-0.2c0,0,0-0.2,0-0.2l0-0.2l0-0.2l0-0.2l0-0.2l0-0.2l0-0.2l0-0.2l0-0.2l0-0.2c0,0,0-0.2,0-0.2l0-0.2l0-0.2
		l0-0.2c0,0,0-0.4,0-0.4l0-0.4c0,0,0-0.4,0-0.4l0-0.4l0-0.4l0-0.4l0-0.4c0,0,0-0.4,0-0.4l0-0.4l0-0.4c0,0,0-0.8,0-0.8l0.1-1.7l0-0.9
		l0-0.9l0-0.9l0.1-1.7l0.1-1.7c0,0,0.1-1.7,0.1-1.7s0.1-1.7,0.1-1.7s0.1-1.7,0.1-1.7l0.1-1.7l0.4-6.9l0.1-1.7c0,0,0.1-1.7,0.1-1.7
		l0.1-1.7l0.1-1.7l0.1-1.7l0.1-1.7l0-0.9l0-0.9l0-0.9l0-0.9l0-0.9l0-0.9c0,0,0-0.9,0-0.9l0-0.9l0-0.9c0,0,0-0.9,0-0.9l0-0.9l0-0.9
		l0-0.9l0-0.9c0,0,0-0.9,0-0.9l0-0.9l0-0.9l0-0.9c0,0,0-0.9,0-0.9l0-0.9l0-0.9l0-0.9l0-0.9l0-0.9l0-0.9l0-0.9c0,0,0-0.9,0-0.9
		s0-0.9,0-0.9l0-0.1l0-0.1l0-0.1l0-0.1l0-0.1c0,0,0-0.1,0-0.1s0-0.1,0-0.1l0-0.1l0-0.1l0-0.1l0-0.1l0-0.1l0-0.1l0-0.1l0-0.1l0-0.1
		l0-0.1l0-0.1l0-0.1l0-0.1l0-0.1l0,0l0,0l0,0l0,0c0,0,0,0,0,0l0,0l0,0l0,0l0,0l0,0l0,0l0,0l0,0l0,0l0,0l0,0l0,0l0,0l0,0l0,0l0,0l0,0
		l0,0l-0.1,0l-0.1,0l-0.1,0c0,0-0.1,0-0.1,0l-0.1,0l-0.1,0l-0.1,0l-0.1,0l-0.1,0l-0.1,0l-0.1,0c0,0-0.1,0-0.1,0l-0.1,0l-0.1,0
		l-0.1,0l-0.1,0c0,0-0.1,0-0.1,0l-0.1,0l-0.1,0l-0.1,0l-4.2-0.2l-1.5-0.1l-1.5-0.1l-0.8,0l-0.7,0l-0.7,0l-0.7,0l-0.7,0l-0.7,0
		l-0.6,0l-0.6,0l-0.6,0c0,0-0.6,0-0.6,0l-0.5,0l-0.5,0l-1.1,0l-1,0l-3,0l-0.1,0.4L52.6,20l0,0.2l0,0.2l0,0.2l0,0.2l0,0.2l0,0.2
		l0,0.2c0,0,0,0.2,0,0.2s0,0.2,0,0.2l0,0.2l0,0.2l0,0.2l1.5,0l1.6,0l0.8,0l0.8,0l0.8,0l0.8,0l0.4,0l0.4,0l0.4,0c0,0,0.4,0,0.4,0
		l0.5,0l0.5,0l0.5,0l0.5,0l0.5,0l0.5,0l1,0l0.7,0c0,0,0.7,0,0.7,0s1.5,0.1,1.5,0.1l0,0l0,0l0,0l0.1,0l0.1,0l0.1,0c0,0,0.1,0,0.1,0
		l0.1,0l0.1,0l0.1,0l0.1,0l0.1,0l0.1,0l0.1,0l0,0l0,0l0,0l0,0l0,0c0,0,0,0,0,0l0,0l0,0l0,0l0,0l0,0l0,0l0,0l0,0l0,0l0,0l0,0l0,0l0,0
		l0,0l0,0l0,0l0,0l0,0l0,0l0,0l0,0l0,0c0,0,0,0,0,0l0,0l0,0c0,0,0,0,0,0l0,0l0,0c0,0,0,0.1,0,0.1s0,0.1,0,0.1l0,0.1l0,0.1l0,0.1
		l0,0.1l0,0.1l0,0.1l0,0.1l0,0.1l0,0.1l0,0l0,0c0,0,0,0,0,0l0.1,1.3l0.1,1.3l0.1,1.3l0.1,1.3l0.1,1.3l0,1.3l0,1.3l0,1.3l0,0.8l0,0.8
		l0,0.8l0,0.8c0,0,0,0.8,0,0.8l0,0.8l0,0.8c0,0,0,0.8,0,0.8l0,0.8l0,0.8l0,0.8l0,0.8l0,1.6l0,1.6l0,1.7l0,1.7l0,1.7l0,1.7l0,1.7
		l0,1.7l0,1.7l0,1.7l0,1.7c0,0,0,1.7,0,1.7l0,1.7l0,1.7l0,1.7l0,1.7l0,1.7c0,0,0,1.7,0,1.7l0,1.6l-0.1,2.3l0,0.7l0,0.6l0,0.6l0,0.3
		l0,0.3l0,0.3c0,0,0,0.3,0,0.3l0,0.4l0,0.4l0,0.4l0,0.4l0,0.4c0,0,0,0.4,0,0.4l0,0.4l0,0.4L69,85.2l0,0.2c0,0,0,0.2,0,0.2l0,0.2
		l0,0.2l0,0.2l0,0.2c0,0,0,0.2,0,0.2l0,0.2l0,0.2l0,0.2l0,0.2l0,0.2l0,0.2l0,0.2l0,0.2l0,0.2c0,0,0,0.2,0,0.2l0,0.2l-0.1,0.2
		l-0.1,0.2l-0.1,0.2l-0.1,0.1L68,88.8L67.9,89l-0.1,0.2l-0.1,0.2l-0.1,0.2l-0.1,0.2l-0.1,0.1l-0.1,0.1c0,0-0.1,0.2-0.1,0.2l-0.1,0.2
		l-0.1,0.2l-0.1,0.2l-0.1,0.1L67,90.8l-0.1,0.1l-0.1,0.1l-0.1,0.1c0,0-0.1,0.1-0.1,0.1l-0.1,0.1l-0.1,0.1l-0.1,0.1l-0.1,0.1
		l-0.1,0.1c0,0-0.1,0.1-0.1,0.1S66,92.2,66,92.2s-0.1,0.1-0.1,0.1l-0.1,0.1l-0.1,0.1l-0.1,0.1l-0.1,0.1l-0.1,0.1
		c0,0-0.1,0.1-0.1,0.1l-0.1,0.1l-0.1,0.1L65,93.3l-0.1,0.1l-0.1,0.1l-0.1,0.1l-0.1,0.1l-0.1,0.1l-0.1,0.1L64.2,94l-0.1,0.1L64,94.2
		l-0.1,0.1l-0.1,0.1l-0.1,0.1l-0.1,0.1c0,0-0.1,0.1-0.1,0.1l-0.1,0.1l-0.1,0.1L63,94.9l-0.1,0.1L62.8,95l-0.1,0.1l-0.1,0.1l-0.1,0.1
		l-0.1,0.1l-0.1,0.1L62,95.5c0,0-0.1,0.1-0.1,0.1s-0.1,0.1-0.1,0.1l-0.1,0.1l-0.1,0.1c0,0-0.2,0.1-0.2,0.1l-0.2,0.1L61,95.9L60.8,96
		c0,0-0.2,0.1-0.2,0.1l-0.2,0.1l-0.2,0.1L60,96.2l-0.1,0l-0.1,0l-0.1,0l-0.1,0l-0.1,0l-0.1,0c0,0-0.1,0-0.1,0l-0.1,0l-0.2,0l-0.2,0
		l-0.2,0l-0.2,0c0,0-0.2,0-0.2,0l-0.2,0l-0.2,0l-0.2,0l-0.2,0l-0.2,0l-0.2,0l-0.2,0l-0.2,0l-0.2,0l-0.2,0l-0.2,0c0,0-0.3,0-0.3,0
		s-0.3,0-0.3,0l-0.3,0l-0.3,0l-0.4,0l-0.4,0l-0.4,0l-0.4,0l-0.5,0l-0.5,0l-0.3,0l-0.3,0c0,0-0.7-0.1-0.7-0.1l-0.7-0.1l-1.7-0.2
		l-0.5-0.1L48.2,96L47.6,96l-0.6-0.1l-0.6,0l-0.6,0l-0.6,0l-0.6,0c0,0-0.8-0.1-0.8-0.1l-0.8,0c0,0-0.8,0-0.8,0l-0.8,0l-0.8,0l-0.8,0
		c0,0-0.8,0-0.8,0l-0.8,0c0,0-0.9,0-0.9,0s-0.9,0-0.9,0s-0.9,0-0.9,0l-0.9,0l-1.8,0l-1.8,0l-1.1,0l-1.1,0l-0.7,0l-0.7,0l-0.7,0
		l-0.7,0l-0.4,0l-0.4,0l-0.4,0l-0.4,0l-0.4,0l-0.4,0l-0.4,0l-0.4,0c0,0-0.4,0-0.4,0l-0.4,0l-0.4,0L22,94.8l-0.4,0l-0.4,0l-0.4-0.1
		l-0.4-0.1l-0.3-0.1l-0.3-0.1l-0.3-0.1l-0.3-0.1c0,0-0.2,0-0.2,0l-0.2-0.1l-0.2-0.1l-0.2-0.1l-0.2-0.1L17.8,94L17.6,94l-0.2-0.1
		l-0.3-0.1l-0.3-0.1l-0.3-0.1l-0.3-0.1l-0.3-0.1l-0.3-0.1c0,0-0.3-0.1-0.3-0.1l-0.1-0.1l-0.1-0.1c0,0-0.1-0.1-0.1-0.1L15,93
		c0,0-0.1-0.1-0.1-0.1l-0.1-0.1l-0.1-0.1l-0.1-0.1l-0.1-0.1c0,0-0.1-0.1-0.1-0.1s-0.1-0.1-0.1-0.1L14,92.5l-0.1-0.1l-0.1-0.1
		l-0.1-0.1c0,0-0.1-0.1-0.1-0.1l-0.1-0.1c0,0-0.1-0.1-0.1-0.1l-0.1-0.1L13,91.8l-0.1-0.1l-0.1-0.1l-0.1-0.1c0,0-0.1-0.1-0.1-0.1
		l-0.1-0.1l-0.1-0.1l-0.1-0.1l-0.1-0.1L12,91.1L11.9,91l-0.1-0.1c0,0-0.1-0.1-0.1-0.1l-0.1-0.1l-0.1-0.1l-0.1-0.1l-0.1-0.1l-0.1-0.1
		l-0.1-0.1L11,90.1L10.9,90L10.8,90l-0.1-0.1l-0.1-0.1c0,0-0.1-0.1-0.1-0.1l-0.1-0.1l-0.1-0.1c0,0-0.1-0.1-0.1-0.1s-0.1-0.1-0.1-0.1
		s-0.1-0.1-0.1-0.1l-0.1-0.1L10.1,89L10,88.9L10,88.8c0,0-0.1-0.1-0.1-0.1l-0.1-0.1c0,0-0.1-0.1-0.1-0.1s-0.1-0.1-0.1-0.1l-0.1-0.1
		c0,0-0.1-0.1-0.1-0.1L9.4,88l-0.1-0.1l-0.1-0.1l-0.1-0.1c0,0-0.1-0.2-0.1-0.2s-0.1-0.2-0.1-0.2L9,87.1c0,0-0.1-0.1-0.1-0.1
		l-0.1-0.1l-0.1-0.1l-0.1-0.1c0,0-0.1-0.1-0.1-0.1l-0.1-0.1l-0.1-0.1l0-0.1l0-0.1l0-0.1l-0.1-0.3l-0.1-0.3L8.2,85
		c0,0-0.1-0.3-0.1-0.3L8,84.4L8,84.1l-0.1-0.3c0,0-0.1-0.3-0.1-0.3l-0.1-0.3l-0.1-0.3l-0.1-0.3l-0.1-0.3c0,0-0.1-0.3-0.1-0.3
		s0-0.3,0-0.3l0-0.3l0-0.3l0-0.3c0,0,0-0.3,0-0.3s0-0.3,0-0.3l0-0.2l0-0.2l0-0.2l0-0.2l0-0.2l0-0.2c0,0,0-0.5,0-0.5s0-0.3,0-0.3
		s0-0.3,0-0.3l0-0.3L7,77c0,0,0-0.3,0-0.3l0-0.3c0,0,0-0.3,0-0.3s0-0.3,0-0.3l0-0.5l0-0.5l0-0.5l0-0.5l0-0.6l0-0.6l0-0.6l0-0.6
		l0-1.1l0-2.2l0-1l0-0.8l0-0.8l0-0.8c0,0,0-0.8,0-0.8s0-0.8,0-0.8s0-0.8,0-0.8s0-1.1,0-1.1s0-0.6,0-0.6l0-0.6c0,0,0-0.6,0-0.6l0-0.6
		c0,0,0-0.6,0-0.6s0-0.6,0-0.6l0-0.6l0-0.6l0-0.6c0,0,0-0.6,0-0.6s0-0.6,0-0.6s0-0.6,0-0.6s0-0.6,0-0.6l0-0.6l0-0.6l0-0.6l0-0.6
		l0-0.6l0-0.6l0-0.6c0,0,0-0.6,0-0.6l0-0.6c0,0-0.1-0.9-0.1-0.9l-0.1-0.9L6.1,46L6,45.1L6,44.4l-0.1-0.8l-0.1-0.8l-0.1-0.8l-0.2-1.6
		c0,0-0.3-3.3-0.3-3.3S5,35.6,5,35.6s-0.1-1.1-0.1-1.1l-0.1-1.1l-0.1-1.1c0,0-0.1-0.5-0.1-0.5s0-0.5,0-0.5l0-0.5l0-0.5l0-0.5l0-0.5
		l0-0.5l0-0.5l0-0.5l0-0.5l0-0.5l0-0.5l0-0.5l0-0.5c0,0,0-0.1,0-0.1s0-0.1,0-0.1l0-0.1l0-0.1l0-0.1l0-0.1l0-0.1c0,0,0-0.1,0-0.1
		s0-0.1,0-0.1s0-0.1,0-0.1s0-0.1,0-0.1l0-0.1c0,0,0-0.1,0-0.1l0-0.1c0,0,0-0.1,0-0.1s0-0.1,0-0.1s0-0.1,0-0.1l0-0.1l0-0.1
		c0,0,0-0.1,0-0.1s0-0.1,0-0.1l0-0.1l0-0.1l0-0.1l0,0c0,0,0,0,0,0l0,0l0,0c0,0,0,0,0,0l0,0l0,0l0,0l0,0l0,0l0,0l0,0l0,0l0,0l0,0
		c0,0,0,0,0,0l0,0c0,0,0.1,0,0.1,0l0.1,0l0.1,0c0,0,0.1,0,0.1,0l0.1,0l0.1,0l0.1,0c0,0,0.1,0,0.1,0l0.1,0l0.1,0l0.1,0l0.1,0l0.1,0
		l0.1,0c0,0,0.1,0,0.1,0s0.1,0,0.1,0s0.1,0,0.1,0l0.1,0l0.1,0l0.1,0c0,0,0.1,0,0.1,0s0.1,0,0.1,0l0.1,0c6.4,0,12.7,0,19.1,0
		c0,0,0-0.4,0-0.4l0-0.4l0-0.4l0-0.4l0-0.4l0-0.4c0,0,0-0.4,0-0.4L25.5,19.1"/>
</g>
<g id="POLYLINE_787_">
	<path class="st2" d="M49.8,19.2l-1.5,0l-4.4,0l-2.3,0l-2.3,0l-4.6,0l-1.8,0l-0.9,0c0,0-0.9,0-0.9,0l-0.9,0l-0.9,0l-0.5,0
		c0,0-0.5,0-0.5,0l-0.5,0l-0.5,0c0,0,0,0.3,0,0.3s0,0.3,0,0.3l0,0.3l0,0.3l0,0.2l0,0.2l0,0.5l0,0.5c0,0,0,0.5,0,0.5l6,0l6.2,0l2.1,0
		l2.2,0l3.9,0l1.7,0C49.7,21.3,49.7,20.2,49.8,19.2"/>
</g>
<g id="POLYLINE_788_">
	<path class="st3" d="M49.7,27.5l0,0.1l0,0.1l0,0.1l0,0.1l0,0l0,0l0,0c0,0,0,0,0,0l0,0l0,0l0,0l0,0l0,0l0,0l0,0l0,0l0,0l0,0l0,0l0,0
		c0,0,0,0,0,0c0,0,0,0,0,0c0,0,0,0,0,0c0,0,0,0,0,0c0,0,0,0,0,0c0,0,0,0,0,0c0,0,0,0,0,0c0,0,0,0,0,0c0,0,0,0,0,0c0,0,0,0,0,0
		c0,0,0,0,0,0c0,0,0,0,0,0c0,0,0,0,0,0c0,0,0,0,0,0c0,0,0,0,0,0l0,0c0,0,0,0,0,0l0,0l0,0l0,0c0,0,0,0,0,0l0,0l0,0l0,0l0,0l0,0l0,0
		l0,0l0,0l0.1,0l0.2,0l0.1,0l0.1,0l0.1,0l0,0l0,0l0,0l0,0l0,0l0,0l0,0l0,0c0,0,0,0,0,0c0,0,0,0,0,0c0,0,0,0,0,0c0,0,0,0,0,0
		c0,0,0,0,0,0c0,0,0,0,0,0c0,0,0,0,0,0c0,0,0,0,0,0c0,0,0,0,0,0c0,0,0,0,0,0c0,0,0,0,0,0c0,0,0,0,0,0c0,0,0,0,0,0c0,0,0,0,0,0
		c0,0,0,0,0,0c0,0,0,0,0,0c0,0,0,0,0,0c0,0,0,0,0,0l0,0l0,0l0,0l0,0l0,0l0,0l0,0l0,0l0,0l0,0c0,0,0-0.1,0-0.1l0-0.1l0-0.1l0-0.1
		l0-0.1l0-0.1l0-0.1l0-0.2c0,0,0-0.2,0-0.2l0-0.2l0-0.2l0-0.6l0-1.1c0,0,0-0.3,0-0.3l0-0.3l0-0.3l0-0.3c0,0,0-0.3,0-0.3l0-0.3
		c0,0,0-0.3,0-0.3l0-0.3l0-0.3l0-0.3c0,0,0-0.2,0-0.2l0-0.2l0-0.2l0-0.2l0-0.2l0-0.2l0-0.2l0-0.2c0,0,0-0.2,0-0.2l0-0.2
		c0,0,0-0.2,0-0.2l0-0.2l0.1-0.4l0.1-0.4l0.1-0.4l0.1-0.4l0.4-1.6l0.1-0.4l0.1-0.4l0.1-0.4l0.1-0.4l0-0.2l0-0.2l0-0.2l0-0.2l0-0.2
		l0-0.2l0-0.2l0-0.2l0-0.2c0,0,0-0.2,0-0.2s0-0.2,0-0.2l0-0.2l0-0.2l0-0.2c0,0,0-0.2,0-0.2l0-0.2l0-0.2l0-0.2l0-0.2l0-0.2l0-0.2
		l0-0.2l0-0.2l0-0.2l0-0.2l0-0.2l0-0.2l0-0.2c0,0,0-0.2,0-0.2l0-0.2l0-0.2l0-0.2l0-0.2l0-0.2l0-0.2l0-0.2l0-0.2l-0.1-0.2l-0.1-0.2
		l-0.1-0.2c0,0-0.1-0.2-0.1-0.2l-0.1-0.2l-0.1-0.2c0,0-0.1-0.2-0.1-0.2l-0.1-0.2l-0.1-0.2l-0.1-0.2l-0.1-0.2L53,4.1l-0.1-0.2l0-0.1
		l0-0.1l0-0.1l0-0.1l-0.1-0.1l-0.1-0.1l-0.1-0.1l-0.1-0.1l-0.1-0.1L52.4,3l-0.1-0.1l-0.1-0.1l-0.1-0.1c0,0-0.1-0.1-0.1-0.1
		s-0.1-0.1-0.1-0.1L52,2.5L52,2.4l-0.1-0.1l-0.1-0.1c0,0-0.1-0.1-0.1-0.1l-0.1-0.1l-0.1-0.1L51.6,2L51.5,2l-0.1-0.1
		c0,0-0.1-0.1-0.1-0.1l-0.1-0.1l-0.1-0.1l-0.1-0.1l-0.1-0.1l-0.1-0.1l-0.1,0l-0.1,0l-0.1,0l-0.1,0l-0.1,0l-0.1,0l-0.1,0l-0.1,0
		l-0.1,0l-0.1,0c0,0-0.1,0-0.1,0l-0.1,0c0,0-0.1,0-0.1,0l-0.1,0c0,0-0.1,0-0.1,0l-0.1,0l-0.1,0l-0.2-0.1l-0.2-0.1l-0.2-0.1
		c0,0-0.2,0-0.2,0l-0.2,0c0,0-0.2,0-0.2,0l-0.2,0l-0.2,0c0,0-0.2,0-0.2,0l-0.2,0l-0.2,0l-0.2,0l-0.2,0l-0.2,0l-0.2,0l-0.2,0l-0.2,0
		l-0.2,0l-0.2,0c0,0-0.2,0-0.2,0l-0.2,0l-0.2,0c0,0-0.2,0-0.2,0l-0.2,0l-0.2,0l-0.2,0l-0.2,0l-0.2,0l-0.4,0l-0.4,0c0,0-0.4,0-0.4,0
		l-1.5,0.1l-0.4,0l-0.4,0l-0.4,0l-0.2,0c0,0-0.2,0-0.2,0l-0.3,0l-0.3,0l-0.3,0l-0.3,0l-0.3,0l-0.3,0l-0.3,0l-0.3,0l-1.2,0
		c0,0-0.3,0-0.3,0s-0.3,0-0.3,0l-0.3,0l-0.3,0l-0.3,0l-0.3,0l-0.3,0l-0.3,0l-0.2,0l-0.2,0l-0.2,0l-0.2,0l-0.2,0l-0.2,0l-0.2,0
		l-0.2,0c0,0-0.2,0-0.2,0S33,1,33,1l-0.2,0l-0.2,0l-0.2,0l-0.2,0l-0.2,0l-0.2,0l-0.2,0l-0.2,0c0,0-0.2,0-0.2,0s-0.2,0-0.2,0l-0.2,0
		l-0.2,0l-0.2,0.1l-0.2,0.1l-0.2,0.1l-0.2,0.1c0,0-0.2,0.1-0.2,0.1l-0.2,0.1c0,0-0.2,0.1-0.2,0.1L29.5,2l-0.2,0.1l-0.2,0.1
		c0,0-0.2,0.1-0.2,0.1l-0.2,0.1l-0.2,0.1c0,0-0.2,0.1-0.2,0.1l-0.2,0.1L28,2.8l-0.1,0.1l-0.1,0.1c0,0-0.1,0.1-0.1,0.1L27.7,3
		l-0.1,0.1l-0.1,0.1l-0.1,0.1l-0.1,0.1c0,0-0.1,0.1-0.1,0.1s-0.1,0.1-0.1,0.1s-0.1,0.1-0.1,0.1S27,3.5,27,3.5l-0.1,0.1l-0.1,0.1
		c0,0-0.1,0.1-0.1,0.1l-0.1,0.1l-0.1,0.1L26.5,4L26.4,4l-0.1,0.1l-0.1,0.1l-0.1,0.1c0,0-0.1,0.1-0.1,0.1s-0.1,0.1-0.1,0.1l-0.1,0.1
		c0,0-0.1,0.1-0.1,0.1l-0.1,0.1l-0.1,0.1l-0.1,0.1l-0.1,0.1l0,0.1l0,0.1l0,0.1l0,0.1c0,0,0,0.1,0,0.1l0,0.1l0,0.1l0,0.1l0,0.1l0,0.1
		l0,0.1l0,0.1l0,0.1l0,0.1l0,0.1c0,0,0,0.1,0,0.1s0,0.1,0,0.1l0,0.1c0,0,0,0.1,0,0.1s0,0.1,0,0.1s0,0.1,0,0.1l0,0.1l0,0.2l0,0.2
		l0,0.2l0,0.2l0,0.2l0,0.2l0,0.2l0,0.2l0,0.2l0,0.3l0,0.3l0.1,0.9l0,0.3l0,0.3l0,0.3l0,0.3l0,0.3l0,0.3l0,0.3l0,0.3l0,0.3l0,0.3
		l0,0.3c0,0,0,0.3,0,0.3l0,0.3l0,0.3l0,0.3l0,0.3l0,0.3l0,0.5c0,0,0,0.5,0,0.5s0,1.1,0,1.1l0,0.5l0,0.5l0,0.3l0,0.3c0,0,0,0.3,0,0.3
		s0,0.3,0,0.3l0,0.3c0,0,0,0.3,0,0.3l0,0.3l0,0.3l0,0.3l0,0.3l0,0.3l0,0.3l0,0.6l0,0.6l0.1,1.9l0,0.6l0,0.6l0,0.3l0,0.3l0,0.3
		c0,0,0,0.3,0,0.3s0,0.3,0,0.3s0,0.3,0,0.3s0,0.3,0,0.3l0,0.3c0,0,0,0.3,0,0.3l0,0.3l0,0l0,0l0,0l0,0l0,0c0,0,0,0,0,0s0,0,0,0l0,0
		c0,0,0,0,0,0s0,0,0,0l0,0l0,0l0,0l0,0l0,0c0,0,0,0,0,0c0,0,0,0,0,0c0,0,0,0,0,0c0,0,0,0,0,0c0,0,0,0,0,0c0,0,0,0,0,0c0,0,0,0,0,0
		c0,0,0,0,0,0c0,0,0,0,0,0c0,0,0,0,0,0c0,0,0,0,0,0c0,0,0,0,0,0c0,0,0,0,0,0c0,0,0,0,0,0c0,0,0,0,0,0c0,0,0,0,0,0l0,0l0,0
		c0,0,0,0,0,0l0,0l0,0l0,0l0,0l0,0c0,0,0,0,0,0s0,0,0,0l0,0l0.1,0l0.1,0c0,0,0.2,0,0.2,0s0.1,0,0.1,0s0.1,0,0.1,0l0.1,0l0.1,0l0.1,0
		l0.1,0l0,0l0,0c0,0,0,0,0,0s0,0,0,0l0,0l0,0l0,0c0,0,0,0,0,0l0,0c0,0,0,0,0,0l0,0l0,0l0,0l0,0c0,0,0,0,0,0c0,0,0,0,0,0c0,0,0,0,0,0
		c0,0,0,0,0,0c0,0,0,0,0,0c0,0,0,0,0,0c0,0,0,0,0,0c0,0,0,0,0,0c0,0,0,0,0,0c0,0,0,0,0,0c0,0,0,0,0,0c0,0,0,0,0,0c0,0,0,0,0,0
		c0,0,0,0,0,0c0,0,0,0,0,0l0,0l0,0c0,0,0,0,0,0l0,0l0,0l0,0l0,0l0,0c0,0,0,0,0,0s0,0,0,0l0,0l0,0l0,0l0,0l0-0.1l0-0.1l0-0.1l0-0.2
		l0-0.2l0-0.4l0-0.4l0-0.4l0-0.3l0-0.3l0-0.3c0,0,0-0.3,0-0.3s0-0.4,0-0.4l0-0.4l-0.1-2.2l0-0.6l0-0.6l0-0.3l0-0.3c0,0,0-0.3,0-0.3
		l0-0.3l0-0.4l0-0.4c0,0,0-0.2,0-0.2l0-0.2c0,0,0-0.2,0-0.2s0-0.2,0-0.2l0-0.3l0-0.3c0,0,0-0.3,0-0.3l0-0.3c0,0,0-0.3,0-0.3l0-0.3
		l0-0.5l0.1-0.7c0,0,0.1-1.3,0.1-1.3l0-0.3l0-0.3l0-0.3c0,0,0-0.3,0-0.3l0-0.3l0-0.3l0-0.3c0,0,0-0.3,0-0.3s0-0.3,0-0.3l0-0.3
		c0,0,0-0.3,0-0.3l0-0.3l0-0.3l0-0.3l0-0.3l0-1.1l0-0.2l0-0.2c0,0,0-0.2,0-0.2l0-0.1l0-0.1c0,0,0-0.1,0-0.1s0-0.1,0-0.1l0-0.1l0-0.1
		l0-0.1c0,0,0-0.1,0-0.1s0-0.1,0-0.1l0-0.1c0,0,0-0.1,0-0.1l0-0.1l0-0.1l0-0.1c0,0,0,0,0,0s0,0,0,0l0,0l0,0l0,0l0,0c0,0,0,0,0,0
		s0,0,0,0s0,0,0,0l0,0l0,0l0,0c0,0,0,0,0,0s0,0,0,0l0,0l0,0c0,0,0,0,0,0s0,0,0,0s0,0,0,0s0,0,0,0l0,0l0,0l0,0l0,0l0,0l0,0L28.8,6
		c0,0,0,0,0,0s0,0,0,0l0.1-0.1l0.1-0.1l0.1-0.1l0.1-0.1l0.1-0.1c0,0,0.1-0.1,0.1-0.1s0.1-0.1,0.1-0.1s0.1-0.1,0.1-0.1S30,5.4,30,5.4
		l0.1-0.1l0.1,0c0,0,0.2,0,0.2,0s0.2,0,0.2,0s0.2,0,0.2,0l0.2,0l0.2,0l0.2,0l0.2,0c0,0,0.2,0,0.2,0l0.1,0l0.1,0l0.1,0l0.1,0l0.1,0
		l0.1,0c0,0,0.1,0,0.1,0l0.1,0c0,0,0.1,0,0.1,0l0.1,0c0,0,0.3,0,0.3,0s0.3,0,0.3,0l0.3,0l0.3,0l0.3,0l0.3,0l0.3,0l0.3,0l0.3,0
		c0,0,0.6,0,0.6,0l1,0l0.5,0l0.5,0l0.4,0l0.4,0l0.4,0l0.4,0l0.4,0l0.2,0l0.2,0l0.2,0c0,0,0.2,0,0.2,0l0.2,0l0.2,0l0.2,0l0.2,0l0.4,0
		l0.5,0l1.6-0.2l0.4,0l0.4,0l0.4,0c0,0,0.2,0,0.2,0l0.2,0l0.2,0l0.2,0l0.2,0l0.2,0l0.2,0l0.2,0l0.2,0l0.2,0l0.1,0l0.1,0l0.1,0l0.1,0
		c0,0,0.1,0,0.1,0l0.1,0l0.1,0l0.1,0l0.1,0c0,0,0.1,0,0.1,0l0.1,0l0.1,0c0,0,0.1,0,0.1,0l0.1,0l0.1,0l0,0l0,0l0.1,0l0,0l0,0l0,0l0,0
		l0,0l0,0l0,0l0,0l0,0l0,0l0,0l0,0l0,0c0,0,0,0,0,0c0,0,0,0,0,0c0,0,0,0,0,0c0,0,0,0,0,0c0,0,0,0,0,0l0,0c0,0,0,0,0,0s0,0,0,0l0,0
		l0,0l0,0c0,0,0,0,0,0s0,0,0,0s0,0,0,0l0,0l0,0.1l0,0.1l0,0.1l0,0.1c0,0,0,0.1,0,0.1l0,0.1L50,6l0,0.1l0,0.1l0,0.2l0,0.2l0,0.2
		l0,0.2l0,0.2l0,0.2l0,0.2l0,0.2l0,0.2l0,0.2l0,0.2l0,0.2l0,0.2l0,0.2l0,0.2l0,0.2l0,0.3l0,0.3l0,0.2l0,0.2l0,0.2c0,0,0,0.2,0,0.2
		l0,0.2l0,0.2c0,0,0,0.2,0,0.2l0,0.2l0,0.2l0,0.2l0,0.2l0,0.2l0,0.4l0,0.4l0,0.4l0,0.4l0,0.5l0,0.5c0,0,0,0.5,0,0.5s0,0.5,0,0.5
		L50,17.1c0,0-0.1,0.7-0.1,0.7l0,0.3l0,0.3c0,0,0,0.5,0,0.5s0,0.5,0,0.5l0,0.3l0,0.3c0,0,0,0.3,0,0.3l0,0.3l0,0.2l0,0.2l0,0.2l0,0.2
		c0,0,0,0.2,0,0.2l0,0.2l0,0.2l0,0.2l0,0.2l0,0.2l0,0.2l0,0.2c0,0,0,0.5,0,0.5l0,0.5l0,1.6l0,0.3l0,0.3l0,0.4l0,0.4l0,0.2L49.7,27.5
		"/>
</g>
</svg>
