<?xml version="1.0" encoding="utf-8"?>
<!-- Generator: Adobe Illustrator 21.1.0, SVG Export Plug-In . SVG Version: 6.00 Build 0)  -->
<svg version="1.1" id="Capa_1" xmlns="http://www.w3.org/2000/svg" xmlns:xlink="http://www.w3.org/1999/xlink" x="0px" y="0px"
	 viewBox="0 0 227.8 227.8" style="enable-background:new 0 0 227.8 227.8;" xml:space="preserve">
<style type="text/css">
	.st0{fill:#FF7E03;}
</style>
<g>
	<polygon class="st0" points="180,66.4 171.7,74.7 205,108 120,107.9 120.2,22.4 153.1,55.3 161.4,47.1 114.3,0 66.4,47.9 
		74.7,56.2 108,22.9 107.9,107.8 22.4,107.7 55.3,74.7 47.1,66.4 0,113.5 47.9,161.4 56.2,153.1 22.9,119.8 107.8,120 107.7,205.5 
		74.7,172.5 66.4,180.8 113.5,227.8 161.4,180 153.1,171.7 119.8,205 120,120 205.5,120.2 172.5,153.1 180.8,161.4 227.8,114.3 	"/>
</g>
</svg>
