<?xml version="1.0" encoding="utf-8"?>
<!-- Generator: Adobe Illustrator 21.1.0, SVG Export Plug-In . SVG Version: 6.00 Build 0)  -->
<svg version="1.1" id="Capa_1" xmlns="http://www.w3.org/2000/svg" xmlns:xlink="http://www.w3.org/1999/xlink" x="0px" y="0px"
	 viewBox="0 0 100 100" style="enable-background:new 0 0 100 100;" xml:space="preserve">
<style type="text/css">
	.st0{fill:#434A54;}
</style>
<g>
	<path class="st0" d="M45.5,52.5h9v10H100c0,0-0.7-22.3-1-29.3c-0.2-6.6-2.6-10.7-10-10.7H73c-2.5-4.7-5.2-9.7-6-11.3
		c-1.7-3.1-2.2-3.7-5.9-3.7H38.9c-3.7,0-4.2,0.6-5.9,3.7c-0.8,1.5-3.5,6.6-6,11.3H11c-7.4,0-9.7,4.1-10,10.7S0,62.5,0,62.5h45.5
		V52.5z M38.3,17.1c1.1-2.2,1.5-2.6,4.1-2.6h15.3c2.5,0,2.9,0.4,4.1,2.6c0.4,0.8,1.6,3,2.9,5.4H35.4C36.7,20.1,37.8,17.9,38.3,17.1z
		 M54.5,77.5h-9v-10h-43c0,0,0.6,9,1,16.6c0.2,3.2,1.1,8.4,9,8.4h75c7.9,0,8.8-5.2,9-8.4c0.4-7.8,1-16.6,1-16.6h-43
		C54.5,67.5,54.5,77.5,54.5,77.5z"/>
</g>
</svg>
