<?xml version="1.0" encoding="utf-8"?>
<!-- Generator: Adobe Illustrator 21.1.0, SVG Export Plug-In . SVG Version: 6.00 Build 0)  -->
<svg version="1.1" id="Capa_1" xmlns="http://www.w3.org/2000/svg" xmlns:xlink="http://www.w3.org/1999/xlink" x="0px" y="0px"
	 viewBox="0 0 512 512" style="enable-background:new 0 0 512 512;" xml:space="preserve">
<style type="text/css">
	.st0{fill:#FF7E03;}
</style>
<g>
	<g>
		<g>
			<path class="st0" d="M490.7,21.3c-7.8,0-14.3,4.4-18.1,10.7H448V10.7C448,4.8,443.2,0,437.3,0H288c-5.9,0-10.7,4.8-10.7,10.7V32
				h-42.7V10.7C234.7,4.8,229.9,0,224,0H74.7C68.8,0,64,4.8,64,10.7V32H39.4c-3.7-6.3-10.3-10.7-18.1-10.7C9.6,21.3,0,30.9,0,42.7
				C0,54.4,9.6,64,21.3,64c7.8,0,14.3-4.4,18.1-10.7H64v448c0,5.9,4.8,10.7,10.7,10.7c40.1,0,60.4-11.6,80-22.7
				c17.9-10.3,34.9-19.9,69.4-19.9c5.9,0,10.7-4.8,10.7-10.7V53.3h42.7v405.3c0,5.9,4.8,10.7,10.7,10.7c34.5,0,51.4,9.7,69.4,19.9
				c19.6,11.2,39.8,22.7,80,22.7c5.9,0,10.7-4.8,10.7-10.7v-448h24.6c3.7,6.3,10.3,10.7,18.1,10.7c11.8,0,21.3-9.6,21.3-21.3
				C512,30.9,502.4,21.3,490.7,21.3z M213.3,448.3c-33.2,1.8-51.5,12.3-69.3,22.4c-16,9.1-31.2,17.8-58.7,19.6v-469h128L213.3,448.3
				L213.3,448.3z M426.7,490.3c-27.5-1.8-42.7-10.5-58.7-19.6c-17.8-10.1-36.1-20.6-69.3-22.4v-427h128V490.3z"/>
			<path class="st0" d="M117.3,53.3h64c5.9,0,10.7-4.8,10.7-10.7c0-5.9-4.8-10.7-10.7-10.7h-64c-5.9,0-10.7,4.8-10.7,10.7
				C106.7,48.6,111.4,53.3,117.3,53.3z"/>
			<path class="st0" d="M330.7,53.3h64c5.9,0,10.7-4.8,10.7-10.7S400.6,32,394.7,32h-64c-5.9,0-10.7,4.8-10.7,10.7
				S324.8,53.3,330.7,53.3z"/>
		</g>
	</g>
</g>
</svg>
