<?xml version="1.0" encoding="utf-8"?>
<!-- Generator: Adobe Illustrator 21.1.0, SVG Export Plug-In . SVG Version: 6.00 Build 0)  -->
<svg version="1.1" id="Capa_1" xmlns="http://www.w3.org/2000/svg" xmlns:xlink="http://www.w3.org/1999/xlink" x="0px" y="0px"
	 viewBox="0 0 55 55" style="enable-background:new 0 0 55 55;" xml:space="preserve">
<style type="text/css">
	.st0{fill:#434A54;}
</style>
<g>
	<path class="st0" d="M53.9,24.4c0.1-0.2,0.1-0.5,0-0.8c-0.1-0.1-0.1-0.2-0.2-0.3l-12-12c-0.4-0.4-1-0.4-1.4,0s-0.4,1,0,1.4L50.6,23
		H29c-0.6,0-1,0.4-1,1s0.4,1,1,1h21.6L40.3,35.3c-0.4,0.4-0.4,1,0,1.4c0.2,0.2,0.5,0.3,0.7,0.3s0.5-0.1,0.7-0.3l12-12
		C53.8,24.6,53.9,24.5,53.9,24.4z"/>
	<path class="st0" d="M36,29c-0.6,0-1,0.4-1,1v16H25V8c0-0.4-0.3-0.8-0.7-1L8.4,2H35v16c0,0.6,0.4,1,1,1s1-0.4,1-1V1
		c0-0.6-0.4-1-1-1H2c0,0-0.1,0-0.1,0c-0.1,0-0.1,0-0.2,0c-0.1,0-0.2,0.1-0.3,0.1c0,0-0.1,0-0.1,0c0,0-0.1,0.1-0.1,0.1c0,0,0,0-0.1,0
		C1.2,0.4,1.1,0.5,1.1,0.6c0,0,0,0,0,0.1C1,0.8,1,0.9,1,1v46c0,0.1,0,0.2,0.1,0.4c0,0,0,0.1,0.1,0.1c0,0.1,0.1,0.1,0.1,0.2
		c0,0,0.1,0.1,0.1,0.1c0.1,0.1,0.1,0.1,0.2,0.1c0,0,0.1,0,0.1,0.1c0,0,0,0,0,0l22,7c0.1,0,0.2,0,0.3,0c0.2,0,0.4-0.1,0.6-0.2
		c0.3-0.2,0.4-0.5,0.4-0.8v-6h11c0.6,0,1-0.4,1-1V30C37,29.4,36.6,29,36,29z M23,52.6L3,46.3V2.4l20,6.4V52.6z"/>
</g>
</svg>
