<?xml version="1.0" encoding="utf-8"?>
<!-- Generator: Adobe Illustrator 21.1.0, SVG Export Plug-In . SVG Version: 6.00 Build 0)  -->
<svg version="1.1" id="Capa_1" xmlns="http://www.w3.org/2000/svg" xmlns:xlink="http://www.w3.org/1999/xlink" x="0px" y="0px"
	 viewBox="0 0 189.4 611.6" style="enable-background:new 0 0 189.4 611.6;" xml:space="preserve">
<style type="text/css">
	.st0{fill:#FFFFFF;}
</style>
<g>
	<g>
		<g id="Icons_5_">
			<g>
				<path class="st0" d="M135.7,0c-7.5,0-14.6,1.8-21.2,4.8c6.9,8.4,12,18.2,14.8,29.1c2.1-0.7,4.2-1.3,6.4-1.3
					c11.6,0,21.1,9.5,21.1,21.1v350.2h-24.7l0,0h-24.3V53.6C107.8,24,83.8,0,54.2,0C25.7,0,0.7,25,0.7,53.5L0.8,420
					c0,8.9,7.3,16.2,16.2,16.2h74.7l0,0H154l0,0h19.1c4.5,0,8.5-1.8,11.5-4.8s4.7-7,4.8-11.5V53.5C189.2,24,165.3,0,135.7,0z
					 M33.1,53.5c0-11.2,9.9-21.1,21.1-21.1c11.6,0,21.1,9.5,21.1,21.1v350.3H33.1V53.5z"/>
				<path class="st0" d="M13.2,460.3c-7.4,0-13.3,5.9-13.2,13.2v23.9c0.1,2.3,0.6,4.7,1.8,6.7l35,59.9c2.4,4.1,6.7,6.6,11.5,6.5h11
					v8.9c0,17.8,14.4,32.2,32.2,32.2s32.2-14.4,32.2-32.2v-8.9h11c4.7,0,9.1-2.5,11.5-6.5l35.1-59.8c1.2-2.1,1.8-4.3,1.8-6.7v-23.9
					c0-7.4-5.9-13.3-13.2-13.2H13.2V460.3z"/>
			</g>
		</g>
	</g>
</g>
</svg>
