<?xml version="1.0" encoding="iso-8859-1"?>
<!-- Generator: Adobe Illustrator 16.0.0, SVG Export Plug-In . SVG Version: 6.00 Build 0)  -->
<!DOCTYPE svg PUBLIC "-//W3C//DTD SVG 1.1//EN" "http://www.w3.org/Graphics/SVG/1.1/DTD/svg11.dtd">
<svg xmlns="http://www.w3.org/2000/svg" xmlns:xlink="http://www.w3.org/1999/xlink" version="1.1" id="Capa_1" x="0px" y="0px" width="512px" height="512px" viewBox="0 0 64.176 64.176" style="enable-background:new 0 0 64.176 64.176;" xml:space="preserve">
<g>
	<path d="M57.975,40.088H4.894c0.402,1.719,0.931,3.389,1.575,5h46.506v19.088c1.746-0.763,3.418-1.664,5-2.689V40.088z    M7.975,33.088v2h4v-2H7.975z M13.975,33.088v2h4v-2H13.975z M19.975,33.088v2h4v-2H19.975z M25.975,33.088v2h4v-2H25.975z    M31.975,33.088v2h4v-2H31.975z M37.975,33.088v2h4v-2H37.975z M43.975,33.088v2h4v-2H43.975z M49.975,33.088v2h4v-2H49.975z    M55.975,33.088v2h4v-2H55.975z M57.975,28.088V2.689c-1.583-1.025-3.254-1.926-5-2.689v23.088H5.143   c-0.431,1.624-0.748,3.293-0.942,5H57.975z" fill="#FFFFFF"/>
</g>
<g>
</g>
<g>
</g>
<g>
</g>
<g>
</g>
<g>
</g>
<g>
</g>
<g>
</g>
<g>
</g>
<g>
</g>
<g>
</g>
<g>
</g>
<g>
</g>
<g>
</g>
<g>
</g>
<g>
</g>
</svg>
