<?xml version="1.0" encoding="utf-8"?>
<!-- Generator: Adobe Illustrator 21.1.0, SVG Export Plug-In . SVG Version: 6.00 Build 0)  -->
<svg version="1.1" id="Слой_1" xmlns="http://www.w3.org/2000/svg" xmlns:xlink="http://www.w3.org/1999/xlink" x="0px" y="0px"
	 viewBox="0 0 287.8 165.1" style="enable-background:new 0 0 287.8 165.1;" xml:space="preserve">
<style type="text/css">
	.st0{fill-rule:evenodd;clip-rule:evenodd;fill:#FFFFFF;}
	.st1{fill-rule:evenodd;clip-rule:evenodd;fill:#ED6720;}
	.st2{fill:none;stroke:#FFFFFF;stroke-width:0.7087;stroke-linecap:round;stroke-linejoin:round;stroke-miterlimit:10;}
</style>
<g id="HATCH_316_">
	<polygon class="st0" points="40.7,112.4 40.3,112.6 39.9,112.9 39.5,113.1 39.1,113.3 38.7,113.5 38.4,113.6 38,113.8 37.7,114 
		37.3,114.2 37,114.3 36.6,114.5 36.3,114.7 35.9,114.8 35.6,115 35.3,115.1 34.9,115.3 34.6,115.4 34.2,115.5 33.9,115.7 
		33.5,115.8 33.2,115.9 32.8,116 32.5,116.2 32.1,116.3 31.8,116.4 31.4,116.5 31.1,116.6 30.7,116.6 30.4,116.7 30,116.8 
		29.7,116.9 29.3,116.9 29,117 28.6,117.1 28.3,117.1 27.9,117.1 27.6,117.2 27.2,117.2 26.9,117.2 26.5,117.2 26.2,117.3 
		25.8,117.3 25.5,117.3 25.1,117.2 24.9,117.2 24.6,117.2 24.3,117.2 24.1,117.2 23.8,117.1 23.5,117.1 23.3,117.1 23,117 22.7,117 
		22.4,116.9 22.2,116.9 21.9,116.8 21.6,116.7 21.4,116.7 21.1,116.6 20.8,116.5 20.6,115.9 20.4,115.4 20.2,114.8 20,114.3 
		19.8,113.7 19.5,113.1 18.6,110.8 18.1,109.7 17.8,109 17.6,108.3 17.3,107.7 17.1,107 16.9,106.6 16.8,106.3 16.7,105.9 
		16.6,105.6 16.5,105.2 16.3,104.8 16.2,104.4 16.1,104.1 16,103.7 15.9,103.3 15.8,102.9 15.7,102.5 15.5,101.7 15.3,100.9 
		15.1,99.9 14.9,98.9 14.7,97.9 14.5,96.9 14.2,95.8 13.5,92.3 13.3,91.1 13.1,89.9 12.8,88.8 12.6,87.6 11.8,84.3 11.6,83.2 
		11.4,82.2 11.1,81.1 11,80.5 10.9,79.9 10.8,79.4 10.7,78.8 10.6,78.2 10.5,77.6 10.3,76.4 10.1,75.3 9.9,74.1 9.2,69 8.7,66.1 
		8.6,65.4 8.5,64.6 8.4,63.9 8.3,63.2 8.2,62.3 8.1,61.4 8,60.6 7.9,59.7 7.8,59 7.8,58.3 7.7,57.6 7.7,56.9 7.6,55.5 7.4,52.8 
		7.3,51.5 7.2,50.2 7.1,49.6 7.1,48.9 7.5,48.7 8.1,49 8.8,49.3 9.4,49.5 10,49.8 10.4,49.9 10.7,50 11,50.2 11.4,50.3 11.7,50.4 
		12,50.5 12.3,50.6 12.7,50.7 13.1,50.8 13.6,51 14,51.1 14.5,51.2 14.9,51.3 15.4,51.4 15.8,51.5 16.3,51.6 16.7,51.6 17.2,51.7 
		17.7,51.8 18.1,51.9 19.1,52 20,52.1 21.8,52.4 22.8,52.5 23.7,52.7 24.1,52.7 24.6,52.8 25.1,52.9 25.5,53 26,53.1 26.4,53.2 
		26.9,53.3 27.3,53.4 27.7,53.5 28.1,53.6 28.2,54.4 28.3,55.2 28.4,56 28.5,56.9 28.6,57.7 28.7,58.5 28.9,59.3 29,60.2 29.2,61 
		29.3,61.8 29.5,62.6 29.6,63.4 29.8,64.3 30,65.1 30.2,65.9 30.4,66.7 30.7,68 31,69.3 31.3,70.6 31.4,71.3 31.6,71.9 31.7,72.6 
		31.9,73.2 32,73.9 32.1,74.6 32.3,75.2 32.4,75.9 32.5,76.5 32.6,77.2 32.6,77.6 32.7,78 32.7,78.4 32.7,78.8 32.8,79.2 32.8,79.6 
		32.9,80.4 32.9,81.2 33,82 33,82.8 33.2,85.3 33.2,86.1 33.2,86.9 33.3,87.7 33.4,88.5 33.4,88.9 33.4,89.3 33.5,89.7 33.5,90.1 
		33.6,90.7 33.7,91.3 33.7,91.8 33.8,92.4 33.9,93 34,93.5 34.1,94.1 34.2,94.7 34.3,95.3 34.4,95.8 34.5,96.4 34.7,97 34.9,98.1 
		35.2,99.2 35.9,102.6 36.2,103.8 36.4,104.9 36.5,105.5 36.6,106 36.7,106.6 36.8,107.2 36.9,107.7 37,108.3 37.2,108.6 
		37.4,108.9 37.7,109.2 37.9,109.5 38.1,109.7 38.3,110 38.5,110.3 38.8,110.5 39,110.8 39.2,111 39.4,111.3 39.7,111.5 39.9,111.7 
		40.2,112 40.4,112.2 	"/>
</g>
<g id="HATCH_317_">
	<polygon class="st0" points="239.5,45.3 239.8,45 240.1,44.7 240.4,44.4 240.7,44.1 241,43.9 241.3,43.6 241.6,43.4 241.9,43.1 
		242.2,42.9 242.6,42.7 242.9,42.4 243.2,42.2 243.6,42 244,41.8 244.3,41.6 244.7,41.4 244.9,41.3 245.1,41.2 245.3,41.1 245.6,41 
		245.8,40.9 246,40.8 246.2,40.7 246.5,40.6 246.7,40.5 246.9,40.4 247.2,40.4 247.4,40.3 247.6,40.2 247.9,40.1 248.1,40.1 
		248.4,40 246.9,24.4 242.8,25.6 239,26.7 235.1,27.8 231.2,29 227.3,30.1 223.4,31.3 218.8,32.6 214.2,34 195.7,39.5 191,40.9 
		186.4,42.3 181.8,43.6 177.1,45 172.5,46.4 167.8,47.7 163.2,49.1 160.9,49.7 158.5,50.4 156.2,51.1 153.9,51.7 151.6,52.4 
		149.2,53 146.9,53.7 144.6,54.3 142.3,55 139.9,55.6 137.6,56.2 135.3,56.9 132.9,57.5 130.6,58.1 128.3,58.7 126,59.3 123.6,60 
		121.3,60.6 119.3,61.1 117.4,61.6 114.8,62.2 112.3,62.8 101.9,65.4 99.3,66 96.7,66.7 94.1,67.4 91.5,68 88.9,68.7 86.4,69.4 
		86.5,70.5 86.5,71.4 86.6,72.2 86.7,73 86.8,74.6 86.9,76.1 87,77.7 87.1,78.8 87.2,79.8 87.2,80.8 87.3,81.8 87.4,82.6 87.5,83.4 
		87.6,84.2 87.7,85 87.9,86.2 88.1,87.4 88.4,89.7 88.7,91.6 89.2,94.9 89.4,95.9 89.5,97 89.7,98.1 89.9,99.2 90,99.7 90.1,100.2 
		90.2,100.7 90.3,101.2 90.5,102.2 90.7,103.2 90.9,104.2 91.1,105.2 91.8,108.2 92,109.2 92.2,110.2 92.4,111.3 92.7,112.3 
		92.9,113.4 93.7,117.6 93.9,118.6 94.1,119.5 94.3,120.4 94.5,121.2 94.7,122.1 94.8,122.8 95,123.5 95.2,124.3 95.4,125 
		95.6,125.6 95.8,126.3 96,126.9 96.1,127.2 96.2,127.5 96.3,127.9 96.5,128.3 96.6,128.7 96.7,129 97,129.6 97.2,130.2 97.5,130.8 
		97.7,131.4 98.7,133.9 99.1,134.7 99.4,135.6 100,135.3 100.5,135 101.1,134.7 101.7,134.4 102.2,134.2 102.8,133.9 103.4,133.6 
		104,133.4 104.5,133.1 105.1,132.9 105.7,132.6 106.3,132.4 106.9,132.1 107.5,131.9 108,131.7 108.6,131.4 109.2,131.2 
		109.9,130.9 110.5,130.7 111.1,130.5 111.7,130.3 112.3,130 112.9,129.8 113.6,129.6 114.2,129.4 114.8,129.2 115.4,129 116,128.8 
		117.3,128.4 118.5,128 119.3,127.7 120.1,127.5 120.9,127.2 121.6,127 122.4,126.8 123.2,126.6 124,126.4 124.7,126.1 125.5,125.9 
		126.3,125.7 127.8,125.3 129.4,124.9 131,124.5 132.6,124.1 134.2,123.7 135.8,123.3 137.4,122.9 139,122.5 140.6,122.2 
		142.2,121.8 143.8,121.4 147,120.7 153.5,119.3 156.7,118.5 158.3,118.2 159.9,117.8 161.5,117.5 163,117.1 164.6,116.7 
		166.2,116.3 167.8,116 169.4,115.6 170.9,115.2 172.4,114.8 174,114.4 175.5,114 176.2,113.8 177,113.5 177.7,113.3 178.5,113.1 
		179.3,112.9 180,112.7 180.8,112.4 181.5,112.2 182.2,112 183,111.8 183.7,111.5 184.4,111.3 185.1,111.1 185.8,110.8 186.6,110.6 
		187.3,110.3 188,110.1 188.7,109.8 189.4,109.6 190,109.3 190.7,109.1 191.4,108.8 192.1,108.5 192.8,108.3 193.5,108 194.2,107.7 
		194.9,107.4 195.5,107.1 196.2,106.8 196.9,106.5 197.6,106.2 198.2,105.9 198.9,105.5 199.5,105.2 200.2,104.9 200.8,104.6 
		201.4,104.2 202.1,103.9 202.7,103.5 203.3,103.2 203.7,102.9 204.2,102.7 204.6,102.4 205,102.2 205.4,101.9 205.8,101.7 
		206.2,101.4 206.6,101.1 207.1,100.9 207.4,100.6 207.8,100.3 208.2,100 208.6,99.8 209,99.5 209.4,99.2 209.8,98.9 210.1,98.6 
		210.5,98.3 210.9,98 211.2,97.7 211.6,97.4 212,97.1 212.3,96.8 212.6,96.5 213,96.2 213.3,95.9 213.7,95.6 214,95.3 214.3,95 
		214.6,94.6 215,94.3 215.3,94 215.5,93.7 215.7,93.5 216,93.2 216.2,93 216.4,92.7 216.6,92.5 216.9,92.2 217.1,91.9 217.3,91.7 
		217.5,91.4 217.9,90.9 218.3,90.4 218.7,89.8 218.9,89.5 219.2,89.2 219.4,88.9 219.6,88.6 219.8,88.3 220,88 220.2,87.7 
		220.4,87.3 220.6,87 220.8,86.7 221.2,86.1 221.6,85.4 221.9,84.8 222.3,84.1 222.7,83.4 223.1,82.7 223.4,82.1 223.7,81.5 
		224,80.9 224.2,80.4 224.5,79.8 224.8,79.1 225.2,78.3 225.5,77.5 225.8,76.8 226.2,76 226.5,75.2 226.8,74.4 227.1,73.5 
		227.4,72.7 227.7,71.9 228,71.1 228.3,70.3 228.6,69.4 228.9,68.5 229.2,67.6 229.5,66.8 229.9,65.5 230.9,62.5 231.2,61.6 
		231.5,60.7 231.8,59.9 232,59.1 232.3,58.2 232.6,57.4 232.8,56.8 233.1,56.3 233.3,55.7 233.5,55.2 233.7,54.7 233.9,54.1 
		234.2,53.6 234.4,53.1 234.7,52.5 234.9,52 235.2,51.5 235.5,51 235.7,50.5 235.9,50.2 236,50 236.2,49.7 236.3,49.5 236.5,49.2 
		236.6,49 236.8,48.7 237,48.5 237.1,48.2 237.3,48 237.5,47.7 237.6,47.5 237.8,47.3 238,47 238.2,46.8 238.4,46.6 238.6,46.3 
		238.7,46.1 238.9,45.9 239.1,45.7 239.3,45.5 	"/>
</g>
<g id="HATCH_318_">
	<polygon class="st1" points="89.6,113 89.1,112.8 88.7,112.7 88.3,112.5 87.9,112.4 87.5,112.3 86.8,112.1 86.1,111.9 85.4,111.7 
		84.7,111.6 84.2,111.4 83.8,111.3 82.8,111.1 80.6,110.6 79.9,110.5 79.5,110.4 79.2,110.3 78.8,110.2 78.5,110.1 78.1,110 
		77.7,109.9 77.3,109.8 76.9,109.7 76.2,109.4 75.6,109.2 74.5,108.9 72.4,108.1 71.3,107.7 70.7,107.5 70.1,107.3 69.4,107.1 
		68.8,106.9 68.3,106.7 67.7,106.5 66.6,106.2 65.4,105.8 64.3,105.5 60,104.2 58.9,103.9 58.4,103.8 57.8,103.6 57.2,103.4 
		56.5,103.1 56.1,103 55.6,102.8 55.2,102.7 54.8,102.5 54.5,102.4 54.2,102.3 53.9,102.2 53.6,102 53.4,101.9 53.2,101.8 
		52.9,101.7 52.7,101.6 52.5,101.5 52.2,101.3 52,101.2 51.7,101 51.5,100.1 51.3,99.1 50.5,95.5 50.3,94.6 50.1,93.7 49.9,92.7 
		49.8,92.2 49.7,91.7 49.6,91.2 49.6,90.7 49.5,90.2 49.4,89.7 49.3,89 49.3,88.7 49.2,88.4 49.2,88 49.2,87.7 49.1,87 49.1,86.2 
		49,85.4 49,84.6 48.8,82.4 48.8,80.9 48.7,80.3 48.7,79.7 48.7,79.1 48.6,78.5 48.6,77.9 48.5,77.3 48.4,76.7 48.4,76.1 48.3,75.5 
		48.2,74.9 48.1,74.3 48,73.7 47.9,73.1 47.8,72.5 47.7,72 47.6,71.4 47.5,70.6 47.3,69.9 47.2,69.2 47,68.5 46.8,67.6 46.6,66.7 
		46,64 45.7,63 45.5,62 45.3,61 45.2,60.4 45,59.7 45.8,59.9 46.5,60.1 47.3,60.3 48.1,60.5 48.9,60.7 49.6,60.9 50.4,61.1 
		51.2,61.3 51.9,61.5 52.7,61.7 54.3,62.1 57.4,62.8 62.9,64.1 64.8,64.5 66.7,65 67.6,65.2 68.5,65.4 69.4,65.6 70.4,65.8 71.3,66 
		72.2,66.2 73.6,66.4 74.9,66.7 79,67.5 80.4,67.7 81.7,68 82.4,68.1 83.1,68.3 83.2,69.2 83.3,70.1 83.3,71.1 83.4,72 83.5,73 
		83.6,73.9 83.8,77.7 83.9,78.6 84,79.5 84,80.5 84.1,81.4 84.2,82.4 84.3,83.3 84.4,83.8 84.4,84.3 84.6,85.3 84.7,86.3 84.9,87.3 
		85.2,89.2 85.5,91.2 86.2,96.4 86.4,97.7 86.6,98.3 86.7,99 86.8,99.6 86.9,100.3 87,100.9 87.1,101.6 87.2,102.2 87.4,102.8 
		87.5,103.4 87.6,104 87.9,105.2 88.1,106.3 88.7,108.7 88.9,109.9 89.2,111.1 89.4,112 	"/>
</g>
<g id="POLYLINE_532_">
	<path class="st2" d="M248.1,121.9c-7.2,2.1-14.3,4.2-21.5,6.4c0,0-0.6,0.2-0.6,0.2l-0.6,0.2c0,0-0.6,0.2-0.6,0.2l-0.6,0.2l-0.6,0.2
		c0,0-0.6,0.2-0.6,0.2s-0.6,0.2-0.6,0.2s-0.6,0.1-0.6,0.1l-0.5,0.1l-0.5,0.1l-0.5,0.1l-0.5,0.1c0,0-0.5,0.1-0.5,0.1
		s-0.5,0.1-0.5,0.1s-0.5,0.1-0.5,0.1s-0.5,0.1-0.5,0.1l-0.5,0.1l-0.5,0.1l-0.5,0.1l-0.5,0.1c0,0-0.3,0-0.3,0l-0.3,0l-0.3,0
		c0,0-0.3,0-0.3,0s-0.3,0-0.3,0l-0.3,0c0,0-0.3,0-0.3,0l-0.3,0l-0.2,0l-0.2,0l-0.2,0l-0.2,0c0,0-0.2,0-0.2,0s-0.2,0-0.2,0
		s-0.2,0-0.2,0s-0.2,0-0.2,0l-0.1,0l-0.1,0c0,0-0.1,0-0.1,0l-0.1,0c0,0-0.1,0-0.1,0l-0.1,0l-0.1,0l0,0l0,0c0,0-0.1,0-0.1,0
		s-0.1,0-0.1,0c0,0-0.1,0-0.1,0c0,0-0.1,0-0.1,0c0,0,0,0,0,0c0,0,0,0,0,0c0,0,0,0,0,0c0,0,0,0,0,0c0,0,0,0,0,0c0,0,0-0.1,0-0.1
		c0,0,0-0.1,0-0.1c0,0,0-0.1,0-0.1c0,0,0-0.1,0-0.1c0,0,0-0.1,0-0.1l0-0.1l-2.1-22.2c0,0,0.4-0.2,0.4-0.2l0.4-0.2l0.4-0.2l0.4-0.2
		l0.4-0.2c0,0,0.4-0.2,0.4-0.2l0.4-0.2l0.4-0.3l0.4-0.3l0.4-0.3c0,0,0.4-0.3,0.4-0.3s0.4-0.3,0.4-0.3s0.4-0.3,0.4-0.3l0.4-0.3
		c0,0,0.4-0.3,0.4-0.3s0.3-0.3,0.3-0.3l0.3-0.3l0.3-0.3l0.3-0.3c0,0,0.3-0.3,0.3-0.3l0.3-0.3l0.3-0.3l0.3-0.3l0.3-0.3l0.3-0.3
		l0.3-0.3l0.3-0.3l0.3-0.3l0.3-0.3l0.3-0.3l0.3-0.3l0.3-0.3c9.1-2.7,18.2-5.4,27.3-8.1l2.5-0.7l-4-41.4c0.7-0.6,1.6-1.2,2.4-1.6
		l0.2-0.1l0.3-0.1l0.3-0.1c0,0,0.3-0.1,0.3-0.1l0.3-0.1l0.3-0.1l0.3-0.1l0.3-0.1l0.3-0.1l0.3-0.1c0,0,0.3-0.1,0.3-0.1l0.3-0.1
		l0.3-0.1l0.3-0.1l0.3,0l0.3,0l3.1-0.3l-2.5-26.3c0,0-2.1-0.6-2.1-0.6l-0.6-0.2c0,0-0.6-0.2-0.6-0.2l-0.6-0.1c0,0-0.6-0.1-0.6-0.1
		l-0.8-0.2l-0.8-0.2l-0.8-0.2l-0.8-0.2l-0.8-0.2l-0.8-0.2l-0.8-0.2c0,0-0.8-0.2-0.8-0.2l-1.6-0.3l-4.6-0.9l-0.8-0.1
		c0,0-0.8-0.2-0.8-0.2l-0.7-0.1c0,0-0.7-0.2-0.7-0.2l-0.7-0.2l-0.7-0.2l-1.5-0.3c0,0-1.5-0.3-1.5-0.3l-1.5-0.3l-1.5-0.3l-6-1.4
		l-3.1-0.7l-1.6-0.4c0,0-1.6-0.4-1.6-0.4l-0.8-0.2l-0.8-0.2l-0.8-0.2L210,9.4l-0.8-0.2L208.5,9l-0.8-0.2c0,0-0.8-0.2-0.8-0.2
		l-0.8-0.2l-0.7-0.2l-0.7-0.2c0,0-0.7-0.3-0.7-0.3l-0.7-0.3l-0.7-0.3c0,0-0.7-0.3-0.7-0.3S201,6.5,201,6.5S199.7,6,199.7,6
		s-2.6-1-2.6-1l-0.6-0.3l-0.6-0.3l-0.8-0.3c0,0-0.8-0.3-0.8-0.3l-0.8-0.3l-0.4-0.1c0,0-0.4-0.1-0.4-0.1l-0.4-0.1L192,3.1l-0.4-0.1
		c0,0-0.4-0.1-0.4-0.1l-0.4-0.1l-0.4-0.1L190,2.5l-0.4-0.1c0,0-0.6-0.1-0.6-0.1l-0.6-0.1L188,2l-0.6-0.1l-0.6-0.1l-0.6-0.1l-0.6-0.1
		c0,0-0.6-0.1-0.6-0.1l-0.9-0.1l-0.9-0.1L181,0.9c0,0-0.7-0.1-0.7-0.1l-0.7-0.1l-0.7-0.1l-1-0.2l-0.9,0.5l-0.5,0.3l-0.5,0.3
		c0,0-0.5,0.2-0.5,0.2l-0.5,0.2c0,0-0.5,0.2-0.5,0.2l-0.5,0.2l-0.5,0.2l-0.5,0.2l-1,0.5c0,0-1,0.5-1,0.5s-1,0.4-1,0.4l-1,0.4l-1,0.4
		c0,0-1,0.4-1,0.4l-1,0.4c0,0-1,0.4-1,0.4l-1,0.4l-1,0.4c0,0-1,0.4-1,0.4s-1,0.4-1,0.4L159.9,8l-0.7,0.2l-0.7,0.2
		c0,0-0.7,0.2-0.7,0.2s-0.7,0.2-0.7,0.2l-0.7,0.2c0,0-0.7,0.2-0.7,0.2S155,9.5,155,9.5l-0.7,0.2l-0.7,0.2l-0.7,0.2
		c0,0-0.7,0.2-0.7,0.2l-0.7,0.2l-0.7,0.2l-0.7,0.1l-0.7,0.1l-0.4,0.1l-0.4,0.1c0,0-0.8,0.1-0.8,0.1l-0.8,0.1l-0.8,0.1l-1,0.1
		c0,0-1,0.1-1,0.1s-4,0.6-4,0.6s-1,0.2-1,0.2s-1,0.2-1,0.2s-0.9,0.1-0.9,0.1s-0.9,0.1-0.9,0.1s-1,0.2-1,0.2s-1,0.2-1,0.2l-1,0.2
		c0,0-1,0.2-1,0.2s-3.8,0.8-3.8,0.8l-0.9,0.2c0,0-0.9,0.2-0.9,0.2s-0.9,0.2-0.9,0.2s-0.9,0.2-0.9,0.2l-0.5,0.1c0,0-0.5,0.1-0.5,0.1
		l-0.5,0.1c0,0-0.5,0.1-0.5,0.1s-0.4,0.1-0.4,0.1s-0.4,0.1-0.4,0.1s-0.4,0.1-0.4,0.1l-0.4,0c0,0-0.4,0-0.4,0s-0.4,0-0.4,0l-0.4,0
		c0,0-0.4,0-0.4,0l-0.5,0c0,0-0.5,0-0.5,0s-1,0.1-1,0.1s-1.1,0.1-1.1,0.1s-2.2,0.1-2.2,0.1l-1.1,0.1l-0.9,0.1l-0.5,0
		c0,0-0.5,0-0.5,0s-0.5,0-0.5,0s-0.5,0-0.5,0s-0.5,0.1-0.5,0.1s-0.5,0.1-0.5,0.1l-0.5,0.1l-0.5,0.1l-0.5,0.1l-0.5,0.1
		c0,0-0.5,0.1-0.5,0.1s-0.5,0.1-0.5,0.1l-0.5,0.1c0,0-0.5,0.1-0.5,0.1s-0.5,0.1-0.5,0.1l-0.5,0.1c0,0-0.5,0.1-0.5,0.1
		s-0.5,0.1-0.5,0.1s-0.5,0.1-0.5,0.1s-0.5,0.1-0.5,0.1s-0.5,0.1-0.5,0.1l-0.5,0.1l-0.5,0.1c0,0-0.5,0.1-0.5,0.1l-0.9,0.3l-1.1,0.3
		c0,0-1.1,0.4-1.1,0.4s-2.2,0.7-2.2,0.7l-1.2,0.4c0,0-0.6,0.2-0.6,0.2L93,20.9l-0.7,0.2c0,0-0.7,0.2-0.7,0.2l-0.7,0.2
		c0,0-0.7,0.2-0.7,0.2L89.2,22l-1.1,0.3c0,0-4.4,1.1-4.4,1.1l-1.1,0.3c0,0-1.1,0.3-1.1,0.3l-0.9,0.3c0,0-0.9,0.3-0.9,0.3l-0.9,0.3
		l-0.9,0.3c0,0-1.7,0.5-1.7,0.5l-3.3,1c0,0-1.7,0.5-1.7,0.5l-0.9,0.3c0,0-0.9,0.3-0.9,0.3s-0.9,0.3-0.9,0.3l-0.9,0.3
		c0,0-0.9,0.2-0.9,0.2l-0.9,0.2l-0.8,0.2L64,29.1l-1,0.2c0,0-1,0.2-1,0.2s-1,0.2-1,0.2s-1,0.2-1,0.2l-2.8,0.6c0,0-1.4,0.3-1.4,0.3
		l-1.4,0.3l-0.9,0.2l-0.9,0.2c0,0-0.9,0.2-0.9,0.2S51,32,51,32l-0.9,0.2c0,0-0.9,0.2-0.9,0.2s-0.9,0.2-0.9,0.2s-0.9,0.2-0.9,0.2
		s-0.9,0.2-0.9,0.2s-0.9,0.2-0.9,0.2S45,33.6,45,33.6l-0.9,0.3c0,0-0.9,0.3-0.9,0.3l-0.9,0.3c0,0-0.9,0.3-0.9,0.3S40.7,35,40.7,35
		l-0.8,0.3L39,35.6c0,0-1.1,0.4-1.1,0.4l-2.6,0.9l-0.7,0.3c0,0-0.7,0.3-0.7,0.3s-0.7,0.2-0.7,0.2s-0.7,0.2-0.7,0.2l-0.7,0.2
		l-0.4,0.1c0,0-0.4,0.1-0.4,0.1s-0.3,0.1-0.3,0.1s-0.3,0.1-0.3,0.1S30,38.6,30,38.6s-0.4,0.1-0.4,0.1l-0.4,0.1c0,0-0.4,0.1-0.4,0.1
		S28.6,39,28.6,39l-0.4,0.1c0,0-0.4,0.1-0.4,0.1s-0.4,0.1-0.4,0.1s-0.4,0.1-0.4,0.1s-0.4,0.1-0.4,0.1s-0.4,0.1-0.4,0.1L26,39.4
		l-0.4,0.1l-0.4,0l-0.4,0c0,0-0.4,0-0.4,0l-0.8,0.1l-0.8,0.1l-0.8,0.1L21,39.9l-2.2,0.2c0,0-1.1,0.1-1.1,0.1l-0.9,0.1l-0.9,0.1
		l-0.9,0.1c0,0-0.4,0-0.4,0l-0.4,0.1c0,0-0.4,0.1-0.4,0.1s-0.4,0.1-0.4,0.1l-0.4,0.1l-0.4,0.1L12,40.9c0,0-0.4,0.1-0.4,0.1
		S11.2,41,11.2,41l-0.4,0.1c0,0-0.4,0.1-0.4,0.1s-0.4,0.1-0.4,0.1s-0.4,0.1-0.4,0.1L9,41.5l-0.4,0.1l-0.4,0.1l-0.4,0.1
		c0,0-0.4,0.1-0.4,0.1s-0.4,0.1-0.4,0.1l-0.4,0.2l-0.4,0.2l-0.4,0.2c0,0-0.4,0.2-0.4,0.2s-0.4,0.2-0.4,0.2s-0.4,0.2-0.4,0.2
		l-0.4,0.2l-0.4,0.2c0,0-0.4,0.2-0.4,0.2s-0.4,0.2-0.4,0.2l-0.4,0.2c0,0-1.7,1.1-1.7,1.1s0.2,2,0.2,2S0.6,48,0.6,48s0.1,0.5,0.1,0.5
		s0.1,1.1,0.1,1.1l0.1,1.1c0,0,0.1,1.1,0.1,1.1l0.1,1.8l0.1,1.8c0,0,0.1,1.8,0.1,1.8l0.1,0.9l0.1,0.9l0.1,0.9c0,0,0.1,0.9,0.1,0.9
		s0.1,0.9,0.1,0.9s0.1,0.9,0.1,0.9S2,63.5,2,63.5S2,64.2,2,64.2s0.1,0.6,0.1,0.6s0.1,0.6,0.1,0.6l0.2,1.3c0,0,0.2,1.3,0.2,1.3
		s0.5,3.4,0.5,3.4l0.6,3.8l0.2,1.3c0,0,0.2,1.3,0.2,1.3s0.1,0.6,0.1,0.6L4.3,79c0,0,0.1,0.6,0.1,0.6l0.1,0.6l0.1,0.6l0.1,0.6
		l0.1,0.6c0,0,0.1,0.6,0.1,0.6s0.2,1.2,0.2,1.2s0.3,1.2,0.3,1.2s0.8,3.5,0.8,3.5l0.3,1.1c0,0,0.2,1.1,0.2,1.1L7,92
		c0,0,0.2,1.2,0.2,1.2S8,96.9,8,96.9s0.2,1.2,0.2,1.2s0.3,1.2,0.3,1.2s0.3,1.2,0.3,1.2l0.2,0.9c0,0,0.2,0.9,0.2,0.9s0.2,0.9,0.2,0.9
		s0.1,0.5,0.1,0.5l0.1,0.5l0.1,0.5c0,0,0.1,0.5,0.1,0.5l0.1,0.5l0.1,0.5l0.1,0.5l0.1,0.5c0,0,0.1,0.5,0.1,0.5l0.1,0.5l0.1,0.4
		c0,0,0.1,0.4,0.1,0.4s0.1,0.4,0.1,0.4l0.1,0.4l0.2,0.4l0.2,0.4l0.3,0.8c0,0,0.3,0.8,0.3,0.8s0.3,0.8,0.3,0.8s0.9,2.2,0.9,2.2
		l0.4,1.1l0.2,0.5c0,0,0.2,0.6,0.2,0.6s0.3,0.7,0.3,0.7s0.2,0.7,0.2,0.7s0.1,0.3,0.1,0.3s0.1,0.3,0.1,0.3s0.1,0.3,0.1,0.3l0.1,0.3
		c0,0,0.5,1.4,0.5,1.4l1.4,0.6c0,0,0.2,0.1,0.2,0.1s0.2,0.1,0.2,0.1l0.2,0.1l0.2,0.1c0,0,0.2,0.1,0.2,0.1l0.2,0.1
		c0,0,0.2,0.1,0.2,0.1l0.2,0.1c0,0,0.2,0.1,0.2,0.1s0.2,0.1,0.2,0.1s0.2,0.1,0.2,0.1l0.2,0.1c0,0,0.2,0.1,0.2,0.1l0.2,0.1l0.2,0.1
		c0,0,0.2,0.1,0.2,0.1l0.5,0.1c0,0,0.5,0.1,0.5,0.1l0.5,0.1c0,0,0.5,0.1,0.5,0.1l0.5,0.1l0.5,0l0.5,0l0.5,0l0.5,0l0.5,0
		c0,0,0.5,0,0.5,0s0.5,0,0.5,0l0.5,0c0,0,0.5,0,0.5,0l0.5,0l0.5,0c0,0,0.5-0.1,0.5-0.1s0.5-0.1,0.5-0.1l0.5-0.1l0.5-0.1l0.4-0.1
		l0.4-0.1c0,0,0.4-0.1,0.4-0.1s0.4-0.1,0.4-0.1s0.4-0.1,0.4-0.1s0.4-0.1,0.4-0.1s0.4-0.1,0.4-0.1s0.4-0.1,0.4-0.1l0.4-0.1
		c0,0,0.4-0.1,0.4-0.1l0.4-0.1l0.4-0.1c0,0,0.4-0.2,0.4-0.2l0.4-0.2c0,0,0.4-0.2,0.4-0.2s0.4-0.2,0.4-0.2s0.4-0.2,0.4-0.2l0.4-0.2
		c0,0,0.4-0.2,0.4-0.2l0.4-0.2l0.6-0.3l0.6-0.3l0.6-0.3c0,0,0.6-0.3,0.6-0.3s0.6-0.3,0.6-0.3s0.6-0.3,0.6-0.3s0.6-0.3,0.6-0.3
		s0.5-0.3,0.5-0.3s0.4,0.2,0.4,0.2s0.4,0.2,0.4,0.2l0.4,0.2c0,0,0.4,0.2,0.4,0.2l0.4,0.2c0,0,0.4,0.2,0.4,0.2s0.4,0.2,0.4,0.2
		s0.4,0.2,0.4,0.2l0.4,0.2c0,0,0.4,0.2,0.4,0.2l0.4,0.2c0,0,0.4,0.2,0.4,0.2l0.4,0.2l0.4,0.2c0,0,0.4,0.2,0.4,0.2s0.4,0.1,0.4,0.1
		s0.5,0.2,0.5,0.2l0.5,0.2l0.5,0.2l0.5,0.2l0.5,0.2c0,0,0.5,0.2,0.5,0.2l1,0.3c0,0,1.1,0.3,1.1,0.3s3.7,1.1,3.7,1.1l1.3,0.4
		c0,0,1.3,0.4,1.3,0.4s0.6,0.2,0.6,0.2s0.6,0.2,0.6,0.2l0.6,0.2l0.6,0.2c0,0,0.6,0.2,0.6,0.2s0.6,0.2,0.6,0.2s1.2,0.4,1.2,0.4
		s1.4,0.5,1.4,0.5s1.4,0.5,1.4,0.5l0.8,0.3l0.8,0.3c0,0,0.4,0.1,0.4,0.1l0.4,0.1l0.4,0.1L72,128c0,0,0.4,0.1,0.4,0.1
		s0.4,0.1,0.4,0.1l0.4,0.1c0,0,0.4,0.1,0.4,0.1s0.4,0.1,0.4,0.1l0.4,0.1c0,0,0.8,0.2,0.8,0.2l0.5,0.1l0.5,0.1c0,0,2.2,0.5,2.2,0.5
		s0.6,0.1,0.6,0.1s0.6,0.1,0.6,0.1s0.7,0.2,0.7,0.2s0.7,0.2,0.7,0.2l0.3,0.1l0.3,0.1l0.3,0.1l0.3,0.1c0,0,0.3,0.1,0.3,0.1l0.3,0.1
		l0.3,0.1c0,0,0.3,0.1,0.3,0.1s0.4,0.1,0.4,0.1s0.3,0.1,0.3,0.1l0.5,0.2c0,0,1.5,0.6,1.5,0.6s0.5,0.2,0.5,0.2l0.5,0.2l0.4,0.1
		l0.4,0.1c0,0,0.4,0.1,0.4,0.1s0.4,0.1,0.4,0.1s0.4,0.1,0.4,0.1l0.4,0.1l0.2,0c0,0,0.2,0,0.2,0s0.2,0,0.2,0l0.2,0
		c0,0,0.3,0.1,0.3,0.1s0.3,0,0.3,0l0.3,0c0,0,0.3,0,0.3,0c0.4,1,0.8,2,1.2,3c0,0,0.2,0.6,0.2,0.6l0.2,0.6l0.2,0.6
		c0,0,0.2,0.6,0.2,0.6s0.2,0.6,0.2,0.6s0.2,0.6,0.2,0.6s0.2,0.6,0.2,0.6l0.2,0.6c0,0,1.2,3.7,1.2,3.7l3.4-2l0.6-0.3l0.6-0.3
		c0,0,0.6-0.3,0.6-0.3l0.6-0.3c0,0,0.6-0.3,0.6-0.3s0.6-0.3,0.6-0.3l0.6-0.3c0,0,0.6-0.3,0.6-0.3s0.6-0.3,0.6-0.3l0.6-0.3
		c0,0,0.6-0.3,0.6-0.3l0.6-0.3l0.6-0.3c0,0,0.6-0.3,0.6-0.3s0.7-0.3,0.7-0.3s0.7-0.3,0.7-0.3s0.7-0.3,0.7-0.3l0.7-0.3
		c0,0,0.7-0.3,0.7-0.3s0.7-0.3,0.7-0.3s0.7-0.3,0.7-0.3s0.7-0.3,0.7-0.3s0.7-0.3,0.7-0.3s0.7-0.2,0.7-0.2s0.7-0.3,0.7-0.3l0.7-0.2
		l0.7-0.2c0,0,0.7-0.2,0.7-0.2s0.7-0.2,0.7-0.2s0.7-0.2,0.7-0.2s0.7-0.2,0.7-0.2l0.7-0.2l0.7-0.2c0,0,0.7-0.2,0.7-0.2l0.7-0.2
		c0,0,0.7-0.2,0.7-0.2l0.7-0.2l0.7-0.2l0.7-0.2c0,0,0.7-0.2,0.7-0.2l1.5-0.4c0,0,1.5-0.4,1.5-0.4l1.5-0.4c0,0,1.5-0.4,1.5-0.4
		s1.6-0.4,1.6-0.4l1.6-0.4c0,0,1.6-0.4,1.6-0.4s1.6-0.4,1.6-0.4l1.6-0.4l1.6-0.4l1.6-0.4c0,0,1.6-0.4,1.6-0.4s3.2-0.7,3.2-0.7
		l6.5-1.4c0,0,3.2-0.7,3.2-0.7l1.6-0.4l1.6-0.4l1.6-0.4l1.6-0.4l1.6-0.4c0,0,1.6-0.4,1.6-0.4l1.6-0.4l1.6-0.4l1.3-0.3l1.3-0.3
		l1.3-0.3l1.3-0.3l1.3-0.4l1.3-0.4c0,0,1.3-0.4,1.3-0.4l1.3-0.4c0,0,1.3-0.4,1.3-0.4l1.2-0.4l1.2-0.4l1.2-0.4l0.6-0.2l0.6-0.2
		c0,0,0.6-0.2,0.6-0.2s0.6-0.2,0.6-0.2l0.6-0.2l0.6-0.2l0.6-0.2c0,0,0.6-0.2,0.6-0.2l1.6,16.1c0,0,0,0.4,0,0.4s0,0.4,0,0.4l0,0.4
		l0,0.4l0.1,0.4l0.1,0.4l0.1,0.4c0,0,0.1,0.4,0.1,0.4s0.1,0.3,0.1,0.3l0.1,0.3l0.1,0.3l0.1,0.3c0,0,0.1,0.3,0.1,0.3l0.1,0.3l0.1,0.3
		l0.1,0.3l0.1,0.3l0.1,0.3c0,0,0.1,0.3,0.1,0.3s0.1,0.3,0.1,0.3l0.1,0.3l0.1,0.3c0,0,0.1,0.3,0.1,0.3l0.1,0.3c0,0,0.1,0.3,0.1,0.3
		s0.1,0.3,0.1,0.3s0.1,0.3,0.1,0.3s0.1,0.3,0.1,0.3l0.1,0.3c0,0,0.1,0.3,0.1,0.3s0.2,0.3,0.2,0.3l0.2,0.3l0.2,0.2l0.2,0.2l0.2,0.2
		l0.2,0.2l0.2,0.2l0.2,0.2l0.2,0.2c0,0,0.2,0.2,0.2,0.2s0.2,0.2,0.2,0.2l0.2,0.2c0,0,0.2,0.2,0.2,0.2s0.2,0.2,0.2,0.2l0.2,0.2
		l0.2,0.2l0.2,0.2l0.2,0.2l0.2,0.2l0.2,0.2c0,0,0.2,0.2,0.2,0.2l0.2,0.2l0.2,0.2l0.2,0.2c0,0,0.2,0.2,0.2,0.2l0.2,0.2l0.2,0.2
		c0,0,0.2,0.2,0.2,0.2l0.2,0.2l0.2,0.2l0.2,0.1l0.2,0.1l0.2,0.1l0.2,0.1l0.2,0.1l0.2,0.1c0,0,0.2,0.1,0.2,0.1l0.2,0.1l0.2,0.1
		c0,0,0.2,0.1,0.2,0.1l0.2,0.1l0.2,0.1l0.2,0.1l0.2,0.1c0,0,0.2,0.1,0.2,0.1l0.2,0.1l0.2,0.1l0.2,0.1l0.2,0.1l0.2,0.1l0.2,0.1
		c0,0,0.2,0.1,0.2,0.1l0.2,0.1l0.2,0.1l0.2,0.1l0.2,0.1l0.2,0.1l0.2,0.1l0.2,0.1c0,0,0.2,0.1,0.2,0.1l0.2,0l0.2,0c0,0,0.2,0,0.2,0
		l0.2,0l0.2,0l0.2,0l0.3,0c0,0,0.3,0,0.3,0l0.3,0c0,0,0.3,0,0.3,0l0.3,0l0.3,0c0,0,0.3,0,0.3,0l0.3,0l0.3,0l0.3,0l0.3,0
		c0,0,0.3,0,0.3,0l0.3,0l0.3,0c0,0,0.3,0,0.3,0s0.3,0,0.3,0s0.5,0,0.5,0s0.5,0,0.5,0l0.5,0l0.5,0c0,0,0.5,0,0.5,0l0.5-0.1l0.5-0.1
		l0.5-0.1l0.4-0.1l0.4-0.1l0.4-0.1l0.4-0.1l0.4-0.1l0.4-0.1l0.4-0.1l0.4-0.1l27.2-8.1l0.1,0.6c0,0,0.1,0.6,0.1,0.6l0.1,0.6l0.2,0.6
		l0.2,0.6c0,0,0.2,0.6,0.2,0.6l0.2,0.6l0.2,0.6c0,0,0.2,0.6,0.2,0.6l0.2,0.6l0.2,0.6l0.2,0.6l0.2,0.5l0.2,0.5l0.2,0.5l0.2,0.5
		l0.2,0.5l0.2,0.5l0.2,0.5l0.2,0.5l0.2,0.5c0,0,0.2,0.5,0.2,0.5s0.2,0.5,0.2,0.5l0.2,0.5l0.3,0.6l0.3,0.6l0.1,0.3
		c0,0,0.2,0.3,0.2,0.3l0.2,0.3l0.2,0.3l0.2,0.4c0,0,0.2,0.4,0.2,0.4l0.3,0.4l0.3,0.4c0,0,0.3,0.4,0.3,0.4l0.3,0.4l0.1,0.2
		c0,0,0.1,0.2,0.1,0.2l0.1,0.2l0.1,0.2l0.2,0.3l0.3,0.3c0,0,0.1,0.1,0.1,0.1l0.1,0.1c0,0,0.1,0.1,0.1,0.1l0.1,0.1l0.2,0.2
		c0,0,0.2,0.2,0.2,0.2l0.2,0.2c0,0,0.2,0.2,0.2,0.2s0.2,0.2,0.2,0.2l0.2,0.2l0.2,0.2l0.2,0.1l0.2,0.1l0.2,0.1c0,0,0.2,0.1,0.2,0.1
		l0.2,0.1l0.2,0.1l0.2,0.1l0.2,0.1l0.2,0.1c0,0,0.2,0.1,0.2,0.1s0.2,0.1,0.2,0.1l0.2,0.1l0.2,0.1l0.2,0.1l0.2,0.1l0.2,0l0.2,0
		c0,0,0.4,0.1,0.4,0.1s0.4,0.1,0.4,0.1l0.4,0c0,0,0.4,0,0.4,0l0.4,0l0.4,0l0.6,0.1l0.6,0.1l0.3,0c0,0,0.3,0,0.3,0l0.3,0l0.3,0
		c0,0,0.6,0.1,0.6,0.1l0.6-0.1c0,0,0.5-0.1,0.5-0.1s0.4-0.1,0.4-0.1l0.4-0.1l0.4-0.1c0,0,0.4-0.2,0.4-0.2l0.2-0.1l0.2-0.1l0.2-0.1
		l0.2-0.1l0.2-0.1c0,0,0.2-0.1,0.2-0.1l0.4-0.2l0.4-0.2l0.4-0.2l0.4-0.2l0.4-0.2l0.4-0.2l0.4-0.2c0,0,0.4-0.2,0.4-0.2l0.3-0.2
		l0.3-0.2c0,0,0.3-0.3,0.3-0.3s0.3-0.3,0.3-0.3s0.3-0.3,0.3-0.3l0.3-0.3c0,0,0.3-0.3,0.3-0.3s0.3-0.3,0.3-0.3l0.3-0.3l0.3-0.3
		l0.3-0.3c0,0,0.3-0.3,0.3-0.3l0.3-0.3c0,0,0.3-0.3,0.3-0.3l0.3-0.3l0.3-0.3c0,0,0.2-0.3,0.2-0.3s0.2-0.3,0.2-0.3l0.2-0.3
		c0,0,0.2-0.3,0.2-0.3s0.2-0.3,0.2-0.3l0.2-0.3l0.2-0.4l0.2-0.4l0.2-0.3l0.2-0.3l0.1-0.3l0.1-0.3c0,0,0.1-0.3,0.1-0.3
		s0.1-0.3,0.1-0.3s0.1-0.3,0.1-0.3l0.1-0.3l0.1-0.3l0.1-0.3l0.1-0.3l0.1-0.3l0.1-0.3l0.1-0.3l0.1-0.3c0,0,0.1-0.3,0.1-0.3l0.1-0.4
		l0.1-0.4l0.1-0.4l0.1-0.4c0,0,0.1-0.4,0.1-0.4s0.1-0.4,0.1-0.4s0.1-0.4,0.1-0.4l0.1-0.4l0.1-0.4l0.1-0.4l0.1-0.4l0.1-0.4
		c0,0,0.1-0.4,0.1-0.4s0.1-0.4,0.1-0.4s0.1-0.4,0.1-0.4l0.1-0.4l0.2-0.8l0.1-0.8c0,0,0.1-0.8,0.1-0.8l0.1-0.8l0.1-0.8l0.1-0.8
		l0.1-0.8l0.1-0.8l0.1-0.8l0.1-0.8l0.1-0.9c0,0,0.1-0.9,0.1-0.9l0.1-0.9l0.1-0.9c0,0,0.1-0.9,0.1-0.9s0-0.4,0-0.4l0-0.4
		c0,0,0-0.4,0-0.4l0-0.4l0-0.4l0-0.4c0,0,0-0.4,0-0.4l0-0.4l0-0.4c0,0,0-0.4,0-0.4l0-0.4l0-0.4l0-0.4l0-0.4l0-0.4l0-0.4l0-0.4
		c0,0,0-0.4,0-0.4l0-0.4l0-0.4c0,0,0-0.4,0-0.4l0-0.4c0,0-0.1-0.4-0.1-0.4l-0.1-0.4l-0.1-0.4l-0.1-0.4l-0.1-0.5c0,0-0.1-0.5-0.1-0.5
		s-0.1-0.5-0.1-0.5l-0.1-0.5l-0.1-0.5c0,0-0.1-0.5-0.1-0.5s-0.1-0.5-0.1-0.5l-0.1-0.5l-0.1-0.5l-0.1-0.5l-0.1-0.5l-0.1-0.5l-0.1-0.5
		l-0.2-0.5l-0.2-0.5L285,112c0,0-0.2-0.5-0.2-0.5s-0.2-0.5-0.2-0.5l-0.2-0.5l-0.2-0.5l-0.2-0.5c0,0-0.2-0.5-0.2-0.5l-0.2-0.5
		l-0.2-0.5l-0.2-0.6c0,0-0.3-0.6-0.3-0.6l-0.3-0.5c0,0-0.3-0.5-0.3-0.5s-0.3-0.5-0.3-0.5l-0.1-0.3l-0.1-0.3l-0.1-0.3l-0.2-0.3
		c0,0-0.2-0.3-0.2-0.3l-0.2-0.3l-0.3-0.4c0,0-0.3-0.4-0.3-0.4l-0.3-0.4c0,0-0.3-0.4-0.3-0.4l-0.3-0.4l-0.3-0.4c0,0-0.3-0.4-0.3-0.4
		s-0.3-0.4-0.3-0.4l-0.3-0.3l-0.3-0.3c0,0-0.2-0.2-0.2-0.2s-0.2-0.2-0.2-0.2l-0.2-0.2l-0.2-0.2l-0.2-0.2l-0.2-0.2l-0.2-0.2l-0.2-0.2
		c0,0-0.2-0.1-0.2-0.1s-0.2-0.1-0.2-0.1l-0.2-0.1l-0.2-0.1l-0.2-0.1c0,0-0.2-0.1-0.2-0.1s-0.2-0.1-0.2-0.1s-0.2-0.1-0.2-0.1
		l-0.2-0.1c0,0-0.2-0.1-0.2-0.1l-0.2-0.1l-0.2-0.1l-0.2-0.1l-0.2-0.1c0,0-0.2-0.1-0.2-0.1s-0.2-0.1-0.2-0.1l-0.2-0.1l-0.2-0.1
		c0,0-0.2-0.1-0.2-0.1s-0.2-0.1-0.2-0.1l-0.2-0.1c0,0-0.2-0.1-0.2-0.1s-0.2-0.1-0.2-0.1l-0.2-0.1l-0.2-0.1l-0.2-0.1l-0.2-0.1
		l-0.2-0.1l-0.2-0.1l-0.2-0.1l-0.2-0.1l-0.2,0l-0.4-0.1l-0.4-0.1l-0.4-0.1l-0.4-0.1l-0.4-0.1l-0.4,0l-0.4,0c0,0-0.4,0-0.4,0l-0.4,0
		c0,0-0.4,0-0.4,0l-0.3,0l-0.3,0c0,0-0.3,0-0.3,0l-0.3,0l-0.3,0c0,0-0.3,0-0.3,0s-0.3,0-0.3,0l-0.3,0c0,0-0.4,0-0.4,0s-0.4,0-0.4,0
		l-0.8,0.1l-1.5,0.1l-0.7,0.1c0,0-0.7,0.1-0.7,0.1l-0.4,0l-0.4,0l-0.4,0.1c0,0-0.2,0-0.2,0l-0.2,0c0,0-0.2,0-0.2,0l-0.2,0l-0.2,0.1
		c0,0-0.2,0.1-0.2,0.1s-0.2,0.1-0.2,0.1s-0.2,0.1-0.2,0.1l-0.2,0.1l-0.2,0.1l-0.2,0.1c0,0-0.2,0.1-0.2,0.1s-0.2,0.1-0.2,0.1
		l-0.2,0.1c0,0-0.2,0.1-0.2,0.1l-0.2,0.1c0,0-0.2,0.1-0.2,0.1s-0.2,0.1-0.2,0.1l-0.2,0.1l-0.2,0.1l-0.1,0.1c0,0-0.1,0.1-0.1,0.1
		l-0.1,0.1c0,0-0.1,0.1-0.1,0.1l-0.1,0.1l-0.1,0.1c0,0-0.2,0.2-0.2,0.2s-0.2,0.2-0.2,0.2l-0.2,0.2l-0.2,0.2c0,0-0.2,0.2-0.2,0.2
		l-0.2,0.2l-0.2,0.2l-0.2,0.3l-0.2,0.3l-0.2,0.3l-0.2,0.3l-0.1,0.3l-0.1,0.3l-0.1,0.3l-0.1,0.3c0,0-0.1,0.3-0.1,0.3l-0.1,0.4
		l-0.1,0.4c0,0-0.1,0.4-0.1,0.4l-0.1,0.4l-0.1,0.4c0,0-0.1,0.4-0.1,0.4l-0.1,0.4l-0.1,0.4l-0.1,0.4c0,0-0.1,0.4-0.1,0.4l-0.1,0.4
		l-0.1,0.4c0,0-0.1,0.4-0.1,0.4l-0.1,0.4l-0.1,0.4l-0.1,0.4l-0.1,0.9l-0.1,0.9l-0.1,1c0,0-0.1,1-0.1,1l-0.1,1l-0.1,1l-0.2,1.3
		c0,0-0.2,1.3-0.2,1.3l-0.2,1.3l-0.1,1.3l-0.1,1.3C248.2,120.6,248.1,121.9,248.1,121.9"/>
</g>
<g id="POLYLINE_533_">
	<path class="st2" d="M254.1,136.7l0.1,0.5c0,0,0,0.4,0,0.4l0.1,0.4l0.1,0.4c0,0,0.1,0.4,0.1,0.4l0.1,0.4c0,0,0.1,0.4,0.1,0.4
		l0.1,0.4l0.1,0.4l0.1,0.4c0,0,0.1,0.4,0.1,0.4l0.1,0.4l0.1,0.4l0.1,0.4l0.1,0.4l0.1,0.4c0,0,0.1,0.4,0.1,0.4l0.1,0.4l0.1,0.4
		l0.1,0.4c0,0,0.1,0.4,0.1,0.4l0.1,0.4l0.1,0.4l0.1,0.4c0,0,0.1,0.4,0.1,0.4l0.2,0.6l0.2,0.6l0.2,0.6l0.2,0.5l0.2,0.4
		c0,0,0.2,0.4,0.2,0.4l0.2,0.4c0,0,0.2,0.4,0.2,0.4l0.2,0.4l0.2,0.4l0.2,0.4l0.2,0.4l0.2,0.5l0.3,0.5c0,0,0.3,0.5,0.3,0.5l0.3,0.5
		c0,0,0.2,0.3,0.2,0.3l0.2,0.3c0,0,0.2,0.3,0.2,0.3s0.2,0.3,0.2,0.3l0.2,0.3l0.2,0.3c0,0,0.2,0.3,0.2,0.3s0.2,0.3,0.2,0.3l0.1,0.2
		l0.1,0.2c0,0,0.1,0.2,0.1,0.2l0.1,0.1l0.1,0.1l0.1,0.1c0,0,0.1,0.1,0.1,0.1s0.1,0.1,0.1,0.1l0.1,0.1l0.1,0.1l0.1,0.1
		c0,0,0.1,0.1,0.1,0.1l0.1,0.1l0.1,0c0,0,0.1,0,0.1,0l0.1,0l0.1,0l0.1,0l0.1,0l0.1,0l0.1,0l0.1,0l0.1,0l0.1,0l0.1,0l0.1,0l0.1,0
		l0.2,0l0.2,0l0.2,0l0.3,0c0,0,0.3,0,0.3,0s0.3,0,0.3,0s0.3,0,0.3,0l1.5,0.1l0.4,0l0.4,0c0,0,0.4,0,0.4,0s0.3-0.1,0.3-0.1l0.3-0.1
		c0,0,0.3-0.1,0.3-0.1l0.3-0.1c0,0,0.3-0.1,0.3-0.1s0.3-0.1,0.3-0.1s0.3-0.1,0.3-0.1l0.3-0.1l0.3-0.1l0.3-0.1l0.3-0.1
		c0,0,0.2-0.1,0.2-0.1l0.2-0.1l0.2-0.1c0,0,0.2-0.2,0.2-0.2s0.2-0.2,0.2-0.2l0.2-0.2c0,0,0.2-0.2,0.2-0.2l0.2-0.2
		c0,0,0.2-0.2,0.2-0.2l0.2-0.2c0,0,0.2-0.2,0.2-0.2l0.2-0.2l0.2-0.2l0.2-0.2l0.2-0.2c0,0,0.2-0.2,0.2-0.2l0.2-0.2l0.2-0.2l0.2-0.2
		c0,0,0.2-0.2,0.2-0.2l0.2-0.2l0.2-0.2c0,0,0.2-0.3,0.2-0.3s0.2-0.3,0.2-0.3l0.2-0.3c0,0,0.2-0.3,0.2-0.3l0.2-0.3
		c0,0,0.2-0.3,0.2-0.3l0.2-0.3l0.2-0.4l0.2-0.4l0.2-0.4l0.2-0.4l0.1-0.3l0.1-0.3c0,0,0.1-0.3,0.1-0.3l0.1-0.3l0.1-0.3l0.1-0.3
		l0.1-0.3l0.1-0.3l0.1-0.3l0.1-0.3l0.1-0.3l0.1-0.3l0.1-0.3l0.1-0.3l0.1-0.3l0.1-0.3l0.1-0.4c0,0,0.1-0.4,0.1-0.4s0.1-0.4,0.1-0.4
		s0.1-0.4,0.1-0.4s0.1-0.4,0.1-0.4l0.1-0.4c0,0,0.1-0.7,0.1-0.7l0.1-0.7l0.1-0.7c0,0,0.1-0.7,0.1-0.7l0.1-0.7l0.1-0.7l0.1-0.7
		l0.1-0.7c0,0,0.1-0.7,0.1-0.7l0.1-0.8l0.1-0.8l0.1-0.8l0.1-0.8c0,0,0.1-0.8,0.1-0.8l0.1-0.8c0,0,0-0.8,0-0.8s0-0.4,0-0.4l0-0.4
		l0-0.4l0-0.4l0-0.4l0-0.4l0-0.4c0,0,0-0.4,0-0.4l0-0.4l0-0.4l0-0.4c0,0,0-0.4,0-0.4l0-0.4c0,0,0-0.4,0-0.4s0-0.4,0-0.4s0-0.4,0-0.4
		s0-0.4,0-0.4s0-0.4,0-0.4l0-0.4l0-0.4l0-0.4c0,0,0-0.4,0-0.4s-0.1-0.4-0.1-0.4l-0.1-0.4l-0.1-0.4c0,0-0.1-0.4-0.1-0.4l-0.1-0.4
		l-0.1-0.4l-0.1-0.4l-0.1-0.4l-0.1-0.4c0,0-0.1-0.4-0.1-0.4s-0.1-0.4-0.1-0.4l-0.1-0.4c0,0-0.1-0.4-0.1-0.4s-0.1-0.4-0.1-0.4
		l-0.1-0.4l-0.1-0.4c0,0-0.1-0.4-0.1-0.4L279,114l-0.1-0.4l-0.2-0.4l-0.2-0.4c0,0-0.2-0.4-0.2-0.4l-0.2-0.4l-0.2-0.4l-0.2-0.4
		l-0.2-0.4l-0.2-0.4c0,0-0.2-0.4-0.2-0.4l-0.2-0.4l-0.2-0.4l-0.2-0.4l-0.2-0.4c0,0-0.2-0.4-0.2-0.4s-0.2-0.4-0.2-0.4l-0.2-0.4
		l-0.2-0.4l-0.2-0.3l-0.2-0.3c0,0-0.2-0.3-0.2-0.3l-0.2-0.3l-0.2-0.3l-0.2-0.3l-0.2-0.3c0,0-0.2-0.3-0.2-0.3s-0.2-0.2-0.2-0.2
		l-0.2-0.2l-0.2-0.2l-0.2-0.2c0,0-0.2-0.2-0.2-0.2l-0.2-0.2l-0.2-0.2l-0.2-0.2c0,0-0.2-0.1-0.2-0.1l-0.2-0.1l-0.2-0.1l-0.2-0.1
		l-0.2-0.1l-0.2-0.1l-0.2-0.1l-0.2-0.1c0,0-0.2-0.1-0.2-0.1l-0.2-0.1l-0.2-0.1l-0.2-0.1c0,0-0.2-0.1-0.2-0.1l-0.2-0.1
		c0,0-0.2,0-0.2,0l-0.2,0l-0.2,0l-0.3,0l-0.3,0l-0.3,0l-0.3,0l-0.3,0c0,0-0.3,0-0.3,0l-0.3,0c0,0-0.3,0-0.3,0s-0.3,0-0.3,0l-0.3,0
		l-0.3,0l-0.3,0l-0.3,0l-0.6,0l-0.8,0.1l-2.5,0.2l-0.5,0c0,0-0.3,0-0.3,0l-0.3,0c0,0-0.3,0-0.3,0l-0.2,0l-0.1,0c0,0-0.1,0-0.1,0
		l-0.1,0l-0.1,0c0,0-0.1,0-0.1,0s-0.1,0-0.1,0l-0.1,0l-0.1,0l-0.1,0l-0.1,0l-0.1,0l-0.1,0l-0.1,0c0,0-0.1,0-0.1,0c0,0-0.1,0-0.1,0
		l-0.1,0l-0.1,0l-0.1,0c0,0-0.1,0-0.1,0l-0.1,0l-0.1,0c0,0,0,0,0,0c0,0-0.1,0.1-0.1,0.1c0,0-0.1,0.1-0.1,0.1s-0.1,0.1-0.1,0.1
		L258,103l0,0l0,0l-0.1,0.1l-0.1,0.1c0,0-0.1,0.1-0.1,0.1l-0.1,0.2c0,0-0.1,0.2-0.1,0.2l-0.1,0.2l-0.1,0.2l-0.1,0.2l-0.1,0.2
		c0,0-0.1,0.2-0.1,0.2l-0.1,0.2c0,0-0.1,0.2-0.1,0.2l-0.1,0.2c0,0-0.1,0.4-0.1,0.4s-0.1,0.4-0.1,0.4l-0.1,0.4l-0.1,0.3l-0.1,0.3
		c0,0-0.1,0.3-0.1,0.3l-0.1,0.3l-0.1,0.6l-0.1,0.6l-0.1,0.8c0,0-0.1,0.8-0.1,0.8l-0.1,0.8c0,0-0.1,0.8-0.1,0.8s-0.1,0.8-0.1,0.8
		l-0.1,0.8l-0.2,1.5c0,0-0.2,1.5-0.2,1.5l-0.2,1.6l-0.2,1.7l-0.1,0.8c0,0-0.1,0.8-0.1,0.8l-0.1,0.8l-0.1,0.8l6.6-2l0.2,0
		c0,0,0.2,0,0.2,0l0.2,0l0.2,0c0,0,0.2,0,0.2,0l0.2,0l0.2,0c0,0,0.2,0,0.2,0l0.2,0l0.2,0l0.2,0l0.2,0l0.2,0.1c0,0,0.2,0.1,0.2,0.1
		l0.1,0.1l0.1,0.1l0.1,0.1c0,0,0.1,0,0.1,0s0.1,0,0.1,0l0.1,0l0.1,0c0,0,0.1,0,0.1,0l0.1,0l0.1,0l0.1,0c0,0,0.1,0,0.1,0l0.1,0l0.1,0
		l0.1,0l0.1,0l0.1,0c0,0,0.1,0,0.1,0l0,0c0,0,0,0,0,0s0,0,0,0s0,0,0,0s0,0,0,0l0,0c0,0,0,0,0,0l0,0.1l0,0.1c0,0,0,0.1,0,0.1l0,0.1
		l0,0.1l0,0.1l0,0.1l0,0.1l0.1,0.1l0.1,0.1l0.1,0.1l0.1,0.1l0.1,0.1l0,0.1l0,0.1l0,0.1l0,0.1l0,0.1l0,0.1l0,0.1c0,0,0,0.1,0,0.1
		l0,0.1l0,0.1l0,0.1c0,0,0,0.1,0,0.1s0,0.1,0,0.1l0,0.3l0,0.3l0,0.3l0,0.3l0,0.3l0,0.3c0,0,0,0.3,0,0.3s0,0.3,0,0.3l0,0.3
		c0,0,0,0.3,0,0.3s-0.1,0.3-0.1,0.3s-0.1,0.3-0.1,0.3l-0.1,0.3l-0.1,0.3l-0.1,0.3c0,0-0.1,0.3-0.1,0.3l-0.1,0.3l-0.1,0.3l-0.1,0.3
		l-0.1,0.3l-0.1,0.1c0,0-0.1,0.1-0.1,0.1s-0.1,0.1-0.1,0.1l-0.1,0.1l-0.1,0.1l-0.1,0.1c0,0-0.1,0.1-0.1,0.1l-0.1,0.1l-0.1,0.1
		l-0.1,0.1l-0.1,0.1l-0.1,0.1l-0.1,0.1l-0.1,0.1l-0.1,0.1c0,0-0.1,0.1-0.1,0.1s-0.1,0.1-0.1,0.1l-0.1,0.1c0,0-0.1,0.1-0.1,0.1
		l-0.1,0.1l-0.1,0.1l-0.1,0.1c0,0-0.1,0.1-0.1,0.1s-0.1,0.1-0.1,0.1l-0.1,0.1l-0.1,0.1l-0.1,0.1l-0.1,0.1l-0.1,0.1l-0.1,0.1
		l-0.1,0.1l-0.1,0.1l-0.2,0.1l-0.2,0.1l-0.2,0.1c0,0-0.2,0.1-0.2,0.1s-0.2,0.1-0.2,0.1s-0.2,0.1-0.2,0.1L254.1,136.7"/>
</g>
<g id="POLYLINE_534_">
	<path class="st2" d="M221.2,91.8c7-2.1,14.1-4.2,21.1-6.3L239,51.2l-0.3,0.4l-0.2,0.4c0,0-0.2,0.4-0.2,0.4s-0.2,0.4-0.2,0.4
		l-0.2,0.4c0,0-0.2,0.5-0.2,0.5s-0.2,0.5-0.2,0.5s-0.2,0.5-0.2,0.5s-0.2,0.5-0.2,0.5s-0.2,0.5-0.2,0.5l-0.2,0.5c0,0-0.2,0.5-0.2,0.5
		l-0.2,0.5l-0.2,0.5l-0.2,0.5c0,0-0.2,0.5-0.2,0.5s-0.2,0.5-0.2,0.5l-0.2,0.5c0,0-0.2,0.5-0.2,0.5l-0.2,0.5l-0.3,1l-0.3,1l-1.3,4
		l-0.3,0.9l-0.3,0.9c0,0-0.3,0.9-0.3,0.9l-0.3,0.9l-0.3,0.9l-0.3,0.9l-0.3,0.9c0,0-0.3,0.9-0.3,0.9l-0.3,0.9l-0.3,0.8l-0.3,0.8
		l-0.3,0.8l-0.3,0.8c0,0-0.3,0.8-0.3,0.8l-0.3,0.8l-0.4,0.8c0,0-0.4,0.8-0.4,0.8l-0.4,0.8l-0.4,0.8l-0.4,0.8l-0.4,0.7l-0.4,0.7
		c0,0-0.4,0.7-0.4,0.7l-0.2,0.4l-0.2,0.4l-0.2,0.4l-0.2,0.4c0,0-0.2,0.4-0.2,0.4s-0.2,0.3-0.2,0.3l-0.2,0.3l-0.2,0.3
		c0,0-0.2,0.3-0.2,0.3s-0.2,0.3-0.2,0.3l-0.2,0.3l-0.2,0.3l-0.2,0.3l-0.2,0.3c0,0-0.2,0.3-0.2,0.3l-0.2,0.3l-0.2,0.3L221.2,91.8"/>
</g>
<g id="POLYLINE_535_">
	<polyline class="st2" points="239.7,22.5 237.9,22.2 234.8,21.6 233.5,21.4 232.1,21.1 230.7,20.8 229.2,20.5 227.8,20.2 
		226.4,19.9 225,19.5 223.6,19.2 219.5,18.2 213.7,16.9 212.2,16.5 211.5,16.4 210.7,16.2 210,16 209.3,15.8 208.5,15.6 207.8,15.4 
		207,15.2 206.3,15 205.5,14.8 204.8,14.5 204.1,14.3 203.3,14.1 202.6,13.8 201.8,13.6 201.1,13.3 200.4,13 199.7,12.8 198.9,12.5 
		197.8,12 195.4,11.1 194.2,10.6 193.6,10.3 192.9,10.1 192.3,9.8 191.6,9.6 191,9.4 190.3,9.2 189.7,9 189.4,8.9 189,8.8 
		188.7,8.7 188.4,8.6 188.1,8.5 187.8,8.4 187.3,8.3 186.8,8.2 186.4,8.1 186,8 185.5,7.9 185.1,7.9 184.7,7.8 184.2,7.7 183.3,7.6 
		182.2,7.4 179.9,7.1 178.8,6.9 177.8,7.4 176.8,7.9 175.8,8.4 174.8,8.8 173.8,9.3 172.8,9.7 171.8,10.2 170.8,10.6 169.8,11 
		168.8,11.4 167.8,11.9 166.7,12.2 165.7,12.6 164.7,13 163.6,13.4 162.6,13.8 161.9,14 161.1,14.3 160.4,14.5 159.6,14.7 158.9,15 
		158.1,15.2 157.4,15.4 156.6,15.6 155.9,15.8 155.2,16 154.4,16.2 153.7,16.4 152.9,16.6 152.2,16.8 151.4,16.9 150.7,17.1 
		150.3,17.2 149.8,17.2 148.9,17.4 148,17.6 147.2,17.7 146.1,17.9 145.1,18 141.1,18.6 140.1,18.7 139.1,18.9 138.2,19 137.4,19.1 
		136.5,19.3 135.6,19.5 134.5,19.7 133.3,19.9 131.1,20.4 129.4,20.7 128.6,20.9 127.8,21.1 126.8,21.3 126.3,21.3 125.8,21.4 
		125.4,21.5 124.9,21.6 124.4,21.7 123.9,21.7 123.4,21.8 122.9,21.9 122.4,21.9 121.9,22 121.4,22 121,22.1 120.5,22.1 120,22.1 
		119.5,22.2 118.9,22.2 117.8,22.3 114.7,22.5 113.7,22.5 112.8,22.6 112,22.7 111.5,22.7 111.1,22.7 110.7,22.8 110.2,22.8 
		109.8,22.9 109.4,22.9 109,23 108.6,23.1 108.2,23.1 107.8,23.2 107.3,23.3 106.9,23.4 106.5,23.5 106,23.6 105.6,23.7 105.2,23.8 
		104.7,23.9 104.3,24 103.9,24.2 103.5,24.3 102.6,24.5 101.7,24.8 100.6,25.1 99.5,25.5 97.4,26.2 96.1,26.6 95.5,26.8 94.9,27 
		94.1,27.2 93.4,27.4 92.7,27.6 92,27.8 90.9,28.1 89.9,28.4 88.8,28.7 85.5,29.5 84.4,29.8 83.3,30.1 82.4,30.3 81.6,30.6 
		80.7,30.9 79.7,31.1 78.1,31.6 74.8,32.6 73.1,33.1 72.1,33.4 71.2,33.7 70.2,34 69.2,34.3 68.2,34.5 67.3,34.8 66.4,35 65.6,35.2 
		64.7,35.4 63.7,35.6 62.8,35.8 61.8,36 57.5,37 56.1,37.3 55.3,37.5 54.5,37.7 53.6,37.9 52.8,38.1 52,38.3 51.2,38.5 50.3,38.7 
		49.5,38.9 48.7,39.2 47.9,39.4 47,39.6 46.2,39.9 45.4,40.1 44.6,40.4 43.7,40.7 42.9,40.9 42.2,41.2 41.5,41.4 40.6,41.7 
		37.9,42.7 37.1,43 36.2,43.3 35.4,43.6 34.6,43.9 33.8,44.1 33.4,44.2 33,44.4 32.6,44.5 32.2,44.6 31.8,44.7 31.4,44.8 31,44.9 
		30.6,45 30.2,45.1 29.7,45.2 29.3,45.3 28.9,45.4 28.4,45.5 28,45.5 27.6,45.6 27.1,45.7 26.7,45.7 26.3,45.8 25.8,45.8 25.4,45.9 
		25,45.9 24.6,46 23.7,46.1 22.8,46.1 21.7,46.2 19.4,46.4 18.3,46.5 17.4,46.6 16.6,46.6 15.8,46.7 15.4,46.8 15,46.8 14.7,46.9 
		14.3,46.9 13.9,47 13.5,47 13.2,47.1 12.9,47.1 12.6,47.2 12.3,47.3 12.6,47.4 12.9,47.5 13.2,47.6 13.5,47.7 13.9,47.8 14.3,47.9 
		14.8,48 15.2,48.1 15.6,48.2 16,48.3 16.4,48.3 16.8,48.4 17.2,48.5 17.7,48.6 18.1,48.7 18.6,48.7 19.2,48.8 19.8,48.9 22.2,49.2 
		23.3,49.4 23.9,49.5 24.5,49.6 25.1,49.7 25.7,49.8 26.2,49.9 26.6,50 27.1,50.1 27.6,50.2 28.1,50.3 28.6,50.4 29.1,50.6 
		29.6,50.7 30.1,50.8 30.6,51 31.1,51.1 31.6,51.3 32.1,51.5 32.6,51.6 33,51.8 33.5,52 34.2,52.2 34.8,52.5 35.5,52.7 36.1,53 
		37.4,53.5 39.7,54.4 40.8,54.8 41.3,55.1 41.9,55.3 42.4,55.5 42.9,55.6 43.4,55.8 43.8,56 44.3,56.1 44.8,56.3 45.2,56.4 
		45.7,56.6 46.1,56.7 46.6,56.8 47.1,57 47.5,57.1 48.5,57.4 49.4,57.6 50.4,57.9 51.3,58.1 52.3,58.4 53.3,58.6 54.2,58.8 
		56.2,59.3 58.1,59.7 63.7,61 65.5,61.5 67.3,61.9 68.3,62.1 69.2,62.3 70.1,62.5 71,62.7 71.9,62.9 72.9,63.1 74.2,63.3 75.5,63.6 
		78.2,64.1 80.1,64.4 81,64.6 82,64.8 82.9,65 83.8,65.2 84.8,65.4 85.7,65.6 88.3,64.9 90.8,64.3 93.4,63.6 95.9,63 98.5,62.3 
		101.1,61.7 111.3,59.2 113.9,58.5 116.4,57.9 118.4,57.4 120.3,56.9 122.7,56.3 125,55.7 127.3,55.1 129.6,54.4 132,53.8 
		134.3,53.2 136.6,52.6 138.9,51.9 141.3,51.3 143.6,50.7 145.9,50 148.2,49.4 150.5,48.7 152.9,48.1 155.2,47.4 157.5,46.7 
		159.8,46.1 162.2,45.4 166.8,44.1 171.4,42.7 176.1,41.4 180.7,40 185.3,38.6 190,37.3 194.6,35.9 213.1,30.4 217.7,29 222.4,27.6 
		226.3,26.5 230.2,25.3 234,24.2 237.9,23 239.7,22.5 	"/>
</g>
<g id="POLYLINE_536_">
	<polyline class="st2" points="89.6,113 89.1,112.8 88.7,112.7 88.3,112.5 87.9,112.4 87.5,112.3 86.8,112.1 86.1,111.9 85.4,111.7 
		84.7,111.6 84.2,111.4 83.8,111.3 82.8,111.1 80.6,110.6 79.9,110.5 79.5,110.4 79.2,110.3 78.8,110.2 78.5,110.1 78.1,110 
		77.7,109.9 77.3,109.8 76.9,109.7 76.2,109.4 75.6,109.2 74.5,108.9 72.4,108.1 71.3,107.7 70.7,107.5 70.1,107.3 69.4,107.1 
		68.8,106.9 68.3,106.7 67.7,106.5 66.6,106.2 65.4,105.8 64.3,105.5 60,104.2 58.9,103.9 58.4,103.8 57.8,103.6 57.2,103.4 
		56.5,103.1 56.1,103 55.6,102.8 55.2,102.7 54.8,102.5 54.5,102.4 54.2,102.3 53.9,102.2 53.6,102 53.4,101.9 53.2,101.8 
		52.9,101.7 52.7,101.6 52.5,101.5 52.2,101.3 52,101.2 51.7,101 51.5,100.1 51.3,99.1 50.5,95.5 50.3,94.6 50.1,93.7 49.9,92.7 
		49.8,92.2 49.7,91.7 49.6,91.2 49.6,90.7 49.5,90.2 49.4,89.7 49.3,89 49.3,88.7 49.2,88.4 49.2,88 49.2,87.7 49.1,87 49.1,86.2 
		49,85.4 49,84.6 48.8,82.4 48.8,80.9 48.7,80.3 48.7,79.7 48.7,79.1 48.6,78.5 48.6,77.9 48.5,77.3 48.4,76.7 48.4,76.1 48.3,75.5 
		48.2,74.9 48.1,74.3 48,73.7 47.9,73.1 47.8,72.5 47.7,72 47.6,71.4 47.5,70.6 47.3,69.9 47.2,69.2 47,68.5 46.8,67.6 46.6,66.7 
		46,64 45.7,63 45.5,62 45.3,61 45.2,60.4 45,59.7 45.8,59.9 46.5,60.1 47.3,60.3 48.1,60.5 48.9,60.7 49.6,60.9 50.4,61.1 
		51.2,61.3 51.9,61.5 52.7,61.7 54.3,62.1 57.4,62.8 62.9,64.1 64.8,64.5 66.7,65 67.6,65.2 68.5,65.4 69.4,65.6 70.4,65.8 71.3,66 
		72.2,66.2 73.6,66.4 74.9,66.7 79,67.5 80.4,67.7 81.7,68 82.4,68.1 83.1,68.3 83.2,69.2 83.3,70.1 83.3,71.1 83.4,72 83.5,73 
		83.6,73.9 83.8,77.7 83.9,78.6 84,79.5 84,80.5 84.1,81.4 84.2,82.4 84.3,83.3 84.4,83.8 84.4,84.3 84.6,85.3 84.7,86.3 84.9,87.3 
		85.2,89.2 85.5,91.2 86.2,96.4 86.4,97.7 86.6,98.3 86.7,99 86.8,99.6 86.9,100.3 87,100.9 87.1,101.6 87.2,102.2 87.4,102.8 
		87.5,103.4 87.6,104 87.9,105.2 88.1,106.3 88.7,108.7 88.9,109.9 89.2,111.1 89.4,112 89.6,113 	"/>
</g>
<g id="POLYLINE_537_">
	<path class="st2" d="M40.7,112.4l-0.4,0.2c0,0-0.4,0.2-0.4,0.2l-0.4,0.2l-0.4,0.2c0,0-0.3,0.2-0.3,0.2s-0.3,0.2-0.3,0.2
		s-0.3,0.2-0.3,0.2s-0.3,0.2-0.3,0.2s-0.3,0.2-0.3,0.2l-0.3,0.2c0,0-0.3,0.2-0.3,0.2s-0.4,0.2-0.4,0.2s-0.3,0.2-0.3,0.2
		s-0.3,0.2-0.3,0.2s-0.3,0.1-0.3,0.1s-0.3,0.1-0.3,0.1l-0.3,0.1l-0.4,0.1l-0.4,0.1c0,0-0.4,0.1-0.4,0.1s-0.3,0.1-0.3,0.1
		s-0.3,0.1-0.3,0.1l-0.3,0.1l-0.3,0.1l-0.4,0.1l-0.4,0.1c0,0-0.4,0.1-0.4,0.1l-0.4,0.1l-0.3,0.1c0,0-0.3,0.1-0.3,0.1
		s-0.3,0.1-0.3,0.1s-0.3,0.1-0.3,0.1L29,117l-0.3,0.1c0,0-0.4,0-0.4,0l-0.4,0c0,0-0.3,0-0.3,0s-0.3,0-0.3,0l-0.3,0l-0.3,0
		c0,0-0.3,0-0.3,0s-0.3,0-0.3,0l-0.3,0l-0.3,0c0,0-0.3,0-0.3,0s-0.3,0-0.3,0l-0.3,0c0,0-0.3,0-0.3,0l-0.3,0l-0.3,0c0,0-0.3,0-0.3,0
		l-0.3,0l-0.3,0c0,0-0.3-0.1-0.3-0.1s-0.3-0.1-0.3-0.1l-0.3-0.1c0,0-0.3-0.1-0.3-0.1l-0.3-0.1c0,0-0.3-0.1-0.3-0.1s-0.3-0.1-0.3-0.1
		l-0.2-0.6c0,0-0.2-0.6-0.2-0.6s-0.2-0.6-0.2-0.6s-0.2-0.6-0.2-0.6l-0.2-0.6l-0.2-0.6l-1-2.3c0,0-0.5-1.2-0.5-1.2s-0.3-0.7-0.3-0.7
		l-0.3-0.7c0,0-0.3-0.7-0.3-0.7s-0.2-0.7-0.2-0.7l-0.1-0.3c0,0-0.1-0.3-0.1-0.3s-0.1-0.3-0.1-0.3s-0.1-0.3-0.1-0.3l-0.1-0.4
		c0,0-0.1-0.4-0.1-0.4s-0.1-0.4-0.1-0.4s-0.1-0.4-0.1-0.4s-0.1-0.4-0.1-0.4l-0.1-0.4c0,0-0.1-0.4-0.1-0.4s-0.1-0.4-0.1-0.4
		s-0.2-0.8-0.2-0.8l-0.2-0.8l-0.2-1l-0.2-1c0,0-0.2-1-0.2-1s-0.2-1-0.2-1l-0.2-1.2c0,0-0.7-3.5-0.7-3.5l-0.2-1.2
		c0,0-0.2-1.2-0.2-1.2l-0.2-1.1c0,0-0.2-1.1-0.2-1.1l-0.7-3.3l-0.2-1.1l-0.2-1.1c0,0-0.2-1.1-0.2-1.1S11,80.5,11,80.5
		s-0.1-0.6-0.1-0.6s-0.1-0.6-0.1-0.6l-0.1-0.6l-0.1-0.6c0,0-0.1-0.6-0.1-0.6l-0.2-1.2c0,0-0.2-1.2-0.2-1.2s-0.2-1.2-0.2-1.2l-0.8-5
		c0,0-0.4-2.9-0.4-2.9s-0.1-0.7-0.1-0.7s-0.1-0.7-0.1-0.7s-0.1-0.7-0.1-0.7s-0.1-0.7-0.1-0.7s-0.1-0.9-0.1-0.9s-0.1-0.9-0.1-0.9
		L8,60.6c0,0-0.1-0.9-0.1-0.9L7.8,59l-0.1-0.7l-0.1-0.7l-0.1-0.7l-0.1-1.4c0,0-0.2-2.7-0.2-2.7l-0.1-1.3c0,0-0.1-1.3-0.1-1.3
		l-0.1-0.6l-0.1-0.6c0,0,0.4-0.2,0.4-0.2L8.1,49c0,0,0.6,0.3,0.6,0.3s0.6,0.3,0.6,0.3s0.6,0.3,0.6,0.3s0.3,0.1,0.3,0.1l0.3,0.1
		c0,0,0.3,0.1,0.3,0.1l0.3,0.1l0.3,0.1l0.3,0.1c0,0,0.3,0.1,0.3,0.1s0.3,0.1,0.3,0.1s0.4,0.1,0.4,0.1s0.4,0.1,0.4,0.1
		s0.4,0.1,0.4,0.1l0.5,0.1c0,0,0.5,0.1,0.5,0.1s0.5,0.1,0.5,0.1s0.5,0.1,0.5,0.1s0.5,0.1,0.5,0.1l0.5,0.1l0.5,0.1l0.5,0.1
		c0,0,0.5,0.1,0.5,0.1s0.9,0.1,0.9,0.1s0.9,0.1,0.9,0.1l1.9,0.3l0.9,0.1c0,0,0.9,0.1,0.9,0.1s0.5,0.1,0.5,0.1s0.5,0.1,0.5,0.1
		s0.5,0.1,0.5,0.1l0.5,0.1l0.5,0.1l0.5,0.1c0,0,0.5,0.1,0.5,0.1s0.5,0.1,0.5,0.1s0.4,0.1,0.4,0.1l0.4,0.1c0,0,0.1,0.8,0.1,0.8
		s0.1,0.8,0.1,0.8l0.1,0.8l0.1,0.8c0,0,0.1,0.8,0.1,0.8s0.1,0.8,0.1,0.8l0.1,0.8c0,0,0.1,0.8,0.1,0.8l0.2,0.8c0,0,0.2,0.8,0.2,0.8
		l0.2,0.8c0,0,0.2,0.8,0.2,0.8s0.2,0.8,0.2,0.8s0.2,0.8,0.2,0.8l0.2,0.8c0,0,0.2,0.8,0.2,0.8s0.3,1.3,0.3,1.3l0.3,1.3l0.3,1.3
		c0,0,0.2,0.7,0.2,0.7s0.1,0.7,0.1,0.7s0.1,0.7,0.1,0.7l0.1,0.7c0,0,0.1,0.7,0.1,0.7s0.1,0.7,0.1,0.7s0.1,0.7,0.1,0.7l0.1,0.7
		c0,0,0.1,0.7,0.1,0.7l0.1,0.7l0.1,0.4c0,0,0,0.4,0,0.4l0,0.4c0,0,0,0.4,0,0.4s0,0.4,0,0.4l0,0.4l0.1,0.8l0.1,0.8c0,0,0,0.8,0,0.8
		l0,0.8c0,0,0.1,2.4,0.1,2.4l0,0.8c0,0,0,0.8,0,0.8s0.1,0.8,0.1,0.8s0.1,0.8,0.1,0.8s0,0.4,0,0.4l0,0.4c0,0,0,0.4,0,0.4s0,0.4,0,0.4
		l0.1,0.6c0,0,0.1,0.6,0.1,0.6s0.1,0.6,0.1,0.6l0.1,0.6c0,0,0.1,0.6,0.1,0.6s0.1,0.6,0.1,0.6l0.1,0.6c0,0,0.1,0.6,0.1,0.6l0.1,0.6
		c0,0,0.1,0.6,0.1,0.6l0.1,0.6l0.1,0.6l0.2,1.1c0,0,0.2,1.1,0.2,1.1s0.8,3.4,0.8,3.4s0.2,1.1,0.2,1.1s0.2,1.1,0.2,1.1
		s0.1,0.6,0.1,0.6s0.1,0.6,0.1,0.6s0.1,0.6,0.1,0.6l0.1,0.6l0.1,0.6c0,0,0.1,0.6,0.1,0.6C38.1,109.8,39.3,111.2,40.7,112.4"/>
</g>
<g id="POLYLINE_538_">
	<polyline class="st2" points="40,107.1 39.9,106.3 39.7,105.4 39.6,104.6 39.4,103.8 39.2,103 39,102.2 38.7,100.5 38.1,98 
		37.9,97.2 37.8,96.4 37.6,95.5 37.4,94.7 37.3,93.9 37.1,93 37.1,92.6 37,92.2 36.9,91.8 36.9,91.4 36.8,91 36.7,90.5 36.7,89.9 
		36.6,89.2 36.5,88.6 36.5,88 36.4,87.2 36.4,86.4 36.3,85.6 36.2,82.8 36.1,81.7 36.1,80.7 36,80.1 36,79.4 35.9,78.8 35.9,78.1 
		35.8,77.5 35.7,76.9 35.6,76.3 35.5,75.7 35.5,75.2 35.4,74.7 35.3,74.1 35.2,73.6 35.1,73.1 35,72.6 34.9,72 34.7,71.5 34.5,70.5 
		34.3,69.5 33.6,66.5 33.3,65.4 33.2,64.8 33,64.2 32.9,63.6 32.8,63 32.6,62.4 32.5,61.8 32.4,61.1 32.3,60.5 32.2,59.9 32.1,59.3 
		32,58.7 31.9,58.1 31.7,57.2 31.6,56.3 31.5,55.5 31.4,54.6 32,54.8 32.6,55 33.3,55.3 33.9,55.5 34.6,55.8 35.2,56 36.5,56.5 
		37.7,57 39,57.5 39.6,57.8 40.3,58 40.9,58.3 41.6,58.5 41.7,59.4 41.9,60.4 42.1,61.3 42.3,62.2 42.6,63.4 42.9,64.6 43.4,66.9 
		43.6,67.8 43.9,68.8 44.1,69.8 44.3,70.7 44.4,71.4 44.5,72 44.7,72.7 44.8,73.4 44.9,74 45,74.7 45.1,75.4 45.2,76 45.2,76.6 
		45.3,77.1 45.4,77.7 45.4,78.2 45.4,78.7 45.5,79.3 45.5,79.8 45.6,80.4 45.6,81.1 45.7,81.9 45.8,84.7 45.8,85.4 45.9,86 
		45.9,86.6 45.9,87.2 46,87.7 46,88.3 46.1,88.7 46.1,89.2 46.2,89.6 46.2,89.9 46.3,90.3 46.4,90.7 46.5,91.3 46.6,91.9 46.7,92.5 
		46.8,93.1 46.9,93.7 47,94.3 47.3,95.5 47.5,96.5 48.1,99.4 48.3,100.2 48.5,101.1 48.7,101.9 48.9,102.8 49,102.9 49.2,103 
		49.3,103.1 49.5,103.3 49.6,103.4 49.8,103.5 49.9,103.6 50.1,103.7 50.3,103.8 50.5,104 50.7,104.1 51,104.2 51.2,104.3 
		51.4,104.5 51.6,104.6 51.8,104.7 52,104.8 52.2,104.9 52.7,105.1 53,105.2 53.3,105.3 53.7,105.5 54,105.6 54.3,105.7 54.7,105.9 
		55.1,106 55.5,106.1 55.9,106.3 56.3,106.4 57.1,106.7 58,106.9 58.9,107.2 60.6,107.7 62.2,108.2 63.8,108.7 64.7,108.9 
		65.6,109.2 66.4,109.4 67.3,109.7 68.2,110 69.1,110.3 70,110.6 70.9,111 73.4,111.8 74.2,112.1 75,112.4 75.7,112.6 76.1,112.7 
		76.5,112.8 76.8,113 77.2,113.1 77.6,113.2 78,113.3 78.4,113.4 78.8,113.5 79.6,113.7 82.1,114.2 82.9,114.4 83.4,114.5 
		83.9,114.6 84.4,114.7 84.9,114.9 85.5,115 86.1,115.2 86.7,115.3 87.3,115.5 87.8,115.7 88.4,115.9 89.1,116.1 89.7,116.4 
		90.3,116.6 90.5,117.7 90.7,118.8 91,120 91.2,121.1 91.4,121.8 91.5,122.6 91.7,123.3 91.9,124.1 92.1,124.8 92.3,125.6 92.4,126 
		92.5,126.3 92.6,126.7 92.7,127.1 92.6,127.1 92.5,127.1 92.3,127.1 92.2,127 92.1,127 92,127 91.7,127 91.4,126.9 91.2,126.9 
		90.9,126.8 90.6,126.8 90.3,126.7 90,126.6 89.7,126.5 89.4,126.4 89.1,126.3 88.7,126.1 88.3,126 86.8,125.4 86.3,125.2 85.7,125 
		85.2,124.9 84.7,124.7 84.2,124.5 83.8,124.4 83.4,124.3 83.1,124.2 82.7,124.1 82.3,124 81.9,123.9 81.1,123.7 80.5,123.6 
		79.9,123.4 77.6,122.9 77.1,122.8 76.5,122.7 75.9,122.5 75.5,122.4 75.2,122.4 74.8,122.3 74.5,122.2 73.9,122 73.5,121.9 
		73.1,121.7 72.3,121.5 71.6,121.2 70.8,121 69.4,120.5 68.1,120 67.4,119.8 66.7,119.5 66,119.3 65.4,119.1 64.7,118.9 64.1,118.7 
		63.4,118.4 62.7,118.2 61.4,117.8 60.1,117.4 56.5,116.4 55.4,116.1 54.5,115.8 53.6,115.5 53.1,115.4 52.6,115.2 52.2,115 
		51.7,114.9 51.3,114.7 50.8,114.6 50.4,114.4 50,114.2 49.5,114 49.1,113.9 48.7,113.7 48.2,113.5 47.8,113.3 47.4,113.1 47,112.9 
		46.7,112.7 46.3,112.5 45.9,112.3 45.5,112 45.1,111.8 44.7,111.5 44.4,111.3 44,111.1 43.7,110.8 43.4,110.6 43.1,110.3 
		42.8,110.1 42.5,109.8 42.2,109.5 41.9,109.3 41.6,109 41.4,108.7 41.1,108.4 40.8,108.1 40.5,107.7 40.3,107.4 40,107.1 	"/>
</g>
<g id="POLYLINE_539_">
	<path class="st2" d="M239.5,45.3c0,0,0.3-0.3,0.3-0.3l0.3-0.3l0.3-0.3l0.3-0.3l0.3-0.3l0.3-0.3l0.3-0.3l0.3-0.2l0.3-0.2l0.3-0.2
		l0.3-0.2l0.3-0.2c0,0,0.4-0.2,0.4-0.2l0.4-0.2l0.4-0.2l0.4-0.2c1.2-0.6,2.4-1.1,3.7-1.4l-1.5-15.6l-7.9,2.3l-3.9,1.1l-3.9,1.1
		l-3.9,1.1l-3.9,1.1c0,0-4.6,1.4-4.6,1.4l-4.6,1.4c0,0-18.5,5.5-18.5,5.5l-4.6,1.4l-4.6,1.4l-4.6,1.4l-4.6,1.4l-4.6,1.4l-4.6,1.4
		l-4.6,1.3c0,0-2.3,0.7-2.3,0.7s-2.3,0.7-2.3,0.7l-2.3,0.7l-2.3,0.7l-2.3,0.7l-2.3,0.7l-2.3,0.6c0,0-2.3,0.6-2.3,0.6l-2.3,0.6
		c0,0-2.3,0.6-2.3,0.6l-2.3,0.6l-2.3,0.6l-2.3,0.6l-2.3,0.6c0,0-2.3,0.6-2.3,0.6s-2.3,0.6-2.3,0.6s-2.3,0.6-2.3,0.6l-2.3,0.6l-2,0.5
		c0,0-2,0.5-2,0.5s-2.6,0.6-2.6,0.6s-2.6,0.6-2.6,0.6s-10.3,2.6-10.3,2.6L99.3,66c0,0-2.6,0.7-2.6,0.7s-2.6,0.7-2.6,0.7
		S91.5,68,91.5,68s-2.6,0.7-2.6,0.7s-2.6,0.7-2.6,0.7s0.1,1.1,0.1,1.1l0.1,0.9c0,0,0.1,0.8,0.1,0.8s0.1,0.8,0.1,0.8l0.1,1.6
		c0,0,0.1,1.6,0.1,1.6l0.1,1.6c0,0,0.1,1,0.1,1s0.1,1,0.1,1s0.1,1,0.1,1l0.1,1c0,0,0.1,0.8,0.1,0.8l0.1,0.8c0,0,0.1,0.8,0.1,0.8
		l0.1,0.8c0,0,0.2,1.2,0.2,1.2l0.2,1.2l0.4,2.4c0,0,0.3,1.9,0.3,1.9s0.5,3.3,0.5,3.3l0.2,1.1c0,0,0.2,1.1,0.2,1.1s0.2,1.1,0.2,1.1
		l0.2,1.1c0,0,0.1,0.5,0.1,0.5s0.1,0.5,0.1,0.5l0.1,0.5l0.1,0.5l0.2,1c0,0,0.2,1,0.2,1s0.2,1,0.2,1s0.2,1,0.2,1s0.7,3,0.7,3
		s0.2,1,0.2,1s0.2,1,0.2,1l0.2,1.1c0,0,0.2,1.1,0.2,1.1s0.2,1.1,0.2,1.1s0.8,4.2,0.8,4.2s0.2,1,0.2,1l0.2,0.9c0,0,0.2,0.9,0.2,0.9
		s0.2,0.9,0.2,0.9s0.2,0.9,0.2,0.9s0.2,0.7,0.2,0.7l0.2,0.7c0,0,0.2,0.7,0.2,0.7l0.2,0.7c0,0,0.2,0.6,0.2,0.6l0.2,0.6
		c0,0,0.2,0.6,0.2,0.6l0.1,0.3l0.1,0.3l0.1,0.4c0,0,0.1,0.4,0.1,0.4l0.1,0.4c0,0,0.1,0.4,0.1,0.4s0.2,0.6,0.2,0.6l0.2,0.6
		c0,0,0.2,0.6,0.2,0.6s0.2,0.6,0.2,0.6s1,2.5,1,2.5c0.2,0.6,0.5,1.1,0.7,1.7l0.6-0.3c0,0,0.6-0.3,0.6-0.3s0.6-0.3,0.6-0.3
		s0.6-0.3,0.6-0.3s0.6-0.3,0.6-0.3s0.6-0.3,0.6-0.3l0.6-0.3c0,0,0.6-0.3,0.6-0.3s0.6-0.3,0.6-0.3l0.6-0.3l0.6-0.2l0.6-0.2
		c0,0,0.6-0.2,0.6-0.2l0.6-0.2l0.6-0.2l0.6-0.2c0,0,0.6-0.2,0.6-0.2l0.6-0.2c0,0,0.6-0.2,0.6-0.2s0.6-0.2,0.6-0.2l0.6-0.2
		c0,0,0.6-0.2,0.6-0.2s0.6-0.2,0.6-0.2l0.6-0.2c0,0,0.6-0.2,0.6-0.2s0.6-0.2,0.6-0.2l0.6-0.2l0.6-0.2l1.2-0.4l1.3-0.4
		c0,0,0.8-0.2,0.8-0.2l0.8-0.2c0,0,0.8-0.2,0.8-0.2s0.8-0.2,0.8-0.2s0.8-0.2,0.8-0.2l0.8-0.2c0,0,0.8-0.2,0.8-0.2l0.8-0.2
		c0,0,0.8-0.2,0.8-0.2s0.8-0.2,0.8-0.2l1.6-0.4c0,0,1.6-0.4,1.6-0.4l1.6-0.4c0,0,1.6-0.4,1.6-0.4l1.6-0.4c0,0,1.6-0.4,1.6-0.4
		s1.6-0.4,1.6-0.4l1.6-0.4c0,0,1.6-0.4,1.6-0.4s1.6-0.4,1.6-0.4l1.6-0.4c0,0,3.2-0.7,3.2-0.7s6.5-1.4,6.5-1.4l3.2-0.7l1.6-0.4
		l1.6-0.4l1.6-0.4c0,0,1.6-0.4,1.6-0.4l1.6-0.4l1.6-0.4c0,0,1.6-0.4,1.6-0.4s1.6-0.4,1.6-0.4l1.5-0.4c0,0,1.5-0.4,1.5-0.4l1.5-0.4
		c0,0,1.5-0.4,1.5-0.4l0.8-0.2l0.8-0.2l0.8-0.2c0,0,0.8-0.2,0.8-0.2l0.8-0.2l0.8-0.2l0.8-0.2l0.8-0.2c0,0,0.7-0.2,0.7-0.2l0.7-0.2
		c0,0,0.7-0.2,0.7-0.2l0.7-0.2l0.7-0.2l0.7-0.2l0.7-0.2l0.7-0.2l0.7-0.2l0.7-0.2l0.7-0.3c0,0,0.7-0.3,0.7-0.3s0.7-0.3,0.7-0.3
		s0.7-0.3,0.7-0.3l0.7-0.3l0.7-0.3l0.7-0.3c0,0,0.7-0.3,0.7-0.3l0.7-0.3c0,0,0.7-0.3,0.7-0.3l0.7-0.3l0.7-0.3l0.7-0.3l0.7-0.3
		l0.7-0.3c0,0,0.6-0.3,0.6-0.3l0.6-0.3l0.6-0.3l0.6-0.3l0.6-0.3l0.6-0.3c0,0,0.6-0.3,0.6-0.3s0.4-0.2,0.4-0.2l0.4-0.3l0.4-0.3
		l0.4-0.3l0.4-0.3l0.4-0.3c0,0,0.4-0.3,0.4-0.3s0.4-0.3,0.4-0.3l0.4-0.3l0.4-0.3l0.4-0.3l0.4-0.3l0.4-0.3l0.4-0.3
		c0,0,0.4-0.3,0.4-0.3s0.4-0.3,0.4-0.3s0.4-0.3,0.4-0.3l0.4-0.3l0.4-0.3l0.4-0.3l0.4-0.3l0.4-0.3l0.4-0.3c0,0,0.3-0.3,0.3-0.3
		l0.3-0.3l0.3-0.3l0.3-0.3l0.3-0.3c0,0,0.3-0.3,0.3-0.3s0.3-0.3,0.3-0.3s0.3-0.3,0.3-0.3s0.3-0.3,0.3-0.3s0.2-0.2,0.2-0.2l0.2-0.2
		l0.2-0.3c0,0,0.2-0.3,0.2-0.3l0.2-0.3l0.2-0.3c0,0,0.2-0.3,0.2-0.3s0.2-0.3,0.2-0.3l0.2-0.3c0,0,0.2-0.3,0.2-0.3s0.4-0.5,0.4-0.5
		l0.4-0.5l0.4-0.5l0.2-0.3c0,0,0.2-0.3,0.2-0.3l0.2-0.3l0.2-0.3c0,0,0.2-0.3,0.2-0.3S220,88,220,88l0.2-0.3c0,0,0.2-0.3,0.2-0.3
		l0.2-0.3l0.2-0.3l0.4-0.6l0.4-0.6l0.4-0.6l0.4-0.7c0,0,0.4-0.7,0.4-0.7s0.4-0.7,0.4-0.7l0.4-0.7l0.3-0.6l0.3-0.6
		c0,0,0.3-0.6,0.3-0.6l0.3-0.6l0.3-0.8l0.3-0.8l0.3-0.8l0.3-0.8l0.3-0.8l0.3-0.8c0,0,0.3-0.8,0.3-0.8l0.3-0.8l0.3-0.8l0.3-0.8
		l0.3-0.8l0.3-0.8l0.3-0.9l0.3-0.9c0,0,0.3-0.9,0.3-0.9l0.3-0.9l0.4-1.3l1-3c0,0,0.3-0.9,0.3-0.9l0.3-0.9l0.3-0.8
		c0,0,0.3-0.8,0.3-0.8l0.3-0.8l0.3-0.8l0.2-0.5l0.2-0.5l0.2-0.5l0.2-0.5c0,0,0.2-0.5,0.2-0.5s0.2-0.5,0.2-0.5l0.2-0.5
		c0,0,0.2-0.5,0.2-0.5s0.2-0.5,0.2-0.5s0.3-0.5,0.3-0.5l0.3-0.5l0.3-0.5l0.3-0.5l0.1-0.3c0,0,0.1-0.3,0.1-0.3s0.1-0.3,0.1-0.3
		l0.2-0.2l0.2-0.2c0,0,0.2-0.2,0.2-0.2l0.2-0.2l0.2-0.2c0,0,0.2-0.2,0.2-0.2s0.2-0.2,0.2-0.2s0.2-0.2,0.2-0.2l0.2-0.2l0.2-0.2
		L238,47c0,0,0.2-0.2,0.2-0.2l0.2-0.2l0.2-0.2l0.2-0.2l0.2-0.2l0.2-0.2l0.2-0.2L239.5,45.3"/>
</g>
<g id="POLYLINE_540_">
	<path class="st2" d="M250.2,134.6l9.9-2.9l0.1,0l0.1,0l0.1,0l0.1,0l0.1-0.1l0.1-0.1l0.1,0l0.1,0c0,0,0.1,0,0.1,0l0.1,0l0.1-0.1
		c0,0,0.1-0.1,0.1-0.1l0.1-0.1l0.1-0.1l0.1-0.1l0.1-0.1l0.1-0.1l0.1-0.1l0.1-0.1l0.1-0.1l0.1-0.1l0.1-0.1c0,0,0.1-0.1,0.1-0.1
		s0.1-0.1,0.1-0.1s0.1-0.1,0.1-0.1l0.1-0.1l0.1-0.1l0.1-0.1l0.1-0.1l0.1-0.1l0-0.1l0-0.1c0,0,0-0.1,0-0.1l0-0.1l0-0.1
		c0,0,0-0.1,0-0.1l0-0.1l0-0.1c0,0,0-0.1,0-0.1s0-0.1,0-0.1s0.1-0.3,0.1-0.3s0.1-0.3,0.1-0.3s0-0.3,0-0.3l0-0.3l0-0.3l0-0.3
		c0,0,0-0.3,0-0.3l0-0.1l0-0.1l0-0.1l0-0.1l0-0.1c0,0,0-0.1,0-0.1s0-0.1,0-0.1l0-0.1l0-0.1l0-0.1l0-0.1c0,0,0-0.1,0-0.1
		c0,0,0-0.1,0-0.1c0,0,0-0.1,0-0.1c0,0,0-0.1,0-0.1c0,0,0-0.1,0-0.1c0,0,0-0.1,0-0.1c0,0,0,0,0,0c0,0,0,0,0,0c0,0,0,0,0,0
		c0,0-0.1,0-0.1,0c0,0-0.1,0-0.1,0c0,0-0.1,0-0.1,0c0,0-0.1,0-0.1,0s0,0,0,0s0,0,0,0s0,0,0,0l0,0l-0.1,0c0,0-0.1,0-0.1,0
		s-0.1,0-0.1,0l-0.1,0l-0.1,0l-0.1,0l-0.1,0l-0.1,0l-0.1,0l-7.4,2.2c0,0-2.1,0.6-2.1,0.6c-7.8,2.3-15.7,4.6-23.5,7l-0.6,0.2
		l-0.6,0.2l-0.6,0.2l-0.6,0.2l-0.6,0.2l-0.6,0.2l-0.6,0.2l-0.6,0.2c0,0-0.5,0.1-0.5,0.1l-0.5,0.1c0,0-0.5,0.1-0.5,0.1l-0.5,0.1
		c0,0-0.5,0.1-0.5,0.1l-0.5,0.1c0,0-0.5,0.1-0.5,0.1l-0.5,0.1l-0.6,0.1c0,0-0.6,0.1-0.6,0.1l-0.6,0.1c0,0-0.6,0.1-0.6,0.1l-0.4,0
		l-0.4,0l-0.4,0c0,0-0.4,0-0.4,0s-0.4,0-0.4,0l-0.4,0l-0.4,0l-0.4,0c0,0-0.4,0-0.4,0l-0.4,0l-0.3,0l-0.3,0c0,0-0.3,0-0.3,0
		s-0.3,0-0.3,0l-0.3,0c0,0-0.3,0-0.3,0l-0.3-0.1l-0.3-0.1l-0.3-0.1l-0.3-0.1l-0.3-0.1l-0.3-0.1l-0.3-0.1l-0.3-0.1
		c0,0-0.3-0.1-0.3-0.1l-0.1-0.1l-0.1-0.1l-0.1-0.1c0,0-0.1-0.1-0.1-0.1l-0.1-0.1l-0.1-0.1l-0.1-0.1l-0.1-0.1l-0.1-0.1l-0.1-0.1
		c0,0-0.1-0.1-0.1-0.1l-0.1-0.1c0,0-0.1-0.1-0.1-0.1l-0.1-0.1c0,0-0.1-0.1-0.1-0.1l-0.1-0.1c0,0-0.1-0.1-0.1-0.1l-0.1-0.1l-0.1-0.1
		l-0.1-0.1l-0.1-0.1l-0.1-0.1l-0.1-0.1l-0.1-0.1l-0.1-0.1l-0.1-0.1l-0.1-0.1l-0.1-0.1l-0.1-0.1l-0.1-0.1l-0.1-0.1l-0.1-0.1l-0.1-0.1
		c0,0-0.1-0.1-0.1-0.1s-0.1-0.1-0.1-0.1s-0.1-0.1-0.1-0.1l-0.1-0.1c0,0-0.1-0.1-0.1-0.1l-0.1-0.2l-0.1-0.2c0,0-0.1-0.2-0.1-0.2
		l-0.1-0.2c0,0-0.1-0.2-0.1-0.2l-0.1-0.2l-0.1-0.2l0-0.2l0-0.2l-1.9-19.9c-1.6,0.8-3.2,1.5-4.8,2.2c0,0,1.7,17.9,1.7,17.9l0,0.3
		l0,0.3c0,0,0,0.3,0,0.3s0,0.3,0,0.3l0,0.3c0,0,0,0.3,0,0.3s0,0.3,0,0.3s0.1,0.3,0.1,0.3s0.1,0.2,0.1,0.2l0.1,0.2l0.1,0.2
		c0,0,0.1,0.2,0.1,0.2l0.1,0.2l0.1,0.2c0,0,0.1,0.2,0.1,0.2s0.1,0.2,0.1,0.2l0.1,0.2l0.1,0.2c0,0,0.1,0.2,0.1,0.2l0.1,0.2l0.1,0.2
		c0,0,0.1,0.2,0.1,0.2s0.1,0.2,0.1,0.2l0.1,0.2l0.1,0.2l0.1,0.2l0.1,0.2l0.1,0.2l0.1,0.2l0.1,0.2l0.1,0.2c0,0,0.1,0.2,0.1,0.2
		l0.1,0.2l0.1,0.2l0.1,0.2c0,0,0.1,0.2,0.1,0.2l0.1,0.2c0,0,0.1,0.2,0.1,0.2s0.1,0.2,0.1,0.2l0.1,0.2l0.1,0.1l0.1,0.1
		c0,0,0.1,0.1,0.1,0.1l0.1,0.1c0,0,0.1,0.1,0.1,0.1s0.1,0.1,0.1,0.1l0.1,0.1c0,0,0.1,0.1,0.1,0.1l0.1,0.1l0.1,0.1
		c0,0,0.1,0.1,0.1,0.1l0.1,0.1l0.1,0.1l0.1,0.1c0,0,0.1,0.1,0.1,0.1l0.1,0.1l0.1,0.1l0.1,0.1c0,0,0.3,0.2,0.3,0.2l0.3,0.2l0.3,0.2
		l0.3,0.2l0.3,0.2l0.3,0.2l0.3,0.1l0.3,0.1l0.3,0.1l0.3,0.1l0.3,0.1c0,0,0.3,0.1,0.3,0.1l0.3,0.1l0.3,0.1l0.3,0.1
		c0,0,0.4,0.1,0.4,0.1l0.4,0.1c0,0,0.4,0.1,0.4,0.1s0.4,0.1,0.4,0.1l0.4,0.1c0,0,0.4,0,0.4,0l0.4,0c0,0,0.4,0,0.4,0l0.4,0
		c0,0,0.4,0,0.4,0l0.4,0l0.4,0l0.4,0l0.4,0l0.4,0c0,0,0.4,0,0.4,0l0.4,0c0,0,0.4,0,0.4,0s0.4,0,0.4,0s0.4-0.1,0.4-0.1
		s0.3-0.1,0.3-0.1l0.3-0.1l0.3-0.1c0,0,0.3-0.1,0.3-0.1l0.3-0.1c0,0,0.3-0.1,0.3-0.1s0.3-0.1,0.3-0.1s0.3-0.1,0.3-0.1
		C229.8,140.6,240,137.6,250.2,134.6"/>
</g>
<g id="HATCH_319_">
	<path class="st0" d="M248.1,121.9l-10.7,3.2l-10.7,3.2l-0.6,0.2l-0.6,0.2l-0.6,0.2l-0.6,0.2l-0.6,0.2l-0.6,0.2l-0.6,0.2l-0.6,0.1
		l-0.5,0.1l-0.5,0.1l-0.5,0.1l-0.5,0.1l-0.5,0.1l-0.5,0.1l-0.5,0.1l-0.5,0.1l-0.5,0.1l-0.5,0.1l-0.5,0.1l-0.5,0.1l-0.3,0l-0.3,0
		l-0.3,0l-0.3,0l-0.3,0l-0.3,0l-0.3,0l-0.3,0l-0.2,0l-0.2,0l-0.2,0l-0.2,0l-0.2,0l-0.2,0l-0.2,0l-0.2,0l-0.1,0l-0.1,0l-0.1,0l-0.1,0
		l-0.1,0l-0.1,0l-0.1,0l0,0l0,0l-0.1,0l-0.1,0l0,0l0,0l0,0l0,0l0,0l0,0l0,0l0,0l0,0l0,0l0,0l0,0l0,0l0,0l0,0l0,0l0,0l0,0l0,0l0,0
		l0,0l0,0l0,0l0,0l0,0l0,0l0,0l0,0l0,0l0,0l0,0l0,0l0,0l0,0l0,0l0,0l0,0l0,0l0-0.1l-2.1-22.2l0.4-0.2l0.4-0.2l0.4-0.2l0.4-0.2
		l0.4-0.2l0.4-0.2l0.4-0.2l0.4-0.3l0.4-0.3l0.4-0.3l0.4-0.3l0.4-0.3l0.4-0.3l0.4-0.3l0.4-0.3l0.3-0.3l0.3-0.3l0.3-0.3l0.3-0.3
		l0.3-0.3l0.3-0.3l0.3-0.3l0.3-0.3l0.3-0.3l0.3-0.3l0.3-0.3l0.3-0.3l0.3-0.3l0.3-0.3l0.3-0.3l0.3-0.3l0.3-0.3l6.8-2l6.8-2l6.8-2
		l3.4-1l3.4-1l2.5-0.7l-4-41.4l0.1-0.1l0.1-0.1l0.1-0.1l0.1-0.1l0.1-0.1L246,48l0.1-0.1l0.2-0.1l0.2-0.1l0.2-0.1l0.2-0.1l0.2-0.1
		l0.2-0.1l0.2-0.1l0.2-0.1l0.2-0.1l0.2-0.1l0.3-0.1l0.3-0.1l0.3-0.1l0.3-0.1l0.3-0.1l0.3-0.1l0.3-0.1l0.3-0.1l0.3-0.1l0.3-0.1
		l0.3-0.1l0.3-0.1l0.3-0.1l0.3,0l0.3,0l3.1-0.3l-2.5-26.3l-2.1-0.6l-0.6-0.2l-0.6-0.2l-0.6-0.1l-0.6-0.1l-0.8-0.2l-0.8-0.2l-0.8-0.2
		l-0.8-0.2l-0.8-0.2l-0.8-0.2l-0.8-0.2l-0.8-0.2l-1.6-0.3l-4.6-0.9l-0.8-0.1l-0.8-0.2l-0.7-0.1l-0.7-0.2l-0.7-0.2l-0.7-0.2l-1.5-0.3
		l-1.5-0.3l-1.5-0.3l-1.5-0.3l-6-1.4l-3.1-0.7l-1.6-0.4l-1.6-0.4l-0.8-0.2l-0.8-0.2l-0.8-0.2L210,9.4l-0.8-0.2L208.5,9l-0.8-0.2
		L207,8.6l-0.8-0.2l-0.7-0.2l-0.7-0.2L204,7.6l-0.7-0.3l-0.7-0.3l-0.7-0.3L201,6.5L199.7,6l-2.6-1l-0.6-0.3l-0.6-0.3l-0.8-0.3
		l-0.8-0.3l-0.8-0.3l-0.4-0.1l-0.4-0.1l-0.4-0.1L192,3.1l-0.4-0.1l-0.4-0.1l-0.4-0.1l-0.4-0.1L190,2.5l-0.4-0.1l-0.6-0.1l-0.6-0.1
		L188,2l-0.6-0.1l-0.6-0.1l-0.6-0.1l-0.6-0.1l-0.6-0.1l-0.9-0.1l-0.9-0.1L181,0.9l-0.7-0.1l-0.7-0.1l-0.7-0.1l-1-0.2l-0.9,0.5
		l-0.5,0.3l-0.5,0.3l-0.5,0.2l-0.5,0.2l-0.5,0.2l-0.5,0.2l-0.5,0.2l-0.5,0.2l-1,0.5l-1,0.5l-1,0.4l-1,0.4l-1,0.4l-1,0.4l-1,0.4
		l-1,0.4l-1,0.4l-1,0.4l-1,0.4l-1,0.4L159.9,8l-0.7,0.2l-0.7,0.2l-0.7,0.2l-0.7,0.2l-0.7,0.2l-0.7,0.2L155,9.5l-0.7,0.2l-0.7,0.2
		l-0.7,0.2l-0.7,0.2l-0.7,0.2l-0.7,0.2l-0.7,0.1l-0.7,0.1l-0.4,0.1l-0.4,0.1l-0.8,0.1l-0.8,0.1l-0.8,0.1l-1,0.1l-1,0.1l-4,0.6
		l-1,0.2l-1,0.2l-0.9,0.1l-0.9,0.1l-1,0.2l-1,0.2l-1,0.2l-1,0.2l-3.8,0.8l-0.9,0.2l-0.9,0.2l-0.9,0.2l-0.9,0.2l-0.5,0.1l-0.5,0.1
		l-0.5,0.1l-0.5,0.1l-0.4,0.1l-0.4,0.1l-0.4,0.1l-0.4,0l-0.4,0l-0.4,0l-0.4,0l-0.4,0l-0.5,0l-0.5,0l-1,0.1l-1.1,0.1l-2.2,0.1
		l-1.1,0.1l-0.9,0.1l-0.5,0l-0.5,0l-0.5,0l-0.5,0l-0.5,0.1l-0.5,0.1l-0.5,0.1l-0.5,0.1l-0.5,0.1l-0.5,0.1l-0.5,0.1l-0.5,0.1
		l-0.5,0.1l-0.5,0.1l-0.5,0.1l-0.5,0.1l-0.5,0.1l-0.5,0.1l-0.5,0.1l-0.5,0.1l-0.5,0.1l-0.5,0.1l-0.5,0.1l-0.5,0.1l-0.9,0.3l-1.1,0.3
		l-1.1,0.4l-2.2,0.7l-1.2,0.4l-0.6,0.2L93,20.9l-0.7,0.2l-0.7,0.2l-0.7,0.2l-0.7,0.2L89.2,22l-1.1,0.3l-4.4,1.1l-1.1,0.3L81.5,24
		l-0.9,0.3l-0.9,0.3l-0.9,0.3l-0.9,0.3l-1.7,0.5l-3.3,1l-1.7,0.5l-0.9,0.3l-0.9,0.3l-0.9,0.3l-0.9,0.3l-0.9,0.2l-0.9,0.2l-0.8,0.2
		L64,29.1l-1,0.2l-1,0.2l-1,0.2l-1,0.2l-2.8,0.6l-1.4,0.3l-1.4,0.3l-0.9,0.2l-0.9,0.2l-0.9,0.2L51,32l-0.9,0.2l-0.9,0.2l-0.9,0.2
		l-0.9,0.2l-0.9,0.2l-0.9,0.2L45,33.6l-0.9,0.3l-0.9,0.3l-0.9,0.3l-0.9,0.3L40.7,35l-0.8,0.3L39,35.6L37.9,36l-2.6,0.9l-0.7,0.3
		l-0.7,0.3l-0.7,0.2l-0.7,0.2l-0.7,0.2l-0.4,0.1L31,38.3l-0.3,0.1l-0.3,0.1L30,38.6l-0.4,0.1l-0.4,0.1l-0.4,0.1L28.6,39l-0.4,0.1
		l-0.4,0.1l-0.4,0.1l-0.4,0.1l-0.4,0.1l-0.4,0.1L26,39.4l-0.4,0.1l-0.4,0l-0.4,0l-0.4,0l-0.8,0.1l-0.8,0.1l-0.8,0.1L21,39.9
		l-2.2,0.2l-1.1,0.1l-0.9,0.1l-0.9,0.1l-0.9,0.1l-0.4,0l-0.4,0.1l-0.4,0.1l-0.4,0.1l-0.4,0.1l-0.4,0.1L12,40.9l-0.4,0.1L11.2,41
		l-0.4,0.1l-0.4,0.1l-0.4,0.1l-0.4,0.1L9,41.5l-0.4,0.1l-0.4,0.1l-0.4,0.1L7.2,42l-0.4,0.1l-0.4,0.2l-0.4,0.2l-0.4,0.2l-0.4,0.2
		l-0.4,0.2l-0.4,0.2l-0.4,0.2l-0.4,0.2L2.9,44l-0.4,0.2l-0.4,0.2l-1.7,1.1l0.2,2L0.6,48l0.1,0.5l0.1,1.1l0.1,1.1L1,51.8l0.1,1.8
		l0.1,1.8l0.1,1.8l0.1,0.9l0.1,0.9l0.1,0.9L1.7,61l0.1,0.9l0.1,0.9L2,63.5L2,64.2l0.1,0.6l0.1,0.6l0.2,1.3L2.6,68l0.5,3.4l0.6,3.8
		l0.2,1.3l0.2,1.3l0.1,0.6L4.3,79l0.1,0.6l0.1,0.6l0.1,0.6l0.1,0.6l0.1,0.6L5,82.8l0.2,1.2l0.3,1.2l0.8,3.5l0.3,1.1l0.2,1.1L7,92
		l0.2,1.2L8,96.9l0.2,1.2l0.3,1.2l0.3,1.2l0.2,0.9l0.2,0.9l0.2,0.9l0.1,0.5l0.1,0.5l0.1,0.5l0.1,0.5l0.1,0.5l0.1,0.5l0.1,0.5
		l0.1,0.5l0.1,0.5l0.1,0.5l0.1,0.4l0.1,0.4l0.1,0.4l0.1,0.4l0.2,0.4l0.2,0.4l0.3,0.8l0.3,0.8l0.3,0.8l0.9,2.2l0.4,1.1l0.2,0.5
		l0.2,0.6l0.3,0.7l0.2,0.7l0.1,0.3l0.1,0.3l0.1,0.3l0.1,0.3l0.5,1.4l1.4,0.6l0.2,0.1l0.2,0.1l0.2,0.1l0.2,0.1l0.2,0.1l0.2,0.1
		l0.2,0.1l0.2,0.1l0.2,0.1l0.2,0.1l0.2,0.1l0.2,0.1l0.2,0.1l0.2,0.1l0.2,0.1l0.2,0.1l0.5,0.1l0.5,0.1l0.5,0.1l0.5,0.1l0.5,0.1l0.5,0
		l0.5,0l0.5,0l0.5,0l0.5,0l0.5,0l0.5,0l0.5,0l0.5,0l0.5,0l0.5,0l0.5-0.1l0.5-0.1l0.5-0.1l0.5-0.1l0.4-0.1l0.4-0.1l0.4-0.1l0.4-0.1
		l0.4-0.1l0.4-0.1l0.4-0.1l0.4-0.1l0.4-0.1l0.4-0.1l0.4-0.1l0.4-0.1l0.4-0.2l0.4-0.2l0.4-0.2l0.4-0.2l0.4-0.2l0.4-0.2l0.4-0.2
		l0.4-0.2l0.6-0.3l0.6-0.3l0.6-0.3l0.6-0.3l0.6-0.3l0.6-0.3l0.6-0.3l0.5-0.3l0.4,0.2l0.4,0.2l0.4,0.2l0.4,0.2l0.4,0.2l0.4,0.2
		l0.4,0.2l0.4,0.2l0.4,0.2l0.4,0.2l0.4,0.2l0.4,0.2l0.4,0.2l0.4,0.2l0.4,0.2l0.4,0.1l0.5,0.2l0.5,0.2l0.5,0.2l0.5,0.2l0.5,0.2
		l0.5,0.2l1,0.3l1.1,0.3l3.7,1.1l1.3,0.4l1.3,0.4l0.6,0.2l0.6,0.2l0.6,0.2l0.6,0.2l0.6,0.2l0.6,0.2l1.2,0.4l1.4,0.5l1.4,0.5l0.8,0.3
		l0.8,0.3l0.4,0.1l0.4,0.1l0.4,0.1L72,128l0.4,0.1l0.4,0.1l0.4,0.1l0.4,0.1l0.4,0.1l0.4,0.1l0.8,0.2l0.5,0.1l0.5,0.1l2.2,0.5
		l0.6,0.1l0.6,0.1l0.7,0.2l0.7,0.2l0.3,0.1l0.3,0.1l0.3,0.1l0.3,0.1l0.3,0.1l0.3,0.1l0.3,0.1l0.3,0.1l0.4,0.1l0.3,0.1l0.5,0.2
		l1.5,0.6l0.5,0.2l0.5,0.2l0.4,0.1l0.4,0.1l0.4,0.1l0.4,0.1l0.4,0.1l0.4,0.1l0.2,0l0.2,0l0.2,0l0.2,0l0.3,0.1l0.3,0l0.3,0l0.3,0
		l0.3,0.8l0.9,2.2l0.2,0.6l0.2,0.6l0.2,0.6l0.2,0.6l0.2,0.6l0.2,0.6l0.2,0.6l0.2,0.6l1.2,3.7l3.4-2l0.6-0.3l0.6-0.3l0.6-0.3l0.6-0.3
		l0.6-0.3l0.6-0.3l0.6-0.3l0.6-0.3l0.6-0.3l0.6-0.3l0.6-0.3l0.6-0.3l0.6-0.3l0.6-0.3l0.7-0.3l0.7-0.3l0.7-0.3l0.7-0.3l0.7-0.3
		l0.7-0.3l0.7-0.3l0.7-0.3l0.7-0.3l0.7-0.2l0.7-0.3l0.7-0.2l0.7-0.2l0.7-0.2l0.7-0.2l0.7-0.2l0.7-0.2l0.7-0.2l0.7-0.2l0.7-0.2
		l0.7-0.2l0.7-0.2l0.7-0.2l0.7-0.2l0.7-0.2l0.7-0.2l1.5-0.4l1.5-0.4l1.5-0.4l1.5-0.4l1.6-0.4l1.6-0.4l1.6-0.4l1.6-0.4l1.6-0.4
		l1.6-0.4l1.6-0.4l1.6-0.4l3.2-0.7l6.5-1.4l3.2-0.7l1.6-0.4l1.6-0.4l1.6-0.4l1.6-0.4l1.6-0.4l1.6-0.4l1.6-0.4l1.6-0.4l1.3-0.3
		l1.3-0.3l1.3-0.3l1.3-0.3l1.3-0.4l1.3-0.4l1.3-0.4l1.3-0.4l1.3-0.4l1.2-0.4l1.2-0.4l1.2-0.4l0.6-0.2l0.6-0.2l0.6-0.2l0.6-0.2
		l0.6-0.2l0.6-0.2l0.6-0.2l0.6-0.2l1.6,16.1l0,0.4l0,0.4l0,0.4l0,0.4l0.1,0.4l0.1,0.4l0.1,0.4l0.1,0.4l0.1,0.3l0.1,0.3l0.1,0.3
		l0.1,0.3l0.1,0.3l0.1,0.3l0.1,0.3l0.1,0.3l0.1,0.3l0.1,0.3l0.1,0.3l0.1,0.3l0.1,0.3l0.1,0.3l0.1,0.3l0.1,0.3l0.1,0.3l0.1,0.3
		l0.1,0.3l0.1,0.3l0.1,0.3l0.1,0.3l0.2,0.3l0.2,0.3l0.2,0.2l0.2,0.2l0.2,0.2l0.2,0.2l0.2,0.2l0.2,0.2l0.2,0.2l0.2,0.2l0.2,0.2
		l0.2,0.2l0.2,0.2l0.2,0.2l0.2,0.2l0.2,0.2l0.2,0.2l0.2,0.2l0.2,0.2l0.2,0.2l0.2,0.2l0.2,0.2l0.2,0.2l0.2,0.2l0.2,0.2l0.2,0.2
		l0.2,0.2l0.2,0.2l0.2,0.2l0.2,0.2l0.2,0.1l0.2,0.1l0.2,0.1l0.2,0.1l0.2,0.1l0.2,0.1l0.2,0.1l0.2,0.1l0.2,0.1l0.2,0.1l0.2,0.1
		l0.2,0.1l0.2,0.1l0.2,0.1l0.2,0.1l0.2,0.1l0.2,0.1l0.2,0.1l0.2,0.1l0.2,0.1l0.2,0.1l0.2,0.1l0.2,0.1l0.2,0.1l0.2,0.1l0.2,0.1
		l0.2,0.1l0.2,0.1l0.2,0.1l0.2,0.1l0.2,0l0.2,0l0.2,0l0.2,0l0.2,0l0.2,0l0.3,0l0.3,0l0.3,0l0.3,0l0.3,0l0.3,0l0.3,0l0.3,0l0.3,0
		l0.3,0l0.3,0l0.3,0l0.3,0l0.3,0l0.3,0l0.3,0l0.5,0l0.5,0l0.5,0l0.5,0l0.5,0l0.5-0.1l0.5-0.1l0.5-0.1l0.4-0.1l0.4-0.1l0.4-0.1
		l0.4-0.1l0.4-0.1l0.4-0.1l0.4-0.1l0.4-0.1l13.6-4l13.6-4l0.1,0.6l0.1,0.6l0.1,0.6l0.2,0.6l0.2,0.6l0.2,0.6l0.2,0.6l0.2,0.6l0.2,0.6
		l0.2,0.6l0.2,0.6l0.2,0.6l0.2,0.5l0.2,0.5l0.2,0.5l0.2,0.5l0.2,0.5l0.2,0.5l0.2,0.5l0.2,0.5l0.2,0.5l0.2,0.5l0.2,0.5l0.2,0.5
		l0.3,0.6l0.3,0.6l0.1,0.3l0.2,0.3l0.2,0.3l0.2,0.3l0.2,0.4l0.2,0.4l0.3,0.4l0.3,0.4l0.3,0.4l0.3,0.4l0.1,0.2l0.1,0.2l0.1,0.2
		l0.1,0.2l0.2,0.3l0.3,0.3l0.1,0.1l0.1,0.1l0.1,0.1l0.1,0.1l0.2,0.2l0.2,0.2l0.2,0.2l0.2,0.2l0.2,0.2l0.2,0.2l0.2,0.2l0.2,0.1
		l0.2,0.1l0.2,0.1l0.2,0.1l0.2,0.1l0.2,0.1l0.2,0.1l0.2,0.1l0.2,0.1l0.2,0.1l0.2,0.1l0.2,0.1l0.2,0.1l0.2,0.1l0.2,0.1l0.2,0l0.2,0
		l0.4,0.1l0.4,0.1l0.4,0l0.4,0l0.4,0l0.4,0l0.6,0.1l0.6,0.1l0.3,0l0.3,0l0.3,0l0.3,0l0.6,0.1l0.6-0.1l0.5-0.1l0.4-0.1l0.4-0.1
		l0.4-0.1l0.4-0.2l0.2-0.1l0.2-0.1l0.2-0.1l0.2-0.1l0.2-0.1l0.2-0.1l0.4-0.2l0.4-0.2l0.4-0.2l0.4-0.2l0.4-0.2l0.4-0.2l0.4-0.2
		l0.4-0.2l0.3-0.2l0.3-0.2l0.3-0.3l0.3-0.3l0.3-0.3l0.3-0.3l0.3-0.3l0.3-0.3l0.3-0.3l0.3-0.3l0.3-0.3l0.3-0.3l0.3-0.3l0.3-0.3
		l0.3-0.3l0.3-0.3l0.2-0.3l0.2-0.3l0.2-0.3l0.2-0.3l0.2-0.3l0.2-0.3l0.2-0.4l0.2-0.4l0.2-0.3l0.2-0.3l0.1-0.3l0.1-0.3l0.1-0.3
		l0.1-0.3l0.1-0.3l0.1-0.3l0.1-0.3l0.1-0.3l0.1-0.3l0.1-0.3l0.1-0.3l0.1-0.3l0.1-0.3l0.1-0.3l0.1-0.4l0.1-0.4l0.1-0.4l0.1-0.4
		l0.1-0.4l0.1-0.4l0.1-0.4l0.1-0.4l0.1-0.4l0.1-0.4l0.1-0.4l0.1-0.4l0.1-0.4l0.1-0.4l0.1-0.4l0.1-0.4l0.2-0.8l0.1-0.8l0.1-0.8
		l0.1-0.8l0.1-0.8l0.1-0.8l0.1-0.8l0.1-0.8l0.1-0.8l0.1-0.8l0.1-0.9l0.1-0.9l0.1-0.9l0.1-0.9l0.1-0.9l0-0.4l0-0.4l0-0.4l0-0.4l0-0.4
		l0-0.4l0-0.4l0-0.4l0-0.4l0-0.4l0-0.4l0-0.4l0-0.4l0-0.4l0-0.4l0-0.4l0-0.4l0-0.4l0-0.4l0-0.4l0-0.4l0-0.4L287,121l-0.1-0.4
		l-0.1-0.4l-0.1-0.4l-0.1-0.5l-0.1-0.5l-0.1-0.5l-0.1-0.5l-0.1-0.5l-0.1-0.5l-0.1-0.5l-0.1-0.5l-0.1-0.5l-0.1-0.5l-0.1-0.5l-0.1-0.5
		l-0.1-0.5l-0.2-0.5l-0.2-0.5L285,112l-0.2-0.5l-0.2-0.5l-0.2-0.5l-0.2-0.5l-0.2-0.5l-0.2-0.5l-0.2-0.5l-0.2-0.5l-0.2-0.6L283,107
		l-0.3-0.5l-0.3-0.5l-0.3-0.5l-0.1-0.3l-0.1-0.3l-0.1-0.3l-0.2-0.3l-0.2-0.3l-0.2-0.3l-0.3-0.4l-0.3-0.4l-0.3-0.4l-0.3-0.4l-0.3-0.4
		l-0.3-0.4l-0.3-0.4l-0.3-0.4l-0.3-0.3l-0.3-0.3l-0.2-0.2l-0.2-0.2l-0.2-0.2l-0.2-0.2l-0.2-0.2l-0.2-0.2l-0.2-0.2l-0.2-0.2l-0.2-0.1
		l-0.2-0.1l-0.2-0.1l-0.2-0.1l-0.2-0.1l-0.2-0.1l-0.2-0.1l-0.2-0.1l-0.2-0.1l-0.2-0.1l-0.2-0.1l-0.2-0.1l-0.2-0.1l-0.2-0.1l-0.2-0.1
		l-0.2-0.1l-0.2-0.1l-0.2-0.1l-0.2-0.1l-0.2-0.1l-0.2-0.1l-0.2-0.1l-0.2-0.1l-0.2-0.1l-0.2-0.1l-0.2-0.1l-0.2-0.1l-0.2-0.1l-0.2-0.1
		l-0.2-0.1l-0.2-0.1l-0.2,0l-0.4-0.1l-0.4-0.1l-0.4-0.1l-0.4-0.1l-0.4-0.1l-0.4,0l-0.4,0l-0.4,0l-0.4,0l-0.4,0l-0.3,0l-0.3,0l-0.3,0
		l-0.3,0l-0.3,0l-0.3,0l-0.3,0l-0.3,0l-0.4,0l-0.4,0l-0.8,0.1l-1.5,0.1l-0.7,0.1l-0.7,0.1l-0.4,0l-0.4,0l-0.4,0.1l-0.2,0l-0.2,0
		l-0.2,0l-0.2,0l-0.2,0.1l-0.2,0.1l-0.2,0.1l-0.2,0.1l-0.2,0.1l-0.2,0.1l-0.2,0.1l-0.2,0.1l-0.2,0.1l-0.2,0.1l-0.2,0.1l-0.2,0.1
		l-0.2,0.1l-0.2,0.1l-0.2,0.1l-0.2,0.1l-0.1,0.1l-0.1,0.1l-0.1,0.1l-0.1,0.1l-0.1,0.1l-0.1,0.1l-0.2,0.2l-0.2,0.2l-0.2,0.2l-0.2,0.2
		l-0.2,0.2l-0.2,0.2l-0.2,0.2l-0.2,0.3l-0.2,0.3l-0.2,0.3l-0.2,0.3l-0.1,0.3l-0.1,0.3l-0.1,0.3l-0.1,0.3l-0.1,0.3l-0.1,0.4l-0.1,0.4
		l-0.1,0.4l-0.1,0.4l-0.1,0.4l-0.1,0.4l-0.1,0.4l-0.1,0.4l-0.1,0.4l-0.1,0.4l-0.1,0.4l-0.1,0.4l-0.1,0.4l-0.1,0.4l-0.1,0.4l-0.1,0.4
		l-0.1,0.9l-0.1,0.9l-0.1,1l-0.1,1l-0.1,1l-0.1,1l-0.2,1.3l-0.2,1.3l-0.2,1.3l-0.1,1.3l-0.1,1.3L248.1,121.9z M250.2,134.6
		l-15.3,4.5l-15.3,4.5l-0.3,0.1l-0.3,0.1l-0.3,0.1l-0.3,0.1l-0.3,0.1l-0.3,0.1l-0.3,0.1l-0.3,0.1l-0.4,0.1l-0.4,0l-0.4,0l-0.4,0
		l-0.4,0l-0.4,0l-0.4,0l-0.4,0l-0.4,0l-0.4,0l-0.4,0l-0.4,0l-0.4,0l-0.4,0l-0.4,0l-0.4-0.1l-0.4-0.1l-0.4-0.1l-0.4-0.1l-0.4-0.1
		l-0.3-0.1l-0.3-0.1l-0.3-0.1l-0.3-0.1l-0.3-0.1l-0.3-0.1l-0.3-0.1l-0.3-0.1l-0.3-0.1l-0.3-0.2l-0.3-0.2l-0.3-0.2l-0.3-0.2l-0.3-0.2
		l-0.3-0.2l-0.1-0.1l-0.1-0.1l-0.1-0.1l-0.1-0.1l-0.1-0.1l-0.1-0.1l-0.1-0.1l-0.1-0.1l-0.1-0.1l-0.1-0.1l-0.1-0.1l-0.1-0.1l-0.1-0.1
		l-0.1-0.1l-0.1-0.1l-0.1-0.1l-0.1-0.1l-0.1-0.1l-0.1-0.2l-0.1-0.2l-0.1-0.2l-0.1-0.2l-0.1-0.2l-0.1-0.2l-0.1-0.2l-0.1-0.2l-0.1-0.2
		l-0.1-0.2L201,138l-0.1-0.2l-0.1-0.2l-0.1-0.2l-0.1-0.2l-0.1-0.2l-0.1-0.2l-0.1-0.2l-0.1-0.2l-0.1-0.2l-0.1-0.2l-0.1-0.2l-0.1-0.2
		l-0.1-0.2l-0.1-0.2l-0.1-0.2l-0.1-0.2l-0.1-0.2l-0.1-0.2l-0.1-0.2l-0.1-0.2l-0.1-0.2l-0.1-0.3l0-0.3l0-0.3l0-0.3l0-0.3l0-0.3l0-0.3
		l0-0.3l-1.7-17.9l0.6-0.3l0.6-0.3l0.6-0.3l0.6-0.3l0.6-0.3l0.6-0.3l0.6-0.3l0.6-0.3l1.9,19.9l0,0.2l0,0.2l0.1,0.2l0.1,0.2l0.1,0.2
		l0.1,0.2l0.1,0.2l0.1,0.2l0.1,0.2l0.1,0.1l0.1,0.1l0.1,0.1l0.1,0.1l0.1,0.1l0.1,0.1l0.1,0.1l0.1,0.1l0.1,0.1l0.1,0.1l0.1,0.1
		l0.1,0.1l0.1,0.1l0.1,0.1l0.1,0.1l0.1,0.1l0.1,0.1l0.1,0.1l0.1,0.1l0.1,0.1l0.1,0.1l0.1,0.1l0.1,0.1l0.1,0.1l0.1,0.1l0.1,0.1
		l0.1,0.1l0.1,0.1l0.1,0.1l0.1,0.1l0.1,0.1l0.1,0.1l0.1,0.1l0.1,0.1l0.1,0.1l0.1,0.1l0.1,0.1l0.1,0.1l0.3,0.1l0.3,0.1l0.3,0.1
		l0.3,0.1l0.3,0.1l0.3,0.1l0.3,0.1l0.3,0.1l0.3,0.1l0.3,0l0.3,0l0.3,0l0.3,0l0.3,0l0.3,0l0.4,0l0.4,0l0.4,0l0.4,0l0.4,0l0.4,0l0.4,0
		l0.4,0l0.4,0l0.4,0l0.6-0.1l0.6-0.1l0.6-0.1l0.6-0.1l0.5-0.1l0.5-0.1l0.5-0.1l0.5-0.1l0.5-0.1l0.5-0.1l0.5-0.1l0.5-0.1l0.6-0.2
		l0.6-0.2l0.6-0.2l0.6-0.2l0.6-0.2l0.6-0.2l0.6-0.2l0.6-0.2l11.7-3.5l11.8-3.5l2.1-0.6l7.4-2.2l0.1,0l0.1,0l0.1,0l0.1,0l0.1,0l0.1,0
		l0.1,0l0.1,0l0.1,0l0,0l0,0l0,0l0,0l0,0l0,0l0,0l0,0l0,0l0,0l0,0l0,0l0,0l0,0l0,0l0,0l0,0l0,0l0,0l0,0l0,0l0,0l0,0l0,0l0,0l0,0l0,0
		l0,0l0,0l0,0l0,0l0,0l0,0l0,0l0,0l0,0l0,0l0,0l0,0l0,0l0,0l0,0l0,0l0,0.1l0,0.1l0,0.1l0,0.1l0,0.1l0,0.1l0,0.1l0,0.1l0,0.1l0,0.1
		l0,0.1l0,0.1l0,0.3l0,0.3l0,0.3l0,0.3l0,0.3l-0.1,0.3l-0.1,0.3l0,0.1l0,0.1l0,0.1l0,0.1l0,0.1l0,0.1l0,0.1l0,0.1l0,0.1l0,0.1
		l-0.1,0.1l-0.1,0.1l-0.1,0.1l-0.1,0.1l-0.1,0.1l-0.1,0.1l-0.1,0.1l-0.1,0.1l-0.1,0.1l-0.1,0.1l-0.1,0.1l-0.1,0.1l-0.1,0.1l-0.1,0.1
		l-0.1,0.1l-0.1,0.1l-0.1,0.1l-0.1,0.1l-0.1,0.1l-0.1,0.1l-0.1,0l-0.1,0l-0.1,0l-0.1,0l-0.1,0.1l-0.1,0.1l-0.1,0l-0.1,0l-0.1,0
		l-0.1,0L250.2,134.6z M239.5,45.3l-0.2,0.2l-0.2,0.2l-0.2,0.2l-0.2,0.2l-0.2,0.2l-0.2,0.2l-0.2,0.2L238,47l-0.2,0.2l-0.2,0.2
		l-0.2,0.2l-0.2,0.2l-0.2,0.2l-0.2,0.2l-0.2,0.2l-0.2,0.2l-0.2,0.2l-0.2,0.2l-0.2,0.2L236,50l-0.1,0.3l-0.1,0.3l-0.3,0.5l-0.3,0.5
		l-0.3,0.5l-0.3,0.5l-0.2,0.5l-0.2,0.5l-0.2,0.5l-0.2,0.5l-0.2,0.5l-0.2,0.5l-0.2,0.5l-0.2,0.5l-0.2,0.5l-0.3,0.8l-0.3,0.8l-0.3,0.8
		l-0.3,0.8l-0.3,0.9l-0.3,0.9l-1,3l-0.4,1.3l-0.3,0.9l-0.3,0.9l-0.3,0.9l-0.3,0.9l-0.3,0.8l-0.3,0.8l-0.3,0.8l-0.3,0.8l-0.3,0.8
		l-0.3,0.8l-0.3,0.8l-0.3,0.8l-0.3,0.8l-0.3,0.8l-0.3,0.8l-0.3,0.8l-0.3,0.6l-0.3,0.6l-0.3,0.6l-0.3,0.6l-0.4,0.7l-0.4,0.7l-0.4,0.7
		l-0.4,0.7l-0.4,0.6l-0.4,0.6l-0.4,0.6l-0.2,0.3l-0.2,0.3l-0.2,0.3L220,88l-0.2,0.3l-0.2,0.3l-0.2,0.3l-0.2,0.3l-0.2,0.3l-0.2,0.3
		l-0.4,0.5l-0.4,0.5l-0.4,0.5l-0.2,0.3l-0.2,0.3l-0.2,0.3l-0.2,0.3l-0.2,0.3l-0.2,0.3l-0.2,0.3l-0.2,0.3l-0.2,0.2l-0.2,0.2l-0.3,0.3
		l-0.3,0.3l-0.3,0.3l-0.3,0.3l-0.3,0.3l-0.3,0.3l-0.3,0.3l-0.3,0.3l-0.3,0.3l-0.4,0.3l-0.4,0.3l-0.4,0.3l-0.4,0.3l-0.4,0.3l-0.4,0.3
		l-0.4,0.3l-0.4,0.3l-0.4,0.3l-0.4,0.3l-0.4,0.3l-0.4,0.3l-0.4,0.3l-0.4,0.3l-0.4,0.3l-0.4,0.3l-0.4,0.3l-0.4,0.3l-0.4,0.3l-0.4,0.3
		l-0.4,0.3l-0.4,0.3l-0.4,0.2l-0.6,0.3l-0.6,0.3l-0.6,0.3l-0.6,0.3l-0.6,0.3l-0.6,0.3l-0.6,0.3l-0.7,0.3l-0.7,0.3l-0.7,0.3l-0.7,0.3
		l-0.7,0.3l-0.7,0.3l-0.7,0.3l-0.7,0.3l-0.7,0.3l-0.7,0.3l-0.7,0.3l-0.7,0.3l-0.7,0.3l-0.7,0.3l-0.7,0.3l-0.7,0.2l-0.7,0.2l-0.7,0.2
		l-0.7,0.2l-0.7,0.2l-0.7,0.2l-0.7,0.2l-0.7,0.2l-0.7,0.2l-0.7,0.2l-0.8,0.2l-0.8,0.2l-0.8,0.2l-0.8,0.2l-0.8,0.2l-0.8,0.2l-0.8,0.2
		l-0.8,0.2l-1.5,0.4l-1.5,0.4l-1.5,0.4l-1.5,0.4l-1.6,0.4l-1.6,0.4l-1.6,0.4l-1.6,0.4l-1.6,0.4l-1.6,0.4l-1.6,0.4l-1.6,0.4l-3.2,0.7
		l-6.5,1.4l-3.2,0.7l-1.6,0.4l-1.6,0.4l-1.6,0.4l-1.6,0.4l-1.6,0.4l-1.6,0.4l-1.6,0.4l-1.6,0.4l-1.6,0.4l-1.6,0.4l-1.6,0.4l-0.8,0.2
		l-0.8,0.2l-0.8,0.2l-0.8,0.2l-0.8,0.2l-0.8,0.2l-0.8,0.2l-0.8,0.2l-0.8,0.2l-0.8,0.2l-1.3,0.4l-1.2,0.4l-0.6,0.2l-0.6,0.2l-0.6,0.2
		l-0.6,0.2l-0.6,0.2l-0.6,0.2l-0.6,0.2l-0.6,0.2l-0.6,0.2l-0.6,0.2l-0.6,0.2l-0.6,0.2l-0.6,0.2l-0.6,0.2l-0.6,0.2l-0.6,0.2l-0.6,0.2
		l-0.6,0.2l-0.6,0.3l-0.6,0.3l-0.6,0.3l-0.6,0.3l-0.6,0.3l-0.6,0.3l-0.6,0.3l-0.6,0.3l-0.6,0.3l-0.6,0.3l-0.3-0.8l-0.3-0.8l-1-2.5
		l-0.2-0.6l-0.2-0.6l-0.2-0.6l-0.2-0.6l-0.1-0.4l-0.1-0.4l-0.1-0.4l-0.1-0.4l-0.1-0.3l-0.1-0.3l-0.2-0.6l-0.2-0.6l-0.2-0.6l-0.2-0.7
		l-0.2-0.7l-0.2-0.7l-0.2-0.7l-0.2-0.9l-0.2-0.9l-0.2-0.9l-0.2-0.9l-0.2-1l-0.2-1l-0.6-3.2l-0.2-1.1l-0.2-1.1l-0.2-1.1l-0.2-1
		l-0.2-1l-0.7-3l-0.2-1l-0.2-1l-0.2-1l-0.2-1l-0.1-0.5l-0.1-0.5L90,99.7l-0.1-0.5l-0.2-1.1L89.5,97l-0.2-1.1l-0.2-1.1l-0.5-3.3
		l-0.3-1.9l-0.4-2.4l-0.2-1.2L87.7,85l-0.1-0.8l-0.1-0.8l-0.1-0.8l-0.1-0.8l-0.1-1l-0.1-1l-0.1-1l-0.1-1l-0.1-1.6l-0.1-1.6L86.7,73
		l-0.1-0.8l-0.1-0.8l-0.1-0.9l-0.1-1.1l2.6-0.7l2.6-0.7l2.6-0.7l2.6-0.7l2.6-0.7l2.6-0.6l10.3-2.6l2.6-0.6l2.6-0.6l2-0.5l2-0.5
		l2.3-0.6l2.3-0.6l2.3-0.6l2.3-0.6l2.3-0.6l2.3-0.6l2.3-0.6l2.3-0.6l2.3-0.6l2.3-0.6l2.3-0.6l2.3-0.6l2.3-0.7l2.3-0.7l2.3-0.7
		l2.3-0.7l2.3-0.7l2.3-0.7l4.6-1.3l4.6-1.4l4.6-1.4l4.6-1.4l4.6-1.4l4.6-1.4l4.6-1.4l18.5-5.5l4.6-1.4l4.6-1.4l3.9-1.1l3.9-1.1
		l3.9-1.1l3.9-1.1l7.9-2.3l1.5,15.6l-0.2,0.1l-0.2,0.1l-0.2,0.1l-0.2,0.1l-0.2,0.1l-0.2,0.1l-0.2,0.1l-0.2,0.1l-0.2,0.1l-0.2,0.1
		l-0.2,0.1l-0.2,0.1l-0.2,0.1l-0.2,0.1l-0.2,0.1l-0.2,0.1l-0.4,0.2l-0.4,0.2l-0.4,0.2l-0.4,0.2l-0.3,0.2l-0.3,0.2l-0.3,0.2l-0.3,0.2
		l-0.3,0.2l-0.3,0.3l-0.3,0.3l-0.3,0.3l-0.3,0.3l-0.3,0.3l-0.3,0.3L239.5,45.3z M40,107.1l0.3,0.3l0.3,0.3l0.3,0.3l0.3,0.3l0.3,0.3
		l0.3,0.3l0.3,0.3l0.3,0.3l0.3,0.3l0.3,0.3l0.3,0.3l0.3,0.3l0.3,0.2l0.3,0.2l0.3,0.2l0.3,0.2l0.4,0.3l0.4,0.2l0.4,0.2l0.4,0.2
		l0.4,0.2l0.4,0.2l0.4,0.2l0.4,0.2l0.4,0.2l0.4,0.2l0.4,0.2l0.4,0.2l0.4,0.2l0.4,0.2l0.4,0.2l0.4,0.2l0.4,0.2l0.5,0.2l0.5,0.2
		l0.5,0.2l0.5,0.2l0.9,0.3l0.9,0.3l1,0.3l3.6,1.1l1.3,0.4l1.3,0.4l0.7,0.2l0.7,0.2l0.7,0.2l0.7,0.2l0.7,0.2l0.7,0.2l0.7,0.2l0.7,0.2
		l1.4,0.5l1.4,0.5l0.8,0.3l0.8,0.3l0.8,0.2l0.4,0.1l0.4,0.1l0.7,0.2l0.3,0.1l0.3,0.1l0.3,0.1l0.3,0.1l0.7,0.2l0.5,0.1l0.5,0.1
		l2.3,0.5l0.6,0.1l0.6,0.1l0.8,0.2l0.4,0.1l0.4,0.1l0.4,0.1l0.4,0.1l0.4,0.1l0.4,0.1l0.5,0.2l0.5,0.2l0.5,0.2l0.5,0.2l0.5,0.2
		l1.5,0.6l0.4,0.2l0.4,0.2l0.3,0.1l0.3,0.1l0.3,0.1l0.3,0.1l0.3,0.1l0.3,0.1l0.3,0.1l0.3,0.1l0.3,0l0.3,0l0.1,0l0.1,0l0.1,0l0.1,0
		l0.1,0l0.1,0l-0.1-0.4l-0.1-0.4l-0.1-0.4l-0.1-0.4l-0.2-0.7l-0.2-0.7l-0.2-0.8l-0.2-0.8l-0.2-0.8l-0.2-0.8L91,120l-0.2-1.1
		l-0.2-1.1l-0.2-1.1l-0.6-0.2l-0.6-0.2l-0.6-0.2l-0.6-0.2l-0.6-0.2l-0.6-0.2l-0.6-0.2l-0.6-0.2l-0.6-0.2l-0.5-0.1l-0.5-0.1l-0.5-0.1
		l-0.5-0.1l-0.8-0.2l-2.5-0.5l-0.8-0.2l-0.4-0.1l-0.4-0.1l-0.4-0.1l-0.4-0.1l-0.4-0.1l-0.4-0.1l-0.4-0.1l-0.4-0.1l-0.7-0.2l-0.7-0.3
		l-0.8-0.3l-2.5-0.9l-0.9-0.3l-0.9-0.3l-0.9-0.3l-0.9-0.3l-0.9-0.3l-0.9-0.3l-0.9-0.3l-0.9-0.3l-1.6-0.5l-1.6-0.5l-1.7-0.5l-0.9-0.3
		l-0.9-0.3l-0.8-0.3l-0.4-0.1l-0.4-0.1l-0.4-0.1l-0.4-0.1l-0.4-0.1l-0.4-0.1l-0.3-0.1l-0.3-0.1l-0.3-0.1l-0.3-0.1l-0.4-0.2l-0.2-0.1
		l-0.2-0.1l-0.2-0.1l-0.2-0.1l-0.2-0.1l-0.2-0.1l-0.2-0.1l-0.2-0.1l-0.2-0.1l-0.2-0.1l-0.2-0.1l-0.2-0.1l-0.2-0.1l-0.1-0.1l-0.1-0.1
		l-0.1-0.1l-0.1-0.1l-0.1-0.1l-0.2-0.9l-0.2-0.9l-0.2-0.9l-0.2-0.9l-0.6-2.9l-0.2-1L47,94.3l-0.1-0.6l-0.1-0.6l-0.1-0.6l-0.1-0.6
		l-0.1-0.6l-0.1-0.6l-0.1-0.4l-0.1-0.4l-0.1-0.4l0-0.4l-0.1-0.4l0-0.4L46,87.7l0-0.6l0-0.6l0-0.6l0-0.6l0-0.6l-0.1-2.8l0-0.8l0-0.8
		l0-0.5l0-0.5l0-0.5l0-0.5l-0.1-0.5l-0.1-0.5l-0.1-0.5L45.2,76l-0.1-0.7L45,74.7L44.9,74l-0.1-0.7l-0.1-0.7L44.5,72l-0.1-0.7
		l-0.1-0.7l-0.2-1l-0.2-1l-0.2-1l-0.2-1l-0.5-2.3l-0.3-1.2l-0.3-1.2l-0.2-0.9l-0.2-0.9l-0.2-0.9l-0.2-0.9l-0.6-0.2L40.3,58l-0.6-0.2
		L39,57.5L37.7,57l-2.5-1l-0.6-0.3l-0.6-0.2l-0.6-0.2L32.6,55L32,54.8l-0.6-0.2l0.1,0.9l0.1,0.9l0.1,0.9l0.1,0.9l0.1,0.6l0.1,0.6
		l0.1,0.6l0.1,0.6l0.1,0.6l0.1,0.6l0.1,0.6l0.1,0.6l0.1,0.6l0.1,0.6l0.1,0.6l0.1,0.6l0.2,1l0.7,3l0.2,1l0.2,1l0.1,0.5l0.1,0.5
		l0.1,0.5l0.1,0.5l0.1,0.5l0.1,0.5l0.1,0.5l0.1,0.5l0.1,0.6l0.1,0.6l0.1,0.6l0.1,0.6l0.1,0.6l0.1,0.6l0.1,0.6l0,0.6l0.1,1l0.1,1
		l0.1,2.8l0,0.8l0,0.8l0.1,0.8l0,0.6l0.1,0.6l0.1,0.7l0.1,0.7l0.1,0.4l0.1,0.4l0.1,0.4l0.1,0.4l0.1,0.4l0.1,0.4l0.1,0.8l0.2,0.8
		l0.2,0.8l0.2,0.8l0.2,0.8l0.2,0.8l0.9,4.1l0.2,0.8l0.2,0.8l0.2,0.8l0.2,0.8l0.2,0.8L40,107.1z M40.7,112.4l-0.2-0.2l-0.2-0.2
		l-0.2-0.2l-0.2-0.2l-0.2-0.2l-0.2-0.2l-0.2-0.2l-0.2-0.3l-0.2-0.3l-0.2-0.3l-0.2-0.3l-0.2-0.3l-0.2-0.3l-0.2-0.3l-0.2-0.3l-0.2-0.3
		l-0.1-0.6l-0.1-0.6l-0.1-0.6l-0.1-0.6l-0.1-0.6l-0.1-0.6l-0.2-1.1l-0.2-1.1l-0.8-3.4l-0.2-1.1L34.7,97l-0.1-0.6l-0.1-0.6l-0.1-0.6
		l-0.1-0.6l-0.1-0.6L34,93.5L33.9,93l-0.1-0.6l-0.1-0.6l-0.1-0.6l-0.1-0.6l-0.1-0.6l0-0.4l0-0.4l0-0.4l0-0.4l-0.1-0.8l-0.1-0.8
		l0-0.8l0-0.8L33,82.8l0-0.8l0-0.8l-0.1-0.8l-0.1-0.8l0-0.4l0-0.4l0-0.4l0-0.4l0-0.4l-0.1-0.4l-0.1-0.7l-0.1-0.7l-0.1-0.7l-0.1-0.7
		L32,73.9l-0.1-0.7l-0.1-0.7l-0.1-0.7l-0.1-0.7l-0.2-0.7L31,69.3L30.7,68l-0.3-1.3l-0.2-0.8L30,65.1l-0.2-0.8l-0.2-0.8l-0.2-0.8
		l-0.2-0.8L29.2,61L29,60.2l-0.1-0.8l-0.1-0.8l-0.1-0.8l-0.1-0.8L28.4,56l-0.1-0.8l-0.1-0.8l-0.1-0.8l-0.4-0.1l-0.4-0.1l-0.5-0.1
		l-0.5-0.1L26,53.1L25.5,53l-0.5-0.1l-0.5-0.1l-0.5-0.1l-0.5-0.1l-0.9-0.1l-0.9-0.1L20,52.1L19.1,52l-0.9-0.1l-0.5-0.1l-0.5-0.1
		l-0.5-0.1l-0.5-0.1l-0.5-0.1l-0.5-0.1l-0.5-0.1l-0.5-0.1L14,51.1L13.6,51l-0.4-0.1l-0.4-0.1l-0.3-0.1L12,50.5l-0.3-0.1l-0.3-0.1
		L11,50.2L10.7,50l-0.3-0.1L10,49.8l-0.6-0.3l-0.6-0.3L8.1,49l-0.6-0.3l-0.4,0.2l0.1,0.6l0.1,0.6l0.1,1.3l0.1,1.3l0.2,2.7l0.1,1.4
		l0.1,0.7l0.1,0.7L7.8,59l0.1,0.7L8,60.6l0.1,0.9l0.1,0.9l0.1,0.9l0.1,0.7l0.1,0.7l0.1,0.7l0.1,0.7L9.2,69l0.8,5l0.2,1.2l0.2,1.2
		l0.2,1.2l0.1,0.6l0.1,0.6l0.1,0.6l0.1,0.6l0.1,0.6l0.1,0.6l0.2,1.1l0.2,1.1l0.2,1.1l0.7,3.3l0.2,1.1l0.2,1.1l0.2,1.2l0.2,1.2
		l0.7,3.5l0.2,1.2l0.2,1l0.2,1l0.2,1l0.2,1l0.2,0.8l0.2,0.8l0.1,0.4l0.1,0.4l0.1,0.4l0.1,0.4l0.1,0.4l0.1,0.4l0.1,0.4l0.1,0.4
		l0.1,0.3l0.1,0.3l0.1,0.3l0.1,0.3l0.2,0.7l0.3,0.7l0.3,0.7l0.3,0.7l0.5,1.2l1,2.3l0.2,0.6l0.2,0.6l0.2,0.6l0.2,0.6l0.2,0.6l0.2,0.6
		l0.3,0.1l0.3,0.1l0.3,0.1l0.3,0.1l0.3,0.1l0.3,0.1l0.3,0.1l0.3,0l0.3,0l0.3,0l0.3,0l0.3,0l0.3,0l0.3,0l0.3,0l0.3,0l0.3,0l0.3,0
		l0.3,0l0.3,0l0.3,0l0.3,0l0.3,0l0.3,0l0.4,0l0.4,0L29,117l0.3-0.1l0.3-0.1l0.3-0.1l0.3-0.1l0.3-0.1l0.4-0.1l0.4-0.1l0.4-0.1
		l0.4-0.1l0.3-0.1l0.3-0.1l0.3-0.1l0.3-0.1l0.4-0.1l0.4-0.1l0.4-0.1l0.3-0.1l0.3-0.1l0.3-0.1l0.3-0.2l0.3-0.2l0.4-0.2l0.3-0.2
		l0.3-0.2l0.3-0.2l0.3-0.2l0.3-0.2l0.3-0.2l0.3-0.2l0.4-0.2l0.4-0.2l0.4-0.2L40.7,112.4z M89.6,113l-0.2-0.9l-0.2-0.9l-0.3-1.2
		l-0.3-1.2l-0.5-2.4l-0.3-1.2l-0.3-1.2l-0.1-0.6l-0.1-0.6l-0.1-0.6l-0.1-0.6l-0.1-0.6l-0.1-0.6l-0.1-0.6L86.7,99l-0.1-0.6l-0.1-0.6
		l-0.2-1.3l-0.8-5.2l-0.3-2l-0.3-2l-0.1-1l-0.1-1l-0.1-1l-0.1-0.5l-0.1-0.5l-0.1-0.9l-0.1-0.9L84,80.5L84,79.5l-0.1-0.9l-0.1-0.9
		l-0.3-3.8L83.5,73L83.4,72l-0.1-0.9l-0.1-0.9l-0.1-0.9l-0.1-0.9l-0.7-0.1L81.7,68l-1.4-0.3L79,67.5l-4.1-0.8l-1.4-0.3l-1.4-0.3
		L71.3,66l-0.9-0.2l-0.9-0.2l-0.9-0.2l-0.9-0.2L66.7,65l-1.9-0.4l-1.9-0.4l-5.6-1.3l-3.1-0.7l-1.6-0.4l-0.8-0.2l-0.8-0.2l-0.8-0.2
		l-0.8-0.2l-0.8-0.2l-0.8-0.2l-0.8-0.2l-0.8-0.2l-0.8-0.2L45,59.7l0.1,0.7l0.1,0.7l0.2,1l0.2,1l0.2,1l0.7,2.7l0.2,0.9l0.2,0.9
		l0.2,0.7l0.2,0.7l0.1,0.7l0.1,0.7l0.1,0.6l0.1,0.6l0.1,0.6l0.1,0.6l0.1,0.6l0.1,0.6l0.1,0.6l0.1,0.6l0.1,0.6l0.1,0.6l0.1,0.6
		l0.1,0.6l0,0.6l0,0.6l0,0.6l0,0.6l0.1,1.5l0.1,2.2l0,0.8l0,0.8l0.1,0.8l0.1,0.7l0,0.3l0,0.3l0,0.3l0,0.3l0.1,0.6l0.1,0.5l0.1,0.5
		l0.1,0.5l0.1,0.5l0.1,0.5l0.1,0.5l0.2,1l0.2,0.9l0.2,0.9l0.8,3.6l0.2,0.9l0.2,0.9l0.2,0.2l0.2,0.1l0.2,0.1l0.2,0.1l0.2,0.1l0.2,0.1
		l0.2,0.1l0.2,0.1l0.3,0.1l0.3,0.1l0.3,0.1l0.3,0.1l0.4,0.2l0.4,0.2l0.4,0.2l0.4,0.1l0.7,0.2l0.7,0.2l0.6,0.2l0.6,0.2l1.1,0.3
		l4.3,1.2l1.1,0.3l1.1,0.3l1.1,0.4l0.6,0.2l0.6,0.2l0.6,0.2l0.6,0.2l0.6,0.2l0.6,0.2l1.1,0.4l2.1,0.8l1,0.4l0.7,0.2l0.7,0.2l0.4,0.1
		l0.4,0.1l0.4,0.1l0.4,0.1l0.3,0.1l0.3,0.1l0.4,0.1l0.4,0.1l0.7,0.2l2.2,0.5l1,0.2l0.5,0.1l0.5,0.1l0.7,0.2l0.7,0.2l0.7,0.2l0.7,0.2
		l0.4,0.1l0.4,0.1l0.4,0.1l0.4,0.1L89.6,113z M239.7,22.5l-1.7,0.5l-3.9,1.1l-3.9,1.1l-3.9,1.1l-3.9,1.1l-4.6,1.4l-4.6,1.4
		l-18.5,5.5l-4.6,1.4l-4.6,1.4l-4.6,1.4l-4.6,1.4l-4.6,1.4l-4.6,1.4l-4.6,1.3l-2.3,0.7l-2.3,0.7l-2.3,0.7l-2.3,0.7l-2.3,0.7
		l-2.3,0.7l-2.3,0.6l-2.3,0.6l-2.3,0.6l-2.3,0.6l-2.3,0.6l-2.3,0.6l-2.3,0.6l-2.3,0.6l-2.3,0.6l-2.3,0.6l-2.3,0.6l-2.3,0.6l-2,0.5
		l-2,0.5l-2.6,0.6l-2.6,0.6l-10.2,2.5l-2.6,0.6L95.9,63l-2.6,0.6l-2.6,0.7l-2.6,0.7l-2.6,0.7l-0.9-0.2l-0.9-0.2L82.9,65L82,64.8
		L81,64.6l-0.9-0.2l-1.9-0.4l-2.7-0.5l-1.3-0.3l-1.3-0.3l-0.9-0.2L71,62.7l-0.9-0.2l-0.9-0.2l-0.9-0.2l-0.9-0.2l-1.8-0.4L63.7,61
		l-5.6-1.3l-1.9-0.5l-1.9-0.5l-1-0.2l-1-0.2l-1-0.2l-1-0.2l-0.9-0.2l-0.9-0.3l-0.9-0.3L47.1,57l-0.5-0.1l-0.5-0.1l-0.5-0.1l-0.5-0.1
		l-0.5-0.1l-0.5-0.1L43.8,56l-0.5-0.2l-0.5-0.2l-0.5-0.2l-0.5-0.2l-0.5-0.2l-0.5-0.2l-1.1-0.4l-2.3-0.9L36.1,53l-0.6-0.3l-0.6-0.2
		l-0.6-0.2L33.5,52L33,51.8l-0.5-0.2l-0.5-0.2l-0.5-0.2l-0.5-0.2L30.6,51l-0.5-0.1l-0.5-0.1l-0.5-0.1l-0.5-0.1l-0.5-0.1l-0.5-0.1
		l-0.5-0.1L26.6,50l-0.5-0.1l-0.5-0.1l-0.6-0.1l-0.6-0.1l-0.6-0.1l-0.6-0.1l-1.2-0.2l-2.4-0.3l-0.6-0.1l-0.6-0.1l-0.4-0.1l-0.4-0.1
		l-0.4-0.1l-0.4-0.1l-0.4-0.1L16,48.3l-0.4-0.1l-0.4-0.1L14.8,48l-0.4-0.1l-0.4-0.1l-0.4-0.1l-0.3-0.1l-0.3-0.1l-0.3-0.1l-0.3-0.1
		l0.3-0.1l0.3-0.1l0.3-0.1l0.3-0.1l0.4-0.1l0.4-0.1l0.4-0.1l0.4,0l0.4,0l0.4,0l0.8-0.1l0.9-0.1l0.9-0.1l1.1-0.1l2.3-0.2l1.1-0.1
		l0.9-0.1l0.9-0.1l0.4,0l0.4,0l0.4-0.1l0.4-0.1l0.4-0.1l0.4-0.1l0.4-0.1l0.4-0.1l0.4-0.1l0.4-0.1l0.4-0.1l0.4-0.1l0.4-0.1l0.4-0.1
		l0.4-0.1l0.4-0.1l0.4-0.1l0.4-0.1l0.4-0.1l0.4-0.1l0.4-0.1l0.4-0.1l0.8-0.3l0.8-0.3l0.8-0.3l0.9-0.3l0.9-0.3l2.7-1l0.9-0.3l0.7-0.2
		l0.7-0.2l0.8-0.3l0.8-0.3l0.8-0.3l0.8-0.3l0.8-0.2l0.8-0.2l0.8-0.2l0.8-0.2l0.8-0.2l0.8-0.2l0.8-0.2l0.8-0.2l0.8-0.2l0.8-0.2
		l0.8-0.2l0.8-0.2l1.4-0.3l4.3-0.9l0.9-0.2l0.9-0.2l0.9-0.2l0.9-0.2l0.8-0.2l0.8-0.2l1-0.2l1-0.3l1-0.3l1-0.3l1-0.3l1-0.3l1.6-0.5
		l3.3-1l1.6-0.5l0.9-0.3l0.9-0.3l0.8-0.2l0.8-0.2l1.1-0.3l1.1-0.3l3.3-0.9l1.1-0.3l1.1-0.3l1-0.3l0.7-0.2l0.7-0.2l0.7-0.2l0.7-0.2
		l0.6-0.2l0.6-0.2l1.3-0.4l2.2-0.7l1.1-0.3l1.1-0.3l0.9-0.3l0.9-0.3l0.4-0.1l0.4-0.1l0.4-0.1l0.4-0.1l0.4-0.1l0.4-0.1l0.4-0.1
		l0.4-0.1l0.4-0.1l0.4-0.1l0.4-0.1l0.4-0.1L109,23l0.4-0.1l0.4-0.1l0.4-0.1l0.4,0l0.4,0l0.4,0l0.4,0l0.9-0.1l0.9-0.1l1-0.1l3.1-0.2
		l1.1-0.1l0.6,0l0.6,0l0.5,0l0.5,0l0.5,0l0.5,0l0.5-0.1l0.5-0.1l0.5-0.1l0.5-0.1l0.5-0.1l0.5-0.1l0.5-0.1l0.5-0.1l0.5-0.1l0.5-0.1
		l1-0.2l0.8-0.2l0.8-0.2l1.6-0.3l2.3-0.5l1.1-0.2l1.1-0.2l0.9-0.2l0.9-0.2l0.8-0.1l0.8-0.1l1-0.2l1-0.1l4-0.6l1-0.1l1-0.2l0.9-0.1
		l0.9-0.1l0.9-0.2l0.4-0.1l0.4-0.1l0.7-0.2l0.7-0.2l0.7-0.2l0.7-0.2l0.7-0.2l0.7-0.2l0.7-0.2l0.7-0.2l0.8-0.2l0.7-0.2l0.7-0.2
		l0.7-0.2l0.7-0.2l0.7-0.2l0.7-0.2l0.7-0.3l1-0.4l1-0.4l1-0.4l1-0.4l1-0.4l1-0.4l1-0.4l1-0.4l1-0.4l1-0.4l1-0.4l1-0.5l1-0.5l1-0.5
		l1-0.5l1-0.5l1.1,0.2l2.2,0.3l1.1,0.2l0.9,0.1l0.5,0.1l0.5,0.1l0.4,0.1L186,8l0.4,0.1l0.4,0.1l0.5,0.1l0.5,0.1l0.3,0.1l0.3,0.1
		l0.3,0.1l0.3,0.1l0.3,0.1l0.3,0.1l0.6,0.2l0.6,0.2l0.6,0.2l0.7,0.2l0.7,0.2l0.6,0.2l0.6,0.3l1.2,0.5l2.4,1l1.2,0.5l0.7,0.3l0.7,0.3
		l0.7,0.3l0.7,0.3l0.7,0.3l0.7,0.2l0.7,0.2l0.7,0.2l0.7,0.2l0.7,0.2l0.7,0.2l0.8,0.2l0.7,0.2l0.7,0.2L210,16l0.7,0.2l0.7,0.2
		l0.7,0.2l1.5,0.4l5.7,1.3l4.2,1l1.4,0.3l1.4,0.3l1.4,0.3l1.4,0.3l1.4,0.3l1.4,0.3l1.4,0.3l1.4,0.3l3.1,0.6L239.7,22.5z M221.2,91.8
		l0.2-0.3l0.2-0.3l0.2-0.3l0.2-0.3l0.2-0.3l0.2-0.3l0.2-0.3l0.2-0.3l0.2-0.3l0.2-0.3l0.2-0.3l0.2-0.3l0.2-0.3l0.2-0.4l0.2-0.4
		l0.2-0.4l0.2-0.4l0.2-0.4l0.4-0.7l0.4-0.7l0.4-0.7l0.4-0.8l0.4-0.8l0.4-0.8l0.4-0.8l0.4-0.8l0.3-0.8l0.3-0.8l0.3-0.8l0.3-0.8
		l0.3-0.8l0.3-0.8l0.3-0.9l0.3-0.9l0.3-0.9l0.3-0.9l0.3-0.9l0.3-0.9l0.3-0.9l0.3-0.9l0.3-0.9l1.3-4l0.3-1l0.3-1l0.2-0.5l0.2-0.5
		l0.2-0.5l0.2-0.5l0.2-0.5l0.2-0.5l0.2-0.5l0.2-0.5l0.2-0.5l0.2-0.5l0.2-0.5l0.2-0.5l0.2-0.5l0.2-0.5l0.2-0.5l0.2-0.4l0.2-0.4
		l0.2-0.4l0.2-0.4l0.3-0.4l3.3,34.3l-5.3,1.6l-5.3,1.6l-5.3,1.6L221.2,91.8z M254.1,136.7l6.8-2l0.2-0.1l0.2-0.1l0.2-0.1l0.2-0.1
		l0.2-0.1l0.2-0.1l0.1-0.1l0.1-0.1l0.1-0.1l0.1-0.1l0.1-0.1l0.1-0.1l0.1-0.1l0.1-0.1l0.1-0.1l0.1-0.1l0.1-0.1l0.1-0.1l0.1-0.1
		l0.1-0.1l0.1-0.1l0.1-0.1l0.1-0.1l0.1-0.1l0.1-0.1l0.1-0.1l0.1-0.1l0.1-0.1l0.1-0.1l0.1-0.1l0.1-0.1l0.1-0.1l0.1-0.1l0.1-0.1
		l0.1-0.1l0.1-0.1l0.1-0.1l0.1-0.1l0.1-0.3l0.1-0.3l0.1-0.3l0.1-0.3l0.1-0.3l0.1-0.3l0.1-0.3l0.1-0.3l0.1-0.3l0.1-0.3l0-0.3l0-0.3
		l0-0.3l0-0.3l0-0.3l0-0.3l0-0.3l0-0.3l0-0.3l0-0.3l0-0.1l0-0.1l0-0.1l0-0.1l0-0.1l0-0.1l0-0.1l0-0.1l0-0.1l0-0.1l0-0.1l0-0.1l0-0.1
		l-0.1-0.1l-0.1-0.1l-0.1-0.1l-0.1-0.1l-0.1-0.1l0-0.1l0-0.1l0-0.1l0-0.1l0-0.1l0-0.1l0-0.1l0-0.1l0,0l0,0l0,0l0,0l0,0l0,0l0,0
		l-0.1,0l-0.1,0l-0.1,0l-0.1,0l-0.1,0l-0.1,0l-0.1,0l-0.1,0l-0.1,0l-0.1,0l-0.1,0l-0.1,0l-0.1,0l-0.1,0l-0.1,0l-0.1-0.1l-0.1-0.1
		l-0.1-0.1l-0.2-0.1l-0.2-0.1l-0.2,0l-0.2,0l-0.2,0l-0.2,0l-0.2,0l-0.2,0l-0.2,0l-0.2,0l-0.2,0l-0.2,0l-0.2,0l-0.2,0l-6.6,2l0.1-0.8
		l0.1-0.8l0.1-0.8l0.1-0.8l0.2-1.7l0.2-1.6l0.2-1.5l0.2-1.5l0.1-0.8l0.1-0.8l0.1-0.8l0.1-0.8l0.1-0.8l0.1-0.8l0.1-0.6l0.1-0.6
		l0.1-0.3l0.1-0.3l0.1-0.3l0.1-0.3l0.1-0.4l0.1-0.4l0.1-0.4l0.1-0.2l0.1-0.2l0.1-0.2l0.1-0.2l0.1-0.2l0.1-0.2l0.1-0.2l0.1-0.2
		l0.1-0.2l0.1-0.2l0.1-0.1l0.1-0.1l0.1-0.1l0,0l0,0l0.1-0.1l0.1-0.1l0,0l0,0l0,0l0,0l0,0l0.1,0l0.1,0l0,0l0,0l0.1,0l0.1,0l0.1,0l0,0
		l0,0l0,0l0,0l0.1,0l0.1,0l0.1,0l0.1,0l0.1,0l0.1,0l0.1,0l0.1,0l0.1,0l0.1,0l0.1,0l0.1,0l0.1,0l0.2,0l0.3,0l0.3,0l0.3,0l0.5,0
		l2.5-0.2l0.8-0.1l0.6,0l0.3,0l0.3,0l0.3,0l0.3,0l0.3,0l0.3,0l0.3,0l0.3,0l0.3,0l0.3,0l0.3,0l0.3,0l0.3,0l0.2,0l0.2,0l0.2,0l0.2,0.1
		l0.2,0.1l0.2,0.1l0.2,0.1l0.2,0.1l0.2,0.1l0.2,0.1l0.2,0.1l0.2,0.1l0.2,0.1l0.2,0.1l0.2,0.1l0.2,0.1l0.2,0.1l0.2,0.2l0.2,0.2
		l0.2,0.2l0.2,0.2l0.2,0.2l0.2,0.2l0.2,0.2l0.2,0.2l0.2,0.3l0.2,0.3l0.2,0.3l0.2,0.3l0.2,0.3l0.2,0.3l0.2,0.3l0.2,0.3l0.2,0.4
		l0.2,0.4l0.2,0.4l0.2,0.4l0.2,0.4l0.2,0.4l0.2,0.4l0.2,0.4l0.2,0.4l0.2,0.4l0.2,0.4l0.2,0.4l0.2,0.4l0.2,0.4l0.2,0.4l0.2,0.4
		l0.2,0.4l0.1,0.4l0.1,0.4l0.1,0.4l0.1,0.4l0.1,0.4l0.1,0.4l0.1,0.4l0.1,0.4l0.1,0.4l0.1,0.4l0.1,0.4l0.1,0.4l0.1,0.4l0.1,0.4
		l0.1,0.4l0.1,0.4l0.1,0.4l0.1,0.4l0.1,0.4l0,0.4l0,0.4l0,0.4l0,0.4l0,0.4l0,0.4l0,0.4l0,0.4l0,0.4l0,0.4l0,0.4l0,0.4l0,0.4l0,0.4
		l0,0.4l0,0.4l0,0.4l0,0.4l0,0.4l0,0.4l0,0.4l0,0.4l0,0.8l-0.1,0.8l-0.1,0.8l-0.1,0.8l-0.1,0.8l-0.1,0.8l-0.1,0.8l-0.1,0.7l-0.1,0.7
		l-0.1,0.7l-0.1,0.7l-0.1,0.7l-0.1,0.7l-0.1,0.7l-0.1,0.7l-0.1,0.7l-0.1,0.4l-0.1,0.4l-0.1,0.4l-0.1,0.4l-0.1,0.4l-0.1,0.4l-0.1,0.3
		l-0.1,0.3l-0.1,0.3l-0.1,0.3l-0.1,0.3l-0.1,0.3l-0.1,0.3l-0.1,0.3l-0.1,0.3l-0.1,0.3l-0.1,0.3l-0.1,0.3l-0.1,0.3l-0.1,0.3l-0.1,0.3
		l-0.1,0.3l-0.2,0.4l-0.2,0.4l-0.2,0.4l-0.2,0.4l-0.2,0.3l-0.2,0.3L276,152l-0.2,0.3l-0.2,0.3l-0.2,0.3l-0.2,0.3l-0.2,0.2l-0.2,0.2
		l-0.2,0.2l-0.2,0.2l-0.2,0.2l-0.2,0.2l-0.2,0.2l-0.2,0.2l-0.2,0.2l-0.2,0.2l-0.2,0.2l-0.2,0.2l-0.2,0.2l-0.2,0.2l-0.2,0.2l-0.2,0.2
		l-0.2,0.2l-0.2,0.2l-0.2,0.2l-0.2,0.1l-0.2,0.1l-0.2,0.1l-0.3,0.1l-0.3,0.1l-0.3,0.1l-0.3,0.1l-0.3,0.1l-0.3,0.1l-0.3,0.1l-0.3,0.1
		l-0.3,0.1l-0.3,0.1l-0.3,0.1l-0.4,0l-0.4,0l-0.4,0l-0.4,0l-1.1-0.1l-0.3,0l-0.3,0l-0.3,0l-0.3,0l-0.2,0l-0.2,0l-0.2,0l-0.1,0
		l-0.1,0l-0.1,0l-0.1,0l-0.1,0l-0.1,0l-0.1,0l-0.1,0l-0.1,0l-0.1,0l-0.1,0l-0.1,0l-0.1,0l-0.1,0l-0.1-0.1l-0.1-0.1l-0.1-0.1
		l-0.1-0.1l-0.1-0.1l-0.1-0.1l-0.1-0.1l-0.1-0.1l-0.1-0.1l-0.1-0.1l-0.1-0.2l-0.1-0.2l-0.1-0.2l-0.2-0.3l-0.2-0.3l-0.2-0.3l-0.2-0.3
		l-0.2-0.3l-0.2-0.3l-0.2-0.3l-0.2-0.3l-0.3-0.5l-0.3-0.5l-0.3-0.5l-0.2-0.5l-0.2-0.4l-0.2-0.4l-0.2-0.4l-0.2-0.4l-0.2-0.4l-0.2-0.4
		l-0.2-0.4l-0.2-0.4l-0.2-0.5l-0.2-0.6l-0.2-0.6l-0.2-0.6l-0.1-0.4l-0.1-0.4l-0.1-0.4l-0.1-0.4l-0.1-0.4l-0.1-0.4l-0.1-0.4l-0.1-0.4
		l-0.1-0.4l-0.1-0.4l-0.1-0.4l-0.1-0.4l-0.1-0.4l-0.1-0.4l-0.1-0.4l-0.1-0.4l-0.1-0.4l-0.1-0.4l-0.1-0.4l-0.1-0.4l-0.1-0.4l-0.1-0.4
		l-0.1-0.4l0-0.4L254.1,136.7z"/>
</g>
</svg>
