<?xml version="1.0" encoding="utf-8"?>
<!-- Generator: Adobe Illustrator 21.1.0, SVG Export Plug-In . SVG Version: 6.00 Build 0)  -->
<svg version="1.1" id="Layer_1" xmlns="http://www.w3.org/2000/svg" xmlns:xlink="http://www.w3.org/1999/xlink" x="0px" y="0px"
	 viewBox="0 0 290.1 512" style="enable-background:new 0 0 290.1 512;" xml:space="preserve">
<style type="text/css">
	.st0{fill:#FF7E03;}
</style>
<g>
	<g>
		<path class="st0" d="M289.3,175.6c-1.4-3-4.4-4.9-7.7-4.9H180.5l99.8-157.6c1.7-2.6,1.8-6,0.3-8.7C279,1.7,276.2,0,273.1,0H136.5
			c-3.2,0-6.2,1.8-7.6,4.7l-128,256c-1.3,2.6-1.2,5.8,0.4,8.3c1.6,2.5,4.3,4.1,7.3,4.1h87.7L0.7,500.2c-1.6,3.9-0.2,8.4,3.4,10.6
			c1.4,0.8,2.9,1.3,4.4,1.3c2.4,0,4.9-1,6.5-3l273.1-324.3C290.3,182.2,290.7,178.6,289.3,175.6z"/>
	</g>
</g>
</svg>
