<?xml version="1.0" encoding="utf-8"?>
<!-- Generator: Adobe Illustrator 21.1.0, SVG Export Plug-In . SVG Version: 6.00 Build 0)  -->
<svg version="1.1" id="Слой_1" xmlns="http://www.w3.org/2000/svg" xmlns:xlink="http://www.w3.org/1999/xlink" x="0px" y="0px"
	 viewBox="0 0 199.6 141.2" style="enable-background:new 0 0 199.6 141.2;" xml:space="preserve">
<style type="text/css">
	.st0{fill:none;stroke:#FFFFFF;stroke-width:0.7087;stroke-linecap:round;stroke-linejoin:round;stroke-miterlimit:10;}
	.st1{fill-rule:evenodd;clip-rule:evenodd;fill:#FFFFFF;}
	.st2{fill:none;stroke:#ED6720;stroke-width:0.7087;stroke-linecap:round;stroke-linejoin:round;stroke-miterlimit:10;}
	.st3{fill-rule:evenodd;clip-rule:evenodd;fill:#ED6720;}
</style>
<g id="POLYLINE_415_">
	<path class="st0" d="M27.4,63.9c-0.1,1.7-0.1,3.4-0.1,5.1c0,0,1.2,0,1.2,0l1.2,0l1.2,0l1.2,0c0,0,2.3,0,2.3,0s2.3,0,2.3,0l2.3,0
		l2.3,0c0,0,2.3,0,2.3,0l2.3,0l2.5,0c0,0,2.5,0,2.5,0s2.5,0,2.5,0l2.5,0c0,0,2.5,0,2.5,0l2.5,0l5,0.1c0,0,5,0.1,5,0.1l5,0.1
		c0,0,2.5,0,2.5,0s2.5,0,2.5,0l2.5,0l2.5,0c0,0,2.5,0,2.5,0s2.5,0,2.5,0s2.5,0,2.5,0l2.5,0c0,0,2.5,0,2.5,0l1.2,0c0,0,1.2,0,1.2,0
		s1.2,0,1.2,0s1.2,0,1.2,0s1.2,0,1.2,0l1.2,0l2.1,0c0,0,2.1,0,2.1,0s2.1,0,2.1,0s2.1,0,2.1,0l1.3,0c0,0,1.3,0,1.3,0l1.3,0l1.3,0
		c0,0,1.3,0,1.3,0s1.3,0,1.3,0s2.7-0.1,2.7-0.1l2.7-0.1c0,0,2.7-0.1,2.7-0.1l2.7-0.1l2.7-0.1c0,0,8-0.2,8-0.2l2.7-0.1l2.7-0.1
		c0,0,2.7-0.1,2.7-0.1l2.7-0.1l1.3,0c0,0,1.3,0,1.3,0l1.3,0l1.3,0c0,0,1.3,0,1.3,0l1.3,0c0,0,1.3,0,1.3,0l1.3,0l1.3,0l1.3,0l1.7,0
		l1.7,0c0,0,2.1,0,2.1,0s2.1,0,2.1,0c0-1,0.1-1.9,0.2-2.9l-1.8-0.1l-1.8-0.1l-1.8-0.1c0,0-1.9-0.1-1.9-0.1l-1.9-0.1l-1.9-0.1
		l-1.9-0.1l-1.9-0.1l-1.7-0.1l-1.7-0.1l-1.7-0.1c0,0-1.7-0.1-1.7-0.1s-1.7,0-1.7,0s-1.7,0-1.7,0l-1.7,0l-1.7,0l-1.6,0l-1.6,0l-1.6,0
		c0,0-1.6,0-1.6,0l-1.6,0l-1.6,0c0,0-1.6,0-1.6,0l-1.6,0l-1.6,0l-1.6,0l-3.2,0c0,0-2,0-2,0l-2,0l-2,0c0,0-2,0-2,0l-2,0l-2,0l-4,0
		l-4,0l-4,0c0,0-4,0-4,0s-12.1,0-12.1,0l-4,0l-4,0c0,0-4,0-4,0l-4,0l-4,0c0,0-2,0-2,0l-2,0l-3.1,0l-3.1,0l-3.1,0l-3.1,0
		c0,0-2.3,0-2.3,0S40.8,64,40.8,64s-2.2,0-2.2,0l-2.2,0l-2.2,0c0,0-2.2,0-2.2,0l-1.1,0c0,0-1.1,0-1.1,0s-1.1,0-1.1,0
		S27.4,63.9,27.4,63.9"/>
</g>
<g id="HATCH_221_">
	<polygon class="st1" points="160.2,22.9 160.1,21.2 161.3,21.3 155.8,19.8 144.8,16.8 139.3,15.2 132.4,13.4 125.6,11.5 
		122.2,10.5 118.7,9.6 115.3,8.6 111.9,7.7 108,6.6 106.7,6.2 106.1,6 105.5,5.9 104.8,5.7 104.2,5.5 103.6,5.3 103,5.1 102.3,4.9 
		101.7,4.7 101.1,4.5 100.8,4.4 100.5,4.3 100.1,4.1 99.8,4 99.5,3.9 99.2,3.8 97.3,4.3 95.4,4.8 93.5,5.3 91.7,5.8 89.8,6.3 
		87.9,6.8 86,7.3 84.1,7.9 82.5,8.3 80.9,8.7 79.3,9.2 77.8,9.6 76.2,10 74.6,10.5 73,10.9 71.4,11.4 70.1,11.8 68.7,12.2 
		67.4,12.6 66,13 64.6,13.3 63.3,13.7 61.9,14.1 60.6,14.5 58.4,15.2 56.2,15.9 54.2,16.5 53.2,16.8 52.2,17.1 51.1,17.4 50,17.7 
		48.9,18 47.8,18.3 46.6,18.7 45.5,19 44.3,19.3 43.1,19.6 41.3,20.1 39.5,20.6 39.4,21.8 41.2,21.8 43,21.9 50.2,22 53.8,22 
		56.5,22 59.2,22.1 61.9,22.1 64.6,22.1 67.3,22.1 70,22.1 72.7,22.1 75.4,22.2 78.1,22.2 80.8,22.2 86.2,22.2 102.3,22.2 
		107.7,22.2 110.4,22.2 113.1,22.2 115.8,22.2 118.5,22.2 121.2,22.2 123.9,22.2 126.6,22.2 129.3,22.2 132,22.3 134.7,22.3 
		137.4,22.3 140.1,22.4 142.6,22.4 145.1,22.5 147.6,22.5 148.9,22.5 150.1,22.6 151.4,22.6 152.7,22.6 153.9,22.7 155.2,22.7 
		156.4,22.8 157.7,22.8 158.9,22.8 	"/>
</g>
<g id="HATCH_222_">
	<polygon class="st1" points="31.9,62.5 33.6,62.5 35.2,62.5 36.9,62.6 38.6,62.6 42,62.6 47.7,62.7 50,62.7 53.1,62.8 56.2,62.8 
		59.2,62.8 62.3,62.8 64.4,62.9 66.4,62.9 70.4,62.9 74.5,62.9 78.5,62.9 82.5,62.9 86.6,62.9 98.7,62.9 102.8,62.9 106.8,62.9 
		110.9,62.9 114.9,62.9 116.9,62.9 118.9,62.9 121,62.9 123,62.9 125,63 127,63 130.3,63 131.9,63 133.5,63 135.1,63.1 136.7,63.1 
		138.4,63.1 140,63.1 141.6,63.2 143.3,63.2 144.9,63.2 146.5,63.3 148.3,63.3 150,63.4 151.7,63.4 153.5,63.5 155.2,63.5 
		156.9,63.6 158.6,63.6 160.4,63.7 161.8,63.7 163.3,63.8 164.8,63.8 166.2,63.9 169.2,64 172.1,64.1 171.5,64 169.7,63.5 168,63 
		166.2,62.5 164.5,62 162.7,61.5 139.7,55.2 132.1,53.1 128.3,52 124.5,51 120.7,49.9 116.9,48.9 113.1,47.8 108.2,46.4 107.1,46.1 
		106,45.8 105.4,45.7 104.9,45.5 104.2,45.3 103.5,45.1 103.1,45 102.8,44.8 102.4,44.7 102.1,44.6 101.7,44.5 101.4,44.4 101,44.3 
		100.7,44.1 100.3,44 100,43.9 99.6,43.7 99.3,43.6 96.8,44.3 94.3,44.9 91.7,45.6 89.2,46.3 86.7,47 84.2,47.6 81.7,48.3 79.2,49 
		77.2,49.6 75.3,50.1 73.3,50.7 71.3,51.2 69.3,51.8 67.3,52.4 65.4,53 63.4,53.5 62.1,53.9 60.8,54.3 59.6,54.7 58.3,55 54.3,56.2 
		52.9,56.7 51.6,57.1 50.2,57.5 48.8,57.9 47.3,58.3 45.9,58.7 44.5,59.1 43.2,59.4 41.8,59.8 39.2,60.5 33.4,62.1 	"/>
</g>
<g id="POLYLINE_416_">
	<path class="st0" d="M176.4,68.6l2.5,0l2.5,0l2.4,0l2.3,0c0,0,2.2,0,2.2,0l2,0l1.7,0l1.5,0l1.6,0c0,0,0.7,0,0.7,0l0-0.3l0-0.3
		c0,0,0-0.3,0-0.3l0-0.3c0,0,0-0.3,0-0.3l0-0.3l0-0.3l0-0.3c0,0,0-1,0-1l0-0.3c0,0,0-0.3,0-0.3l0-0.2l0-0.2l0-0.4l0-0.5l-0.1-0.9
		c0,0,0-0.5,0-0.5l0-0.2l0-0.2l0-0.2c0,0,0-0.2,0-0.2l0-0.4l0-0.4l0-1.7l0-0.8l0-1.8c0,0-2,0-2,0s-2,0-2,0l-2,0c0,0-2,0-2,0l-2,0
		l-2,0l-2,0l-2,0l-2,0c0,0-2,0-2,0l-4.1,0l-8.2,0c0,0-1.7,0-1.7,0c-4.2,0-8.5,0-12.7,0c0,0,15.7,4.3,15.7,4.3S166,61,166,61l1.8,0.5
		c0,0,1.8,0.5,1.8,0.5l1.8,0.5l0.9,0.3l0.9,0.3l0.3,0.1c0,0,0.3,0.1,0.3,0.1l0.3,0.1l0.2,0.1l0.2,0.1c0,0,0.1,0.1,0.1,0.1
		s0.1,0.1,0.1,0.1s0.1,0.1,0.1,0.1l0.1,0.1l0.1,0.1l0.1,0.1l0.1,0.1l0.1,0.1l0.1,0.1l0.1,0.1l0.1,0.1l0.1,0.1l0.1,0.1
		c0,0,0.1,0.1,0.1,0.1s0.1,0.1,0.1,0.1l0.1,0.1C176.4,65.8,176.4,67.2,176.4,68.6"/>
</g>
<g id="POLYLINE_417_">
	<polyline class="st0" points="31.9,62.5 33.6,62.5 35.2,62.5 36.9,62.6 38.6,62.6 42,62.6 47.7,62.7 50,62.7 53.1,62.8 56.2,62.8 
		59.2,62.8 62.3,62.8 64.4,62.9 66.4,62.9 70.4,62.9 74.5,62.9 78.5,62.9 82.5,62.9 86.6,62.9 98.7,62.9 102.8,62.9 106.8,62.9 
		110.9,62.9 114.9,62.9 116.9,62.9 118.9,62.9 121,62.9 123,62.9 125,63 127,63 130.3,63 131.9,63 133.5,63 135.1,63.1 136.7,63.1 
		138.4,63.1 140,63.1 141.6,63.2 143.3,63.2 144.9,63.2 146.5,63.3 148.3,63.3 150,63.4 151.7,63.4 153.5,63.5 155.2,63.5 
		156.9,63.6 158.6,63.6 160.4,63.7 161.8,63.7 163.3,63.8 164.8,63.8 166.2,63.9 169.2,64 172.1,64.1 171.5,64 169.7,63.5 168,63 
		166.2,62.5 164.5,62 162.7,61.5 139.7,55.2 132.1,53.1 128.3,52 124.5,51 120.7,49.9 116.9,48.9 113.1,47.8 108.2,46.4 107.1,46.1 
		106,45.8 105.4,45.7 104.9,45.5 104.2,45.3 103.5,45.1 103.1,45 102.8,44.8 102.4,44.7 102.1,44.6 101.7,44.5 101.4,44.4 101,44.3 
		100.7,44.1 100.3,44 100,43.9 99.6,43.7 99.3,43.6 96.8,44.3 94.3,44.9 91.7,45.6 89.2,46.3 86.7,47 84.2,47.6 81.7,48.3 79.2,49 
		77.2,49.6 75.3,50.1 73.3,50.7 71.3,51.2 69.3,51.8 67.3,52.4 65.4,53 63.4,53.5 62.1,53.9 60.8,54.3 59.6,54.7 58.3,55 54.3,56.2 
		52.9,56.7 51.6,57.1 50.2,57.5 48.8,57.9 47.3,58.3 45.9,58.7 44.5,59.1 43.2,59.4 41.8,59.8 39.2,60.5 33.4,62.1 31.9,62.5 	"/>
</g>
<g id="POLYLINE_418_">
	<path class="st0" d="M4,56.2l0,1l0,1c0,0,0,0.9,0,0.9s0,1.3,0,1.3l0,0.5c0,0,0,0.5,0,0.5l0,0.2c0,0,0,0.2,0,0.2l0,0.3l0,0.3
		c0,0,0,0.3,0,0.3l0,0.3l0,0.5l0,0.5l0,0.5c0,0,0,0.2,0,0.2s0,0.2,0,0.2s0,0.3,0,0.3l0,0.3l0,0.2c0,0,0,0.2,0,0.2s0,0.9,0,0.9l0,0.5
		c0,0,0,0.3,0,0.3s0,0.3,0,0.3l0,0.2c0,0,0,0.2,0,0.2s0,0.3,0,0.3s0,0.3,0,0.3s-0.1,0.8-0.1,0.8l0.7,0c0,0,1.7-0.1,1.7-0.1
		s1.2-0.1,1.2-0.1s1.2,0,1.2,0l1.2,0l1.2,0c0,0,1.2,0,1.2,0l1.2,0c0,0,1.2,0,1.2,0l1.2,0l1.2,0c0,0,1.2,0,1.2,0s1.2,0,1.2,0
		s1.2,0,1.2,0l1.2,0c0,0,1.2,0,1.2,0l1.2,0c0,0,1.2,0,1.2,0s0-0.8,0-0.8s0-0.8,0-0.8s0-0.8,0-0.8l0-0.4c0,0,0-0.4,0-0.4l0-0.4
		c0,0,0-0.4,0-0.4s0-0.4,0-0.4l0-0.4l0-0.4c0,0,0-0.4,0-0.4l0-0.4c0,0,0-0.4,0-0.4s0.9-0.3,0.9-0.3s0.9-0.2,0.9-0.2l0.9-0.2l0.9-0.2
		c0,0,0.9-0.2,0.9-0.2s0.9-0.2,0.9-0.2s1.8-0.5,1.8-0.5l5.7-1.6c0,0,2.7-0.7,2.7-0.7s1.3-0.4,1.3-0.4l1.3-0.4l1.4-0.4
		c0,0,1.4-0.4,1.4-0.4l1.4-0.4c0,0,1.4-0.4,1.4-0.4c-3.8,0-7.6,0-11.4,0l-1.7,0c0,0-8.2,0-8.2,0s-4.1,0-4.1,0l-2,0l-2,0l-2,0l-2,0
		c0,0-2,0-2,0l-2,0c0,0-2,0-2,0l-2,0l-2,0L4,56.2"/>
</g>
<g id="POLYLINE_419_">
	<polyline class="st0" points="160.2,22.9 160.1,21.2 161.3,21.3 155.8,19.8 144.8,16.8 139.3,15.2 132.4,13.4 125.6,11.5 
		122.2,10.5 118.7,9.6 115.3,8.6 111.9,7.7 108,6.6 106.7,6.2 106.1,6 105.5,5.9 104.8,5.7 104.2,5.5 103.6,5.3 103,5.1 102.3,4.9 
		101.7,4.7 101.1,4.5 100.8,4.4 100.5,4.3 100.1,4.1 99.8,4 99.5,3.9 99.2,3.8 97.3,4.3 95.4,4.8 93.5,5.3 91.7,5.8 89.8,6.3 
		87.9,6.8 86,7.3 84.1,7.9 82.5,8.3 80.9,8.7 79.3,9.2 77.8,9.6 76.2,10 74.6,10.5 73,10.9 71.4,11.4 70.1,11.8 68.7,12.2 
		67.4,12.6 66,13 64.6,13.3 63.3,13.7 61.9,14.1 60.6,14.5 58.4,15.2 56.2,15.9 54.2,16.5 53.2,16.8 52.2,17.1 51.1,17.4 50,17.7 
		48.9,18 47.8,18.3 46.6,18.7 45.5,19 44.3,19.3 43.1,19.6 41.3,20.1 39.5,20.6 39.4,21.8 41.2,21.8 43,21.9 50.2,22 53.8,22 
		56.5,22 59.2,22.1 61.9,22.1 64.6,22.1 67.3,22.1 70,22.1 72.7,22.1 75.4,22.2 78.1,22.2 80.8,22.2 86.2,22.2 102.3,22.2 
		107.7,22.2 110.4,22.2 113.1,22.2 115.8,22.2 118.5,22.2 121.2,22.2 123.9,22.2 126.6,22.2 129.3,22.2 132,22.3 134.7,22.3 
		137.4,22.3 140.1,22.4 142.6,22.4 145.1,22.5 147.6,22.5 148.9,22.5 150.1,22.6 151.4,22.6 152.7,22.6 153.9,22.7 155.2,22.7 
		156.4,22.8 157.7,22.8 158.9,22.8 160.2,22.9 	"/>
</g>
<g id="POLYLINE_420_">
	<path class="st0" d="M161.2,54.5c0,0,0-0.7,0-0.7s0-0.7,0-0.7s0-0.4,0-0.4s0-0.4,0-0.4s0-0.2,0-0.2l0-0.2l0-0.3l0-0.3l0-0.3l0-0.3
		l0-0.3l0-0.3l0-0.3c0,0,0-0.3,0-0.3l-0.1-0.7c0,0-0.1-1.4-0.1-1.4l-0.1-0.7l-0.1-0.7c0,0-0.1-0.7-0.1-0.7s-0.1-0.7-0.1-0.7l0-0.4
		l0-0.4c0,0,0-0.4,0-0.4s0-0.4,0-0.4s0-0.3,0-0.3l0-0.3c0,0,0-0.7,0-0.7l0-0.7l0-0.7l0-0.7l0-0.7l0-0.7l0-0.7l0-0.7l0-0.7l0-1.4
		l0-2.8l0-0.7c0,0,0-0.7,0-0.7l0-0.7c0,0,0-0.7,0-0.7s0-0.5,0-0.5l0-0.5l0-0.5l0-0.5l0-0.5c0,0,0-0.5,0-0.5s0-0.5,0-0.5l0-0.5
		l-1.3,0l-1.3,0l-1.3,0l-1.3,0l-1.3,0l-1.3,0l-1.3,0l-1.3,0l-1.3,0l-1.3,0l-2.5-0.1l-2.5,0c0,0-2.5,0-2.5,0s-2.7,0-2.7,0
		s-2.7,0-2.7,0l-2.7,0l-2.7,0l-2.7,0l-2.7,0c0,0-2.7,0-2.7,0l-2.7,0l-2.7,0c0,0-2.7,0-2.7,0l-2.7,0c0,0-2.7,0-2.7,0l-5.4,0l-16.2,0
		l-5.4,0l-2.7,0l-2.7,0l-2.7,0l-2.7,0l-2.7,0c0,0-2.7,0-2.7,0l-2.7,0l-2.7,0c0,0-2.7,0-2.7,0l-2.7,0c0,0-3.6,0-3.6,0l-7.2-0.1
		l-1.8,0c0,0-1.8,0-1.8,0l0,0.4c0,0,0,0.4,0,0.4s0,0.4,0,0.4s0,0.4,0,0.4l0,0.4c0,0,0,0.4,0,0.4s0,0.4,0,0.4s0,0.4,0,0.4
		s0,0.7,0,0.7l0,0.7l0,0.7c0,0,0,0.7,0,0.7s0,0.7,0,0.7s0,0.7,0,0.7s0,1.5,0,1.5l0,1.5l0,1.5c0,0,0,0.8,0,0.8s0,0.8,0,0.8l0,0.8
		l0,0.8c0,0,0,0.8,0,0.8l0,0.8c0,0,0,0.7,0,0.7s0,0.7,0,0.7s0,0.4,0,0.4l0,0.4l0,0.4l0,0.4c0,0,0,0.4,0,0.4s0,0.4,0,0.4s0,0.4,0,0.4
		s0,0.4,0,0.4S38.9,45,38.9,45l-0.1,0.7l-0.1,0.7c0,0-0.1,0.7-0.1,0.7s-0.1,1.4-0.1,1.4s-0.1,0.7-0.1,0.7l0,0.3l0,0.3
		c0,0,0,0.3,0,0.3l0,0.3c0,0,0,0.3,0,0.3s0,0.3,0,0.3s0,0.3,0,0.3l0,0.3c0,0,0,0.3,0,0.3l0,0.3c0,0,0,0.4,0,0.4l0,0.4l0,0.7l0,0.7
		c5.7,0,11.3,0,17,0c0,0,2.6-0.8,2.6-0.8s1.3-0.4,1.3-0.4s1.3-0.4,1.3-0.4s1.3-0.4,1.3-0.4l1.3-0.4l2-0.6c0,0,2-0.6,2-0.6
		s2-0.6,2-0.6l2-0.6c0,0,2-0.6,2-0.6l2-0.6c0,0,2-0.6,2-0.6s2-0.6,2-0.6l2.5-0.7c0,0,2.5-0.7,2.5-0.7l2.5-0.7c0,0,2.5-0.7,2.5-0.7
		l2.5-0.7l2.5-0.7l2.5-0.7c0,0,2.5-0.7,2.5-0.7s0.2-0.1,0.2-0.1l0.2,0.1c0,0,0.4,0.1,0.4,0.1s0.4,0.1,0.4,0.1s0.4,0.1,0.4,0.1
		s0.4,0.1,0.4,0.1s0.4,0.1,0.4,0.1l0.4,0.1l0.4,0.1l0.4,0.1l0.4,0.1l0.4,0.1l0.4,0.1l0.4,0.1l0.7,0.2l0.7,0.2l0.8,0.2l0.8,0.2
		l0.8,0.2l0.8,0.2c0,0,3.1,0.9,3.1,0.9l3.1,0.9c0,0,6.2,1.7,6.2,1.7l5.4,1.5l5.4,1.5l5.4,1.5l5.4,1.5l2.3,0c0,0,2.4,0,2.4,0l2.4,0
		c0,0,2.4,0,2.4,0l2.4,0l2.4,0L161.2,54.5"/>
</g>
<g id="SPLINE_56_">
	<path class="st0" d="M6.1,125.7c34.8-1.3,69.8,0.9,104.7,0.5c18.9-0.2,37.7-1.2,56.6-1.3c8.6,0,17.3,0.1,25.9,0.2"/>
</g>
<g id="POLYLINE_421_">
	<polyline class="st0" points="193.4,125.1 193.4,123.4 193.5,121.6 193.5,119.9 193.5,118.2 193.5,116.5 193.5,114.8 193.5,113.1 
		193.5,111.4 193.5,109.7 193.5,108 193.5,104.6 193.5,101.2 193.5,97.8 193.5,90.9 193.4,87.5 193.4,84.1 193.4,80.7 193.4,79 
		193.4,77.3 193.4,75.6 193.4,73.8 193.4,72.1 193.5,70.4 193.5,70.1 191.3,70.1 189.1,70.1 182.6,70 180.4,70 178.2,70 176,70 
		174.7,70 173.5,70 172.2,70 170.9,70 169.1,70 167.4,70 166.1,70 164.7,70 163.4,70 162.1,70 160.7,70.1 159.4,70.1 158.1,70.1 
		156.8,70.1 155.4,70.2 154.1,70.2 151.5,70.3 148.8,70.3 146.2,70.4 143.5,70.5 132.9,70.8 130.2,70.9 127.6,71 124.9,71 
		122.3,71.1 121,71.1 119.6,71.2 118.3,71.2 117,71.2 115.6,71.2 114.3,71.2 112.2,71.3 110.1,71.3 108,71.3 105.9,71.3 104.6,71.3 
		103.4,71.3 102.1,71.3 100.9,71.3 99.6,71.3 98.4,71.3 95.9,71.3 93.4,71.3 90.9,71.2 88.4,71.2 85.9,71.2 83.4,71.1 80.9,71.1 
		78.4,71 75.9,71 70.9,70.9 65.9,70.8 60.9,70.7 58.4,70.7 55.9,70.6 53.4,70.6 50.9,70.5 48.4,70.5 45.9,70.5 43.5,70.4 41,70.4 
		38.5,70.4 36,70.4 34.7,70.4 33.5,70.4 32.2,70.4 31,70.4 29.8,70.4 28.5,70.4 27.3,70.4 26,70.4 24.8,70.4 23.5,70.4 22.3,70.4 
		21,70.4 19.8,70.5 18.5,70.5 17.3,70.5 16.1,70.5 14.8,70.6 13.6,70.6 12.3,70.6 11.1,70.7 9.8,70.7 8.6,70.8 7.3,70.8 6.1,70.9 
		6.1,71.2 6.1,72.9 6.1,74.6 6.1,76.3 6.1,78 6.1,79.7 6.1,81.4 6.1,84.8 6.1,88.2 6.1,91.6 6,98.5 6,101.9 6,105.3 6,107 6,108.7 
		6,110.4 6,112.1 6,113.8 6,115.5 6,117.2 6.1,118.9 6.1,120.6 6.1,122.3 6.1,124 6.1,125.7 	"/>
</g>
<g id="POLYLINE_422_">
	<path class="st0" d="M6.2,127.1c0,1.2,0,2.3,0.1,3.5l0,1.5l0,0.7c0,0,0,0.7,0,0.7s0,0.7,0,0.7l0,0.7l0,0.7l0,0.7l1.7,0
		c0,0,1.7,0,1.7,0s1.7,0,1.7,0s1.7,0,1.7,0l2.3,0l2.3,0c0,0,2.6,0,2.6,0s2.6,0,2.6,0s5.2,0.1,5.2,0.1l12.6,0.2l7.4,0.1
		c0,0,3.7,0,3.7,0s3.7,0,3.7,0s4.1,0,4.1,0s4.1,0,4.1,0l4.1,0c0,0,4.1,0,4.1,0l4.1,0l4.1,0c0,0,4.1,0,4.1,0s4.1,0,4.1,0s4.1,0,4.1,0
		l4.1,0l4.1,0c0,0,4.1,0,4.1,0l5.2,0l5.2,0l5.2,0l5.2,0l2.6,0c0,0,2.6,0,2.6,0l2.6,0l2.6,0l2.6,0c0,0,2.6,0,2.6,0l2.6,0
		c0,0,2.6,0,2.6,0l2.9,0l2.9,0l2.9,0c0,0,2.9,0,2.9,0l2.9,0c0,0,2.9,0,2.9,0s2.9,0,2.9,0l2.9,0l2.9,0l2.9,0l2.9,0l2.9,0
		c0,0,2.9,0,2.9,0l2.9,0l2.9,0l2.9-0.1c0,0,0-0.4,0-0.4l0-0.4l0-0.8l0-0.8l0-0.8l0-0.8l0-0.8l0-0.8l0-0.8c0-1.4,0.1-2.8,0.1-4.2"/>
</g>
<g id="SPLINE_57_">
	<path class="st0" d="M6.2,127.1c3.9-0.1,7.7-0.3,11.6-0.3c4.4-0.1,8.8-0.1,13.2-0.1c8.9,0,17.7,0.1,26.6,0.3
		c8.9,0.2,17.8,0.4,26.6,0.5c8.9,0.1,17.8,0.2,26.7,0.1c4.7-0.1,9.5-0.2,14.2-0.3c4.7-0.1,9.4-0.3,14.2-0.4
		c4.7-0.1,9.4-0.3,14.1-0.4c4.7-0.1,9.4-0.2,14.1-0.2c4.6,0,9.2,0,13.8,0.1c4,0,8.1,0.1,12.1,0.1"/>
</g>
<g id="HATCH_223_">
	<path class="st1" d="M34,22.7L34,22.7L34,22.7l0.1,0.1l0,0l0,0l0,0l0,0l0,0l0,0l0,0l0,0l0,0l0,0l0,0l0,0l0,0l0,0l0,0l0,0l0,0l0.1,0
		l0.1,0l0.1,0l0.1,0l0.1,0l0.1,0l0.1,0.1l0.2,0.1l0.1,0l0,0l0,0l0,0l0,0l0,0l0,0l0,0l0,0l0,0l0,0l0,0l0,0l0,0l0,0l0,0l0,0l0,0l0,0
		l0,0l0,0l0,0l0,0l0,0l0,0l0,0l0,0l0,0l0,0l0,0l0,0l0,0l0,0l0,0l0,0l0,0l0,0.1l0,0.1l0,0.1l0,0.1l0,0.1l0,0.2l0,0.2l0,0.2l0,0.2
		l0,0.6l0,1l0,0.4l0,0.5l0,0.7l0,0.9l0,1l0,3.7l0,1.4l0,0.7l0,0.7l0,0.7l0,0.7l0,0.7l0,0.7l0,0.7l0,0.7l0,0.5l0,0.5l0,0.5l0,0.5
		l0,0.7l-0.1,0.7l-0.1,0.7l-0.1,0.7l-0.1,0.7l-0.1,0.7l-0.1,1.3L35.2,49l0,0.3l0,0.3l0,0.3l0,0.3l0,0.3l0,0.3l0,0.3l0,0.3l0,0.3
		l0,0.3l0,0.3l0,0.3l-4.1,0l-4.1,0l-2,0l-2,0l-2,0l-2,0l-2,0l-2,0l-2,0l-2,0l-2,0l-2,0l-2,0l-2,0l-1.6,0l0,1.6l0,0.6l0,0.6l0,2.3
		l0,0.6l0,0.6l0,1.2l0,0.6l0,0.3l0,0.3l0,0.3l0,0.3l0,0.3l0,0.3l0,0.7l0,0.3l0,0.3l0,0.4l0,0.4l0,0.4l0,0.3l0,0.3l0,0.6l0,0.4l0,0.2
		l0,0.2l0,0.3l0,0.3l0,0.2l0,0.2l-0.1,0.9l0,0.2l0,0.2l0,0.3l0,0.3l0,0.2l0,0.2l0,0.5l0,1.7l1.7-0.1l0.7,0l0,1.8l0,1.8l0,1.8l0,1.8
		l0,3.6l0,3.6l0,10.8l0,3.6l0,3.6l0,1.8l0,1.8l0,1.8l0,1.8l0,1.8l0,1.8l0,1.8l0,1.8l0,1.8l0,1.8l0,1.8l0,1.8l0,1.8l0,1.8l0,0.9
		l0,0.9l0,0.9l0,0.9l0,0.5l0,0.5l0,0.5l0,0.5l0,0.5l0,0.5l0,0.5l0,0.5l0.1,1.5l1.5,0l1.7,0l1.7,0l1.7,0l1.7,0l2.4,0l2.4,0l2.8,0
		l2.8,0l5.6,0.1l13,0.2l7.4,0.1l7.4,0.1l4.1,0l4.1,0l4.1,0l4.1,0l3.5,0l3.5,0l3.5,0l3.5,0l4.8,0l4.8,0l4.8,0l4.8,0l5.3,0l5.3,0
		l2.7,0l2.7,0l2.7,0l2.7,0l2.7,0l2.7,0l2.7,0l2.7,0l2.7,0l2.7,0l2.7,0l2.7,0l3,0l3,0l3,0l3,0l3,0l3,0l3,0l3,0l3,0l3,0l3,0l3,0l3,0
		l3,0l3-0.1l3-0.1l1.5,0l0.1-1.5l0-0.5l0-0.5l0-0.5l0-0.5l0-0.5l0-0.5l0-0.5l0-0.5l0-0.5l0-0.5l0-1l0-1l0-1l0-1.8l0-1.8l0-1.8l0-1.8
		l0-1.8l0-1.8l0-1.8l0-1.8l0-1.8l0-1.8l0-1.8l0-1.8l0-1.8l0-1.8l0-3.7l-0.1-14.7l0-3.7l0-1.8l0-1.8l0-1.8l0-1.8l0-1.8l0-1.8l0.8,0
		l1.7,0l0-1.7l0-0.3l0-0.3l0-0.2l0-0.2l-0.1-0.9l0-0.2l0-0.2l0-0.2l0-0.2l0-0.2l0-0.2l0-0.3l0-1.3l0-0.4l0-0.2l0-0.2l0-0.3l0-0.3
		l0-0.3l-0.1-0.9l0-0.3l0-0.3l0-0.3l0-0.3l0-0.3l0-0.3l0-0.5l0-1.7l0-0.6l0-0.6l0-2.1l0-0.5l0-0.5l0-1.6l-1.6,0l-2,0l-2,0l-2,0l-2,0
		l-2,0l-2,0l-2,0l-2,0l-2,0l-2,0l-2,0l-2,0l-4.1,0l-4.1,0l0-0.3l0-0.3l0-0.3l0-0.3l0-0.3l0-0.3l0-0.3l0-0.3l0-0.3l0-0.3l0-0.3l0-0.3
		l-0.1-0.6l-0.1-1.3l-0.1-0.7l-0.1-0.7l-0.1-0.7l-0.1-0.7l-0.1-0.7l0-0.7l0-0.5l0-0.5l0-0.5l0-0.5l0-0.6l0-0.6l0-0.6l0-0.6l0-0.7
		l0-0.7l0-0.7l0-0.7l0-1.3l0-2.4l0-1.1l0-1.1l0-0.6l0-0.6l0-0.5l0-0.5l0-0.5l0-0.5l0-0.5l0-0.5l0-0.5l0-0.5l0.3,0l0.3,0l0.3,0l0.1,0
		l0.1,0l0.1,0l0.1,0l0.1,0l0.1,0l0.1,0l0.1,0l0.1,0l0.1,0l0.1,0l0.1,0l0.1,0l0.1,0l0.1,0l0.1,0l0.1,0l0.1,0l0.1,0l0.1,0l0.1,0l0.1,0
		l0.1,0l0.1,0l0.1,0l0.1,0l0.1,0l0.1,0l0.1,0l0,0l0,0l0,0l0,0l0,0l0,0l0,0l0,0l0,0l0,0l0,0l0,0l0,0l0,0l0,0l0,0l0,0l0,0l0,0l0,0l0,0
		l0,0l0,0l0-0.1l0-0.1l0-0.1l0-0.1l0-0.1l0-0.1l0-0.1l0-0.1l0-0.1l0-0.1l0-0.1l0-0.1l0-0.1l0-0.1l0-0.1l0-0.1l0-0.1l0-0.1l0-0.1
		l0-0.1l0-0.1l0-0.1l0-0.1l0-0.1l0-0.1l0-0.1l0-0.1l0-0.1l0-0.1l0-0.1l0-0.1l0-0.1l0-0.1l0-0.1l0-0.1l0,0l0,0l0,0l0,0l0,0l0,0l0,0
		l0,0l0,0l0,0l0,0l0,0l0,0l0,0l-0.1-0.1l-0.1-0.1l-0.1-0.1l-0.1-0.1l-0.1-0.1l-0.1-0.1l-0.1-0.1l-0.1-0.1l-0.1-0.1l-0.1-0.1
		l-0.1-0.1l-0.1-0.1l-0.1-0.1l-0.1-0.1l-0.1-0.1l-0.1-0.1l-0.1-0.1l-0.1-0.1l-0.1-0.1l-0.1-0.1l-0.1-0.1l-0.3-0.1l-0.3-0.1l-0.3-0.1
		l-0.3-0.1l-0.3-0.1l-0.3-0.1l-0.3-0.1l-0.3-0.1l-0.7-0.2L145,13.4l-9.7-2.7l-4.8-1.3l-4.8-1.3l-4.8-1.3L116,5.4l-3.5-1l-3.5-1
		L108,3.2l-0.9-0.3l-0.9-0.3l-0.5-0.1l-0.5-0.1l-0.5-0.1l-0.5-0.1l-0.5-0.1l-0.5-0.1L103,1.7l-0.4-0.1l-0.4-0.2l-0.4-0.2L101.2,1
		l-0.4-0.2l-0.4-0.2l-0.4-0.2l-0.5-0.2l-0.5,0.1l-2.5,0.7l-2.5,0.7l-2.5,0.7l-2.5,0.7l-2.5,0.7l-2.5,0.7l-2.5,0.7l-2.5,0.7l-2,0.6
		l-2,0.6l-2,0.6l-2,0.6l-2,0.6l-2,0.6l-2,0.6l-2,0.6l-1.3,0.4l-1.3,0.4l-1.3,0.4L57.6,12L55,12.8l-1.4,0.4l-1.4,0.4L50.9,14
		l-1.4,0.4L48,14.9l-1.5,0.4l-1.3,0.4L44,16l-1.8,0.5l-2.4,0.7l-0.5,0.1l-0.5,0.1l-0.5,0.1l-0.2,0.1l-0.2,0.1l-0.2,0.1l-0.2,0.1
		l-0.2,0.1L37,18l-0.2,0.1l-0.2,0.1l-0.2,0.1l-0.2,0.1l-0.2,0.1l-0.2,0.1l-0.2,0.1l-0.2,0.1l-0.1,0.1l-0.1,0.1l-0.1,0.1L35,18.9
		L35,19l-0.1,0l-0.1,0l-0.1,0l-0.1,0l-0.1,0l-0.1,0l-0.1,0l0,0.1l0,0.1l0,0.1l0,0.1l0,0.1l0,0.1l0,0.1l0,0.1l0,0.1l0,0.1l0,0.1
		l0,0.1l0,0.1l0,0.1l0,0.1l0,0.1l0,0.1l0,0.1l0,0.1l0,0.1l0,0.1l0,0.1l0,0.1l0,0.1l0,0.1l0,0.1l0,0.1l0,0.1l0,0.1l0,0.1l0,0.1l0,0.1
		l0,0.1l0,0.1l0,0.1l0,0.1l0,0.1l0,0.1l0,0.1l0,0.1l0,0.1l0,0.1l0,0.1l0,0.1l0,0.1l0,0.1l0,0.1l0,0.1l0,0l0,0l0,0l0,0l0,0l0,0l0,0
		l0,0l0,0l0,0l0,0l0,0l0,0L34,22.7L34,22.7L34,22.7z M27.4,63.9l1.1,0l1.1,0l1.1,0l1.1,0l2.2,0l2.2,0l2.2,0l2.2,0l6.8,0.1l2.3,0
		l3.1,0l3.1,0l3.1,0l3.1,0l2,0l2,0l4,0l4,0l4,0l4,0l4,0l12.1,0l4,0l4,0l4,0l4,0l2,0l2,0l2,0l2,0l2,0l2,0l3.2,0l1.6,0l1.6,0l1.6,0
		l1.6,0l1.6,0l1.6,0l1.6,0l1.6,0l1.6,0l1.6,0l1.7,0l1.7,0l1.7,0l1.7,0l1.7,0.1l1.7,0.1l1.7,0.1l1.7,0.1l1.9,0.1l1.9,0.1l1.9,0.1
		l1.9,0.1l1.9,0.1l1.8,0.1l1.8,0.1l1.8,0.1l0,0.4l0,0.4l0,0.4l0,0.4l0,0.4l0,0.4l0,0.4l0,0.4l-2.1,0l-2.1,0l-1.7,0l-1.7,0l-1.3,0
		l-1.3,0l-1.3,0l-1.3,0l-1.3,0l-1.3,0l-1.3,0l-1.3,0l-1.3,0l-1.3,0l-2.7,0.1l-2.7,0.1l-2.7,0.1l-2.7,0.1l-10.6,0.3l-2.7,0.1
		l-2.7,0.1l-2.7,0.1l-2.7,0.1l-1.3,0l-1.3,0l-1.3,0l-1.3,0l-1.3,0l-1.3,0l-2.1,0l-2.1,0l-2.1,0l-2.1,0l-1.2,0l-1.2,0l-1.2,0l-1.2,0
		l-1.2,0l-1.2,0l-2.5,0l-2.5,0l-2.5,0l-2.5,0l-2.5,0l-2.5,0l-2.5,0l-2.5,0l-2.5,0l-5-0.1l-5-0.1l-5-0.1l-2.5,0l-2.5,0l-2.5,0l-2.5,0
		l-2.5,0L46,69l-2.3,0l-2.3,0l-2.3,0l-2.3,0l-2.3,0l-2.3,0l-1.2,0l-1.2,0l-1.2,0l-1.2,0l0-0.6l0-0.6l0-0.6l0-0.6l0-0.6l0-0.6l0-0.6
		L27.4,63.9z M176.4,68.6l0-0.5l0-0.5l0-0.5l0-0.5l0-0.5l0-0.5l0-0.5l0-0.5l-0.1-0.1l-0.1-0.1l-0.1-0.1l-0.1-0.1l-0.1-0.1l-0.1-0.1
		l-0.1-0.1l-0.1-0.1l-0.1-0.1l-0.1-0.1l-0.1-0.1l-0.1-0.1l-0.1-0.1l-0.1-0.1l-0.1-0.1l-0.1-0.1l-0.2-0.1l-0.2-0.1l-0.3-0.1l-0.3-0.1
		l-0.3-0.1l-0.9-0.3l-0.9-0.3l-1.8-0.5l-1.8-0.5L166,61l-1.8-0.5l-15.7-4.3l3.2,0l3.2,0l3.2,0l3.2,0l1.7,0l8.2,0l4.1,0l2,0l2,0l2,0
		l2,0l2,0l2,0l2,0l2,0l2,0l2,0l0,0.9l0,0.9l0,0.8l0,1.7l0,0.4l0,0.4l0,0.2l0,0.2l0,0.2l0,0.2l0,0.5l0.1,0.9l0,0.5l0,0.4l0,0.2l0,0.2
		l0,0.3l0,0.3l0,1l0,0.3l0,0.3l0,0.3l0,0.3l0,0.3l0,0.3l0,0.3l0,0.3l-0.7,0l-1.6,0l-1.5,0l-1.7,0l-2,0l-2.2,0l-2.3,0l-2.4,0l-2.5,0
		L176.4,68.6z M31.9,62.5l1.6-0.4l5.7-1.6l2.7-0.7l1.3-0.4l1.3-0.4l1.4-0.4l1.4-0.4l1.4-0.4l1.4-0.4l1.4-0.4l1.4-0.4l1.4-0.4l4-1.2
		l1.3-0.4l1.3-0.4l1.3-0.4l1.3-0.4l2-0.6l2-0.6l2-0.6l2-0.6l2-0.6l2-0.6l2-0.6l2-0.6l2.5-0.7l2.5-0.7l2.5-0.7l2.5-0.7l2.5-0.7
		l2.5-0.7l2.5-0.7l2.5-0.7l0.3,0.1l0.3,0.1l0.3,0.1l0.3,0.1l0.3,0.1l0.3,0.1l0.4,0.1l0.4,0.1l0.4,0.1l0.4,0.1l0.4,0.1l0.4,0.1
		l0.7,0.2l0.7,0.2l0.6,0.2l0.6,0.2l1.1,0.3l1.1,0.3l4.9,1.4l3.8,1.1l3.8,1.1l3.8,1.1l3.8,1l3.8,1l7.6,2.1l15.2,4.2l7.8,2.2l1.8,0.5
		l1.8,0.5L168,63l1.7,0.5l1.7,0.5l0.6,0.2l-2.9-0.1l-2.9-0.1l-1.5-0.1l-1.5-0.1l-1.5-0.1l-1.5-0.1l-1.7-0.1l-1.7-0.1l-1.7-0.1
		l-1.7-0.1l-1.7,0l-1.7,0l-1.7,0l-1.7,0l-1.6,0l-1.6,0l-1.6,0l-1.6,0l-1.6,0l-1.6,0l-1.6,0l-1.6,0l-1.6,0l-1.6,0l-3.2,0l-2,0l-2,0
		l-2,0l-2,0l-2,0l-2,0l-4,0l-4,0l-4,0l-4,0l-12.1,0l-4,0l-4,0l-4,0l-4,0l-4,0l-2,0l-2,0l-3.1,0l-3.1,0l-3.1,0l-3.1,0l-2.3,0L42,62.6
		l-3.4,0l-1.7,0l-1.7,0l-1.7,0L31.9,62.5z M4,56.2l2,0l2,0l2,0l2,0l2,0l2,0l2,0l2,0l2,0l2,0l4.1,0l8.2,0l1.7,0l2.8,0l2.8,0l2.8,0
		l2.8,0l-1.4,0.4l-1.4,0.4l-1.4,0.4l-1.4,0.4l-1.3,0.4l-1.3,0.4l-2.7,0.7l-5.7,1.6l-1.8,0.5l-0.9,0.2l-0.9,0.2l-0.9,0.2l-0.9,0.2
		l-0.9,0.2L26,62.7l0,0.4l0,0.4l0,0.4l0,0.4l0,0.4l0,0.4l0,0.4l0,0.4l0,0.4l0,0.4l0,0.8l0,0.8l0,0.8l-1.2,0l-1.2,0l-1.2,0l-1.2,0
		l-1.2,0l-1.2,0l-1.2,0l-1.2,0l-1.2,0l-1.2,0l-1.2,0l-1.2,0l-1.2,0l-1.2,0l-1.2,0l-1.2,0.1l-1.7,0.1l-0.7,0l0.1-0.8l0-0.3l0-0.3
		l0-0.2l0-0.2l0-0.3l0-0.3l0-0.5l0-0.9l0-0.2l0-0.2l0-0.3l0-0.3l0-0.2l0-0.2l0-0.5l0-0.5l0-0.5l0-0.3l0-0.3l0-0.3l0-0.3l0-0.2l0-0.2
		l0-0.5l0-0.5L4,59l0-0.9l0-1L4,56.2z M160.2,22.9l-1.3,0l-1.3,0l-1.3,0l-1.3,0l-1.3,0l-1.3,0l-1.3,0l-1.3,0l-1.3,0l-1.3,0l-2.5-0.1
		l-2.5,0l-2.5,0l-2.7,0l-2.7,0l-2.7,0l-2.7,0l-2.7,0l-2.7,0l-2.7,0l-2.7,0l-2.7,0l-2.7,0l-2.7,0l-2.7,0l-5.4,0l-16.2,0l-5.4,0
		l-2.7,0l-2.7,0l-2.7,0l-2.7,0l-2.7,0l-2.7,0l-2.7,0l-2.7,0l-2.7,0l-2.7,0l-3.6,0L43,21.9l-1.8,0l-1.8,0l0.1-1.2l1.8-0.5l1.8-0.5
		l1.2-0.3l1.2-0.3l1.2-0.3l1.2-0.3l1.1-0.3l1.1-0.3l1.1-0.3l1.1-0.3l1-0.3l1-0.3l2-0.6l2.2-0.7l2.2-0.7l1.3-0.4l1.4-0.4l1.4-0.4
		L66,13l1.4-0.4l1.4-0.4l1.4-0.4l1.4-0.4l1.6-0.5l1.6-0.4l1.6-0.4l1.6-0.4l1.6-0.4l1.6-0.4l1.6-0.4l1.6-0.4L86,7.3l1.9-0.5l1.9-0.5
		l1.9-0.5l1.9-0.5l1.9-0.5l1.9-0.5l1.9-0.5l0.3,0.1L99.8,4l0.3,0.1l0.3,0.1l0.3,0.1l0.3,0.1l0.6,0.2l0.6,0.2l0.6,0.2l0.6,0.2
		l0.6,0.2l0.6,0.2l0.6,0.2l0.6,0.2l0.6,0.2l1.3,0.4l3.9,1.1l3.4,1l3.4,1l3.4,1l3.4,0.9l6.9,1.9l6.9,1.9l11,3l5.5,1.5l5.5,1.5l-1.2,0
		L160.2,22.9z M161.2,54.5l-4.7,0l-2.4,0l-2.4,0l-2.4,0l-2.4,0l-2.4,0l-2.3,0l-5.4-1.5l-5.4-1.5l-5.4-1.5l-5.4-1.5l-6.2-1.7
		l-3.1-0.9l-3.1-0.9l-0.8-0.2l-0.8-0.2l-0.8-0.2l-0.8-0.2l-0.7-0.2l-0.7-0.2l-0.4-0.1l-0.4-0.1l-0.4-0.1l-0.4-0.1l-0.4-0.1l-0.4-0.1
		l-0.4-0.1l-0.4-0.1l-0.4-0.1l-0.4-0.1l-0.4-0.1l-0.4-0.1l-0.2-0.1l-0.2,0.1l-2.5,0.7l-2.5,0.7l-2.5,0.7L89,44.9l-2.5,0.7L84,46.2
		l-2.5,0.7l-2.5,0.7l-2,0.6l-2,0.6l-2,0.6l-2,0.6l-2,0.6L67,51l-2,0.6l-2,0.6l-1.3,0.4l-1.3,0.4l-1.3,0.4l-1.3,0.4l-2.6,0.8l-2.1,0
		l-2.1,0l-2.1,0l-2.1,0l-2.1,0l-2.1,0l-4.3,0l0,0l0-0.7l0-0.7l0-0.4l0-0.4l0-0.3l0-0.3l0-0.3l0-0.3l0-0.3l0-0.3l0-0.3l0-0.3l0-0.3
		l0-0.3l0.1-0.7l0.1-1.4l0.1-0.7l0.1-0.7l0.1-0.7l0.1-0.7l0-0.4l0-0.4l0-0.4l0-0.4l0-0.4l0-0.4l0-0.4l0-0.4l0-0.7l0-0.7l0-0.8l0-0.8
		l0-0.8l0-0.8l0-0.8l0-0.8l0-1.5l0-1.5l0-1.5l0-0.7l0-0.7l0-0.7l0-0.7l0-0.7l0-0.7l0-0.4l0-0.4l0-0.4l0-0.4l0-0.4l0-0.4l0-0.4l0-0.4
		l1.8,0l1.8,0l7.2,0.1l3.6,0l2.7,0l2.7,0l2.7,0l2.7,0l2.7,0l2.7,0l2.7,0l2.7,0l2.7,0l2.7,0l5.4,0l16.2,0l5.4,0l2.7,0l2.7,0l2.7,0
		l2.7,0l2.7,0l2.7,0l2.7,0l2.7,0l2.7,0l2.7,0l2.7,0l2.7,0l2.5,0l2.5,0l2.5,0.1l1.3,0l1.3,0l1.3,0l1.3,0l1.3,0l1.3,0l1.3,0l1.3,0
		l1.3,0l1.3,0l0,0.5l0,0.5l0,0.5l0,0.5l0,0.5l0,0.5l0,0.5l0,0.5l0,0.7l0,0.7l0,0.7l0,0.7l0,2.8l0,1.4l0,0.7l0,0.7l0,0.7l0,0.7l0,0.7
		l0,0.7l0,0.7l0,0.7l0,0.7l0,0.3l0,0.3l0,0.4l0,0.4l0,0.4l0,0.4l0.1,0.7l0.1,0.7l0.1,0.7l0.1,0.7l0.1,1.4l0.1,0.7l0,0.3l0,0.3l0,0.3
		l0,0.3l0,0.3l0,0.3l0,0.3l0,0.3l0,0.2l0,0.2l0,0.4l0,0.4l0,0.7L161.2,54.5L161.2,54.5z M6.2,127.1l0,1.8l0,1.8l0,1.5l0,0.7l0,0.7
		l0,0.7l0,0.7l0,0.7l0,0.7l1.7,0l1.7,0l1.7,0l1.7,0l2.3,0l2.3,0l2.6,0l2.6,0l5.2,0.1l12.6,0.2l7.4,0.1l3.7,0l3.7,0l4.1,0l4.1,0
		l4.1,0l4.1,0l4.1,0l4.1,0l4.1,0l4.1,0l4.1,0l4.1,0l4.1,0l4.1,0l5.2,0l5.2,0l5.2,0l5.2,0l2.6,0l2.6,0l2.6,0l2.6,0l2.6,0l2.6,0l2.6,0
		l2.6,0l2.9,0l2.9,0l2.9,0l2.9,0l2.9,0l2.9,0l2.9,0l2.9,0l2.9,0l2.9,0l2.9,0l2.9,0l2.9,0l2.9,0l2.9,0l2.9-0.1l0-0.4l0-0.4l0-0.8
		l0-0.8l0-0.8l0-0.8l0-0.8l0-0.8l0-1.8l0-1l0-2.1l-1.5,0l-1.5,0l-3,0l-6.1-0.1l-3.4,0l-1.7,0l-1.7,0l-1.7,0l-1.7,0l-1.7,0l-1.7,0
		l-1.8,0l-1.8,0l-1.8,0l-1.8,0l-1.8,0l-1.8,0l-1.8,0l-1.8,0l-1.8,0l-1.8,0l-1.8,0l-1.8,0l-3.5,0.1l-10.6,0.3l-3.5,0.1l-1.8,0l-1.8,0
		l-1.8,0l-1.8,0l-1.8,0l-1.8,0l-1.8,0l-1.8,0l-1.8,0l-1.8,0l-1.7,0l-1.7,0l-1.7,0l-1.7,0l-1.7,0l-1.7,0l-1.7,0l-1.7,0l-1.7,0l-1.7,0
		l-1.7,0l-1.7,0l-1.7,0l-1.7,0l-1.7,0l-1.7,0l-3.3-0.1l-3.3-0.1l-3.3-0.1l-3.3-0.1l-10-0.2l-3.3-0.1l-3.3-0.1l-3.3-0.1l-3.3-0.1
		l-1.7,0l-1.7,0l-1.7,0l-1.7,0l-1.7,0l-1.7,0l-1.7,0l-1.7,0l-1.7,0l-1.7,0l-1.7,0l-1.7,0l-1.7,0l-1.7,0l-1.7,0l-1.7,0l-1.7,0l-1.7,0
		l-1.5,0l-1.5,0l-1.5,0l-1.5,0l-1.5,0l-1.5,0l-1.5,0L6.2,127.1z M6.1,125.7l0-1.7l0-1.7l0-1.7l0-1.7l0-1.7l0-1.7l0-1.7l0-1.7l0-1.7
		l0-1.7l0-1.7l0-1.7l0-3.4l0-3.4l0-10.2l0-3.4l0-3.4l0-1.7l0-1.7l0-1.7l0-1.7l0-1.7l0-1.7l0-0.3l1.2-0.1l1.2,0l1.2,0l1.2,0l1.2,0
		l1.2,0l1.2,0l1.2,0l1.2,0l1.2,0l1.2,0l1.2,0l1.2,0l1.2,0l1.2,0l1.2,0l1.2,0l1.2,0l1.2,0l1.2,0l1.2,0l1.2,0l1.2,0l1.2,0l2.5,0l2.5,0
		l2.5,0l2.5,0l2.5,0l2.5,0l2.5,0l2.5,0l2.5,0l2.5,0l5,0.1l5,0.1l5,0.1l2.5,0l2.5,0l2.5,0l2.5,0l2.5,0l2.5,0l2.5,0l2.5,0l2.5,0l1.2,0
		l1.2,0l1.2,0l1.2,0l1.2,0l1.2,0l2.1,0l2.1,0l2.1,0l2.1,0l1.3,0l1.3,0l1.3,0l1.3,0l1.3,0l1.3,0l2.7-0.1l2.7-0.1l2.7-0.1l2.7-0.1
		l2.7-0.1l8-0.2l2.7-0.1l2.7-0.1l2.7-0.1l2.7-0.1l1.3,0l1.3,0l1.3,0l1.3,0l1.3,0l1.3,0l1.3,0l1.3,0l1.3,0l1.3,0l1.7,0l1.7,0l1.3,0
		l1.3,0l1.3,0l1.3,0l2.2,0l2.2,0l2.2,0l6.5,0.1l2.2,0l2.2,0l0,0.3l0,1.7l0,1.7l0,1.7l0,1.7l0,1.7l0,1.7l0,3.4l0,3.4l0,10.3l0,3.4
		l0,3.4l0,3.4l0,1.7l0,1.7l0,1.7l0,1.7l0,1.7l0,1.7l0,1.7l0,1.7l0,1.7l0,1.7l-1.6,0l-1.6,0l-3.2,0l-6.5-0.1l-3.2,0l-1.6,0l-1.6,0
		l-1.6,0l-1.6,0l-1.6,0l-1.6,0l-1.8,0l-1.8,0l-1.8,0l-1.8,0l-1.8,0l-1.8,0l-1.8,0l-1.8,0l-1.8,0l-1.8,0l-1.8,0l-1.8,0l-3.5,0.1
		l-10.6,0.3l-3.5,0.1l-1.8,0l-1.8,0l-1.8,0l-1.8,0l-1.8,0l-1.8,0l-1.8,0l-1.8,0l-1.8,0l-1.8,0l-1.6,0l-1.6,0l-1.6,0l-1.6,0l-1.6,0
		l-1.6,0l-1.6,0l-1.6,0l-1.6,0l-1.6,0l-1.6,0l-1.6,0l-1.6,0l-1.6,0l-1.6,0l-1.6,0l-3.3-0.1l-3.3-0.1l-3.3-0.1l-3.3-0.1l-9.8-0.2
		l-3.3-0.1l-3.3-0.1l-3.3-0.1l-3.3-0.1l-1.6,0l-1.6,0l-1.6,0l-1.6,0l-1.6,0l-1.6,0l-1.6,0l-1.6,0l-1.6,0l-1.6,0l-1.6,0l-1.6,0
		l-1.6,0l-1.6,0l-1.6,0l-1.6,0l-1.6,0l-1.6,0l-1.6,0l-1.6,0l-1.6,0l-1.6,0l-1.6,0l-1.6,0.1l-1.6,0.1L6.1,125.7z"/>
</g>
<g id="POLYLINE_423_">
	<path class="st0" d="M34,22.7L34,22.7C34.1,22.7,34.1,22.7,34,22.7l0.1,0.1l0,0l0,0c0,0,0,0,0,0l0,0c0,0,0,0,0,0l0,0c0,0,0,0,0,0
		l0,0c0,0,0.1,0,0.1,0l0,0l0,0l0,0c0,0,0,0,0,0s0,0,0,0s0,0,0,0s0,0,0,0l0.1,0l0.1,0l0.1,0c0,0,0.1,0,0.1,0s0.1,0,0.1,0s0.1,0,0.1,0
		l0.1,0.1c0,0,0.2,0.1,0.2,0.1s0.1,0,0.1,0s0,0,0,0s0,0,0,0s0,0,0,0c0,0,0,0,0,0c0,0,0,0,0,0c0,0,0,0,0,0c0,0,0,0,0,0c0,0,0,0,0,0
		c0,0,0,0,0,0c0,0,0,0,0,0c0,0,0,0,0,0c0,0,0,0,0,0c0,0,0,0,0,0c0,0,0,0,0,0c0,0,0,0,0,0s0,0,0,0s0,0,0,0l0,0c0,0,0,0,0,0l0,0l0,0
		c0,0,0,0,0,0s0,0,0,0l0,0.1c0,0,0,0.1,0,0.1s0,0.1,0,0.1l0,0.1l0,0.1c0,0,0,0.2,0,0.2l0,0.2l0,0.2c0,0,0,0.2,0,0.2s0,0.6,0,0.6l0,1
		l0,0.4c0,0,0,0.5,0,0.5s0,0.7,0,0.7s0,0.9,0,0.9s0,1,0,1s0,3.7,0,3.7l0,1.4c0,0,0,0.7,0,0.7l0,0.7c0,0,0,0.7,0,0.7s0,0.7,0,0.7
		s0,0.7,0,0.7l0,0.7c0,0,0,0.7,0,0.7s0,0.7,0,0.7l0,0.5c0,0,0,0.5,0,0.5l0,0.5c0,0,0,0.5,0,0.5l0,0.7c0,0-0.1,0.7-0.1,0.7
		s-0.1,0.7-0.1,0.7l-0.1,0.7c0,0-0.1,0.7-0.1,0.7s-0.1,0.7-0.1,0.7l-0.1,1.3c0,0-0.1,0.6-0.1,0.6l0,0.3l0,0.3c0,0,0,0.3,0,0.3l0,0.3
		l0,0.3c0,0,0,0.3,0,0.3s0,0.3,0,0.3s0,0.3,0,0.3s0,0.3,0,0.3s0,0.3,0,0.3l0,0.3c0,0,0,0.3,0,0.3s-4.1,0-4.1,0s-4.1,0-4.1,0l-2,0
		l-2,0c0,0-2,0-2,0l-2,0l-2,0c0,0-2,0-2,0s-2,0-2,0s-2,0-2,0l-2,0l-2,0c0,0-2,0-2,0s-2,0-2,0s-1.6,0-1.6,0l0,1.6l0,0.6
		c0,0,0,0.6,0,0.6l0,2.3l0,0.6l0,0.6l0,1.2l0,0.6c0,0,0,0.3,0,0.3l0,0.3l0,0.3l0,0.3c0,0,0,0.3,0,0.3l0,0.3l0,0.7c0,0,0,0.3,0,0.3
		l0,0.3c0,0,0,0.4,0,0.4s0,0.4,0,0.4l0,0.4l0,0.3l0,0.3l0,0.6l0,0.4c0,0,0,0.2,0,0.2s0,0.2,0,0.2l0,0.3c0,0,0,0.3,0,0.3l0,0.2l0,0.2
		c0,0-0.1,0.9-0.1,0.9s0,0.2,0,0.2s0,0.2,0,0.2s0,0.3,0,0.3s0,0.3,0,0.3s0,0.2,0,0.2s0,0.2,0,0.2l0,0.5l0,1.7c0,0,1.7-0.1,1.7-0.1
		s0.7,0,0.7,0l0,1.8l0,1.8c0,0,0,1.8,0,1.8s0,1.8,0,1.8l0,3.6c0,0,0,3.6,0,3.6l0,10.8c0,0,0,3.6,0,3.6s0,3.6,0,3.6l0,1.8
		c0,0,0,1.8,0,1.8s0,1.8,0,1.8s0,1.8,0,1.8s0,1.8,0,1.8l0,1.8l0,1.8c0,0,0,1.8,0,1.8s0,1.8,0,1.8l0,1.8l0,1.8l0,1.8c0,0,0,1.8,0,1.8
		s0,1.8,0,1.8l0,0.9l0,0.9c0,0,0,0.9,0,0.9l0,0.9l0,0.5l0,0.5l0,0.5c0,0,0,0.5,0,0.5s0,0.5,0,0.5s0,0.5,0,0.5s0,0.5,0,0.5
		s0,0.5,0,0.5s0.1,1.5,0.1,1.5s1.5,0,1.5,0l1.7,0l1.7,0l1.7,0l1.7,0l2.4,0c0,0,2.4,0,2.4,0l2.8,0l2.8,0l5.6,0.1c0,0,13,0.2,13,0.2
		l7.4,0.1c0,0,7.4,0.1,7.4,0.1s4.1,0,4.1,0l4.1,0l4.1,0l4.1,0c0,0,3.5,0,3.5,0s3.5,0,3.5,0s3.5,0,3.5,0s3.5,0,3.5,0l4.8,0l4.8,0
		l4.8,0c0,0,4.8,0,4.8,0l5.3,0l5.3,0l2.7,0l2.7,0l2.7,0l2.7,0l2.7,0l2.7,0l2.7,0l2.7,0l2.7,0l2.7,0l2.7,0c0,0,2.7,0,2.7,0l3,0l3,0
		c0,0,3,0,3,0l3,0c0,0,3,0,3,0l3,0c0,0,3,0,3,0l3,0l3,0l3,0l3,0c0,0,3,0,3,0s3,0,3,0s3,0,3,0l3-0.1l3-0.1l1.5,0l0.1-1.5
		c0,0,0-0.5,0-0.5s0-0.5,0-0.5l0-0.5l0-0.5c0,0,0-0.5,0-0.5l0-0.5l0-0.5c0,0,0-0.5,0-0.5s0-0.5,0-0.5s0-0.5,0-0.5l0-1l0-1l0-1l0-1.8
		c0,0,0-1.8,0-1.8l0-1.8l0-1.8c0,0,0-1.8,0-1.8l0-1.8l0-1.8c0,0,0-1.8,0-1.8s0-1.8,0-1.8l0-1.8l0-1.8l0-1.8l0-1.8l0-1.8
		c0,0,0-3.7,0-3.7s-0.1-14.7-0.1-14.7l0-3.7c0,0,0-1.8,0-1.8l0-1.8l0-1.8l0-1.8l0-1.8l0-1.8l0.8,0c0,0,1.7,0,1.7,0l0-1.7l0-0.3
		c0,0,0-0.3,0-0.3l0-0.2l0-0.2l-0.1-0.9l0-0.2l0-0.2l0-0.2l0-0.2l0-0.2l0-0.2c0,0,0-0.3,0-0.3l0-1.3c0,0,0-0.4,0-0.4s0-0.2,0-0.2
		l0-0.2l0-0.3l0-0.3c0,0,0-0.3,0-0.3l-0.1-0.9c0,0,0-0.3,0-0.3s0-0.3,0-0.3l0-0.3l0-0.3l0-0.3l0-0.3l0-0.5c0,0,0-1.7,0-1.7l0-0.6
		l0-0.6l0-2.1l0-0.5c0,0,0-0.5,0-0.5s0-1.6,0-1.6s-1.6,0-1.6,0l-2,0l-2,0l-2,0l-2,0l-2,0l-2,0c0,0-2,0-2,0s-2,0-2,0s-2,0-2,0
		s-2,0-2,0s-2,0-2,0l-2,0l-4.1,0l-4.1,0l0-0.3l0-0.3l0-0.3c0,0,0-0.3,0-0.3s0-0.3,0-0.3l0-0.3l0-0.3c0,0,0-0.3,0-0.3l0-0.3l0-0.3
		l0-0.3c0,0,0-0.3,0-0.3l-0.1-0.6l-0.1-1.3c0,0-0.1-0.7-0.1-0.7s-0.1-0.7-0.1-0.7s-0.1-0.7-0.1-0.7s-0.1-0.7-0.1-0.7l-0.1-0.7l0-0.7
		c0,0,0-0.5,0-0.5l0-0.5l0-0.5l0-0.5l0-0.6l0-0.6l0-0.6l0-0.6l0-0.7l0-0.7c0,0,0-0.7,0-0.7s0-0.7,0-0.7l0-1.3c0,0,0-2.4,0-2.4l0-1.1
		c0,0,0-1.1,0-1.1l0-0.6l0-0.6l0-0.5c0,0,0-0.5,0-0.5l0-0.5l0-0.5l0-0.5l0-0.5l0-0.5l0-0.5c0,0,0.3,0,0.3,0l0.3,0l0.3,0l0.1,0l0.1,0
		c0,0,0.1,0,0.1,0l0.1,0c0,0,0.1,0,0.1,0s0.1,0,0.1,0l0.1,0l0.1,0l0.1,0c0,0,0.1,0,0.1,0l0.1,0c0,0,0.1,0,0.1,0l0.1,0l0.1,0l0.1,0
		l0.1,0l0.1,0l0.1,0l0.1,0c0,0,0.1,0,0.1,0s0.1,0,0.1,0l0.1,0l0.1,0c0,0,0.1,0,0.1,0s0.1,0,0.1,0l0.1,0l0.1,0l0.1,0l0.1,0l0,0
		c0,0,0,0,0,0l0,0c0,0,0,0,0,0l0,0c0,0,0,0,0,0l0,0l0,0l0,0l0,0l0,0l0,0l0,0l0,0l0,0l0,0l0,0l0,0l0,0c0,0,0,0,0,0l0,0l0,0
		c0,0,0,0,0,0l0-0.1l0-0.1c0,0,0-0.1,0-0.1l0-0.1l0-0.1l0-0.1l0-0.1l0-0.1l0-0.1c0,0,0-0.1,0-0.1l0-0.1l0-0.1l0-0.1l0-0.1l0-0.1
		l0-0.1l0-0.1c0,0,0-0.1,0-0.1s0-0.1,0-0.1l0-0.1l0-0.1l0-0.1c0,0,0-0.1,0-0.1l0-0.1l0-0.1c0,0,0-0.1,0-0.1l0-0.1l0-0.1l0-0.1l0-0.1
		c0,0,0-0.1,0-0.1l0-0.1l0-0.1c0,0,0-0.1,0-0.1s0-0.1,0-0.1l0,0l0,0l0,0c0,0,0,0,0,0l0,0c0,0,0,0,0,0l0,0l0,0c0,0,0,0,0,0l0,0l0,0
		l0,0l0,0l0,0l-0.1-0.1c0,0-0.1-0.1-0.1-0.1s-0.1-0.1-0.1-0.1l-0.1-0.1l-0.1-0.1l-0.1-0.1l-0.1-0.1c0,0-0.1-0.1-0.1-0.1
		s-0.1-0.1-0.1-0.1s-0.1-0.1-0.1-0.1l-0.1-0.1l-0.1-0.1l-0.1-0.1l-0.1-0.1l-0.1-0.1l-0.1-0.1l-0.1-0.1l-0.1-0.1c0,0-0.1-0.1-0.1-0.1
		l-0.1-0.1l-0.1-0.1l-0.3-0.1l-0.3-0.1c0,0-0.3-0.1-0.3-0.1s-0.3-0.1-0.3-0.1l-0.3-0.1l-0.3-0.1c0,0-0.3-0.1-0.3-0.1
		s-0.3-0.1-0.3-0.1l-0.7-0.2L145,13.4l-9.7-2.7l-4.8-1.3l-4.8-1.3c0,0-4.8-1.3-4.8-1.3L116,5.4l-3.5-1l-3.5-1L108,3.2l-0.9-0.3
		c0,0-0.9-0.3-0.9-0.3l-0.5-0.1l-0.5-0.1l-0.5-0.1c0,0-0.5-0.1-0.5-0.1l-0.5-0.1l-0.5-0.1L103,1.7c0,0-0.4-0.1-0.4-0.1l-0.4-0.2
		l-0.4-0.2c0,0-0.4-0.2-0.4-0.2l-0.4-0.2l-0.4-0.2l-0.4-0.2l-0.5-0.2l-0.5,0.1c0,0-2.5,0.7-2.5,0.7l-2.5,0.7l-2.5,0.7
		c0,0-2.5,0.7-2.5,0.7s-2.5,0.7-2.5,0.7s-2.5,0.7-2.5,0.7s-2.5,0.7-2.5,0.7s-2.5,0.7-2.5,0.7s-2,0.6-2,0.6s-2,0.6-2,0.6l-2,0.6
		l-2,0.6c0,0-2,0.6-2,0.6l-2,0.6c0,0-2,0.6-2,0.6s-2,0.6-2,0.6s-1.3,0.4-1.3,0.4s-1.3,0.4-1.3,0.4s-1.3,0.4-1.3,0.4S57.6,12,57.6,12
		L55,12.8c0,0-1.4,0.4-1.4,0.4s-1.4,0.4-1.4,0.4L50.9,14c0,0-1.4,0.4-1.4,0.4L48,14.9l-1.5,0.4c0,0-1.3,0.4-1.3,0.4S44,16,44,16
		s-1.8,0.5-1.8,0.5l-2.4,0.7c0,0-0.5,0.1-0.5,0.1s-0.5,0.1-0.5,0.1s-0.5,0.1-0.5,0.1s-0.2,0.1-0.2,0.1s-0.2,0.1-0.2,0.1
		s-0.2,0.1-0.2,0.1s-0.2,0.1-0.2,0.1s-0.2,0.1-0.2,0.1S37,18,37,18s-0.2,0.1-0.2,0.1l-0.2,0.1l-0.2,0.1l-0.2,0.1
		c0,0-0.2,0.1-0.2,0.1s-0.2,0.1-0.2,0.1l-0.2,0.1c0,0-0.2,0.1-0.2,0.1l-0.1,0.1c0,0-0.1,0.1-0.1,0.1l-0.1,0.1c0,0-0.1,0.1-0.1,0.1
		L35,19c0,0-0.1,0-0.1,0l-0.1,0l-0.1,0l-0.1,0c0,0-0.1,0-0.1,0l-0.1,0c0,0-0.1,0-0.1,0s0,0.1,0,0.1s0,0.1,0,0.1l0,0.1l0,0.1l0,0.1
		c0,0,0,0.1,0,0.1l0,0.1c0,0,0,0.1,0,0.1l0,0.1l0,0.1l0,0.1l0,0.1c0,0,0,0.1,0,0.1s0,0.1,0,0.1l0,0.1l0,0.1c0,0,0,0.1,0,0.1l0,0.1
		l0,0.1l0,0.1c0,0,0,0.1,0,0.1l0,0.1l0,0.1c0,0,0,0.1,0,0.1s0,0.1,0,0.1l0,0.1l0,0.1c0,0,0,0.1,0,0.1l0,0.1l0,0.1c0,0,0,0.1,0,0.1
		s0,0.1,0,0.1s0,0.1,0,0.1l0,0.1c0,0,0,0.1,0,0.1l0,0.1c0,0,0,0.1,0,0.1s0,0.1,0,0.1s0,0.1,0,0.1s0,0.1,0,0.1l0,0.1c0,0,0,0.1,0,0.1
		l0,0.1c0,0,0,0.1,0,0.1s0,0.1,0,0.1s0,0.1,0,0.1s0,0.1,0,0.1l0,0.1c0,0,0,0,0,0l0,0c0,0,0,0,0,0s0,0,0,0s0,0,0,0s0,0,0,0s0,0,0,0
		s0,0,0,0s0,0,0,0s0,0,0,0s0,0,0,0s0,0,0,0s0,0,0,0L34,22.7L34,22.7L34,22.7"/>
</g>
<g id="POLYLINE_424_">
	<path class="st2" d="M168,91.4l0,1c0,0,0,1,0,1s0,1,0,1s0,1,0,1l0,2.1c0,0,0,2.1,0,2.1l0,2.1c0,0,0,2.1,0,2.1s0,4.2,0,4.2l0,4.2
		l0,2.1l0,2.1l0,2.1c0,0,0,2.1,0,2.1s0,1,0,1s0,1,0,1l0,1c0,0,0,1,0,1l-0.1,0l-0.1,0l-0.2,0l-0.2,0c0,0-0.2,0-0.2,0s-0.2,0-0.2,0
		s-0.2,0-0.2,0l-0.2,0c0,0-0.2,0-0.2,0s-0.2,0-0.2,0l-0.2,0l-0.2,0l-0.2,0c0,0-0.2,0-0.2,0l-0.2,0c0,0-0.2,0-0.2,0l-0.2,0l-0.2,0
		l-0.2,0l-0.2,0l-0.2,0l-0.2,0c0,0-0.2,0-0.2,0s-0.2,0-0.2,0s-0.2,0-0.2,0l-0.2,0l-0.2,0c0,0-0.2,0-0.2,0s-0.1,0-0.1,0s-0.1,0-0.1,0
		s-0.1,0-0.1,0l-0.1,0l-0.1-2.6c0,0,0-1.3,0-1.3s0-1.3,0-1.3l0-0.9c0,0,0-0.9,0-0.9l0-0.9l0-0.9l0-0.9l0-0.9c0,0,0-1.7,0-1.7l0-1.7
		l0-1.7l0-1.7c0,0,0-1.7,0-1.7l0-1.7l0-1.7l0-1.7l0-1.7c0,0,0-6.8,0-6.8s0.1-0.2,0.1-0.2l0.1-0.2l0.1-0.2l0.1-0.2l0.1-0.2
		c0,0,0.1-0.2,0.1-0.2l0.1-0.2l0.1-0.2l0.1-0.2c0,0,0.1-0.2,0.1-0.2l0.1-0.2l0.1-0.2l0.1-0.2l0.1-0.1l0.1-0.1l0-0.1c0,0,0-0.1,0-0.1
		l0-0.1l0-0.1l0-0.1c0,0,0-0.1,0-0.1l0-0.1l0-0.1l0,0c0,0,0,0,0,0l0,0l0,0c0,0,0,0,0,0l0,0c0,0,0,0,0,0s0,0,0,0l0,0l0,0l0,0l0,0
		c0,0,0,0,0,0l0,0l0,0l0,0c0,0,0,0,0,0c0,0,0,0,0,0c0,0,0,0,0,0c0,0,0,0,0,0c0,0,0,0,0,0c0,0,0,0,0,0c0,0,0,0,0,0c0,0,0,0,0,0
		c0,0,0,0,0,0c0,0,0,0,0,0l0,0l0,0l0,0l0,0l0,0l0,0c0,0,0,0,0,0l0,0l0,0c0,0,0,0,0,0s0,0,0,0l0,0l0,0c0,0,0,0,0,0l0,0l0,0
		c0,0,0,0,0,0s0,0,0,0s0,0,0,0l0,0l0,0l0,0l0,0l0,0l0,0l0,0c0,0,0,0,0,0l0,0c0,0,0,0,0,0l0,0c0,0,0,0,0,0l0,0l0,0.1l0,0.1l0.1,0.1
		l0.1,0.1l0.1,0.1l0.1,0.1c0,0,0.1,0.1,0.1,0.1l0.1,0.1l0.1,0.1l0.1,0.2l0.1,0.2l0.1,0.2l0.1,0.2l0.1,0.2l0.1,0.2l0.1,0.2L168,91.4"
		/>
</g>
<g id="POLYLINE_425_">
	<path class="st2" d="M143.3,126l0-0.9l0-0.9l0-0.9l0-0.9c0,0,0-0.9,0-0.9l0-0.9c0,0,0-0.9,0-0.9l0-0.9l0-1l0-1l0-1l0-1l0-1l0-1l0-1
		l0-1l0-1l0-1c0,0,0-1,0-1l0-1c0,0,0-2,0-2l0-2l0-2l0-2c0,0,0-2,0-2l0-2l0-8.2l0.1-0.2c0,0,0.1-0.2,0.1-0.2l0.1-0.2l0.1-0.2
		c0,0,0.1-0.1,0.1-0.1l0.1-0.1l0.1-0.1l0.1-0.1l0.1-0.1l0.1-0.1l0.1-0.1c0,0,0.1-0.1,0.1-0.1l0.1-0.1l0.1-0.1l0.1-0.1c0,0,0,0,0,0
		l0,0l0,0l0,0l0,0c0,0,0,0,0,0s0,0,0,0s0,0,0,0l0,0l0,0l0,0c0,0,0,0,0,0s0,0,0,0s0,0,0,0s0,0,0,0l0,0l0,0l0,0l0,0l0,0l0,0
		c0,0,0,0,0,0l0,0l0,0l0,0l0,0l0,0l0,0l0,0c0,0,0,0,0,0l0,0l0,0l0,0c0,0,0,0,0,0c0,0,0,0,0,0c0,0,0,0,0,0c0,0,0,0,0,0c0,0,0,0,0,0
		c0,0,0,0,0,0c0,0,0,0,0,0c0,0,0,0,0,0c0,0,0,0,0,0c0,0,0,0,0,0l0,0l0,0l0,0l0,0l0,0l0,0l0,0l0,0l0,0l0,0l0,0c0,0,0,0,0,0l0,0
		c0,0,0,0,0,0l0,0c0,0,0,0,0,0s0,0,0,0s0,0.1,0,0.1l0,0.1l0,0.1l0,0.1l0,0.1c0,0,0,0.1,0,0.1s0,0.1,0,0.1l0,0.1l0.1,0.1l0.1,0.1
		l0.1,0.2c0,0,0.1,0.2,0.1,0.2s0.1,0.2,0.1,0.2s0.1,0.2,0.1,0.2l0.1,0.2l0.1,0.2c0,0,0.1,0.2,0.1,0.2l0.1,0.2l0.1,0.2l0.1,0.2
		l0.1,0.2l0.1,0.2l0.1,0.2l0,1.2l0,1.2l0,1.2l0,1.2c0,0,0,1.2,0,1.2l0,1.2c0,0,0,1.2,0,1.2l0,1.2c0,0,0,1.2,0,1.2l0,1.2l0,2.4
		c0,0,0,2.4,0,2.4l0,2.4c0,0,0,4.9,0,4.9l0,2.4l0,2.4l0,2.4c0,0,0,1.2,0,1.2l0,1.2l0,1.2l0,1.2c0,0,0,1.2,0,1.2l0,1.2l-0.2,0l-0.2,0
		l-0.2,0c0,0-0.2,0-0.2,0l-0.2,0c0,0-0.2,0-0.2,0s-0.2,0-0.2,0l-0.2,0c0,0-0.2,0-0.2,0l-0.2,0c0,0-0.2,0-0.2,0l-0.2,0l-0.2,0l-0.2,0
		l-0.2,0l-0.2,0l-0.2,0l-0.2,0c0,0-0.2,0-0.2,0l-0.2,0l-0.2,0l-0.2,0l-0.2,0c0,0-0.2,0-0.2,0l-0.2,0l-0.2,0c0,0-0.2,0-0.2,0l-0.2,0
		c0,0-0.2,0-0.2,0l-0.2,0l-0.2,0L143.3,126"/>
</g>
<g id="POLYLINE_426_">
	<path class="st2" d="M125.6,126.4l-0.1-2.7l0-1.4l0-1.4l0-1.2l0-1.2l0-1.2l0-1.2l0-1.2l0-1.2l0-1.2l0-1.2c0,0,0-1.2,0-1.2l0-1.2
		l0-1.2c0,0,0-1.2,0-1.2l0-2.3l0-2.3l0-2.3l0-7c0,0,0-2.3,0-2.3s0-2.3,0-2.3s0-2.3,0-2.3l0-2.3l0.1-0.2l0.1-0.2c0,0,0.1-0.2,0.1-0.2
		l0.1-0.2c0,0,0.1-0.2,0.1-0.2l0.1-0.2l0.1-0.2c0,0,0.1-0.2,0.1-0.2S126,82,126,82s0.1-0.1,0.1-0.1s0.1-0.1,0.1-0.1s0.1-0.1,0.1-0.1
		s0.1-0.1,0.1-0.1s0.1-0.1,0.1-0.1s0.1-0.1,0.1-0.1l0-0.1l0,0c0,0,0,0,0,0l0,0c0,0,0,0,0,0s0,0,0,0s0,0,0,0s0,0,0,0s0,0,0,0l0,0
		c0,0,0,0,0,0s0,0,0,0s0,0,0,0s0,0,0,0s0,0,0,0l0,0c0,0,0,0,0,0l0,0l0,0l0,0l0,0l0,0c0,0,0,0,0,0l0,0l0,0l0,0l0,0l0,0l0,0
		c0,0,0,0,0,0s0,0,0,0l0,0l0,0l0,0l0,0c0,0,0,0,0,0c0,0,0,0,0,0c0,0,0,0,0,0l0,0l0,0l0,0l0,0l0,0l0,0c0,0,0,0,0,0s0,0,0,0l0,0
		c0,0,0,0,0,0l0,0l0,0c0,0,0,0,0,0l0,0l0,0c0,0,0,0,0,0l0,0c0,0,0,0,0,0l0,0l0,0l0,0l0,0l0,0l0,0l0,0l0,0.1c0,0,0,0.1,0,0.1l0,0.1
		c0,0,0,0.1,0,0.1l0,0.1l0.1,0.1l0.1,0.1l0.1,0.1l0.1,0.1l0.1,0.2c0,0,0.1,0.2,0.1,0.2s0.1,0.2,0.1,0.2l0.1,0.2l0.1,0.2l0.1,0.2
		l0.1,0.2c0,0,0.1,0.2,0.1,0.2l0.1,0.2c0,0,0.1,0.2,0.1,0.2l0.1,0.2l0,1.3l0,1.3l0,1.3l0,1.3l0,1.3l0,1.3l0,1.3l0,1.3
		c0,0,0,1.3,0,1.3l0,1.3l0,1.3l0,1.3c0,0,0,2.7,0,2.7l0,2.7c0,0,0,5.3,0,5.3s0,2.7,0,2.7l0,2.7l0,2.7l0,1.3l0,1.3l0,1.3l0,1.3l0,1.3
		l0,1.3l-0.1,0l-0.1,0c0,0-0.1,0-0.1,0l-0.2,0l-0.2,0l-0.2,0l-0.2,0c0,0-0.2,0-0.2,0l-0.2,0l-0.2,0l-0.2,0l-0.2,0c0,0-0.2,0-0.2,0
		s-0.2,0-0.2,0s-0.2,0-0.2,0l-0.2,0l-0.2,0l-0.2,0c0,0-0.2,0-0.2,0l-0.2,0c0,0-0.2,0-0.2,0l-0.2,0c0,0-0.2,0-0.2,0l-0.2,0l-0.2,0
		l-0.2,0c0,0-0.2,0-0.2,0s-0.2,0-0.2,0s-0.2,0-0.2,0s-0.2,0-0.2,0s-0.1,0-0.1,0L125.6,126.4"/>
</g>
<g id="POLYLINE_427_">
	<polyline class="st2" points="106.5,126.7 106.6,125.8 106.6,124.9 106.7,124 106.7,123 106.7,122.1 106.8,121.2 106.8,120.3 
		106.8,119.3 106.9,118.2 106.9,117 106.9,115.9 107,114.7 107,113.5 107,112.4 107,111.2 107,110 107,108.9 107,107.7 107.1,106.5 
		107.1,105.4 107.1,104.2 107.1,103 107.1,100.7 107.1,98.4 107.1,96 107,93.7 107,86.7 107,84.4 107,82 107,81.9 107.1,81.7 
		107.2,81.5 107.2,81.3 107.3,81.2 107.4,81 107.5,80.9 107.5,80.7 107.6,80.6 107.7,80.5 107.8,80.3 107.8,80.2 107.9,80.1 108,80 
		108.1,79.9 108.1,79.8 108.2,79.8 108.2,79.7 108.2,79.7 108.3,79.6 108.3,79.6 108.4,79.6 108.4,79.5 108.4,79.5 108.5,79.5 
		108.5,79.4 108.6,79.4 108.6,79.4 108.6,79.3 108.7,79.3 108.7,79.3 108.8,79.3 108.8,79.2 108.9,79.2 108.9,79.2 108.9,79.2 
		109,79.2 109,79.1 109.1,79.1 109.1,79.1 109.1,79.1 109.2,79.1 109.2,79.1 109.3,79.1 109.3,79.1 109.3,79.1 109.4,79.1 
		109.4,79.1 109.5,79.1 109.5,79.1 109.5,79.1 109.6,79.1 109.6,79.1 109.7,79.1 109.7,79.1 109.7,79.1 109.8,79.1 109.8,79.1 
		109.9,79.1 109.9,79.1 109.9,79.2 110,79.2 110,79.2 110.1,79.2 110.1,79.2 110.2,79.3 110.2,79.3 110.2,79.3 110.3,79.4 
		110.3,79.4 110.4,79.4 110.4,79.5 110.5,79.5 110.5,79.5 110.5,79.6 110.6,79.6 110.6,79.7 110.7,79.7 110.7,79.7 110.8,79.8 
		110.8,79.8 110.8,79.9 110.9,79.9 111,80.1 111,80.2 111.1,80.3 111.2,80.4 111.3,80.6 111.4,80.7 111.4,80.9 111.5,81 111.6,81.2 
		111.7,81.3 111.7,81.5 111.8,81.7 111.9,81.9 111.9,82.1 112,82.3 112,83.7 112.1,85.1 112.1,86.5 112.1,87.9 112.1,89.3 
		112.1,90.6 112.2,92 112.2,93.4 112.2,94.8 112.2,96.2 112.2,97.6 112.2,99 112.2,100.4 112.2,101.8 112.2,104.6 112.1,110.2 
		112.1,113 112.1,115.8 112.1,117.2 112.1,118.6 112.1,120 112.1,121.4 112.1,122.8 112.1,124.2 112.1,125.6 112.1,127 112,127 
		111.8,126.9 111.6,126.9 111.5,126.8 111.3,126.8 111.1,126.8 111,126.8 110.8,126.7 110.6,126.7 110.4,126.7 110.3,126.7 
		110.1,126.6 109.9,126.6 109.7,126.6 109.5,126.6 109.4,126.6 109.2,126.6 109,126.6 108.8,126.6 108.6,126.6 108.4,126.6 
		108.3,126.6 108.1,126.6 107.9,126.6 107.7,126.6 107.6,126.6 107.4,126.6 107.2,126.6 107,126.6 106.9,126.7 106.7,126.7 
		106.5,126.7 	"/>
</g>
<g id="POLYLINE_428_">
	<polyline class="st2" points="88.1,126.5 88.1,123.8 88,122.5 88,121.1 88,119.9 87.9,118.7 87.9,117.5 87.9,116.3 87.9,115.1 
		87.9,113.9 87.8,112.7 87.8,111.5 87.8,110.3 87.8,109.1 87.8,107.9 87.8,106.6 87.8,104.2 87.8,101.8 87.8,99.4 87.9,92.1 
		87.9,89.7 87.9,87.3 87.9,84.9 87.9,83.7 87.9,82.5 88,82.3 88,82.1 88.1,81.9 88.2,81.7 88.2,81.5 88.3,81.3 88.4,81.1 88.4,81 
		88.5,80.8 88.6,80.7 88.7,80.5 88.8,80.4 88.9,80.2 88.9,80.1 89,80 89.1,79.9 89.1,79.9 89.1,79.8 89.2,79.8 89.2,79.7 89.3,79.7 
		89.3,79.6 89.4,79.6 89.4,79.6 89.5,79.5 89.5,79.5 89.5,79.4 89.6,79.4 89.6,79.4 89.7,79.3 89.7,79.3 89.8,79.3 89.8,79.3 
		89.8,79.2 89.9,79.2 89.9,79.2 90,79.2 90,79.2 90.1,79.1 90.1,79.1 90.2,79.1 90.2,79.1 90.2,79.1 90.3,79.1 90.3,79.1 90.4,79.1 
		90.4,79.1 90.5,79.1 90.5,79.1 90.5,79.1 90.6,79.1 90.6,79.1 90.7,79.1 90.7,79.1 90.7,79.1 90.8,79.1 90.8,79.1 90.9,79.1 
		90.9,79.1 90.9,79.1 91,79.2 91,79.2 91.1,79.2 91.1,79.2 91.1,79.2 91.2,79.3 91.2,79.3 91.3,79.3 91.3,79.3 91.4,79.4 91.4,79.4 
		91.4,79.4 91.5,79.5 91.5,79.5 91.6,79.5 91.6,79.6 91.6,79.6 91.7,79.7 91.7,79.7 91.8,79.8 91.8,79.8 91.9,79.9 91.9,79.9 92,80 
		92.1,80.1 92.1,80.2 92.2,80.4 92.3,80.5 92.4,80.6 92.4,80.8 92.5,80.9 92.6,81.1 92.7,81.3 92.7,81.4 92.8,81.6 92.9,81.8 
		92.9,82 93,82.2 93,83.5 93.1,84.9 93.1,86.3 93.1,87.7 93.1,89.1 93.2,90.5 93.2,91.9 93.2,93.3 93.2,94.7 93.2,96.1 93.2,97.5 
		93.2,98.9 93.2,100.3 93.2,101.7 93.2,104.5 93.1,110.1 93.1,112.9 93.1,115.7 93.1,117.1 93.1,118.4 93.1,119.8 93.1,121.2 
		93.1,122.6 93.1,124 93.1,125.4 93.1,126.8 93,126.8 92.8,126.8 92.7,126.7 92.5,126.7 92.4,126.7 92.2,126.6 92.1,126.6 
		91.9,126.6 91.8,126.6 91.6,126.5 91.5,126.5 91.3,126.5 91.1,126.5 91,126.5 90.8,126.5 90.7,126.5 90.5,126.5 90.3,126.4 
		90.2,126.4 90,126.4 89.9,126.4 89.7,126.4 89.5,126.4 89.4,126.4 89.2,126.4 89.1,126.5 88.9,126.5 88.7,126.5 88.6,126.5 
		88.4,126.5 88.3,126.5 88.1,126.5 	"/>
</g>
<g id="POLYLINE_429_">
	<polyline class="st2" points="74,83.2 74.1,84.6 74.1,86 74.1,87.3 74.1,88.7 74.2,90 74.2,91.4 74.2,92.8 74.2,94.1 74.2,95.5 
		74.2,96.9 74.2,98.2 74.2,99.6 74.2,102.3 74.2,105 74.1,110.5 74.1,113.2 74.1,116 74.1,118.7 74.1,120 74.1,121.4 74.1,122.8 
		74.1,124.1 74.1,125.5 74.1,126.9 74,126.8 73.8,126.8 73.6,126.8 73.5,126.7 73.3,126.7 73.1,126.7 72.9,126.6 72.8,126.6 
		72.6,126.6 72.4,126.6 72.2,126.6 72,126.6 71.9,126.6 71.7,126.5 71.5,126.5 71.3,126.5 71.1,126.5 70.9,126.5 70.8,126.5 
		70.6,126.5 70.4,126.5 70.2,126.6 70,126.6 69.9,126.6 69.7,126.6 69.5,126.6 69.4,126.6 69.2,126.7 69,126.7 68.9,126.7 
		68.7,126.8 68.5,126.8 68.6,125.9 68.6,124.9 68.7,124 68.7,123.1 68.8,122.2 68.8,121.2 68.8,120.3 68.9,119.4 68.9,118.3 
		68.9,117.2 68.9,116.1 69,114.9 69,113.8 69,112.7 69,111.6 69,110.5 69.1,109.4 69.1,108.3 69.1,107.2 69.1,106.1 69.1,105 
		69.1,103.8 69.1,101.6 69.1,99.4 69.1,97.2 69.1,95 69,86.1 69,83.8 69.1,83.6 69.1,83.4 69.2,83.2 69.3,83 69.3,82.9 69.4,82.7 
		69.5,82.5 69.6,82.3 69.6,82.2 69.7,82 69.8,81.9 69.9,81.7 70,81.6 70.1,81.5 70.1,81.4 70.2,81.3 70.2,81.2 70.3,81.2 70.3,81.1 
		70.4,81.1 70.4,81 70.4,81 70.5,81 70.5,80.9 70.6,80.9 70.6,80.8 70.7,80.8 70.7,80.8 70.8,80.7 70.8,80.7 70.8,80.7 70.9,80.6 
		70.9,80.6 71,80.6 71,80.6 71.1,80.5 71.1,80.5 71.1,80.5 71.2,80.5 71.2,80.5 71.3,80.5 71.3,80.4 71.4,80.4 71.4,80.4 71.4,80.4 
		71.5,80.4 71.5,80.4 71.6,80.4 71.6,80.4 71.7,80.4 71.7,80.4 71.7,80.4 71.8,80.4 71.8,80.4 71.8,80.4 71.9,80.4 71.9,80.5 
		72,80.5 72,80.5 72,80.5 72.1,80.5 72.1,80.5 72.2,80.5 72.2,80.6 72.2,80.6 72.3,80.6 72.3,80.6 72.4,80.6 72.4,80.7 72.4,80.7 
		72.5,80.7 72.5,80.8 72.6,80.8 72.6,80.8 72.6,80.9 72.7,80.9 72.7,80.9 72.8,81 72.8,81 72.8,81 72.9,81.1 72.9,81.1 73,81.2 
		73,81.3 73.1,81.4 73.2,81.5 73.3,81.6 73.3,81.7 73.4,81.9 73.5,82 73.6,82.1 73.6,82.3 73.7,82.4 73.8,82.6 73.8,82.7 73.9,82.9 
		74,83.1 74,83.2 	"/>
</g>
<g id="POLYLINE_430_">
	<path class="st2" d="M55.8,85.8l0,1.3c0,0,0,1.3,0,1.3s0,1.3,0,1.3l0,1.3c0,0,0,1.3,0,1.3s0,1.3,0,1.3l0,1.3c0,0,0,1.3,0,1.3
		s0,1.3,0,1.3l0,1.3l0,2.5c0,0,0,2.5,0,2.5l0,2.5c0,0,0,5,0,5s0,2.5,0,2.5l0,2.5l0,2.5l0,1.3l0,1.3l0,1.3c0,0,0,1.3,0,1.3l0,1.3
		c0,0,0,1.3,0,1.3s-0.1,0-0.1,0l-0.1,0l-0.1,0l-0.1,0c0,0-0.1,0-0.1,0s-0.2,0-0.2,0s-0.2,0-0.2,0l-0.2,0c0,0-0.2,0-0.2,0l-0.2,0
		c0,0-0.2,0-0.2,0l-0.2,0c0,0-0.2,0-0.2,0l-0.2,0l-0.2,0c0,0-0.2,0-0.2,0s-0.2,0-0.2,0s-0.2,0-0.2,0s-0.2,0-0.2,0l-0.2,0
		c0,0-0.2,0-0.2,0s-0.2,0-0.2,0s-0.2,0-0.2,0s-0.2,0-0.2,0l-0.2,0l-0.2,0c0,0-0.2,0-0.2,0l-0.2,0c0,0-0.2,0-0.2,0l-0.2,0
		c0,0-0.2,0-0.2,0l-0.2,0l-0.1-2.7c0,0,0-1.3,0-1.3l0-1.3l0-1l0-1c0,0,0-1,0-1s0-1,0-1l0-1l0-1c0,0,0-1,0-1l0-1c0,0,0-1,0-1s0-1,0-1
		l0-2l0-2l0-2c0,0,0.1-16.4,0.1-16.4s0.1-0.3,0.1-0.3s0.1-0.3,0.1-0.3s0.1-0.2,0.1-0.2l0.1-0.2c0,0,0.1-0.2,0.1-0.2s0.1-0.2,0.1-0.2
		s0.1-0.2,0.1-0.2l0.1-0.2l0.1-0.2l0.1-0.2l0.1-0.2l0.1-0.2l0.1-0.2l0.1-0.2c0,0,0.1-0.2,0.1-0.2s0-0.1,0-0.1l0-0.1l0-0.1
		c0,0,0-0.1,0-0.1s0-0.1,0-0.1l0-0.1l0-0.1c0,0,0-0.1,0-0.1l0-0.1l0-0.1c0,0,0-0.1,0-0.1s0.1,0,0.1,0s0.1,0,0.1,0l0.1,0
		c0,0,0.1,0,0.1,0s0.1,0,0.1,0s0.1,0,0.1,0s0.1,0,0.1,0s0.1,0,0.1,0s0.1,0,0.1,0l0.1,0c0,0,0.1,0,0.1,0c0,0,0,0,0,0c0,0,0,0,0,0
		c0,0,0,0,0,0c0,0,0,0,0,0c0,0,0,0,0,0c0,0,0,0,0,0c0,0,0,0,0,0c0,0,0,0,0,0c0,0,0,0,0,0c0,0,0,0,0,0c0,0,0,0,0,0c0,0,0,0,0,0l0,0
		l0,0c0,0,0,0,0,0s0,0,0,0s0,0,0,0s0,0,0,0l0,0l0,0c0,0,0,0,0,0l0,0l0,0l0,0c0,0,0,0,0,0s0,0,0,0l0,0l0,0l0,0c0,0,0,0,0,0s0,0,0,0
		l0,0l0,0c0,0,0,0,0,0l0,0c0,0,0,0,0,0l0,0c0,0,0,0,0,0l0,0l0,0l0,0l0,0l0,0l0,0l0,0c0,0,0,0,0,0l0.1,0.1c0,0,0.1,0.1,0.1,0.1
		l0.1,0.1c0,0,0.1,0.1,0.1,0.1s0.1,0.1,0.1,0.1l0.1,0.1c0,0,0.1,0.1,0.1,0.1s0.1,0.1,0.1,0.1s0.1,0.1,0.1,0.1s0.1,0.1,0.1,0.1
		l0.1,0.1c0,0,0.1,0.1,0.1,0.1s0.1,0.2,0.1,0.2l0.1,0.2C55.7,85.7,55.8,85.8,55.8,85.8"/>
</g>
<g id="POLYLINE_431_">
	<polyline class="st2" points="37.4,91.4 37.4,92.5 37.4,93.6 37.4,94.6 37.4,95.7 37.4,97.9 37.4,100 37.4,102.2 37.4,104.4 
		37.3,108.7 37.3,113 37.3,115.2 37.3,117.4 37.3,119.5 37.3,121.7 37.3,122.8 37.3,123.9 37.3,124.9 37.3,126 37.2,126 37,125.9 
		36.8,125.9 36.7,125.9 36.5,125.8 36.3,125.8 36.2,125.8 36,125.7 35.8,125.7 35.7,125.7 35.5,125.7 35.3,125.7 35.1,125.6 
		34.9,125.6 34.8,125.6 34.6,125.6 34.4,125.6 34.2,125.6 34,125.6 33.8,125.6 33.7,125.6 33.5,125.6 33.3,125.6 33.1,125.6 
		32.9,125.6 32.8,125.6 32.6,125.6 32.4,125.6 32.2,125.7 32.1,125.7 31.9,125.7 31.7,125.7 31.8,124.8 31.8,123.9 31.9,123 
		31.9,122.1 31.9,121.2 32,120.4 32,119.5 32,118.6 32.1,117.7 32.1,116.9 32.1,116 32.1,115.2 32.2,114.4 32.2,113.5 32.2,111.8 
		32.2,110.2 32.2,108.5 32.3,106.8 32.3,105.1 32.3,103.4 32.3,101.8 32.3,100.1 32.3,98.4 32.3,96.7 32.3,95 32.2,91.7 32.3,91.5 
		32.4,91.3 32.4,91.1 32.5,90.9 32.6,90.7 32.7,90.5 32.7,90.3 32.8,90.2 32.9,90 33,89.9 33,89.7 33.1,89.6 33.2,89.4 33.3,89.3 
		33.4,89.2 33.4,89.1 33.5,89.1 33.5,89 33.5,89 33.6,88.9 33.6,88.9 33.7,88.8 33.7,88.8 33.8,88.8 33.8,88.7 33.9,88.7 33.9,88.6 
		33.9,88.6 34,88.6 34,88.5 34.1,88.5 34.1,88.5 34.2,88.5 34.2,88.4 34.2,88.4 34.3,88.4 34.3,88.4 34.4,88.3 34.4,88.3 34.5,88.3 
		34.5,88.3 34.6,88.3 34.6,88.3 34.6,88.3 34.7,88.3 34.7,88.3 34.8,88.3 34.8,88.3 34.8,88.3 34.9,88.3 34.9,88.3 35,88.3 35,88.3 
		35.1,88.3 35.1,88.3 35.1,88.3 35.2,88.3 35.2,88.3 35.3,88.3 35.3,88.3 35.3,88.4 35.4,88.4 35.4,88.4 35.5,88.4 35.5,88.4 
		35.5,88.5 35.6,88.5 35.6,88.5 35.7,88.5 35.7,88.6 35.8,88.6 35.8,88.6 35.8,88.7 35.9,88.7 35.9,88.7 36,88.8 36,88.8 36.1,88.9 
		36.1,88.9 36.1,89 36.2,89 36.2,89.1 36.3,89.1 36.3,89.2 36.4,89.3 36.5,89.5 36.6,89.6 36.7,89.7 36.7,89.9 36.8,90 36.9,90.2 
		37,90.3 37,90.5 37.1,90.7 37.2,90.8 37.2,91 37.3,91.2 37.4,91.4 	"/>
</g>
<g id="HATCH_224_">
	<polygon class="st3" points="37.4,91.4 37.4,92.5 37.4,93.6 37.4,94.6 37.4,95.7 37.4,97.9 37.4,100 37.4,102.2 37.4,104.4 
		37.3,113 37.3,115.2 37.3,117.4 37.3,119.5 37.3,121.7 37.3,122.8 37.3,123.9 37.3,124.9 37.3,126 37.2,126 37,125.9 36.8,125.9 
		36.7,125.9 36.5,125.8 36.3,125.8 36.2,125.8 36,125.7 35.8,125.7 35.7,125.7 35.5,125.7 35.3,125.7 35.1,125.6 34.9,125.6 
		34.8,125.6 34.6,125.6 34.4,125.6 34.2,125.6 34,125.6 33.8,125.6 33.7,125.6 33.5,125.6 33.3,125.6 33.1,125.6 32.9,125.6 
		32.8,125.6 32.6,125.6 32.4,125.6 32.2,125.7 32.1,125.7 31.9,125.7 31.7,125.7 31.8,124.8 31.8,123.9 31.9,123 31.9,122.1 
		31.9,121.2 32,120.4 32,119.5 32,118.6 32.1,117.7 32.1,116.9 32.1,116 32.1,115.2 32.2,114.4 32.2,113.5 32.2,111.8 32.2,110.2 
		32.2,108.5 32.3,106.8 32.3,105.1 32.3,103.4 32.3,101.8 32.3,100.1 32.3,98.4 32.3,96.7 32.3,95 32.2,91.7 32.3,91.5 32.4,91.3 
		32.4,91.1 32.5,90.9 32.6,90.7 32.7,90.5 32.7,90.3 32.8,90.2 32.9,90 33,89.9 33,89.7 33.1,89.6 33.2,89.4 33.3,89.3 33.4,89.2 
		33.4,89.1 33.5,89.1 33.5,89 33.5,89 33.6,88.9 33.6,88.9 33.7,88.8 33.7,88.8 33.8,88.8 33.8,88.7 33.9,88.7 33.9,88.6 33.9,88.6 
		34,88.6 34,88.5 34.1,88.5 34.1,88.5 34.2,88.5 34.2,88.4 34.2,88.4 34.3,88.4 34.3,88.4 34.4,88.3 34.4,88.3 34.5,88.3 34.5,88.3 
		34.6,88.3 34.6,88.3 34.6,88.3 34.7,88.3 34.7,88.3 34.8,88.3 34.8,88.3 34.8,88.3 34.9,88.3 34.9,88.3 35,88.3 35,88.3 35.1,88.3 
		35.1,88.3 35.1,88.3 35.2,88.3 35.2,88.3 35.3,88.3 35.3,88.3 35.3,88.4 35.4,88.4 35.4,88.4 35.5,88.4 35.5,88.4 35.5,88.5 
		35.6,88.5 35.6,88.5 35.7,88.5 35.7,88.6 35.8,88.6 35.8,88.6 35.8,88.7 35.9,88.7 35.9,88.7 36,88.8 36,88.8 36.1,88.9 36.1,88.9 
		36.1,89 36.2,89 36.2,89.1 36.3,89.1 36.3,89.2 36.4,89.3 36.5,89.5 36.6,89.6 36.7,89.7 36.7,89.9 36.8,90 36.9,90.2 37,90.3 
		37,90.5 37.1,90.7 37.2,90.8 37.2,91 37.3,91.2 	"/>
</g>
<g id="HATCH_225_">
	<polygon class="st3" points="55.8,85.8 55.8,87.1 55.9,88.3 55.9,89.6 55.9,90.8 55.9,92.1 55.9,93.3 55.9,94.6 55.9,95.9 
		55.9,97.1 55.9,98.4 55.9,100.9 55.9,103.4 55.9,105.9 55.8,110.9 55.8,113.4 55.8,115.9 55.8,118.4 55.8,119.7 55.8,120.9 
		55.8,122.2 55.8,123.5 55.8,124.7 55.8,126 55.7,125.9 55.6,125.9 55.4,125.9 55.3,125.8 55.1,125.8 55,125.8 54.8,125.8 
		54.7,125.7 54.5,125.7 54.3,125.7 54.2,125.7 54,125.7 53.9,125.6 53.7,125.6 53.5,125.6 53.4,125.6 53.2,125.6 53.1,125.6 
		52.9,125.6 52.7,125.6 52.6,125.6 52.4,125.6 52.3,125.6 52.1,125.6 51.9,125.6 51.8,125.6 51.6,125.6 51.5,125.6 51.3,125.6 
		51.2,125.7 51,125.7 50.9,125.7 50.8,123 50.7,121.7 50.7,120.4 50.7,119.4 50.7,118.3 50.6,117.3 50.6,116.3 50.6,115.3 
		50.6,114.2 50.6,113.2 50.6,112.2 50.6,111.2 50.6,110.2 50.5,108.1 50.5,106.1 50.5,104 50.6,87.6 50.7,87.4 50.7,87.1 50.8,86.9 
		50.9,86.6 50.9,86.4 51,86.2 51.1,86 51.2,85.7 51.3,85.5 51.3,85.3 51.4,85.2 51.5,85 51.6,84.8 51.7,84.6 51.8,84.5 51.8,84.4 
		51.9,84.3 51.9,84.3 52,84.2 52,84.1 52.1,84.1 52.1,84 52.2,83.9 52.2,83.9 52.3,83.8 52.3,83.8 52.4,83.7 52.4,83.7 52.5,83.6 
		52.5,83.6 52.6,83.6 52.6,83.5 52.7,83.5 52.7,83.5 52.8,83.4 52.8,83.4 52.9,83.4 52.9,83.4 52.9,83.4 53,83.3 53,83.3 53,83.3 
		53,83.3 53.1,83.3 53.1,83.3 53.1,83.3 53.1,83.3 53.2,83.3 53.2,83.3 53.2,83.3 53.2,83.3 53.3,83.3 53.3,83.2 53.3,83.2 
		53.3,83.2 53.4,83.2 53.4,83.2 53.4,83.2 53.4,83.2 53.5,83.2 53.5,83.2 53.5,83.2 53.6,83.2 53.6,83.2 53.6,83.2 53.7,83.2 
		53.7,83.3 53.7,83.3 53.8,83.3 53.8,83.3 53.8,83.3 53.9,83.3 53.9,83.3 54,83.3 54,83.3 54,83.4 54.1,83.4 54.1,83.4 54.2,83.4 
		54.2,83.4 54.2,83.5 54.3,83.5 54.3,83.5 54.3,83.5 54.4,83.6 54.4,83.6 54.5,83.6 54.5,83.7 54.5,83.7 54.6,83.7 54.6,83.8 
		54.6,83.8 54.7,83.9 54.7,83.9 54.8,83.9 54.8,84 54.9,84.1 55,84.2 55.1,84.3 55.1,84.4 55.2,84.6 55.3,84.7 55.3,84.8 55.4,84.9 
		55.5,85.1 55.6,85.2 55.6,85.4 55.7,85.5 55.7,85.7 	"/>
</g>
<g id="HATCH_226_">
	<polygon class="st3" points="74,83.2 74.1,84.6 74.1,86 74.1,87.3 74.1,88.7 74.2,90 74.2,91.4 74.2,92.8 74.2,94.1 74.2,95.5 
		74.2,96.9 74.2,98.2 74.2,99.6 74.2,102.3 74.2,105 74.1,113.2 74.1,116 74.1,118.7 74.1,120 74.1,121.4 74.1,122.8 74.1,124.1 
		74.1,125.5 74.1,126.9 74,126.8 73.8,126.8 73.6,126.8 73.5,126.7 73.3,126.7 73.1,126.7 72.9,126.6 72.8,126.6 72.6,126.6 
		72.4,126.6 72.2,126.6 72,126.6 71.9,126.6 71.7,126.5 71.5,126.5 71.3,126.5 71.1,126.5 70.9,126.5 70.8,126.5 70.6,126.5 
		70.4,126.5 70.2,126.6 70,126.6 69.9,126.6 69.7,126.6 69.5,126.6 69.4,126.6 69.2,126.7 69,126.7 68.9,126.7 68.7,126.8 
		68.5,126.8 68.6,125.9 68.6,124.9 68.7,124 68.7,123.1 68.8,122.2 68.8,121.2 68.8,120.3 68.9,119.4 68.9,118.3 68.9,117.2 
		68.9,116.1 69,114.9 69,113.8 69,112.7 69,111.6 69,110.5 69.1,109.4 69.1,108.3 69.1,107.2 69.1,106.1 69.1,105 69.1,103.8 
		69.1,101.6 69.1,99.4 69.1,97.2 69.1,95 69,86.1 69,83.8 69.1,83.6 69.1,83.4 69.2,83.2 69.3,83 69.3,82.9 69.4,82.7 69.5,82.5 
		69.6,82.3 69.6,82.2 69.7,82 69.8,81.9 69.9,81.7 70,81.6 70.1,81.5 70.1,81.4 70.2,81.3 70.2,81.2 70.3,81.2 70.3,81.1 70.4,81.1 
		70.4,81 70.4,81 70.5,81 70.5,80.9 70.6,80.9 70.6,80.8 70.7,80.8 70.7,80.8 70.8,80.7 70.8,80.7 70.8,80.7 70.9,80.6 70.9,80.6 
		71,80.6 71,80.6 71.1,80.5 71.1,80.5 71.1,80.5 71.2,80.5 71.2,80.5 71.3,80.5 71.3,80.4 71.4,80.4 71.4,80.4 71.4,80.4 71.5,80.4 
		71.5,80.4 71.6,80.4 71.6,80.4 71.7,80.4 71.7,80.4 71.7,80.4 71.8,80.4 71.8,80.4 71.8,80.4 71.9,80.4 71.9,80.5 72,80.5 72,80.5 
		72,80.5 72.1,80.5 72.1,80.5 72.2,80.5 72.2,80.6 72.2,80.6 72.3,80.6 72.3,80.6 72.4,80.6 72.4,80.7 72.4,80.7 72.5,80.7 
		72.5,80.8 72.6,80.8 72.6,80.8 72.6,80.9 72.7,80.9 72.7,80.9 72.8,81 72.8,81 72.8,81 72.9,81.1 72.9,81.1 73,81.2 73,81.3 
		73.1,81.4 73.2,81.5 73.3,81.6 73.3,81.7 73.4,81.9 73.5,82 73.6,82.1 73.6,82.3 73.7,82.4 73.8,82.6 73.8,82.7 73.9,82.9 74,83.1 
			"/>
</g>
<g id="HATCH_227_">
	<polygon class="st3" points="88.1,126.5 88.1,123.8 88,122.5 88,121.1 88,119.9 87.9,118.7 87.9,117.5 87.9,116.3 87.9,115.1 
		87.9,113.9 87.8,112.7 87.8,111.5 87.8,110.3 87.8,109.1 87.8,107.9 87.8,106.6 87.8,104.2 87.8,101.8 87.8,99.4 87.9,92.1 
		87.9,89.7 87.9,87.3 87.9,84.9 87.9,83.7 87.9,82.5 88,82.3 88,82.1 88.1,81.9 88.2,81.7 88.2,81.5 88.3,81.3 88.4,81.1 88.4,81 
		88.5,80.8 88.6,80.7 88.7,80.5 88.8,80.4 88.9,80.2 88.9,80.1 89,80 89.1,79.9 89.1,79.9 89.1,79.8 89.2,79.8 89.2,79.7 89.3,79.7 
		89.3,79.6 89.4,79.6 89.4,79.6 89.5,79.5 89.5,79.5 89.5,79.4 89.6,79.4 89.6,79.4 89.7,79.3 89.7,79.3 89.8,79.3 89.8,79.3 
		89.8,79.2 89.9,79.2 89.9,79.2 90,79.2 90,79.2 90.1,79.1 90.1,79.1 90.2,79.1 90.2,79.1 90.2,79.1 90.3,79.1 90.3,79.1 90.4,79.1 
		90.4,79.1 90.5,79.1 90.5,79.1 90.5,79.1 90.6,79.1 90.6,79.1 90.7,79.1 90.7,79.1 90.7,79.1 90.8,79.1 90.8,79.1 90.9,79.1 
		90.9,79.1 90.9,79.1 91,79.2 91,79.2 91.1,79.2 91.1,79.2 91.1,79.2 91.2,79.3 91.2,79.3 91.3,79.3 91.3,79.3 91.4,79.4 91.4,79.4 
		91.4,79.4 91.5,79.5 91.5,79.5 91.6,79.5 91.6,79.6 91.6,79.6 91.7,79.7 91.7,79.7 91.8,79.8 91.8,79.8 91.9,79.9 91.9,79.9 92,80 
		92.1,80.1 92.1,80.2 92.2,80.4 92.3,80.5 92.4,80.6 92.4,80.8 92.5,80.9 92.6,81.1 92.7,81.3 92.7,81.4 92.8,81.6 92.9,81.8 
		92.9,82 93,82.2 93,83.5 93.1,84.9 93.1,86.3 93.1,87.7 93.1,89.1 93.2,90.5 93.2,91.9 93.2,93.3 93.2,94.7 93.2,96.1 93.2,97.5 
		93.2,98.9 93.2,100.3 93.2,101.7 93.2,104.5 93.1,112.9 93.1,115.7 93.1,117.1 93.1,118.4 93.1,119.8 93.1,121.2 93.1,122.6 
		93.1,124 93.1,125.4 93.1,126.8 93,126.8 92.8,126.8 92.7,126.7 92.5,126.7 92.4,126.7 92.2,126.6 92.1,126.6 91.9,126.6 
		91.8,126.6 91.6,126.5 91.5,126.5 91.3,126.5 91.1,126.5 91,126.5 90.8,126.5 90.7,126.5 90.5,126.5 90.3,126.4 90.2,126.4 
		90,126.4 89.9,126.4 89.7,126.4 89.5,126.4 89.4,126.4 89.2,126.4 89.1,126.5 88.9,126.5 88.7,126.5 88.6,126.5 88.4,126.5 
		88.3,126.5 88.1,126.5 	"/>
</g>
<g id="HATCH_228_">
	<polygon class="st3" points="106.5,126.7 106.6,125.8 106.6,124.9 106.7,124 106.7,123 106.7,122.1 106.8,121.2 106.8,120.3 
		106.8,119.3 106.9,118.2 106.9,117 106.9,115.9 107,114.7 107,113.5 107,112.4 107,111.2 107,110 107,108.9 107,107.7 107.1,106.5 
		107.1,105.4 107.1,104.2 107.1,103 107.1,100.7 107.1,98.4 107.1,96 107,93.7 107,86.7 107,84.4 107,82 107,81.9 107.1,81.7 
		107.2,81.5 107.2,81.3 107.3,81.2 107.4,81 107.5,80.9 107.5,80.7 107.6,80.6 107.7,80.5 107.8,80.3 107.8,80.2 107.9,80.1 108,80 
		108.1,79.9 108.1,79.8 108.2,79.8 108.2,79.7 108.2,79.7 108.3,79.6 108.3,79.6 108.4,79.6 108.4,79.5 108.4,79.5 108.5,79.5 
		108.5,79.4 108.6,79.4 108.6,79.4 108.6,79.3 108.7,79.3 108.7,79.3 108.8,79.3 108.8,79.2 108.9,79.2 108.9,79.2 108.9,79.2 
		109,79.2 109,79.1 109.1,79.1 109.1,79.1 109.1,79.1 109.2,79.1 109.2,79.1 109.3,79.1 109.3,79.1 109.3,79.1 109.4,79.1 
		109.4,79.1 109.5,79.1 109.5,79.1 109.5,79.1 109.6,79.1 109.6,79.1 109.7,79.1 109.7,79.1 109.7,79.1 109.8,79.1 109.8,79.1 
		109.9,79.1 109.9,79.1 109.9,79.2 110,79.2 110,79.2 110.1,79.2 110.1,79.2 110.2,79.3 110.2,79.3 110.2,79.3 110.3,79.4 
		110.3,79.4 110.4,79.4 110.4,79.5 110.5,79.5 110.5,79.5 110.5,79.6 110.6,79.6 110.6,79.7 110.7,79.7 110.7,79.7 110.8,79.8 
		110.8,79.8 110.8,79.9 110.9,79.9 111,80.1 111,80.2 111.1,80.3 111.2,80.4 111.3,80.6 111.4,80.7 111.4,80.9 111.5,81 111.6,81.2 
		111.7,81.3 111.7,81.5 111.8,81.7 111.9,81.9 111.9,82.1 112,82.3 112,83.7 112.1,85.1 112.1,86.5 112.1,87.9 112.1,89.3 
		112.1,90.6 112.2,92 112.2,93.4 112.2,94.8 112.2,96.2 112.2,97.6 112.2,99 112.2,100.4 112.2,101.8 112.2,104.6 112.1,113 
		112.1,115.8 112.1,117.2 112.1,118.6 112.1,120 112.1,121.4 112.1,122.8 112.1,124.2 112.1,125.6 112.1,127 112,127 111.8,126.9 
		111.6,126.9 111.5,126.8 111.3,126.8 111.1,126.8 111,126.8 110.8,126.7 110.6,126.7 110.4,126.7 110.3,126.7 110.1,126.6 
		109.9,126.6 109.7,126.6 109.5,126.6 109.4,126.6 109.2,126.6 109,126.6 108.8,126.6 108.6,126.6 108.4,126.6 108.3,126.6 
		108.1,126.6 107.9,126.6 107.7,126.6 107.6,126.6 107.4,126.6 107.2,126.6 107,126.6 106.9,126.7 106.7,126.7 	"/>
</g>
<g id="HATCH_229_">
	<polygon class="st3" points="125.6,126.4 125.6,123.7 125.5,122.3 125.5,121 125.5,119.8 125.4,118.6 125.4,117.5 125.4,116.3 
		125.4,115.1 125.4,113.9 125.4,112.8 125.3,111.6 125.3,110.4 125.3,109.3 125.3,108.1 125.3,106.9 125.3,104.6 125.3,102.3 
		125.3,99.9 125.4,92.9 125.4,90.5 125.4,88.2 125.4,85.9 125.4,83.5 125.5,83.3 125.5,83.2 125.6,83 125.7,82.8 125.7,82.6 
		125.8,82.5 125.9,82.3 126,82.2 126,82 126.1,81.9 126.2,81.7 126.3,81.6 126.3,81.5 126.4,81.4 126.5,81.3 126.5,81.2 126.6,81.2 
		126.6,81.1 126.7,81.1 126.7,81 126.8,81 126.8,80.9 126.8,80.9 126.9,80.9 126.9,80.8 127,80.8 127,80.8 127,80.7 127.1,80.7 
		127.1,80.7 127.2,80.6 127.2,80.6 127.3,80.6 127.3,80.6 127.3,80.5 127.4,80.5 127.4,80.5 127.5,80.5 127.5,80.5 127.6,80.5 
		127.6,80.5 127.6,80.4 127.7,80.4 127.7,80.4 127.8,80.4 127.8,80.4 127.8,80.4 127.9,80.4 127.9,80.4 128,80.4 128,80.4 128,80.4 
		128,80.4 128,80.4 128.1,80.4 128.1,80.4 128.1,80.4 128.2,80.4 128.2,80.4 128.3,80.5 128.3,80.5 128.3,80.5 128.4,80.5 
		128.4,80.5 128.5,80.5 128.5,80.6 128.6,80.6 128.6,80.6 128.7,80.6 128.7,80.7 128.7,80.7 128.8,80.7 128.8,80.8 128.9,80.8 
		128.9,80.8 129,80.9 129,80.9 129.1,81 129.1,81 129.1,81.1 129.2,81.1 129.2,81.2 129.3,81.2 129.3,81.3 129.4,81.3 129.4,81.4 
		129.5,81.5 129.6,81.6 129.7,81.8 129.8,81.9 129.8,82.1 129.9,82.2 130,82.4 130.1,82.6 130.1,82.7 130.2,82.9 130.3,83.1 
		130.4,83.3 130.4,83.5 130.5,83.7 130.6,83.9 130.6,85.3 130.6,86.6 130.6,87.9 130.7,89.3 130.7,90.6 130.7,91.9 130.7,93.2 
		130.7,94.6 130.7,95.9 130.7,97.2 130.7,98.6 130.7,99.9 130.7,102.6 130.7,105.2 130.6,113.2 130.6,115.9 130.6,118.6 
		130.6,119.9 130.6,121.2 130.6,122.6 130.6,123.9 130.6,125.2 130.6,126.5 130.5,126.5 130.3,126.5 130.2,126.5 130,126.4 
		129.9,126.4 129.7,126.4 129.6,126.4 129.4,126.3 129.3,126.3 129.1,126.3 129,126.3 128.8,126.3 128.6,126.3 128.5,126.2 
		128.3,126.2 128.1,126.2 128,126.2 127.8,126.2 127.7,126.2 127.5,126.2 127.3,126.2 127.2,126.2 127,126.2 126.9,126.2 
		126.7,126.2 126.6,126.3 126.4,126.3 126.2,126.3 126.1,126.3 125.9,126.3 125.8,126.3 125.6,126.4 	"/>
</g>
<g id="HATCH_230_">
	<polygon class="st3" points="143.3,126 143.4,125.1 143.4,124.2 143.5,123.3 143.5,122.3 143.5,121.4 143.6,120.5 143.6,119.6 
		143.6,118.7 143.7,117.6 143.7,116.6 143.7,115.6 143.7,114.6 143.8,113.5 143.8,112.5 143.8,111.5 143.8,110.5 143.8,109.5 
		143.8,108.4 143.9,107.4 143.9,106.4 143.9,104.4 143.9,102.3 143.9,100.3 143.9,98.2 143.9,96.2 143.9,94.1 143.8,85.9 
		143.9,85.8 143.9,85.6 144,85.4 144.1,85.3 144.1,85.1 144.2,85 144.3,84.9 144.3,84.7 144.4,84.6 144.5,84.5 144.6,84.4 
		144.6,84.3 144.7,84.2 144.8,84.1 144.9,84 144.9,83.9 144.9,83.9 145,83.8 145,83.8 145.1,83.8 145.1,83.7 145.1,83.7 145.2,83.7 
		145.2,83.6 145.3,83.6 145.3,83.6 145.3,83.5 145.4,83.5 145.4,83.5 145.5,83.5 145.5,83.4 145.5,83.4 145.6,83.4 145.6,83.4 
		145.6,83.3 145.7,83.3 145.7,83.3 145.8,83.3 145.8,83.3 145.8,83.3 145.9,83.3 145.9,83.3 146,83.3 146,83.2 146,83.2 146.1,83.2 
		146.1,83.2 146.1,83.2 146.2,83.2 146.2,83.2 146.2,83.2 146.2,83.2 146.3,83.2 146.3,83.2 146.3,83.2 146.3,83.2 146.4,83.2 
		146.4,83.2 146.4,83.3 146.4,83.3 146.4,83.3 146.5,83.3 146.5,83.3 146.5,83.3 146.5,83.3 146.6,83.3 146.6,83.3 146.6,83.3 
		146.7,83.3 146.7,83.4 146.8,83.4 146.8,83.4 146.9,83.4 146.9,83.5 147,83.5 147,83.5 147.1,83.6 147.1,83.6 147.1,83.6 
		147.2,83.7 147.2,83.7 147.3,83.8 147.3,83.8 147.4,83.8 147.4,83.9 147.5,83.9 147.5,84 147.6,84.1 147.6,84.1 147.7,84.2 
		147.7,84.2 147.7,84.3 147.8,84.4 147.9,84.6 148,84.7 148.1,84.9 148.2,85.1 148.3,85.2 148.3,85.4 148.4,85.6 148.5,85.8 
		148.6,86 148.6,86.2 148.7,86.4 148.8,86.6 148.8,86.9 148.9,87.1 148.9,88.3 148.9,89.5 149,90.7 149,91.9 149,93.2 149,94.4 
		149,95.6 149,96.8 149,98 149,99.2 149,101.7 149,104.1 148.9,111.4 148.9,113.8 148.9,116.2 148.9,118.7 148.9,119.9 148.9,121.1 
		148.9,122.3 148.9,123.5 148.9,124.8 148.9,126 148.7,125.9 148.6,125.9 148.4,125.9 148.2,125.8 148.1,125.8 147.9,125.8 
		147.7,125.8 147.5,125.8 147.3,125.7 147.2,125.7 147,125.7 146.8,125.7 146.6,125.7 146.4,125.7 146.2,125.7 146.1,125.7 
		145.9,125.7 145.7,125.7 145.5,125.7 145.3,125.7 145.2,125.7 145,125.7 144.8,125.8 144.6,125.8 144.5,125.8 144.3,125.8 
		144.1,125.8 144,125.9 143.8,125.9 143.6,125.9 143.5,126 	"/>
</g>
<g id="HATCH_231_">
	<polygon class="st3" points="168,91.4 168,92.5 168,93.5 168,94.6 168,95.6 168,97.7 168,99.8 168,101.9 168,104 167.9,112.4 
		167.9,114.5 167.9,116.6 167.9,118.7 167.9,120.8 167.9,121.8 167.9,122.9 167.9,123.9 167.9,125 167.8,124.9 167.6,124.9 
		167.5,124.9 167.3,124.9 167.2,124.8 167,124.8 166.8,124.8 166.7,124.8 166.5,124.8 166.4,124.8 166.2,124.7 166,124.7 
		165.9,124.7 165.7,124.7 165.6,124.7 165.4,124.7 165.2,124.7 165.1,124.7 164.9,124.7 164.8,124.7 164.6,124.7 164.4,124.7 
		164.3,124.7 164.1,124.7 164,124.7 163.8,124.8 163.7,124.8 163.5,124.8 163.4,124.8 163.2,124.8 163.1,124.9 162.9,124.9 
		162.8,122.2 162.8,120.9 162.8,119.6 162.7,118.7 162.7,117.9 162.7,117 162.7,116.2 162.7,115.3 162.7,114.5 162.6,112.8 
		162.6,111 162.6,109.3 162.6,107.6 162.6,105.9 162.6,104.2 162.6,102.5 162.6,100.8 162.6,99.1 162.7,92.2 162.7,92 162.8,91.8 
		162.9,91.5 162.9,91.3 163,91.1 163.1,90.9 163.1,90.7 163.2,90.5 163.3,90.3 163.4,90.1 163.5,90 163.6,89.8 163.6,89.7 
		163.7,89.5 163.8,89.4 163.9,89.3 163.9,89.2 164,89.2 164,89.1 164.1,89.1 164.1,89 164.2,88.9 164.2,88.9 164.2,88.8 164.3,88.8 
		164.3,88.7 164.4,88.7 164.4,88.7 164.5,88.6 164.5,88.6 164.6,88.6 164.6,88.5 164.7,88.5 164.7,88.5 164.8,88.4 164.8,88.4 
		164.9,88.4 164.9,88.4 165,88.3 165,88.3 165,88.3 165,88.3 165.1,88.3 165.1,88.3 165.1,88.3 165.1,88.3 165.1,88.3 165.2,88.3 
		165.2,88.3 165.2,88.3 165.2,88.3 165.3,88.3 165.3,88.3 165.3,88.3 165.3,88.3 165.4,88.3 165.4,88.3 165.4,88.3 165.4,88.3 
		165.5,88.3 165.5,88.3 165.5,88.3 165.6,88.3 165.6,88.3 165.7,88.3 165.7,88.3 165.7,88.3 165.8,88.3 165.8,88.3 165.9,88.3 
		165.9,88.4 166,88.4 166,88.4 166,88.4 166.1,88.4 166.1,88.5 166.2,88.5 166.2,88.5 166.3,88.5 166.3,88.6 166.3,88.6 166.4,88.6 
		166.4,88.7 166.5,88.7 166.5,88.8 166.6,88.8 166.6,88.8 166.6,88.9 166.7,88.9 166.7,89 166.8,89 166.8,89.1 166.8,89.1 
		166.9,89.2 167,89.4 167.1,89.5 167.2,89.6 167.2,89.7 167.3,89.9 167.4,90 167.5,90.2 167.6,90.4 167.6,90.5 167.7,90.7 
		167.8,90.9 167.8,91.1 167.9,91.3 	"/>
</g>
<g id="POLYLINE_432_">
	<path class="st0" d="M166.9,70l0.1,0.4c0,0,0.1,0.4,0.1,0.4l0,0.4l0,0.4l0,0.4l0,0.4l0,0.4l0,0.4l0,0.4l0,0.4l0,0.4
		c0,0,0,0.4,0,0.4l0.1,0.7l0.1,0.7l0,0.7c0,0,0,0.7,0,0.7l0,0.7l0,0.7l0,0.7l0,0.7l0,0.7l0,0.7l0,1.2l0,1.2c0,0,0,1.2,0,1.2l0,1.2
		l0,1.2l0,1.2l0,1.2c0,0,0,1.2,0,1.2l-0.1-0.2l-0.1-0.2l-0.1-0.2l-0.1-0.2l-0.1-0.2l-0.1-0.2l-0.1-0.2c0,0-0.1-0.2-0.1-0.2l-0.1-0.1
		l-0.1-0.1l-0.1-0.1c0,0-0.1-0.1-0.1-0.1s-0.1-0.1-0.1-0.1l-0.1-0.1c0,0-0.1-0.1-0.1-0.1l0-0.1l0-0.1l0,0c0,0,0,0,0,0l0,0l0,0l0,0
		l0,0c0,0,0,0,0,0l0,0l0,0l0,0l0,0l0,0l0,0l0,0c0,0,0,0,0,0s0,0,0,0s0,0,0,0s0,0,0,0l0,0c0,0,0,0,0,0l0,0l0,0c0,0,0,0,0,0s0,0,0,0
		l0,0l0,0l0,0l0,0l0,0l0,0l0,0c0,0,0,0,0,0c0,0,0,0,0,0c0,0,0,0,0,0c0,0,0,0,0,0c0,0,0,0,0,0c0,0,0,0,0,0c0,0,0,0,0,0c0,0,0,0,0,0
		c0,0,0,0,0,0c0,0,0,0,0,0c0,0,0,0,0,0s0,0,0,0l0,0l0,0l0,0c0,0,0,0,0,0l0,0l0,0c0,0,0,0,0,0l0,0l0,0c0,0,0,0,0,0l0,0l0,0l0,0
		c0,0,0,0,0,0s0,0,0,0l0,0.1l0,0.1l0,0.1l0,0.1c0,0,0,0.1,0,0.1l0,0.1l0,0.1l0,0.1c0,0-0.1,0.1-0.1,0.1l-0.1,0.1
		c0,0-0.1,0.2-0.1,0.2l-0.1,0.2l-0.1,0.2l-0.1,0.2l-0.1,0.2l-0.1,0.2l-0.1,0.2c0,0-0.1,0.2-0.1,0.2l-0.1,0.2l-0.1,0.2l-0.1,0.2
		l-0.1,0.2c0,0-0.1,0.2-0.1,0.2l0-2.8l0-2.8l0-1.4l0-1.4l0-1.4c0,0,0-1.4,0-1.4l0-1.4l0-1.4l0-1.4l0-1.4c0,0,0-1.4,0-1.4l0-1.4
		l0-1.4l0-1.4C164,70,165.4,70,166.9,70"/>
</g>
<g id="POLYLINE_433_">
	<path class="st0" d="M143.8,85.9l0-1.9c0,0,0-1.9,0-1.9l0-1.9l0-1.9c0,0,0-1.9,0-1.9s0-1.9,0-1.9l0-1.9c0,0,0-1,0-1l0-1l4.1-0.1
		l0,0.4l0,0.4c0,0,0,0.4,0,0.4s0,0.4,0,0.4l0,0.4c0,0,0,0.4,0,0.4s0,0.4,0,0.4l0,0.4l0,0.4l0,0.4c0,0,0.1,0.7,0.1,0.7l0.1,0.7l0,0.7
		c0,0,0,0.7,0,0.7l0,0.7l0,0.7c0,0,0,0.7,0,0.7l0,0.7l0,0.7l0,0.7c0,0,0,0.7,0,0.7l0,1.3c0,0,0,1.3,0,1.3l0,1.3l0,1.3l-0.1-0.2
		l-0.1-0.2l-0.1-0.2l-0.1-0.2l-0.1-0.2l-0.1-0.2l-0.1-0.2l-0.1-0.2l-0.1-0.2l-0.1-0.2l-0.1-0.2c0,0-0.1-0.2-0.1-0.2
		s-0.1-0.2-0.1-0.2s-0.1-0.1-0.1-0.1s-0.1-0.1-0.1-0.1l0-0.1l0-0.1c0,0,0-0.1,0-0.1s0-0.1,0-0.1l0-0.1c0,0,0-0.1,0-0.1l0-0.1l0-0.1
		l0,0c0,0,0,0,0,0s0,0,0,0s0,0,0,0s0,0,0,0s0,0,0,0l0,0l0,0l0,0l0,0c0,0,0,0,0,0l0,0c0,0,0,0,0,0l0,0l0,0l0,0c0,0,0,0,0,0
		c0,0,0,0,0,0c0,0,0,0,0,0c0,0,0,0,0,0c0,0,0,0,0,0c0,0,0,0,0,0c0,0,0,0,0,0c0,0,0,0,0,0c0,0,0,0,0,0c0,0,0,0,0,0s0,0,0,0l0,0
		c0,0,0,0,0,0l0,0l0,0c0,0,0,0,0,0s0,0,0,0l0,0l0,0l0,0l0,0l0,0l0,0l0,0c0,0,0,0,0,0l0,0l0,0l0,0l0,0l0,0l0,0c0,0,0,0,0,0s0,0,0,0
		s0,0,0,0s0,0,0,0l0,0l0,0l0,0l0,0l0,0l0,0l0,0l0,0l0,0l-0.1,0.1c0,0-0.1,0.1-0.1,0.1l-0.1,0.1l-0.1,0.1l-0.1,0.1l-0.1,0.1l-0.1,0.1
		c0,0-0.1,0.1-0.1,0.1l-0.1,0.1l-0.1,0.1l-0.1,0.1l-0.1,0.2c0,0-0.1,0.2-0.1,0.2l-0.1,0.2C143.9,85.8,143.8,85.9,143.8,85.9"/>
</g>
<g id="POLYLINE_434_">
	<path class="st0" d="M125.4,83.5c0-4.1-0.1-8.3-0.2-12.4c1.5,0,3-0.1,4.5-0.1l0,0.3l0,0.3c0,0,0,0.3,0,0.3s0,0.3,0,0.3l0,0.3l0,0.3
		c0,0,0.1,0.7,0.1,0.7l0.1,0.7l0.1,0.7l0,0.7c0,0,0,0.7,0,0.7l0,0.7c0,0,0,0.7,0,0.7l0,0.7l0,0.7l0,0.7l0,0.7c0,0,0,0.7,0,0.7l0,0.7
		l0,0.9l0,0.9l-0.1-0.2l-0.1-0.2l-0.1-0.2l-0.1-0.2l-0.1-0.2l-0.1-0.2l-0.1-0.2l-0.1-0.2l-0.1-0.2c0,0-0.1-0.2-0.1-0.2
		s-0.1-0.2-0.1-0.2l-0.1-0.1l-0.1-0.1l-0.1-0.1l-0.1-0.1l0-0.1l0-0.1c0,0,0-0.1,0-0.1s0-0.1,0-0.1s0-0.1,0-0.1s0,0,0,0l0,0l0,0l0,0
		l0,0l0,0l0,0l0,0l0,0l0,0c0,0,0,0,0,0l0,0l0,0c0,0,0,0,0,0l0,0c0,0,0,0,0,0l0,0c0,0,0,0,0,0s0,0,0,0s0,0,0,0s0,0,0,0l0,0l0,0l0,0
		l0,0c0,0,0,0,0,0c0,0,0,0,0,0c0,0,0,0,0,0l0,0l0,0l0,0l0,0l0,0c0,0,0,0,0,0s0,0,0,0l0,0l0,0l0,0l0,0l0,0l0,0l0,0l0,0l0,0l0,0
		c0,0,0,0,0,0l0,0c0,0,0,0,0,0l0,0l0,0c0,0,0,0,0,0s0,0,0,0s0,0,0,0s0,0,0,0l0,0l0,0c0,0,0,0,0,0s0,0,0,0s0,0,0,0s0,0,0,0l0,0
		c0,0,0,0,0,0s0,0.1,0,0.1l-0.1,0.1c0,0-0.1,0.1-0.1,0.1s-0.1,0.1-0.1,0.1l-0.1,0.1l-0.1,0.1c0,0-0.1,0.1-0.1,0.1l-0.1,0.1l-0.1,0.2
		l-0.1,0.2c0,0-0.1,0.2-0.1,0.2l-0.1,0.2l-0.1,0.2c0,0-0.1,0.2-0.1,0.2l-0.1,0.2C125.5,83.3,125.4,83.5,125.4,83.5"/>
</g>
<g id="POLYLINE_435_">
	<path class="st0" d="M107,82c0-3.7,0-7.3,0-11c1.4,0,2.8,0,4.3,0l0,0.3c0,0,0,0.3,0,0.3l0.1,0.7l0.1,0.7l0.1,0.7
		c0,0,0.1,0.7,0.1,0.7l0.1,0.7l0,0.7l0,0.7l0,0.7c0,0,0,0.7,0,0.7l0,0.7l0,0.7l0,0.7l0,0.7c0,0,0,1.4,0,1.4l0,0.5l-0.1-0.2
		c0,0-0.1-0.2-0.1-0.2l-0.1-0.2l-0.1-0.2l-0.1-0.2l-0.1-0.2l-0.1-0.2l-0.1-0.2l-0.1-0.2c0,0-0.1-0.1-0.1-0.1l-0.1-0.1
		c0,0-0.1-0.1-0.1-0.1l-0.1-0.1l-0.1-0.1c0,0-0.1-0.1-0.1-0.1s0-0.1,0-0.1l0-0.1l0,0l0,0l0,0l0,0l0,0c0,0,0,0,0,0l0,0l0,0l0,0l0,0
		c0,0,0,0,0,0s0,0,0,0s0,0,0,0l0,0l0,0l0,0l0,0l0,0l0,0l0,0c0,0,0,0,0,0l0,0c0,0,0,0,0,0l0,0l0,0c0,0,0,0,0,0s0,0,0,0s0,0,0,0l0,0
		l0,0l0,0l0,0l0,0l0,0l0,0l0,0l0,0l0,0l0,0l0,0c0,0,0,0,0,0l0,0c0,0,0,0,0,0l0,0l0,0c0,0,0,0,0,0l0,0l0,0l0,0c0,0,0,0,0,0s0,0,0,0
		l0,0c0,0,0,0,0,0l0,0l0,0l0,0l0,0c0,0,0,0,0,0l0,0c0,0,0,0,0,0l0,0l0,0l0,0l0,0l0,0l0,0c0,0-0.1,0.1-0.1,0.1l-0.1,0.1l-0.1,0.1
		l-0.1,0.1l-0.1,0.1c0,0-0.1,0.1-0.1,0.1l-0.1,0.1l-0.1,0.1l-0.1,0.2l-0.1,0.2c0,0-0.1,0.2-0.1,0.2l-0.1,0.2l-0.1,0.2l-0.1,0.2
		L107,82"/>
</g>
<g id="POLYLINE_436_">
	<path class="st0" d="M87.9,82.5c0-3.8-0.1-7.6-0.1-11.4c1.5,0,3,0,4.5,0.1c0,0,0,0.3,0,0.3s0,0.3,0,0.3l0.1,0.7l0.1,0.7
		c0,0,0.1,0.7,0.1,0.7s0.1,0.7,0.1,0.7s0.1,0.7,0.1,0.7l0,0.7c0,0,0,0.7,0,0.7s0,0.7,0,0.7s0,0.7,0,0.7s0,0.7,0,0.7l0,0.7l0,0.7
		c0,0,0,0.7,0,0.7l0.1,1.6c0,0-0.1-0.2-0.1-0.2l-0.1-0.2c0,0-0.1-0.2-0.1-0.2l-0.1-0.2l-0.1-0.2c0,0-0.1-0.2-0.1-0.2l-0.1-0.2
		c0,0-0.1-0.2-0.1-0.2s-0.1-0.1-0.1-0.1l-0.1-0.1c0,0-0.1-0.1-0.1-0.1l-0.1-0.1c0,0-0.1-0.1-0.1-0.1S92,80,92,80s-0.1-0.1-0.1-0.1
		l0-0.1c0,0,0,0,0,0l0,0l0,0c0,0,0,0,0,0s0,0,0,0l0,0c0,0,0,0,0,0s0,0,0,0s0,0,0,0l0,0c0,0,0,0,0,0s0,0,0,0s0,0,0,0l0,0l0,0l0,0
		c0,0,0,0,0,0l0,0l0,0l0,0c0,0,0,0,0,0s0,0,0,0s0,0,0,0s0,0,0,0l0,0c0,0,0,0,0,0l0,0l0,0c0,0,0,0,0,0s0,0,0,0s0,0,0,0l0,0
		c0,0,0,0,0,0l0,0c0,0,0,0,0,0l0,0c0,0,0,0,0,0s0,0,0,0l0,0l0,0l0,0c0,0,0,0,0,0s0,0,0,0s0,0,0,0l0,0c0,0,0,0,0,0l0,0l0,0
		c0,0,0,0,0,0l0,0c0,0,0,0,0,0s0,0,0,0s0,0,0,0s0,0,0,0s0,0,0,0l0,0c0,0,0,0,0,0s0,0,0,0s0,0,0,0s0,0,0,0l0,0c0,0,0,0,0,0s0,0,0,0
		s0,0.1,0,0.1s0,0.1,0,0.1l0,0.1c0,0,0,0.1,0,0.1s-0.1,0.1-0.1,0.1s-0.1,0.1-0.1,0.1l-0.1,0.1c0,0-0.1,0.1-0.1,0.1s-0.1,0.1-0.1,0.1
		l-0.1,0.2c0,0-0.1,0.2-0.1,0.2s-0.1,0.2-0.1,0.2l-0.1,0.2l-0.1,0.2c0,0-0.1,0.2-0.1,0.2l-0.1,0.2L88,82.1L88,82.3
		C88,82.3,87.9,82.5,87.9,82.5"/>
</g>
<g id="POLYLINE_437_">
	<path class="st0" d="M73.3,71l0,0.3l0,0.3c0,0,0,0.3,0,0.3l0,0.3l0.1,0.7l0.1,0.7l0.1,0.7l0.1,0.7l0,0.7l0,0.7c0,0,0,0.7,0,0.7
		s0,0.7,0,0.7s0,0.7,0,0.7l0,0.7c0,0,0,0.7,0,0.7s0,0.7,0,0.7s0,0.7,0,0.7l0,0.7c0,0,0,1.1,0,1.1S74,83.1,74,83.1s-0.1-0.2-0.1-0.2
		s-0.1-0.2-0.1-0.2l-0.1-0.2c0,0-0.1-0.2-0.1-0.2s-0.1-0.1-0.1-0.1s-0.1-0.1-0.1-0.1S73.5,82,73.5,82l-0.1-0.1c0,0-0.1-0.1-0.1-0.1
		l-0.1-0.1c0,0-0.1-0.1-0.1-0.1s-0.1-0.1-0.1-0.1L73,81.3c0,0-0.1-0.1-0.1-0.1l0,0l0,0l0,0l0,0c0,0,0,0,0,0l0,0l0,0l0,0l0,0l0,0
		c0,0,0,0,0,0l0,0l0,0c0,0,0,0,0,0l0,0c0,0,0,0,0,0l0,0c0,0,0,0,0,0s0,0,0,0l0,0c0,0,0,0,0,0s0,0,0,0l0,0c0,0,0,0,0,0s0,0,0,0l0,0
		c0,0,0,0,0,0l0,0l0,0l0,0c0,0,0,0,0,0s0,0,0,0s0,0,0,0s0,0,0,0s0,0,0,0l0,0c0,0,0,0,0,0s0,0,0,0l0,0l0,0l0,0c0,0,0,0,0,0s0,0,0,0
		s0,0,0,0s0,0,0,0s0,0,0,0l0,0l0,0l0,0l0,0c0,0,0,0,0,0s0,0,0,0s0,0,0,0l0,0c0,0,0,0,0,0s0,0,0,0s0,0,0,0l0,0l0,0c0,0,0,0,0,0l0,0
		c0,0,0,0,0,0l0,0c0,0,0,0,0,0l0,0.1c0,0,0,0.1,0,0.1s0,0.1,0,0.1s0,0.1,0,0.1s-0.1,0.1-0.1,0.1S70,81.6,70,81.6l-0.1,0.1l-0.1,0.1
		L69.7,82l-0.1,0.2c0,0-0.1,0.2-0.1,0.2l-0.1,0.2l-0.1,0.2l-0.1,0.2c0,0-0.1,0.2-0.1,0.2l-0.1,0.2c0,0-0.1,0.2-0.1,0.2
		s-0.1,0.2-0.1,0.2S69,83.8,69,83.8c0-4.3,0-8.6,0-12.9L73.3,71"/>
</g>
<g id="POLYLINE_438_">
	<path class="st0" d="M50.6,87.6l0-2.1c0,0,0-2.1,0-2.1s0-2.1,0-2.1s0-1.1,0-1.1s0-1.1,0-1.1s0-1.1,0-1.1s0-1.1,0-1.1s0-1.1,0-1.1
		l0-1.1c0,0,0-1.1,0-1.1l0-1.1c0,0,0-1.1,0-1.1s0-1.1,0-1.1c1.5,0,3,0.1,4.5,0.1l0,0.4c0,0,0,0.4,0,0.4s0,0.4,0,0.4l0,0.4l0,0.4
		c0,0,0,0.4,0,0.4l0,0.4l0,0.4l0.1,0.7l0.1,0.7c0,0,0.1,0.7,0.1,0.7s0,0.7,0,0.7s0,0.7,0,0.7s0,0.7,0,0.7s0,0.7,0,0.7l0,0.7
		c0,0,0,0.7,0,0.7l0,0.7l0,0.7l0,0.7l0,1c0,0,0,1,0,1l0,1c0,0,0,1,0,1s-0.1-0.2-0.1-0.2s-0.1-0.2-0.1-0.2s-0.1-0.2-0.1-0.2l-0.1-0.1
		c0,0-0.1-0.1-0.1-0.1s-0.1-0.1-0.1-0.1l-0.1-0.1c0,0-0.1-0.1-0.1-0.1s-0.1-0.1-0.1-0.1s-0.1-0.1-0.1-0.1s-0.1-0.1-0.1-0.1L55,84.2
		c0,0-0.1-0.1-0.1-0.1S54.8,84,54.8,84l-0.1-0.1c0,0,0,0,0,0l0,0c0,0,0,0,0,0l0,0l0,0l0,0l0,0l0,0l0,0l0,0c0,0,0,0,0,0l0,0
		c0,0,0,0,0,0l0,0c0,0,0,0,0,0l0,0l0,0c0,0,0,0,0,0s0,0,0,0l0,0l0,0l0,0c0,0,0,0,0,0s0,0,0,0l0,0l0,0l0,0c0,0,0,0,0,0l0,0l0,0
		c0,0,0,0,0,0s0,0,0,0s0,0,0,0s0,0,0,0c0,0,0,0,0,0c0,0,0,0,0,0c0,0,0,0,0,0c0,0,0,0,0,0c0,0,0,0,0,0c0,0,0,0,0,0c0,0,0,0,0,0
		c0,0,0,0,0,0c0,0,0,0,0,0c0,0,0,0,0,0c0,0,0,0,0,0c0,0,0,0,0,0s-0.1,0-0.1,0s-0.1,0-0.1,0s-0.1,0-0.1,0s-0.1,0-0.1,0s-0.1,0-0.1,0
		l-0.1,0c0,0-0.1,0-0.1,0s-0.1,0-0.1,0l-0.1,0c0,0-0.1,0-0.1,0l-0.1,0l0,0.1c0,0,0,0.1,0,0.1l0,0.1l0,0.1l0,0.1l0,0.1
		c0,0,0,0.1,0,0.1l0,0.1c0,0,0,0.1,0,0.1s0,0.1,0,0.1s0,0.1,0,0.1l-0.1,0.2l-0.1,0.2L51.5,85c0,0-0.1,0.2-0.1,0.2s-0.1,0.2-0.1,0.2
		s-0.1,0.2-0.1,0.2l-0.1,0.2c0,0-0.1,0.2-0.1,0.2S51,86.2,51,86.2l-0.1,0.2l-0.1,0.2l-0.1,0.2l-0.1,0.2c0,0-0.1,0.3-0.1,0.3
		S50.6,87.6,50.6,87.6"/>
</g>
<g id="POLYLINE_439_">
	<path class="st0" d="M36.4,70.4l0,0.4c0,0,0,0.4,0,0.4l0,0.4c0,0,0,0.4,0,0.4l0,0.4l0,0.4l0,0.4l0,0.4c0,0,0,0.4,0,0.4l0,0.4
		c0,0,0.1,0.7,0.1,0.7l0.1,0.7c0,0,0,0.7,0,0.7l0,0.7c0,0,0,0.7,0,0.7l0,0.7c0,0,0,0.7,0,0.7l0,0.7l0,0.7c0,0,0,0.7,0,0.7l0,0.7
		c0,0,0,1.2,0,1.2s0,1.2,0,1.2s0,1.2,0,1.2s0,1.2,0,1.2s0,1.2,0,1.2s0,1.2,0,1.2s0,1.2,0,1.2s0,1.2,0,1.2s-0.1-0.2-0.1-0.2
		S37.2,91,37.2,91s-0.1-0.2-0.1-0.2s-0.1-0.2-0.1-0.2L37,90.5L37,90.3l-0.1-0.2c0,0-0.1-0.2-0.1-0.2s-0.1-0.1-0.1-0.1
		s-0.1-0.1-0.1-0.1l-0.1-0.1c0,0-0.1-0.1-0.1-0.1l-0.1-0.1c0,0-0.1-0.1-0.1-0.1l-0.1-0.1c0,0,0-0.1,0-0.1s0-0.1,0-0.1s0,0,0,0l0,0
		c0,0,0,0,0,0l0,0l0,0c0,0,0,0,0,0l0,0l0,0c0,0,0,0,0,0s0,0,0,0s0,0,0,0s0,0,0,0s0,0,0,0l0,0c0,0,0,0,0,0s0,0,0,0l0,0l0,0l0,0
		c0,0,0,0,0,0l0,0l0,0l0,0c0,0,0,0,0,0s0,0,0,0s0,0,0,0l0,0c0,0,0,0,0,0s0,0,0,0s0,0,0,0s0,0,0,0l0,0l0,0l0,0l0,0c0,0,0,0,0,0
		s0,0,0,0s0,0,0,0l0,0c0,0,0,0,0,0s0,0,0,0s0,0,0,0s0,0,0,0s0,0,0,0s0,0,0,0s0,0,0,0s0,0,0,0l0,0l0,0l0,0l0,0l0,0c0,0,0,0,0,0
		s0,0,0,0l0,0c0,0,0,0,0,0s0,0,0,0s0,0,0,0l0,0l0,0c0,0,0,0,0,0l0,0l0,0.1l0,0.1c0,0,0,0.1,0,0.1s0,0.1,0,0.1s-0.1,0.1-0.1,0.1
		s-0.1,0.1-0.1,0.1l-0.1,0.1c0,0-0.1,0.1-0.1,0.1S33,89.9,33,89.9S32.9,90,32.9,90s-0.1,0.2-0.1,0.2s-0.1,0.2-0.1,0.2
		s-0.1,0.2-0.1,0.2s-0.1,0.2-0.1,0.2s-0.1,0.2-0.1,0.2l-0.1,0.2l-0.1,0.2l-0.1,0.2l-0.1,0.2l0-5.3c0,0,0-2.7,0-2.7l0-2.7l0-1.3
		c0,0,0-1.3,0-1.3s0-1.3,0-1.3s0-1.3,0-1.3l0-1.3c0,0,0-1.3,0-1.3s0-1.3,0-1.3s0-1.3,0-1.3C33.6,70.4,35,70.4,36.4,70.4"/>
</g>
<g id="HATCH_232_">
	<polygon class="st1" points="36.4,70.4 36.4,70.8 36.5,71.1 36.5,71.5 36.5,71.8 36.6,72.2 36.6,72.6 36.7,72.9 36.7,73.3 
		36.7,73.6 36.8,74 36.8,74.7 36.9,75.4 36.9,76.2 37,76.9 37,77.6 37.1,78.3 37.1,79 37.1,79.8 37.1,80.5 37.2,81.2 37.2,81.9 
		37.2,83.1 37.3,84.3 37.3,85.5 37.3,86.7 37.3,87.8 37.3,89 37.4,90.2 37.4,91.4 37.3,91.2 37.2,91 37.2,90.8 37.1,90.7 37,90.5 
		37,90.3 36.9,90.2 36.8,90 36.7,89.9 36.7,89.7 36.6,89.6 36.5,89.5 36.4,89.3 36.3,89.2 36.3,89.1 36.2,89.1 36.2,89 36.1,89 
		36.1,88.9 36.1,88.9 36,88.8 36,88.8 35.9,88.7 35.9,88.7 35.8,88.7 35.8,88.6 35.8,88.6 35.7,88.6 35.7,88.5 35.6,88.5 35.6,88.5 
		35.5,88.5 35.5,88.4 35.5,88.4 35.4,88.4 35.4,88.4 35.3,88.4 35.3,88.3 35.3,88.3 35.2,88.3 35.2,88.3 35.1,88.3 35.1,88.3 
		35.1,88.3 35,88.3 35,88.3 34.9,88.3 34.9,88.3 34.8,88.3 34.8,88.3 34.8,88.3 34.7,88.3 34.7,88.3 34.6,88.3 34.6,88.3 34.6,88.3 
		34.5,88.3 34.5,88.3 34.4,88.3 34.4,88.3 34.3,88.4 34.3,88.4 34.2,88.4 34.2,88.4 34.2,88.5 34.1,88.5 34.1,88.5 34,88.5 34,88.6 
		33.9,88.6 33.9,88.6 33.9,88.7 33.8,88.7 33.8,88.8 33.7,88.8 33.7,88.8 33.6,88.9 33.6,88.9 33.5,89 33.5,89 33.5,89.1 33.4,89.1 
		33.4,89.2 33.3,89.3 33.2,89.4 33.1,89.6 33,89.7 33,89.9 32.9,90 32.8,90.2 32.7,90.3 32.7,90.5 32.6,90.7 32.5,90.9 32.4,91.1 
		32.4,91.3 32.3,91.5 32.2,91.7 32.2,86.4 32.2,83.7 32.2,81 32.2,79.7 32.2,78.4 32.2,77 32.2,75.7 32.2,74.4 32.2,73.1 32.2,71.7 
		32.2,70.4 34.3,70.4 36.4,70.4 	"/>
</g>
<g id="HATCH_233_">
	<polygon class="st1" points="50.6,87.6 50.6,85.5 50.6,83.4 50.6,81.2 50.6,80.2 50.6,79.1 50.6,78 50.6,77 50.6,75.9 50.5,74.8 
		50.5,73.8 50.5,72.7 50.5,71.6 50.4,70.6 52.7,70.6 54.9,70.6 55,71 55,71.4 55.1,71.7 55.1,72.1 55.1,72.4 55.2,72.8 55.2,73.1 
		55.2,73.5 55.3,74.2 55.4,74.9 55.4,75.6 55.5,76.3 55.5,77 55.5,77.7 55.6,78.4 55.6,79.1 55.6,79.8 55.7,80.5 55.7,81.2 
		55.7,81.9 55.7,82.9 55.8,83.9 55.8,84.9 55.8,85.8 55.7,85.7 55.7,85.5 55.6,85.4 55.6,85.2 55.5,85.1 55.4,84.9 55.3,84.8 
		55.3,84.7 55.2,84.6 55.1,84.4 55.1,84.3 55,84.2 54.9,84.1 54.8,84 54.8,83.9 54.7,83.9 54.7,83.9 54.6,83.8 54.6,83.8 54.6,83.7 
		54.5,83.7 54.5,83.7 54.5,83.6 54.4,83.6 54.4,83.6 54.3,83.5 54.3,83.5 54.3,83.5 54.2,83.5 54.2,83.4 54.2,83.4 54.1,83.4 
		54.1,83.4 54,83.4 54,83.3 54,83.3 53.9,83.3 53.9,83.3 53.8,83.3 53.8,83.3 53.8,83.3 53.7,83.3 53.7,83.3 53.7,83.2 53.6,83.2 
		53.6,83.2 53.6,83.2 53.5,83.2 53.5,83.2 53.5,83.2 53.4,83.2 53.4,83.2 53.4,83.2 53.4,83.2 53.3,83.2 53.3,83.2 53.3,83.2 
		53.3,83.3 53.2,83.3 53.2,83.3 53.2,83.3 53.2,83.3 53.1,83.3 53.1,83.3 53.1,83.3 53.1,83.3 53,83.3 53,83.3 53,83.3 53,83.3 
		52.9,83.4 52.9,83.4 52.9,83.4 52.8,83.4 52.8,83.4 52.7,83.5 52.7,83.5 52.6,83.5 52.6,83.6 52.5,83.6 52.5,83.6 52.4,83.7 
		52.4,83.7 52.3,83.8 52.3,83.8 52.2,83.9 52.2,83.9 52.1,84 52.1,84.1 52,84.1 52,84.2 51.9,84.3 51.9,84.3 51.8,84.4 51.8,84.5 
		51.7,84.6 51.6,84.8 51.5,85 51.4,85.2 51.3,85.3 51.3,85.5 51.2,85.7 51.1,86 51,86.2 50.9,86.4 50.9,86.6 50.8,86.9 50.7,87.1 
		50.7,87.4 50.6,87.6 	"/>
</g>
<g id="HATCH_234_">
	<polygon class="st1" points="73.3,71 73.3,71.4 73.3,71.7 73.4,72.1 73.4,72.4 73.5,73.1 73.6,73.8 73.6,74.5 73.7,75.2 73.7,75.9 
		73.8,76.6 73.8,77.3 73.8,78 73.9,78.7 73.9,79.3 73.9,80 74,80.7 74,81.4 74,82.1 74,83.2 74,83.1 73.9,82.9 73.8,82.7 73.8,82.6 
		73.7,82.4 73.6,82.3 73.6,82.1 73.5,82 73.4,81.9 73.3,81.7 73.3,81.6 73.2,81.5 73.1,81.4 73,81.3 73,81.2 72.9,81.1 72.9,81.1 
		72.8,81 72.8,81 72.8,81 72.7,80.9 72.7,80.9 72.6,80.9 72.6,80.8 72.6,80.8 72.5,80.8 72.5,80.7 72.4,80.7 72.4,80.7 72.4,80.6 
		72.3,80.6 72.3,80.6 72.2,80.6 72.2,80.6 72.2,80.5 72.1,80.5 72.1,80.5 72,80.5 72,80.5 72,80.5 71.9,80.5 71.9,80.4 71.8,80.4 
		71.8,80.4 71.8,80.4 71.7,80.4 71.7,80.4 71.7,80.4 71.6,80.4 71.6,80.4 71.5,80.4 71.5,80.4 71.4,80.4 71.4,80.4 71.4,80.4 
		71.3,80.4 71.3,80.5 71.2,80.5 71.2,80.5 71.1,80.5 71.1,80.5 71.1,80.5 71,80.6 71,80.6 70.9,80.6 70.9,80.6 70.8,80.7 70.8,80.7 
		70.8,80.7 70.7,80.8 70.7,80.8 70.6,80.8 70.6,80.9 70.5,80.9 70.5,81 70.4,81 70.4,81 70.4,81.1 70.3,81.1 70.3,81.2 70.2,81.2 
		70.2,81.3 70.1,81.4 70.1,81.5 70,81.6 69.9,81.7 69.8,81.9 69.7,82 69.6,82.2 69.6,82.3 69.5,82.5 69.4,82.7 69.3,82.9 69.3,83 
		69.2,83.2 69.1,83.4 69.1,83.6 69,83.8 69,82.2 69,80.6 69,79 69,77.4 69,75.8 69,74.2 69,72.6 69,71 	"/>
</g>
<g id="HATCH_235_">
	<polygon class="st1" points="87.9,82.5 87.9,81 87.9,79.6 87.9,78.2 87.8,76.8 87.8,75.3 87.8,73.9 87.8,72.5 87.7,71 90,71.1 
		92.3,71.1 92.3,71.4 92.4,71.8 92.4,72.4 92.5,73.1 92.6,73.8 92.6,74.5 92.7,75.1 92.7,75.8 92.8,76.5 92.8,77.2 92.8,77.8 
		92.9,78.5 92.9,79.2 92.9,79.9 92.9,80.5 93,82.2 92.9,82 92.9,81.8 92.8,81.6 92.7,81.4 92.7,81.3 92.6,81.1 92.5,80.9 92.4,80.8 
		92.4,80.6 92.3,80.5 92.2,80.4 92.1,80.2 92.1,80.1 92,80 91.9,79.9 91.9,79.9 91.8,79.8 91.8,79.8 91.7,79.7 91.7,79.7 91.6,79.6 
		91.6,79.6 91.6,79.5 91.5,79.5 91.5,79.5 91.4,79.4 91.4,79.4 91.4,79.4 91.3,79.3 91.3,79.3 91.2,79.3 91.2,79.3 91.1,79.2 
		91.1,79.2 91.1,79.2 91,79.2 91,79.2 90.9,79.1 90.9,79.1 90.9,79.1 90.8,79.1 90.8,79.1 90.7,79.1 90.7,79.1 90.7,79.1 90.6,79.1 
		90.6,79.1 90.5,79.1 90.5,79.1 90.5,79.1 90.4,79.1 90.4,79.1 90.3,79.1 90.3,79.1 90.2,79.1 90.2,79.1 90.2,79.1 90.1,79.1 
		90.1,79.1 90,79.2 90,79.2 89.9,79.2 89.9,79.2 89.8,79.2 89.8,79.3 89.8,79.3 89.7,79.3 89.7,79.3 89.6,79.4 89.6,79.4 89.5,79.4 
		89.5,79.5 89.5,79.5 89.4,79.6 89.4,79.6 89.3,79.6 89.3,79.7 89.2,79.7 89.2,79.8 89.1,79.8 89.1,79.9 89.1,79.9 89,80 88.9,80.1 
		88.9,80.2 88.8,80.4 88.7,80.5 88.6,80.7 88.5,80.8 88.4,81 88.4,81.1 88.3,81.3 88.2,81.5 88.2,81.7 88.1,81.9 88,82.1 88,82.3 	
		"/>
</g>
<g id="HATCH_236_">
	<polygon class="st1" points="107,82 107,80.7 107,79.3 107,77.9 107,76.5 107,75.2 107,73.8 107,72.4 107,71.1 108.1,71 109.2,71 
		110.2,71 111.3,71 111.3,71.4 111.4,71.7 111.4,72.4 111.5,73 111.6,73.7 111.6,74.4 111.7,75 111.7,75.7 111.8,76.4 111.8,77.1 
		111.8,77.7 111.9,78.4 111.9,79.1 111.9,79.8 111.9,80.5 112,81.8 112,82.3 111.9,82.1 111.9,81.9 111.8,81.7 111.7,81.5 
		111.7,81.3 111.6,81.2 111.5,81 111.4,80.9 111.4,80.7 111.3,80.6 111.2,80.4 111.1,80.3 111,80.2 111,80.1 110.9,79.9 110.8,79.9 
		110.8,79.8 110.8,79.8 110.7,79.7 110.7,79.7 110.6,79.7 110.6,79.6 110.5,79.6 110.5,79.5 110.5,79.5 110.4,79.5 110.4,79.4 
		110.3,79.4 110.3,79.4 110.2,79.3 110.2,79.3 110.2,79.3 110.1,79.2 110.1,79.2 110,79.2 110,79.2 109.9,79.2 109.9,79.1 
		109.9,79.1 109.8,79.1 109.8,79.1 109.7,79.1 109.7,79.1 109.7,79.1 109.6,79.1 109.6,79.1 109.5,79.1 109.5,79.1 109.5,79.1 
		109.4,79.1 109.4,79.1 109.3,79.1 109.3,79.1 109.3,79.1 109.2,79.1 109.2,79.1 109.1,79.1 109.1,79.1 109.1,79.1 109,79.1 
		109,79.2 108.9,79.2 108.9,79.2 108.9,79.2 108.8,79.2 108.8,79.3 108.7,79.3 108.7,79.3 108.6,79.3 108.6,79.4 108.6,79.4 
		108.5,79.4 108.5,79.5 108.4,79.5 108.4,79.5 108.4,79.6 108.3,79.6 108.3,79.6 108.2,79.7 108.2,79.7 108.2,79.8 108.1,79.8 
		108.1,79.9 108,80 107.9,80.1 107.8,80.2 107.8,80.3 107.7,80.5 107.6,80.6 107.5,80.7 107.5,80.9 107.4,81 107.3,81.2 107.2,81.3 
		107.2,81.5 107.1,81.7 107,81.9 	"/>
</g>
<g id="HATCH_237_">
	<polygon class="st1" points="125.4,83.5 125.4,82 125.4,80.4 125.4,78.9 125.4,77.3 125.3,75.8 125.3,74.2 125.3,72.7 125.3,71.1 
		127.5,71.1 129.8,71 129.8,71.3 129.8,71.7 129.9,72 129.9,72.4 130,72.7 130,73.1 130.1,73.8 130.1,74.4 130.2,75.1 130.2,75.8 
		130.3,76.5 130.3,77.2 130.3,77.9 130.4,78.6 130.4,79.3 130.4,80 130.5,80.7 130.5,81.4 130.5,82.1 130.5,83 130.6,83.9 
		130.5,83.7 130.4,83.5 130.4,83.3 130.3,83.1 130.2,82.9 130.1,82.7 130.1,82.6 130,82.4 129.9,82.2 129.8,82.1 129.8,81.9 
		129.7,81.8 129.6,81.6 129.5,81.5 129.4,81.4 129.4,81.3 129.3,81.3 129.3,81.2 129.2,81.2 129.2,81.1 129.1,81.1 129.1,81 
		129.1,81 129,80.9 129,80.9 128.9,80.8 128.9,80.8 128.8,80.8 128.8,80.7 128.7,80.7 128.7,80.7 128.7,80.6 128.6,80.6 128.6,80.6 
		128.5,80.6 128.5,80.5 128.4,80.5 128.4,80.5 128.3,80.5 128.3,80.5 128.3,80.5 128.2,80.4 128.2,80.4 128.1,80.4 128.1,80.4 
		128.1,80.4 128,80.4 128,80.4 128,80.4 128,80.4 128,80.4 127.9,80.4 127.9,80.4 127.8,80.4 127.8,80.4 127.8,80.4 127.7,80.4 
		127.7,80.4 127.6,80.4 127.6,80.5 127.6,80.5 127.5,80.5 127.5,80.5 127.4,80.5 127.4,80.5 127.3,80.5 127.3,80.6 127.3,80.6 
		127.2,80.6 127.2,80.6 127.1,80.7 127.1,80.7 127,80.7 127,80.8 127,80.8 126.9,80.8 126.9,80.9 126.8,80.9 126.8,80.9 126.8,81 
		126.7,81 126.7,81.1 126.6,81.1 126.6,81.2 126.5,81.2 126.5,81.3 126.4,81.4 126.3,81.5 126.3,81.6 126.2,81.7 126.1,81.9 126,82 
		126,82.2 125.9,82.3 125.8,82.5 125.7,82.6 125.7,82.8 125.6,83 125.5,83.2 125.5,83.3 	"/>
</g>
<g id="HATCH_238_">
	<polygon class="st1" points="143.8,85.9 143.8,84 143.8,82.1 143.8,80.2 143.8,78.2 143.8,76.3 143.8,74.4 143.8,72.5 143.8,71.5 
		143.8,70.5 145.9,70.5 148,70.4 148,70.8 148.1,71.1 148.1,71.5 148.1,71.8 148.2,72.2 148.2,72.6 148.3,72.9 148.3,73.3 
		148.3,73.6 148.4,74 148.4,74.7 148.5,75.4 148.5,76.2 148.6,76.9 148.6,77.6 148.7,78.3 148.7,79.1 148.7,79.8 148.7,80.5 
		148.8,81.2 148.8,82 148.8,83.2 148.9,84.5 148.9,85.8 148.9,87.1 148.8,86.9 148.8,86.6 148.7,86.4 148.6,86.2 148.6,86 
		148.5,85.8 148.4,85.6 148.3,85.4 148.3,85.2 148.2,85.1 148.1,84.9 148,84.7 147.9,84.6 147.8,84.4 147.7,84.3 147.7,84.2 
		147.7,84.2 147.6,84.1 147.6,84.1 147.5,84 147.5,83.9 147.4,83.9 147.4,83.8 147.3,83.8 147.3,83.8 147.2,83.7 147.2,83.7 
		147.1,83.6 147.1,83.6 147.1,83.6 147,83.5 147,83.5 146.9,83.5 146.9,83.4 146.8,83.4 146.8,83.4 146.7,83.4 146.7,83.3 
		146.6,83.3 146.6,83.3 146.6,83.3 146.5,83.3 146.5,83.3 146.5,83.3 146.5,83.3 146.4,83.3 146.4,83.3 146.4,83.3 146.4,83.2 
		146.4,83.2 146.3,83.2 146.3,83.2 146.3,83.2 146.3,83.2 146.2,83.2 146.2,83.2 146.2,83.2 146.2,83.2 146.1,83.2 146.1,83.2 
		146.1,83.2 146,83.2 146,83.2 146,83.3 145.9,83.3 145.9,83.3 145.8,83.3 145.8,83.3 145.8,83.3 145.7,83.3 145.7,83.3 145.6,83.3 
		145.6,83.4 145.6,83.4 145.5,83.4 145.5,83.4 145.5,83.5 145.4,83.5 145.4,83.5 145.3,83.5 145.3,83.6 145.3,83.6 145.2,83.6 
		145.2,83.7 145.1,83.7 145.1,83.7 145.1,83.8 145,83.8 145,83.8 144.9,83.9 144.9,83.9 144.9,84 144.8,84.1 144.7,84.2 144.6,84.3 
		144.6,84.4 144.5,84.5 144.4,84.6 144.3,84.7 144.3,84.9 144.2,85 144.1,85.1 144.1,85.3 144,85.4 143.9,85.6 143.9,85.8 
		143.8,85.9 	"/>
</g>
<g id="HATCH_239_">
	<polygon class="st1" points="166.9,70 166.9,70.3 167,70.7 167,71.1 167.1,71.4 167.1,71.8 167.2,72.2 167.2,72.5 167.3,72.9 
		167.3,73.3 167.3,73.6 167.4,74 167.4,74.4 167.5,75.1 167.5,75.9 167.6,76.6 167.6,77.3 167.6,78.1 167.7,78.8 167.7,79.5 
		167.7,80.3 167.8,81 167.8,81.8 167.8,83 167.8,84.2 167.9,85.4 167.9,86.6 167.9,87.8 167.9,89 167.9,90.2 168,91.4 167.9,91.3 
		167.8,91.1 167.8,90.9 167.7,90.7 167.6,90.5 167.6,90.4 167.5,90.2 167.4,90 167.3,89.9 167.2,89.7 167.2,89.6 167.1,89.5 
		167,89.4 166.9,89.2 166.8,89.1 166.8,89.1 166.8,89 166.7,89 166.7,88.9 166.6,88.9 166.6,88.8 166.6,88.8 166.5,88.8 166.5,88.7 
		166.4,88.7 166.4,88.6 166.3,88.6 166.3,88.6 166.3,88.5 166.2,88.5 166.2,88.5 166.1,88.5 166.1,88.4 166,88.4 166,88.4 166,88.4 
		165.9,88.4 165.9,88.3 165.8,88.3 165.8,88.3 165.7,88.3 165.7,88.3 165.7,88.3 165.6,88.3 165.6,88.3 165.5,88.3 165.5,88.3 
		165.5,88.3 165.4,88.3 165.4,88.3 165.4,88.3 165.4,88.3 165.3,88.3 165.3,88.3 165.3,88.3 165.3,88.3 165.2,88.3 165.2,88.3 
		165.2,88.3 165.2,88.3 165.1,88.3 165.1,88.3 165.1,88.3 165.1,88.3 165.1,88.3 165,88.3 165,88.3 165,88.3 165,88.3 164.9,88.4 
		164.9,88.4 164.8,88.4 164.8,88.4 164.7,88.5 164.7,88.5 164.6,88.5 164.6,88.6 164.5,88.6 164.5,88.6 164.4,88.7 164.4,88.7 
		164.3,88.7 164.3,88.8 164.2,88.8 164.2,88.9 164.2,88.9 164.1,89 164.1,89.1 164,89.1 164,89.2 163.9,89.2 163.9,89.3 163.8,89.4 
		163.7,89.5 163.6,89.7 163.6,89.8 163.5,90 163.4,90.1 163.3,90.3 163.2,90.5 163.1,90.7 163.1,90.9 163,91.1 162.9,91.3 
		162.9,91.5 162.8,91.8 162.7,92 162.7,92.2 162.7,89.5 162.7,86.7 162.7,85.3 162.7,83.9 162.7,82.5 162.7,81.1 162.7,79.7 
		162.7,78.4 162.6,77 162.6,75.6 162.6,74.2 162.6,72.8 162.5,71.4 162.5,70 163.6,70 164.7,70 165.8,70 	"/>
</g>
</svg>
