<?xml version="1.0" encoding="utf-8"?>
<!-- Generator: Adobe Illustrator 21.1.0, SVG Export Plug-In . SVG Version: 6.00 Build 0)  -->
<svg version="1.1" id="Layer_1" xmlns="http://www.w3.org/2000/svg" xmlns:xlink="http://www.w3.org/1999/xlink" x="0px" y="0px"
	 viewBox="0 0 512 311.6" style="enable-background:new 0 0 512 311.6;" xml:space="preserve">
<style type="text/css">
	.st0{fill:#434A54;}
</style>
<g>
	<g>
		<path class="st0" d="M471.9,11c-7.4,4.1-12.2,6.8-23.9,6.8s-16.5-2.7-23.9-6.8C415.3,6.1,404.3,0,384,0c-20.3,0-31.3,6.1-40.1,11
			c-7.4,4.1-12.2,6.8-23.9,6.8c-11.7,0-16.5-2.7-23.9-6.8C287.3,6.1,276.3,0,256,0s-31.3,6.1-40.1,11c-7.4,4.1-12.2,6.8-23.9,6.8
			s-16.5-2.7-23.9-6.8C159.3,6.1,148.3,0,128,0S96.7,6.1,87.9,11c-7.4,4.1-12.2,6.8-23.9,6.8S47.5,15.1,40.1,11C31.3,6.1,20.3,0,0,0
			v33.4c11.7,0,16.5,2.7,23.9,6.8c8.8,4.9,19.8,11,40.1,11s31.3-6.1,40.1-11c7.4-4.1,12.2-6.8,23.9-6.8s16.5,2.7,23.9,6.8
			c8.8,4.9,19.8,11,40.1,11s31.3-6.1,40.1-11c7.4-4.1,12.2-6.8,23.9-6.8c11.7,0,16.5,2.7,23.9,6.8c8.8,4.9,19.8,11,40.1,11
			c20.3,0,31.3-6.1,40.1-11c7.4-4.1,12.2-6.8,23.9-6.8c11.7,0,16.5,2.7,23.9,6.8c8.8,4.9,19.8,11,40.1,11s31.3-6.1,40.1-11
			c7.4-4.1,12.2-6.8,23.9-6.8V0C491.7,0,480.7,6.1,471.9,11z"/>
	</g>
</g>
<g>
	<g>
		<path class="st0" d="M471.9,141.2c-7.4,4.1-12.2,6.8-23.9,6.8s-16.5-2.7-23.9-6.8c-8.8-4.9-19.8-11-40.1-11
			c-20.3,0-31.3,6.1-40.1,11c-7.4,4.1-12.2,6.8-23.9,6.8c-11.7,0-16.5-2.7-23.9-6.8c-8.8-4.9-19.8-11-40.1-11s-31.3,6.1-40.1,11
			c-7.4,4.1-12.2,6.8-23.9,6.8s-16.5-2.7-23.9-6.8c-8.8-4.9-19.8-11-40.1-11s-31.3,6.1-40.1,11c-7.4,4.1-12.2,6.8-23.9,6.8
			s-16.5-2.7-23.9-6.8c-8.8-4.9-19.8-11-40.1-11v33.4c11.7,0,16.5,2.7,23.9,6.8c8.8,4.9,19.8,11,40.1,11s31.3-6.1,40.1-11
			c7.4-4.1,12.2-6.8,23.9-6.8s16.5,2.7,23.9,6.8c8.8,4.9,19.8,11,40.1,11s31.3-6.1,40.1-11c7.4-4.1,12.2-6.8,23.9-6.8
			c11.7,0,16.5,2.7,23.9,6.8c8.8,4.9,19.8,11,40.1,11c20.3,0,31.3-6.1,40.1-11c7.4-4.1,12.2-6.8,23.9-6.8c11.7,0,16.5,2.7,23.9,6.8
			c8.8,4.9,19.8,11,40.1,11s31.3-6.1,40.1-11c7.4-4.1,12.2-6.8,23.9-6.8v-33.4C491.7,130.2,480.7,136.3,471.9,141.2z"/>
	</g>
</g>
<g>
	<g>
		<path class="st0" d="M471.9,271.4c-7.4,4.1-12.2,6.8-23.9,6.8s-16.5-2.7-23.9-6.8c-8.8-4.9-19.8-11-40.1-11
			c-20.3,0-31.3,6.1-40.1,11c-7.4,4.1-12.2,6.8-23.9,6.8c-11.7,0-16.5-2.7-23.9-6.8c-8.8-4.9-19.8-11-40.1-11s-31.3,6.1-40.1,11
			c-7.4,4.1-12.2,6.8-23.9,6.8s-16.5-2.7-23.9-6.8c-8.8-4.9-19.8-11-40.1-11s-31.3,6.1-40.1,11c-7.4,4.1-12.2,6.8-23.9,6.8
			s-16.5-2.7-23.9-6.8c-8.8-4.9-19.8-11-40.1-11v33.4c11.7,0,16.5,2.7,23.9,6.8c8.8,4.9,19.8,11,40.1,11s31.3-6.1,40.1-11
			c7.4-4.1,12.2-6.8,23.9-6.8s16.5,2.7,23.9,6.8c8.8,4.9,19.8,11,40.1,11s31.3-6.1,40.1-11c7.4-4.1,12.2-6.8,23.9-6.8
			c11.7,0,16.5,2.7,23.9,6.8c8.8,4.9,19.8,11,40.1,11c20.3,0,31.3-6.1,40.1-11c7.4-4.1,12.2-6.8,23.9-6.8c11.7,0,16.5,2.7,23.9,6.8
			c8.8,4.9,19.8,11,40.1,11s31.3-6.1,40.1-11c7.4-4.1,12.2-6.8,23.9-6.8v-33.4C491.7,260.4,480.7,266.5,471.9,271.4z"/>
	</g>
</g>
</svg>
