<?xml version="1.0" encoding="utf-8"?>
<!-- Generator: Adobe Illustrator 21.1.0, SVG Export Plug-In . SVG Version: 6.00 Build 0)  -->
<svg version="1.1" id="Capa_1" xmlns="http://www.w3.org/2000/svg" xmlns:xlink="http://www.w3.org/1999/xlink" x="0px" y="0px"
	 viewBox="0 0 303.3 303.3" style="enable-background:new 0 0 303.3 303.3;" xml:space="preserve">
<style type="text/css">
	.st0{fill:#FF7E03;}
</style>
<path class="st0" d="M298,5.2c-7-7-18.3-7-25.3,0l-97.5,97.5l-17.6-17.6c-5.9-5.9-15.4-5.9-21.2,0l-10.6,10.6
	c-25.6,6.1-51.2,12.2-76.8,18.3l-40.9,9.8c-3.4,0.8-6.2,3.3-7.4,6.6c-1.2,3.3-0.7,7,1.4,9.8C47.3,201.8,101.5,256,163,301.2
	c1.8,1.3,4,2,6.2,2c1.2,0,2.4-0.2,3.6-0.6c3.3-1.2,5.8-4,6.6-7.4l12.2-51.2c5.3-22.2,10.6-44.3,15.8-66.5l10.6-10.6
	c5.9-5.9,5.9-15.4,0-21.2l-17.6-17.6L298,30.6C305,23.6,305,12.2,298,5.2z M162.7,274.7c-8.5-6.6-16.9-13.3-25.1-20.3l13.8-39
	l-27.3,27.3c-9.8-8.7-19.4-17.7-28.8-26.9l13.7-21.7l-21.8,13.7c-8.6-8.7-16.9-17.6-25-26.7l27.4-27.4l-39.2,13.9
	c-7.5-8.9-14.8-17.9-21.9-27.1l93.5-22.3l63,63L162.7,274.7z"/>
</svg>
