<?xml version="1.0" encoding="utf-8"?>
<!-- Generator: Adobe Illustrator 21.1.0, SVG Export Plug-In . SVG Version: 6.00 Build 0)  -->
<svg version="1.1" id="Слой_1" xmlns="http://www.w3.org/2000/svg" xmlns:xlink="http://www.w3.org/1999/xlink" x="0px" y="0px"
	 viewBox="0 0 214.9 103.2" style="enable-background:new 0 0 214.9 103.2;" xml:space="preserve">
<style type="text/css">
	.st0{fill:none;stroke:#FFFFFF;stroke-width:0.7087;stroke-linecap:round;stroke-linejoin:round;stroke-miterlimit:10;}
	.st1{fill-rule:evenodd;clip-rule:evenodd;fill:#FFFFFF;}
	.st2{fill-rule:evenodd;clip-rule:evenodd;fill:#ED6720;}
	.st3{fill:none;stroke:#ED6720;stroke-width:0.7087;stroke-linecap:round;stroke-linejoin:round;stroke-miterlimit:10;}
</style>
<g id="POLYLINE_562_">
	<path class="st0" d="M73.1,88.9l-0.1-1.7c0,0-0.1-1.7-0.1-1.7s-0.1-1.7-0.1-1.7s-0.1-0.9-0.1-0.9S72.6,82,72.6,82s-0.1-0.9-0.1-0.9
		s-0.1-0.9-0.1-0.9l0-0.9l0-0.9c0,0,0-0.9,0-0.9s0-0.9,0-0.9l0-0.9l0-0.9c0,0,0-0.6,0-0.6s0-0.6,0-0.6l0-1.1c0,0,0-1.1,0-1.1
		s0-1.1,0-1.1l0-1.1c0,0,0-1.1,0-1.1s0-1.1,0-1.1l0-1.1c0,0,0-1.1,0-1.1s0-1.1,0-1.1s0.1-4.6,0.1-4.6l0-1.1c0,0,0-1.1,0-1.1
		s0-1.6,0-1.6s0-1.6,0-1.6l0-1.6l0-1.6l0-1.6c0,0,0-1.6,0-1.6l0-1.6l0-1.6c0,0,0-3.2,0-3.2s0-3.2,0-3.2l0-6.4c0,0,0-4.4,0-4.4
		s0-4.4,0-4.4s0-2.2,0-2.2s0-2.2,0-2.2s0-2.2,0-2.2l0-2.2c0,0,0.5,0.1,0.5,0.1s0.5,0.1,0.5,0.1l0.5,0.1c0,0,0.5,0.1,0.5,0.1l0.5,0.1
		c0,0,0.5,0.1,0.5,0.1s0.5,0.1,0.5,0.1l0.5,0.1l0.5,0.1c0,0,0.5,0.1,0.5,0.1s0.5,0.1,0.5,0.1l0.5,0c0,0,0.5,0,0.5,0l0.5,0l0.5,0
		l0.5,0c0,0,0.5,0,0.5,0s0.5,0,0.5,0s0.5,0,0.5,0s0.5,0,0.5,0s0.5,0,0.5,0l0.5,0c0,0,0.5,0,0.5,0l0.5,0l0.5,0c0,0,0.5,0,0.5,0
		s1,0,1,0l1,0l1,0c0,0,1.9-0.1,1.9-0.1s1,0,1,0l1,0l1,0c0,0,0.5,0,0.5,0s0.5,0,0.5,0s0.5,0,0.5,0s0.5,0,0.5,0l0.5,0c0,0,0.5,0,0.5,0
		s0.5,0,0.5,0s0.5,0,0.5,0s0.5,0,0.5,0l0.5,0c0,0,0.5,0,0.5,0s0.5,0,0.5,0s0.5,0,0.5,0s0.5,0,0.5,0s0.5,0,0.5,0s0.5,0.1,0.5,0.1
		s0.5,0.1,0.5,0.1l0.5,0.1l0.5,0.1c0,0,0.5,0.1,0.5,0.1s0.5,0.1,0.5,0.1l0.5,0.1l0.4,0.1c0,0,0.4,0.1,0.4,0.1s0.2,0,0.2,0l0.2,0.1
		c0,0,0.2,0.1,0.2,0.1l0.2,0.1c0,0,0.2,0.1,0.2,0.1l0.2,0.1c0,0,0.2,0.1,0.2,0.1l0.2,0.1l0.2,0.1l0.2,0.1c0,0,0.2,0.1,0.2,0.1
		s0.2,0.1,0.2,0.1s0.2,0.1,0.2,0.1s0.2,0.1,0.2,0.1s0.2,0.1,0.2,0.1l0.2,0.1l0.2,0.1c0,0,0.1,0.1,0.1,0.1l0.1,0.1l0.1,0.1
		c0,0,0.1,0.1,0.1,0.1s0.1,0.1,0.1,0.1l0.1,0.1c0,0,0.1,0.1,0.1,0.1l0.1,0.1l0.1,0.1c0,0,0.1,0.1,0.1,0.1s0.1,0.1,0.1,0.1
		s0.1,0.1,0.1,0.1l0.1,0.1c0,0,0.1,0.1,0.1,0.1s0.1,0.1,0.1,0.1s0.1,0.1,0.1,0.1s0.1,0.1,0.1,0.1s0.1,0.1,0.1,0.1l0.1,0.1l0.1,0.1
		c0,0,0.1,0.1,0.1,0.1l0.1,0.1c0,0,0,0.1,0,0.1s0,0,0,0l0,0c0,0,0,0.1,0,0.1l0,0.1l0,0.1l0,0.1l0,0.1l0,0.1l0,0.1l0,0.1l0.1,0.2
		l0.1,0.3l0,0.3l0,0.3c0,0,0,0.3,0,0.3l0,0.3c0,0,0,0.3,0,0.3l0,0.3l0,0.4l0,0.4l0,0.4l0,0.4l0,0.4l0,0.8l0,0.9l0,0.9l0,0.9
		c0,0,0,0.9,0,0.9s0,1.9,0,1.9l0,6.9c0,0,0,3.5,0,3.5s0,3.5,0,3.5l0,3.5c0,0,0,3.5,0,3.5l0,3.5c0,0,0,3.5,0,3.5l0,3.5l0,3.5l0,3.5
		l0,3.5l0,3.5c0,0,0,3.4,0,3.4l0,3.4l0,3.4l0,3l0,3l-13.8,0c0,0-1.3,0-1.3,0s-1.3,0-1.3,0s-0.6,0-0.6,0s-0.6,0-0.6,0l-0.8,0l-0.8,0
		c0,0-0.4,0-0.4,0s-0.4,0-0.4,0l-0.4,0l-0.4,0c0,0-0.4,0-0.4,0s-0.8-0.1-0.8-0.1s-0.4,0-0.4,0l-0.2,0c0,0-0.2,0-0.2,0s-0.2,0-0.2,0
		l-0.2,0l-0.2,0c0,0-0.2,0-0.2,0l-0.2,0c0,0-0.1,0-0.1,0l-0.1,0c0,0-0.2,0-0.2,0s-0.2,0-0.2,0s-0.8,0.2-0.8,0.2l-0.2,0
		c0,0-0.2,0-0.2,0s-0.1,0-0.1,0s-0.1,0-0.1,0s-0.1,0-0.1,0l-0.1,0c0,0-0.1,0-0.1,0l-0.1,0c0,0-0.1,0-0.1,0l-0.1,0c0,0,0,0,0,0
		s0,0,0,0l0,0l0,0c0,0,0,0,0,0l0,0c0,0,0,0,0,0l0,0c0,0,0,0,0,0l0,0c0,0,0,0,0,0l0,0c0,0,0,0,0,0l0,0c0,0,0,0,0,0l0,0
		c0,0-0.1,0-0.1,0l-0.1,0c0,0-0.1,0-0.1,0l-0.1,0l-0.1,0l-0.1,0c0,0-0.1,0-0.1,0l-0.1,0l-0.1-0.1c0,0-0.1-0.1-0.1-0.1l-0.1-0.1
		c0,0-0.7-0.5-0.7-0.5s-0.1-0.1-0.1-0.1s-0.1-0.1-0.1-0.1s-0.1-0.1-0.1-0.1s-0.1,0-0.1,0l-0.1,0c0,0-0.1,0-0.1,0s-0.1,0-0.1,0
		s-0.1,0-0.1,0l-0.1,0l-0.1,0c0,0-0.1,0-0.1,0l-0.1,0c0,0-0.1,0-0.1,0l-0.1,0c0,0-0.1,0-0.1,0l-0.1,0c0,0-0.1,0-0.1,0s-0.1,0-0.1,0
		l-0.1,0l-0.3-0.1c0,0-0.3-0.1-0.3-0.1s-0.3-0.1-0.3-0.1s-0.3-0.1-0.3-0.1s-0.3-0.1-0.3-0.1s-0.9-0.2-0.9-0.2s-0.3-0.1-0.3-0.1
		S75.8,89,75.8,89S75.5,89,75.5,89l-0.1,0c0,0-0.1,0-0.1,0l-0.1,0l-0.1,0c0,0-0.1,0-0.1,0l-0.1,0c0,0-0.1,0-0.1,0s-0.1,0-0.1,0
		s-0.1,0-0.1,0l-0.1,0l-0.1,0l-0.1,0l-0.1,0c0,0-0.1,0-0.1,0s-0.1,0-0.1,0l-0.1,0l-0.1,0c0,0-0.1,0-0.1,0s-0.1,0-0.1,0
		S73.2,88.9,73.1,88.9L73.1,88.9"/>
</g>
<g id="POLYLINE_563_">
	<path class="st0" d="M155.2,83.3l0.1-0.5l0.1-0.5l0.1-0.5c0,0,0.1-0.5,0.1-0.5s0.1-0.6,0.1-0.6l0.1-0.6l0.1-0.6l0.1-0.6l0-0.7
		c0,0,0-0.7,0-0.7l0-0.7c0,0,0-0.7,0-0.7s0-0.8,0-0.8s0-0.8,0-0.8l0-0.8l0-0.8l0-0.8c0,0,0-0.9,0-0.9s0-0.9,0-0.9l0-0.9l0-0.9l0-0.9
		l-0.1-1.9c0,0-0.2-5.9-0.2-5.9l-0.1-2l0-1.7l0-1.7l0-1.7l0-1.7c0,0,0-1.7,0-1.7s0-1.7,0-1.7l0-1.7l0-1.7c0,0,0-1.7,0-1.7l0-1.7
		l0-3.3l0-7.7l0-1.1l0-1.1l0-1.1l0-0.5l0-0.5c0,0,0-0.5,0-0.5l0-0.5l0-0.5l0-0.5c0,0,0-0.4,0-0.4l0-0.4c0,0,0-0.4,0-0.4l0-0.4l0-0.4
		l-0.1-0.4l-0.1-0.3c0,0,0-0.2,0-0.2s0-0.2,0-0.2l0-0.2c0,0,0-0.1,0-0.1s0-0.1,0-0.1l0-0.1l0-0.1l0-0.1c0,0,0-0.1,0-0.1s0-0.1,0-0.1
		s0-0.1,0-0.1l0-0.1c0,0,0,0,0,0s0,0,0,0l0,0l0,0c0,0,0,0,0,0s0,0,0,0l0,0c0,0,0,0,0,0c0,0-0.1-0.1-0.1-0.1c0,0,0,0,0,0c0,0,0,0,0,0
		c0,0,0,0,0,0c0,0,0,0,0,0c0,0,0,0,0,0c0,0,0,0,0,0c0,0,0,0,0,0c0,0-0.1,0-0.1,0s-3.3-1-3.3-1l-0.9-0.2l-0.9-0.2
		c0,0-0.9-0.2-0.9-0.2s-0.9-0.2-0.9-0.2l-0.9-0.2l-0.9-0.2c0,0-0.9-0.2-0.9-0.2l-0.5-0.1l-0.5-0.1l-0.5-0.1l-0.5-0.1
		c0,0-0.5-0.1-0.5-0.1l-0.5-0.1l-0.5-0.1l-0.5-0.1l-0.5-0.1c0,0-0.5-0.1-0.5-0.1s-0.5-0.1-0.5-0.1l-0.5-0.1l-0.5-0.1l-0.5-0.1
		c0,0-0.5-0.1-0.5-0.1l-0.5-0.1c0,0-0.5-0.1-0.5-0.1s-0.5-0.1-0.5-0.1l-0.5,0l-0.5,0l-0.5,0l-0.5,0l-0.5,0l-0.5,0l-0.5,0
		c0,0-0.5,0-0.5,0l-0.5,0l-0.5,0c0,0-0.5,0-0.5,0s-0.5,0-0.5,0l-0.5,0l-0.5,0l-0.5,0l-0.5,0l-0.5,0l-0.5,0.1l-0.5,0.1l-0.5,0.1
		c0,0-0.5,0.1-0.5,0.1l-0.5,0.1l-0.5,0.1l-0.5,0.1l-0.4,0.1c0,0-0.4,0.1-0.4,0.1s-0.2,0-0.2,0l-0.2,0.1c0,0-0.2,0.1-0.2,0.1
		l-0.2,0.1c0,0-0.2,0.1-0.2,0.1l-0.2,0.1c0,0-0.2,0.1-0.2,0.1s-0.2,0.1-0.2,0.1l-0.2,0.1c0,0-0.2,0.1-0.2,0.1s-0.2,0.1-0.2,0.1
		l-0.2,0.1c0,0-0.2,0.1-0.2,0.1l-0.2,0.1c0,0-0.2,0.1-0.2,0.1l-0.2,0.1l-0.2,0.1l-0.1,0.1l-0.1,0.1l-0.1,0.1c0,0-0.1,0.1-0.1,0.1
		l-0.1,0.1l-0.1,0.1c0,0-0.1,0.1-0.1,0.1l-0.1,0.1l-0.1,0.1l-0.1,0.1c0,0-0.1,0.1-0.1,0.1s-0.1,0.1-0.1,0.1l-0.1,0.1l-0.1,0.1
		c0,0-0.1,0.1-0.1,0.1l-0.1,0.1c0,0-0.1,0.1-0.1,0.1s-0.1,0.1-0.1,0.1s-0.1,0.1-0.1,0.1l-0.1,0.1l-0.1,0.1l-0.1,0.1c0,0,0,0.1,0,0.1
		s0,0,0,0s0,0,0,0s0,0.1,0,0.1l0,0.1l0,0.1c0,0,0,0.1,0,0.1s0,0.1,0,0.1l0,0.1l0,0.1l0,0.1l-0.1,0.2l-0.1,0.3l0,0.3c0,0,0,0.3,0,0.3
		l0,0.3c0,0,0,0.3,0,0.3l0,0.3l0,0.3c0,0,0,0.4,0,0.4l0,0.4l0,0.4c0,0,0,0.4,0,0.4s0,0.4,0,0.4l0,0.8c0,0,0,0.9,0,0.9s0,0.9,0,0.9
		l0,0.9l0,0.9l0,1.9c0,0,0,6.9,0,6.9l0,3.5l0,3.5c0,0,0,3.5,0,3.5l0,3.5l0,3.5l0,3.5l0,3.5l0,3.5l0,3.5l0,3.5l0,3.5c0,0,0,3.4,0,3.4
		l0,3.4l0,3.4c0,0,0,0.7,0,0.7l0,0.7l0,0.4l0,0.3l0,0.3l0,0.3l0,0.3l0,0.3l0,0.1l0,0.1l0,0.1l0,0.1l0,0.1l0,0.1l0,0l0,0l0,0l0,0l0,0
		l0,0l0,0c0,0,0,0.1,0,0.1c0,0,0,0,0,0c0,0,0,0,0,0c0,0,0,0,0,0s0.1,0.1,0.1,0.1l0.1,0.1c0,0,0.1,0.1,0.1,0.1l0.1,0.1l0.1,0.1
		l0.1,0.1l0.1,0.1c0,0,0.1,0.1,0.1,0.1l0.1,0.1c0,0,0.1,0.1,0.1,0.1l0.1,0l0.1,0c0,0,0.1,0,0.1,0l0.1,0l0.1,0l0.1,0l0.1,0l0.1,0
		c0,0,0.1,0,0.1,0l0.1,0l0.1,0l0.1,0l0.1,0l0.1,0c0,0,0.1,0,0.1,0s0.1,0,0.1,0s0.1,0,0.1,0s0.1,0,0.1,0l0.1,0l0.1,0c0,0,0.1,0,0.1,0
		l0.1,0l0.1,0l0.1,0l0.1,0l0.1,0l0.2,0c0,0,0.2,0,0.2,0l0.3,0c0,0,0.3,0,0.3,0l0.6,0c0,0,8.9,0,8.9,0l1.3,0c0,0,1.3,0,1.3,0
		s0.6,0,0.6,0l0.6,0l0.8,0l0.8,0c0,0,0.4,0,0.4,0l0.4,0l0.4,0c0,0,0.4,0,0.4,0l0.4,0c0,0,0.8-0.1,0.8-0.1s0.4,0,0.4,0l0.2,0l0.2,0
		c0,0,0.2,0,0.2,0l0.2,0l0.2,0c0,0,0.2,0,0.2,0l0.2,0c0,0,0.1,0,0.1,0l0.1,0l0.2,0c0,0,0.2,0,0.2,0l0.8,0.2l0.2,0l0.2,0
		c0,0,0.1,0,0.1,0l0.1,0c0,0,0.1,0,0.1,0l0.1,0l0.1,0l0.1,0c0,0,0.1,0,0.1,0l0.1,0l0,0c0,0,0,0,0,0l0,0l0,0c0,0,0,0,0,0l0,0
		c0,0,0,0,0,0l0,0l0,0l0,0c0,0,0,0,0,0l0,0c0,0,0,0,0,0l0,0c0,0,0,0,0,0l0,0c0,0,0.1,0,0.1,0s0.1,0,0.1,0l0.1,0l0.1,0
		c0,0,0.1,0,0.1,0s0.1,0,0.1,0s0.1,0,0.1,0l0.1,0l0.1-0.1c0,0,0.1-0.1,0.1-0.1l0.3-0.2l0.3-0.2l0.3-0.2l0.1-0.1l0.1-0.1
		c0,0,0.1-0.1,0.1-0.1s0.1,0,0.1,0l0.1,0l0.1,0c0,0,0.1,0,0.1,0l0.1,0c0,0,0.1,0,0.1,0s0.1,0,0.1,0s0.1,0,0.1,0l0.1,0l0.1,0l0.1,0
		l0.1,0l0.1,0l0.1,0c0,0,0.1,0,0.1,0l0.1,0l0.3-0.1l0.5-0.1l0.2-0.1l0.2-0.1c0,0,0.2-0.1,0.2-0.1l0.2-0.1l0.1,0c0,0,0.1,0,0.1,0
		s0.1,0,0.1,0s0.1,0,0.1,0s0.1,0,0.1,0s0.1,0,0.1,0l0.1,0l0.1,0l0.1,0l0.1,0c0,0,0.1-0.1,0.1-0.1l0.1-0.1l0.1-0.1
		c0,0,0.1-0.1,0.1-0.1l0.1-0.1l0.1-0.1l0.1-0.1l0.1-0.1l0.1-0.1c0,0,0.1-0.1,0.1-0.1l0.1-0.1l0.1-0.1c0,0,0.1-0.1,0.1-0.1
		s0.1-0.1,0.1-0.1l0.1-0.1l0.1-0.1l0.1-0.1c0,0,0.1-0.1,0.1-0.1l0.1-0.1c0,0,0.1-0.1,0.1-0.1s0.1-0.1,0.1-0.1l0.1-0.1l0.1-0.1
		L154,87l0.1-0.1c0,0,0.1-0.1,0.1-0.1l0.1-0.1l0.1-0.1l0.1-0.1l0.1-0.1l0.1-0.1l0.1-0.2l0.1-0.2c0,0,0.1-0.2,0.1-0.2l0.1-0.2
		c0,0,0.1-0.2,0.1-0.2l0.1-0.2l0.1-0.2c0,0,0.1-0.2,0.1-0.2s0.1-0.2,0.1-0.2l0-0.2c0,0,0-0.2,0-0.2l0-0.2l0-0.2c0,0,0-0.2,0-0.2
		S155.2,83.3,155.2,83.3"/>
</g>
<g id="HATCH_335_">
	<path class="st1" d="M155,88.9l0.1-1.7l0.1-1.7l0.1-1.7l0.1-0.9l0.1-0.9l0.1-0.9l0.1-0.9l0-0.9l0-0.9l0-0.9l0-0.9l0-0.9l0-0.9
		l0-0.6l0-0.6l0-1.1l0-1.1l0-1.1l0-1.1l0-1.1l0-1.1l0-1.1l0-1.1l0-1.1l-0.1-4.6l0-1.1l0-1.1l0-1.6l0-1.6l0-1.6l0-1.6l0-1.6l0-1.6
		l0-1.6l0-1.6l0-3.2l0-3.2l0-6.4l0-4.4l0-4.4l0-2.2l0-2.2l0-2.2l0-2.2l-0.5,0.1l-0.5,0.1l-0.5,0.1l-0.5,0.1l-0.5,0.1l-0.5,0.1
		l-0.5,0.1l-0.5,0.1l-0.5,0.1l-0.5,0.1l-0.5,0.1l-0.5,0l-0.5,0l-0.5,0l-0.5,0l-0.5,0l-0.5,0l-0.5,0l-0.5,0l-0.5,0l-0.5,0l-0.5,0
		l-0.5,0l-0.5,0l-0.5,0l-0.5,0l-1,0l-1,0l-1,0l-1.9-0.1l-1,0l-1,0l-1,0l-0.5,0l-0.5,0l-0.5,0l-0.5,0l-0.5,0l-0.5,0l-0.5,0l-0.5,0
		l-0.5,0l-0.5,0l-0.5,0l-0.5,0l-0.5,0l-0.5,0l-0.5,0l-0.5,0.1l-0.5,0.1l-0.5,0.1l-0.5,0.1l-0.5,0.1l-0.5,0.1l-0.5,0.1l-0.4,0.1
		l-0.8,0.2l-0.4,0.1l-0.4,0.1l-0.2,0l-0.2,0l-0.2,0l-0.2,0l-0.2,0l-0.2,0l-0.2,0l-0.2,0l-0.2,0l-0.2,0l-0.2,0l-0.1,0l-0.1,0l-0.1,0
		l-0.1,0l-0.1,0l-0.1,0l-0.1,0l-0.1,0l-0.1,0l-0.1,0l-0.1,0l-0.1,0l-0.1,0l-0.1,0l-0.1,0l-0.1,0l-0.1,0l-0.1,0l-0.1,0l-0.1-0.1
		l-0.1-0.1l-0.1-0.1l0,0.2l0,1.8l0,1.8l0,1.8l0,1.8l0,1.9l0,1.9l0,10.6l0,3.5l0,3.5l0,3.5l0,3.5l0,3.5l0,3.5l0,3.5l0,3.5l0,3.5
		l0,3.5l0,3.5l0,3.5l0,3.4l0,3.4l0,0.7l0,0.7l0,0.4l0,0.3l0,0.3l0,0.3l0,0.3l0,0.3l0,0.1l0,0.1l0,0.1l0,0.1l0,0.1l0,0.1l0,0l0,0l0,0
		l0,0l0,0l0,0l0,0l0,0l0,0l0,0l0,0l0,0l0,0l0,0l0,0l0,0l0,0l0,0l0.1,0.1l0.1,0.1l0.1,0.1l0.1,0.1l0.1,0.1l0.1,0.1l0.1,0.1l0.1,0.1
		l0.1,0.1l0.1,0.1l0.1,0l0.1,0l0.1,0l0.1,0l0.1,0l0.1,0l0.1,0l0.1,0l0.1,0l0.1,0l0.1,0l0.1,0l0.1,0l0.1,0l0.1,0l0.1,0l0.1,0l0.1,0
		l0.1,0l0.1,0l0.1,0l0.1,0l0.1,0l0.1,0l0.1,0l0.1,0l0.2,0l0.2,0l0.3,0l0.3,0l0.6,0l8.9,0l1.3,0l1.3,0l0.6,0l0.6,0l0.8,0l0.8,0l0.4,0
		l0.4,0l0.4,0l0.4,0l0.4,0l0.8-0.1l0.4,0l0.2,0l0.2,0l0.2,0l0.2,0l0.2,0l0.2,0l0.2,0l0.1,0l0.1,0l0.2,0l0.2,0l0.8,0.2l0.2,0l0.2,0
		l0.1,0l0.1,0l0.1,0l0.1,0l0.1,0l0.1,0l0.1,0l0.1,0l0,0l0,0l0,0l0,0l0,0l0,0l0,0l0,0l0,0l0,0l0,0l0,0l0,0l0,0l0,0l0,0l0.1,0l0.1,0
		l0.1,0l0.1,0l0.1,0l0.1,0l0.1,0l0.1,0l0.1-0.1l0.1-0.1l0.1-0.1l0.7-0.5l0.1-0.1l0.1-0.1l0.1-0.1l0.1,0l0.1,0l0.1,0l0.1,0l0.1,0
		l0.1,0l0.1,0l0.1,0l0.1,0l0.1,0l0.1,0l0.1,0l0.1,0l0.1,0l0.1,0l0.1,0l0.3-0.1l0.3-0.1l0.3-0.1l0.3-0.1l0.3-0.1l0.9-0.2l0.3-0.1
		l0.3-0.1l0.3-0.1l0.1,0l0.1,0l0.1,0l0.1,0l0.1,0l0.1,0l0.1,0l0.1,0l0.1,0l0.1,0l0.1,0l0.1,0l0.1,0l0.1,0l0.1,0l0.1,0l0.1,0l0.1,0
		l0.1,0L155,88.9L155,88.9z M153.8,87.4l-0.2,0l-0.2,0l-0.2,0l-0.2,0l-0.2,0l-0.2,0l-0.2,0l-0.2,0l-0.3,0.1l-0.3,0.1l-0.4,0.1
		l-0.7,0.2l-0.3,0.1l-0.3,0.1l-0.3,0.1l-0.5,0.1l-0.3,0.1l-0.2,0l-0.2,0l-0.2,0.1l-0.2,0.1l-0.1,0l-0.1,0l-0.1,0l-0.1,0l-0.1,0
		l-0.1,0l-0.1,0l-0.1,0l-0.1,0.1l-0.1,0.1l-0.1,0.1l-0.1,0.1l-0.2,0.1l-0.2,0.1l-0.2,0.1L146,90l-0.1,0.1l-0.1,0.1l-0.1,0.1l-0.1,0
		l-0.1,0l0,0l0,0l0,0l0,0l0,0l0,0l0,0l0,0l0,0l0,0l0,0l0,0l0,0l0,0l0,0l0,0l0,0l0,0l0,0l0,0l0,0l0,0l0,0l0,0l-0.1,0l-0.1,0l-0.1,0
		l-0.1,0l-0.1,0l-0.1,0l-0.1,0l-0.2,0l-0.6-0.1l-0.2,0l-0.2,0l-0.2,0l-0.2,0l-0.2,0l-0.2,0l-0.2,0l-0.2,0l-0.2,0l-0.2,0l-0.3,0
		l-0.3,0l-0.5,0l-0.4,0l-0.4,0l-0.3,0l-0.3,0l-0.2,0l-0.2,0l-0.5,0l-1.8,0l-0.7,0l-2.7,0l-12.7,0l0-3.2l0-3.2l0-3.9l0-3.9l0-3.9
		l0-3.9l0-3.9l0-3.9l0-3.9l0-3.9l0-3.9l0-3.9l0-3.9l0-3.9l0-12.6l0-1.8l0-1.8l0-1.8l0-1.8l0.2,0l0.2,0l0.2,0l0.2,0l0.2,0l0.2,0
		l0.2,0l0.2,0l0.2,0l0.2,0l0.2,0l0.2,0l0.2,0l0.2,0l0.2,0l0.2,0l0.3-0.1l0.3-0.1l0.5-0.1l0.9-0.2l0.3-0.1l0.3-0.1l0.3-0.1l0.3-0.1
		l0.3-0.1l0.3-0.1l0.3,0l0.3,0l0.4,0l0.4,0l0.4,0l0.4,0l0.4,0l0.4,0l0.4,0l0.4,0l0.4,0l0.4,0l0.4,0l0.4,0l0.4,0l0.4,0l0.8,0l0.8,0
		l0.8,0l0.8,0l0.8,0l0.8,0l3.1,0.1l0.8,0l0.8,0l0.8,0l0.8,0l0.8,0l0.8,0l0.4,0l0.4,0l0.4,0l0.4,0l0.4,0l0.4,0l0.4,0l0.4,0l0.4,0
		l0.4,0l0.3,0l0.3,0l0.3,0l0.3,0l0.3,0l0.3,0l0.3,0l0.3,0l0.3,0l0.3,0l0.3-0.1l0.3-0.1l0.3-0.1l0.3-0.1l0.3-0.1l0.3-0.1l0,2l0,2l0,4
		l0,4l0,4l0,6.4l0,3.2l0,3.2l0,1.6l0,1.6l0,1.6l0,1.6l0,1.6l0,1.6l0,1.6l0,1.6l0,1.1l0,1.1l0.1,4.6l0,1.1l0,1.1l0,1.1l0,1.1l0,1.1
		l0,1.1l0,1.1l0,1.1l0,1.1l0,0.6l0,0.6l0,0.8l0,0.8l0,0.8l0,0.8l0,0.8l0,0.8l0,0.8l0,0.8l-0.1,0.8l-0.1,0.8l-0.1,1.5l-0.1,1.5
		L153.8,87.4z"/>
</g>
<g id="HATCH_336_">
	<path class="st1" d="M165.4,16.6l-0.1,1.7l-0.1,1.7l-0.1,1.7l-0.1,0.9l-0.1,0.9l-0.1,0.9l-0.1,0.9l0,0.9l0,0.9l0,0.9l0,0.9l0,0.9
		l0,0.9l0,0.6l0,0.6l0,1.1l0,1.1l0,1.1l0,1.1l0,1.1l0,1.1l0,1.1l0,1.1l0,1.1l0.1,4.6l0,1.1l0,1.1l0,1.6l0,1.6l0,1.6l0,1.6l0,1.6
		l0,1.6l0,1.6l0,1.6l0,3.2l0,3.2l0,6.4l0,4.4l0,4.4l0,2.2l0,2.2l0,2.2l0,2.2l0.5-0.1l0.5-0.1l0.5-0.1l0.5-0.1l0.5-0.1l0.5-0.1
		l0.5-0.1l0.5-0.1l0.5-0.1l0.5-0.1l0.5-0.1l0.5,0l0.5,0l0.5,0l0.5,0l0.5,0l0.5,0l0.5,0l0.5,0l0.5,0l0.5,0l0.5,0l0.5,0l0.5,0l0.5,0
		l0.5,0l1,0l1,0l1,0l1.9,0.1l1,0l1,0l1,0l0.5,0l0.5,0l0.5,0l0.5,0l0.5,0l0.5,0l0.5,0l0.5,0l0.5,0l0.5,0l0.5,0l0.5,0l0.5,0l0.5,0
		l0.5,0l0.5-0.1l0.5-0.1l0.5-0.1l0.5-0.1l0.5-0.1l0.5-0.1l0.5-0.1l1.6-0.3l0.4-0.1l0.2,0l0.2,0l0.2,0l0.2,0l0.2,0l0.2,0l0.2,0l0.2,0
		l0.2,0l0.2,0l0.2,0l0.2,0l0.1,0l0.1,0l0.1,0l0.1,0l0.1,0l0.1,0l0.1,0l0.1,0l0.1,0l0.1,0l0.1,0l0.1,0l0.1,0l0.1,0l0.1,0l0.1,0l0.1,0
		l0.1,0l0.1,0l0.1,0.1c0,0,0,0,0,0c0,0,0,0,0,0c0,0,0,0,0,0c0,0,0,0,0,0c0,0,0,0,0,0c0,0,0,0,0,0c0,0,0,0,0,0c0,0,0,0,0,0
		c0,0,0,0,0,0c0,0,0,0,0,0c0,0,0,0,0,0l0,0l0,0l0,0l0,0l0,0l0,0l0,0l0,0l0,0l0,0l0,0l0,0l0,0l0-1.9l0-1.8l0-1.8l0-1.8l0-1.9l0-1.9
		l0-10.6l0-3.5l0-3.5l0-3.5l0-3.5l0-3.5l0-3.5l0-3.5l0-3.5l0-3.5l0-3.5l0-3.5l0-3.5l0-3.4l0-3.4l0-0.7l0-0.4l0-0.4l0-0.4l0-0.3
		l0-0.3l0-0.2l0-0.2l0-0.1l0-0.1l0-0.1l0-0.1l0-0.1l0-0.1l0-0.1l0-0.1l0-0.1l0-0.1l0-0.1l0-0.1l0,0l0,0l0,0l0,0l0,0l0,0l0,0l0,0l0,0
		l0,0l0,0l0,0l0,0l0,0l0,0l0,0l0,0l0,0l0,0l0,0l0,0l0,0l0,0l0,0l0,0l0,0l0,0l-0.3-0.1l-0.3-0.1l-0.3-0.1l-0.3-0.1l-0.3-0.1l-0.3-0.1
		l-0.3-0.1l-0.3-0.1l-0.3-0.1l-0.3-0.1l-0.3-0.1l-0.3-0.1l-0.3-0.1l-0.2-0.1l-0.2,0l-0.2,0l-0.2,0l-0.2,0l-0.2,0l-0.2,0l-0.2,0
		l-0.2,0l-0.2,0l-0.2,0l-0.4,0l-0.4,0l-0.4,0l-5.8,0l-1.3,0l-1.3,0l-0.6,0l-0.6,0l-0.8,0l-0.8,0l-0.4,0l-0.4,0l-0.4,0l-0.4,0l-0.4,0
		l-0.8,0.1l-0.4,0l-0.2,0l-0.2,0l-0.2,0l-0.2,0l-0.2,0l-0.2,0l-0.2,0l-0.1,0l-0.1,0l-0.2,0l-0.2,0l-0.8-0.2l-0.2,0l-0.2,0l-0.1,0
		l-0.1,0l-0.1,0l-0.1,0l-0.1,0l-0.1,0l-0.1,0l-0.1,0l0,0l0,0l0,0l0,0l0,0l0,0l0,0l0,0l0,0l0,0l0,0l0,0l0,0l0,0l0,0l0,0l-0.1,0
		l-0.1,0l-0.1,0l-0.1,0l-0.1,0l-0.1,0l-0.1,0l-0.1,0l-0.1,0.1l-0.1,0.1l-0.1,0.1L173,15l-0.1,0.1l-0.1,0.1l-0.1,0.1l-0.1,0l-0.1,0
		l-0.1,0l-0.1,0l-0.1,0l-0.1,0l-0.1,0l-0.1,0l-0.1,0l-0.1,0l-0.1,0l-0.1,0l-0.1,0l-0.1,0l-0.1,0l-0.1,0l-0.3,0.1l-0.3,0.1l-0.3,0.1
		l-0.3,0.1l-0.3,0.1l-0.9,0.2l-0.3,0.1l-0.3,0.1l-0.3,0.1l-0.1,0l-0.1,0l-0.1,0l-0.1,0l-0.1,0l-0.1,0l-0.1,0l-0.1,0l-0.1,0l-0.1,0
		l-0.1,0l-0.1,0l-0.1,0l-0.1,0l-0.1,0l-0.1,0l-0.1,0l-0.1,0l-0.1,0L165.4,16.6L165.4,16.6z M166.7,18.1l0.2,0l0.2,0l0.2,0l0.2,0
		l0.2,0l0.2,0l0.2,0l0.2,0l0.3-0.1l0.3-0.1l0.4-0.1l0.7-0.2l0.3-0.1l0.3-0.1l0.3-0.1l0.5-0.1l0.3-0.1l0.2,0l0.2,0L172,17l0.2-0.1
		l0.1,0l0.1,0l0.1,0l0.1,0l0.1,0l0.1,0l0.1,0l0.1,0l0.1-0.1l0.1-0.1l0.1-0.1l0.1-0.1l0.2-0.1l0.2-0.1l0.2-0.1l0.5-0.4l0.1-0.1
		l0.1-0.1l0.1-0.1l0.1,0l0.1,0l0,0l0,0l0,0l0,0l0,0l0,0l0,0l0,0l0,0l0,0l0,0l0,0l0,0l0,0l0,0l0,0l0,0l0,0l0,0l0,0l0,0l0,0l0,0l0,0
		l0.1,0l0.1,0l0.1,0l0.1,0l0.1,0l0.1,0l0.1,0l0.2,0l0.6,0.1l0.2,0l0.2,0l0.2,0l0.2,0l0.2,0l0.2,0l0.2,0l0.2,0l0.2,0l0.2,0l0.3,0
		l0.3,0l0.5,0l0.4,0l0.4,0l0.3,0l0.3,0l0.2,0l0.2,0l0.5,0l1.8,0l0.7,0l2.7,0l12.7,0l0,3.2l0,3.2l0,3.9l0,3.9l0,3.9l0,3.9l0,3.9
		l0,3.9l0,3.9l0,3.9l0,3.9l0,3.9l0,3.9l0,3.9l0,12.6l0,1.8l0,1.8l0,1.8l0,1.8l-0.2,0l-0.2,0l-0.2,0l-0.2,0l-0.2,0l-0.2,0l-0.2,0
		l-0.2,0l-0.2,0l-0.2,0l-0.2,0l-0.2,0l-0.2,0l-0.2,0l-0.2,0l-0.2,0l-0.3,0.1l-0.3,0.1l-0.5,0.1l-0.9,0.2l-0.3,0.1l-0.3,0.1l-0.3,0.1
		l-0.3,0.1l-0.3,0.1l-0.3,0.1l-0.3,0l-0.3,0l-0.4,0l-0.4,0l-0.4,0l-0.4,0l-0.4,0l-0.4,0l-0.4,0l-0.4,0l-0.4,0l-0.4,0l-0.4,0l-0.4,0
		l-0.4,0l-0.4,0l-0.8,0l-0.8,0l-0.8,0l-0.8,0l-0.8,0l-0.8,0l-3.1-0.1l-0.8,0l-0.8,0l-0.8,0l-0.8,0l-0.8,0l-0.8,0l-0.4,0l-0.4,0
		l-0.4,0l-0.4,0l-0.4,0l-0.4,0l-0.4,0l-0.4,0l-0.4,0l-0.4,0l-0.3,0l-0.3,0l-0.3,0l-0.3,0l-0.3,0l-0.3,0l-0.3,0l-0.3,0l-0.3,0l-0.3,0
		l-0.3,0.1l-0.3,0.1l-0.3,0.1L167,90l-0.3,0.1l-0.3,0.1l0-2l0-2l0-4l0-4l0-4l0-6.4l0-3.2l0-3.2l0-1.6l0-1.6l0-1.6l0-1.6l0-1.6l0-1.6
		l0-1.6l0-1.6l0-1.1l0-1.1l-0.1-4.6l0-1.1l0-1.1l0-1.1l0-1.1l0-1.1l0-1.1l0-1.1l0-1.1l0-1.1l0-0.6l0-0.6l0-0.8l0-0.8l0-0.8l0-0.8
		l0-0.8l0-0.8l0-0.8l0-0.8l0.1-0.8l0.1-0.8l0.1-1.5l0.1-1.5L166.7,18.1z"/>
</g>
<g id="POLYLINE_564_">
	<path class="st0" d="M165.4,16.6l-0.1,1.7c0,0-0.1,1.7-0.1,1.7l-0.1,1.7c0,0-0.1,0.9-0.1,0.9l-0.1,0.9l-0.1,0.9l-0.1,0.9l0,0.9
		l0,0.9l0,0.9c0,0,0,0.9,0,0.9l0,0.9l0,0.9l0,0.6l0,0.6c0,0,0,1.1,0,1.1s0,1.1,0,1.1l0,1.1l0,1.1l0,1.1c0,0,0,1.1,0,1.1l0,1.1l0,1.1
		c0,0,0,1.1,0,1.1l0.1,4.6l0,1.1l0,1.1c0,0,0,1.6,0,1.6l0,1.6l0,1.6l0,1.6l0,1.6c0,0,0,1.6,0,1.6l0,1.6l0,1.6l0,3.2l0,3.2l0,7.5
		l0,1.1c0,0,0,1.1,0,1.1l0,1l0,0.5l0,0.5c0,0,0,0.5,0,0.5l0,0.5c0,0,0,0.5,0,0.5s0,0.5,0,0.5l0,0.4c0,0,0,0.4,0,0.4l0,0.4l0,0.4
		c0,0,0,0.4,0,0.4l0.1,0.4l0.1,0.3l0,0.2c0,0,0,0.2,0,0.2l0,0.2l0,0.1l0,0.1l0,0.1c0,0,0,0.1,0,0.1s0,0.1,0,0.1l0,0.1
		c0,0,0,0.1,0,0.1s0,0.1,0,0.1s0,0.1,0,0.1l0,0c0,0,0,0,0,0l0,0l0,0l0,0c0,0,0,0,0,0s0,0,0,0s0,0,0,0c0,0,0.1,0.1,0.1,0.1
		c0,0,0,0,0,0c0,0,0,0,0,0c0,0,0,0,0,0c0,0,0,0,0,0c0,0,0,0,0,0c0,0,0,0,0,0c0,0,0,0,0,0c0,0,0.1,0,0.1,0l3.3,1l0.9,0.2
		c0,0,0.9,0.2,0.9,0.2l0.9,0.2c0,0,0.9,0.2,0.9,0.2l0.9,0.2l0.9,0.2l0.9,0.2c0,0,0.5,0.1,0.5,0.1l0.5,0.1l0.5,0.1l0.5,0.1l0.5,0.1
		l0.5,0.1l0.5,0.1l0.5,0.1L180,90l0.5,0.1l0.5,0.1l0.5,0.1l0.5,0.1l0.5,0.1l0.5,0.1l0.5,0.1l0.5,0.1l0.5,0.1l0.5,0l0.5,0l0.5,0
		c0,0,0.5,0,0.5,0l0.5,0l0.5,0l0.5,0l0.5,0l0.5,0l0.5,0c0,0,0.5,0,0.5,0s0.5,0,0.5,0s0.5,0,0.5,0l0.5,0l0.5,0l0.5,0l0.5,0l0.5-0.1
		l0.5-0.1l0.5-0.1l0.5-0.1l0.5-0.1l0.5-0.1c0,0,0.5-0.1,0.5-0.1l0.4-0.1c0,0,0.4-0.1,0.4-0.1l0.2,0l0.2-0.1c0,0,0.2-0.1,0.2-0.1
		l0.2-0.1l0.2-0.1l0.2-0.1l0.2-0.1l0.2-0.1l0.2-0.1l0.2-0.1l0.2-0.1l0.2-0.1c0,0,0.2-0.1,0.2-0.1L199,89l0.2-0.1l0.2-0.1l0.2-0.1
		c0,0,0.1-0.1,0.1-0.1l0.1-0.1l0.1-0.1c0,0,0.1-0.1,0.1-0.1s0.1-0.1,0.1-0.1l0.1-0.1c0,0,0.1-0.1,0.1-0.1l0.1-0.1l0.1-0.1l0.1-0.1
		l0.1-0.1l0.1-0.1c0,0,0.1-0.1,0.1-0.1s0.1-0.1,0.1-0.1s0.1-0.1,0.1-0.1s0.1-0.1,0.1-0.1s0.1-0.1,0.1-0.1l0.1-0.1l0.1-0.1l0.1-0.1
		l0.1-0.1l0.1-0.1c0,0,0-0.1,0-0.1s0,0,0,0l0,0c0,0,0-0.1,0-0.1l0-0.1l0-0.1l0-0.1c0,0,0-0.1,0-0.1l0-0.1c0,0,0-0.1,0-0.1l0-0.1
		l0.1-0.2l0.1-0.3l0-0.3c0,0,0-0.3,0-0.3s0-0.3,0-0.3l0-0.3l0-0.3l0-0.3l0-0.4l0-0.4l0-0.4c0,0,0-0.4,0-0.4s0-0.4,0-0.4l0-0.8
		c0,0,0-0.9,0-0.9s0-0.9,0-0.9s0-0.9,0-0.9l0-0.9l0-1.9l0-6.9c0,0,0-3.5,0-3.5s0-3.5,0-3.5l0-3.5c0,0,0-3.5,0-3.5l0-3.5
		c0,0,0-3.5,0-3.5s0-3.5,0-3.5l0-3.5l0-3.5c0,0,0-3.5,0-3.5s0-3.5,0-3.5s0-3.4,0-3.4s0-3.4,0-3.4l0-3.4c0,0,0-0.7,0-0.7l0-0.4l0-0.4
		l0-0.4l0-0.3c0,0,0-0.3,0-0.3l0-0.2l0-0.2l0-0.1l0-0.1l0-0.1c0,0,0-0.1,0-0.1l0-0.1c0,0,0-0.1,0-0.1l0-0.1l0-0.1c0,0,0-0.1,0-0.1
		l0-0.1c0,0,0-0.1,0-0.1s0-0.1,0-0.1s0,0,0,0s0,0,0,0l0,0c0,0,0,0,0,0c0,0,0,0,0,0c0,0,0,0,0,0c0,0,0-0.1,0-0.1c0,0,0,0,0,0
		c0,0,0,0,0,0c0,0,0,0,0,0c0,0-0.1,0-0.1,0c0,0-0.1,0-0.1,0s-0.3-0.1-0.3-0.1s-0.3-0.1-0.3-0.1l-0.3-0.1l-0.3-0.1l-0.3-0.1l-0.3-0.1
		l-0.3-0.1l-0.3-0.1c0,0-0.3-0.1-0.3-0.1l-0.3-0.1l-0.3-0.1c0,0-0.3-0.1-0.3-0.1l-0.3-0.1l-0.2-0.1l-0.2,0l-0.2,0c0,0-0.2,0-0.2,0
		l-0.2,0l-0.2,0l-0.2,0c0,0-0.2,0-0.2,0l-0.2,0l-0.2,0l-0.2,0l-0.4,0l-0.4,0c0,0-0.4,0-0.4,0s-5.8,0-5.8,0l-1.3,0l-1.3,0
		c0,0-0.6,0-0.6,0s-0.6,0-0.6,0l-0.8,0l-0.8,0c0,0-0.4,0-0.4,0s-0.4,0-0.4,0l-0.4,0l-0.4,0l-0.4,0l-0.8,0.1l-0.4,0l-0.2,0l-0.2,0
		l-0.2,0l-0.2,0l-0.2,0c0,0-0.2,0-0.2,0l-0.2,0c0,0-0.1,0-0.1,0l-0.1,0c0,0-0.2,0-0.2,0l-0.2,0l-0.8-0.2l-0.2,0l-0.2,0l-0.1,0
		l-0.1,0l-0.1,0l-0.1,0c0,0-0.1,0-0.1,0l-0.1,0c0,0-0.1,0-0.1,0s-0.1,0-0.1,0l0,0l0,0l0,0l0,0l0,0l0,0c0,0,0,0,0,0l0,0c0,0,0,0,0,0
		s0,0,0,0l0,0l0,0c0,0,0,0,0,0l0,0l0,0c0,0,0,0,0,0l-0.1,0l-0.1,0l-0.1,0l-0.1,0l-0.1,0l-0.1,0l-0.1,0l-0.1,0c0,0-0.1,0.1-0.1,0.1
		l-0.1,0.1l-0.1,0.1L173,15l-0.1,0.1c0,0-0.1,0.1-0.1,0.1s-0.1,0.1-0.1,0.1l-0.1,0l-0.1,0l-0.1,0l-0.1,0c0,0-0.1,0-0.1,0
		s-0.1,0-0.1,0l-0.1,0c0,0-0.1,0-0.1,0l-0.1,0l-0.1,0l-0.1,0l-0.1,0l-0.1,0c0,0-0.1,0-0.1,0l-0.1,0c0,0-0.1,0-0.1,0l-0.3,0.1
		c0,0-0.3,0.1-0.3,0.1l-0.3,0.1l-0.3,0.1c0,0-0.3,0.1-0.3,0.1l-0.9,0.2c0,0-0.3,0.1-0.3,0.1s-0.3,0.1-0.3,0.1l-0.3,0.1l-0.1,0
		c0,0-0.1,0-0.1,0l-0.1,0l-0.1,0l-0.1,0l-0.1,0l-0.1,0l-0.1,0c0,0-0.1,0-0.1,0s-0.1,0-0.1,0s-0.1,0-0.1,0s-0.1,0-0.1,0l-0.1,0
		l-0.1,0c0,0-0.1,0-0.1,0l-0.1,0c0,0-0.1,0-0.1,0l-0.1,0l-0.1,0L165.4,16.6L165.4,16.6"/>
</g>
<g id="HATCH_337_">
	<polygon class="st1" points="74.3,87.4 74.5,87.5 74.7,87.5 74.9,87.5 75.1,87.5 75.2,87.5 75.4,87.6 75.6,87.6 75.8,87.6 
		76.1,87.7 76.4,87.8 76.8,87.9 77.5,88.1 77.7,88.1 78,88.2 78.3,88.3 78.8,88.4 79.1,88.4 79.3,88.5 79.5,88.5 79.7,88.6 
		79.8,88.6 79.9,88.7 80,88.7 80.1,88.8 80.2,88.8 80.3,88.8 80.4,88.9 80.5,88.9 80.6,89 80.7,89 80.8,89.1 80.9,89.2 81,89.2 
		81.2,89.4 81.4,89.5 81.6,89.6 82.1,90 82.2,90.1 82.3,90.2 82.5,90.3 82.5,90.3 82.6,90.3 82.6,90.3 82.6,90.4 82.7,90.4 
		82.7,90.4 82.8,90.4 82.8,90.4 82.8,90.4 82.8,90.5 82.8,90.5 82.9,90.5 82.9,90.5 82.9,90.5 82.9,90.5 82.9,90.5 83,90.5 83,90.5 
		83,90.5 83,90.5 83,90.5 83.1,90.5 83.1,90.5 83.1,90.5 83.2,90.5 83.2,90.5 83.3,90.5 83.3,90.5 83.4,90.5 83.5,90.5 83.5,90.5 
		83.6,90.5 83.8,90.4 83.9,90.4 84.5,90.3 84.7,90.2 84.9,90.2 85.1,90.1 85.3,90.1 85.5,90.1 85.8,90.1 86,90.1 86.2,90.1 
		86.5,90.1 86.7,90.1 87,90.1 87.2,90.1 87.7,90.1 88.1,90.2 88.5,90.2 88.8,90.2 89.1,90.2 89.4,90.2 89.6,90.2 90.1,90.2 
		91.9,90.2 92.6,90.2 95.3,90.2 108,90.2 108,87 108.1,83.8 108.1,80 108.1,76.1 108.2,72.2 108.2,68.3 108.2,64.4 108.2,60.5 
		108.2,56.6 108.2,52.7 108.2,48.8 108.2,44.9 108.2,41 108.2,37.1 108.1,24.5 108.1,22.7 108.1,20.9 108.1,19 108.1,17.2 108,17.3 
		107.8,17.3 107.6,17.3 107.4,17.3 107.2,17.3 107,17.3 106.8,17.3 106.6,17.3 106.5,17.3 106.3,17.3 106.1,17.3 105.9,17.3 
		105.7,17.3 105.5,17.2 105.4,17.2 105.2,17.2 104.8,17.1 104.5,17 104,16.9 103.1,16.7 102.7,16.7 102.4,16.6 102.1,16.5 
		101.7,16.5 101.4,16.4 101.1,16.4 100.7,16.3 100.4,16.3 100,16.2 99.6,16.2 99.3,16.2 98.9,16.1 98.5,16.1 98.2,16.1 97.8,16.1 
		97.4,16 97,16 96.7,16 96.3,16 95.9,16 95.5,16 95.1,16 94.4,16 93.6,16 92.9,16 92.1,16 91.3,16.1 90.5,16.1 87.4,16.2 86.7,16.2 
		85.9,16.3 85.1,16.3 84.3,16.3 83.5,16.3 82.7,16.3 82.4,16.3 82,16.3 81.6,16.3 81.2,16.3 80.9,16.3 80.5,16.3 80.2,16.3 
		79.8,16.2 79.4,16.2 79.1,16.2 78.8,16.2 78.5,16.1 78.1,16.1 77.8,16.1 77.5,16 77.2,16 76.9,16 76.6,15.9 76.2,15.9 75.9,15.8 
		75.6,15.8 75.3,15.7 75,15.7 74.7,15.6 74.4,15.5 74,15.5 74,17.4 74,19.4 74,23.4 74,27.3 74,31.3 74,37.7 74,40.9 74,44.1 
		74,45.7 74,47.3 74,48.9 74,50.5 74,52.1 73.9,53.7 73.9,55.3 73.9,56.9 73.8,58 73.8,59.2 73.7,63.7 73.6,64.9 73.6,66 73.6,67.2 
		73.6,68.3 73.6,69.4 73.5,70.5 73.5,71.7 73.5,72.8 73.6,73.9 73.6,74.5 73.6,75.1 73.6,75.8 73.6,76.6 73.7,77.4 73.7,78.2 
		73.7,78.9 73.8,79.7 73.8,80.5 73.9,81.3 73.9,82 74,82.8 74.1,84.4 74.2,85.9 	"/>
</g>
<g id="HATCH_338_">
	<polygon class="st1" points="153.8,87.4 153.9,85.9 154,84.4 154.1,82.8 154.2,82 154.2,81.3 154.3,80.5 154.3,79.7 154.4,78.9 
		154.4,78.2 154.4,77.4 154.5,76.6 154.5,75.8 154.5,75.1 154.5,74.5 154.5,73.9 154.6,72.8 154.6,71.7 154.6,70.5 154.5,69.4 
		154.5,68.3 154.5,67.2 154.5,66 154.5,64.9 154.4,63.7 154.3,59.2 154.3,58 154.2,56.9 154.2,55.3 154.2,53.7 154.1,52.1 
		154.1,50.5 154.1,48.9 154.1,47.3 154.1,45.7 154.1,44.1 154.1,40.9 154.1,37.7 154.1,31.3 154.1,27.3 154.1,23.4 154.1,19.4 
		154.1,17.4 154.1,15.5 153.7,15.5 153.4,15.6 153.1,15.7 152.8,15.7 152.5,15.8 152.2,15.8 151.9,15.9 151.5,15.9 151.2,16 
		150.9,16 150.6,16 150.3,16.1 150,16.1 149.6,16.1 149.3,16.2 149,16.2 148.7,16.2 148.3,16.2 147.9,16.3 147.6,16.3 147.2,16.3 
		146.9,16.3 146.5,16.3 146.1,16.3 145.8,16.3 145.4,16.3 144.6,16.3 143.8,16.3 143,16.3 142.2,16.3 141.4,16.2 140.7,16.2 
		137.6,16.1 136.8,16.1 136,16 135.2,16 134.5,16 133.7,16 133,16 132.6,16 132.2,16 131.8,16 131.4,16 131.1,16 130.7,16 
		130.3,16.1 129.9,16.1 129.6,16.1 129.2,16.1 128.8,16.2 128.5,16.2 128.1,16.2 127.7,16.3 127.4,16.3 127,16.4 126.7,16.4 
		126.4,16.5 126,16.5 125.7,16.6 125.4,16.7 125,16.7 124.1,16.9 123.6,17 123.3,17.1 122.9,17.2 122.7,17.2 122.6,17.2 122.4,17.3 
		122.2,17.3 122,17.3 121.8,17.3 121.7,17.3 121.5,17.3 121.3,17.3 121.1,17.3 120.9,17.3 120.7,17.3 120.5,17.3 120.3,17.3 
		120.1,17.3 120,17.2 120,19 120,20.9 120,22.7 120,24.5 119.9,37.1 119.9,41 119.9,44.9 119.9,48.8 119.9,52.7 119.9,56.6 
		119.9,60.5 119.9,64.4 119.9,68.3 119.9,72.2 120,76.1 120,80 120,83.8 120.1,87 120.1,90.2 131.5,90.2 134.2,90.2 135.5,90.2 
		136.2,90.2 138,90.2 138.5,90.2 138.7,90.2 139,90.2 139.3,90.2 139.6,90.2 140,90.2 140.4,90.1 140.9,90.1 141.1,90.1 141.4,90.1 
		141.6,90.1 141.9,90.1 142.1,90.1 142.3,90.1 142.6,90.1 142.8,90.1 143,90.1 143.2,90.2 143.4,90.2 143.6,90.3 144.2,90.4 
		144.4,90.4 144.5,90.5 144.6,90.5 144.7,90.5 144.7,90.5 144.8,90.5 144.8,90.5 144.9,90.5 144.9,90.5 145,90.5 145,90.5 145,90.5 
		145.1,90.5 145.1,90.5 145.1,90.5 145.1,90.5 145.1,90.5 145.2,90.5 145.2,90.5 145.2,90.5 145.2,90.5 145.2,90.5 145.3,90.5 
		145.3,90.5 145.3,90.4 145.3,90.4 145.3,90.4 145.4,90.4 145.4,90.4 145.5,90.4 145.5,90.3 145.5,90.3 145.6,90.3 145.7,90.3 
		145.8,90.2 145.9,90.1 146,90 146.5,89.6 146.7,89.5 146.9,89.4 147.1,89.2 147.2,89.2 147.3,89.1 147.4,89 147.5,89 147.6,88.9 
		147.7,88.9 147.8,88.8 147.9,88.8 148,88.8 148.1,88.7 148.2,88.7 148.3,88.6 148.4,88.6 148.6,88.5 148.8,88.5 149,88.4 
		149.3,88.4 149.8,88.3 150.1,88.2 150.4,88.1 150.6,88.1 151.3,87.9 151.7,87.8 152,87.7 152.3,87.6 152.5,87.6 152.7,87.6 
		152.9,87.5 153,87.5 153.2,87.5 153.4,87.5 153.6,87.5 	"/>
</g>
<g id="HATCH_339_">
	<polygon class="st1" points="166.7,18.1 166.5,19.7 166.4,21.2 166.3,22.8 166.3,23.5 166.2,24.3 166.2,25.1 166.1,25.9 
		166.1,26.6 166,27.4 166,28.2 166,29 166,29.8 165.9,30.5 165.9,31.1 165.9,31.7 165.9,32.8 165.9,33.9 165.9,35 165.9,36.2 
		165.9,37.3 165.9,38.4 166,39.6 166,40.7 166,41.8 166.2,46.4 166.2,47.6 166.2,48.7 166.3,50.3 166.3,51.9 166.3,53.5 166.3,55.1 
		166.4,56.7 166.4,58.3 166.4,59.9 166.4,61.5 166.4,64.7 166.4,67.9 166.4,74.3 166.4,78.3 166.4,82.2 166.4,86.2 166.4,88.1 
		166.4,90.1 166.7,90.1 167,90 167.3,89.9 167.7,89.9 168,89.8 168.3,89.8 168.6,89.7 168.9,89.7 169.2,89.6 169.5,89.6 169.9,89.5 
		170.2,89.5 170.5,89.5 170.8,89.5 171.1,89.4 171.4,89.4 171.8,89.4 172.2,89.4 172.5,89.3 172.9,89.3 173.2,89.3 173.6,89.3 
		174,89.3 174.3,89.3 174.7,89.3 175.1,89.3 175.9,89.3 176.7,89.3 177.5,89.3 178.2,89.3 179,89.3 179.8,89.4 182.9,89.5 
		183.7,89.5 184.4,89.6 185.2,89.6 186,89.6 186.7,89.6 187.5,89.6 187.9,89.6 188.3,89.6 188.6,89.6 189,89.6 189.4,89.6 
		189.8,89.5 190.1,89.5 190.5,89.5 190.9,89.5 191.3,89.4 191.6,89.4 192,89.4 192.4,89.3 192.7,89.3 193.1,89.3 193.4,89.2 
		193.8,89.2 194.1,89.1 194.4,89 194.8,89 195.1,88.9 195.4,88.8 196.4,88.6 196.9,88.5 197.2,88.5 197.5,88.4 197.7,88.4 
		197.9,88.4 198.1,88.3 198.3,88.3 198.4,88.3 198.6,88.3 198.8,88.3 199,88.3 199.2,88.3 199.4,88.3 199.6,88.3 199.7,88.3 
		199.9,88.3 200.1,88.3 200.3,88.3 200.5,88.4 200.5,86.5 200.5,84.7 200.5,82.9 200.5,81.1 200.5,68.5 200.5,64.6 200.6,60.7 
		200.6,56.8 200.6,52.9 200.6,49 200.6,45.1 200.5,41.2 200.5,37.3 200.5,33.4 200.5,29.5 200.5,25.6 200.4,21.7 200.4,18.6 
		200.3,15.4 189,15.4 186.3,15.4 184.9,15.4 184.2,15.4 182.5,15.4 182,15.4 181.7,15.4 181.5,15.4 181.2,15.4 180.8,15.4 
		180.4,15.4 180.1,15.5 179.6,15.5 179.3,15.5 179.1,15.5 178.8,15.5 178.6,15.5 178.4,15.5 178.1,15.5 177.9,15.5 177.6,15.5 
		177.5,15.4 177.3,15.4 177.1,15.4 176.8,15.3 176.3,15.2 176.1,15.2 176,15.1 175.9,15.1 175.8,15.1 175.7,15.1 175.7,15.1 
		175.6,15.1 175.6,15.1 175.5,15.1 175.5,15.1 175.4,15.1 175.4,15.1 175.4,15.1 175.4,15.1 175.3,15.1 175.3,15.1 175.3,15.1 
		175.3,15.1 175.3,15.1 175.3,15.1 175.2,15.1 175.2,15.1 175.2,15.1 175.2,15.1 175.2,15.1 175.1,15.1 175.1,15.2 175.1,15.2 
		175,15.2 175,15.2 175,15.2 174.9,15.3 174.9,15.3 174.8,15.3 174.7,15.4 174.6,15.5 174.4,15.6 173.9,16 173.7,16.1 173.6,16.2 
		173.4,16.4 173.3,16.4 173.2,16.5 173.1,16.6 172.9,16.6 172.9,16.7 172.8,16.7 172.7,16.8 172.6,16.8 172.5,16.8 172.4,16.9 
		172.3,16.9 172.2,16.9 172,17 171.8,17.1 171.7,17.1 171.5,17.1 171.2,17.2 170.6,17.3 170.4,17.4 170.1,17.4 169.8,17.5 
		169.2,17.7 168.8,17.8 168.5,17.9 168.1,18 167.9,18 167.8,18 167.6,18.1 167.4,18.1 167.2,18.1 167,18.1 166.9,18.1 	"/>
</g>
<g id="HATCH_340_">
	<polygon class="st2" points="28.8,87.4 28.7,85.9 28.6,84.4 28.5,82.8 28.4,82 28.4,81.3 28.3,80.5 28.3,79.7 28.2,78.9 28.2,78.2 
		28.1,77.4 28.1,76.6 28.1,75.8 28.1,75.1 28.1,74.5 28,73.9 28,72.8 28,71.7 28,70.5 28,69.4 28.1,68.3 28.1,67.2 28.1,66 
		28.1,64.9 28.2,63.7 28.3,59.2 28.3,58 28.4,56.9 28.4,55.3 28.4,53.7 28.5,52.1 28.5,50.5 28.5,48.9 28.5,47.3 28.5,45.7 
		28.5,44.1 28.5,40.9 28.5,37.7 28.5,31.3 28.5,27.3 28.5,23.4 28.5,19.4 28.5,17.4 28.5,15.5 28.8,15.5 29.2,15.6 29.5,15.7 
		29.8,15.7 30.1,15.8 30.4,15.8 30.7,15.9 31.1,15.9 31.4,16 31.7,16 32,16 32.3,16.1 32.6,16.1 32.9,16.1 33.3,16.2 33.6,16.2 
		33.9,16.2 34.3,16.2 34.7,16.3 35,16.3 35.4,16.3 35.7,16.3 36.1,16.3 36.4,16.3 36.8,16.3 37.2,16.3 38,16.3 38.8,16.3 39.6,16.3 
		40.4,16.3 41.2,16.2 41.9,16.2 45,16.1 45.8,16.1 46.6,16 47.3,16 48.1,16 48.9,16 49.6,16 50,16 50.4,16 50.8,16 51.1,16 51.5,16 
		51.9,16 52.3,16.1 52.6,16.1 53,16.1 53.4,16.1 53.8,16.2 54.1,16.2 54.5,16.2 54.9,16.3 55.2,16.3 55.6,16.4 55.9,16.4 56.2,16.5 
		56.6,16.5 56.9,16.6 57.2,16.7 57.6,16.7 58.5,16.9 59,17 59.3,17.1 59.7,17.2 59.9,17.2 60,17.2 60.2,17.3 60.4,17.3 60.6,17.3 
		60.8,17.3 60.9,17.3 61.1,17.3 61.3,17.3 61.5,17.3 61.7,17.3 61.9,17.3 62.1,17.3 62.3,17.3 62.4,17.3 62.6,17.2 62.6,19 
		62.6,20.9 62.6,22.7 62.6,24.5 62.7,37.1 62.7,41 62.7,44.9 62.7,48.8 62.7,52.7 62.7,56.6 62.7,60.5 62.7,64.4 62.7,68.3 
		62.6,72.2 62.6,76.1 62.6,80 62.6,83.8 62.5,87 62.5,90.2 51.1,90.2 48.4,90.2 47.1,90.2 46.4,90.2 44.6,90.2 44.1,90.2 43.9,90.2 
		43.6,90.2 43.3,90.2 43,90.2 42.6,90.2 42.2,90.1 41.7,90.1 41.5,90.1 41.2,90.1 41,90.1 40.7,90.1 40.5,90.1 40.3,90.1 40,90.1 
		39.8,90.1 39.6,90.1 39.4,90.2 39.2,90.2 39,90.3 38.4,90.4 38.2,90.4 38.1,90.5 38,90.5 37.9,90.5 37.9,90.5 37.8,90.5 37.8,90.5 
		37.7,90.5 37.6,90.5 37.6,90.5 37.6,90.5 37.6,90.5 37.5,90.5 37.5,90.5 37.5,90.5 37.5,90.5 37.4,90.5 37.4,90.5 37.4,90.5 
		37.4,90.5 37.4,90.5 37.3,90.5 37.3,90.5 37.3,90.5 37.3,90.4 37.3,90.4 37.3,90.4 37.2,90.4 37.2,90.4 37.1,90.4 37.1,90.3 
		37,90.3 37,90.3 36.9,90.3 36.8,90.2 36.7,90.1 36.6,90 36,89.6 35.9,89.5 35.7,89.4 35.5,89.2 35.4,89.2 35.3,89.1 35.2,89 
		35.1,89 35,88.9 34.9,88.9 34.8,88.8 34.7,88.8 34.6,88.8 34.5,88.7 34.4,88.7 34.3,88.6 34.2,88.6 34,88.5 33.8,88.5 33.6,88.4 
		33.3,88.4 32.8,88.3 32.5,88.2 32.2,88.1 31.9,88.1 31.3,87.9 30.9,87.8 30.6,87.7 30.3,87.6 30.1,87.6 29.9,87.6 29.7,87.5 
		29.6,87.5 29.4,87.5 29.2,87.5 29,87.5 	"/>
</g>
<g id="HATCH_341_">
	<path class="st1" d="M73.1,88.9L73.1,88.9l0.1,0l0.1,0l0.1,0l0.1,0l0.1,0l0.1,0l0.1,0l0.1,0l0.1,0l0.1,0l0.1,0l0.1,0l0.1,0l0.1,0
		l0.1,0l0.1,0l0.1,0l0.1,0l0.1,0l0.1,0l0.3,0.1l0.3,0.1l0.3,0.1l0.9,0.2l0.3,0.1l0.3,0.1l0.3,0.1l0.3,0.1l0.3,0.1l0.1,0l0.1,0l0.1,0
		l0.1,0l0.1,0l0.1,0l0.1,0l0.1,0l0.1,0l0.1,0l0.1,0l0.1,0l0.1,0l0.1,0l0.1,0l0.1,0l0.1,0.1l0.1,0.1l0.1,0.1l0.3,0.2l0.4,0.3l0.1,0.1
		l0.1,0.1l0.1,0.1l0.1,0l0.1,0l0.1,0l0.1,0l0.1,0l0.1,0l0.1,0l0.1,0l0,0l0,0l0,0l0,0l0,0l0,0l0,0l0,0l0,0l0,0l0,0l0,0l0,0l0,0l0,0
		l0,0l0.1,0l0.1,0l0.1,0l0.1,0l0.1,0l0.1,0l0.1,0l0.1,0l0.2,0l0.2,0l0.8-0.2l0.2,0l0.2,0l0.1,0l0.1,0l0.2,0l0.2,0l0.2,0l0.2,0l0.2,0
		l0.2,0l0.2,0l0.4,0l0.8,0.1l0.4,0l0.4,0l0.4,0l0.4,0l0.4,0l0.8,0l0.8,0l0.6,0l0.6,0l1.3,0l2.7,0l12.4,0l0-3l0-3l0-3.4l0-3.4l0-3.5
		l0-3.5l0-3.5l0-3.5l0-3.5l0-3.5l0-3.5l0-3.5l0-3.5l0-3.5l0-3.5l0-3.5l0-12.5l0-1.9l0-1.8l0-1.8l0-1.8l0-2l-0.1,0.1l-0.1,0.1
		l-0.1,0.1l-0.1,0l-0.1,0l-0.1,0l-0.1,0l-0.1,0l-0.1,0l-0.1,0l-0.1,0l-0.1,0l-0.1,0l-0.1,0l-0.1,0l-0.1,0l-0.1,0l-0.1,0l-0.1,0
		l-0.1,0l-0.1,0l-0.1,0l-0.2,0l-0.2,0l-0.2,0l-0.2,0l-0.2,0l-0.2,0l-0.2,0l-0.2,0l-0.2,0l-0.2,0l-0.2,0l-0.4-0.1l-0.4-0.1l-0.8-0.2
		l-0.4-0.1l-0.5-0.1l-0.5-0.1l-0.5-0.1l-0.5-0.1l-0.5-0.1l-0.5-0.1l-0.5-0.1l-0.5,0l-0.5,0l-0.5,0l-0.5,0l-0.5,0l-0.5,0l-0.5,0
		l-0.5,0l-0.5,0l-0.5,0l-0.5,0l-0.5,0l-0.5,0l-0.5,0l-0.5,0l-1,0l-1,0l-1,0L88,14.8l-1,0l-1,0l-1,0l-0.5,0l-0.5,0l-0.5,0l-0.5,0
		l-0.5,0l-0.5,0l-0.5,0l-0.5,0l-0.5,0l-0.5,0l-0.5,0l-0.5,0l-0.5,0l-0.5,0l-0.5,0l-0.5-0.1L77,14.6l-0.5-0.1L76,14.5l-0.5-0.1
		l-0.5-0.1l-0.5-0.1l-0.5-0.1L73.6,14l-0.5-0.1l-0.5-0.1l0,2.2l0,2.2l0,2.2l0,2.2l0,4.4l0,4.4l0,6.4l0,3.2l0,3.2l0,1.6l0,1.6l0,1.6
		l0,1.6l0,1.6l0,1.6l0,1.6l0,1.6l0,1.1l0,1.1l-0.1,4.6l0,1.1l0,1.1l0,1.1l0,1.1l0,1.1l0,1.1l0,1.1l0,1.1l0,1.1l0,0.6l0,0.6l0,0.9
		l0,0.9l0,0.9l0,0.9l0,0.9l0,0.9l0.1,0.9l0.1,0.9l0.1,0.9l0.1,0.9l0.1,1.7l0.1,1.7L73.1,88.9z M74.3,87.4l-0.1-1.5l-0.1-1.5L74,82.8
		L73.9,82l-0.1-0.8l0-0.8l0-0.8l0-0.8l0-0.8l0-0.8l0-0.8l0-0.8l0-0.8l0-0.6l0-0.6l0-1.1l0-1.1l0-1.1l0-1.1l0-1.1l0-1.1l0-1.1l0-1.1
		l0-1.1l0.1-4.6l0-1.1l0-1.1l0-1.6l0-1.6l0-1.6l0-1.6l0-1.6l0-1.6l0-1.6l0-1.6l0-3.2l0-3.2l0-6.4l0-4l0-4l0-4l0-2l0-2l0.3,0.1
		l0.3,0.1l0.3,0.1l0.3,0.1l0.3,0.1l0.3,0.1l0.3,0l0.3,0l0.3,0l0.3,0l0.3,0l0.3,0l0.3,0l0.3,0l0.3,0l0.3,0l0.4,0l0.4,0l0.4,0l0.4,0
		l0.4,0l0.4,0l0.4,0l0.4,0l0.4,0l0.4,0l0.8,0l0.8,0l0.8,0l0.8,0l0.8,0l0.8,0l3.1-0.1l0.8,0l0.8,0l0.8,0l0.8,0l0.8,0l0.8,0l0.4,0
		l0.4,0l0.4,0l0.4,0l0.4,0l0.4,0l0.4,0l0.4,0l0.4,0l0.4,0l0.4,0l0.4,0l0.4,0l0.4,0l0.3,0l0.3,0l0.3,0.1l0.3,0.1l0.3,0.1l0.3,0.1
		l0.3,0.1l0.3,0.1l0.9,0.2l0.5,0.1l0.3,0.1l0.3,0.1l0.2,0l0.2,0l0.2,0l0.2,0l0.2,0l0.2,0l0.2,0l0.2,0l0.2,0l0.2,0l0.2,0l0.2,0l0.2,0
		l0.2,0l0.2,0l0.2,0l0,1.8l0,1.8l0,1.8l0,1.8l0,12.6l0,3.9l0,3.9l0,3.9l0,3.9l0,3.9l0,3.9l0,3.9l0,3.9l0,3.9l0,3.9l0,3.9l0,3.9
		l0,3.2l0,3.2l-11.4,0l-2.7,0l-1.3,0l-0.7,0l-1.8,0l-0.5,0l-0.2,0l-0.2,0l-0.3,0l-0.3,0l-0.4,0l-0.4,0l-0.5,0l-0.3,0l-0.3,0l-0.2,0
		l-0.2,0l-0.2,0l-0.2,0l-0.2,0l-0.2,0l-0.2,0l-0.2,0l-0.2,0l-0.2,0l-0.6,0.1l-0.2,0l-0.1,0l-0.1,0l-0.1,0l-0.1,0l-0.1,0l-0.1,0
		l-0.1,0l0,0l0,0l0,0l0,0l0,0l0,0l0,0l0,0l0,0l0,0l0,0l0,0l0,0l0,0l0,0l0,0l0,0l0,0l0,0l0,0l0,0l0,0l0,0l0,0l-0.1,0l-0.1,0l-0.1-0.1
		l-0.1-0.1L82.1,90l-0.5-0.4l-0.2-0.1l-0.2-0.1L81,89.2l-0.1-0.1l-0.1-0.1L80.7,89L80.6,89l-0.1,0l-0.1,0l-0.1,0l-0.1,0l-0.1,0
		l-0.1,0l-0.1,0l-0.1,0l-0.2-0.1l-0.2-0.1l-0.2,0l-0.2,0l-0.3-0.1l-0.5-0.1L78,88.2l-0.3-0.1l-0.3-0.1l-0.7-0.2l-0.4-0.1l-0.3-0.1
		l-0.3-0.1l-0.2,0l-0.2,0l-0.2,0l-0.2,0l-0.2,0l-0.2,0l-0.2,0L74.3,87.4z"/>
</g>
<g id="POLYLINE_565_">
	<path class="st0" d="M166.7,18.1l-0.1,1.5l-0.1,1.5l-0.1,1.5l-0.1,0.8l-0.1,0.8l0,0.8c0,0,0,0.8,0,0.8s0,0.8,0,0.8l0,0.8
		c0,0,0,0.8,0,0.8s0,0.8,0,0.8s0,0.8,0,0.8s0,0.8,0,0.8l0,0.6c0,0,0,0.6,0,0.6l0,1.1l0,1.1l0,1.1c0,0,0,1.1,0,1.1l0,1.1l0,1.1l0,1.1
		l0,1.1c0,0,0,1.1,0,1.1s0.1,4.6,0.1,4.6l0,1.1l0,1.1l0,1.6l0,1.6l0,1.6c0,0,0,1.6,0,1.6s0,1.6,0,1.6l0,1.6l0,1.6l0,1.6l0,3.2l0,3.2
		l0,6.4l0,4l0,4c0,0,0,4,0,4s0,2,0,2l0,2l0.3-0.1c0,0,0.3-0.1,0.3-0.1l0.3-0.1l0.3-0.1c0,0,0.3-0.1,0.3-0.1s0.3-0.1,0.3-0.1l0.3,0
		l0.3,0l0.3,0l0.3,0c0,0,0.3,0,0.3,0s0.3,0,0.3,0l0.3,0l0.3,0l0.3,0l0.3,0l0.4,0l0.4,0c0,0,0.4,0,0.4,0l0.4,0l0.4,0l0.4,0
		c0,0,0.4,0,0.4,0s0.4,0,0.4,0l0.4,0l0.4,0l0.8,0c0,0,0.8,0,0.8,0s0.8,0,0.8,0l0.8,0l0.8,0c0,0,0.8,0,0.8,0l3.1,0.1l0.8,0l0.8,0
		c0,0,0.8,0,0.8,0l0.8,0l0.8,0l0.8,0c0,0,0.4,0,0.4,0l0.4,0l0.4,0c0,0,0.4,0,0.4,0l0.4,0l0.4,0c0,0,0.4,0,0.4,0l0.4,0l0.4,0l0.4,0
		l0.4,0l0.4,0l0.4,0l0.4,0c0,0,0.3,0,0.3,0l0.3,0c0,0,0.3-0.1,0.3-0.1l0.3-0.1c0,0,0.3-0.1,0.3-0.1s0.3-0.1,0.3-0.1l0.3-0.1l0.3-0.1
		c0,0,0.9-0.2,0.9-0.2l0.5-0.1l0.3-0.1l0.3-0.1c0,0,0.2,0,0.2,0s0.2,0,0.2,0s0.2,0,0.2,0s0.2,0,0.2,0l0.2,0c0,0,0.2,0,0.2,0
		s0.2,0,0.2,0s0.2,0,0.2,0s0.2,0,0.2,0l0.2,0l0.2,0l0.2,0c0,0,0.2,0,0.2,0l0.2,0l0.2,0c0,0,0.2,0,0.2,0s0-1.8,0-1.8l0-1.8l0-1.8
		l0-1.8l0-12.6c0,0,0-3.9,0-3.9s0-3.9,0-3.9s0-3.9,0-3.9l0-3.9l0-3.9c0,0,0-3.9,0-3.9s0-3.9,0-3.9s0-3.9,0-3.9s0-3.9,0-3.9l0-3.9
		l0-3.9l0-3.9l0-3.2l0-3.2l-12.7,0c0,0-2.7,0-2.7,0l-0.7,0l-1.8,0c0,0-0.5,0-0.5,0l-0.2,0l-0.2,0c0,0-0.3,0-0.3,0l-0.3,0l-0.4,0
		l-0.4,0c0,0-0.5,0-0.5,0l-0.3,0c0,0-0.3,0-0.3,0s-0.2,0-0.2,0l-0.2,0l-0.2,0l-0.2,0l-0.2,0l-0.2,0c0,0-0.2,0-0.2,0l-0.2,0
		c0,0-0.2,0-0.2,0l-0.2,0l-0.6-0.1l-0.2,0l-0.1,0l-0.1,0c0,0-0.1,0-0.1,0l-0.1,0l-0.1,0c0,0-0.1,0-0.1,0l-0.1,0l0,0c0,0,0,0,0,0
		c0,0,0,0,0,0c0,0,0,0,0,0c0,0,0,0,0,0c0,0,0,0,0,0c0,0,0,0,0,0c0,0,0,0,0,0c0,0-0.1,0-0.1,0c0,0,0,0,0,0c0,0-0.1,0-0.1,0s0,0,0,0
		l0,0l0,0l-0.1,0c0,0-0.1,0-0.1,0s-0.1,0.1-0.1,0.1l-0.1,0.1c0,0-0.1,0.1-0.1,0.1l-0.5,0.4l-0.2,0.1l-0.2,0.1c0,0-0.2,0.1-0.2,0.1
		l-0.1,0.1l-0.1,0.1l-0.1,0.1c0,0-0.1,0.1-0.1,0.1l-0.1,0c0,0-0.1,0-0.1,0l-0.1,0l-0.1,0l-0.1,0l-0.1,0l-0.1,0c0,0-0.1,0-0.1,0
		L172,17c0,0-0.2,0.1-0.2,0.1l-0.2,0l-0.2,0l-0.3,0.1l-0.5,0.1l-0.3,0.1c0,0-0.3,0.1-0.3,0.1s-0.3,0.1-0.3,0.1s-0.7,0.2-0.7,0.2
		l-0.4,0.1l-0.3,0.1l-0.3,0.1l-0.2,0l-0.2,0l-0.2,0c0,0-0.2,0-0.2,0l-0.2,0l-0.2,0c0,0-0.2,0-0.2,0L166.7,18.1"/>
</g>
<g id="POLYLINE_566_">
	<path class="st0" d="M153.8,87.4l0.1-1.5c0,0,0.1-1.5,0.1-1.5s0.1-1.5,0.1-1.5l0.1-0.8c0,0,0.1-0.8,0.1-0.8l0-0.8l0-0.8
		c0,0,0-0.8,0-0.8l0-0.8l0-0.8l0-0.8l0-0.8l0-0.8l0-0.6c0,0,0-0.6,0-0.6l0-1.1c0,0,0-1.1,0-1.1l0-1.1c0,0,0-1.1,0-1.1s0-1.1,0-1.1
		l0-1.1l0-1.1c0,0,0-1.1,0-1.1l0-1.1l-0.1-4.6c0,0,0-1.1,0-1.1s0-1.1,0-1.1s0-1.6,0-1.6s0-1.6,0-1.6l0-1.6c0,0,0-1.6,0-1.6l0-1.6
		c0,0,0-1.6,0-1.6s0-1.6,0-1.6l0-1.6l0-3.2l0-3.2l0-6.4l0-4l0-4c0,0,0-4,0-4s0-2,0-2s0-2,0-2l-0.3,0.1l-0.3,0.1l-0.3,0.1l-0.3,0.1
		l-0.3,0.1l-0.3,0.1l-0.3,0l-0.3,0l-0.3,0c0,0-0.3,0-0.3,0s-0.3,0-0.3,0l-0.3,0c0,0-0.3,0-0.3,0l-0.3,0l-0.3,0l-0.3,0l-0.4,0
		c0,0-0.4,0-0.4,0s-0.4,0-0.4,0l-0.4,0c0,0-0.4,0-0.4,0l-0.4,0c0,0-0.4,0-0.4,0l-0.4,0c0,0-0.4,0-0.4,0s-0.4,0-0.4,0l-0.8,0l-0.8,0
		l-0.8,0c0,0-0.8,0-0.8,0l-0.8,0c0,0-0.8,0-0.8,0l-3.1-0.1c0,0-0.8,0-0.8,0l-0.8,0c0,0-0.8,0-0.8,0s-0.8,0-0.8,0l-0.8,0l-0.8,0
		l-0.4,0l-0.4,0l-0.4,0c0,0-0.4,0-0.4,0s-0.4,0-0.4,0l-0.4,0c0,0-0.4,0-0.4,0l-0.4,0l-0.4,0l-0.4,0l-0.4,0l-0.4,0l-0.4,0l-0.4,0
		l-0.3,0c0,0-0.3,0-0.3,0l-0.3,0.1l-0.3,0.1l-0.3,0.1l-0.3,0.1c0,0-0.3,0.1-0.3,0.1l-0.3,0.1l-0.9,0.2l-0.5,0.1c0,0-0.3,0.1-0.3,0.1
		l-0.3,0.1l-0.2,0l-0.2,0l-0.2,0l-0.2,0c0,0-0.2,0-0.2,0l-0.2,0c0,0-0.2,0-0.2,0s-0.2,0-0.2,0s-0.2,0-0.2,0l-0.2,0l-0.2,0l-0.2,0
		c0,0-0.2,0-0.2,0s-0.2,0-0.2,0l-0.2,0c0,0-0.2,0-0.2,0s0,1.8,0,1.8s0,1.8,0,1.8l0,1.8l0,1.8l0,12.6l0,3.9c0,0,0,3.9,0,3.9
		s0,3.9,0,3.9l0,3.9l0,3.9l0,3.9l0,3.9l0,3.9l0,3.9l0,3.9c0,0,0,3.9,0,3.9l0,3.9l0,3.2l0,3.2c0,0,12.7,0,12.7,0s2.7,0,2.7,0
		s0.7,0,0.7,0l1.8,0l0.5,0c0,0,0.2,0,0.2,0l0.2,0c0,0,0.3,0,0.3,0l0.3,0c0,0,0.4,0,0.4,0l0.4,0l0.5,0l0.3,0l0.3,0c0,0,0.2,0,0.2,0
		l0.2,0l0.2,0l0.2,0l0.2,0l0.2,0l0.2,0l0.2,0l0.2,0l0.2,0l0.6,0.1l0.2,0c0,0,0.1,0,0.1,0l0.1,0l0.1,0l0.1,0l0.1,0c0,0,0.1,0,0.1,0
		l0.1,0l0,0l0,0c0,0,0,0,0,0c0,0,0,0,0,0c0,0,0,0,0,0c0,0,0,0,0,0c0,0,0,0,0,0c0,0,0,0,0,0c0,0,0.1,0,0.1,0c0,0,0,0,0,0
		c0,0,0.1,0,0.1,0l0,0l0,0l0,0l0.1,0l0.1,0l0.1-0.1l0.1-0.1c0,0,0.1-0.1,0.1-0.1s0.5-0.4,0.5-0.4l0.2-0.1l0.2-0.1l0.2-0.1l0.1-0.1
		c0,0,0.1-0.1,0.1-0.1l0.1-0.1l0.1-0.1l0.1,0c0,0,0.1,0,0.1,0s0.1,0,0.1,0s0.1,0,0.1,0s0.1,0,0.1,0l0.1,0l0.1,0l0.1,0l0.2-0.1
		c0,0,0.2-0.1,0.2-0.1l0.2,0l0.2,0l0.3-0.1l0.5-0.1c0,0,0.3-0.1,0.3-0.1s0.3-0.1,0.3-0.1l0.3-0.1l0.7-0.2l0.4-0.1l0.3-0.1
		c0,0,0.3-0.1,0.3-0.1l0.2,0l0.2,0l0.2,0l0.2,0c0,0,0.2,0,0.2,0l0.2,0l0.2,0C153.6,87.5,153.8,87.4,153.8,87.4"/>
</g>
<g id="POLYLINE_567_">
	<path class="st0" d="M74.3,87.4l-0.1-1.5l-0.1-1.5L74,82.8L73.9,82c0,0-0.1-0.8-0.1-0.8s0-0.8,0-0.8l0-0.8l0-0.8c0,0,0-0.8,0-0.8
		l0-0.8c0,0,0-0.8,0-0.8s0-0.8,0-0.8s0-0.8,0-0.8l0-0.6c0,0,0-0.6,0-0.6l0-1.1c0,0,0-1.1,0-1.1s0-1.1,0-1.1l0-1.1c0,0,0-1.1,0-1.1
		l0-1.1l0-1.1c0,0,0-1.1,0-1.1l0-1.1l0.1-4.6c0,0,0-1.1,0-1.1l0-1.1l0-1.6c0,0,0-1.6,0-1.6l0-1.6c0,0,0-1.6,0-1.6s0-1.6,0-1.6
		s0-1.6,0-1.6s0-1.6,0-1.6l0-1.6l0-3.2l0-3.2l0-6.4l0-4c0,0,0-4,0-4s0-4,0-4s0-2,0-2l0-2c0,0,0.3,0.1,0.3,0.1s0.3,0.1,0.3,0.1
		l0.3,0.1c0,0,0.3,0.1,0.3,0.1l0.3,0.1l0.3,0.1l0.3,0c0,0,0.3,0,0.3,0s0.3,0,0.3,0l0.3,0c0,0,0.3,0,0.3,0l0.3,0c0,0,0.3,0,0.3,0
		l0.3,0c0,0,0.3,0,0.3,0l0.3,0c0,0,0.4,0,0.4,0s0.4,0,0.4,0s0.4,0,0.4,0s0.4,0,0.4,0s0.4,0,0.4,0l0.4,0c0,0,0.4,0,0.4,0s0.4,0,0.4,0
		l0.4,0l0.4,0c0,0,0.8,0,0.8,0l0.8,0l0.8,0c0,0,0.8,0,0.8,0l0.8,0c0,0,0.8,0,0.8,0l3.1-0.1l0.8,0l0.8,0c0,0,0.8,0,0.8,0s0.8,0,0.8,0
		l0.8,0l0.8,0c0,0,0.4,0,0.4,0s0.4,0,0.4,0l0.4,0c0,0,0.4,0,0.4,0s0.4,0,0.4,0l0.4,0c0,0,0.4,0,0.4,0l0.4,0l0.4,0l0.4,0
		c0,0,0.4,0,0.4,0l0.4,0l0.4,0c0,0,0.4,0,0.4,0s0.3,0,0.3,0s0.3,0,0.3,0s0.3,0.1,0.3,0.1l0.3,0.1c0,0,0.3,0.1,0.3,0.1
		s0.3,0.1,0.3,0.1s0.3,0.1,0.3,0.1s0.3,0.1,0.3,0.1l0.9,0.2l0.5,0.1c0,0,0.3,0.1,0.3,0.1l0.3,0.1c0,0,0.2,0,0.2,0l0.2,0l0.2,0
		c0,0,0.2,0,0.2,0s0.2,0,0.2,0s0.2,0,0.2,0s0.2,0,0.2,0s0.2,0,0.2,0s0.2,0,0.2,0l0.2,0l0.2,0c0,0,0.2,0,0.2,0s0.2,0,0.2,0
		s0.2,0,0.2,0s0.2,0,0.2,0s0.2,0,0.2,0s0,1.8,0,1.8s0,1.8,0,1.8l0,1.8c0,0,0,1.8,0,1.8l0,12.6l0,3.9c0,0,0,3.9,0,3.9l0,3.9l0,3.9
		l0,3.9l0,3.9l0,3.9l0,3.9l0,3.9c0,0,0,3.9,0,3.9l0,3.9c0,0,0,3.9,0,3.9s0,3.2,0,3.2l0,3.2c0,0-12.7,0-12.7,0s-2.7,0-2.7,0l-0.7,0
		c0,0-1.8,0-1.8,0s-0.5,0-0.5,0s-0.2,0-0.2,0l-0.2,0c0,0-0.3,0-0.3,0l-0.3,0c0,0-0.4,0-0.4,0s-0.4,0-0.4,0l-0.5,0l-0.3,0l-0.3,0
		c0,0-0.2,0-0.2,0s-0.2,0-0.2,0s-0.2,0-0.2,0s-0.2,0-0.2,0s-0.2,0-0.2,0s-0.2,0-0.2,0s-0.2,0-0.2,0l-0.2,0l-0.2,0c0,0-0.2,0-0.2,0
		s-0.6,0.1-0.6,0.1l-0.2,0c0,0-0.1,0-0.1,0s-0.1,0-0.1,0s-0.1,0-0.1,0l-0.1,0l-0.1,0c0,0-0.1,0-0.1,0s-0.1,0-0.1,0l0,0c0,0,0,0,0,0
		c0,0,0,0,0,0c0,0,0,0,0,0c0,0,0,0,0,0c0,0,0,0,0,0c0,0,0,0,0,0c0,0,0,0,0,0c0,0-0.1,0-0.1,0c0,0,0,0,0,0c0,0-0.1,0-0.1,0l0,0l0,0
		l0,0l-0.1,0l-0.1,0l-0.1-0.1l-0.1-0.1c0,0-0.1-0.1-0.1-0.1s-0.5-0.4-0.5-0.4s-0.2-0.1-0.2-0.1s-0.2-0.1-0.2-0.1L81,89.2
		c0,0-0.1-0.1-0.1-0.1s-0.1-0.1-0.1-0.1S80.7,89,80.7,89S80.6,89,80.6,89l-0.1,0c0,0-0.1,0-0.1,0l-0.1,0l-0.1,0c0,0-0.1,0-0.1,0
		l-0.1,0c0,0-0.1,0-0.1,0s-0.1,0-0.1,0l-0.2-0.1l-0.2-0.1c0,0-0.2,0-0.2,0s-0.2,0-0.2,0l-0.3-0.1l-0.5-0.1c0,0-0.3-0.1-0.3-0.1
		s-0.3-0.1-0.3-0.1l-0.3-0.1l-0.7-0.2l-0.4-0.1l-0.3-0.1c0,0-0.3-0.1-0.3-0.1s-0.2,0-0.2,0l-0.2,0c0,0-0.2,0-0.2,0s-0.2,0-0.2,0
		s-0.2,0-0.2,0s-0.2,0-0.2,0s-0.2,0-0.2,0S74.3,87.4,74.3,87.4"/>
</g>
<g id="HATCH_342_">
	<path class="st2" d="M27.6,88.9l-0.1-1.7l-0.1-1.7l-0.1-1.7l-0.1-0.9L27,82L27,81.2l-0.1-0.9l0-0.9l0-0.9l0-0.9l0-0.9l0-0.9l0-0.9
		l0-0.6l0-0.6l0-1.1l0-1.1l0-1.1l0-1.1l0-1.1l0-1.1l0-1.1l0-1.1l0-1.1l0.1-4.6l0-1.1l0-1.1l0-1.6l0-1.6l0-1.6l0-1.6l0-1.6l0-1.6
		l0-1.6l0-1.6l0-3.2l0-3.2l0-6.4l0-4.4l0-4.4l0-2.2l0-2.2l0-2.2l0-2.2l0.5,0.1l0.5,0.1l0.5,0.1l0.5,0.1l0.5,0.1l0.5,0.1l0.5,0.1
		l0.5,0.1l0.5,0.1l0.5,0.1l0.5,0.1l0.5,0l0.5,0l0.5,0l0.5,0l0.5,0l0.5,0l0.5,0l0.5,0l0.5,0l0.5,0l0.5,0l0.5,0l0.5,0l0.5,0l0.5,0l1,0
		l1,0l1,0l1.9-0.1l1,0l1,0l1,0l0.5,0l0.5,0l0.5,0l0.5,0l0.5,0l0.5,0l0.5,0l0.5,0l0.5,0l0.5,0l0.5,0l0.5,0l0.5,0l0.5,0l0.5,0l0.5,0.1
		l0.5,0.1l0.5,0.1l0.5,0.1l0.5,0.1l0.5,0.1l0.5,0.1l0.4,0.1l0.8,0.2l0.4,0.1l0.4,0.1l0.2,0l0.2,0l0.2,0l0.2,0l0.2,0l0.2,0l0.2,0
		l0.2,0l0.2,0l0.2,0l0.2,0l0.1,0l0.1,0l0.1,0l0.1,0l0.1,0l0.1,0l0.1,0l0.1,0l0.1,0l0.1,0l0.1,0l0.1,0l0.1,0l0.1,0l0.1,0l0.1,0l0.1,0
		l0.1,0l0.1,0l0.1-0.1l0.1-0.1l0.1-0.1l0,0.2l0,1.8l0,1.8l0,1.8l0,1.8l0,1.9l0,1.9l0,10.6l0,3.5l0,3.5l0,3.5l0,3.5l0,3.5l0,3.5
		l0,3.5l0,3.5l0,3.5l0,3.5l0,3.5l0,3.5l0,3.4l0,3.4l0,3l0,3h-4.9l-8.9,0l-1.3,0l-1.3,0l-0.6,0l-0.6,0l-0.8,0l-0.8,0l-0.4,0l-0.4,0
		l-0.4,0l-0.4,0l-0.4,0l-0.8-0.1l-0.4,0l-0.2,0l-0.2,0l-0.2,0l-0.2,0l-0.2,0l-0.2,0l-0.2,0l-0.1,0l-0.1,0l-0.2,0l-0.2,0l-0.8,0.2
		l-0.2,0l-0.2,0l-0.1,0l-0.1,0l-0.1,0l-0.1,0l-0.1,0l-0.1,0l-0.1,0l-0.1,0l0,0l0,0l0,0l0,0l0,0l0,0l0,0l0,0l0,0l0,0l0,0l0,0l0,0l0,0
		l0,0l0,0l-0.1,0l-0.1,0l-0.1,0l-0.1,0l-0.1,0l-0.1,0l-0.1,0l-0.1,0l-0.1-0.1L36,91.2l-0.1-0.1l-0.7-0.5L35,90.5l-0.1-0.1l-0.1-0.1
		l-0.1,0l-0.1,0l-0.1,0l-0.1,0l-0.1,0l-0.1,0l-0.1,0l-0.1,0l-0.1,0L34,90l-0.1,0l-0.1,0l-0.1,0l-0.1,0l-0.1,0l-0.1,0l-0.3-0.1
		l-0.3-0.1l-0.3-0.1L32,89.5l-0.3-0.1l-0.9-0.2l-0.3-0.1L30.2,89L30,89l-0.1,0l-0.1,0l-0.1,0l-0.1,0l-0.1,0l-0.1,0l-0.1,0l-0.1,0
		l-0.1,0l-0.1,0l-0.1,0l-0.1,0l-0.1,0l-0.1,0l-0.1,0l-0.1,0l-0.1,0l-0.1,0l-0.1,0L27.6,88.9L27.6,88.9z M28.8,87.4l0.2,0l0.2,0
		l0.2,0l0.2,0l0.2,0l0.2,0l0.2,0l0.2,0l0.3,0.1l0.3,0.1l0.4,0.1l0.7,0.2l0.3,0.1l0.3,0.1l0.3,0.1l0.5,0.1l0.3,0.1l0.2,0l0.2,0
		l0.2,0.1l0.2,0.1l0.1,0l0.1,0l0.1,0l0.1,0l0.1,0l0.1,0l0.1,0l0.1,0l0.1,0.1l0.1,0.1l0.1,0.1l0.1,0.1l0.2,0.1l0.2,0.1l0.2,0.1
		l0.5,0.4l0.1,0.1l0.1,0.1l0.1,0.1l0.1,0l0.1,0l0,0l0,0l0,0l0,0l0,0l0,0l0,0l0,0l0,0l0,0l0,0l0,0l0,0l0,0l0,0l0,0l0,0l0,0l0,0l0,0
		l0,0l0,0l0,0l0,0l0.1,0l0.1,0l0.1,0l0.1,0l0.1,0l0.1,0l0.1,0l0.2,0l0.6-0.1l0.2,0l0.2,0l0.2,0l0.2,0l0.2,0l0.2,0l0.2,0l0.2,0l0.2,0
		l0.2,0l0.3,0l0.3,0l0.5,0l0.4,0l0.4,0l0.3,0l0.3,0l0.2,0l0.2,0l0.5,0l1.8,0l0.7,0l2.7,0l12.7,0l0-3.2l0-3.2l0-3.9l0-3.9l0-3.9
		l0-3.9l0-3.9l0-3.9l0-3.9l0-3.9l0-3.9l0-3.9l0-3.9l0-3.9l0-12.6l0-1.8l0-1.8l0-1.8l0-1.8l-0.2,0l-0.2,0l-0.2,0l-0.2,0l-0.2,0
		l-0.2,0l-0.2,0l-0.2,0l-0.2,0l-0.2,0l-0.2,0l-0.2,0l-0.2,0l-0.2,0l-0.2,0l-0.2,0l-0.3-0.1L59,17l-0.5-0.1l-0.9-0.2l-0.3-0.1
		l-0.3-0.1l-0.3-0.1l-0.3-0.1l-0.3-0.1l-0.3-0.1l-0.3,0l-0.3,0l-0.4,0l-0.4,0l-0.4,0l-0.4,0l-0.4,0l-0.4,0l-0.4,0l-0.4,0l-0.4,0
		l-0.4,0l-0.4,0l-0.4,0L50,16l-0.4,0l-0.8,0l-0.8,0l-0.8,0l-0.8,0l-0.8,0l-0.8,0l-3.1,0.1l-0.8,0l-0.8,0l-0.8,0l-0.8,0l-0.8,0
		l-0.8,0l-0.4,0l-0.4,0l-0.4,0l-0.4,0l-0.4,0l-0.4,0l-0.4,0l-0.4,0l-0.4,0l-0.4,0l-0.3,0l-0.3,0l-0.3,0l-0.3,0L32,16l-0.3,0l-0.3,0
		l-0.3,0l-0.3,0l-0.3,0l-0.3-0.1l-0.3-0.1l-0.3-0.1l-0.3-0.1l-0.3-0.1l-0.3-0.1l0,2l0,2l0,4l0,4l0,4l0,6.4l0,3.2l0,3.2l0,1.6l0,1.6
		l0,1.6l0,1.6l0,1.6l0,1.6l0,1.6l0,1.6l0,1.1l0,1.1l-0.1,4.6l0,1.1l0,1.1l0,1.1l0,1.1l0,1.1l0,1.1l0,1.1l0,1.1l0,1.1l0,0.6l0,0.6
		l0,0.8l0,0.8l0,0.8l0,0.8l0,0.8l0,0.8l0,0.8l0,0.8l0.1,0.8l0.1,0.8l0.1,1.5l0.1,1.5L28.8,87.4z"/>
</g>
<g id="POLYLINE_568_">
	<path class="st3" d="M28.8,87.4l-0.1-1.5c0,0-0.1-1.5-0.1-1.5s-0.1-1.5-0.1-1.5L28.4,82c0,0-0.1-0.8-0.1-0.8s0-0.8,0-0.8
		s0-0.8,0-0.8l0-0.8l0-0.8l0-0.8c0,0,0-0.8,0-0.8s0-0.8,0-0.8s0-0.8,0-0.8l0-0.6c0,0,0-0.6,0-0.6l0-1.1c0,0,0-1.1,0-1.1s0-1.1,0-1.1
		s0-1.1,0-1.1s0-1.1,0-1.1l0-1.1l0-1.1c0,0,0-1.1,0-1.1l0-1.1c0,0,0.1-4.6,0.1-4.6s0-1.1,0-1.1l0-1.1c0,0,0-1.6,0-1.6s0-1.6,0-1.6
		l0-1.6c0,0,0-1.6,0-1.6s0-1.6,0-1.6s0-1.6,0-1.6s0-1.6,0-1.6l0-1.6c0,0,0-3.2,0-3.2s0-3.2,0-3.2l0-6.4l0-4c0,0,0-4,0-4s0-4,0-4
		s0-2,0-2l0-2c0,0,0.3,0.1,0.3,0.1s0.3,0.1,0.3,0.1l0.3,0.1l0.3,0.1l0.3,0.1l0.3,0.1l0.3,0c0,0,0.3,0,0.3,0l0.3,0c0,0,0.3,0,0.3,0
		s0.3,0,0.3,0l0.3,0c0,0,0.3,0,0.3,0l0.3,0c0,0,0.3,0,0.3,0l0.3,0l0.4,0c0,0,0.4,0,0.4,0s0.4,0,0.4,0l0.4,0c0,0,0.4,0,0.4,0l0.4,0
		c0,0,0.4,0,0.4,0s0.4,0,0.4,0s0.4,0,0.4,0s0.4,0,0.4,0s0.8,0,0.8,0l0.8,0l0.8,0c0,0,0.8,0,0.8,0l0.8,0c0,0,0.8,0,0.8,0l3.1-0.1
		c0,0,0.8,0,0.8,0l0.8,0c0,0,0.8,0,0.8,0s0.8,0,0.8,0l0.8,0l0.8,0c0,0,0.4,0,0.4,0s0.4,0,0.4,0l0.4,0c0,0,0.4,0,0.4,0s0.4,0,0.4,0
		l0.4,0c0,0,0.4,0,0.4,0l0.4,0l0.4,0l0.4,0c0,0,0.4,0,0.4,0l0.4,0l0.4,0l0.4,0c0,0,0.3,0,0.3,0s0.3,0,0.3,0s0.3,0.1,0.3,0.1l0.3,0.1
		c0,0,0.3,0.1,0.3,0.1s0.3,0.1,0.3,0.1s0.3,0.1,0.3,0.1l0.3,0.1l0.9,0.2L59,17c0,0,0.3,0.1,0.3,0.1l0.3,0.1c0,0,0.2,0,0.2,0l0.2,0
		l0.2,0c0,0,0.2,0,0.2,0s0.2,0,0.2,0s0.2,0,0.2,0s0.2,0,0.2,0s0.2,0,0.2,0s0.2,0,0.2,0l0.2,0l0.2,0c0,0,0.2,0,0.2,0s0.2,0,0.2,0
		s0.2,0,0.2,0s0.2,0,0.2,0s0.2,0,0.2,0s0,1.8,0,1.8s0,1.8,0,1.8l0,1.8c0,0,0,1.8,0,1.8l0,12.6c0,0,0,3.9,0,3.9s0,3.9,0,3.9
		s0,3.9,0,3.9l0,3.9l0,3.9l0,3.9l0,3.9l0,3.9l0,3.9l0,3.9l0,3.9c0,0,0,3.9,0,3.9s0,3.2,0,3.2l0,3.2c0,0-12.7,0-12.7,0s-2.7,0-2.7,0
		s-0.7,0-0.7,0s-1.8,0-1.8,0s-0.5,0-0.5,0s-0.2,0-0.2,0l-0.2,0c0,0-0.3,0-0.3,0l-0.3,0c0,0-0.4,0-0.4,0s-0.4,0-0.4,0l-0.5,0l-0.3,0
		l-0.3,0c0,0-0.2,0-0.2,0s-0.2,0-0.2,0s-0.2,0-0.2,0l-0.2,0l-0.2,0l-0.2,0c0,0-0.2,0-0.2,0l-0.2,0l-0.2,0c0,0-0.2,0-0.2,0
		s-0.6,0.1-0.6,0.1l-0.2,0c0,0-0.1,0-0.1,0s-0.1,0-0.1,0s-0.1,0-0.1,0l-0.1,0l-0.1,0c0,0-0.1,0-0.1,0s-0.1,0-0.1,0l0,0c0,0,0,0,0,0
		c0,0,0,0,0,0c0,0,0,0,0,0c0,0,0,0,0,0c0,0,0,0,0,0c0,0,0,0,0,0c0,0,0,0,0,0c0,0-0.1,0-0.1,0c0,0,0,0,0,0c0,0-0.1,0-0.1,0l0,0l0,0
		l0,0l-0.1,0l-0.1,0l-0.1-0.1l-0.1-0.1c0,0-0.1-0.1-0.1-0.1S36,89.6,36,89.6l-0.2-0.1l-0.2-0.1l-0.2-0.1c0,0-0.1-0.1-0.1-0.1
		s-0.1-0.1-0.1-0.1S35.2,89,35.2,89S35.1,89,35.1,89l-0.1,0c0,0-0.1,0-0.1,0s-0.1,0-0.1,0s-0.1,0-0.1,0s-0.1,0-0.1,0l-0.1,0
		c0,0-0.1,0-0.1,0s-0.1,0-0.1,0l-0.2-0.1L34,88.5l-0.2,0l-0.2,0l-0.3-0.1l-0.5-0.1c0,0-0.3-0.1-0.3-0.1s-0.3-0.1-0.3-0.1l-0.3-0.1
		l-0.7-0.2l-0.4-0.1l-0.3-0.1c0,0-0.3-0.1-0.3-0.1s-0.2,0-0.2,0l-0.2,0l-0.2,0c0,0-0.2,0-0.2,0s-0.2,0-0.2,0s-0.2,0-0.2,0
		s-0.2,0-0.2,0L28.8,87.4"/>
</g>
<g id="HATCH_343_">
	<path class="st1" d="M10.2,38l-0.6,0l-0.7,0l-0.7,0l-0.3,0l-0.3,0l-0.3,0l-0.3,0l-0.3,0l-0.3,0l-0.3,0l-0.3,0l-0.3,0L5,38l-0.3,0
		l-0.3,0l-4.1-0.5l0.2,4.1l0,0.3l0,0.3l0,0.3l0,0.3l0,0.6l0,0.6l0,0.7l0,2.2l0,1.3l0,1.3l0,1.3l0,1.3l0,1.3l0,1.3l0,1.3l0,1.3l0,1.3
		l0,1.3l0,1.1l0,1.1l0,0.6l0,0.6l0,0.6L1,66.3l3.2,0l8,0l0,1.2l0,1.2l0,2.5L12.1,77l0,1.9l0,2.5l0,1.3l0,1.3l0,1.3l0,1.3l0,1.3
		l0,1.3l0,1.3l0,1.3l0,1.3l0,1.3l0,1.3l0,1.3l0,1.3l0,1.3l0.1,3.5l3.5-0.2l1.1-0.1l1.1-0.1l2.3-0.1l2.3-0.1l2.3-0.1l2.3-0.1l2.3-0.1
		l2.3-0.1l2.3-0.1l2.3-0.1l2.3-0.1l2.3-0.1l2.3-0.1l2.3-0.1l2.3,0l2.3,0l2.3,0l2.3,0l2.3,0l2.3,0l2.3,0l2.3,0l2.3,0l2.3,0l2.3,0
		l2.3,0l2.3,0l2.3,0l2.3,0l4.6,0l4.6,0l4.7,0l14,0.1l4.7,0l4.7,0l4.7,0l2.3,0l2.3,0l2.3,0l2.3,0l2.3,0l2.3,0l2.3,0l2.3,0l2.3,0
		l2.3,0l2.3,0l2.3,0l2.3,0l2.3,0l2.3,0l2.3-0.1l2.3-0.1l2.3-0.1l2.3-0.1l2.3-0.1l2.3-0.1l2.3-0.1l2.2-0.1l2.2-0.1l2-0.1l3.8-0.2
		l1.9-0.1l1.9-0.1l1,0l1,0l1,0l1,0l1,0l1,0l1,0l1,0l0.9,0l0.9,0l0.9,0l0.9,0l0.9,0l0.9,0l0.9,0l0.9,0l0.9,0.1l0.9,0.1l0.9,0.1l0.5,0
		l0.5,0l0.5,0l0.5,0l0.5,0l0.5,0l0.5,0.1l0.5,0.1l0.5,0.1l0.5,0.1l4.1,0.5l-0.2-4.1l0-0.6l0-0.6l0-0.6l0-0.6l0-0.7l0-0.7l0-0.7
		l0-0.7l0-0.7l0-0.7l0-0.7l0-0.7l0-1.4l0-1.4l0-1.4l0-1.4l0.1-6.9l0-2.6l0-2.7l0-2.7l0-2.7l0-2.7l0-2.7l0-2.7l0-2.7l0-2.7l0-2.7
		l0-2.7l0-2.7l0-2.7l0-2.7l0-2.7l0-2.7l-0.1-2.7l-0.1-2.7l0-1.3l0-1.3l0-1.3l0-1.3l0-1.3l0-1.3l-0.1-2.3l-0.1-2.3l-0.1-2.3l-0.1-2.3
		l-0.1-1.2l-0.1-1.2l-0.1-1.2l-0.1-1.2L213.3,5l-0.1-1.2l-0.2-3.2l-3.2,0l-68.7,0l-9.2,0l-9,0l-4.5,0l-2.4,0l-5.2,0l-2.7,0l-2.7,0
		l-1.4,0l-1.4,0l-1.4,0l-1.4,0l-1.4,0l-1.4,0l-4.1,0.1l-1.4,0l-1.5,0l-1.5,0l-0.7,0l-0.7,0l-0.7,0l-0.7,0l-0.7,0l-0.7,0l-0.7,0
		l-0.7,0l-0.8,0l-0.8,0l-0.9,0l-0.9,0L78,0.6l-1.5-0.1l-0.7,0l-0.7,0l-0.7,0l-0.7,0l-0.7,0l-0.7,0l-0.7,0l-0.7,0l-0.7,0l-0.7,0
		l-0.7,0l-0.7,0l-0.3,0l-0.3,0l-0.3,0l-0.3,0l-0.6,0l-0.6,0.1l-0.6,0.1l-0.6,0.1l-0.5,0.1l-0.5,0.1l-0.5,0.1L62.7,1l-0.9,0.1
		l-0.9,0.1L60,1.4l-1.8,0.3l-0.9,0.2L56.5,2l-0.9,0.1l-0.5,0.1l-0.5,0.1l-0.5,0.1l-0.5,0.1l-0.5,0.1l-0.5,0.1l-0.5,0l-0.5,0l-0.5,0
		l-0.5,0l-0.9,0.1l-1,0.1l-1,0.1l-1,0.1l-1,0l-3.2,0.2l-1,0.1l-1,0.1l-1,0.1l-1,0.1l-3.8,0.2l-1.8,0.1l-0.9,0.1l-0.9,0l-0.9,0
		l-0.9,0l-1,0l-1,0l-1,0l-1,0l-1,0l-1,0l-0.5,0l-0.5,0l-0.5,0l-0.5,0l-0.5,0l-0.5,0l-0.5,0l-0.5,0l-0.5,0l-0.5,0l-0.5,0l-0.5,0
		l-2.5-0.2l-0.9,2.4L14,7.6L13.5,9l-0.2,0.7L13,10.4l-0.2,0.7l-0.2,0.7l-0.2,0.5l-0.2,0.5L12,13.4L11.9,14l-0.2,0.5L11.5,15
		l-0.1,0.5L11.3,16l-0.1,0.5L11,17.1l-0.1,0.5l-0.1,0.5l-0.1,0.5l-0.1,0.5l-0.1,0.5l-0.1,0.5l-0.1,0.5l-0.1,0.5L10,21.9l-0.1,0.5
		L9.9,23l-0.1,0.5l-0.1,0.5l0,0.5l0,0.4l0,0.4l0,0.4l0,0.4l0,0.4l0,0.4l0,0.4l0,0.4l0,0.4l0,0.4l0,0.4l0,0.4l0,0.4l0,0.4l0,0.7
		l0,0.7l0,0.7l0,0.7l0,0.7l0.1,0.7l0.1,0.7l0.1,0.7l0.1,0.7l0.1,0.6l0.1,0.6l0.1,0.6L10.2,38z M10.6,41.4l0.3,2.2l0.1,0.9l0.1,0.9
		l0.1,0.9l0.1,0.8l0.1,0.8l0.1,0.8l0.1,0.8l0.1,0.9l0.1,0.9l0.1,0.9l0.1,0.9l0.1,0.9l0,0.9l0,0.9l0,0.9l0,0.8l0,0.8l0,0.8l0,0.8
		l0,0.8l0,0.8l0,0.8l0,0.8l-1.9,0H4.2l-0.1-0.9l0-0.9l0-1l0-1l0-1l0-1l0-1l0-1l0-1l0-1l0-1l0-1l0-1l0-1l0-1l0-1l0-1l0-2l0-0.5l0-0.5
		l0-0.5l0-0.5l0-0.5l0-0.6l0.4,0.1l0.4,0l0.4,0l0.4,0l0.4,0l0.4,0l0.4,0l0.4,0l0.4,0l0.4,0l0.4,0l0.4,0l0.8,0L10.6,41.4z M17.7,7.3
		l0.8,0l0.8,0l0.8,0l0.8,0l0.8,0l0.8,0l0.8,0l0.8,0l0.8,0l0.8,0l0.8,0l0.8,0l0.8,0l0.8,0l0.8,0l0.8,0l0.8,0l0.8,0l1.6-0.1L35,7
		l4.7-0.3l1.6-0.1l1.6-0.1l1.5-0.1l1.5-0.1l1.5-0.1l0.7,0l0.7,0l0.7,0l0.7,0L51,6.1l0.7-0.1L52.5,6l0.7-0.1L54,5.8l0.4,0l0.4,0
		l0.4-0.1l0.4-0.1l0.7-0.1l0.7-0.1l0.7-0.1l0.7-0.1l2.2-0.4l0.7-0.1l0.7-0.1l0.7-0.1l0.7-0.1l0.7-0.1l0.4,0l0.4,0l0.4,0l0.4,0l0.4,0
		l0.4,0l0.5,0l0.5,0l0.5,0l0.5,0l0.5,0l0.5,0l0.5,0l0.5,0l0.5,0l0.5,0l0.5,0l0.5,0l0.5,0l0.5,0l1,0l1,0l1,0l3,0.2l1,0l1,0l1,0l1.1,0
		l1.1,0l1.1,0l1,0l1,0l1,0l1,0l1,0l1,0l1,0l4.2-0.1l2.1,0l1,0l1,0l2.1,0l2.1,0l2.1,0l2.1,0l6.3,0l3.4,0l3.4,0l6.9,0l7,0l73,0
		l0.1,0.9l0.1,0.9l0.1,1.8l0.1,1.8l0.1,1.8l0.1,2.1l0.1,2.1l0.1,2.1l0.1,2.1l0.1,2.1l0.1,2.1l0.1,2.1l0.1,2.1l0,2.1l0,2.1l0,2.1
		l0,2.1l0,2.1l0,2.1l0,2.1l0,2.1l0,2.1l0,2.1l0,2.1l0,2.1l0,2.1l0,2.1l0,2.1l0,2.1l0,2.1l0,2.1l0,2.1l0,2.1l0,2.1l0,2.1l0,2.1
		l-0.1,4.4l0,2.3l0,1.1l0,1.1l0,1.1l0,1.1l0,1.1l0,1.1l0,1.1l0,1.1l0,1.1l0,1.1l0,0.6l0,0.6l0,0.6l0,0.8l-0.5-0.1l-0.5-0.1l-0.5-0.1
		l-0.5-0.1l-0.5-0.1l-0.5-0.1l-0.5,0l-0.5,0l-0.5,0l-0.5,0l-0.5,0l-0.5,0l-0.5,0l-0.5,0l-0.5,0l-0.5,0l-0.5,0l-0.5,0l-1,0l-1,0l-1,0
		l-1,0l-1,0l-1,0l-1,0l-1,0l-1,0l-1,0l-1,0l-1,0l-1,0l-1,0l-1,0l-2.1,0.1l-4.2,0.2l-2.1,0.1l-1.3,0.1l-1.3,0.1l-1.3,0.1l-1.3,0.1
		l-2.5,0.1l-2.5,0.1l-2.5,0.1l-2.5,0.1l-2.5,0.1l-2.5,0.1l-2.5,0.1l-2.5,0l-2.5,0l-2.5,0l-2.5,0l-2.5,0l-2.5,0l-2.5,0l-2.5,0l-2.5,0
		l-2.5,0l-2.5,0l-2.5,0l-2.5,0l-2.5,0l-2.5,0l-5.1,0l-5.1,0l-10.1-0.1l-5.1,0l-5.1,0l-2.5,0l-2.5,0l-2.5,0l-2.5,0l-2.5,0l-2.5,0
		l-2.5,0l-2.5,0l-2.5,0l-2.5,0l-2.5,0l-2.5,0l-2.5,0l-2.5,0l-2.5,0L46,98L43.4,98l-2.5,0.1l-2.5,0.1l-2.5,0.1l-2.5,0.1l-1.3,0
		l-1.3,0.1l-1.3,0.1l-1.3,0.1L27,98.6l-1.3,0.1l-1.3,0.1l-1.3,0.1l-1.3,0.1l-1.3,0.1L19.4,99l-1.3,0.1l-1.3,0.1l-1.3,0.1l0-1.3
		l0-1.3l0-1.3l0-1.3l0-1.3l0-1.3l0-1.3l0-1.3l0-1.3l0-1.3l0-1.3l0-1.3l0-1.3l0-1.3l0-2.7l0.1-7.8l0-2l0-2l0-1l0-1l0-1l0-1l0-1l0-1
		l0-1l0-1l0-1l0-1l0-1l0-1l-0.1-1l-0.1-1l-0.1-1l-0.1-1l-0.1-1l-0.1-1l-0.1-1l-0.1-1l-0.1-0.7l-0.1-0.7l-0.1-0.7l-0.1-0.7l-0.2-1.4
		l-0.4-2.8l-0.2-1.4l-0.1-0.7l-0.1-0.7l-0.1-0.7l-0.1-0.7l-0.1-0.7L13.2,34l-0.1-0.7l-0.1-0.7l0-0.7l0-0.7l0-0.7l0-0.7l0-0.3l0-0.3
		l0-0.3l0-0.3l0-0.3l0-0.3l0-0.3l0-0.3l0-0.3l0-0.3l0-0.3l0-0.3l0-0.3l0-0.3l0-0.3l0-0.3l0.1-0.5l0.1-0.5l0.1-0.5l0.1-0.5l0.1-0.5
		l0.1-0.5l0.1-0.5l0.1-0.5l0.1-0.5l0.1-0.5l0.1-0.5l0.1-0.5l0.1-0.5l0.1-0.5l0.1-0.5l0.2-0.5l0.2-0.5l0.2-0.5l0.2-0.5l0.2-0.5
		l0.2-0.5l0.2-0.5l0.2-0.5l0.2-0.5l0.4-1.1l0.4-1.1l0.4-1.1L17.7,7.3z"/>
</g>
<g id="POLYLINE_569_">
	<polyline class="st0" points="10.6,41.4 9.8,41.4 9,41.4 8.5,41.5 8.1,41.5 7.7,41.5 7.3,41.5 6.9,41.5 6.5,41.5 6,41.5 5.6,41.4 
		5.2,41.4 4.8,41.4 4.4,41.3 4,41.3 4,41.9 4,42.4 4,42.9 4,43.4 4,43.9 4,44.5 3.9,46.5 3.9,47.5 3.9,48.5 3.9,49.4 3.9,50.4 
		3.9,51.4 3.9,52.4 3.9,53.4 3.9,54.4 3.9,55.3 3.9,56.3 4,57.3 4,58.3 4,59.3 4.1,60.2 4.1,61.2 4.1,62.1 4.2,62.9 12.1,62.9 
		12.1,62.1 12.1,61.4 12.1,60.6 12.1,59.8 12.1,59 12,58.3 12,57.5 12,56.7 12,55.8 11.9,54.9 11.9,54 11.8,53.1 11.8,52.2 
		11.7,51.3 11.6,50.4 11.6,49.5 11.5,48.7 11.4,47.8 11.3,47 11.2,46.2 11.1,45.3 11,44.4 10.9,43.5 10.6,41.4 	"/>
</g>
<g id="POLYLINE_570_">
	<polyline class="st0" points="10.2,38 9.6,38 8.9,38.1 8.2,38.1 7.9,38.1 7.6,38.1 7.2,38.1 6.9,38.1 6.6,38.1 6.3,38.1 6,38.1 
		5.6,38 5.3,38 5,38 4.7,38 4.4,37.9 0.4,37.4 0.6,41.5 0.6,41.7 0.6,42 0.6,42.3 0.6,42.6 0.6,43.2 0.6,43.8 0.6,44.5 0.6,46.7 
		0.5,47.9 0.5,49.2 0.5,50.4 0.5,51.7 0.5,53 0.5,54.2 0.5,55.5 0.6,56.7 0.6,58 0.6,59.3 0.7,60.4 0.7,61.5 0.7,62 0.8,62.6 
		0.8,63.1 1,66.3 4.2,66.3 12.2,66.3 12.1,67.5 12.1,68.8 12.1,71.3 12.1,77 12.1,79 12,81.5 12,82.8 12,84.1 12,85.3 12,86.6 
		12.1,87.9 12.1,89.2 12.1,90.4 12.1,91.7 12.1,93 12.1,94.3 12.2,95.5 12.2,96.8 12.2,98.1 12.2,99.3 12.4,102.9 15.9,102.6 
		17,102.6 18.2,102.5 20.5,102.3 22.7,102.2 25,102.1 27.3,102 29.6,101.9 31.9,101.8 34.2,101.7 36.6,101.6 38.9,101.5 41.2,101.5 
		43.5,101.4 45.8,101.4 48.2,101.3 50.5,101.3 52.8,101.2 55.1,101.2 57.5,101.2 59.8,101.2 62.1,101.1 64.4,101.1 66.7,101.1 
		69.1,101.1 71.4,101.1 73.7,101.1 76,101.1 78.4,101.1 80.7,101.2 85.3,101.2 90,101.2 94.6,101.3 108.6,101.4 113.3,101.4 
		117.9,101.5 122.6,101.5 124.9,101.5 127.2,101.5 129.6,101.5 131.9,101.5 134.3,101.5 136.6,101.5 138.9,101.5 141.3,101.5 
		143.6,101.5 146,101.5 148.3,101.4 150.6,101.4 152.9,101.4 155.2,101.3 157.6,101.3 159.9,101.2 162.2,101.2 164.5,101.1 
		166.8,101 169.1,101 171.4,100.9 173.7,100.8 175.9,100.7 178,100.6 180,100.5 183.8,100.3 185.7,100.2 187.6,100.1 188.6,100.1 
		189.6,100 190.6,100 191.7,100 192.7,99.9 193.7,99.9 194.7,99.9 195.7,99.9 196.6,99.9 197.5,99.9 198.5,99.9 199.4,99.9 
		200.3,99.9 201.3,100 202.2,100 203.1,100 204,100.1 204.9,100.2 205.9,100.2 206.3,100.3 206.8,100.3 207.2,100.3 207.7,100.4 
		208.2,100.4 208.6,100.5 209.1,100.5 209.5,100.6 210,100.6 210.5,100.7 214.5,101.3 214.3,97.2 214.3,96.6 214.2,96 214.2,95.4 
		214.2,94.7 214.2,94.1 214.2,93.4 214.1,92.7 214.1,92 214.1,91.3 214.1,90.6 214.1,89.9 214.1,89.2 214.1,87.8 214.1,86.4 
		214.2,84.9 214.2,83.5 214.3,76.6 214.4,74 214.4,71.3 214.4,68.6 214.5,66 214.5,63.3 214.5,60.6 214.5,57.9 214.5,55.2 
		214.5,52.5 214.5,49.8 214.5,47.1 214.5,44.4 214.5,41.8 214.5,39.1 214.4,36.4 214.4,33.7 214.3,31 214.3,28.3 214.2,27 
		214.2,25.6 214.2,24.3 214.1,22.9 214.1,21.6 214,20.3 214,17.9 213.9,15.6 213.8,13.2 213.7,10.9 213.6,9.7 213.5,8.6 213.5,7.4 
		213.4,6.2 213.3,5 213.3,3.9 213.1,0.7 209.9,0.7 132,0.7 123,0.7 118.6,0.7 116.1,0.7 111,0.7 108.2,0.7 105.5,0.7 104.1,0.7 
		102.8,0.7 101.4,0.7 100,0.7 98.7,0.7 97.3,0.8 93.2,0.8 91.9,0.9 90.4,0.9 88.9,0.9 88.2,0.9 87.4,0.9 86.7,0.9 86,0.9 85.3,0.9 
		84.6,0.9 84,0.9 83.3,0.8 82.5,0.8 81.7,0.8 80.7,0.7 79.8,0.7 78,0.6 76.5,0.5 75.8,0.5 75,0.4 74.4,0.4 73.7,0.4 73,0.4 
		72.4,0.4 71.7,0.4 71,0.4 70.4,0.4 69.7,0.4 69,0.4 68.3,0.4 68,0.4 67.6,0.5 67.3,0.5 67,0.5 66.4,0.5 65.8,0.6 65.3,0.7 
		64.7,0.7 64.2,0.8 63.7,0.9 63.2,0.9 62.7,1 61.8,1.1 60.9,1.3 60,1.4 58.3,1.7 57.4,1.9 56.5,2 55.6,2.2 55.2,2.3 54.7,2.3 
		54.2,2.4 53.8,2.4 53.3,2.5 52.9,2.5 52.4,2.6 52,2.6 51.5,2.7 51,2.7 50.1,2.8 49.2,2.9 48.2,2.9 47.2,3 46.3,3 43.1,3.2 42,3.2 
		41,3.3 40,3.3 38.9,3.4 35.1,3.6 33.3,3.7 32.5,3.8 31.6,3.8 30.7,3.9 29.8,3.9 28.8,4 27.8,4 26.8,4 25.8,4.1 24.8,4.1 23.8,4.1 
		23.3,4.1 22.8,4.1 22.3,4.1 21.8,4.1 21.3,4.1 20.8,4.1 20.4,4 19.9,4 19.4,4 18.9,4 18.4,4 17.9,3.9 15.3,3.8 14.5,6.2 14,7.6 
		13.5,9 13.2,9.7 13,10.4 12.7,11.2 12.5,11.9 12.3,12.4 12.2,12.9 12,13.4 11.9,14 11.7,14.5 11.5,15 11.4,15.5 11.3,16 11.1,16.6 
		11,17.1 10.9,17.6 10.7,18.2 10.6,18.7 10.5,19.2 10.4,19.8 10.3,20.3 10.2,20.8 10.1,21.4 10,21.9 9.9,22.5 9.9,23 9.8,23.4 
		9.7,23.9 9.7,24.4 9.7,24.7 9.6,25.1 9.6,25.4 9.6,25.8 9.6,26.2 9.6,26.5 9.5,26.9 9.5,27.2 9.5,27.6 9.5,27.9 9.5,28.3 9.5,28.6 
		9.5,29 9.5,29.3 9.5,30 9.6,30.7 9.6,31.4 9.6,32.1 9.7,32.8 9.7,33.5 9.8,34.2 9.9,34.8 9.9,35.5 10,36.1 10.1,36.8 10.1,37.4 
		10.2,38 	"/>
</g>
<g id="POLYLINE_571_">
	<polyline class="st3" points="27.6,88.9 27.4,87.2 27.3,85.5 27.2,83.8 27.1,82.9 27,82 27,81.2 26.9,80.3 26.9,79.4 26.8,78.6 
		26.8,77.7 26.8,76.8 26.7,76 26.7,75.1 26.7,74.5 26.7,74 26.7,72.8 26.7,71.7 26.7,70.6 26.7,69.4 26.7,68.3 26.7,67.1 26.7,66 
		26.8,64.9 26.8,63.7 26.9,59.1 27,58 27,56.8 27,55.2 27.1,53.6 27.1,52.1 27.1,50.5 27.1,48.9 27.1,47.3 27.2,45.7 27.2,44.1 
		27.2,40.9 27.2,37.7 27.2,31.3 27.1,26.9 27.2,22.5 27.2,20.3 27.2,18.1 27.2,15.9 27.2,13.7 27.7,13.9 28.1,14 28.6,14.1 
		29.1,14.2 29.6,14.3 30,14.4 30.5,14.5 31,14.5 31.5,14.6 31.9,14.7 32.4,14.7 32.9,14.8 33.4,14.8 33.9,14.8 34.3,14.9 34.8,14.9 
		35.3,14.9 35.8,14.9 36.2,15 36.7,15 37.2,15 37.7,15 38.2,15 38.6,15 39.1,14.9 39.6,14.9 40.5,14.9 41.5,14.9 42.5,14.8 
		44.4,14.8 45.3,14.7 46.3,14.7 47.2,14.7 47.7,14.6 48.2,14.6 48.7,14.6 49.2,14.6 49.6,14.6 50.1,14.6 50.6,14.6 51.1,14.7 
		51.5,14.7 52,14.7 52.5,14.7 53,14.7 53.5,14.8 53.9,14.8 54.4,14.9 54.9,14.9 55.4,15 55.8,15 56.3,15.1 56.8,15.2 57.3,15.3 
		57.7,15.4 58.1,15.5 58.9,15.6 59.3,15.7 59.7,15.8 59.9,15.8 60.1,15.9 60.3,15.9 60.5,15.9 60.7,15.9 60.9,16 61.1,16 61.3,16 
		61.5,16 61.7,16 61.9,16 62,15.9 62,15.9 62.1,15.9 62.2,15.9 62.3,15.9 62.4,15.9 62.5,15.9 62.6,15.8 62.7,15.8 62.8,15.8 
		62.9,15.8 63,15.7 63.1,15.7 63.2,15.7 63.3,15.6 63.4,15.6 63.5,15.5 63.6,15.5 63.7,15.4 63.8,15.4 63.9,15.3 64,15.3 64,17.3 
		64,19.1 64,20.9 64,22.8 64,24.6 64,26.5 64,37.1 64,40.6 64,44.1 64.1,47.5 64.1,51 64.1,54.5 64.1,57.9 64,61.4 64,64.9 64,68.3 
		64,71.8 64,75.2 64,78.7 63.9,82.1 63.9,85.6 63.9,88.6 63.8,91.6 50,91.6 48.7,91.6 47.4,91.6 46.8,91.6 46.1,91.6 45.3,91.6 
		44.5,91.6 44.1,91.6 43.7,91.6 43.3,91.6 43,91.5 42.6,91.5 41.8,91.5 41.4,91.4 41.2,91.4 41,91.4 40.8,91.4 40.6,91.4 40.4,91.4 
		40.2,91.4 40,91.5 39.9,91.5 39.8,91.5 39.6,91.5 39.4,91.6 38.7,91.7 38.5,91.8 38.3,91.8 38.2,91.8 38.1,91.8 38,91.8 37.9,91.8 
		37.8,91.9 37.7,91.9 37.6,91.9 37.5,91.9 37.5,91.9 37.5,91.9 37.4,91.8 37.4,91.8 37.3,91.8 37.3,91.8 37.2,91.8 37.2,91.8 
		37.1,91.8 37.1,91.8 37,91.8 37,91.8 36.9,91.8 36.9,91.7 36.8,91.7 36.8,91.7 36.7,91.7 36.7,91.7 36.6,91.6 36.5,91.6 36.4,91.5 
		36.4,91.5 36.3,91.5 36.2,91.4 36.1,91.3 36,91.2 35.8,91.1 35.1,90.6 35,90.5 34.8,90.4 34.7,90.3 34.6,90.3 34.6,90.2 34.5,90.2 
		34.4,90.2 34.3,90.1 34.3,90.1 34.2,90.1 34.1,90 34.1,90 34,90 33.9,89.9 33.7,89.9 33.6,89.8 33.4,89.8 33.3,89.8 33.2,89.7 
		32.9,89.7 32.6,89.6 32.3,89.6 32,89.5 31.7,89.4 30.8,89.2 30.5,89.1 30.2,89 30,89 29.8,88.9 29.7,88.9 29.5,88.9 29.4,88.9 
		29.2,88.8 29.1,88.8 28.9,88.8 28.8,88.8 28.6,88.8 28.5,88.8 28.3,88.8 28.2,88.8 28.2,88.8 28.1,88.8 28,88.8 27.9,88.9 
		27.9,88.9 27.8,88.9 27.7,88.9 27.6,88.9 27.6,88.9 	"/>
</g>
<g id="POLYLINE_572_">
	<polyline class="st0" points="17.7,7.3 17.3,8.4 16.9,9.4 16.6,10.5 16.2,11.5 16,12.1 15.8,12.6 15.7,13.1 15.5,13.6 15.3,14.2 
		15.2,14.7 15,15.2 14.9,15.7 14.7,16.3 14.6,16.8 14.4,17.3 14.3,17.9 14.2,18.4 14,18.9 13.9,19.5 13.8,20 13.7,20.5 13.6,21 
		13.5,21.6 13.4,22.1 13.3,22.6 13.2,23.2 13.2,23.7 13.1,24.2 13.1,24.6 13.1,24.9 13,25.3 13,25.6 13,26 13,26.3 13,26.7 12.9,27 
		12.9,27.4 12.9,27.7 12.9,28.1 12.9,28.4 12.9,28.7 12.9,29.1 12.9,29.4 12.9,29.8 13,30.5 13,31.2 13,31.9 13.1,32.6 13.1,33.3 
		13.2,34 13.2,34.7 13.3,35.4 13.4,36.1 13.5,36.8 13.6,37.5 13.6,38.1 13.8,39.5 14.2,42.3 14.4,43.7 14.4,44.4 14.5,45.1 
		14.6,45.8 14.7,46.5 14.8,47.5 14.9,48.5 15,49.5 15,50.4 15.1,51.4 15.2,52.4 15.2,53.4 15.3,54.4 15.3,55.3 15.4,56.3 15.4,57.3 
		15.4,58.3 15.5,59.2 15.5,60.2 15.5,61.2 15.5,62.2 15.5,63.1 15.5,64.1 15.5,65.1 15.5,66.1 15.5,68 15.5,70 15.5,77.8 15.4,80.5 
		15.4,81.8 15.4,83.1 15.4,84.5 15.4,85.8 15.4,87.2 15.5,88.5 15.5,89.9 15.5,91.2 15.5,92.5 15.5,93.9 15.5,95.2 15.6,96.6 
		15.6,97.9 15.6,99.2 16.9,99.2 18.2,99.1 19.4,99 20.7,98.9 21.9,98.9 23.2,98.8 24.5,98.7 25.7,98.7 27,98.6 28.3,98.5 29.5,98.5 
		30.8,98.4 32.1,98.4 33.3,98.3 35.8,98.3 38.4,98.2 40.9,98.1 43.4,98 46,98 48.5,97.9 51,97.9 53.6,97.8 56.1,97.8 58.6,97.8 
		61.2,97.8 63.7,97.7 66.2,97.7 68.8,97.7 71.3,97.7 73.8,97.7 76.4,97.7 78.9,97.7 81.4,97.8 84,97.8 86.5,97.8 91.6,97.8 
		96.7,97.9 106.8,98 111.9,98 116.9,98.1 119.5,98.1 122,98.1 124.5,98.1 127.1,98.1 129.6,98.1 132.2,98.1 134.7,98.1 137.2,98.1 
		139.8,98.1 142.3,98.1 144.8,98.1 147.3,98.1 149.9,98 152.4,98 154.9,98 157.5,97.9 160,97.8 162.5,97.8 165.1,97.7 167.6,97.6 
		170.1,97.5 172.6,97.4 173.9,97.4 175.1,97.3 176.4,97.3 177.7,97.2 179.8,97.1 183.9,96.9 186,96.8 187,96.7 188.1,96.7 
		189.1,96.7 190.1,96.6 191.2,96.6 192.2,96.6 193.3,96.5 194.3,96.5 195.3,96.5 196.4,96.5 197.4,96.5 198.4,96.5 199.5,96.5 
		200.5,96.5 201.6,96.6 202.1,96.6 202.6,96.6 203.1,96.6 203.6,96.7 204.2,96.7 204.7,96.7 205.2,96.8 205.7,96.8 206.2,96.8 
		206.8,96.9 207.3,96.9 207.8,97 208.3,97 208.8,97.1 209.4,97.1 209.9,97.2 210.4,97.3 210.9,97.3 210.9,96.6 210.8,96 210.8,95.4 
		210.8,94.9 210.8,93.8 210.8,92.7 210.7,91.5 210.7,90.4 210.7,89.3 210.7,88.2 210.7,87 210.7,85.9 210.8,84.8 210.8,83.6 
		210.8,81.4 210.9,77 210.9,74.9 211,72.8 211,70.6 211,68.5 211.1,66.4 211.1,64.3 211.1,62.2 211.1,60.1 211.1,57.9 211.1,55.8 
		211.2,53.7 211.2,51.6 211.2,49.5 211.1,47.3 211.1,45.2 211.1,43.1 211.1,41 211.1,38.9 211.1,36.8 211,34.6 211,32.5 210.9,30.4 
		210.9,28.3 210.8,26.2 210.8,24.1 210.7,22 210.6,19.8 210.6,17.7 210.5,15.6 210.4,13.5 210.3,11.4 210.2,9.6 210.1,7.8 210,5.9 
		209.9,5 209.9,4.1 136.8,4.1 129.8,4.1 122.9,4.1 119.5,4.1 116,4.1 109.7,4.1 107.6,4.1 105.5,4.1 103.4,4.1 101.4,4.1 100.3,4.1 
		99.3,4.1 97.2,4.2 93,4.2 91.9,4.3 90.9,4.3 89.8,4.3 88.8,4.3 87.8,4.3 86.7,4.3 85.7,4.3 84.6,4.3 83.6,4.2 82.5,4.2 81.5,4.2 
		80.5,4.1 79.5,4.1 76.5,3.9 75.5,3.9 74.5,3.8 73.5,3.8 73,3.8 72.5,3.8 72.1,3.8 71.6,3.8 71.1,3.7 70.6,3.8 70.1,3.8 69.6,3.8 
		69.1,3.8 68.6,3.8 68.1,3.8 67.6,3.9 67.1,3.9 66.6,3.9 66.3,4 65.9,4 65.5,4 65.1,4.1 64.8,4.1 64.4,4.2 63.6,4.3 62.9,4.4 
		62.2,4.5 61.4,4.6 60.7,4.8 58.4,5.2 57.7,5.3 56.9,5.4 56.2,5.5 55.4,5.6 55.1,5.7 54.7,5.7 54.3,5.8 54,5.8 53.2,5.9 52.5,6 
		51.8,6.1 51,6.1 50.3,6.2 49.6,6.2 48.8,6.3 48.1,6.3 47.3,6.4 45.9,6.4 44.4,6.5 42.9,6.6 41.3,6.7 39.8,6.7 35,7 33.5,7.1 
		31.9,7.2 31.1,7.3 30.3,7.3 29.5,7.3 28.7,7.4 27.9,7.4 27.2,7.4 26.4,7.4 25.6,7.5 24.8,7.5 24,7.5 23.2,7.5 22.4,7.5 21.6,7.5 
		20.8,7.5 20,7.4 19.3,7.4 18.5,7.4 17.7,7.3 	"/>
</g>
</svg>
