<?xml version="1.0" encoding="utf-8"?>
<!-- Generator: Adobe Illustrator 21.1.0, SVG Export Plug-In . SVG Version: 6.00 Build 0)  -->
<svg version="1.1" id="Слой_1" xmlns="http://www.w3.org/2000/svg" xmlns:xlink="http://www.w3.org/1999/xlink" x="0px" y="0px"
	 viewBox="0 0 157.6 177.4" style="enable-background:new 0 0 157.6 177.4;" xml:space="preserve">
<style type="text/css">
	.st0{fill-rule:evenodd;clip-rule:evenodd;fill:#FFFFFF;}
	.st1{fill:none;stroke:#FFFFFF;stroke-width:0.7087;stroke-linecap:round;stroke-linejoin:round;stroke-miterlimit:10;}
	.st2{fill-rule:evenodd;clip-rule:evenodd;fill:#ED6720;}
	.st3{fill:none;stroke:#ED6720;stroke-width:0.7087;stroke-linecap:round;stroke-linejoin:round;stroke-miterlimit:10;}
</style>
<g id="HATCH_379_">
	<polygon class="st0" points="87.5,48.3 87.5,48.6 87.5,48.8 87.6,49 87.6,49.1 87.6,49.2 87.6,49.3 87.6,49.4 87.6,49.5 87.6,49.5 
		87.7,49.6 87.7,49.7 87.7,49.7 87.7,49.8 87.8,49.9 87.8,49.9 87.8,50 87.8,50 87.8,50.1 87.9,50.1 87.9,50.2 87.9,50.2 87.9,50.2 
		87.9,50.2 88,50.3 88,50.3 88,50.3 88,50.3 88,50.3 88,50.4 88.1,50.4 88.1,50.4 88.1,50.4 88.1,50.4 88.1,50.4 88.1,50.5 
		88.1,50.5 88.2,50.5 88.2,50.5 88.2,50.5 88.2,50.5 88.2,50.5 88.3,50.5 88.3,50.6 88.3,50.6 88.3,50.6 88.3,50.6 88.3,50.6 
		88.4,50.6 88.4,50.6 88.4,50.6 88.4,50.6 88.4,50.6 88.5,50.7 88.5,50.7 88.5,50.7 88.6,50.7 88.6,50.7 88.7,50.7 88.7,50.7 
		88.7,50.7 88.8,50.7 88.8,50.7 88.9,50.8 88.9,50.8 89,50.8 89.1,50.8 89.3,50.8 89.6,50.8 89.7,50.8 89.8,50.8 89.9,50.8 90,50.8 
		90,50.8 90.1,50.7 90.1,50.7 90.2,50.7 90.2,50.7 90.2,50.7 90.3,50.7 90.3,50.7 90.4,50.7 90.4,50.7 90.4,50.7 90.4,50.6 
		90.5,50.6 90.5,50.6 90.5,50.6 90.5,50.6 90.5,50.6 90.6,50.6 90.6,50.6 90.6,50.6 90.6,50.5 90.6,50.5 90.7,50.5 90.7,50.5 
		90.7,50.5 90.7,50.5 90.8,50.4 90.8,50.4 90.8,50.4 90.8,50.4 90.8,50.4 90.9,50.4 90.9,50.3 90.9,50.3 90.9,50.3 90.9,50.3 
		90.9,50.2 91,50.2 91,50.2 91,50.2 91,50.1 91,50.1 91.1,50.1 91.1,50 91.1,49.9 91.2,49.9 91.2,49.8 91.2,49.7 91.3,49.7 
		91.3,49.6 91.3,49.5 91.4,49.4 91.4,49.3 91.4,49.2 91.4,49.1 91.5,49 91.5,48.8 91.5,48.6 91.6,48.3 91.6,48 91.6,47.7 91.7,47.4 
		91.7,47.1 91.7,46.1 91.7,44.1 91.7,43.6 91.7,43 91.7,42.5 91.7,42 91.7,41.5 91.8,41 91.8,40.5 91.8,40 91.9,39.5 91.9,39 
		91.9,38.7 92,38.3 92,37.9 92.1,37.6 92.1,37.2 92.2,36.9 92.2,36.5 92.3,36.1 92.4,35.8 92.4,35.4 92.5,35.1 92.6,34.7 92.7,34 
		92.9,33.3 93.1,32.6 93.2,31.9 93.9,29 94.1,28.3 94.3,27.5 94.4,26.8 94.6,26.1 94.7,25.7 94.7,25.3 94.8,24.9 94.9,24.6 
		94.9,24.2 95,23.8 95,23.4 95.1,23 95.2,22.7 95.2,22.3 95.3,21.9 95.3,21.5 95.3,21.1 95.4,20.7 95.4,20.3 95.4,19.9 95.4,19.5 
		95.5,19.1 95.5,18.7 95.5,18.3 95.5,17.9 95.5,17.5 95.5,17.1 95.4,16.6 95.4,16.2 95.4,15.8 95.3,15.4 95.3,14.9 95.3,14.5 
		95.2,14.2 95.2,13.8 95.1,13.4 95,13 95,12.6 94.9,12.2 94.8,11.8 94.7,11.4 94.6,11 94.5,10.6 94.4,10.2 94.3,9.8 94.2,9.5 
		94.1,9.1 93.9,8.7 93.8,8.3 93.7,8 93.5,7.6 93.4,7.3 93.2,6.9 93.1,6.6 93,6.4 92.9,6.2 92.8,6.1 92.7,5.9 92.6,5.8 92.5,5.6 
		92.4,5.4 92.4,5.3 92.3,5.1 92.2,5 92.1,4.8 92,4.7 91.9,4.6 91.8,4.4 91.7,4.3 91.6,4.1 91.5,4 91.3,3.9 91.2,3.8 91.1,3.6 
		91,3.5 90.9,3.4 90.8,3.3 90.7,3.2 90.6,3.1 90.5,3 90.4,2.9 90.3,2.8 90.1,2.7 90,2.6 89.9,2.5 89.8,2.4 89.7,2.3 89.5,2.2 
		89.4,2.2 89.3,2.1 89.2,2 89,1.9 88.9,1.9 88.8,1.8 88.7,1.7 88.5,1.7 88.4,1.6 88.3,1.5 88.1,1.5 88,1.4 87.9,1.3 87.7,1.3 
		87.5,1.2 87.2,1.1 86.9,1 86.6,0.9 86.3,0.8 86,0.8 85.7,0.7 85.5,0.6 85.2,0.6 84.8,0.6 84.5,0.5 84.2,0.5 83.9,0.4 83.6,0.4 
		83.3,0.4 83,0.4 82.7,0.4 82.3,0.4 82,0.4 81.7,0.4 81.4,0.4 81,0.4 80.7,0.4 80.4,0.4 80.1,0.4 79.7,0.4 79.4,0.4 79.1,0.5 
		78.4,0.5 77.7,0.6 77,0.6 74.4,0.9 73.7,0.9 73,1 72.4,1 72,1.1 71.7,1.1 71.1,1.1 70.6,1.1 70,1.1 69.4,1.2 68.9,1.2 68.3,1.2 
		67.8,1.2 67.2,1.2 65,1.1 64.5,1.1 63.9,1.1 63.4,1.1 62.9,1.1 62.3,1.1 61.8,1.2 61.2,1.2 60.7,1.2 60.4,1.2 60.1,1.3 59.9,1.3 
		59.6,1.3 59.3,1.3 59,1.4 58.8,1.4 58.5,1.4 58.2,1.5 57.9,1.5 57.7,1.6 57.4,1.6 57.1,1.7 56.8,1.7 56.5,1.8 56.3,1.8 56,1.9 
		55.7,2 55.4,2 55.1,2.1 54.8,2.2 54.5,2.3 54.3,2.4 54,2.5 53.6,2.6 53.2,2.7 52.9,2.8 52.5,3 52.2,3.1 51.8,3.3 51.4,3.4 
		51.1,3.6 50.7,3.8 50.4,4 50,4.1 49.7,4.3 49.4,4.5 49.2,4.6 49,4.7 48.9,4.8 48.7,4.9 48.5,5.1 48.4,5.2 48.2,5.3 48.1,5.4 
		47.9,5.5 47.8,5.6 47.6,5.7 47.5,5.8 47.3,6 47.2,6.1 47.1,6.2 46.9,6.3 46.8,6.5 46.7,6.6 46.5,6.7 46.4,6.8 46.3,7 46.2,7.1 
		46,7.2 45.9,7.4 45.8,7.5 45.7,7.7 45.6,7.8 45.5,7.9 45.4,8.1 45.3,8.2 45.2,8.4 45.1,8.5 45.1,8.7 45,8.8 44.9,9 44.8,9.1 
		44.8,9.3 44.7,9.4 44.7,9.6 44.6,9.7 44.6,9.8 44.6,9.9 44.5,10 44.5,10.2 44.5,10.3 44.4,10.4 44.4,10.7 44.3,10.9 44.3,11.2 
		44.3,11.4 44.3,11.7 44.2,12 44.2,12.2 44.2,12.5 44.2,12.7 44.2,13 44.2,13.3 44.3,13.6 44.3,13.8 44.3,14.1 44.3,14.4 44.3,14.6 
		44.4,15.2 44.5,15.7 44.7,17.4 44.8,17.9 44.8,18.4 44.9,19 44.9,19.5 44.9,20 45,20.5 45,21 45,21.5 45,21.9 45,22.4 45,22.9 
		45,23.4 45,23.9 45,24.3 45,24.8 45,25.3 45,25.8 45,26.7 44.9,27.6 44.8,29.5 44.8,30.4 44.8,31.4 44.7,31.8 44.7,32.3 44.7,32.8 
		44.7,33.2 44.7,33.8 44.7,34.3 44.7,34.8 44.7,35.4 44.7,35.9 44.7,36.4 44.8,37 44.8,37.5 44.8,38.6 44.9,39.7 45,43 45.1,44.1 
		45.1,45.2 45.1,45.7 45.1,46.3 45.1,46.9 45.1,47.4 45.2,48 45.2,48.5 45.2,49 45.2,49.6 45.1,50.1 45.1,50.7 45.1,50.8 45.1,50.8 
		45.1,50.9 45.1,50.9 45.1,51 45.1,51.1 45.1,51.1 45.2,51.2 45.2,51.2 45.2,51.3 45.2,51.3 45.2,51.3 45.2,51.4 45.2,51.4 
		45.2,51.5 45.2,51.5 45.3,51.5 45.3,51.5 45.3,51.5 45.3,51.6 45.3,51.6 45.3,51.6 45.3,51.6 45.3,51.6 45.3,51.6 45.3,51.7 
		45.3,51.7 45.4,51.7 45.4,51.7 45.4,51.7 45.4,51.7 45.4,51.7 45.4,51.8 45.4,51.8 45.4,51.8 45.4,51.8 45.5,51.8 45.5,51.8 
		45.5,51.8 45.5,51.8 45.5,51.9 45.5,51.9 45.5,51.9 45.6,51.9 45.6,51.9 45.6,51.9 45.6,51.9 45.6,51.9 45.6,51.9 45.6,51.9 
		45.7,51.9 45.7,52 45.7,52 45.7,52 45.7,52 45.8,52 45.8,52 45.8,52 45.9,52 45.9,52 46,52 46,52.1 46,52.1 46.1,52.1 46.1,52.1 
		46.2,52.1 46.3,52.1 46.3,52.1 46.5,52.1 46.7,52.1 47.1,52.1 47.3,52.1 47.4,52.1 47.4,52.1 47.5,52.1 47.6,52.1 47.7,52.1 
		47.8,52.1 47.8,52 47.9,52 47.9,52 48,52 48,52 48.1,52 48.1,52 48.1,51.9 48.2,51.9 48.2,51.9 48.3,51.9 48.3,51.9 48.4,51.8 
		48.4,51.8 48.4,51.8 48.4,51.8 48.4,51.8 48.5,51.8 48.5,51.8 48.5,51.8 48.5,51.7 48.5,51.7 48.6,51.7 48.6,51.7 48.6,51.7 
		48.6,51.7 48.6,51.6 48.6,51.6 48.7,51.6 48.7,51.6 48.7,51.6 48.7,51.5 48.7,51.5 48.7,51.5 48.8,51.5 48.8,51.5 48.8,51.4 
		48.8,51.4 48.8,51.4 48.8,51.4 48.8,51.3 48.9,51.3 48.9,51.3 48.9,51.2 48.9,51.2 48.9,51.1 49,51.1 49,51 49,50.9 49,50.9 
		49,50.8 49.1,50.7 49.1,50.6 49.1,50.6 49.1,50.5 49.1,50.4 49.1,50.3 49.1,50.2 49.1,50.1 49.1,50 49.1,49.7 49.1,49.3 49.1,48.6 
		49.1,47.8 49.1,47.1 49,46.5 49,46 49,45.5 49,44.9 48.9,44.3 48.9,43.6 48.6,39.8 48.6,38.8 48.5,37.8 48.5,37.2 48.5,36.7 
		48.4,36.2 48.4,35.7 48.4,35.1 48.4,34.4 48.4,34.1 48.4,33.7 48.4,33.4 48.4,33.1 48.4,32.6 48.4,32.1 48.5,31.7 48.5,31.2 
		48.5,30.7 48.5,30.3 48.6,29.3 48.7,28.1 48.9,25.8 48.9,25.2 49,24.6 49,24 49.1,23.5 49.1,23 49.1,22.4 49.1,21.9 49.2,21.3 
		49.2,20.8 49.2,20.2 49.2,19.7 49.2,19.1 49.2,18.5 49.2,17.9 49.2,17.4 49.1,15.4 49.1,15 49.1,14.6 49.1,14.2 49.1,14 49.1,13.7 
		49.1,13.5 49.1,13.3 49.2,13.1 49.2,12.9 49.2,12.7 49.2,12.5 49.2,12.4 49.3,12.2 49.3,12.1 49.3,11.9 49.3,11.8 49.4,11.7 
		49.4,11.7 49.4,11.6 49.4,11.6 49.4,11.5 49.5,11.5 49.5,11.4 49.5,11.4 49.5,11.3 49.6,11.3 49.6,11.2 49.6,11.2 49.7,11.1 
		49.7,11.1 49.7,11.1 49.8,11 49.8,11 49.8,10.9 49.9,10.9 49.9,10.8 50,10.8 50,10.7 50.1,10.7 50.2,10.6 50.2,10.6 50.3,10.5 
		50.3,10.5 50.5,10.4 50.6,10.3 50.6,10.3 50.8,10.1 51,10 51.2,9.9 51.4,9.8 51.6,9.7 51.9,9.6 52.1,9.5 52.3,9.4 52.6,9.3 
		52.9,9.2 53.1,9.1 53.4,9.1 53.7,9 54,8.9 54.3,8.8 54.6,8.8 54.9,8.7 55.3,8.6 55.6,8.6 55.9,8.5 56.1,8.5 56.4,8.4 56.6,8.4 
		56.9,8.4 57.1,8.3 57.3,8.3 57.6,8.3 57.8,8.3 58.1,8.3 58.6,8.2 59.1,8.2 59.6,8.2 60.1,8.2 60.6,8.2 61.1,8.2 61.6,8.2 62.2,8.2 
		62.7,8.2 63.7,8.2 65.5,8.2 66.4,8.3 67.3,8.3 68,8.3 68.7,8.3 69.4,8.3 70.1,8.3 70.8,8.3 71.1,8.3 71.5,8.2 71.8,8.2 72.1,8.2 
		72.5,8.2 72.8,8.2 73.2,8.1 73.6,8.1 74.3,8 75.2,8 78,7.7 78.7,7.6 79.3,7.6 80,7.5 80.3,7.5 80.7,7.5 81,7.5 81.3,7.4 81.6,7.4 
		81.9,7.4 82.2,7.4 82.4,7.4 82.7,7.4 83,7.4 83.2,7.4 83.5,7.4 83.7,7.5 84,7.5 84.2,7.5 84.4,7.5 84.6,7.6 84.8,7.6 85,7.6 
		85.2,7.7 85.4,7.7 85.6,7.7 85.7,7.8 85.8,7.8 86,7.9 86,7.9 86.1,7.9 86.2,8 86.3,8 86.3,8 86.4,8.1 86.4,8.1 86.5,8.1 86.5,8.1 
		86.6,8.2 86.6,8.2 86.6,8.2 86.7,8.2 86.7,8.3 86.8,8.3 86.8,8.3 86.8,8.4 86.9,8.4 86.9,8.4 86.9,8.4 87,8.5 87,8.5 87,8.5 
		87,8.6 87.1,8.6 87.1,8.7 87.1,8.7 87.2,8.7 87.2,8.8 87.2,8.9 87.3,8.9 87.3,9 87.4,9 87.4,9.1 87.4,9.2 87.5,9.3 87.6,9.5 
		87.6,9.6 87.7,9.7 87.7,9.9 87.8,10.1 87.9,10.3 88,10.5 88,10.8 88.1,11 88.2,11.3 88.2,11.6 88.3,11.9 88.3,12.2 88.4,12.5 
		88.4,12.8 88.5,13.1 88.5,13.4 88.6,13.7 88.6,14 88.6,14.4 88.7,14.7 88.7,15 88.7,15.4 88.7,15.7 88.8,16.2 88.8,16.8 88.8,17.1 
		88.8,17.5 88.8,17.9 88.8,18.3 88.8,18.6 88.8,19 88.8,19.4 88.8,19.7 88.8,20.1 88.8,20.5 88.8,20.8 88.8,21.2 88.7,22 88.7,22.7 
		88.6,23.4 88.6,24.2 88.5,25 88.4,25.8 88.3,26.7 88.2,27.5 88,29.9 87.9,31.1 87.8,31.7 87.7,32.3 87.7,33.2 87.6,34.1 87.6,34.5 
		87.5,35 87.5,35.4 87.5,35.9 87.4,36.3 87.4,36.7 87.4,37.1 87.4,37.5 87.4,37.9 87.4,38.3 87.4,38.7 87.4,39.1 87.4,39.5 
		87.4,39.9 87.4,40.3 87.4,40.7 87.4,41.6 87.4,42.4 87.5,45.2 87.5,45.7 87.5,46.2 87.5,46.8 87.5,47.5 87.5,47.9 	"/>
</g>
<g id="HATCH_380_">
	<polygon class="st0" points="44.7,33.4 43.7,33.3 42.5,33.3 41.3,33.2 40.1,33.1 38.9,33 37.7,33 36.5,32.9 35.3,32.8 34.1,32.7 
		32.9,32.6 31.7,32.4 29.2,32.2 24.4,31.8 22,31.5 20.8,31.4 19.6,31.3 18.4,31.2 17.2,31.1 16,31 14.8,30.9 13.6,30.8 12.3,30.8 
		11.1,30.7 9.9,30.6 8.7,30.6 7.5,30.5 6.9,30.5 6.3,30.5 5.7,30.4 5,30.4 4.9,30.4 4.8,30.4 4.7,30.4 4.7,30.4 4.6,30.4 4.5,30.5 
		4.4,30.5 4.3,30.5 4.2,30.5 4.1,30.5 4,30.5 3.9,30.6 3.8,30.6 3.7,30.6 3.6,30.6 3.6,30.7 3.5,30.7 3.4,30.8 3.3,30.8 3.2,30.8 
		3.1,30.9 3,30.9 2.9,31 2.8,31 2.8,31.1 2.7,31.1 2.6,31.2 2.5,31.2 2.4,31.3 2.4,31.4 2.3,31.4 2.2,31.5 2.1,31.6 2.1,31.6 
		2,31.7 1.9,31.8 1.8,31.9 1.8,31.9 1.7,32 1.7,32.1 1.6,32.2 1.5,32.3 1.5,32.4 1.4,32.4 1.4,32.5 1.3,32.6 1.3,32.7 1.3,32.8 
		1.2,32.9 1.2,33 1.1,33 1.1,33.1 1.1,33.2 1.1,33.3 1,33.4 1,33.5 1,33.6 1,33.7 0.9,33.8 0.9,33.8 0.9,33.9 0.9,34 0.9,34.1 
		0.8,35 0.7,35.8 0.7,36.7 0.6,37.5 0.5,38.3 0.5,39.2 0.4,40 0.4,40.8 0.4,41.7 0.4,42.5 0.4,43.3 0.4,44.1 0.4,44.9 0.4,45.8 
		0.4,46.6 0.4,47.4 0.4,48.2 0.4,49 0.5,49.8 0.5,50.6 0.6,51.4 0.6,52.2 0.7,53 0.7,53.7 0.8,54.5 0.8,55.3 0.9,56.1 1,56.9 
		1.1,57.7 1.1,58.4 1.2,59.2 1.3,60 1.4,60.7 1.5,61.5 1.6,62.3 1.7,63 1.8,64.5 2,66 2.2,67.5 2.4,69 3,73.5 3.2,74.9 3.4,76.4 
		3.6,77.8 3.8,79.3 3.9,80 4,80.7 4,81.4 4.1,82.2 4.2,82.9 4.2,83.6 4.3,84.1 4.4,84.7 4.4,85.8 4.5,87 4.6,88.1 4.7,89.2 
		4.7,90.3 4.8,91.4 4.8,92.5 4.9,93.7 4.9,94.8 5,95.9 5,97 5,98.1 5,99.2 5,100.4 5.1,101.5 5.1,102.6 5.1,103.7 5.1,104.9 
		5.1,106 5.1,108.3 5,115.2 5,117.6 5,120 5,121.3 5,122.6 5,123.9 5.1,125.2 5.1,126.5 5.1,127.2 5.1,127.9 5.1,128.5 5.1,129.2 
		5.2,129.9 5.2,130.5 5.2,131.2 5.3,131.9 5.3,132.5 5.3,133.2 5.4,133.8 5.4,134.5 5.5,135.2 5.5,135.8 5.6,136.5 5.6,137.1 
		5.7,137.8 5.8,138.4 5.9,139.1 5.9,139.7 6,140.4 6.1,141 6.2,141.7 6.3,142.3 6.4,143 6.5,143.6 6.6,144.2 6.7,144.8 6.9,145.5 
		7,146.1 7.1,146.7 7.3,147.3 7.4,147.9 7.6,148.5 7.7,149.1 7.9,149.7 8.1,150.3 8.3,150.9 8.4,151.2 8.5,151.5 8.6,151.8 
		8.7,152.1 8.8,152.4 8.9,152.6 9,152.9 9.1,153.2 9.2,153.5 9.3,153.8 9.4,154 9.5,154.3 9.6,154.6 9.7,154.9 9.9,155.1 10,155.4 
		10.1,155.7 10.2,155.9 10.4,156.2 10.5,156.5 10.6,156.7 10.8,157 10.9,157.3 11,157.5 11.2,157.8 11.3,158 11.5,158.3 11.6,158.5 
		11.8,158.8 11.9,159 12.1,159.3 12.2,159.5 12.4,159.8 12.6,160.1 12.8,160.3 13,160.6 13.2,160.9 13.4,161.2 13.6,161.4 
		13.8,161.7 14,161.9 14.2,162.2 14.4,162.4 14.6,162.7 14.8,162.9 15.1,163.2 15.3,163.4 15.5,163.7 15.7,163.9 16,164.2 
		16.2,164.4 16.4,164.6 16.7,164.9 16.9,165.1 17.2,165.3 17.4,165.5 17.7,165.7 17.9,166 18.2,166.2 18.4,166.4 18.7,166.6 
		19,166.8 19.2,167 19.5,167.2 19.8,167.4 20,167.6 20.3,167.8 20.6,168 20.9,168.2 21.1,168.4 21.4,168.6 21.7,168.7 22,168.9 
		22.3,169.1 22.6,169.3 22.9,169.4 23.2,169.6 23.5,169.8 23.8,169.9 24.1,170.1 24.4,170.3 24.7,170.4 25,170.6 25.3,170.7 
		25.7,170.9 26,171 26.3,171.2 26.6,171.3 26.9,171.4 27.3,171.6 27.6,171.7 27.9,171.8 28.3,172 28.6,172.1 28.9,172.2 29.3,172.3 
		29.6,172.4 29.9,172.6 30.3,172.7 30.6,172.8 31,172.9 31.3,173 31.6,173.1 32,173.2 32.3,173.3 32.7,173.4 33,173.5 33.4,173.6 
		33.7,173.6 34.1,173.7 34.4,173.8 34.8,173.9 35.1,174 35.5,174.1 35.9,174.1 36.2,174.2 36.9,174.3 37.7,174.5 38.4,174.6 
		39.1,174.7 39.9,174.8 40.6,175 41.3,175.1 42.1,175.2 42.8,175.2 43.6,175.3 44.3,175.4 45,175.5 45.8,175.6 46.5,175.6 
		47.3,175.7 48,175.7 48.7,175.8 49.5,175.8 50.2,175.9 50.9,175.9 51.7,176 52.4,176 53.5,176.1 54.5,176.1 55.5,176.2 56.6,176.2 
		57.6,176.3 58.6,176.3 59.6,176.3 60.7,176.3 61.7,176.4 62.7,176.4 64.7,176.4 66.7,176.5 68.6,176.5 72.6,176.5 74.6,176.6 
		76.6,176.6 78.6,176.6 79.6,176.7 80.6,176.7 81.6,176.7 82.6,176.7 83.7,176.8 84.7,176.8 87.6,176.9 89,177 89.8,177 90.5,177 
		91.2,177 92,177.1 92.7,177.1 93.4,177.1 94.2,177.1 94.9,177.1 95.6,177.1 96.4,177 96.7,177 97.1,177 97.5,177 97.8,177 
		98.2,176.9 98.6,176.9 98.9,176.9 99.3,176.9 99.7,176.8 100,176.8 100.4,176.7 100.7,176.7 101.1,176.7 101.4,176.6 101.8,176.6 
		102.2,176.5 102.5,176.4 102.9,176.4 103.2,176.3 103.6,176.2 103.9,176.2 104.3,176.1 104.6,176 105,175.9 105.3,175.8 
		105.7,175.7 106,175.7 106.3,175.6 106.7,175.4 107,175.3 107.4,175.2 107.7,175.1 108,175 108.4,174.9 108.7,174.7 109,174.6 
		109.3,174.5 109.7,174.3 110,174.2 110.3,174 110.6,173.9 110.9,173.7 111.2,173.6 111.5,173.4 111.8,173.2 112.1,173 112.5,172.9 
		112.8,172.7 113.1,172.5 113.4,172.3 113.6,172.1 113.9,171.9 114.2,171.7 114.5,171.5 114.8,171.3 115.1,171.1 115.4,170.9 
		115.6,170.7 115.9,170.5 116.2,170.2 116.5,170 116.7,169.8 117,169.5 117.3,169.3 117.5,169.1 117.8,168.8 118,168.6 118.3,168.3 
		118.5,168.1 118.8,167.8 119,167.6 119.3,167.3 119.5,167.1 119.7,166.8 120,166.5 120.2,166.3 120.4,166 120.6,165.7 120.9,165.5 
		121.1,165.2 121.3,164.9 121.5,164.6 121.7,164.3 121.9,164.1 122.1,163.8 122.3,163.5 122.5,163.2 122.6,162.9 122.8,162.6 
		123,162.3 123.2,162 123.3,161.7 123.5,161.4 123.7,161.1 123.8,160.8 124,160.5 124.1,160.2 124.2,160 124.4,159.7 124.5,159.4 
		124.6,159.1 124.7,158.9 124.8,158.6 124.9,158.3 125,158 125.1,157.8 125.2,157.5 125.3,157.2 125.4,156.9 125.5,156.6 
		125.6,156.3 125.7,156.1 125.8,155.8 125.9,155.5 126,155.2 126,154.9 126.1,154.6 126.2,154.3 126.3,154 126.3,153.8 126.4,153.5 
		126.5,153.2 126.5,152.9 126.6,152.6 126.7,152 126.8,151.4 126.9,150.8 127,150.2 127.1,149.6 127.2,149 127.3,148.4 127.3,147.8 
		127.4,147.2 127.4,146.6 127.5,146 127.6,145.3 127.6,144.7 127.6,144.1 127.7,143.5 127.7,142.9 127.8,142.3 127.8,141.6 
		127.4,141.9 127,142.1 126.5,142.3 126.1,142.6 125.7,142.8 125.3,143 124.8,143.2 124.4,143.4 124.1,143.5 123.8,143.6 
		123.5,143.8 123.2,143.9 123,144 122.7,144.1 122.4,144.2 122.1,144.3 122,145 122,145.6 121.9,146.3 121.9,146.9 121.8,147.6 
		121.7,148.2 121.6,148.8 121.5,149.4 121.5,150 121.4,150.3 121.4,150.6 121.3,150.9 121.2,151.2 121.2,151.5 121.1,151.8 
		121.1,152.1 121,152.4 120.9,152.6 120.9,152.9 120.8,153.2 120.7,153.5 120.6,153.8 120.6,154 120.5,154.3 120.4,154.6 
		120.3,154.9 120.2,155.1 120.1,155.4 120.1,155.7 120,155.9 119.9,156.2 119.7,156.5 119.6,156.7 119.5,157 119.4,157.3 
		119.3,157.5 119.2,157.8 119,158.1 118.9,158.3 118.8,158.6 118.6,158.9 118.5,159.1 118.3,159.4 118.2,159.7 118,159.9 
		117.8,160.2 117.7,160.4 117.5,160.7 117.4,160.9 117.2,161.1 117.1,161.3 116.9,161.5 116.8,161.8 116.6,162 116.4,162.2 
		116.3,162.4 116.1,162.6 115.9,162.8 115.8,163 115.6,163.2 115.4,163.4 115.2,163.6 115,163.8 114.8,164 114.7,164.2 114.5,164.3 
		114.3,164.5 114.1,164.7 113.9,164.9 113.7,165.1 113.5,165.3 113.3,165.4 113.1,165.6 112.9,165.8 112.7,165.9 112.5,166.1 
		112.3,166.3 112,166.4 111.8,166.6 111.6,166.7 111.4,166.9 111.2,167 111,167.2 110.8,167.3 110.5,167.4 110.3,167.6 110.1,167.7 
		109.9,167.8 109.6,168 109.4,168.1 109.2,168.2 109,168.3 108.7,168.4 108.5,168.5 108.2,168.7 107.9,168.8 107.6,168.9 
		107.3,169.1 107,169.2 106.7,169.3 106.3,169.4 106,169.5 105.7,169.6 105.4,169.7 105.2,169.7 104.9,169.8 104.7,169.8 
		104.4,169.9 104.2,169.9 103.9,170 103.7,170 103.4,170.1 103.1,170.1 102.9,170.2 102.6,170.2 102.3,170.2 102,170.3 101.8,170.3 
		101.5,170.3 101.2,170.3 100.9,170.4 100.6,170.4 100.3,170.4 100,170.4 99.7,170.4 99.4,170.4 99.1,170.4 98.6,170.4 98.1,170.4 
		97.6,170.4 97.2,170.4 96.5,170.4 95.9,170.3 95.2,170.3 94.6,170.3 93.7,170.2 92.9,170.1 92.3,170.1 91.8,170 90.6,169.9 
		89.4,169.8 86.5,169.4 85.6,169.3 84.7,169.2 83.8,169.1 82.8,169.1 81.8,169 80.8,168.9 79.8,168.8 78.8,168.7 77.5,168.6 
		76.2,168.6 74.9,168.5 73.5,168.4 72.2,168.3 70.9,168.3 69.5,168.2 68.2,168.2 66.6,168.1 65.1,168.1 63.6,168.1 62,168 58.9,168 
		55.8,167.9 53.9,167.9 52,167.8 50.9,167.8 49.7,167.8 48.5,167.7 47.3,167.7 46.6,167.6 45.9,167.6 45.2,167.6 44.5,167.5 
		43.8,167.5 43.1,167.5 42.4,167.4 41.7,167.3 40.9,167.3 40.1,167.2 39.3,167.1 38.5,167 37.9,167 37.3,166.9 36.7,166.8 
		36.1,166.7 35.4,166.6 34.8,166.5 34.2,166.4 33.6,166.2 33.2,166.2 32.8,166.1 32.4,166 32,165.9 31.6,165.8 31.2,165.7 
		30.8,165.6 30.4,165.4 29.9,165.3 29.5,165.1 29,165 28.6,164.8 28.1,164.6 27.6,164.5 27.2,164.3 27,164.2 26.7,164.1 26.5,164 
		26.3,163.9 26,163.8 25.8,163.6 25.6,163.5 25.3,163.4 25.1,163.3 24.9,163.2 24.6,163 24.4,162.9 24.2,162.8 24,162.7 23.7,162.5 
		23.5,162.4 23.3,162.2 23.1,162.1 22.9,162 22.7,161.8 22.5,161.7 22.3,161.5 22.1,161.4 21.9,161.3 21.7,161.1 21.5,161 
		21.3,160.8 21.1,160.6 20.9,160.5 20.7,160.3 20.5,160.2 20.3,160 20.2,159.8 20,159.7 19.8,159.5 19.6,159.3 19.5,159.2 19.3,159 
		19.2,158.8 19,158.7 18.8,158.5 18.7,158.3 18.6,158.2 18.4,158 18.3,157.8 18.2,157.7 18,157.5 17.9,157.4 17.8,157.2 17.7,157.1 
		17.6,156.9 17.4,156.7 17.3,156.5 17.2,156.3 17.1,156.1 16.9,155.9 16.8,155.8 16.7,155.6 16.5,155.3 16.4,155.1 16.3,154.8 
		16.1,154.5 16,154.3 15.9,154 15.7,153.7 15.6,153.5 15.5,153.2 15.4,153 15.3,152.8 15.2,152.5 15.1,152.3 15,152.1 14.9,151.8 
		14.8,151.6 14.7,151.4 14.7,151.1 14.5,150.7 14.3,150.2 14.2,149.7 14.1,149.2 13.9,148.7 13.8,148.2 13.6,147.6 13.5,147.1 
		13.4,146.6 13.3,146.1 13.2,145.5 13.1,145 13,144.5 12.9,143.9 12.8,143.4 12.8,142.9 12.7,142.3 12.6,141.8 12.6,141.2 
		12.5,140.8 12.5,140.4 12.4,140 12.4,139.6 12.4,139.2 12.3,138.7 12.3,137.9 12.2,137.3 12.2,136.7 12.1,136.1 12.1,135.5 
		12.1,135 12.1,134.4 12,133.8 12,133.2 12,132.3 12,131.5 11.9,130.7 11.9,129.8 11.9,128.8 11.9,127.8 11.9,126.8 11.9,125.8 
		11.9,123.8 11.9,120 11.9,118.1 11.9,116.7 11.9,115.3 11.9,113.9 11.9,112.4 11.9,111 11.9,109.6 11.9,107.6 11.8,106.6 
		11.8,105.6 11.8,104.6 11.8,103.6 11.8,102.6 11.7,101.6 11.7,100.6 11.7,99.6 11.6,98.6 11.6,97.6 11.6,96.6 11.5,95.7 11.5,94.7 
		11.4,93.7 11.4,92.7 11.3,91.7 11.3,90.7 11.2,89.7 11.1,88.7 11.1,87.7 11,86.7 10.9,85.8 10.8,84.2 10.7,82.6 10.5,81 10.4,79.4 
		10.3,78 10.1,76.7 10,75.3 9.9,74 9.5,71.1 8.9,65.4 8.6,62.5 8.4,60.6 8.2,58.7 8.1,56.8 8,55.8 7.9,54.9 7.8,53.9 7.7,53 7.6,52 
		7.6,51.1 7.5,50.1 7.4,49.2 7.3,48.2 7.3,47.3 7.2,46.3 7.2,45.3 7.1,44.4 7.1,43.4 7.1,43.3 7.1,43.2 7.1,43.1 7.1,43 7.1,42.9 
		7.1,42.8 7.1,42.7 7.1,42.6 7.1,42.5 7.1,42.4 7.2,42.3 7.2,42.2 7.2,42.1 7.2,42 7.3,41.9 7.3,41.8 7.4,41.7 7.4,41.6 7.4,41.5 
		7.5,41.4 7.5,41.3 7.6,41.2 7.6,41.1 7.7,41 7.7,40.9 7.8,40.9 7.9,40.8 7.9,40.7 8,40.6 8.1,40.5 8.1,40.5 8.2,40.4 8.3,40.3 
		8.3,40.2 8.4,40.2 8.5,40.1 8.6,40 8.7,40 8.7,39.9 8.8,39.8 8.9,39.8 9,39.7 9.1,39.7 9.2,39.6 9.3,39.6 9.4,39.5 9.5,39.5 
		9.6,39.4 9.7,39.4 9.8,39.4 9.9,39.3 10,39.3 10.1,39.3 10.2,39.2 10.3,39.2 10.4,39.2 10.5,39.2 10.6,39.2 10.7,39.1 10.8,39.1 
		10.9,39.1 11,39.1 11.1,39.1 11.2,39.1 37.4,39.1 44.8,39.1 44.8,38.4 44.8,37.7 44.8,36.9 44.7,36.2 44.7,35.5 44.7,34.8 
		44.7,34.1 	"/>
</g>
<g id="HATCH_381_">
	<polygon class="st0" points="130.1,99.9 130.3,96.1 130.6,92.3 130.8,88.5 130.9,86.6 131,84.7 131.1,82.8 131.2,80.9 131.3,79 
		131.4,77.1 131.5,75.2 131.6,73.3 131.6,71.4 131.7,69.5 131.8,67.6 131.8,65.7 131.9,63.7 132,61.8 132,59.9 132.1,57.9 132.1,56 
		132.1,54.1 132.2,52.1 132.2,50.2 132.2,48.2 132.2,46.3 132.2,44.3 132.2,42.3 132.2,40.4 132.2,38.4 132.2,38.3 132.2,38.2 
		132.1,38.1 132.1,38 132.1,37.9 132.1,37.9 132.1,37.8 132.1,37.7 132.1,37.6 132,37.5 132,37.4 132,37.3 132,37.2 131.9,37.1 
		131.9,37 131.9,36.9 131.8,36.8 131.8,36.7 131.7,36.6 131.7,36.6 131.7,36.5 131.6,36.4 131.6,36.3 131.5,36.2 131.4,36.1 
		131.4,36 131.3,36 131.3,35.9 131.2,35.8 131.1,35.7 131.1,35.6 131,35.6 130.9,35.5 130.8,35.4 130.8,35.4 130.7,35.3 130.6,35.2 
		130.5,35.2 130.4,35.1 130.4,35 130.3,35 130.2,34.9 130.1,34.9 130,34.8 129.9,34.8 129.8,34.7 129.7,34.7 129.7,34.7 129.6,34.6 
		129.5,34.6 129.4,34.5 129.3,34.5 129.2,34.5 129.1,34.5 129,34.4 128.9,34.4 128.8,34.4 128.7,34.4 128.6,34.4 128.6,34.4 
		128.5,34.3 128.4,34.3 128.3,34.3 128.2,34.3 123.3,34.1 120.7,34 118.1,33.9 115.4,33.8 114.1,33.8 112.8,33.7 111.5,33.7 
		110.2,33.7 108.9,33.6 107.7,33.6 106.7,33.6 105.7,33.6 104.7,33.6 103.7,33.6 102.7,33.5 101.8,33.5 99.9,33.5 98.1,33.6 
		92.8,33.6 92.7,34.3 92.5,34.9 92.5,35.3 92.4,35.6 92.3,36 92.3,36.3 92.2,36.6 92.2,37 92.1,37.3 92.1,37.7 92,38 92,38.3 
		91.9,38.7 91.9,39.1 94.6,39.1 97.4,39.1 98.9,39.1 100.3,39.1 101.7,39.1 103.2,39.1 103.9,39.1 104.6,39.1 105.3,39.1 106,39.1 
		106.9,39.1 107.7,39.1 108.6,39.2 109.4,39.2 110.2,39.2 111.1,39.2 112.8,39.3 114.1,39.4 115.4,39.4 118.1,39.6 118.1,39.6 
		118.2,39.6 118.3,39.6 118.4,39.6 118.5,39.6 118.6,39.7 118.7,39.7 118.8,39.7 118.9,39.7 118.9,39.7 119,39.8 119.1,39.8 
		119.2,39.8 119.3,39.9 119.4,39.9 119.5,39.9 119.6,40 119.6,40 119.7,40.1 119.8,40.1 119.9,40.2 120,40.2 120.1,40.3 120.1,40.3 
		120.2,40.4 120.3,40.4 120.4,40.5 120.5,40.6 120.5,40.6 120.6,40.7 120.7,40.8 120.7,40.8 120.8,40.9 120.9,41 120.9,41.1 
		121,41.1 121.1,41.2 121.1,41.3 121.2,41.4 121.2,41.5 121.3,41.6 121.3,41.6 121.4,41.7 121.4,41.8 121.5,41.9 121.5,42 
		121.6,42.1 121.6,42.2 121.6,42.2 121.7,42.3 121.7,42.4 121.7,42.5 121.7,42.6 121.8,42.7 121.8,42.8 121.8,42.9 121.8,43 
		121.8,43 121.8,43.1 121.9,43.2 121.9,43.3 121.9,43.4 122,45.7 122.1,47.9 122.2,50.2 122.3,52.4 122.4,54.6 122.5,56.9 
		122.6,59.1 122.6,61.3 122.7,62.8 122.7,64.2 122.7,65.6 122.8,67 122.8,68.5 122.8,69.9 122.9,71.3 122.9,72.8 122.9,74.2 
		123,75.6 123,77 123,78.5 123,81.3 123,84.2 123.1,86.9 123.1,89.6 123.1,92.2 123.1,94.9 124.1,95.6 125.1,96.4 126.2,97.1 
		127.2,97.8 128.7,98.8 	"/>
</g>
<g id="POLYLINE_739_">
	<path class="st1" d="M130.1,99.9l0.2-3.8l0.2-3.8l0.2-3.8c0,0,0.1-1.9,0.1-1.9l0.1-1.9l0.1-1.9l0.1-1.9l0.1-1.9l0.1-1.9l0.1-1.9
		l0.1-1.9l0.1-1.9l0.1-1.9l0.1-1.9l0.1-1.9l0.1-1.9l0.1-1.9l0.1-1.9l0-1.9l0-1.9l0-1.9l0-1.9c0,0,0-1.9,0-1.9l0-2l0-2l0-2
		c0,0,0-2,0-2l0-2l0-2l0-0.1l0-0.1l0-0.1l0-0.1l0-0.1l0-0.1c0,0,0-0.1,0-0.1l0-0.1l0-0.1l0-0.1l0-0.1l0-0.1l0-0.1l0-0.1l0-0.1l0-0.1
		l0-0.1l0-0.1l0-0.1l0-0.1l0-0.1l0-0.1l-0.1-0.1l-0.1-0.1l-0.1-0.1c0,0-0.1-0.1-0.1-0.1s-0.1-0.1-0.1-0.1l-0.1-0.1l-0.1-0.1
		l-0.1-0.1l-0.1-0.1l-0.1-0.1l-0.1-0.1l-0.1-0.1l-0.1-0.1c0,0-0.1-0.1-0.1-0.1s-0.1-0.1-0.1-0.1l-0.1-0.1l-0.1-0.1l-0.1-0.1
		c0,0-0.1-0.1-0.1-0.1l-0.1-0.1l-0.1-0.1l-0.1,0l-0.1,0c0,0-0.1,0-0.1,0l-0.1,0l-0.1,0l-0.1,0l-0.1,0l-0.1,0l-0.1,0l-0.1,0l-0.1,0
		l-0.1,0l-0.1,0l-0.1,0l-0.1,0l-0.1,0l-0.1,0l-0.1,0c0,0-0.1,0-0.1,0l-0.1,0c0,0-0.1,0-0.1,0s-7.5-0.3-7.5-0.3l-2.6-0.1l-2.7-0.1
		l-1.3,0l-1.3,0l-1.3,0l-1.3,0l-1.3,0l-1.2,0l-1,0l-1,0l-1,0c0,0-1,0-1,0l-1,0l-0.9,0l-1.9,0l-1.8,0l-5.3,0l-0.1,0.7l-0.1,0.7
		l-0.1,0.3l-0.1,0.3L92.3,36l-0.1,0.3l-0.1,0.3L92.2,37l-0.1,0.3l0,0.3l0,0.3l0,0.3l0,0.3l0,0.4c0,0,2.7,0,2.7,0l2.9,0l1.4,0l1.4,0
		l1.4,0l1.4,0l0.7,0l0.7,0c0,0,0.7,0,0.7,0l0.7,0c0,0,0.8,0,0.8,0l0.8,0l0.8,0l0.8,0l0.8,0l0.8,0l1.7,0.1l1.3,0.1
		c0,0,1.3,0.1,1.3,0.1s2.7,0.1,2.7,0.1l0.1,0l0.1,0c0,0,0.1,0,0.1,0l0.1,0l0.1,0c0,0,0.1,0,0.1,0s0.1,0,0.1,0l0.1,0c0,0,0.1,0,0.1,0
		l0.1,0c0,0,0.1,0,0.1,0l0.1,0l0.1,0l0.1,0l0.1,0l0.1,0l0.1,0l0.1,0l0.1,0c0,0,0.1,0,0.1,0l0.1,0l0.1,0.1l0.1,0.1l0.1,0.1l0.1,0.1
		l0.1,0.1c0,0,0.1,0.1,0.1,0.1l0.1,0.1l0.1,0.1c0,0,0.1,0.1,0.1,0.1l0.1,0.1l0.1,0.1l0.1,0.1l0.1,0.1l0.1,0.1l0.1,0.1l0.1,0.1
		l0.1,0.1l0.1,0.1l0.1,0.1l0.1,0.1c0,0,0,0.1,0,0.1s0,0.1,0,0.1s0,0.1,0,0.1l0,0.1l0,0.1l0,0.1l0,0.1l0,0.1l0,0.1l0,0.1l0,0.1l0,0.1
		l0,0.1l0,0.1l0,0.1l0,0.1l0,0.1l0,0.1l0,0.1l0,0.1l0,0.1l0.1,2.3c0,0,0.1,2.2,0.1,2.2l0.1,2.2l0.1,2.2l0.1,2.2l0.1,2.2l0.1,2.2
		l0.1,2.2l0,1.4l0,1.4l0,1.4c0,0,0,1.4,0,1.4s0,1.4,0,1.4l0,1.4c0,0,0,1.4,0,1.4l0,1.4l0,1.4l0,1.4l0,1.4l0,1.4l0,2.9
		c0,0,0,2.9,0,2.9l0,2.7l0,2.7c0,0,0,2.7,0,2.7l0,2.7C125.4,96.6,127.8,98.2,130.1,99.9"/>
</g>
<g id="POLYLINE_740_">
	<path class="st1" d="M44.7,33.4l-1,0l-1.2-0.1l-1.2-0.1l-1.2-0.1L38.9,33L37.7,33l-1.2-0.1c0,0-1.2-0.1-1.2-0.1s-1.2-0.1-1.2-0.1
		l-1.2-0.1l-1.2-0.1l-2.4-0.2l-4.8-0.5L22,31.5l-1.2-0.1c0,0-1.2-0.1-1.2-0.1l-1.2-0.1c0,0-1.2-0.1-1.2-0.1L16,31l-1.2-0.1l-1.2-0.1
		l-1.2-0.1l-1.2-0.1l-1.2-0.1l-1.2-0.1c0,0-1.2-0.1-1.2-0.1s-0.6,0-0.6,0s-0.6,0-0.6,0l-0.6,0l-0.7,0c0,0-0.1,0-0.1,0l-0.1,0
		c0,0-0.1,0-0.1,0s-0.1,0-0.1,0l-0.1,0l-0.1,0l-0.1,0c0,0-0.1,0-0.1,0s-0.1,0-0.1,0s-0.1,0-0.1,0l-0.1,0l-0.1,0l-0.1,0l-0.1,0
		c0,0-0.1,0-0.1,0l-0.1,0l-0.1,0c0,0-0.1,0-0.1,0l-0.1,0l-0.1,0c0,0-0.1,0-0.1,0l-0.1,0l-0.1,0L2.8,31l-0.1,0.1c0,0-0.1,0.1-0.1,0.1
		l-0.1,0.1l-0.1,0.1l-0.1,0.1c0,0-0.1,0.1-0.1,0.1s-0.1,0.1-0.1,0.1s-0.1,0.1-0.1,0.1l-0.1,0.1l-0.1,0.1L2,31.7l-0.1,0.1l-0.1,0.1
		l-0.1,0.1L1.7,32l-0.1,0.1l-0.1,0.1l-0.1,0.1c0,0-0.1,0.1-0.1,0.1l-0.1,0.1c0,0,0,0.1,0,0.1s0,0.1,0,0.1s0,0.1,0,0.1l0,0.1l0,0.1
		c0,0,0,0.1,0,0.1l0,0.1l0,0.1c0,0,0,0.1,0,0.1l0,0.1l0,0.1l0,0.1l0,0.1c0,0,0,0.1,0,0.1l0,0.1l0,0.1l0,0.1l0,0.1l0,0.1L0.8,35
		l-0.1,0.8c0,0-0.1,0.8-0.1,0.8s-0.1,0.8-0.1,0.8s-0.1,0.8-0.1,0.8l0,0.8l0,0.8l0,0.8c0,0,0,0.8,0,0.8s0,0.8,0,0.8s0,0.8,0,0.8
		l0,0.8l0,0.8c0,0,0,0.8,0,0.8l0,0.8l0,0.8l0,0.8l0,0.8l0,0.8l0,0.8l0,0.8l0,0.8L0.7,53l0.1,0.8c0,0,0.1,0.8,0.1,0.8
		s0.1,0.8,0.1,0.8l0.1,0.8L1,56.9l0.1,0.8l0.1,0.8l0.1,0.8L1.3,60l0.1,0.8l0.1,0.8l0.1,0.8c0,0,0.1,0.8,0.1,0.8l0.2,1.5L2,66
		l0.2,1.5c0,0,0.2,1.5,0.2,1.5L3,73.5c0,0,0.2,1.5,0.2,1.5l0.2,1.5c0,0,0.2,1.5,0.2,1.5l0.2,1.4c0,0,0.1,0.7,0.1,0.7S4,80.7,4,80.7
		L4,81.4l0.1,0.7c0,0,0.1,0.7,0.1,0.7s0.1,0.7,0.1,0.7l0.1,0.6c0,0,0.1,0.6,0.1,0.6s0.1,1.1,0.1,1.1S4.5,87,4.5,87l0.1,1.1l0.1,1.1
		l0.1,1.1c0,0,0.1,1.1,0.1,1.1s0,1.1,0,1.1l0,1.1l0,1.1l0,1.1L5,97c0,0,0,1.1,0,1.1s0,1.1,0,1.1l0,1.1c0,0,0,1.1,0,1.1l0,1.1l0,1.1
		c0,0,0,1.1,0,1.1l0,1.1l0,2.3l0,6.9l0,2.4l0,2.4c0,0,0,1.3,0,1.3l0,1.3l0,1.3l0,1.3l0,1.3l0,0.7l0,0.7l0,0.7l0,0.7l0,0.7
		c0,0,0,0.7,0,0.7l0,0.7c0,0,0,0.7,0,0.7l0,0.7c0,0,0,0.7,0,0.7l0,0.7l0,0.7l0,0.7l0.1,0.7c0,0,0.1,0.7,0.1,0.7s0.1,0.7,0.1,0.7
		s0.1,0.7,0.1,0.7l0.1,0.7l0.1,0.7l0.1,0.6l0.1,0.6c0,0,0.1,0.6,0.1,0.6s0.1,0.6,0.1,0.6l0.1,0.6l0.1,0.6l0.1,0.6
		c0,0,0.1,0.6,0.1,0.6s0.1,0.6,0.1,0.6l0.1,0.6l0.1,0.6l0.1,0.6l0.1,0.6c0,0,0.1,0.6,0.1,0.6l0.2,0.6c0,0,0.2,0.6,0.2,0.6
		s0.2,0.6,0.2,0.6l0.2,0.6l0.2,0.6c0,0,0.1,0.3,0.1,0.3l0.1,0.3l0.1,0.3l0.1,0.3l0.1,0.3l0.1,0.3l0.1,0.3l0.1,0.3l0.1,0.3l0.1,0.3
		l0.1,0.3l0.1,0.3c0,0,0.1,0.3,0.1,0.3l0.1,0.3l0.1,0.3l0.1,0.3c0,0,0.1,0.3,0.1,0.3l0.1,0.3c0,0,0.1,0.3,0.1,0.3l0.1,0.3l0.1,0.3
		l0.1,0.3l0.1,0.3c0,0,0.1,0.3,0.1,0.3l0.1,0.3l0.1,0.3c0,0,0.1,0.3,0.1,0.3l0.1,0.3c0,0,0.1,0.2,0.1,0.2s0.2,0.2,0.2,0.2
		s0.2,0.2,0.2,0.2l0.2,0.2l0.2,0.3l0.2,0.3l0.2,0.3c0,0,0.2,0.3,0.2,0.3l0.2,0.3l0.2,0.3l0.2,0.3c0,0,0.2,0.3,0.2,0.3l0.2,0.3
		l0.2,0.3l0.2,0.3l0.2,0.3l0.2,0.2l0.2,0.2l0.2,0.2l0.2,0.2l0.2,0.2c0,0,0.2,0.2,0.2,0.2s0.2,0.2,0.2,0.2s0.2,0.2,0.2,0.2l0.2,0.2
		l0.2,0.2l0.2,0.2l0.2,0.2l0.3,0.2l0.3,0.2c0,0,0.3,0.2,0.3,0.2l0.3,0.2l0.3,0.2l0.3,0.2l0.3,0.2l0.3,0.2l0.3,0.2l0.3,0.2
		c0,0,0.3,0.2,0.3,0.2l0.3,0.2l0.3,0.2l0.3,0.2l0.3,0.2l0.3,0.2l0.3,0.2l0.3,0.2l0.3,0.2l0.3,0.2l0.3,0.2c0,0,0.3,0.2,0.3,0.2
		l0.3,0.2l0.3,0.2l0.3,0.2l0.3,0.2l0.3,0.2l0.3,0.2l0.3,0.1L26,171l0.3,0.1l0.3,0.1l0.3,0.1l0.3,0.1c0,0,0.3,0.1,0.3,0.1l0.3,0.1
		l0.3,0.1c0,0,0.3,0.1,0.3,0.1s0.3,0.1,0.3,0.1s0.3,0.1,0.3,0.1l0.3,0.1l0.3,0.1l0.3,0.1l0.3,0.1l0.3,0.1l0.3,0.1l0.3,0.1l0.3,0.1
		l0.3,0.1l0.3,0.1c0,0,0.3,0.1,0.3,0.1s0.4,0.1,0.4,0.1s0.4,0.1,0.4,0.1l0.4,0.1l0.4,0.1c0,0,0.4,0.1,0.4,0.1l0.4,0.1l0.4,0.1
		l0.4,0.1l0.4,0.1l0.7,0.1l0.7,0.1l0.7,0.1l0.7,0.1l0.7,0.1l0.7,0.1l0.7,0.1l0.7,0.1l0.7,0.1l0.7,0.1l0.7,0.1l0.7,0.1l0.7,0.1
		c0,0,0.7,0.1,0.7,0.1s0.7,0.1,0.7,0.1l0.7,0.1l0.7,0.1l0.7,0.1l0.7,0l0.7,0l0.7,0l0.7,0l1.1,0.1c0,0,1,0,1,0s1,0,1,0s1,0,1,0
		s1,0,1,0l1,0c0,0,1,0,1,0l1,0l1,0l1,0l2,0l2,0c0,0,2,0,2,0l4,0.1l2,0c0,0,2,0,2,0s2,0,2,0l1,0l1,0c0,0,1,0,1,0l1,0l1,0l1,0l2.9,0.1
		L89,177l0.7,0l0.7,0l0.7,0l0.7,0c0,0,0.7,0,0.7,0l0.7,0c0,0,0.7,0,0.7,0s0.7,0,0.7,0s0.7,0,0.7,0l0.7,0c0,0,0.4,0,0.4,0l0.4,0
		l0.4,0l0.4,0l0.4,0l0.4,0l0.4,0l0.4,0l0.4,0l0.4,0l0.4,0l0.4,0l0.4,0l0.4,0l0.4-0.1l0.4-0.1c0,0,0.4-0.1,0.4-0.1l0.4-0.1l0.4-0.1
		l0.4-0.1l0.4-0.1l0.3-0.1l0.3-0.1l0.3-0.1l0.3-0.1l0.3-0.1l0.3-0.1l0.3-0.1c0,0,0.3-0.1,0.3-0.1l0.3-0.1l0.3-0.1l0.3-0.1l0.3-0.1
		l0.3-0.1l0.3-0.1l0.3-0.1l0.3-0.1l0.3-0.1l0.3-0.1l0.3-0.1l0.3-0.2l0.3-0.2c0,0,0.3-0.2,0.3-0.2l0.3-0.2l0.3-0.2
		c0,0,0.3-0.2,0.3-0.2l0.3-0.2l0.3-0.2l0.3-0.2l0.3-0.2l0.3-0.2l0.3-0.2l0.3-0.2c0,0,0.3-0.2,0.3-0.2l0.3-0.2l0.3-0.2
		c0,0,0.3-0.2,0.3-0.2l0.3-0.2c0,0,0.3-0.2,0.3-0.2s0.3-0.2,0.3-0.2l0.3-0.2l0.3-0.2c0,0,0.3-0.2,0.3-0.2l0.3-0.2
		c0,0,0.3-0.2,0.3-0.2l0.3-0.2l0.3-0.2l0.3-0.2l0.2-0.2l0.2-0.3l0.2-0.3l0.2-0.3l0.2-0.3l0.2-0.3l0.2-0.3l0.2-0.3l0.2-0.3l0.2-0.3
		l0.2-0.3l0.2-0.3l0.2-0.3l0.2-0.3c0,0,0.2-0.3,0.2-0.3l0.2-0.3l0.2-0.3c0,0,0.2-0.3,0.2-0.3l0.2-0.3l0.2-0.3l0.2-0.3l0.2-0.3
		l0.2-0.3c0,0,0.2-0.3,0.2-0.3l0.2-0.3l0.2-0.3l0.2-0.3l0.2-0.3l0.1-0.3l0.1-0.3c0,0,0.1-0.3,0.1-0.3l0.1-0.3c0,0,0.1-0.3,0.1-0.3
		l0.1-0.3l0.1-0.3c0,0,0.1-0.3,0.1-0.3l0.1-0.3l0.1-0.3l0.1-0.3l0.1-0.3l0.1-0.3l0.1-0.3l0.1-0.3l0.1-0.3l0.1-0.3l0.1-0.3l0.1-0.3
		l0.1-0.3l0.1-0.3l0.1-0.3l0.1-0.3l0.1-0.3l0.1-0.3l0.1-0.3l0.1-0.3l0.1-0.3l0.1-0.6l0.1-0.6l0.1-0.6l0.1-0.6l0.1-0.6
		c0,0,0.1-0.6,0.1-0.6l0.1-0.6l0.1-0.6l0.1-0.6l0.1-0.6l0.1-0.6l0.1-0.6l0-0.6l0-0.6l0-0.6l0-0.6c0,0,0-0.6,0-0.6s0-0.6,0-0.6
		s-0.4,0.2-0.4,0.2s-0.4,0.2-0.4,0.2l-0.4,0.2l-0.4,0.2c0,0-0.4,0.2-0.4,0.2s-0.4,0.2-0.4,0.2l-0.4,0.2l-0.4,0.2l-0.3,0.1l-0.3,0.1
		l-0.3,0.1l-0.3,0.1L123,144l-0.3,0.1c0,0-0.3,0.1-0.3,0.1l-0.3,0.1l0,0.7l0,0.7c0,0-0.1,0.7-0.1,0.7l-0.1,0.7l-0.1,0.6l-0.1,0.6
		l-0.1,0.6c0,0-0.1,0.6-0.1,0.6l-0.1,0.6l0,0.3l-0.1,0.3l-0.1,0.3l-0.1,0.3l-0.1,0.3l-0.1,0.3l-0.1,0.3c0,0-0.1,0.3-0.1,0.3
		l-0.1,0.3l-0.1,0.3l-0.1,0.3l-0.1,0.3l-0.1,0.3l-0.1,0.3l-0.1,0.3l-0.1,0.3c0,0-0.1,0.3-0.1,0.3l-0.1,0.3l-0.1,0.3l-0.1,0.3
		c0,0-0.1,0.3-0.1,0.3l-0.1,0.3l-0.1,0.3l-0.1,0.3l-0.1,0.3l-0.1,0.3l-0.1,0.3c0,0-0.1,0.3-0.1,0.3l-0.1,0.3l-0.1,0.3l-0.1,0.3
		l-0.1,0.3l-0.1,0.3l-0.2,0.3l-0.2,0.3l-0.2,0.3l-0.2,0.3l-0.2,0.3l-0.1,0.2l-0.1,0.2l-0.2,0.2l-0.2,0.2l-0.2,0.2l-0.2,0.2l-0.2,0.2
		c0,0-0.2,0.2-0.2,0.2l-0.2,0.2l-0.2,0.2l-0.2,0.2l-0.2,0.2l-0.2,0.2l-0.2,0.2l-0.2,0.2c0,0-0.2,0.2-0.2,0.2l-0.2,0.2l-0.2,0.2
		l-0.2,0.2l-0.2,0.2l-0.2,0.2l-0.2,0.2l-0.2,0.2l-0.2,0.2l-0.2,0.2l-0.2,0.2l-0.2,0.2l-0.2,0.2l-0.2,0.2l-0.2,0.2l-0.2,0.2l-0.2,0.2
		c0,0-0.2,0.2-0.2,0.2l-0.2,0.1c0,0-0.2,0.1-0.2,0.1l-0.2,0.1l-0.2,0.1l-0.2,0.1l-0.2,0.1l-0.2,0.1l-0.2,0.1l-0.2,0.1l-0.2,0.1
		l-0.2,0.1l-0.2,0.1l-0.2,0.1l-0.2,0.1l-0.2,0.1l-0.3,0.1l-0.3,0.1l-0.3,0.1l-0.3,0.1l-0.3,0.1l-0.3,0.1l-0.3,0.1l-0.3,0.1l-0.3,0.1
		l-0.3,0.1l-0.3,0.1l-0.3,0.1l-0.3,0.1l-0.3,0.1l-0.3,0l-0.3,0l-0.3,0c0,0-0.3,0-0.3,0s-0.3,0-0.3,0l-0.3,0c0,0-0.3,0-0.3,0l-0.3,0
		l-0.3,0l-0.3,0l-0.3,0l-0.3,0l-0.3,0l-0.3,0l-0.3,0l-0.3,0l-0.3,0l-0.3,0l-0.5,0l-0.5,0l-0.5,0l-0.5,0l-0.6,0l-0.6,0l-0.6,0l-0.6,0
		l-0.8-0.1c0,0-0.8-0.1-0.8-0.1l-0.6-0.1l-0.6-0.1l-1.2-0.1l-1.2-0.1l-2.9-0.3l-0.9-0.1l-0.9-0.1c0,0-1-0.1-1-0.1l-1-0.1
		c0,0-1-0.1-1-0.1l-1-0.1c0,0-1-0.1-1-0.1l-1-0.1c0,0-1.3-0.1-1.3-0.1l-1.3-0.1l-1.3-0.1l-1.3-0.1c0,0-1.3-0.1-1.3-0.1l-1.3-0.1
		l-1.3-0.1l-1.3,0c0,0-1.5,0-1.5,0s-1.5,0-1.5,0s-1.5,0-1.5,0l-1.5,0l-3.1-0.1l-3.1-0.1l-1.9,0l-1.9,0l-1.2,0l-1.2,0l-1.2,0l-1.2,0
		l-0.7,0l-0.7,0l-0.7,0l-0.7,0l-0.7,0l-0.7,0l-0.7-0.1l-0.7-0.1c0,0-0.8-0.1-0.8-0.1l-0.8-0.1l-0.8-0.1l-0.8-0.1l-0.6-0.1l-0.6-0.1
		l-0.6-0.1l-0.6-0.1l-0.6-0.1l-0.6-0.1l-0.6-0.1l-0.6-0.1c0,0-0.4-0.1-0.4-0.1l-0.4-0.1l-0.4-0.1l-0.4-0.1l-0.4-0.1l-0.4-0.1
		l-0.4-0.1l-0.4-0.1c0,0-0.5-0.1-0.5-0.1l-0.5-0.2L29,165l-0.5-0.2l-0.5-0.2l-0.5-0.2c0,0-0.5-0.2-0.5-0.2l-0.2-0.1l-0.2-0.1
		c0,0-0.2-0.1-0.2-0.1l-0.2-0.1c0,0-0.2-0.1-0.2-0.1l-0.2-0.1l-0.2-0.1l-0.2-0.1l-0.2-0.1c0,0-0.2-0.1-0.2-0.1l-0.2-0.1l-0.2-0.1
		l-0.2-0.1l-0.2-0.1l-0.2-0.1c0,0-0.2-0.1-0.2-0.1l-0.2-0.1c0,0-0.2-0.1-0.2-0.1l-0.2-0.1l-0.2-0.1l-0.2-0.1l-0.2-0.1l-0.2-0.1
		c0,0-0.2-0.1-0.2-0.1l-0.2-0.1l-0.2-0.2l-0.2-0.2l-0.2-0.2l-0.2-0.2l-0.2-0.2l-0.2-0.2c0,0-0.2-0.2-0.2-0.2l-0.2-0.2l-0.2-0.2
		l-0.2-0.2l-0.2-0.2l-0.2-0.2l-0.2-0.2l-0.2-0.2l-0.2-0.2l-0.2-0.2l-0.2-0.2l-0.1-0.2c0,0-0.1-0.2-0.1-0.2l-0.1-0.2l-0.1-0.2
		c0,0-0.1-0.2-0.1-0.2s-0.1-0.2-0.1-0.2s-0.1-0.2-0.1-0.2l-0.1-0.2l-0.1-0.2l-0.1-0.2l-0.1-0.2l-0.1-0.2l-0.1-0.2
		c0,0-0.1-0.2-0.1-0.2s-0.1-0.2-0.1-0.2l-0.1-0.2c0,0-0.2-0.3-0.2-0.3l-0.1-0.3l-0.1-0.3l-0.1-0.3l-0.1-0.3c0,0-0.1-0.3-0.1-0.3
		s-0.1-0.3-0.1-0.3l-0.1-0.3c0,0-0.1-0.2-0.1-0.2l-0.1-0.2l-0.1-0.2l-0.1-0.2c0,0-0.1-0.2-0.1-0.2l-0.1-0.2l-0.1-0.2l-0.1-0.2
		l-0.1-0.2l-0.1-0.2l-0.2-0.5l-0.2-0.5l-0.1-0.5c0,0-0.1-0.5-0.1-0.5l-0.1-0.5l-0.1-0.5l-0.1-0.5c0,0-0.1-0.5-0.1-0.5l-0.1-0.5
		l-0.1-0.5l-0.1-0.5l-0.1-0.5c0,0-0.1-0.5-0.1-0.5s-0.1-0.5-0.1-0.5l-0.1-0.5l-0.1-0.5l-0.1-0.5c0,0-0.1-0.5-0.1-0.5
		s-0.1-0.5-0.1-0.5l0-0.4l0-0.4l0-0.4l0-0.4l0-0.4l0-0.4l-0.1-0.8l0-0.6l0-0.6l0-0.6l0-0.6c0,0,0-0.6,0-0.6l0-0.6c0,0,0-0.6,0-0.6
		s0-0.6,0-0.6l0-0.8l0-0.8l0-0.8l0-0.8l0-1l0-1l0-1l0-1l0-2l0-3.8l0-1.8l0-1.4l0-1.4l0-1.4l0-1.4c0,0,0-1.4,0-1.4s0-1.4,0-1.4
		s0-2,0-2s0-1,0-1l0-1c0,0,0-1,0-1l0-1c0,0,0-1,0-1s0-1,0-1l0-1l0-1l0-1c0,0,0-1,0-1s0-1,0-1s0-1,0-1s0-1,0-1s0-1,0-1l-0.1-1l-0.1-1
		l-0.1-1l-0.1-1l-0.1-1l-0.1-1c0,0-0.1-1-0.1-1l-0.1-1c0,0-0.1-1.6-0.1-1.6l-0.1-1.6L10.5,81l-0.1-1.6L10.3,78l-0.1-1.3L10,75.3
		L9.9,74l-0.3-2.9c0,0-0.6-5.7-0.6-5.7s-0.3-2.9-0.3-2.9s-0.2-1.9-0.2-1.9l-0.2-1.9l-0.2-1.9c0,0-0.1-1-0.1-1s-0.1-1-0.1-1l-0.1-1
		l-0.1-1l-0.1-1l-0.1-1l-0.1-1l-0.1-1l-0.1-1l-0.1-1l-0.1-1c0,0-0.1-1-0.1-1l-0.1-1l0-1c0,0,0-0.1,0-0.1s0-0.1,0-0.1l0-0.1l0-0.1
		l0-0.1l0-0.1l0-0.1c0,0,0-0.1,0-0.1s0-0.1,0-0.1s0-0.1,0-0.1s0-0.1,0-0.1l0-0.1l0-0.1c0,0,0-0.1,0-0.1s0-0.1,0-0.1s0-0.1,0-0.1
		s0-0.1,0-0.1l0-0.1l0-0.1c0,0,0-0.1,0-0.1s0-0.1,0-0.1l0.1-0.1l0.1-0.1L7.7,41l0.1-0.1c0,0,0.1-0.1,0.1-0.1l0.1-0.1l0.1-0.1L8,40.6
		l0.1-0.1l0.1-0.1l0.1-0.1l0.1-0.1l0.1-0.1l0.1-0.1c0,0,0.1-0.1,0.1-0.1S8.6,40,8.6,40S8.7,40,8.7,40s0.1-0.1,0.1-0.1
		s0.1-0.1,0.1-0.1l0.1-0.1c0,0,0.1-0.1,0.1-0.1l0.1-0.1l0.1-0.1l0.1-0.1l0.1,0l0.1,0l0.1,0c0,0,0.1,0,0.1,0l0.1,0c0,0,0.1,0,0.1,0
		l0.1,0l0.1,0l0.1,0l0.1,0l0.1,0l0.1,0l0.1,0l0.1,0l0.1,0l0.1,0l0.1,0l0.1,0l0.1,0c11.2,0,22.4,0,33.7,0c0,0,0-0.7,0-0.7
		s0-0.7,0-0.7s0-0.7,0-0.7l0-0.7l0-0.7c0,0,0-0.7,0-0.7s0-0.7,0-0.7L44.7,33.4"/>
</g>
<g id="HATCH_382_">
	<polygon class="st2" points="99.7,80 99.7,80.2 99.7,80.4 99.6,80.6 99.6,80.8 99.6,81.1 99.6,81.3 99.6,81.5 99.6,81.7 99.6,81.9 
		99.6,82.1 99.6,82.3 99.6,82.5 99.6,82.9 99.6,83.4 99.7,83.8 99.7,84.2 99.8,84.6 99.8,85 99.9,85.4 99.9,85.9 100,86.3 
		100.1,86.7 100.1,87.1 100.2,87.5 100.3,87.9 100.4,88.3 100.5,88.7 100.6,89.1 100.8,90 101.6,93.2 101.8,94.2 102,95.1 102.2,96 
		102.4,97 103.3,100.7 103.7,102.7 104.1,104.6 105,108.4 105.9,112.4 106.8,116.4 108.1,122.3 108.5,124.3 109.4,128.3 
		109.9,130.4 110.1,131.4 110.4,132.4 111.3,136.2 111.5,137.2 111.7,138.1 111.9,139.1 112,139.5 112.1,140 112.2,140.5 112.3,141 
		112.4,141.5 112.4,141.9 112.5,142.4 112.6,142.9 112.7,143.4 112.8,143.9 112.8,144.3 112.9,144.8 112.9,145.3 113,145.8 
		113,146.3 113.1,146.8 113.1,147.3 113.1,147.8 113.3,147.7 113.6,147.5 113.9,147.4 114.3,147.2 114.6,147 114.9,146.9 
		115.3,146.7 115.6,146.6 116,146.5 116.3,146.3 116.7,146.2 117,146.1 117.4,145.9 118.1,145.7 118.8,145.5 120.2,145 120.9,144.7 
		121.6,144.5 122,144.4 122.3,144.2 122.7,144.1 123,144 123.4,143.8 123.7,143.7 124.1,143.5 124.4,143.4 124.7,143.2 125.1,143.1 
		125.4,142.9 125.8,142.7 126.1,142.6 126.4,142.4 126.8,142.2 127.1,142 127.4,141.8 127.7,141.7 128.1,141.5 128.4,141.3 
		129,140.9 129.7,140.5 130.3,140.1 132.2,138.9 132.9,138.5 133.5,138.1 134.2,137.7 134.5,137.5 134.8,137.3 134.9,137.5 
		135,137.7 135.1,138 135.3,138.2 135.4,138.4 135.5,138.6 135.6,138.9 135.6,139.1 135.7,139.3 135.8,139.5 136,140 136.2,140.5 
		136.3,140.9 136.5,141.4 137.1,143.2 137.3,143.7 137.4,144.2 137.6,144.6 137.7,145 137.9,145.4 138,145.7 138.2,146.1 
		138.3,146.5 138.5,146.8 138.6,147.2 138.8,147.5 139,147.9 139.1,148.2 139.3,148.6 139.5,148.9 139.7,149.3 139.8,149.6 
		140.2,150.3 140.4,150.8 140.7,151.2 141.6,153 142.1,153.8 142.3,154.3 142.5,154.7 142.8,155.1 143,155.6 143.2,156 143.4,156.5 
		143.6,156.9 143.8,157.4 144,157.7 144.1,158 144.7,159.4 145,160 145.1,160.3 145.3,160.7 145.4,161 145.6,161.3 145.7,161.6 
		145.9,162 146.1,162.3 146.2,162.6 146.4,162.8 146.5,163.1 146.7,163.3 146.8,163.5 147.1,164 147.5,164.5 147.8,164.9 
		147.9,165.1 148.1,165.4 148.2,165.6 148.4,165.9 148.5,166.1 148.6,166.3 148.7,166.3 148.8,166.3 148.9,166.2 149,166.2 
		149,166.2 149.1,166.2 149.2,166.1 149.4,166 149.5,166 149.6,165.9 149.8,165.8 149.9,165.7 150,165.6 150.2,165.5 150.3,165.4 
		150.4,165.3 150.6,165.2 150.7,165.1 150.8,165 151,164.9 151.1,164.7 151.2,164.6 151.5,164.3 151.8,164.1 152,163.8 152.3,163.5 
		152.6,163.2 152.8,162.9 153.1,162.6 154,161.5 154.2,161.2 154.5,161 154.7,160.7 154.8,160.6 154.9,160.4 155.1,160.3 
		155.2,160.2 155.3,160.1 155.4,160 155.5,159.9 155.7,159.8 155.8,159.7 155.9,159.6 156,159.5 156.2,159.4 156.3,159.3 
		156.4,159.2 156.6,159.2 156.6,159.1 156.7,159.1 156.8,159.1 156.8,159 156.9,159 157,159 156.9,158.8 156.7,158.6 156.6,158.5 
		156.5,158.3 156.2,158 155.7,157.4 155.4,157.1 155.3,156.9 155.1,156.8 155,156.6 154.9,156.5 154.7,156.3 154.6,156.1 
		154.5,155.9 154.3,155.7 154.2,155.5 154.1,155.3 154,155.1 153.8,154.9 153.6,154.5 152.9,153.3 152.6,152.8 152.3,152.2 
		152,151.7 151.6,151.2 151.3,150.7 151,150.2 150.6,149.7 150.3,149.2 149.8,148.6 148.5,146.6 148,146 147.6,145.3 147.3,145 
		147.1,144.6 146.9,144.3 146.7,144 146.5,143.7 146.3,143.4 146.1,143.1 145.9,142.8 145.8,142.5 145.6,142.2 145.2,141.5 
		144.9,140.9 144.5,140.3 144.2,139.7 142.8,137.1 142.5,136.5 142.1,135.9 141.8,135.3 141.4,134.6 141,134 141.8,133.6 
		142.6,133.2 143,133 143.3,132.8 143.7,132.6 144.1,132.4 144.5,132.2 144.8,132 145.2,131.8 145.6,131.6 145.9,131.3 146.3,131.1 
		146.7,130.9 147,130.6 147.4,130.4 147.7,130.2 148,129.9 148.4,129.7 148.7,129.4 149,129.2 149.4,128.9 149.7,128.7 150,128.4 
		150.3,128.2 150.6,127.9 151,127.6 151.6,127.1 152.2,126.6 152.9,126 154.7,124.4 155.4,123.8 156,123.3 156.6,122.8 157,122.5 
		157.3,122.2 156.9,121.8 156.4,121.4 156,121 155.6,120.5 155.1,120.1 154.7,119.7 154.3,119.3 153.8,118.9 153.4,118.5 153,118.1 
		152.5,117.7 152.1,117.2 151.6,116.8 151.2,116.4 150.7,116 150.3,115.6 149.8,115.2 149.4,114.8 148.9,114.4 148.4,114 
		147.5,113.3 146.6,112.5 145.7,111.7 144.7,110.9 143.8,110.2 142.8,109.4 141.9,108.7 140.9,107.9 140,107.2 139,106.4 138,105.7 
		137,105 136.1,104.2 135.1,103.5 134.1,102.8 133.1,102.1 132.2,101.3 131.2,100.6 130.2,99.9 129.2,99.2 128.2,98.5 127.2,97.8 
		125.7,96.8 124.3,95.8 122.8,94.8 121.3,93.7 119.9,92.7 118.4,91.7 116.9,90.8 116.2,90.3 115.4,89.8 114.7,89.3 113.9,88.8 
		113.2,88.3 112.4,87.8 111.7,87.4 110.9,86.9 110.2,86.4 109.4,85.9 108.7,85.4 107.9,85 107.1,84.5 106.4,84 105.6,83.6 
		104.8,83.1 104.1,82.6 103.3,82.2 102.4,81.6 101.5,81.1 101,80.8 100.6,80.6 100.1,80.3 	"/>
</g>
<g id="POLYLINE_741_">
	<polyline class="st3" points="99.7,80 99.7,80.2 99.7,80.4 99.6,80.6 99.6,80.8 99.6,81.1 99.6,81.3 99.6,81.5 99.6,81.7 
		99.6,81.9 99.6,82.1 99.6,82.3 99.6,82.5 99.6,82.9 99.6,83.4 99.7,83.8 99.7,84.2 99.8,84.6 99.8,85 99.9,85.4 99.9,85.9 
		100,86.3 100.1,86.7 100.1,87.1 100.2,87.5 100.3,87.9 100.4,88.3 100.5,88.7 100.6,89.1 100.8,90 101.6,93.2 101.8,94.2 102,95.1 
		102.2,96 102.4,97 103.3,100.7 103.7,102.7 104.1,104.6 105,108.4 105.9,112.4 106.8,116.4 108.1,122.3 108.5,124.3 109.4,128.3 
		109.9,130.4 110.1,131.4 110.4,132.4 111.3,136.2 111.5,137.2 111.7,138.1 111.9,139.1 112,139.5 112.1,140 112.2,140.5 112.3,141 
		112.4,141.5 112.4,141.9 112.5,142.4 112.6,142.9 112.7,143.4 112.8,143.9 112.8,144.3 112.9,144.8 112.9,145.3 113,145.8 
		113,146.3 113.1,146.8 113.1,147.3 113.1,147.8 113.3,147.7 113.6,147.5 113.9,147.4 114.3,147.2 114.6,147 114.9,146.9 
		115.3,146.7 115.6,146.6 116,146.5 116.3,146.3 116.7,146.2 117,146.1 117.4,145.9 118.1,145.7 118.8,145.5 120.2,145 120.9,144.7 
		121.6,144.5 122,144.4 122.3,144.2 122.7,144.1 123,144 123.4,143.8 123.7,143.7 124.1,143.5 124.4,143.4 124.7,143.2 125.1,143.1 
		125.4,142.9 125.8,142.7 126.1,142.6 126.4,142.4 126.8,142.2 127.1,142 127.4,141.8 127.7,141.7 128.1,141.5 128.4,141.3 
		129,140.9 129.7,140.5 130.3,140.1 132.2,138.9 132.9,138.5 133.5,138.1 134.2,137.7 134.5,137.5 134.8,137.3 134.9,137.5 
		135,137.7 135.1,138 135.3,138.2 135.4,138.4 135.5,138.6 135.6,138.9 135.6,139.1 135.7,139.3 135.8,139.5 136,140 136.2,140.5 
		136.3,140.9 136.5,141.4 137.1,143.2 137.3,143.7 137.4,144.2 137.6,144.6 137.7,145 137.9,145.4 138,145.7 138.2,146.1 
		138.3,146.5 138.5,146.8 138.6,147.2 138.8,147.5 139,147.9 139.1,148.2 139.3,148.6 139.5,148.9 139.7,149.3 139.8,149.6 
		140.2,150.3 140.4,150.8 140.7,151.2 141.6,153 142.1,153.8 142.3,154.3 142.5,154.7 142.8,155.1 143,155.6 143.2,156 143.4,156.5 
		143.6,156.9 143.8,157.4 144,157.7 144.1,158 144.7,159.4 145,160 145.1,160.3 145.3,160.7 145.4,161 145.6,161.3 145.7,161.6 
		145.9,162 146.1,162.3 146.2,162.6 146.4,162.8 146.5,163.1 146.7,163.3 146.8,163.5 147.1,164 147.5,164.5 147.8,164.9 
		147.9,165.1 148.1,165.4 148.2,165.6 148.4,165.9 148.5,166.1 148.6,166.3 148.7,166.3 148.8,166.3 148.9,166.2 149,166.2 
		149,166.2 149.1,166.2 149.2,166.1 149.4,166 149.5,166 149.6,165.9 149.8,165.8 149.9,165.7 150,165.6 150.2,165.5 150.3,165.4 
		150.4,165.3 150.6,165.2 150.7,165.1 150.8,165 151,164.9 151.1,164.7 151.2,164.6 151.5,164.3 151.8,164.1 152,163.8 152.3,163.5 
		152.6,163.2 152.8,162.9 153.1,162.6 154,161.5 154.2,161.2 154.5,161 154.7,160.7 154.8,160.6 154.9,160.4 155.1,160.3 
		155.2,160.2 155.3,160.1 155.4,160 155.5,159.9 155.7,159.8 155.8,159.7 155.9,159.6 156,159.5 156.2,159.4 156.3,159.3 
		156.4,159.2 156.6,159.2 156.6,159.1 156.7,159.1 156.8,159.1 156.8,159 156.9,159 157,159 156.9,158.8 156.7,158.6 156.6,158.5 
		156.5,158.3 156.2,158 155.7,157.4 155.4,157.1 155.3,156.9 155.1,156.8 155,156.6 154.9,156.5 154.7,156.3 154.6,156.1 
		154.5,155.9 154.3,155.7 154.2,155.5 154.1,155.3 154,155.1 153.8,154.9 153.6,154.5 152.9,153.3 152.6,152.8 152.3,152.2 
		152,151.7 151.6,151.2 151.3,150.7 151,150.2 150.6,149.7 150.3,149.2 149.8,148.6 148.5,146.6 148,146 147.6,145.3 147.3,145 
		147.1,144.6 146.9,144.3 146.7,144 146.5,143.7 146.3,143.4 146.1,143.1 145.9,142.8 145.8,142.5 145.6,142.2 145.2,141.5 
		144.9,140.9 144.5,140.3 144.2,139.7 142.8,137.1 142.5,136.5 142.1,135.9 141.8,135.3 141.4,134.6 141,134 141.8,133.6 
		142.6,133.2 143,133 143.3,132.8 143.7,132.6 144.1,132.4 144.5,132.2 144.8,132 145.2,131.8 145.6,131.6 145.9,131.3 146.3,131.1 
		146.7,130.9 147,130.6 147.4,130.4 147.7,130.2 148,129.9 148.4,129.7 148.7,129.4 149,129.2 149.4,128.9 149.7,128.7 150,128.4 
		150.3,128.2 150.6,127.9 151,127.6 151.6,127.1 152.2,126.6 152.9,126 154.7,124.4 155.4,123.8 156,123.3 156.6,122.8 157,122.5 
		157.3,122.2 156.9,121.8 156.4,121.4 156,121 155.6,120.5 155.1,120.1 154.7,119.7 154.3,119.3 153.8,118.9 153.4,118.5 153,118.1 
		152.5,117.7 152.1,117.2 151.6,116.8 151.2,116.4 150.7,116 150.3,115.6 149.8,115.2 149.4,114.8 148.9,114.4 148.4,114 
		147.5,113.3 146.6,112.5 145.7,111.7 144.7,110.9 143.8,110.2 142.8,109.4 141.9,108.7 140.9,107.9 140,107.2 139,106.4 138,105.7 
		137,105 136.1,104.2 135.1,103.5 134.1,102.8 133.1,102.1 132.2,101.3 131.2,100.6 130.2,99.9 129.2,99.2 128.2,98.5 127.2,97.8 
		125.7,96.8 124.3,95.8 122.8,94.8 121.3,93.7 119.9,92.7 118.4,91.7 116.9,90.8 116.2,90.3 115.4,89.8 114.7,89.3 113.9,88.8 
		113.2,88.3 112.4,87.8 111.7,87.4 110.9,86.9 110.2,86.4 109.4,85.9 108.7,85.4 107.9,85 107.1,84.5 106.4,84 105.6,83.6 
		104.8,83.1 104.1,82.6 103.3,82.2 102.4,81.6 101.5,81.1 101,80.8 100.6,80.6 100.1,80.3 99.7,80 	"/>
</g>
<g id="POLYLINE_742_">
	<path class="st1" d="M87.5,48.3l0,0.2c0,0,0,0.2,0,0.2l0,0.2l0,0.2l0,0.1l0,0.1l0,0.1c0,0,0,0.1,0,0.1l0,0.1l0,0.1l0,0.1l0,0.1
		l0,0.1l0,0.1l0,0.1l0,0.1l0,0.1l0,0.1l0,0c0,0,0,0,0,0c0,0,0,0,0,0c0,0,0,0,0,0c0,0,0,0,0,0c0,0,0,0,0,0c0,0,0,0,0,0c0,0,0,0,0,0
		c0,0,0,0,0,0c0,0,0,0,0,0c0,0,0,0,0,0c0,0,0,0,0,0c0,0,0,0,0,0c0,0,0,0,0,0c0,0,0,0,0,0c0,0,0,0,0,0c0,0,0,0,0,0l0,0l0,0l0,0l0,0
		l0,0l0,0c0,0,0,0,0,0l0,0c0,0,0,0,0,0l0,0c0,0,0,0,0,0l0,0c0,0,0.1,0,0.1,0s0.1,0,0.1,0l0.2,0c0,0,0.4,0,0.4,0l0.1,0
		c0,0,0.1,0,0.1,0l0.1,0l0,0l0,0l0,0l0,0l0,0l0,0l0,0c0,0,0,0,0,0s0,0,0,0c0,0,0,0,0,0c0,0,0,0,0,0c0,0,0,0,0,0c0,0,0,0,0,0
		c0,0,0,0,0,0c0,0,0,0,0,0c0,0,0,0,0,0c0,0,0,0,0,0c0,0,0,0,0,0c0,0,0,0,0,0c0,0,0,0,0,0c0,0,0,0,0,0c0,0,0,0,0,0c0,0,0,0,0,0
		c0,0,0,0,0,0c0,0,0-0.1,0-0.1c0,0,0-0.1,0-0.1l0-0.1l0-0.1c0,0,0-0.1,0-0.1l0-0.1l0-0.1l0-0.1l0-0.1l0-0.1l0-0.1l0-0.1
		c0,0,0-0.1,0-0.1l0-0.1c0,0,0-0.1,0-0.1l0-0.1c0,0,0-0.2,0-0.2l0-0.2l0-0.3c0,0,0-0.3,0-0.3s0-0.3,0-0.3s0-0.3,0-0.3l0-0.3l0-1l0-2
		c0,0,0-0.5,0-0.5l0-0.5c0,0,0-0.5,0-0.5l0-0.5l0-0.5l0-0.5l0-0.5l0-0.5l0-0.5l0-0.5l0-0.4l0-0.4l0-0.4c0,0,0-0.4,0-0.4l0.1-0.4
		l0.1-0.4l0.1-0.4c0,0,0.1-0.4,0.1-0.4l0.1-0.4l0.1-0.4c0,0,0.1-0.4,0.1-0.4l0.1-0.4l0.2-0.7l0.2-0.7l0.2-0.7l0.2-0.7l0.7-2.9
		l0.2-0.7l0.2-0.7c0,0,0.2-0.7,0.2-0.7l0.2-0.7l0.1-0.4l0.1-0.4l0.1-0.4l0.1-0.4l0.1-0.4l0.1-0.4l0.1-0.4l0.1-0.4l0.1-0.4
		c0,0,0-0.4,0-0.4l0-0.4l0-0.4l0-0.4l0-0.4l0-0.4l0-0.4l0-0.4l0-0.4l0-0.4l0-0.4l0-0.4l0-0.4l0-0.4l0-0.4l0-0.4l0-0.4l0-0.4l0-0.4
		l0-0.4l0-0.4l-0.1-0.4l-0.1-0.4L95,13L95,12.6l-0.1-0.4l-0.1-0.4l-0.1-0.4L94.6,11l-0.1-0.4c0,0-0.1-0.4-0.1-0.4l-0.1-0.4l-0.1-0.4
		l-0.1-0.4c0,0-0.1-0.4-0.1-0.4l-0.1-0.4L93.7,8l-0.1-0.4l-0.1-0.4l-0.2-0.3l-0.2-0.3L93,6.4l-0.1-0.2l-0.1-0.2l-0.1-0.2l-0.1-0.2
		l-0.1-0.2l-0.1-0.2l-0.1-0.2l-0.1-0.2L92.2,5l-0.1-0.1L92,4.7l-0.1-0.1l-0.1-0.1c0,0-0.1-0.1-0.1-0.1s-0.1-0.1-0.1-0.1L91.5,4
		c0,0-0.1-0.1-0.1-0.1l-0.1-0.1c0,0-0.1-0.1-0.1-0.1L91,3.5l-0.1-0.1c0,0-0.1-0.1-0.1-0.1l-0.1-0.1l-0.1-0.1L90.5,3l-0.1-0.1
		l-0.1-0.1l-0.1-0.1L90,2.6l-0.1-0.1l-0.1-0.1l-0.1-0.1l-0.1-0.1l-0.1-0.1l-0.1-0.1L89.2,2L89,1.9l-0.1-0.1l-0.1-0.1l-0.1-0.1
		l-0.1-0.1l-0.1-0.1c0,0-0.1-0.1-0.1-0.1l-0.1-0.1c0,0-0.1-0.1-0.1-0.1l-0.1-0.1l-0.1-0.1l-0.3-0.1l-0.3-0.1L86.9,1l-0.3-0.1
		c0,0-0.3-0.1-0.3-0.1S86,0.8,86,0.8l-0.3-0.1l-0.3-0.1l-0.3-0.1c0,0-0.3,0-0.3,0s-0.3,0-0.3,0l-0.3,0l-0.3,0l-0.3,0l-0.3,0l-0.3,0
		l-0.3,0l-0.3,0l-0.3,0l-0.3,0c0,0-0.3,0-0.3,0s-0.3,0-0.3,0s-0.3,0-0.3,0l-0.3,0l-0.3,0l-0.3,0l-0.3,0l-0.3,0l-0.7,0
		c0,0-0.7,0.1-0.7,0.1S77,0.6,77,0.6l-2.7,0.3l-0.7,0.1L73,1l-0.7,0l-0.3,0c0,0-0.3,0-0.3,0l-0.6,0l-0.6,0l-0.6,0l-0.6,0l-0.6,0
		l-0.6,0l-0.6,0l-0.6,0l-2.2,0c0,0-0.5,0-0.5,0s-0.5,0-0.5,0l-0.5,0l-0.5,0l-0.5,0l-0.5,0l-0.5,0l-0.5,0l-0.3,0l-0.3,0l-0.3,0
		l-0.3,0l-0.3,0l-0.3,0l-0.3,0l-0.3,0c0,0-0.3,0-0.3,0s-0.3,0-0.3,0l-0.3,0l-0.3,0l-0.3,0.1l-0.3,0.1l-0.3,0.1l-0.3,0.1L56,1.9
		L55.7,2c0,0-0.3,0.1-0.3,0.1s-0.3,0.1-0.3,0.1l-0.3,0.1l-0.3,0.1l-0.3,0.1L54,2.5l-0.4,0.1l-0.4,0.1c0,0-0.4,0.1-0.4,0.1L52.5,3
		c0,0-0.4,0.1-0.4,0.1s-0.4,0.2-0.4,0.2l-0.4,0.2l-0.4,0.2c0,0-0.4,0.2-0.4,0.2L50.4,4L50,4.1c0,0-0.3,0.2-0.3,0.2l-0.3,0.2
		l-0.2,0.1L49,4.7l-0.2,0.1c0,0-0.2,0.1-0.2,0.1l-0.2,0.1l-0.2,0.1l-0.2,0.1l-0.2,0.1l-0.2,0.1c0,0-0.2,0.1-0.2,0.1
		s-0.1,0.1-0.1,0.1s-0.1,0.1-0.1,0.1S47.3,6,47.3,6l-0.1,0.1l-0.1,0.1c0,0-0.1,0.1-0.1,0.1l-0.1,0.1l-0.1,0.1l-0.1,0.1l-0.1,0.1
		L46.3,7l-0.1,0.1L46,7.2c0,0-0.1,0.1-0.1,0.1s-0.1,0.1-0.1,0.1l-0.1,0.1c0,0-0.1,0.1-0.1,0.1l-0.1,0.1l-0.1,0.1l-0.1,0.1l-0.1,0.1
		l-0.1,0.1l-0.1,0.1L45,8.8L44.9,9c0,0-0.1,0.2-0.1,0.2l-0.1,0.2l-0.1,0.2l0,0.1l0,0.1l0,0.1l0,0.1l0,0.1l0,0.1l0,0.1l0,0.1
		c0,0-0.1,0.2-0.1,0.2s0,0.3,0,0.3l0,0.3c0,0,0,0.3,0,0.3s0,0.3,0,0.3s0,0.3,0,0.3l0,0.3l0,0.3l0,0.3l0,0.3l0,0.3l0,0.3l0,0.3l0,0.3
		l0,0.3l0,0.3l0.1,0.5l0.1,0.5l0.2,1.6l0.1,0.5l0.1,0.5l0,0.5l0,0.5l0,0.5l0,0.5c0,0,0,0.5,0,0.5l0,0.5l0,0.5l0,0.5l0,0.5
		c0,0,0,0.5,0,0.5l0,0.5l0,0.5l0,0.5l0,0.5l0,0.5l0,0.9c0,0,0,0.9,0,0.9s-0.1,1.9-0.1,1.9l0,0.9l0,0.9c0,0,0,0.5,0,0.5l0,0.5
		c0,0,0,0.5,0,0.5s0,0.5,0,0.5l0,0.5c0,0,0,0.5,0,0.5l0,0.5l0,0.5l0,0.5l0,0.5l0,0.5l0,0.5l0,1.1l0,1.1L45,43l0,1.1l0,1.1l0,0.6
		l0,0.6l0,0.6c0,0,0,0.6,0,0.6s0,0.5,0,0.5s0,0.5,0,0.5s0,0.5,0,0.5l0,0.5c0,0,0,0.5,0,0.5l0,0.5l0,0.1l0,0.1l0,0.1l0,0.1l0,0.1
		c0,0,0,0.1,0,0.1s0,0.1,0,0.1l0,0.1c0,0,0,0,0,0s0,0,0,0l0,0l0,0l0,0c0,0,0,0,0,0l0,0c0,0,0,0,0,0c0,0,0,0,0,0c0,0,0,0,0,0
		c0,0,0,0,0,0c0,0,0,0,0,0c0,0,0,0,0,0c0,0,0,0,0,0c0,0,0,0,0,0c0,0,0,0,0,0c0,0,0,0,0,0c0,0,0,0,0,0c0,0,0,0,0,0c0,0,0,0,0,0
		c0,0,0,0,0,0c0,0,0.1,0,0.1,0c0,0,0.1,0,0.1,0l0,0l0,0c0,0,0,0,0,0l0,0l0,0l0,0l0,0l0,0l0.1,0c0,0,0.1,0,0.1,0l0.1,0l0.2,0l0.2,0
		l0.4,0c0,0,0.2,0,0.2,0s0.1,0,0.1,0l0.1,0l0.1,0l0.1,0l0.1,0l0,0l0,0c0,0,0,0,0,0s0,0,0,0l0,0l0,0l0,0c0,0,0,0,0,0l0,0c0,0,0,0,0,0
		l0,0l0,0l0,0l0,0c0,0,0,0,0,0c0,0,0,0,0,0c0,0,0,0,0,0c0,0,0,0,0,0c0,0,0,0,0,0c0,0,0,0,0,0c0,0,0,0,0,0c0,0,0,0,0,0c0,0,0,0,0,0
		c0,0,0,0,0,0c0,0,0,0,0,0c0,0,0,0,0,0c0,0,0,0,0,0c0,0,0,0,0,0c0,0,0-0.1,0-0.1l0-0.1c0,0,0-0.1,0-0.1s0-0.1,0-0.1l0-0.1l0-0.1
		l0-0.1l0-0.1l0-0.1c0,0,0-0.1,0-0.1s0-0.1,0-0.1l0-0.1l0-0.1l0-0.1l0-0.1l0-0.1l0-0.1l0-0.1l0-0.4l0-0.4l0-0.7l0-0.7l0-0.7l0-0.5
		c0,0,0-0.5,0-0.5l0-0.5c0,0,0-0.5,0-0.5l0-0.6l0-0.6l-0.3-3.8l-0.1-1l-0.1-1l0-0.5l0-0.5c0,0,0-0.5,0-0.5l0-0.5c0,0,0-0.7,0-0.7
		l0-0.7c0,0,0-0.3,0-0.3l0-0.3c0,0,0-0.3,0-0.3s0-0.3,0-0.3s0-0.5,0-0.5l0-0.5c0,0,0-0.5,0-0.5l0-0.5c0,0,0-0.5,0-0.5l0-0.5l0.1-0.9
		l0.1-1.2c0,0,0.2-2.4,0.2-2.4l0-0.6l0-0.6l0-0.5c0,0,0-0.5,0-0.5l0-0.5l0-0.5l0-0.5c0,0,0-0.5,0-0.5s0-0.5,0-0.5l0-0.5
		c0,0,0-0.6,0-0.6l0-0.6l0-0.6l0-0.6c0,0,0-0.5,0-0.5l-0.1-2l0-0.4l0-0.4c0,0,0-0.4,0-0.4l0-0.2l0-0.2c0,0,0-0.2,0-0.2s0-0.2,0-0.2
		l0-0.2l0-0.2l0-0.2c0,0,0-0.2,0-0.2l0-0.1l0-0.1c0,0,0-0.1,0-0.1l0-0.1l0-0.1l0-0.1c0,0,0-0.1,0-0.1s0-0.1,0-0.1l0,0c0,0,0,0,0,0
		l0-0.1l0-0.1c0,0,0-0.1,0-0.1s0,0,0,0s0,0,0,0l0,0l0,0l0,0c0,0,0,0,0,0l0,0l0,0l0,0c0,0,0-0.1,0-0.1s0,0,0,0s0,0,0,0s0,0,0,0
		l0.1-0.1c0,0,0.1-0.1,0.1-0.1l0.1-0.1l0.1-0.1l0.1,0c0,0,0.1,0,0.1,0l0.1-0.1c0,0,0.1-0.1,0.1-0.1s0.1-0.1,0.1-0.1l0.2-0.1L51,10
		l0.2-0.1l0.2-0.1l0.2-0.1c0,0,0.2-0.1,0.2-0.1s0.2-0.1,0.2-0.1s0.3-0.1,0.3-0.1s0.3-0.1,0.3-0.1l0.3-0.1l0.3-0.1
		c0,0,0.3-0.1,0.3-0.1S53.7,9,53.7,9S54,8.9,54,8.9l0.3-0.1l0.3-0.1l0.3-0.1l0.3-0.1c0,0,0.3-0.1,0.3-0.1l0.2,0l0.2,0l0.2,0l0.2,0
		l0.2,0l0.2,0c0,0,0.2,0,0.2,0l0.2,0c0,0,0.2,0,0.2,0l0.2,0c0,0,0.5,0,0.5,0s0.5,0,0.5,0l0.5,0l0.5,0l0.5,0l0.5,0l0.5,0l0.5,0l0.5,0
		c0,0,1,0,1,0l1.8,0.1l0.9,0l0.9,0l0.7,0l0.7,0l0.7,0l0.7,0l0.7,0l0.3,0l0.3,0l0.3,0c0,0,0.3,0,0.3,0s0.3,0,0.3,0l0.3,0l0.4,0l0.4,0
		L74.3,8L75.2,8L78,7.7l0.7-0.1l0.7-0.1L80,7.5c0,0,0.3,0,0.3,0l0.3,0l0.3,0l0.3,0l0.3,0l0.3,0l0.3,0l0.3,0l0.3,0l0.3,0l0.2,0l0.2,0
		l0.2,0c0,0,0.2,0,0.2,0l0.2,0l0.2,0l0.2,0l0.2,0l0.2,0l0.2,0l0.2,0l0.2,0l0.1,0l0.1,0l0.1,0l0.1,0l0.1,0l0.1,0l0.1,0l0.1,0l0.1,0
		l0.1,0l0.1,0l0,0c0,0,0,0,0,0l0,0l0,0c0,0,0,0,0,0l0,0c0,0,0,0,0,0s0,0,0,0s0,0,0,0c0,0,0.1,0.1,0.1,0.1c0,0,0.1,0.1,0.1,0.1
		c0,0,0.1,0.1,0.1,0.1c0,0,0.1,0.1,0.1,0.1s0,0,0,0s0,0,0,0s0,0,0,0l0,0l0,0.1c0,0,0,0.1,0,0.1s0,0.1,0,0.1s0,0.1,0,0.1s0,0.1,0,0.1
		l0,0.1l0.1,0.2c0,0,0.1,0.1,0.1,0.1s0.1,0.1,0.1,0.1l0.1,0.1c0,0,0.1,0.1,0.1,0.1l0.1,0.2l0.1,0.2c0,0,0.1,0.2,0.1,0.2l0.1,0.2
		l0.1,0.3l0.1,0.3c0,0,0.1,0.3,0.1,0.3l0.1,0.3c0,0,0.1,0.3,0.1,0.3s0.1,0.3,0.1,0.3l0,0.3l0,0.3l0,0.3l0,0.3l0,0.3l0,0.3l0,0.3
		l0,0.3l0,0.3l0,0.3l0,0.5l0,0.5l0,0.4l0,0.4l0,0.4c0,0,0,0.4,0,0.4l0,0.4l0,0.4c0,0,0,0.4,0,0.4s0,0.4,0,0.4l0,0.4l0,0.4l0,0.4
		c0,0,0,0.4,0,0.4s0,0.7,0,0.7l0,0.7l-0.1,0.7l-0.1,0.7L88.5,25c0,0-0.1,0.8-0.1,0.8s-0.1,0.8-0.1,0.8s-0.1,0.8-0.1,0.8
		S88,29.9,88,29.9s-0.1,1.2-0.1,1.2l-0.1,0.6l-0.1,0.6c0,0-0.1,0.9-0.1,0.9s-0.1,0.9-0.1,0.9s0,0.5,0,0.5l0,0.5c0,0,0,0.5,0,0.5
		l0,0.5c0,0,0,0.4,0,0.4s0,0.4,0,0.4s0,0.4,0,0.4s0,0.4,0,0.4s0,0.4,0,0.4l0,0.4l0,0.4l0,0.4l0,0.4l0,0.4l0,0.4l0,0.4
		c0,0,0,0.8,0,0.8s0,0.8,0,0.8l0.1,2.8c0,0,0,0.5,0,0.5s0,0.5,0,0.5l0,0.7c0,0,0,0.7,0,0.7l0,0.4L87.5,48.3"/>
</g>
<g id="POLYLINE_743_">
	<path class="st1" d="M87.6,33.6l-2.6,0c0,0-7.8,0-7.8,0s-4,0-4,0l-4,0l-8,0l-3.2,0l-1.6,0c0,0-1.6,0-1.6,0l-1.6,0l-1.6,0l-0.8,0
		c0,0-0.8,0-0.8,0l-0.8,0l-0.8,0c0,0,0,0.6,0,0.6s0,0.6,0,0.6l0,0.6l0,0.6l0,0.4l0,0.4l0,0.8l0,0.8c0,0,0,0.8,0,0.8l10.6,0l10.9,0
		l3.6,0l3.8,0l6.8,0l3,0C87.4,37.3,87.5,35.4,87.6,33.6"/>
</g>
<g id="HATCH_383_">
	<polygon class="st0" points="87.6,33.6 85,33.6 77.2,33.6 73.2,33.6 69.2,33.6 61.2,33.6 58,33.6 56.4,33.6 54.8,33.6 53.2,33.6 
		51.6,33.6 50.8,33.5 50,33.5 49.2,33.5 48.4,33.5 48.4,34 48.4,34.6 48.4,35.2 48.4,35.7 48.4,36.1 48.4,36.6 48.5,37.4 48.5,38.3 
		48.6,39.1 51.5,39.1 59.2,39.1 70.1,39.1 73.8,39.1 77.6,39.1 84.4,39.1 87.4,39.1 87.4,39.1 87.4,38.7 87.4,38.3 87.4,37.9 
		87.4,37.5 87.4,37.1 87.4,36.7 87.4,36.3 87.5,35.9 87.5,35.3 87.5,34.7 87.6,34.2 	"/>
</g>
</svg>
