<?xml version="1.0" encoding="utf-8"?>
<!-- Generator: Adobe Illustrator 21.1.0, SVG Export Plug-In . SVG Version: 6.00 Build 0)  -->
<svg version="1.1" id="Слой_1" xmlns="http://www.w3.org/2000/svg" xmlns:xlink="http://www.w3.org/1999/xlink" x="0px" y="0px"
	 viewBox="0 0 120.5 130.8" style="enable-background:new 0 0 120.5 130.8;" xml:space="preserve">
<style type="text/css">
	.st0{fill:none;stroke:#FFFFFF;stroke-width:0.7087;stroke-linecap:round;stroke-linejoin:round;stroke-miterlimit:10;}
	.st1{fill-rule:evenodd;clip-rule:evenodd;fill:#FFFFFF;}
	.st2{fill-rule:evenodd;clip-rule:evenodd;fill:#ED6720;}
	.st3{fill:none;stroke:#ED6720;stroke-width:0.7087;stroke-linecap:round;stroke-linejoin:round;stroke-miterlimit:10;}
</style>
<g id="SPLINE_83_">
	<path class="st0" d="M31.9,16.9c0.6,0.4,1.2,0.9,1.6,1.6c0.4,0.6,0.7,1.4,0.9,2.1c0.3,0.8,0.5,1.7,0.6,2.5c0.1,0.9,0.1,1.8,0,2.6
		c-0.1,0.5-0.1,1-0.3,1.4c-0.2,0.5-0.5,1-0.8,1.4c-0.3,0.5-0.7,0.9-1.1,1.3c-0.5,0.5-1,0.9-1.6,1.2c-0.7,0.5-1.5,0.9-2.3,1.1
		c-0.5,0.1-1,0.2-1.5,0.2c-0.9,0-1.7-0.2-2.6-0.4c-1-0.3-2-0.9-2.8-1.5c-0.6-0.5-1-1-1.4-1.6c-0.4-0.6-0.6-1.3-0.7-2.1
		c-0.3-1.4-0.1-2.9,0.1-4.3c0.1-0.7,0.3-1.4,0.4-2c0.2-0.7,0.3-1.4,0.7-1.9c0.3-0.4,0.7-0.7,1.2-1c1-0.7,2.1-1.4,3.3-1.7
		c0.5-0.1,1.1-0.2,1.6-0.2c0.7-0.1,1.4-0.1,2.1,0c0.5,0.1,0.9,0.3,1.4,0.5C31.1,16.3,31.5,16.6,31.9,16.9z"/>
</g>
<g id="HATCH_344_">
	<polygon class="st1" points="31.9,16.9 32,17 32.2,17.1 32.3,17.1 32.4,17.2 32.5,17.3 32.6,17.4 32.7,17.5 32.8,17.6 32.9,17.7 
		33,17.8 33.1,17.9 33.2,18 33.3,18.1 33.3,18.2 33.4,18.4 33.5,18.5 33.6,18.6 33.6,18.7 33.7,18.8 33.8,19 33.8,19.1 33.9,19.2 
		34,19.3 34,19.5 34.1,19.6 34.1,19.7 34.2,19.9 34.2,20 34.3,20.1 34.3,20.3 34.4,20.6 34.5,20.9 34.5,21 34.6,21.2 34.6,21.3 
		34.7,21.5 34.7,21.6 34.8,21.8 34.8,22 34.8,22.1 34.9,22.3 34.9,22.4 34.9,22.6 35,22.8 35,22.9 35,23.1 35,23.2 35.1,23.4 
		35.1,23.6 35.1,23.7 35.1,23.9 35.1,24.1 35.1,24.2 35.1,24.4 35.1,24.5 35.1,24.7 35.1,24.9 35.1,25 35,25.2 35,25.4 35,25.5 
		35,25.7 35,25.9 35,26.1 34.9,26.2 34.9,26.3 34.9,26.4 34.9,26.5 34.9,26.6 34.8,26.7 34.8,26.8 34.8,26.8 34.8,26.9 34.7,27 
		34.7,27.1 34.7,27.2 34.6,27.3 34.6,27.4 34.5,27.5 34.5,27.6 34.4,27.6 34.4,27.7 34.3,27.8 34.3,27.9 34.2,28 34.2,28.1 
		34.1,28.2 34,28.3 33.9,28.5 33.7,28.7 33.6,28.8 33.5,29 33.4,29.1 33.3,29.2 33.3,29.3 33.2,29.3 33.1,29.4 33.1,29.5 33,29.6 
		32.9,29.6 32.8,29.7 32.8,29.8 32.7,29.9 32.6,30 32.5,30 32.4,30.1 32.3,30.2 32.2,30.3 32.1,30.4 32,30.4 31.9,30.5 31.8,30.6 
		31.7,30.7 31.6,30.7 31.5,30.8 31.4,30.9 31.3,31 31.2,31 31,31.1 30.9,31.2 30.7,31.3 30.6,31.4 30.5,31.4 30.3,31.5 30.2,31.6 
		30,31.7 29.9,31.7 29.7,31.8 29.6,31.9 29.4,31.9 29.3,32 29.1,32 29,32.1 28.8,32.1 28.7,32.1 28.7,32.1 28.6,32.2 28.5,32.2 
		28.4,32.2 28.3,32.2 28.2,32.2 28.1,32.2 28,32.3 27.9,32.3 27.8,32.3 27.7,32.3 27.6,32.3 27.5,32.3 27.4,32.3 27.3,32.3 
		27.1,32.3 27,32.3 26.8,32.3 26.6,32.3 26.5,32.2 26.3,32.2 26.2,32.2 26,32.2 25.8,32.1 25.7,32.1 25.5,32.1 25.4,32 25.2,32 
		25,31.9 24.9,31.9 24.7,31.8 24.5,31.8 24.3,31.7 24.2,31.6 24,31.6 23.8,31.5 23.6,31.4 23.4,31.3 23.2,31.2 23.1,31.2 23.1,31.1 
		23,31.1 22.9,31 22.8,31 22.7,30.9 22.6,30.8 22.5,30.8 22.5,30.7 22.4,30.7 22.3,30.6 22.2,30.6 22.1,30.5 22.1,30.4 22,30.4 
		21.9,30.3 21.8,30.2 21.7,30.1 21.6,30 21.5,30 21.4,29.9 21.3,29.8 21.2,29.7 21.1,29.6 21,29.5 20.9,29.4 20.9,29.3 20.8,29.2 
		20.7,29 20.6,28.9 20.6,28.8 20.5,28.7 20.4,28.6 20.4,28.5 20.3,28.3 20.2,28.2 20.2,28.1 20.1,28 20.1,27.8 20,27.7 20,27.6 
		19.9,27.4 19.9,27.3 19.9,27.2 19.8,27 19.8,26.9 19.8,26.8 19.8,26.6 19.7,26.5 19.7,26.4 19.7,26.2 19.7,26.1 19.7,26 19.6,25.8 
		19.6,25.7 19.6,25.6 19.6,25.4 19.6,25.3 19.6,25.2 19.6,25 19.6,24.9 19.6,24.8 19.6,24.6 19.6,24.5 19.6,24.4 19.6,24.2 
		19.6,24.1 19.7,23.9 19.7,23.8 19.7,23.7 19.7,23.4 19.8,23.1 19.8,22.9 19.8,22.6 19.9,22.3 19.9,22.1 20,21.8 20,21.6 20.1,21.3 
		20.1,21.1 20.2,20.8 20.2,20.5 20.3,20.3 20.3,20 20.4,19.9 20.4,19.8 20.5,19.7 20.5,19.5 20.5,19.4 20.6,19.3 20.6,19.2 20.7,19 
		20.7,18.9 20.7,18.9 20.8,18.8 20.8,18.8 20.8,18.7 20.9,18.7 20.9,18.6 20.9,18.5 21,18.5 21,18.4 21,18.4 21.1,18.4 21.1,18.3 
		21.2,18.2 21.2,18.2 21.3,18.1 21.4,18 21.4,18 21.5,17.9 21.6,17.8 21.7,17.8 21.7,17.7 21.8,17.6 21.9,17.6 22.1,17.5 22.2,17.4 
		22.4,17.2 22.6,17.1 22.8,17 23,16.8 23.2,16.7 23.4,16.6 23.5,16.5 23.6,16.5 23.7,16.4 23.8,16.4 23.9,16.3 24,16.3 24.1,16.2 
		24.2,16.2 24.3,16.1 24.4,16.1 24.6,16 24.7,16 24.8,15.9 24.9,15.9 25,15.9 25.1,15.8 25.2,15.8 25.3,15.8 25.4,15.7 25.5,15.7 
		25.6,15.7 25.7,15.7 25.8,15.6 25.9,15.6 26,15.6 26.1,15.6 26.3,15.6 26.5,15.5 26.7,15.5 27,15.5 27.2,15.5 27.4,15.4 27.6,15.4 
		27.7,15.4 27.8,15.4 28,15.4 28.1,15.4 28.2,15.4 28.4,15.4 28.5,15.4 28.6,15.4 28.8,15.4 28.9,15.4 29,15.5 29.2,15.5 29.3,15.5 
		29.4,15.5 29.5,15.5 29.6,15.6 29.6,15.6 29.7,15.6 29.8,15.7 29.9,15.7 30,15.7 30.1,15.8 30.2,15.8 30.2,15.8 30.3,15.9 
		30.4,15.9 30.5,15.9 30.6,16 30.7,16 30.8,16.1 30.8,16.1 30.9,16.2 31,16.2 31.1,16.3 31.2,16.3 31.3,16.4 31.5,16.6 31.6,16.7 
		31.8,16.8 	"/>
</g>
<g id="HATCH_345_">
	<polygon class="st2" points="11,74.7 10.7,74.7 10.6,74.7 10.5,74.7 10.3,74.7 10.2,74.7 10.1,74.7 10,74.7 9.9,74.7 9.8,74.7 
		9.6,74.7 9.6,74.7 9.5,74.7 9.5,74.7 9.4,74.7 9.4,74.7 9.3,74.8 9.2,74.8 9.2,74.8 9.1,74.8 9.1,74.8 9,74.8 9,74.9 8.9,74.9 
		8.8,74.9 8.8,74.9 8.7,75 8.7,75 8.6,75 8.5,75 8.5,75.1 8.4,75.1 8.4,75.1 8.3,75.2 8.3,75.2 8.2,75.2 8.1,75.3 8.1,75.3 8,75.4 
		8,75.4 7.9,75.5 7.9,75.5 7.8,75.6 7.8,75.6 7.7,75.7 7.7,75.7 7.6,75.8 7.6,75.8 7.5,75.9 7.5,75.9 7.5,76 7.4,76.1 7.4,76.1 
		7.4,76.2 7.3,76.2 7.3,76.3 7.3,76.3 7.3,76.4 7.2,76.5 7.2,76.6 7.2,76.7 7.1,76.8 7.1,76.9 7.1,77 7,77.2 7,77.3 7,77.4 7,77.5 
		7,77.6 7,77.7 6.9,77.8 6.9,77.9 6.9,78.1 6.9,78.2 6.9,78.3 6.9,78.6 6.9,78.8 6.9,79.1 6.8,79.3 6.8,79.6 6.8,79.8 6.8,80.1 
		6.8,80.4 6.9,80.8 6.9,81.1 6.9,81.4 6.9,81.7 6.9,82.3 7,83.6 7,84.2 7,84.5 7,84.9 7,85.2 7,85.6 7,86 7,86.4 7.1,86.7 7.1,87.1 
		7.1,87.9 7.1,91 7.1,91.7 7.1,92.5 7.1,92.9 7.1,93.2 7.1,93.6 7.1,94 7.1,94.3 7.1,94.7 7.1,95 7.2,95.4 7.2,95.7 7.2,96.1 
		7.2,96.4 7.3,96.7 7.3,96.8 7.3,96.9 7.3,97 7.3,97.1 7.3,97.1 7.3,97.2 7.3,97.2 7.3,97.2 7.3,97.3 7.4,97.3 7.4,97.3 7.4,97.3 
		7.4,97.4 7.4,97.4 7.4,97.4 7.4,97.4 7.4,97.4 7.4,97.5 7.4,97.5 7.5,97.5 7.5,97.5 7.5,97.6 7.5,97.6 7.5,97.6 7.5,97.6 7.5,97.6 
		7.6,97.6 7.6,97.7 7.6,97.7 7.6,97.7 7.6,97.7 7.7,97.7 7.7,97.8 7.7,97.8 7.7,97.8 7.7,97.8 7.8,97.8 7.8,97.8 7.8,97.9 7.9,97.9 
		7.9,97.9 7.9,97.9 7.9,97.9 8,97.9 8,97.9 8,98 8.1,98 8.1,98 8.2,98 8.2,98 8.3,98 8.4,98.1 8.5,98.1 8.6,98.1 8.7,98.1 8.8,98.1 
		8.9,98.1 9,98.1 9.1,98.2 9.2,98.2 9.4,98.2 9.6,98.2 9.9,98.2 10.1,98.2 10.3,98.2 10.6,98.2 10.8,98.2 11,98.2 11.2,98.2 
		11.6,98.2 11.9,98.2 12.1,98.1 12.3,98.1 12.5,98.1 12.6,98.1 12.8,98.1 12.9,98.1 13,98.1 13,98.1 13.1,98.1 13.1,98 13.2,98 
		13.2,98 13.2,98 13.3,98 13.3,98 13.3,98 13.3,98 13.3,98 13.3,98 13.3,98 13.3,98 13.4,98 13.4,98 13.4,98 13.4,97.9 13.4,97.9 
		13.4,97.9 13.4,97.9 13.5,97.9 13.5,97.9 13.5,97.9 13.5,97.8 13.5,97.8 13.6,97.8 13.6,97.8 13.6,97.8 13.6,97.7 13.7,97.7 
		13.7,97.7 13.7,97.7 13.7,97.6 13.7,97.6 13.8,97.6 13.8,97.5 13.8,97.5 13.8,97.4 13.9,97.4 13.9,97.3 13.9,97.2 14,97.2 14,97.1 
		14,97 14.1,96.9 14.1,96.8 14.1,96.7 14.1,96.7 14.2,96.6 14.2,96.5 14.2,96.4 14.2,96.3 14.3,96.2 14.3,96 14.3,95.9 14.3,95.8 
		14.3,95.7 14.4,95.6 14.4,95.5 14.4,95.2 14.4,95 14.5,94.7 14.5,94.4 14.5,94.1 14.5,93.8 14.5,93.5 14.5,93.2 14.5,92.9 
		14.6,92.6 14.6,92.3 14.6,91.9 14.6,91.6 14.6,91.3 14.5,90.9 14.5,90.6 14.5,90.2 14.5,89.8 14.5,89.5 14.5,89.1 14.5,88.7 
		14.4,87.9 14.4,87.2 14.4,86.4 14.3,85.6 14.3,84.8 14.1,81.6 14,80.8 14,80 13.9,79.2 13.9,78.4 13.8,77.3 13.8,77.2 13.8,77 
		13.8,76.8 13.8,76.7 13.8,76.6 13.8,76.5 13.8,76.5 13.8,76.4 13.7,76.3 13.7,76.2 13.7,76.2 13.7,76.1 13.7,76 13.6,76 13.6,75.9 
		13.6,75.9 13.6,75.9 13.6,75.8 13.6,75.8 13.6,75.8 13.5,75.8 13.5,75.7 13.5,75.7 13.5,75.7 13.5,75.6 13.5,75.6 13.4,75.6 
		13.4,75.6 13.4,75.5 13.4,75.5 13.4,75.5 13.3,75.5 13.3,75.4 13.3,75.4 13.3,75.4 13.2,75.4 13.2,75.3 13.2,75.3 13.2,75.3 
		13.1,75.3 13.1,75.3 13.1,75.2 13,75.2 13,75.2 13,75.2 13,75.2 12.9,75.2 12.9,75.1 12.8,75.1 12.8,75.1 12.7,75.1 12.6,75 
		12.5,75 12.5,75 12.4,75 12.3,74.9 12.2,74.9 12.2,74.9 12.1,74.9 11.9,74.9 11.8,74.8 11.6,74.8 11.5,74.8 11.3,74.8 	"/>
</g>
<g id="SPLINE_84_">
	<path class="st3" d="M11,74.7c-0.8-0.1-1.3-0.1-1.9,0.1c-0.6,0.2-1.3,0.6-1.7,1.3c-0.3,0.5-0.4,1.1-0.4,1.7c-0.1,0.7-0.1,1.3-0.1,2
		c0,1.7,0.1,3.3,0.2,5.1c0.1,4-0.1,8.4,0.2,11.9c0.1,0.5,0.1,1,1,1.3c0.8,0.2,2.4,0.2,3.4,0.1c1.4-0.1,1.6-0.1,1.8-0.3
		c2-1.5,0.7-12.3,0.4-20.2c0-0.9-0.1-1.8-0.6-2.3C12.8,74.9,11.8,74.8,11,74.7z"/>
</g>
<g id="POLYLINE_573_">
	<path class="st3" d="M26.9,39.9l0,0.2l0,0.2l0,0.2c0,0,0,0.2,0,0.2l0,0.2c0,0,0,0.2,0,0.2s0,0.2,0,0.2s0,0.2,0,0.2s0,0.2,0,0.2
		l0,0.2l0,0.2l0,0.2c0,0,0,0.3,0,0.3s0,0.3,0,0.3l0,0.3l0,0.3c0,0,0,0.5,0,0.5l0,0.5l0,0.5l0,0.5l0,0.5l0,0.5c0,0,0,0.5,0,0.5
		s0,0.5,0,0.5l0,0.5l0,0.5l0,0.5c0,0,0,0.5,0,0.5l0,0.5l0,0.5l0,0.5l0,0.5l0,0.4l0,0.4l0,0.4c0,0,0,0.4,0,0.4l0,0.4c0,0,0,0.4,0,0.4
		l0,0.4l0,0.4c0,0,0,0.3,0,0.3l0,0.3c0,0,0,0.3,0,0.3s0,0.3,0,0.3s0,0.3,0,0.3l0,0.3l0,0.3l0,0.3l0,0.3c0,0,0,0.3,0,0.3l0,0.3
		c0,0,0,0.2,0,0.2s0,0.2,0,0.2l0,0.2l0,0.2l0,0.2l0,0.2c0,0,0,0.2,0,0.2s0,0.2,0,0.2l0,0.2l0,0.2l0,0.2c0,0,0,0.2,0,0.2s0,0.1,0,0.1
		l0.1,0.2l0.1,0.3l0.2,0.5l0.1,0.3l0.1,0.3l0.1,0.1c0,0,0.1,0.1,0.1,0.1l0.1,0.1l0.1,0.1l0.1,0.1l0.1,0.1l0.1,0.1
		c0,0,0.1,0.1,0.1,0.1l0.1,0.1l0.1,0.1l0.1,0.2l0.2,0.4c0,0,0.1,0.2,0.1,0.2s0.1,0.2,0.1,0.2l0.1,0.1l0.1,0.1l0.1,0.2l0.2,0.3
		c0,0,0.1,0.1,0.1,0.1l0.1,0.1l0.1,0.1l0.1,0.1l0,0l0,0l0,0l0,0l0,0l0,0l0,0l0,0c0,0,0,0,0,0l0,0c0,0,0,0,0,0c0,0,0,0,0,0
		c0,0,0,0,0,0l0,0l0,0l0,0c0,0,0,0,0,0c0,0,0,0,0,0c0,0,0,0,0,0c0,0,0,0,0,0l0,0c0,0,0,0,0,0s0,0,0,0l0,0l0,0c0,0,0,0,0,0l0,0
		c0,0,0,0,0,0s0,0,0,0s0,0,0,0l0.1-0.1l0.1-0.1c0,0,0.1-0.1,0.1-0.1s0.1-0.1,0.1-0.1l0.3-0.5l0.1-0.1l0.1-0.1c0,0,0.1-0.2,0.1-0.2
		l0.1-0.2l0.2-0.4l0.1-0.2l0.1-0.1c0,0,0.1-0.1,0.1-0.1l0.1-0.1l0.1-0.1l0.1-0.1l0.1-0.1l0.1-0.1l0.1-0.1l0.1-0.1l0.1-0.1l0.1-0.3
		l0.1-0.3c0,0,0.2-0.5,0.2-0.5s0.1-0.3,0.1-0.3l0.1-0.2l-0.1-0.4l-0.1-0.4l-0.1-0.4l-0.1-0.4L30.4,59l-0.1-0.3c0,0-0.1-0.3-0.1-0.3
		L30.2,58l-0.1-0.3l0-0.3l0-0.3l0-0.3c0,0,0-0.2,0-0.2l0-0.2L29.9,56l0-0.4c0,0,0-0.4,0-0.4l0-0.4l0-0.4l0-0.4l0-0.4l0-0.4
		c0,0,0-0.4,0-0.4s0-0.4,0-0.4s0-0.4,0-0.4l0-0.4c0,0,0-0.4,0-0.4l0-0.4l0-0.4l0-0.4l0-0.4L29.2,49l-0.1-1.6L29,46.6l-0.1-0.8l0-0.4
		l0-0.4l0-0.4c0,0,0-0.4,0-0.4s0-0.4,0-0.4s0-0.4,0-0.4l-0.1-0.4l-0.2-1.3l-0.1-0.4l0-0.2l0-0.2l0-0.2l0-0.2l0-0.2c0,0,0-0.2,0-0.2
		l0,0l0,0l0,0l0,0l0,0c0,0,0,0,0,0l0,0l0,0l0,0l0,0l0,0c0,0,0,0,0,0s0,0,0,0l0,0c0,0,0,0,0,0l0,0l0,0l0,0l0,0l0,0l0,0c0,0,0,0,0,0
		s0,0,0,0l0,0l0,0c0,0,0,0,0,0s0,0,0,0l0,0c0,0,0,0,0,0s0,0,0,0s0,0,0,0l0,0l0,0c0,0,0,0,0,0l0,0c0,0,0,0,0,0l0,0c0,0,0,0,0,0l0,0
		l0,0l0,0l0,0l0,0c0,0,0-0.1,0-0.1l0-0.1l0-0.1l-0.1-0.2l0-0.1l0-0.1l0-0.1c0,0,0-0.1,0-0.1s0-0.1,0-0.1l0-0.1l0-0.1
		c0,0,0-0.1,0-0.1l0,0l0,0l0,0l0,0l0,0c0,0,0,0,0,0s0,0,0,0l0,0l0,0l0,0c0,0,0,0,0,0c0,0,0,0,0,0c0,0,0,0,0,0c0,0,0,0,0,0
		c0,0,0,0,0,0c0,0,0,0,0,0c0,0,0,0,0,0c0,0,0,0,0,0c0,0,0,0,0,0c0,0,0,0,0,0c0,0,0,0,0,0c0,0,0,0,0,0c0,0,0,0,0,0c0,0,0,0,0,0
		c0,0,0,0,0,0c0,0,0,0,0,0c0,0,0,0,0,0c0,0,0,0,0,0c0,0,0,0,0,0c0,0,0,0,0,0c0,0,0,0,0,0c0,0,0,0,0,0c0,0,0,0,0,0c0,0,0,0,0,0
		c0,0,0,0,0,0c0,0,0,0,0,0c0,0,0,0,0,0c0,0,0,0,0,0c0,0,0,0,0,0c0,0,0,0,0,0c0,0,0,0,0,0c0,0,0,0,0,0c0,0,0,0,0,0l0,0l0,0l0,0l0,0
		l0,0l0,0l0,0l0,0l0,0l0,0l0,0l0,0c0,0,0,0,0,0s0,0,0,0l0,0l0,0l0,0.1l0,0.1l0,0.1l0,0.1l0,0.1c0,0,0,0.1,0,0.1s0,0.1,0,0.1
		s0,0.1,0,0.1s0,0.1,0,0.1s0,0.1,0,0.1s0,0.1,0,0.1l0,0.1l0,0.1l0,0.1l0,0.1l0,0.1c0,0,0,0.1,0,0.1l0,0.1l0,0.1l0,0l0,0l0,0l0,0l0,0
		l0,0l0,0c0,0,0,0,0,0l0,0l0,0l0,0l0,0l0,0c0,0,0,0,0,0s0,0,0,0s0,0,0,0c0,0,0,0,0,0c0,0,0,0,0,0c0,0,0,0,0,0c0,0,0,0,0,0
		c0,0,0,0,0,0c0,0,0,0,0,0c0,0,0,0,0,0c0,0,0,0,0,0c0,0,0,0,0,0c0,0,0,0,0,0C26.8,39.8,26.8,39.8,26.9,39.9
		C26.8,39.8,26.8,39.8,26.9,39.9C26.9,39.8,26.9,39.8,26.9,39.9C26.9,39.8,26.9,39.8,26.9,39.9C26.9,39.8,26.9,39.8,26.9,39.9"/>
</g>
<g id="HATCH_346_">
	<polygon class="st2" points="26.9,39.9 26.9,40.1 26.9,40.3 27,40.5 27,40.8 27,41 27,41.2 27,41.5 27,41.7 27,42 27,42.2 27,42.4 
		27,42.7 27,42.9 27,43.2 27,43.5 27,43.7 27,44.2 26.9,44.7 26.9,45.2 26.9,45.7 26.9,46.2 26.8,46.7 26.8,47.2 26.8,47.8 
		26.7,48.3 26.7,48.8 26.6,49.3 26.6,49.9 26.6,50.4 26.5,50.9 26.5,51.4 26.4,51.9 26.4,52.3 26.3,52.7 26.3,53.1 26.2,53.5 
		26.2,53.9 26.2,54.3 26.1,54.6 26.1,55 26,55.4 26,55.7 25.9,56 25.9,56.3 25.8,56.7 25.8,57 25.7,57.3 25.7,57.5 25.7,57.8 
		25.6,58.1 25.6,58.3 25.5,58.6 25.5,58.8 25.4,59.1 25.4,59.3 25.3,59.5 25.3,59.7 25.3,59.9 25.2,60.1 25.2,60.3 25.1,60.4 
		25.1,60.6 25,60.8 25,60.9 25.1,61.1 25.2,61.4 25.4,61.9 25.6,62.2 25.7,62.4 25.7,62.6 25.8,62.7 25.9,62.8 25.9,62.9 26,63.1 
		26.1,63.2 26.1,63.3 26.2,63.4 26.2,63.5 26.3,63.6 26.4,63.8 26.6,64.2 26.8,64.4 26.9,64.5 26.9,64.6 27,64.7 27.1,64.9 
		27.3,65.2 27.3,65.3 27.4,65.4 27.4,65.5 27.5,65.6 27.5,65.6 27.5,65.6 27.6,65.7 27.6,65.7 27.6,65.8 27.7,65.8 27.7,65.8 
		27.7,65.9 27.8,65.9 27.8,65.9 27.8,65.9 27.8,66 27.8,66 27.9,66 27.9,66 27.9,66 27.9,66 27.9,66 27.9,66 28,66 28,66 28,66 
		28,66 28,66 28.1,65.9 28.1,65.9 28.1,65.9 28.1,65.9 28.2,65.8 28.2,65.8 28.2,65.8 28.3,65.7 28.3,65.7 28.3,65.6 28.4,65.6 
		28.4,65.6 28.4,65.5 28.5,65.4 28.5,65.3 28.6,65.2 28.9,64.7 28.9,64.6 29,64.5 29.1,64.4 29.2,64.2 29.5,63.8 29.6,63.6 
		29.6,63.5 29.7,63.4 29.8,63.3 29.8,63.2 29.9,63.1 29.9,62.9 30,62.8 30.1,62.7 30.1,62.6 30.2,62.4 30.3,62.2 30.4,61.9 
		30.7,61.4 30.8,61.1 30.9,60.9 30.7,60.5 30.6,60.1 30.5,59.7 30.5,59.3 30.4,59 30.3,58.6 30.3,58.3 30.2,58 30.1,57.8 30.1,57.5 
		30.1,57.2 30,57 30,56.7 29.9,56.5 29.9,56 29.8,55.7 29.8,55.3 29.7,54.9 29.7,54.6 29.7,54.2 29.6,53.8 29.6,53.4 29.5,53 
		29.5,52.6 29.5,52.2 29.4,51.8 29.4,51.4 29.3,51 29.3,50.6 29.3,50.2 29.2,49.8 29.2,49 29.1,47.4 29,46.6 28.9,45.8 28.9,45.5 
		28.9,45.1 28.8,44.7 28.8,44.3 28.8,43.9 28.7,43.5 28.7,43.1 28.5,41.7 28.5,41.3 28.4,41.1 28.4,40.9 28.4,40.6 28.4,40.4 
		28.3,40.2 28.3,40 28.4,39.9 28.4,39.9 28.4,39.9 28.4,39.9 28.4,39.9 28.4,39.8 28.5,39.8 28.5,39.8 28.5,39.8 28.5,39.8 
		28.5,39.7 28.5,39.7 28.5,39.7 28.6,39.7 28.6,39.6 28.6,39.6 28.6,39.6 28.6,39.6 28.6,39.5 28.6,39.5 28.6,39.5 28.6,39.5 
		28.6,39.4 28.6,39.4 28.6,39.4 28.6,39.4 28.6,39.3 28.6,39.3 28.6,39.3 28.6,39.3 28.6,39.2 28.6,39.2 28.6,39.2 28.6,39.2 
		28.6,39.1 28.6,39.1 28.6,39 28.6,39 28.6,38.9 28.6,38.9 28.6,38.8 28.6,38.8 28.6,38.7 28.6,38.6 28.5,38.6 28.5,38.5 28.4,38.3 
		28.4,38.2 28.4,38.1 28.4,38.1 28.3,38 28.3,37.9 28.3,37.9 28.2,37.8 28.2,37.7 28.2,37.7 28.2,37.7 28.2,37.6 28.1,37.6 
		28.1,37.6 28.1,37.6 28.1,37.6 28.1,37.5 28.1,37.5 28,37.5 28,37.5 28,37.5 28,37.5 28,37.5 28,37.5 28,37.4 28,37.4 28,37.4 
		28,37.4 27.9,37.4 27.9,37.4 27.9,37.4 27.9,37.4 27.9,37.4 27.9,37.4 27.9,37.4 27.9,37.4 27.9,37.4 27.9,37.4 27.8,37.4 
		27.8,37.4 27.8,37.4 27.8,37.4 27.8,37.3 27.8,37.3 27.8,37.3 27.8,37.3 27.8,37.3 27.8,37.3 27.7,37.3 27.7,37.3 27.7,37.3 
		27.7,37.3 27.7,37.3 27.7,37.3 27.7,37.3 27.7,37.3 27.7,37.3 27.7,37.3 27.6,37.3 27.6,37.3 27.6,37.3 27.6,37.3 27.6,37.3 
		27.6,37.3 27.6,37.3 27.6,37.3 27.6,37.3 27.5,37.3 27.5,37.4 27.5,37.4 27.5,37.4 27.5,37.4 27.5,37.4 27.5,37.4 27.5,37.4 
		27.5,37.4 27.5,37.4 27.4,37.4 27.4,37.4 27.4,37.4 27.4,37.4 27.4,37.4 27.4,37.4 27.4,37.4 27.4,37.4 27.4,37.4 27.3,37.5 
		27.3,37.5 27.3,37.5 27.3,37.5 27.3,37.5 27.2,37.5 27.2,37.6 27.2,37.6 27.2,37.6 27.2,37.6 27.1,37.7 27.1,37.7 27.1,37.7 
		27.1,37.7 27.1,37.8 27.1,37.8 27,37.9 27,37.9 27,38 26.9,38.1 26.9,38.1 26.9,38.2 26.8,38.3 26.8,38.4 26.8,38.5 26.7,38.6 
		26.7,38.7 26.7,38.8 26.7,38.9 26.6,38.9 26.6,39 26.6,39 26.6,39.1 26.6,39.1 26.6,39.2 26.6,39.2 26.6,39.2 26.6,39.2 26.6,39.3 
		26.6,39.3 26.6,39.3 26.6,39.3 26.6,39.4 26.6,39.4 26.6,39.4 26.6,39.4 26.6,39.5 26.6,39.5 26.6,39.5 26.6,39.5 26.7,39.5 
		26.7,39.6 26.7,39.6 26.7,39.6 26.7,39.6 26.7,39.6 26.7,39.6 26.7,39.6 26.7,39.6 26.7,39.6 26.7,39.7 26.7,39.7 26.7,39.7 
		26.7,39.7 26.7,39.7 26.7,39.7 26.7,39.7 26.7,39.7 26.7,39.7 26.8,39.7 26.8,39.7 26.8,39.7 26.8,39.8 26.8,39.8 26.8,39.8 
		26.8,39.8 26.8,39.8 26.8,39.8 26.8,39.8 26.8,39.8 26.9,39.8 26.9,39.8 26.9,39.8 26.9,39.8 26.9,39.8 26.9,39.8 	"/>
</g>
<g id="HATCH_347_">
	<path class="st1" d="M36.2,35.3l-1,0l-1,0l-0.9,0l-0.5,0l-0.5,0l-0.5,0l-0.5,0l-0.5,0l-0.5,0l-0.5,0l-0.5,0l-0.4,0l-0.4,0l-0.4,0
		l-0.4,0l-0.4,0l-0.4,0l-0.4,0l-0.4,0l-0.4,0l-0.4,0l-0.4,0l-0.4,0l-0.4,0l-0.4,0l-0.4,0l-0.4,0l-0.4,0l-0.4,0l-0.4,0l-0.4,0l-0.3,0
		l-0.2,0l-0.2,0l-0.2,0l-0.2,0l-0.2,0l-0.2,0l-0.2,0l-0.2,0l-0.2,0l-0.2,0l-0.2,0l-0.2,0l-0.2,0l-0.2,0l-0.1,0l-0.1,0l-0.1,0.1
		L18,36.3l-0.1,0.1l-0.1,0.1l-0.1,0.1l-0.1,0.1l-0.1,0l-0.1,0l-0.1,0l-0.1,0l-0.1,0l-0.1,0l-0.1,0l-0.1,0l-0.1,0.1L16.8,37l-0.1,0.1
		l-0.1,0.1l-0.1,0.1l-0.1,0.1l-0.1,0.1l-0.1,0.1l-0.1,0.1l-0.1,0.1l-0.1,0.1L16,38l-0.1,0.1l-0.1,0.1l-0.1,0.1l-0.1,0.1l-0.1,0.1
		l-0.1,0.1l-0.1,0.1l-0.1,0.1l-0.1,0.1l-0.1,0.1l-0.1,0.3L15,39.7l-0.4,0.9l-0.1,0.3l-0.2,0.3l-0.6,1.3l-0.3,0.7l-0.2,0.3L13,43.9
		l-0.2,0.4l-0.2,0.4l-0.2,0.4l-0.2,0.4l-0.2,0.4L12,46.1l-0.1,0.2l-0.1,0.2l-0.1,0.2l-0.1,0.2L11.6,47l-0.1,0.2l-0.1,0.2l-0.1,0.2
		l-0.1,0.2L11.2,48l-0.1,0.2l-0.1,0.2L11,48.7L11,48.9l-0.1,0.2l-0.1,0.2l-0.1,0.2l-0.1,0.2l-0.1,0.2l-0.1,0.2l-0.1,0.2l-0.1,0.2
		l0,0.2l0,0.2l0,0.2l0,0.2l0,0.2l0,0.2l0,0.2l0,0.2l0,0.2l0,0.2L10,53.6l-0.1,0.7l-0.3,2L9.6,57l-0.1,0.6l0,0.3l0,0.3l0,0.3l0,0.3
		l0,0.3l0,0.3l0,0.3l0,0.3l0,0.3l0,0.3l0,0.3l0,0.3l0,0.3l0,0.3l0,0.3l0,0.3l0,0.3l0,0.4l0,0.4l0,0.4l0,0.4l0,0.4l0,0.4l0,0.4l0,0.4
		l0,0.4l0,0.4l0,0.4l0,0.4l0,0.4l0,0.4l0,0.4l0,0.3l0,0.3l0,0.3l0,0.3l0,0.3l0,0.3l0,0.3L9.7,71l0,0.1l0,0.1l0,0.1l0,0.1l0,0.1
		l0,0.1l0,0.1l0,0.1l0,0.1l0,0.1l0,0.1l0,0.1l0,0.1l0,0.1l0,0.1l0,0.1l0,0l0,0l0,0l0,0l0,0l0,0l0,0l0,0l0,0l0,0l0,0l0,0l0,0l0,0l0,0
		l0,0l0,0l0,0l0,0l0,0l0,0l0,0l0,0l0,0l0,0l0,0l0,0l0,0l0,0l0,0l0,0l0,0l0,0l0,0l0,0l0,0l0,0l0,0l0,0l0,0l0,0l0,0l0,0l0,0l0,0l0,0
		l0,0l0,0l0,0l0,0l0,0l0,0l0,0l0,0l0,0l0,0l0,0l0,0l0,0l0,0l0,0l0,0l0,0l0,0l0,0l0,0l0,0l0,0l0,0l0,0l0,0l0,0l0,0l0,0l0,0l0,0l0,0
		l0,0l0,0l0-0.1l0-0.1l0-0.1l0-0.1l0-0.1l0-0.1l0-0.1l0-0.1l0-0.1l0-0.1l0-0.1l0-0.1l0-0.1l0-0.1l0-0.1l0.1-0.2l0.1-0.2L12,71
		l0.1-0.2l0.1-0.2l0.1-0.3l0.1-0.3l0.1-0.3l0.1-0.3l0.1-0.3l0.1-0.3l0.1-0.3l0.1-0.3l0.1-0.3l0.1-0.3l0.1-0.3l0.1-0.3l0.1-0.3
		l0.1-0.5l0.1-0.6l0.1-0.6l0.4-1.8l0.1-0.6l0.1-0.6l0.1-0.6l0.1-0.6l0.1-0.3l0.1-0.3l0.1-0.3l0.1-0.3l0.1-0.3l0.1-0.3l0.1-0.3
		l0.1-0.3l0.1-0.5l0.1-0.5l0.1-0.5l0.1-0.5l0.1-0.5l0.1-0.5l0.1-0.5l0.1-0.5l0.1-0.4l0.1-0.4l0.1-0.4l0.1-0.4l0.1-0.4l0.1-0.4
		l0.1-0.2l0.1-0.2l0.1-0.2l0.1-0.2l0.1-0.2l0.1-0.2l0.1-0.2l0.1-0.2l0.1-0.1l0.1-0.1l0.1-0.1l0.1-0.1L18,50l0.1-0.1l0.1-0.1l0.1-0.1
		l0.1-0.1l0.1-0.1l0.1-0.1l0.1-0.1l0,0l0,0l0,0l0,0l0,0l0,0l0,0l0,0l0,0l0,0l0,0l0,0l0,0l0,0l0,0l0,0l0,0l0,0l0,0l0,0l0,0l0,0l0,0
		l0,0l0,0l0,0l0,0l0,0l0,0l0,0l0,0l0,0l0,0l0,0l0,0l0,0l0,0l0,0l0,0l0,0l0,0l0,0l0,0l0,0l0,0l0,0l0,0l0,0l0,0l0,0l0,0l0,0l0,0l0,0
		l0,0l0,0l0,0l0,0l0,0l0,0l0,0l0,0l0,0l0,0.1l0,0.1l0,0.1l0,0.1l0,0.1l0,0.1l0,0.1l0,0.1l0,0.1l0,0.1l0,0.1l0,0.3l0,0.3l0,0.3l0,0.3
		l0,0.3l0,0.3l0,0.3l0,0.4l0,0.4l0,0.4l0,0.4l0,0.4l0,0.4l-0.1,0.8l-0.1,0.8l-0.1,0.8l-0.1,0.8l-0.2,1.5l-0.3,3.2l-0.1,0.7L18,64
		L18,64.6l-0.1,0.6l0,0.5l0,0.5l0,0.5l0,0.5l0,0.5l0,0.5l0,0.5l0,0.5l0,0.6l0,0.6l0,0.6l0,0.6l0,0.6l0,0.6l0,0.7l0,0.7l0,0.7l0,0.7
		l0,0.7l0,0.7l0,0.7l0,0.7l0,0.7l0,0.7l0,0.9l0,0.9l0,0.9l0,0.8l0,0.8l0,0.8l0,0.8l0.1,0.8l0.1,0.8l0.1,0.8l0.1,1.6l0.2,3.2l0.1,1.6
		l0,0.8l0,0.8l0,0.8l0,0.8l0,0.8l0,0.8l0,0.8l0,0.8l0,0.8l0,0.8l0,0.8l0,0.8l0,0.4l0,0.4l0,0.4l0,0.4l0,0.6l0,0.6l0,0.6l0,0.6l0,0.6
		l0,0.6l0,0.6l0,0.6l0,1.3l-0.1,2.7l0,1.4l0,0.7l0,0.7l0,0.7l0,0.7l0,0.7l0,0.7l0,0.7l0,0.7l0,0.3l0,0.3l0,0.3l0,0.3l0,0.3l0,0.3
		l0,0.3l0,0.3l0,0.3l0,0.3l0,0.3l0,0.3l0,0.3l0,0.3l0,0.3l0,0.3l0,0.3l0,0.3l0,0.3l0,0.2l0,0.2l0,0.2l0,0.2l0,0.2l0,0.2l0.1,0.2
		l0,0.1l0,0.1l0,0.1l0,0.1l0,0.1l0,0.1l0,0.1l0,0.1l0,0.1l0,0.1l0,0.1l0,0.1l0,0.1l0,0.1l0,0.1l0,0.1l0,0.1l0,0.1l0,0.1l0,0.1l0,0.1
		l0,0l0,0l0,0l0,0l0,0l0,0l0,0l0,0l0,0l0,0l0,0l0,0l0,0l0,0l0,0l0,0l0,0l0,0l0,0l0,0l0,0l0,0l0,0l0,0l0,0l0,0l0,0l0,0l0,0l0,0l0,0
		l0,0l0,0l0,0l0,0l0,0l0,0l0,0l0,0l0,0l0,0l0,0l0,0l0,0l0,0l0,0l0,0l0,0l0.1,0l0.1,0l0.1,0l0.1,0l0.1,0l0.1,0l0.1,0l0.1,0l0.1,0
		l0.1,0l0.1,0l0.1,0l0.1,0l0.1,0l0.1-0.1l0.1-0.1l0.1-0.1l0.1-0.1l0.1-0.1l0.1-0.1l0.1-0.1l0.1-0.1l0.1-0.1l0.1-0.1l0.1-0.1l0.1-0.1
		l0.1-0.1l0.1-0.1l0.1-0.1l0.1-0.1l0.1-0.1l0.1-0.1l0.1-0.1l0.1-0.1l0.1-0.1l0.1-0.1l0.1-0.1l0.1-0.1l0.1-0.1l0.1-0.1l0.1-0.1
		l0.1-0.1l0-0.1l0-0.1l0-0.1l0-0.1l0-0.1l0-0.1l0-0.1l0-0.1l0-0.1l0-0.1l0-0.1l0-0.1l0-0.1l0-0.1l0-0.1l0-0.1l0-0.1l0-0.1l0-0.1
		l0-0.1l0-0.1l0-0.2l0-0.2l0-0.2l0-0.2l0-0.2l0-0.2l0-0.2l0-0.2l0-0.2l0-0.2l0-0.2l0-0.2l0-0.2l0-0.2l0-0.5l0-0.4l0-0.4l0-0.9l0-0.4
		l0-0.4l0-0.2l0-0.2l0-0.2l0-0.2l0-0.2l0-0.2l0-0.2l0-0.2l0-0.2l0-0.2l0-0.3l0-0.3l0-0.3l0-0.3l0.2-1.2l0-0.3l0-0.3l0-0.3l0-0.3
		l0-0.2l0-0.2l0-0.3l0-0.3l0-0.3l0-0.3l0-0.3l0-0.3l0-0.3l0-0.3l0-0.3l0-0.3l0-0.3l0-0.3l0-0.3l0-0.3l0-0.6l0-0.6l-0.1-2l0-0.7
		l0-0.6l0-0.3l0-0.3l0-0.3l0-0.3l0-0.3l0-0.3l0-0.3l0-0.3l0-0.3l0-0.3l0-0.5l0-0.5l0-0.5l0-0.5l0-0.5l0-0.5l0-0.5l0-0.5l0-0.5
		l0.1-2.1l0-0.7l0-0.7l0-0.7l0-0.7l0-0.4l0-0.4l0-0.4l0-0.4l0-0.4l0-0.4l0-0.4l0-0.4l0-2l0-0.5l0-0.5l0-0.3l0-0.3l0-0.3l0-0.3l0-0.3
		l0-0.3l0-0.3l0-0.3l0-0.3l0-0.3l0-0.3l0-0.3l0-0.3l0-0.3l0-0.3l0-0.3l0.1-0.3l0.1-0.3l0.1-0.3l0.1-0.3l0-0.2l0-0.2l0-0.2l0-0.2
		l0-0.2l0-0.2l0.1-0.2l0.1-0.2l0.1-0.2l0.1-0.2l0.1-0.2l0.1-0.2l0.1-0.1l0.1-0.1l0.1-0.1l0-0.1l0-0.1l0-0.1l0-0.1l0-0.1l0,0l0,0l0,0
		l0,0l0,0l0,0l0,0l0,0l0,0l0,0l0,0l0,0l0,0l0,0l0,0l0,0l0,0l0,0l0,0l0,0l0,0l0,0l0,0l0,0l0,0l0,0l0,0l0,0l0,0l0,0l0,0l0,0l0,0l0,0
		l0,0l0,0l0,0l0,0l0,0l0,0l0,0l0,0l0,0l0,0l0,0l0,0l0,0l0,0l0,0l0,0l0,0l0,0l0,0l0,0l0,0l0,0l0,0l0,0l0,0l0,0l0,0l0,0l0,0l0,0l0,0
		l0,0l0,0l0,0l0,0l0,0l0,0l0,0l0,0l0,0l0,0l0,0l0,0l0,0l0,0l0,0.1l0,0.1l0,0.1l0,0.1l0,0.1l0,0.1l0.1,0.2l0.1,0.3l0.1,0.3l0.1,0.3
		l0.1,0.3l0.1,0.3l0.1,0.3l0.1,0.3l0.1,0.3l0.1,0.3l0.1,0.3l0.1,0.3l0.1,0.3l0.1,0.3l0.1,0.3l0.1,0.3l0.1,0.3l0.1,0.3l0.1,0.6
		l0.1,0.6l0.3,1.7l0.1,0.5l0.1,0.4l0.1,0.4l0.1,0.4l0.1,0.4l0.1,0.7l0.2,1.3l0.1,0.6l0.1,0.3l0.1,0.3l0.1,0.3l0.1,0.3l0.1,0.4
		l0.1,0.4l0.1,0.4l0.1,0.4l0.1,0.4l0.1,0.4l0.1,0.4l0.1,0.4l0.1,0.4l0,0.4l0,0.4l0,0.4l0,0.5l0,0.5l0.1,0.9l0.1,0.9l0.1,0.9l0.1,0.9
		l0.3,3.5l0.1,0.8l0.1,0.7l0.1,0.7l0.1,1.4l0.1,1.3l0.1,0.7l0.1,0.7l0.1,0.7l0.1,0.7l0.1,0.7l0,0.7l0,0.8l0,0.4l0,0.4l0,0.4l0,0.4
		l0,0.4l0,0.4l0.1,2.3l0,0.6l0,0.6l0,0.3l0,0.3l0,0.3l0,0.3l0,0.3l0,0.3l0,0.3l0,0.3l0,0.3l0,0.3l0,0.3l0,0.3l0,0.3l0,0.3l0,0.3
		l0,0.3l0,0.3l0.1,0.2l0.1,0.2l0.1,0.2l0,0.1l0,0.1l0,0.1l0,0.1l0,0.1l0,0.1l0,0.1l0,0.1l0,0.1l0,0.1l0,0.1l0,0.1l0.1,0.1l0.1,0.1
		l0.1,0.1l0.1,0.1l0.1,0.1l0.1,0.1l0.1,0.1l0.1,0.1l0.1,0.1l0.1,0.1l0.1,0.1l0.1,0.1l0.1,0.1l0.1,0.1l0.1,0.1l0.1,0.1l0.1,0.1
		l0.1,0.1l0.1,0.1l0.1,0.1l0.1,0.1l0.1,0.1l0.1,0.1l0.1,0.1l0.1,0.1l0.1,0.1l0.1,0.1l0.1,0.1l0.1,0.1l0.1,0l0.1,0l0.1,0l0.1,0l0.1,0
		l0.1,0l0.1,0l0.1,0l0.1,0l0.1,0l0.1,0l0.1,0l0.1,0l0.1,0l0.1,0l0.1,0l0.1,0l0,0l0,0l0,0l0,0l0,0l0,0l0,0l0,0l0,0l0,0l0,0l0,0l0,0
		l0,0l0,0l0,0l0,0l0,0l0,0l0,0l0,0l0,0l0,0l0,0l0,0l0,0l0,0l0,0l0,0l0,0l0,0l0,0l0,0l0,0l0,0l0,0l0,0l0,0l0,0l0,0l0,0l0,0l0,0l0,0
		l0,0l0,0l0.1-0.1l0.1-0.1l0.1-0.1l0.1-0.1l0.1-0.1l0.1-0.1l0-0.1l0-0.1l0-0.1l0-0.1l0-0.1l0-0.1l0-0.2l0-0.2l0-0.2l0-0.2l0-0.2
		l0-0.2l0-0.2l0-0.2l0-0.2l0-0.2l0-0.2l0-0.2l0-0.2l0-0.2l0-0.2l0-0.2l0-0.2l0-0.2l0-0.2l0-0.2l0-0.2l0-0.2l0-0.2l0-0.5l0-0.5l0-0.5
		l0-0.5l0-0.5l0-0.5l0-0.5l0-0.5l0-0.5l0-0.5l0-0.5l0-0.5l0-0.5l0-0.6l0-0.6l0-0.6l0-0.6l0-0.6l0-0.6l0-0.6l-0.1-1.1l-0.1-1.1
		l-0.1-1.1l-0.2-4.4l-0.1-1l0-1l0-0.7l0-0.7l0-0.7l0-0.6l0-1.3l0-1.2l-0.1-2.3l0-1.1l0-0.6l0-0.6l0-0.6l0-0.6l0-0.6l0-0.6l0-0.6
		l0-0.6l0-0.6l0-0.6l0-0.6l-0.1-0.6L39.3,87l-0.1-0.7l-0.1-0.7l-0.1-0.7L39,84.2l-0.1-0.7l-0.1-0.8l-0.2-1.6l-0.1-0.8l0-0.4l0-0.4
		l0-0.4l0-0.4l0-0.4l0-0.4l0-0.4l0-0.4l0-0.4l0-0.4l0-0.4l0-0.4l0-0.4l0-0.4l0-0.4l0-0.4l0-0.4l0-0.4l0-0.4l0-0.4l0-0.7l0-0.7l0-2
		l0-0.7l0-0.3l0-0.3l0-0.3l0-0.3l0-0.3l0-0.3l0-0.3l0-0.3l0-0.3l0-0.3l0-0.4l0-0.4l0-0.4l0-0.4l0-0.4l0-0.4l0-0.4l0-0.4l-0.1-0.8
		l-0.1-0.8l-0.2-2.5l-0.1-0.9l-0.1-0.9l0-0.5l0-0.5l0-0.5l0-0.5l0-0.5l0-0.5l0-0.5l0-0.5l0-0.5l0-0.5l0-0.5l0-0.2l0-0.2l0-0.2l0-0.2
		l0-0.2l0-0.2l0-0.2l0-0.2l0-0.1l0-0.1l0-0.1l0-0.1l0-0.1l0,0l0,0l0,0l0,0l0,0l0,0l0,0l0,0l0,0l0,0l0,0l0,0l0,0l0,0l0,0l0,0l0,0l0,0
		l0,0l0,0l0,0l0,0l0,0l0,0l0,0l0,0l0,0l0,0l0,0l0,0l0,0l0,0l0,0l0,0l0,0l0,0l0,0l0,0l0,0l0,0l0,0l0,0l0,0l0,0l0,0l0,0l0,0l0,0l0,0
		l0,0l0,0l0,0l0,0l0,0l0,0l0,0l0,0l0,0l0,0l0,0l0,0.1l0,0.1l0,0.1l0,0.1l0,0.1l0,0.1l0,0.1l0,0.1l0,0.1l0,0.1l0,0.1l0,0.1l0.2,0.7
		l0.2,0.6l0.2,0.6l0.2,0.5l0.2,0.5l0.4,1.3l1,3.2l0.3,0.8l0.1,0.4l0.1,0.4l0.1,0.4l0.1,0.4l0.1,0.4l0.1,0.4l0.1,0.4l0.1,0.4l0.1,0.4
		l0.1,0.4l0.1,0.4l0.1,0.4l0.1,0.4l0.1,0.4l0.1,0.6l0.1,0.6l0.1,0.6l0.1,0.6l0.2,0.9l0.1,0.5l0,0.2l0,0.2l0.1,0.2l0.1,0.2l0.1,0.2
		l0.1,0.2l0.1,0.2l0.1,0.2l0.1,0.2l0.1,0.2l0,0.1l0,0.1l0,0.1l0,0.1l0,0.1l0,0.1l0.1,0.1l0.1,0.1l0.1,0.1l0.1,0.1l0.1,0.1l0.1,0.1
		l0.1,0.1l0.1,0.1l0,0l0,0l0,0l0,0l0,0l0,0l0,0l0,0l0,0l0,0l0,0l0,0l0,0l0,0l0,0l0,0l0,0l0,0l0,0l0,0l0,0l0,0l0,0l0,0l0,0l0,0l0,0
		l0,0l0,0l0,0l0,0l0,0l0,0l0,0l0,0l0,0l0,0l0,0l0,0l0,0l0,0l0,0l0,0l0,0l0,0l0,0l0,0l0,0l0,0l0,0l0,0l0,0l0,0l0,0l0,0l0,0l0,0l0,0
		l0,0l0,0l0,0l0,0l0,0l0,0l0,0l0,0l0,0l0,0l0,0l0,0l0,0l0,0l0,0l0,0l0,0l0,0l0,0l0,0l0,0l0,0l0,0l0-0.1l0-0.1l0-0.1l0-0.1l0-0.1
		l0-0.1l0-0.1l0-0.1l0-0.1l0-0.1l0-0.1l0-0.1l0-0.1l0-0.1l0-0.1l0-0.1l0-0.1l0-0.1l0-0.1l0-0.1l0-0.1l0-0.1l0-0.1l0-0.1l0-0.1l0-0.1
		l0-0.1l0-0.2l0-0.2l0-0.2l0-0.2l0-0.2l0-0.2l0-2l0-0.4l0-0.4l0-0.4l0-0.4l0-0.4l0-0.4l0-0.2l0-0.2l0-0.2l0-0.2l0-0.2l0-0.2l0-0.2
		l0-0.2l0-0.2l0-0.2l0-0.2l0-0.2l0-0.2l0-0.2l0-0.2l0-0.2l0-0.2l0-0.2l0-0.2l0-0.2l-0.1-0.4l-0.1-0.4L46,58.7l-0.3-1.2l-0.1-0.4
		l-0.1-0.4l0-0.2l0-0.2l0-0.2l0-0.2l0-0.2l0-0.2l0-0.2l0-0.2l0-0.2l0-0.2l-0.1-0.4L45,53.7l-0.1-0.4l-0.1-0.4l0-0.2l0-0.2l0-0.2
		l0-0.2l0-0.1l0-0.1l0-0.1l0-0.1l-0.1-0.3l-0.1-0.3l-0.2-0.6l-0.1-0.3l-0.1-0.3l-0.1-0.3L44,49.3l-0.2-0.9l-0.1-0.3l-0.1-0.3l0-0.1
		l0-0.1l0-0.1l0-0.1l-0.1-0.3l-0.1-0.3l-0.1-0.3l-0.2-0.6L43,45.5l-0.1-0.3l-0.1-0.3l-0.1-0.3L42.6,44l-0.2-0.6l-0.1-0.3l-0.1-0.3
		l-0.1-0.3L42,42.2l-0.1-0.3l0-0.2l-0.1-0.1l-0.1-0.1l-0.1-0.1l-0.1-0.1L41.6,41l-0.1-0.1l-0.1-0.1l-0.1-0.1l-0.1-0.1l-0.1-0.2
		L41.2,40l-0.1-0.2L41,39.7l-0.1-0.2l-0.1-0.2l-0.1-0.2L40.6,39l-0.1-0.2l-0.1-0.2l-0.1-0.2l-0.1-0.2L40,38.2L39.9,38l-0.1-0.2
		l-0.1-0.2l-0.1-0.1l-0.1-0.1l-0.1-0.1l-0.1-0.1l-0.1-0.1L39,37.1l-0.1-0.1l-0.1-0.1l-0.1-0.1l-0.1-0.1l-0.1-0.1l-0.1-0.1l-0.1-0.1
		l-0.1-0.1L38,36.2l-0.1-0.1L37.8,36l-0.1-0.1l-0.1-0.1l-0.1-0.1l-0.1-0.1l-0.1-0.1l-0.1-0.1L37,35.5l-0.1,0l-0.1,0l-0.1,0l-0.1,0
		l-0.1,0l-0.1,0l-0.1,0l-0.1,0l0,0l0,0l0,0l0,0L36.2,35.3L36.2,35.3L36.2,35.3z M26.9,39.9l0,0.2l0,0.2l0,0.2l0,0.2l0,0.2l0,0.2
		l0,0.2l0,0.2l0,0.2l0,0.2l0,0.2l0,0.2l0,0.3l0,0.3l0,0.3l0,0.3l0,0.5l0,0.5l0,0.5l0,0.5l0,0.5l0,0.5l0,0.5l0,0.5l0,0.5l0,0.5l0,0.5
		l0,0.5l0,0.5l0,0.5l0,0.5l0,0.5l0,0.4l0,0.4l0,0.4l0,0.4l0,0.4l0,0.4l0,0.4l0,0.4l0,0.3l0,0.3l0,0.3l0,0.3l0,0.3l0,0.3l0,0.3l0,0.3
		l0,0.3l0,0.3l0,0.3l0,0.2l0,0.2l0,0.2l0,0.2l0,0.2l0,0.2l0,0.2l0,0.2l0,0.2l0,0.2l0,0.2l0,0.2l0,0.1l0.1,0.2l0.1,0.3l0.2,0.5
		l0.1,0.3l0.1,0.3l0.1,0.1l0.1,0.1l0.1,0.1l0.1,0.1l0.1,0.1l0.1,0.1l0.1,0.1l0.1,0.1l0.1,0.1l0.1,0.1l0.1,0.2l0.2,0.4l0.1,0.2
		l0.1,0.2l0.1,0.1l0.1,0.1l0.1,0.2l0.2,0.3l0.1,0.1l0.1,0.1l0.1,0.1l0.1,0.1l0,0l0,0l0,0l0,0l0,0l0,0l0,0l0,0l0,0l0,0l0,0l0,0l0,0
		l0,0l0,0l0,0l0,0l0,0l0,0l0,0l0,0l0,0l0,0l0,0l0,0l0,0l0,0l0,0l0,0l0,0l0,0l0,0l0,0l0,0l0,0l0,0l0.1-0.1l0.1-0.1l0.1-0.1l0.1-0.1
		l0.3-0.5l0.1-0.1l0.1-0.1l0.1-0.2l0.1-0.2l0.2-0.4l0.1-0.2l0.1-0.1l0.1-0.1l0.1-0.1l0.1-0.1l0.1-0.1l0.1-0.1l0.1-0.1l0.1-0.1
		l0.1-0.1l0.1-0.1l0.1-0.3l0.1-0.3l0.2-0.5l0.1-0.3l0.1-0.2l-0.1-0.4l-0.1-0.4l-0.1-0.4l-0.1-0.4L30.4,59l-0.1-0.3l-0.1-0.3L30.2,58
		l-0.1-0.3l0-0.3l0-0.3l0-0.3l0-0.2l0-0.2L29.9,56l0-0.4l0-0.4l0-0.4l0-0.4l0-0.4l0-0.4l0-0.4l0-0.4l0-0.4l0-0.4l0-0.4l0-0.4l0-0.4
		l0-0.4l0-0.4l0-0.4L29.2,49l-0.1-1.6L29,46.6l-0.1-0.8l0-0.4l0-0.4l0-0.4l0-0.4l0-0.4l0-0.4l-0.1-0.4l-0.2-1.3l-0.1-0.4l0-0.2
		l0-0.2l0-0.2l0-0.2l0-0.2l0-0.2l0,0l0,0l0,0l0,0l0,0l0,0l0,0l0,0l0,0l0,0l0,0l0,0l0,0l0,0l0,0l0,0l0,0l0,0l0,0l0,0l0,0l0,0l0,0l0,0
		l0,0l0,0l0,0l0,0l0,0l0,0l0,0l0,0l0,0l0,0l0,0l0,0l0,0l0,0l0,0l0,0l0,0l0,0l0,0l0-0.1l0-0.1l0-0.1l-0.1-0.2l0-0.1l0-0.1l0-0.1
		l0-0.1l0-0.1l0-0.1l0-0.1l0-0.1l0,0l0,0l0,0l0,0l0,0l0,0l0,0l0,0l0,0l0,0l0,0l0,0l0,0l0,0l0,0l0,0l0,0l0,0l0,0l0,0l0,0l0,0l0,0l0,0
		l0,0l0,0l0,0l0,0l0,0l0,0l0,0l0,0l0,0l0,0l0,0l0,0l0,0l0,0l0,0l0,0l0,0l0,0l0,0l0,0l0,0l0,0l0,0l0,0l0,0l0,0l0,0l0,0l0,0l0,0l0,0
		l0,0l0,0l0,0l0,0l0,0l0,0l0,0l0,0l0,0l0,0l0,0l0,0l0,0l0,0l0,0l0,0l0,0l0,0l0,0l0,0l0,0l0,0l0,0l0,0l0,0l0,0l0,0l0,0l0,0l0,0l0,0
		l0,0l0,0l0,0l0,0l0,0l0,0l0,0l0,0.1l0,0.1l0,0.1l0,0.1l0,0.1l0,0.1l0,0.1l0,0.1l0,0.1l0,0.1l0,0.1l0,0.1l0,0.1l0,0.1l0,0.1l0,0.1
		l0,0.1l0,0.1l0,0.1l0,0l0,0l0,0l0,0l0,0l0,0l0,0l0,0l0,0l0,0l0,0l0,0l0,0l0,0l0,0l0,0l0,0l0,0l0,0l0,0l0,0l0,0l0,0l0,0l0,0l0,0l0,0
		l0,0l0,0l0,0l0,0l0,0l0,0l0,0l0,0l0,0l0,0l0,0l0,0l0,0l0,0l0,0L26.9,39.9L26.9,39.9L26.9,39.9L26.9,39.9L26.9,39.9L26.9,39.9
		L26.9,39.9L26.9,39.9L26.9,39.9L26.9,39.9z"/>
</g>
<g id="POLYLINE_574_">
	<path class="st0" d="M36.2,35.3L36.2,35.3L36.2,35.3c0.1,0,0.1,0,0.1,0l0,0c0,0,0,0,0,0s0,0,0,0s0,0,0,0l0.1,0c0,0,0.1,0,0.1,0
		l0.1,0l0.1,0l0.1,0l0.1,0l0.1,0l0.1,0l0.1,0.1c0,0,0.1,0.1,0.1,0.1l0.1,0.1l0.1,0.1l0.1,0.1l0.1,0.1l0.1,0.1l0.1,0.1l0.1,0.1
		c0,0,0.1,0.1,0.1,0.1l0.1,0.1c0,0,0.1,0.1,0.1,0.1l0.1,0.1l0.1,0.1l0.1,0.1l0.1,0.1l0.1,0.1c0,0,0.1,0.1,0.1,0.1s0.1,0.1,0.1,0.1
		l0.1,0.1l0.1,0.1l0.1,0.1l0.1,0.1l0.1,0.1l0.1,0.2l0.1,0.2l0.1,0.2l0.1,0.2c0,0,0.1,0.2,0.1,0.2l0.1,0.2l0.1,0.2l0.1,0.2
		c0,0,0.1,0.2,0.1,0.2l0.1,0.2l0.1,0.2l0.1,0.2l0.1,0.2l0.1,0.2c0,0,0.1,0.2,0.1,0.2l0.1,0.2l0.1,0.1c0,0,0.1,0.1,0.1,0.1l0.1,0.1
		l0.1,0.1l0.1,0.1l0.1,0.1c0,0,0.1,0.1,0.1,0.1l0.1,0.1l0.1,0.1l0,0.2c0,0,0.1,0.3,0.1,0.3l0.1,0.3c0,0,0.1,0.3,0.1,0.3
		s0.1,0.3,0.1,0.3l0.1,0.3l0.2,0.6l0.2,0.6l0.1,0.3l0.1,0.3l0.1,0.3l0.1,0.3l0.2,0.6l0.1,0.3l0.1,0.3l0.1,0.3l0,0.1l0,0.1l0,0.1
		c0,0,0,0.1,0,0.1l0.1,0.3c0,0,0.1,0.3,0.1,0.3s0.2,0.9,0.2,0.9l0.1,0.3c0,0,0.1,0.3,0.1,0.3l0.1,0.3c0,0,0.1,0.3,0.1,0.3l0.2,0.6
		l0.1,0.3l0.1,0.3l0,0.1c0,0,0,0.1,0,0.1l0,0.1c0,0,0,0.1,0,0.1s0,0.2,0,0.2l0,0.2c0,0,0,0.2,0,0.2s0,0.2,0,0.2s0.1,0.4,0.1,0.4
		l0.1,0.4c0,0,0.1,0.7,0.1,0.7s0.1,0.4,0.1,0.4s0,0.2,0,0.2l0,0.2l0,0.2c0,0,0,0.2,0,0.2l0,0.2l0,0.2c0,0,0,0.2,0,0.2l0,0.2
		c0,0,0,0.2,0,0.2l0,0.2l0.1,0.4l0.1,0.4l0.3,1.2l0.1,0.4c0,0,0.1,0.4,0.1,0.4s0.1,0.4,0.1,0.4l0,0.2l0,0.2l0,0.2l0,0.2l0,0.2l0,0.2
		c0,0,0,0.2,0,0.2l0,0.2l0,0.2c0,0,0,0.2,0,0.2l0,0.2c0,0,0,0.2,0,0.2l0,0.2c0,0,0,0.2,0,0.2l0,0.2l0,0.2l0,0.2l0,0.2
		c0,0,0,0.2,0,0.2l0,0.2l0,0.4l0,0.4c0,0,0,0.4,0,0.4s0,0.4,0,0.4s0,0.4,0,0.4l0,0.4l0,2l0,0.2l0,0.2l0,0.2l0,0.2l0,0.2
		c0,0,0,0.2,0,0.2l0,0.1l0,0.1c0,0,0,0.1,0,0.1s0,0.1,0,0.1l0,0.1l0,0.1l0,0.1l0,0.1c0,0,0,0.1,0,0.1l0,0.1c0,0,0,0.1,0,0.1l0,0.1
		l0,0.1c0,0,0,0.1,0,0.1s0,0.1,0,0.1l0,0.1c0,0,0,0.1,0,0.1l0,0.1c0,0,0,0.1,0,0.1l0,0.1c0,0,0,0.1,0,0.1l0,0.1c0,0,0,0.1,0,0.1
		l0,0.1l0,0.1c0,0,0,0.1,0,0.1s0,0.1,0,0.1l0,0l0,0l0,0l0,0l0,0l0,0l0,0l0,0c0,0,0,0,0,0l0,0l0,0c0,0,0,0,0,0s0,0,0,0l0,0l0,0l0,0
		c0,0,0,0,0,0l0,0l0,0l0,0l0,0c0,0,0,0,0,0s0,0,0,0l0,0l0,0l0,0c0,0,0,0,0,0l0,0l0,0l0,0l0,0l0,0l0,0l0,0l0,0l0,0l0,0l0,0l0,0
		c0,0,0,0,0,0l0,0c0,0,0,0,0,0l0,0c0,0,0,0,0,0s0,0,0,0l0,0c0,0,0,0,0,0l0,0l0,0l0,0l0,0l0,0c0,0,0,0,0,0s0,0,0,0s0,0,0,0s0,0,0,0
		l0,0l0,0l0,0c0,0,0,0,0,0c0,0,0,0,0,0c0,0,0,0,0,0c0,0,0,0,0,0l0,0c0,0,0,0,0,0s0,0,0,0s0,0,0,0l0,0l0,0l0,0l0,0l0,0l0,0l0,0l0,0
		l0,0l0,0c0,0-0.1-0.1-0.1-0.1l-0.1-0.1l-0.1-0.1l-0.1-0.1l-0.1-0.1L43.7,71l-0.1-0.1c0,0-0.1-0.1-0.1-0.1l0-0.1c0,0,0-0.1,0-0.1
		l0-0.1l0-0.1l0-0.1l0-0.1l-0.1-0.2l-0.1-0.2l-0.1-0.2c0,0-0.1-0.2-0.1-0.2L43,69.1L43,68.9c0,0-0.1-0.2-0.1-0.2l-0.1-0.2l0-0.2
		l0-0.2l-0.1-0.5l-0.2-0.9c0,0-0.1-0.6-0.1-0.6s-0.1-0.6-0.1-0.6l-0.1-0.6L42,64.3l-0.1-0.4l-0.1-0.4l-0.1-0.4l-0.1-0.4
		c0,0-0.1-0.4-0.1-0.4l-0.1-0.4l-0.1-0.4l-0.1-0.4c0,0-0.1-0.4-0.1-0.4l-0.1-0.4c0,0-0.1-0.4-0.1-0.4s-0.1-0.4-0.1-0.4
		s-0.1-0.4-0.1-0.4l-0.1-0.4l-0.3-0.8l-1-3.2l-0.4-1.3l-0.2-0.5c0,0-0.2-0.5-0.2-0.5l-0.2-0.6L38,51.1l-0.2-0.7l0-0.1
		c0,0,0-0.1,0-0.1s0-0.1,0-0.1l0-0.1l0-0.1l0-0.1c0,0,0-0.1,0-0.1s0-0.1,0-0.1l0-0.1l0-0.1c0,0,0-0.1,0-0.1l0-0.1l0,0l0,0l0,0l0,0
		l0,0c0,0,0,0,0,0c0,0,0,0,0,0c0,0,0,0,0,0c0,0,0,0,0,0c0,0,0,0,0,0c0,0,0,0,0,0c0,0,0,0,0,0c0,0,0,0,0,0c0,0,0,0,0,0c0,0,0,0,0,0
		c0,0,0,0,0,0c0,0,0,0,0,0c0,0,0,0,0,0c0,0,0,0,0,0l0,0l0,0l0,0l0,0l0,0l0,0.1l0,0.1l0,0.1l0,0.1l0,0.1l0,0.2l0,0.2l0,0.2l0,0.2
		l0,0.2c0,0,0,0.2,0,0.2l0,0.2l0,0.2l0,0.5l0,0.5l0,0.5l0,0.5l0,0.5l0,0.5l0,0.5l0,0.5l0,0.5l0,0.5l0,0.5l0.1,0.9
		c0,0,0.1,0.9,0.1,0.9s0.2,2.5,0.2,2.5s0.1,0.8,0.1,0.8s0.1,0.8,0.1,0.8s0,0.4,0,0.4l0,0.4l0,0.4l0,0.4c0,0,0,0.4,0,0.4s0,0.4,0,0.4
		l0,0.4l0,0.4l0,0.3l0,0.3l0,0.3l0,0.3l0,0.3l0,0.3l0,0.3l0,0.3l0,0.3l0,0.3l0,0.7c0,0,0,2,0,2l0,0.7l0,0.7c0,0,0,0.4,0,0.4
		s0,0.4,0,0.4l0,0.4l0,0.4l0,0.4l0,0.4c0,0,0,0.4,0,0.4l0,0.4l0,0.4l0,0.4l0,0.4l0,0.4l0,0.4l0,0.4l0,0.4l0,0.4c0,0,0,0.4,0,0.4
		l0,0.4l0,0.4l0,0.4c0,0,0.1,0.8,0.1,0.8l0.2,1.6l0.1,0.8l0.1,0.7l0.1,0.7l0.1,0.7l0.1,0.7c0,0,0.1,0.7,0.1,0.7l0.1,0.6l0.1,0.6
		l0,0.6l0,0.6l0,0.6l0,0.6l0,0.6l0,0.6c0,0,0,0.6,0,0.6l0,0.6l0,0.6l0,0.6l0,0.6l0,1.1l0.1,2.3c0,0,0,1.2,0,1.2l0,1.3l0,0.6l0,0.7
		c0,0,0,0.7,0,0.7s0,0.7,0,0.7l0,1l0.1,1l0.2,4.4l0.1,1.1l0.1,1.1l0.1,1.1l0,0.6l0,0.6l0,0.6l0,0.6l0,0.6l0,0.6c0,0,0,0.6,0,0.6
		s0,0.5,0,0.5s0,0.5,0,0.5l0,0.5l0,0.5l0,0.5l0,0.5l0,0.5l0,0.5l0,0.5l0,0.5l0,0.5c0,0,0,0.5,0,0.5s0,0.5,0,0.5s0,0.2,0,0.2l0,0.2
		l0,0.2l0,0.2l0,0.2c0,0,0,0.2,0,0.2l0,0.2l0,0.2l0,0.2l0,0.2c0,0,0,0.2,0,0.2s0,0.2,0,0.2l0,0.2l0,0.2c0,0,0,0.2,0,0.2l0,0.2
		c0,0,0,0.2,0,0.2l0,0.2c0,0,0,0.2,0,0.2l0,0.2l0,0.2c0,0,0,0.2,0,0.2l0,0.2l0,0.1l0,0.1l0,0.1l0,0.1l0,0.1l0,0.1
		c0,0-0.1,0.1-0.1,0.1s-0.1,0.1-0.1,0.1s-0.1,0.1-0.1,0.1s-0.1,0.1-0.1,0.1l-0.1,0.1l-0.1,0.1l0,0l0,0l0,0l0,0c0,0,0,0,0,0l0,0l0,0
		l0,0l0,0l0,0l0,0l0,0l0,0l0,0c0,0,0,0,0,0l0,0c0,0,0,0,0,0l0,0l0,0l0,0c0,0,0,0,0,0l0,0l0,0l0,0l0,0l0,0l0,0c0,0,0,0,0,0s0,0,0,0
		s0,0,0,0l0,0l0,0l0,0l0,0l0,0l0,0l0,0l0,0l0,0l0,0l0,0c0,0,0,0,0,0l0,0l0,0l0,0l0,0l-0.1,0l-0.1,0l-0.1,0l-0.1,0l-0.1,0l-0.1,0
		l-0.1,0l-0.1,0c0,0-0.1,0-0.1,0l-0.1,0l-0.1,0c0,0-0.1,0-0.1,0l-0.1,0l-0.1,0l-0.1,0l-0.1,0l-0.1,0l-0.1-0.1c0,0-0.1-0.1-0.1-0.1
		l-0.1-0.1l-0.1-0.1l-0.1-0.1l-0.1-0.1l-0.1-0.1l-0.1-0.1l-0.1-0.1c0,0-0.1-0.1-0.1-0.1s-0.1-0.1-0.1-0.1l-0.1-0.1l-0.1-0.1
		c0,0-0.1-0.1-0.1-0.1l-0.1-0.1l-0.1-0.1l-0.1-0.1c0,0-0.1-0.1-0.1-0.1l-0.1-0.1c0,0-0.1-0.1-0.1-0.1s-0.1-0.1-0.1-0.1l-0.1-0.1
		l-0.1-0.1l-0.1-0.1l-0.1-0.1l-0.1-0.1l-0.1-0.1c0,0-0.1-0.1-0.1-0.1s-0.1-0.1-0.1-0.1l0-0.1c0,0,0-0.1,0-0.1s0-0.1,0-0.1
		s0-0.1,0-0.1s0-0.1,0-0.1l0-0.1c0,0,0-0.1,0-0.1l0-0.1l0-0.1l0-0.1c0,0,0-0.1,0-0.1l0-0.1l-0.1-0.2l-0.1-0.2l-0.1-0.2l0-0.3l0-0.3
		l0-0.3l0-0.3c0,0,0-0.3,0-0.3s0-0.3,0-0.3l0-0.3l0-0.3l0-0.3l0-0.3l0-0.3l0-0.3l0-0.3l0-0.3l0-0.3l0-0.3l0-0.3c0,0,0-0.6,0-0.6
		s0-0.6,0-0.6l-0.1-2.3l0-0.4l0-0.4c0,0,0-0.4,0-0.4l0-0.4l0-0.4c0,0,0-0.4,0-0.4s0-0.8,0-0.8l0-0.7l-0.1-0.7l-0.1-0.7
		c0,0-0.1-0.7-0.1-0.7l-0.1-0.7l-0.1-0.7l-0.1-1.3l-0.1-1.4l-0.1-0.7l-0.1-0.7c0,0-0.1-0.8-0.1-0.8l-0.1-0.8l-0.2-2.6l-0.1-0.9
		c0,0-0.1-0.9-0.1-0.9l-0.1-0.9l-0.1-0.9l0-0.5l0-0.5c0,0,0-0.4,0-0.4s0-0.4,0-0.4l0-0.4l-0.1-0.4c0,0-0.1-0.4-0.1-0.4L31.8,94
		l-0.1-0.4c0,0-0.1-0.4-0.1-0.4s-0.1-0.4-0.1-0.4l-0.1-0.4l-0.1-0.4l-0.1-0.4l-0.1-0.3l-0.1-0.3c0,0-0.1-0.3-0.1-0.3
		s-0.1-0.3-0.1-0.3l-0.1-0.6l-0.2-1.3l-0.1-0.7l-0.1-0.4l-0.1-0.4l-0.1-0.4l-0.1-0.4c0,0-0.1-0.5-0.1-0.5l-0.3-1.7L30,83.1
		c0,0-0.1-0.6-0.1-0.6s-0.1-0.3-0.1-0.3S29.8,82,29.8,82l-0.1-0.3c0,0-0.1-0.3-0.1-0.3l-0.1-0.3l-0.1-0.3c0,0-0.1-0.3-0.1-0.3
		l-0.1-0.3l-0.1-0.3c0,0-0.1-0.3-0.1-0.3s-0.1-0.3-0.1-0.3L29.2,79l-0.1-0.3l-0.1-0.3L29,78.2L28.9,78c0,0-0.1-0.3-0.1-0.3l-0.1-0.2
		l0-0.1l0-0.1l0-0.1l0-0.1c0,0,0-0.1,0-0.1l0-0.1l0,0c0,0,0,0,0,0s0,0,0,0l0,0l0,0c0,0,0,0,0,0l0,0l0,0c0,0,0,0,0,0c0,0,0,0,0,0
		c0,0,0,0,0,0c0,0,0,0,0,0c0,0,0,0,0,0c0,0,0,0,0,0c0,0,0,0,0,0c0,0,0,0,0,0c0,0,0,0,0,0c0,0,0,0,0,0c0,0,0,0,0,0c0,0,0,0,0,0
		c0,0,0,0,0,0c0,0,0,0,0,0c0,0,0,0,0,0c0,0,0,0,0,0c0,0,0,0,0,0c0,0,0,0,0,0c0,0,0,0,0,0c0,0,0,0,0,0c0,0,0,0,0,0c0,0,0,0,0,0
		c0,0,0,0,0,0c0,0,0,0,0,0l0,0l0,0l0,0l0,0l0,0.1l0,0.1l0,0.1l0,0.1l0,0.1l-0.1,0.1c0,0-0.1,0.1-0.1,0.1s-0.1,0.1-0.1,0.1
		s-0.1,0.2-0.1,0.2l-0.1,0.2c0,0-0.1,0.2-0.1,0.2l-0.1,0.2l-0.1,0.2c0,0-0.1,0.2-0.1,0.2l0,0.2c0,0,0,0.2,0,0.2l0,0.2
		c0,0,0,0.2,0,0.2l0,0.2l0,0.2l-0.1,0.3c0,0-0.1,0.3-0.1,0.3s-0.1,0.3-0.1,0.3L26.6,81l0,0.3l0,0.3l0,0.3l0,0.3l0,0.3l0,0.3
		c0,0,0,0.3,0,0.3l0,0.3c0,0,0,0.3,0,0.3l0,0.3l0,0.3c0,0,0,0.3,0,0.3s0,0.3,0,0.3l0,0.3l0,0.3l0,0.3l0,0.5l0,0.5l0,2l0,0.4l0,0.4
		c0,0,0,0.4,0,0.4l0,0.4c0,0,0,0.4,0,0.4l0,0.4l0,0.4l0,0.4l0,0.7l0,0.7l0,0.7l0,0.7l-0.1,2.1c0,0,0,0.5,0,0.5l0,0.5l0,0.5l0,0.5
		l0,0.5l0,0.5c0,0,0,0.5,0,0.5l0,0.5l0,0.5l0,0.3l0,0.3l0,0.3l0,0.3l0,0.3l0,0.3c0,0,0,0.3,0,0.3s0,0.3,0,0.3s0,0.3,0,0.3l0,0.3
		l0,0.6c0,0,0,0.7,0,0.7s0.1,2,0.1,2s0,0.6,0,0.6s0,0.6,0,0.6s0,0.3,0,0.3l0,0.3c0,0,0,0.3,0,0.3l0,0.3l0,0.3l0,0.3l0,0.3l0,0.3
		l0,0.3c0,0,0,0.3,0,0.3s0,0.3,0,0.3l0,0.3c0,0,0,0.3,0,0.3l0,0.3l0,0.2l0,0.2l0,0.3l0,0.3c0,0,0,0.3,0,0.3l0,0.3l-0.2,1.2
		c0,0,0,0.3,0,0.3l0,0.3c0,0,0,0.3,0,0.3s0,0.3,0,0.3l0,0.2l0,0.2l0,0.2l0,0.2l0,0.2c0,0,0,0.2,0,0.2s0,0.2,0,0.2l0,0.2
		c0,0,0,0.2,0,0.2s0,0.2,0,0.2s0,0.4,0,0.4l0,0.4l0,0.9l0,0.4l0,0.4c0,0,0,0.5,0,0.5l0,0.2c0,0,0,0.2,0,0.2s0,0.2,0,0.2l0,0.2l0,0.2
		l0,0.2l0,0.2l0,0.2l0,0.2c0,0,0,0.2,0,0.2l0,0.2c0,0,0,0.2,0,0.2l0,0.2c0,0,0,0.2,0,0.2l0,0.1l0,0.1l0,0.1l0,0.1l0,0.1l0,0.1
		c0,0,0,0.1,0,0.1s0,0.1,0,0.1l0,0.1l0,0.1c0,0,0,0.1,0,0.1l0,0.1l0,0.1l0,0.1c0,0,0,0.1,0,0.1l0,0.1l0,0.1l0,0.1l0,0.1
		c0,0,0,0.1,0,0.1s0,0.1,0,0.1s-0.1,0.1-0.1,0.1l-0.1,0.1l-0.1,0.1c0,0-0.1,0.1-0.1,0.1l-0.1,0.1l-0.1,0.1c0,0-0.1,0.1-0.1,0.1
		s-0.1,0.1-0.1,0.1l-0.1,0.1c0,0-0.1,0.1-0.1,0.1s-0.1,0.1-0.1,0.1l-0.1,0.1c0,0-0.1,0.1-0.1,0.1s-0.1,0.1-0.1,0.1l-0.1,0.1
		c0,0-0.1,0.1-0.1,0.1s-0.1,0.1-0.1,0.1l-0.1,0.1l-0.1,0.1c0,0-0.1,0.1-0.1,0.1l-0.1,0.1l-0.1,0.1l-0.1,0.1l-0.1,0.1l-0.1,0.1
		c0,0-0.1,0.1-0.1,0.1s-0.1,0.1-0.1,0.1l-0.1,0.1l-0.1,0l-0.1,0l-0.1,0l-0.1,0c0,0-0.1,0-0.1,0l-0.1,0l-0.1,0l-0.1,0l-0.1,0
		c0,0-0.1,0-0.1,0l-0.1,0c0,0-0.1,0-0.1,0s-0.1,0-0.1,0s-0.1,0-0.1,0l0,0l0,0l0,0l0,0l0,0c0,0,0,0,0,0l0,0l0,0c0,0,0,0,0,0l0,0l0,0
		l0,0l0,0l0,0l0,0l0,0l0,0l0,0c0,0,0,0,0,0s0,0,0,0l0,0l0,0l0,0l0,0l0,0l0,0l0,0l0,0l0,0l0,0l0,0c0,0,0,0,0,0l0,0l0,0c0,0,0,0,0,0
		l0,0c0,0,0,0,0,0s0,0,0,0s0,0,0,0s0,0,0,0l0,0c0,0,0,0,0,0l0,0l0,0l0,0l0,0l0,0l0,0l0-0.1l0-0.1l0-0.1l0-0.1c0,0,0-0.1,0-0.1
		s0-0.1,0-0.1l0-0.1c0,0,0-0.1,0-0.1l0-0.1l0-0.1l0-0.1l0-0.1l0-0.1l0-0.1c0,0,0-0.1,0-0.1s0-0.1,0-0.1l0-0.1l0-0.1l0-0.1
		c0,0,0-0.1,0-0.1s0-0.1,0-0.1l-0.1-0.2l0-0.2l0-0.2l0-0.2l0-0.2l0-0.2l0-0.2l0-0.3l0-0.3l0-0.3c0,0,0-0.3,0-0.3s0-0.3,0-0.3l0-0.3
		l0-0.3l0-0.3l0-0.3l0-0.3l0-0.3l0-0.3l0-0.3l0-0.3l0-0.3l0-0.3l0-0.3c0,0,0-0.3,0-0.3l0-0.3l0-0.7c0,0,0-0.7,0-0.7l0-0.7l0-0.7
		l0-0.7c0,0,0-0.7,0-0.7s0-0.7,0-0.7l0-0.7l0-1.4l0.1-2.7l0-1.3c0,0,0-0.6,0-0.6l0-0.6l0-0.6l0-0.6c0,0,0-0.6,0-0.6l0-0.6l0-0.6
		c0,0,0-0.6,0-0.6l0-0.4l0-0.4l0-0.4l0-0.4l0-0.8l0-0.8c0,0,0-0.8,0-0.8l0-0.8l0-0.8l0-0.8l0-0.8c0,0,0-0.8,0-0.8l0-0.8l0-0.8
		c0,0,0-0.8,0-0.8l0-0.8l-0.1-1.6c0,0-0.2-3.2-0.2-3.2L18.2,88l-0.1-0.8l-0.1-0.8L18,85.6c0,0,0-0.8,0-0.8l0-0.8c0,0,0-0.8,0-0.8
		l0-0.8c0,0,0-0.9,0-0.9l0-0.9c0,0,0-0.9,0-0.9l0-0.7l0-0.7c0,0,0-0.7,0-0.7l0-0.7l0-0.7l0-0.7l0-0.7l0-0.7l0-0.7l0-0.7l0-0.6l0-0.6
		l0-0.6c0,0,0-0.6,0-0.6l0-0.6l0-0.6c0,0,0-0.5,0-0.5s0-0.5,0-0.5s0-0.5,0-0.5s0-0.5,0-0.5l0-0.5c0,0,0-0.5,0-0.5l0-0.5
		c0,0,0-0.5,0-0.5s0.1-0.6,0.1-0.6S18,64,18,64l0.1-0.6l0.1-0.7l0.3-3.2l0.2-1.5l0.1-0.8l0.1-0.8l0.1-0.8L19,55l0-0.4l0-0.4l0-0.4
		l0-0.4c0,0,0-0.4,0-0.4l0-0.4l0-0.3l0-0.3l0-0.3c0,0,0-0.3,0-0.3s0-0.3,0-0.3l0-0.3c0,0,0-0.3,0-0.3l0-0.1l0-0.1l0-0.1l0-0.1l0-0.1
		l0-0.1c0,0,0-0.1,0-0.1l0-0.1l0-0.1l0-0.1l0-0.1l0,0l0,0l0,0c0,0,0,0,0,0s0,0,0,0s0,0,0,0c0,0,0,0,0,0c0,0,0,0,0,0c0,0,0,0,0,0
		c0,0,0,0,0,0c0,0,0,0,0,0c0,0,0,0,0,0c0,0,0,0,0,0c0,0,0,0,0,0c0,0,0,0,0,0c0,0,0,0,0,0c0,0,0,0,0,0c0,0,0,0,0,0c0,0,0,0,0,0
		c0,0,0,0,0,0c0,0,0,0,0,0c0,0,0,0,0,0c0,0,0,0,0,0c0,0,0,0,0,0c0,0,0,0,0,0c0,0,0,0,0,0c0,0,0,0,0,0c0,0,0,0,0,0c0,0,0,0,0,0
		c0,0,0,0,0,0l0,0l0,0l0,0l0,0l0,0c0,0,0,0,0,0l-0.1,0.1l-0.1,0.1l-0.1,0.1c0,0-0.1,0.1-0.1,0.1l-0.1,0.1c0,0-0.1,0.1-0.1,0.1
		S18,50,18,50l-0.1,0.1c0,0-0.1,0.1-0.1,0.1l-0.1,0.1c0,0-0.1,0.1-0.1,0.1l-0.1,0.1c0,0-0.1,0.2-0.1,0.2L17.5,51l-0.1,0.2l-0.1,0.2
		l-0.1,0.2l-0.1,0.2l-0.1,0.2L17.1,52l-0.1,0.4l-0.1,0.4l-0.1,0.4l-0.1,0.4l-0.1,0.4l-0.1,0.4L16.1,55l-0.1,0.5l-0.1,0.5l-0.1,0.5
		l-0.1,0.5l-0.1,0.5c0,0-0.1,0.5-0.1,0.5l-0.1,0.5L15,58.6l-0.1,0.3l-0.1,0.3l-0.1,0.3c0,0-0.1,0.3-0.1,0.3l-0.1,0.3l-0.1,0.3
		L14.4,61c0,0-0.1,0.6-0.1,0.6l-0.1,0.6L14,62.9l-0.1,0.6l-0.4,1.8l-0.1,0.6l-0.1,0.6l-0.1,0.5l-0.1,0.3l-0.1,0.3
		c0,0-0.1,0.3-0.1,0.3L12.9,68l-0.1,0.3l-0.1,0.3c0,0-0.1,0.3-0.1,0.3l-0.1,0.3l-0.1,0.3l-0.1,0.3c0,0-0.1,0.3-0.1,0.3l-0.1,0.3
		c0,0-0.1,0.3-0.1,0.3l-0.1,0.2L12,71L12,71.2l-0.1,0.2l-0.1,0.2c0,0,0,0.1,0,0.1l0,0.1l0,0.1l0,0.1l0,0.1l0,0.1l0,0.1l0,0.1l0,0.1
		c0,0,0,0.1,0,0.1l0,0.1l0,0.1l0,0.1l0,0.1l0,0.1c0,0,0,0,0,0l0,0l0,0c0,0,0,0,0,0l0,0l0,0l0,0l0,0l0,0l0,0l0,0c0,0,0,0,0,0
		c0,0,0,0,0,0c0,0,0,0,0,0c0,0,0,0,0,0c0,0,0,0,0,0c0,0,0,0,0,0c0,0,0,0,0,0c0,0,0,0,0,0c0,0,0,0,0,0c0,0,0,0,0,0c0,0,0,0,0,0
		c0,0,0,0,0,0c0,0,0,0,0,0c0,0,0,0,0,0c0,0,0,0,0,0c0,0,0,0,0,0c0,0,0,0,0,0c0,0,0,0,0,0c0,0,0,0,0,0c0,0,0,0,0,0c0,0,0,0,0,0
		c0,0,0,0,0,0c0,0,0,0,0,0c0,0,0,0,0,0c0,0,0,0,0,0c0,0,0,0,0,0s0,0,0,0l0,0c0,0,0,0,0,0s0,0,0,0l0,0c0,0,0,0,0,0l0,0l0,0l0,0l0-0.1
		l0-0.1l0-0.1l0-0.1l0-0.1c0,0,0-0.1,0-0.1s0-0.1,0-0.1l0-0.1l0-0.1l0-0.1l0-0.1l0-0.1c0,0,0-0.1,0-0.1s0-0.1,0-0.1l0-0.1l0-0.1
		l-0.1-0.3l0-0.3c0,0,0-0.3,0-0.3l0-0.3l0-0.3c0,0,0-0.3,0-0.3l0-0.3l0-0.3l0-0.4l0-0.4c0,0,0-0.4,0-0.4l0-0.4l0-0.4
		c0,0,0-0.4,0-0.4l0-0.4c0,0,0-0.4,0-0.4l0-0.4l0-0.4l0-0.4l0-0.4l0-0.4c0,0,0-0.4,0-0.4s0-0.4,0-0.4l0-0.3c0,0,0-0.3,0-0.3l0-0.3
		l0-0.3l0-0.3l0-0.3l0-0.3l0-0.3l0-0.3l0-0.3c0,0,0-0.3,0-0.3l0-0.3l0-0.3c0,0,0-0.3,0-0.3s0-0.3,0-0.3l0-0.3l0-0.3
		c0,0,0.1-0.6,0.1-0.6l0.1-0.6l0.3-2l0.1-0.7l0.1-0.7l0-0.2l0-0.2l0-0.2l0-0.2l0-0.2l0-0.2l0-0.2l0-0.2l0-0.2l0-0.2l0.1-0.2l0.1-0.2
		l0.1-0.2l0.1-0.2l0.1-0.2c0,0,0.1-0.2,0.1-0.2l0.1-0.2l0.1-0.2l0.1-0.2c0,0,0.1-0.2,0.1-0.2s0.1-0.2,0.1-0.2l0.1-0.2
		c0,0,0.1-0.2,0.1-0.2s0.1-0.2,0.1-0.2l0.1-0.2c0,0,0.1-0.2,0.1-0.2s0.1-0.2,0.1-0.2s0.1-0.2,0.1-0.2l0.1-0.2l0.1-0.2l0.1-0.2
		l0.1-0.2l0.2-0.4l0.2-0.4l0.2-0.4l0.2-0.4c0,0,0.2-0.4,0.2-0.4s0.2-0.4,0.2-0.4l0.2-0.3l0.2-0.3l0.3-0.7c0,0,0.6-1.3,0.6-1.3
		s0.2-0.3,0.2-0.3l0.1-0.3l0.4-0.9l0.1-0.3c0,0,0.1-0.3,0.1-0.3l0.1-0.1l0.1-0.1l0.1-0.1l0.1-0.1c0,0,0.1-0.1,0.1-0.1l0.1-0.1
		c0,0,0.1-0.1,0.1-0.1s0.1-0.1,0.1-0.1s0.1-0.1,0.1-0.1L16,38l0.1-0.1l0.1-0.1l0.1-0.1l0.1-0.1l0.1-0.1l0.1-0.1l0.1-0.1
		c0,0,0.1-0.1,0.1-0.1l0.1-0.1l0.1-0.1c0,0,0.1-0.1,0.1-0.1s0.1-0.1,0.1-0.1s0.1,0,0.1,0l0.1,0l0.1,0l0.1,0c0,0,0.1,0,0.1,0l0.1,0
		l0.1,0l0.1,0l0.1-0.1l0.1-0.1c0,0,0.1-0.1,0.1-0.1s0.1-0.1,0.1-0.1s0.1-0.1,0.1-0.1s0.1-0.1,0.1-0.1s0.1,0,0.1,0s0.1,0,0.1,0l0.2,0
		l0.2,0c0,0,0.2,0,0.2,0l0.2,0l0.2,0l0.2,0l0.2,0l0.2,0l0.2,0l0.2,0l0.2,0l0.2,0l0.2,0l0.2,0c0,0,0.3,0,0.3,0l0.4,0c0,0,0.4,0,0.4,0
		l0.4,0l0.4,0l0.4,0c0,0,0.4,0,0.4,0s0.4,0,0.4,0l0.4,0l0.4,0l0.4,0c0,0,0.4,0,0.4,0l0.4,0l0.4,0l0.4,0l0.4,0l0.4,0c0,0,0.4,0,0.4,0
		l0.4,0l0.4,0l0.4,0l0.5,0l0.5,0l0.5,0c0,0,0.5,0,0.5,0l0.5,0l0.5,0l0.5,0l0.5,0c0,0,0.9,0,0.9,0l1,0L36.2,35.3"/>
</g>
<g id="POLYLINE_575_">
	<polyline class="st0" points="67,54.4 63.5,54.4 63.5,49.5 67,49.5 67,54.4 	"/>
</g>
<g id="POLYLINE_576_">
	<polyline class="st0" points="67,85.8 63.5,85.8 63.5,79.9 67,79.9 67,85.8 	"/>
</g>
<g id="POLYLINE_577_">
	<path class="st0" d="M63.1,11.6c-1.4,0-2.9,0-4.3,0c-0.1-3.4-0.2-6.9-0.3-10.3l0.6,0l0.6,0c0,0,1.2,0,1.2,0l1.2,0l1.2,0
		C63.2,4.7,63.2,8.2,63.1,11.6"/>
</g>
<g id="POLYLINE_578_">
	<path class="st0" d="M71.9,85.9c-1.5,0-2.9,0-4.4,0l0-5.9c1.5,0,2.9,0,4.4,0L71.9,85.9"/>
</g>
<g id="POLYLINE_579_">
	<path class="st0" d="M72.4,80c1.7,0,3.4,0,5.1,0.1c0,2,0,3.9,0,5.9c-1.7,0-3.4,0-5.1-0.1C72.4,85.9,72.4,80,72.4,80"/>
</g>
<g id="POLYLINE_580_">
	<path class="st0" d="M72.4,73.4c1.7,0,3.4,0,5.1,0.1c0,2,0,4,0,5.9c-1.7,0-3.4,0-5.1-0.1L72.4,73.4"/>
</g>
<g id="POLYLINE_581_">
	<path class="st0" d="M67.1,34.2l-3.5,0c0-3.6,0-7.3,0-10.9c0,0,3.5,0,3.5,0C67.1,26.9,67.1,30.6,67.1,34.2"/>
</g>
<g id="POLYLINE_582_">
	<polyline class="st0" points="67,95.3 63.5,95.2 63.5,86.4 67,86.5 67,95.3 	"/>
</g>
<g id="POLYLINE_583_">
	<path class="st0" d="M67,42.6l-3.5,0c0-2.6,0-5.2,0-7.8l3.5,0C67,37.4,67,40,67,42.6"/>
</g>
<g id="POLYLINE_584_">
	<path class="st0" d="M71.9,95.3c-1.5,0-2.9,0-4.4-0.1c0,0,0-8.8,0-8.8c1.5,0,2.9,0,4.4,0L71.9,95.3"/>
</g>
<g id="POLYLINE_585_">
	<path class="st0" d="M71.9,111.1c-1.5,0-2.9,0-4.4,0l0-8.3c1.5,0,2.9,0,4.4,0L71.9,111.1"/>
</g>
<g id="POLYLINE_586_">
	<path class="st0" d="M71.9,67.5c-1.5,0-2.9,0-4.4,0c0,0,0-4.9,0-4.9c1.5,0,2.9,0,4.4,0L71.9,67.5"/>
</g>
<g id="POLYLINE_587_">
	<path class="st0" d="M71.9,102.2c-1.5,0-2.9,0-4.4,0l0-6.3c1.5,0,2.9,0,4.4,0.1L71.9,102.2"/>
</g>
<g id="POLYLINE_588_">
	<path class="st0" d="M72.4,86.5c1.7,0,3.4,0,5.1,0.1c0,2.9,0,5.9,0,8.8c-1.7,0-3.4,0-5-0.1C72.4,95.3,72.4,86.5,72.4,86.5"/>
</g>
<g id="POLYLINE_589_">
	<path class="st0" d="M71.9,49c-1.5,0-2.9,0-4.4,0l0-5.7c1.5,0,2.9,0,4.4,0L71.9,49"/>
</g>
<g id="POLYLINE_590_">
	<polyline class="st0" points="67,102.2 63.5,102.1 63.5,95.9 67,95.9 67,102.2 	"/>
</g>
<g id="POLYLINE_591_">
	<path class="st0" d="M72.4,43.3c1.7,0,3.4,0,5,0.1l0,5.7c-1.7,0-3.4,0-5.1-0.1C72.4,49,72.4,43.3,72.4,43.3"/>
</g>
<g id="POLYLINE_592_">
	<path class="st0" d="M63,102.1c-1.4,0-2.9,0-4.3,0c0-2.1,0-4.2,0-6.3c1.4,0,2.8,0,4.3,0L63,102.1"/>
</g>
<g id="POLYLINE_593_">
	<path class="st0" d="M67.1,22.7l-3.5,0c0-3.5,0-7,0.1-10.4c0,0,3.5,0,3.5,0C67.1,15.7,67.1,19.2,67.1,22.7"/>
</g>
<g id="POLYLINE_594_">
	<path class="st0" d="M63,54.4l-3.9,0c0-1.6,0-3.3,0-4.9l3.9,0L63,54.4"/>
</g>
<g id="POLYLINE_595_">
	<polyline class="st0" points="67,48.9 63.5,48.9 63.5,43.2 67,43.3 67,48.9 	"/>
</g>
<g id="POLYLINE_596_">
	<path class="st0" d="M63,61.9l-4,0c0-2.3,0-4.6,0.1-6.9c0,0,3.9,0,3.9,0L63,61.9"/>
</g>
<g id="POLYLINE_597_">
	<path class="st0" d="M63,42.6l-3.9,0c0-2.6,0-5.2,0-7.8l3.9,0C63,37.4,63,40,63,42.6"/>
</g>
<g id="POLYLINE_598_">
	<polyline class="st0" points="67,72.8 63.5,72.7 63.5,68.1 67,68.1 67,72.8 	"/>
</g>
<g id="POLYLINE_599_">
	<polyline class="st0" points="67,79.3 63.5,79.3 63.5,73.4 67,73.4 67,79.3 	"/>
</g>
<g id="POLYLINE_600_">
	<path class="st0" d="M72.5,12.3c1.6,0,3.1,0,4.7,0c0,3.5,0.1,7,0.1,10.4c-1.6,0-3.2,0-4.8-0.1C72.5,19.2,72.5,15.8,72.5,12.3"/>
</g>
<g id="POLYLINE_601_">
	<polyline class="st0" points="67,67.5 63.5,67.4 63.5,62.6 67,62.6 67,67.5 	"/>
</g>
<g id="POLYLINE_602_">
	<path class="st0" d="M72.4,102.8c1.7,0,3.3,0,5,0.1c0,2.8-0.1,5.5-0.1,8.3c-1.6,0-3.3,0-4.9-0.1C72.4,111.1,72.4,102.8,72.4,102.8"
		/>
</g>
<g id="POLYLINE_603_">
	<polyline class="st0" points="67,111.1 63.5,111 63.5,102.8 67,102.8 67,111.1 	"/>
</g>
<g id="POLYLINE_604_">
	<path class="st0" d="M71.9,42.7c-1.5,0-2.9,0-4.4,0c0-2.6,0-5.2,0-7.8c1.5,0,2.9,0,4.4,0C71.9,37.5,71.9,40.1,71.9,42.7"/>
</g>
<g id="POLYLINE_605_">
	<path class="st0" d="M71.9,34.3c-1.5,0-2.9,0-4.4,0c0-3.6,0-7.3,0-10.9c1.5,0,2.9,0,4.4,0C72,27,71.9,30.6,71.9,34.3"/>
</g>
<g id="POLYLINE_606_">
	<path class="st0" d="M63,111c-1.4,0-2.9,0-4.3,0c0-2.8,0-5.5,0-8.3c1.4,0,2.9,0,4.3,0L63,111"/>
</g>
<g id="POLYLINE_607_">
	<path class="st0" d="M71.9,79.4c-1.5,0-2.9,0-4.4,0l0-5.9c1.5,0,2.9,0,4.4,0C71.9,73.4,71.9,79.4,71.9,79.4"/>
</g>
<g id="POLYLINE_608_">
	<path class="st0" d="M72.4,55.1c1.7,0,3.4,0,5.1,0.1c0,2.3,0,4.6,0,6.9c-1.7,0-3.4,0-5.1-0.1L72.4,55.1"/>
</g>
<g id="POLYLINE_609_">
	<path class="st0" d="M72.4,96c1.7,0,3.4,0,5,0.1c0,2.1,0,4.2,0,6.3c-1.7,0-3.3,0-5-0.1C72.4,102.2,72.4,96,72.4,96"/>
</g>
<g id="POLYLINE_610_">
	<path class="st0" d="M71.9,62c-1.5,0-2.9,0-4.4,0c0,0,0-6.9,0-6.9c1.5,0,2.9,0,4.4,0L71.9,62"/>
</g>
<g id="POLYLINE_611_">
	<path class="st0" d="M63,72.7c-1.4,0-2.7,0-4.1,0l0-4.7l4,0L63,72.7"/>
</g>
<g id="POLYLINE_612_">
	<path class="st0" d="M72,22.7c-1.5,0-2.9,0-4.4,0c0-3.5,0-7,0.1-10.4c1.5,0,2.9,0,4.4,0C72,15.8,72,19.2,72,22.7"/>
</g>
<g id="POLYLINE_613_">
	<path class="st0" d="M71.9,72.8c-1.5,0-2.9,0-4.4,0l0-4.7c1.5,0,2.9,0,4.4,0L71.9,72.8"/>
</g>
<g id="POLYLINE_614_">
	<path class="st0" d="M72.4,34.9c1.7,0,3.3,0,5,0.1c0,2.6,0,5.2,0,7.8c-1.7,0-3.4,0-5-0.1C72.4,40.1,72.4,37.5,72.4,34.9"/>
</g>
<g id="POLYLINE_615_">
	<path class="st0" d="M63,48.9l-3.9,0c0-1.9,0-3.8,0-5.7c0,0,3.9,0,3.9,0L63,48.9"/>
</g>
<g id="POLYLINE_616_">
	<path class="st0" d="M63,95.2c-1.4,0-2.8,0-4.3,0c0-2.9,0-5.9,0.1-8.8c1.4,0,2.8,0,4.2,0C63,86.4,63,95.2,63,95.2"/>
</g>
<g id="POLYLINE_617_">
	<path class="st0" d="M71.9,54.5c-1.5,0-2.9,0-4.4,0l0-4.9c1.5,0,2.9,0,4.4,0C71.9,49.6,71.9,54.5,71.9,54.5"/>
</g>
<g id="POLYLINE_618_">
	<polyline class="st0" points="63,67.4 59,67.4 59,62.5 63,62.6 63,67.4 	"/>
</g>
<g id="POLYLINE_619_">
	<path class="st0" d="M63.1,22.6l-4.1,0c0-3.5-0.1-6.9-0.2-10.4c1.4,0,2.9,0,4.3,0C63.1,15.7,63.1,19.2,63.1,22.6"/>
</g>
<g id="POLYLINE_620_">
	<polyline class="st0" points="67,62 63.5,61.9 63.5,55 67,55.1 67,62 	"/>
</g>
<g id="POLYLINE_621_">
	<path class="st0" d="M72.5,23.3c1.6,0,3.2,0,4.8,0.1c0,3.6,0.1,7.3,0.1,10.9c-1.7,0-3.3,0-5-0.1C72.4,30.6,72.4,27,72.5,23.3"/>
</g>
<g id="POLYLINE_622_">
	<path class="st0" d="M72.6,1.3c1.5,0,3,0,4.5,0c0,3.5,0.1,6.9,0.1,10.4c-1.6,0-3.1,0-4.7,0C72.5,8.2,72.6,4.7,72.6,1.3"/>
</g>
<g id="POLYLINE_623_">
	<path class="st0" d="M72.4,49.6c1.7,0,3.4,0,5.1,0.1l0,4.9c-1.7,0-3.4,0-5.1-0.1L72.4,49.6"/>
</g>
<g id="POLYLINE_624_">
	<path class="st0" d="M63,79.3c-1.4,0-2.8,0-4.1,0c0,0,0.1-5.9,0.1-5.9c1.4,0,2.7,0,4.1,0L63,79.3"/>
</g>
<g id="POLYLINE_625_">
	<path class="st0" d="M67.1,11.6l-3.5,0c0-3.4,0-6.9,0.1-10.3c1.2,0,2.3,0,3.5,0C67.2,4.7,67.2,8.2,67.1,11.6"/>
</g>
<g id="POLYLINE_626_">
	<path class="st0" d="M63,34.2l-3.9,0c0-3.6,0-7.3-0.1-10.9l4,0C63.1,26.9,63.1,30.6,63,34.2"/>
</g>
<g id="POLYLINE_627_">
	<path class="st0" d="M72.4,68.1c1.7,0,3.4,0,5.1,0.1l0,4.7c-1.7,0-3.4,0-5.1-0.1C72.4,72.8,72.4,68.1,72.4,68.1"/>
</g>
<g id="POLYLINE_628_">
	<path class="st0" d="M72,11.7c-1.5,0-2.9,0-4.4,0c0-3.4,0-6.9,0.1-10.3c1.5,0,2.9,0,4.4,0C72.1,4.7,72.1,8.2,72,11.7"/>
</g>
<g id="POLYLINE_629_">
	<path class="st0" d="M63,85.8c-1.4,0-2.8,0-4.2,0c0,0,0.1-5.9,0.1-5.9c1.4,0,2.8,0,4.1,0C63,79.9,63,85.8,63,85.8"/>
</g>
<g id="POLYLINE_630_">
	<path class="st0" d="M72.4,62.6c1.7,0,3.4,0,5.1,0.1l0,4.9c-1.7,0-3.4,0-5.1-0.1L72.4,62.6"/>
</g>
<g id="POLYLINE_631_">
	<path class="st0" d="M72.4,122.5h4.8c0.1-3.6,0.1-7.1,0.1-10.7c-1.6,0-3.3,0-4.9-0.1L72.4,122.5"/>
</g>
<g id="POLYLINE_632_">
	<path class="st0" d="M58.8,122.5H63l0-10.8c-1.4,0-2.9,0-4.3,0C58.8,115.2,58.8,118.9,58.8,122.5"/>
</g>
<g id="POLYLINE_633_">
	<polyline class="st0" points="63.5,122.5 67,122.5 67,111.7 63.5,111.7 63.5,122.5 	"/>
</g>
<g id="POLYLINE_634_">
	<path class="st0" d="M71.9,111.7c-1.5,0-2.9,0-4.4,0l0,10.8h4.4L71.9,111.7"/>
</g>
<g id="POLYLINE_635_">
	<path class="st0" d="M78,122.5h4.8c0.1-3.6,0.1-7.1,0.1-10.7c-1.6,0-3.3,0-4.9-0.1C78,111.8,78,122.5,78,122.5"/>
</g>
<g id="POLYLINE_636_">
	<path class="st0" d="M78,62.6c1.7,0,3.4,0,5.1,0.1c0,0,0,4.9,0,4.9c-1.7,0-3.4,0-5.1-0.1L78,62.6"/>
</g>
<g id="POLYLINE_637_">
	<path class="st0" d="M78,68.1c1.7,0,3.4,0,5.1,0.1c0,0,0,4.7,0,4.7c-1.7,0-3.4,0-5.1-0.1L78,68.1"/>
</g>
<g id="POLYLINE_638_">
	<path class="st0" d="M78,49.6c1.7,0,3.4,0,5.1,0.1l0,4.9c-1.7,0-3.4,0-5.1-0.1L78,49.6"/>
</g>
<g id="POLYLINE_639_">
	<path class="st0" d="M78.2,1.3c1.5,0,3,0,4.5,0c0,3.5,0.1,6.9,0.1,10.4c-1.6,0-3.1,0-4.7,0C78.2,8.2,78.2,4.7,78.2,1.3"/>
</g>
<g id="POLYLINE_640_">
	<path class="st0" d="M78.1,23.3c1.6,0,3.2,0,4.8,0.1C83,27,83,30.7,83,34.3c-1.7,0-3.3,0-5-0.1C78.1,30.6,78.1,27,78.1,23.3"/>
</g>
<g id="POLYLINE_641_">
	<path class="st0" d="M78,34.9c1.7,0,3.3,0,5,0.1c0,2.6,0,5.2,0,7.8c-1.7,0-3.4,0-5-0.1C78,40.1,78,37.5,78,34.9"/>
</g>
<g id="POLYLINE_642_">
	<path class="st0" d="M78,96c1.7,0,3.4,0,5,0.1c0,2.1,0,4.2,0,6.3c-1.7,0-3.3,0-5-0.1L78,96"/>
</g>
<g id="POLYLINE_643_">
	<path class="st0" d="M78,55.1c1.7,0,3.4,0,5.1,0.1c0,2.3,0,4.6,0,6.9c-1.7,0-3.4,0-5.1-0.1C78,62,78,55.1,78,55.1"/>
</g>
<g id="POLYLINE_644_">
	<path class="st0" d="M78,102.8c1.7,0,3.3,0,5,0.1c0,2.8-0.1,5.5-0.1,8.3c-1.6,0-3.3,0-4.9-0.1L78,102.8"/>
</g>
<g id="POLYLINE_645_">
	<path class="st0" d="M78.1,12.3c1.6,0,3.1,0,4.7,0c0,3.5,0.1,7,0.1,10.4c-1.6,0-3.2,0-4.8-0.1C78.1,19.2,78.1,15.8,78.1,12.3"/>
</g>
<g id="POLYLINE_646_">
	<path class="st0" d="M78,43.3c1.7,0,3.4,0,5,0.1c0,0,0,5.7,0,5.7c-1.7,0-3.4,0-5.1-0.1L78,43.3"/>
</g>
<g id="POLYLINE_647_">
	<path class="st0" d="M78,86.5c1.7,0,3.4,0,5.1,0.1c0,2.9,0,5.9,0,8.8c-1.7,0-3.4,0-5-0.1L78,86.5"/>
</g>
<g id="POLYLINE_648_">
	<path class="st0" d="M78,73.4c1.7,0,3.4,0,5.1,0.1c0,2,0,4,0,5.9c-1.7,0-3.4,0-5.1-0.1L78,73.4"/>
</g>
<g id="POLYLINE_649_">
	<path class="st0" d="M78,80c1.7,0,3.4,0,5.1,0.1c0,2,0,3.9,0,5.9c-1.7,0-3.4,0-5.1-0.1C78,85.9,78,80,78,80"/>
</g>
<g id="POLYLINE_650_">
	<polyline class="st0" points="83.5,1.3 83.5,1.3 83.5,0.4 82.6,0.4 80.5,0.4 78.4,0.4 74.1,0.4 72,0.4 68.2,0.4 67,0.4 65.9,0.4 
		64.7,0.4 63.5,0.4 61,0.4 59.7,0.4 59.1,0.4 58.5,0.4 57.6,0.4 57.6,1.3 57.7,2.3 57.7,3.3 57.7,4.2 57.8,5.2 57.8,6.2 57.9,7.2 
		57.9,8.2 58,9.2 58,10.2 58,11.2 58.1,12.2 58.1,13.2 58.1,14.1 58.1,15.1 58.2,16.1 58.2,17.1 58.2,18.1 58.2,19.1 58.3,20.1 
		58.3,21.1 58.3,22.1 58.3,23.1 58.3,24.1 58.4,25 58.4,27 58.4,29 58.4,31 58.5,33 58.5,35 58.5,36.9 58.5,38.9 58.5,40.9 
		58.5,42.9 58.5,44.9 58.5,46.9 58.5,48.9 58.4,50.8 58.4,52.8 58.4,54.8 58.4,56.8 58.4,58.8 58.4,60.8 58.3,64.8 58.3,68.4 
		58.2,72.1 58.1,79.3 58.1,83 58.1,86.6 58,88.5 58,90.3 58,92.1 58,93.9 58,95.8 58,97.6 57.9,99.4 57.9,101.2 57.9,103.1 
		57.9,104.9 57.9,106.7 57.9,108.5 57.9,110.3 57.9,112.2 58,114 58,115.8 58,117.6 58,119.5 58,121.3 58.1,123.1 83.6,123.1 
		83.7,121.2 83.7,119.3 83.7,117.4 83.8,115.5 83.8,113.6 83.8,111.7 83.9,109.8 83.9,107.9 83.9,106 83.9,104.1 84,102.2 84,100.3 
		84,98.4 84,96.4 84,94.5 84,92.6 84.1,90.7 84.1,88.8 84.1,86.9 84.1,85 84.1,83.1 84.1,81.2 84.1,79.2 84.1,77.3 84.1,75.4 
		84.1,73.5 84.1,69.7 84.1,65.9 84.1,62 84.1,58.2 84.1,54.4 84.1,50.6 84,46.8 84,43 84,39.1 84,35.3 83.9,31.5 83.9,27.7 83.8,24 
		83.8,20.2 83.7,16.4 83.7,12.6 83.6,8.8 83.6,5.1 83.5,1.3 	"/>
</g>
<g id="HATCH_348_">
	<path class="st1" d="M83.5,1.3L83.5,1.3l0-0.9l-0.9,0l-2.1,0l-2.1,0l-4.3,0l-2.1,0l-3.8,0l-1.2,0l-1.2,0l-1.2,0l-1.2,0l-2.5,0
		l-1.2,0l-0.6,0l-0.6,0l-0.9,0l0,0.9l0,1l0,1l0,1l0,1l0,1l0,1l0,1l0,1l0,1l0,1l0,1l0,1l0,1l0,1l0,1l0,1l0,1l0,1l0,1l0,1l0,1l0,1l0,1
		l0,1l0,2l0,2l0,2l0,2l0,2l0,2l0,2l0,2l0,2l0,2l0,2l0,2l0,2l0,2l0,2l0,2l0,2l0,2l0,4l0,3.6l-0.1,10.9l0,3.6l0,3.6l0,1.8l0,1.8l0,1.8
		l0,1.8l0,1.8l0,1.8l0,1.8l0,1.8l0,1.8l0,1.8l0,1.8l0,1.8l0,1.8l0,1.8l0,1.8l0,1.8l0,1.8l0,1.8l0,1.8l0,1.8h25.6l0-1.9l0-1.9l0-1.9
		l0-1.9l0-1.9l0-1.9l0-1.9l0-1.9l0-1.9l0-1.9l0-1.9l0-1.9l0-1.9l0-1.9l0-1.9l0-1.9l0-1.9l0-1.9l0-1.9l0-1.9l0-1.9l0-1.9l0-1.9l0-1.9
		l0-1.9l0-1.9l0-3.8l0-3.8l0-3.8l0-3.8l0-3.8l0-3.8l0-3.8l0-3.8l0-3.8l0-3.8l0-3.8l0-3.8l0-3.8l0-3.8l0-3.8l-0.1-3.8l-0.1-3.8
		l-0.1-3.8L83.5,1.3z M78,80l2.5,0l2.6,0l0,2.9l0,2.9l-2.6,0l-2.5,0l0-3.8L78,80z M78,73.4l2.5,0l2.6,0l0,3l0,3l-2.6,0l-2.5,0
		L78,73.4z M78,86.5l2.5,0l2.6,0l0,2.2l0,2.2l0,2.2l0,2.2l-2.5,0l-2.5,0L78,86.5z M78,43.3l2.5,0l2.5,0l0,2.8l0,2.8l-2.6,0L78,49
		L78,43.3z M78.1,12.3l2.3,0l2.4,0l0.1,5.2l0,5.2l-2.4,0l-2.4,0l0-5.1l0-2.6L78.1,12.3z M78,102.8l2.5,0l2.5,0l0,2.1l0,2.1l0,2.1
		l0,2.1l-2.5,0l-2.4,0L78,102.8z M78,55.1l2.5,0l2.6,0l0,3.4l0,3.4l-2.6,0L78,62L78,55.1z M78,96l2.5,0l2.5,0l0,3.1l0,3.1l-2.5,0
		l-2.5,0l0-3.2L78,96z M78,34.9l2.5,0l2.5,0l0,3.9l0,3.9l-2.5,0l-2.5,0l0-3.8L78,34.9z M78.1,23.3l2.4,0l2.4,0l0,2.7l0,2.7l0,2.7
		l0,2.7l-2.5,0l-2.5,0l0-5.4l0-2.8L78.1,23.3z M78.2,1.3l2.2,0l1.1,0l1.1,0l0,0.1l0.1,5.2l0.1,5.2l-2.4,0l-2.3,0l0-5.1l0-2.6
		L78.2,1.3z M78,49.6l2.5,0l2.6,0l0,2.4l0,2.4l-2.6,0l-2.5,0L78,49.6z M78,68.1l2.5,0l2.6,0l0,2.3l0,2.3l-2.6,0l-2.5,0l0-0.5
		L78,68.1z M78,62.6l2.5,0l2.6,0l0,2.4l0,2.4l-2.6,0l-2.5,0L78,62.6z M78,122.5l0-10.7l2.4,0l2.5,0l0,2.7l0,2.7l0,2.7l0,2.7H78z
		 M71.9,111.7l0,10.7h-4.4l0-10.8l2.2,0L71.9,111.7z M63.5,122.5l0-10.8l1.7,0l1.8,0l0,10.8H63.5z M58.8,122.5l0-1.4l0-1.4l0-1.4
		l0-1.4l0-1.4l0-1.4l0-1.4l0-1.4l2.1,0l2.2,0l0,10.8H58.8z M72.4,122.5l0-10.7l2.4,0l2.5,0l0,2.7l0,2.7l0,2.7l0,2.7H72.4z
		 M72.4,62.6l2.5,0l2.6,0l0,2.4l0,2.4l-2.6,0l-2.5,0L72.4,62.6z M63,85.8l-2.1,0l-2.1,0l0-2.9l0-2.9l2.1,0l2.1,0l0,2.1L63,85.8z
		 M72,11.7l-2.2,0l-2.2,0l0-5.1l0-2.6l0-2.6l0.6,0l1.9,0l1.9,0l0,2.6l0,2.6L72,11.7z M72.4,68.1l2.5,0l2.6,0l0,2.3l0,2.3l-2.6,0
		l-2.5,0l0-0.5L72.4,68.1z M63,34.2l-2,0l-1.9,0l0-1.4l0-1.4l0-1.4l0-1.4l0-1.4l0-1.4l0-1.4l0-1.4l2,0l2,0l0,2.8l0,2.8L63,34.2z
		 M67.1,11.6l-1.8,0l-1.7,0l0-5.1l0-2.6l0-2.6l0.9,0l0.9,0l1.8,0l0,2.6l0,2.6L67.1,11.6z M63,79.3l-2.1,0l-2,0l0.1-5.9l2,0l2.1,0
		L63,79.3z M72.4,49.6l2.5,0l2.6,0l0,2.4l0,2.4l-2.6,0l-2.5,0L72.4,49.6z M72.6,1.3l2.2,0l1.1,0l1.1,0l0,0.1l0.1,5.2l0.1,5.2l-2.4,0
		l-2.3,0l0-5.1l0-2.6L72.6,1.3z M72.5,23.3l2.4,0l2.4,0l0,2.7l0,2.7l0,2.7l0,2.7l-2.5,0l-2.5,0l0-5.4l0-2.8L72.5,23.3z M67,62
		l-1.8,0l-1.7,0l0-6.9l1.7,0l1.8,0L67,62z M63.1,22.6l-2,0l-2,0l0-1.3l0-1.3l0-1.3l0-1.3l0-1.3l0-1.3l0-1.3l0-1.3l2.1,0l2.2,0l0,2.7
		l0,2.6L63.1,22.6z M63,67.4l-2,0l-2,0l0-4.9l2,0l2,0L63,67.4z M71.9,54.5l-2.2,0l-2.2,0l0-4.9l2.2,0l2.2,0L71.9,54.5z M63,95.2
		l-2.2,0l-2.1,0l0-2.2l0-2.2l0-2.2l0-2.2l2.1,0l2.1,0L63,95.2z M63,48.9l-2,0l-1.9,0l0-2.8l0-2.8l1.9,0l2,0L63,48.9z M72.4,34.9
		l2.5,0l2.5,0l0,3.9l0,3.9l-2.5,0l-2.5,0l0-3.8L72.4,34.9z M71.9,72.8l-2.2,0l-2.2,0l0-0.5l0-4.2l2.2,0l2.2,0l0,4.1L71.9,72.8z
		 M72,22.7l-2.2,0l-2.2,0l0-5.1l0-2.6l0-2.7l2.2,0l2.2,0l0,2.7l0,2.6L72,22.7z M63,72.7l-2.1,0l-2,0l0-4.7l2,0l2,0l0,4.2L63,72.7z
		 M71.9,62l-2.2,0l-2.2,0l0-6.9l2.2,0l2.2,0L71.9,62z M72.4,96l2.5,0l2.5,0l0,3.1l0,3.1l-2.5,0l-2.5,0l0-3.2L72.4,96z M72.4,55.1
		l2.5,0l2.6,0l0,3.4l0,3.4l-2.6,0l-2.5,0L72.4,55.1z M71.9,79.4l-2.2,0l-2.2,0l0-5.9l2.2,0l2.2,0L71.9,79.4z M63,111l-2.2,0l-2.1,0
		l0-2.1l0-2.1l0-2.1l0-2.1l2.1,0l2.2,0L63,111z M71.9,34.3l-2.2,0l-2.2,0l0-5.4l0-2.8l0-2.8l2.2,0l2.2,0l0,2.8l0,2.8L71.9,34.3z
		 M71.9,42.7l-2.2,0l-2.2,0l0-3.8l0-3.9l2.2,0l2.2,0l0,3.9L71.9,42.7z M67,111.1l-1.8,0l-1.7,0l0-8.3l1.7,0l1.8,0L67,111.1z
		 M72.4,102.8l2.5,0l2.5,0l0,2.1l0,2.1l0,2.1l0,2.1l-2.5,0l-2.4,0L72.4,102.8z M67,67.5l-1.8,0l-1.7,0l0-4.9l1.7,0l1.8,0L67,67.5z
		 M72.5,12.3l2.3,0l2.4,0l0.1,5.2l0,5.2l-2.4,0l-2.4,0l0-5.1l0-2.6L72.5,12.3z M67,79.3l-1.8,0l-1.7,0l0-5.9l1.7,0l1.8,0L67,79.3z
		 M67,72.8l-1.8,0l-1.7,0l0-0.4l0-4.2l1.7,0l1.8,0l0,4.2L67,72.8z M63,42.6l-2,0l-1.9,0l0-1.9l0-1.9l0-1.9l0-1.9l1.9,0l2,0l0,3.9
		L63,42.6z M63,61.9l-2,0l-2,0l0-3.4l0-3.4l1.9,0l2,0L63,61.9z M67,48.9l-1.8,0l-1.7,0l0-5.7l1.7,0l1.8,0L67,48.9z M63,54.4l-2,0
		l-1.9,0l0-2.4l0-2.4l1.9,0l2,0L63,54.4z M67.1,22.7l-1.8,0l-1.7,0l0-5.1l0-2.6l0-2.7l1.7,0l1.8,0l0,2.7l0,2.6L67.1,22.7z M63,102.1
		l-2.2,0l-2.1,0l0-1.6l0-1.6l0-3.1l2.1,0l2.2,0l0,3.2L63,102.1z M72.4,43.3l2.5,0l2.5,0l0,2.8l0,2.8l-2.6,0l-2.5,0L72.4,43.3z
		 M67,102.2l-1.8,0l-1.7,0l0-3.1l0-3.2l1.7,0l1.8,0l0,3.2L67,102.2z M71.9,49l-2.2,0l-2.2,0l0-5.7l2.2,0l2.2,0L71.9,49z M72.4,86.5
		l2.5,0l2.6,0l0,2.2l0,2.2l0,2.2l0,2.2l-2.5,0l-2.5,0L72.4,86.5z M71.9,102.2l-2.2,0l-2.2,0l0-3.1l0-3.2l2.2,0l2.2,0l0,3.1
		L71.9,102.2z M71.9,67.5l-2.2,0l-2.2,0l0-4.9l2.2,0l2.2,0L71.9,67.5z M71.9,111.1l-2.2,0l-2.2,0l0-8.3l2.2,0l2.2,0L71.9,111.1z
		 M71.9,95.3l-2.2,0l-2.2,0l0-8.8l2.2,0l2.2,0L71.9,95.3z M67,42.6l-1.8,0l-1.7,0l0-3.8l0-3.9l1.7,0l1.8,0l0,3.9L67,42.6z M67,95.3
		l-1.8,0l-1.7,0l0-8.8l1.7,0l1.8,0L67,95.3z M67.1,34.2l-1.8,0l-1.7,0l0-5.4l0-2.8l0-2.8l1.7,0l1.8,0l0,2.8l0,2.8L67.1,34.2z
		 M72.4,73.4l2.5,0l2.6,0l0,3l0,3l-2.6,0l-2.5,0L72.4,73.4z M72.4,80l2.5,0l2.6,0l0,2.9l0,2.9l-2.6,0l-2.5,0l0-3.8L72.4,80z
		 M71.9,85.9l-2.2,0l-2.2,0l0-3.8l0-2.1l2.2,0l2.2,0l0,2.1L71.9,85.9z M63.1,11.6l-2.2,0l-2.1,0l0-1.3l0-1.3l0-1.3l0-1.3l0-1.3
		l0-1.3l0-1.3l0-1.3l0.6,0l0.6,0l1.2,0l1.2,0l1.2,0l0,2.6l0,2.6L63.1,11.6z M67,85.8l-1.8,0l-1.7,0l0-3.8l0-2.1l1.7,0l1.8,0l0,2.1
		L67,85.8z M67,54.4l-1.8,0l-1.7,0l0-4.9l1.7,0l1.8,0L67,54.4z"/>
</g>
<g id="POLYLINE_651_">
	<polyline class="st0" points="101.2,66.4 97.5,66.3 97.5,62.3 101.2,62.3 101.2,66.4 	"/>
</g>
<g id="POLYLINE_652_">
	<polyline class="st0" points="101.2,92.4 97.5,92.4 97.5,87.5 101.2,87.5 101.2,92.4 	"/>
</g>
<g id="POLYLINE_653_">
	<path class="st0" d="M97.1,30.8l-4.6,0c-0.1-2.9-0.2-5.7-0.4-8.6l0.6,0c0,0,0.6,0,0.6,0l1.3,0c0,0,1.3,0,1.3,0l1.3,0
		C97.1,25.1,97.1,28,97.1,30.8"/>
</g>
<g id="POLYLINE_654_">
	<path class="st0" d="M106.4,92.5c-1.6,0-3.1,0-4.7,0c0,0,0-4.9,0-4.9c1.6,0,3.1,0,4.7,0C106.4,87.6,106.4,92.5,106.4,92.5"/>
</g>
<g id="POLYLINE_655_">
	<path class="st0" d="M106.9,87.6c1.8,0,3.6,0,5.4,0.1c0,1.6,0,3.3,0,4.9c-1.8,0-3.6,0-5.4-0.1C106.9,92.5,106.9,87.6,106.9,87.6"/>
</g>
<g id="POLYLINE_656_">
	<path class="st0" d="M106.9,82.1c1.8,0,3.6,0,5.4,0.1c0,1.6,0,3.3,0,4.9c-1.8,0-3.6,0-5.4-0.1C106.9,87,106.9,82.1,106.9,82.1"/>
</g>
<g id="POLYLINE_657_">
	<path class="st0" d="M101.2,49.6l-3.7,0c0-3,0-6,0-9.1c0,0,3.7,0,3.7,0C101.3,43.6,101.3,46.6,101.2,49.6"/>
</g>
<g id="POLYLINE_658_">
	<polyline class="st0" points="101.2,100.2 97.5,100.2 97.5,92.9 101.2,92.9 101.2,100.2 	"/>
</g>
<g id="POLYLINE_659_">
	<path class="st0" d="M101.2,56.6l-3.7,0c0-2.2,0-4.3,0-6.5c0,0,3.7,0,3.7,0C101.2,52.3,101.2,54.4,101.2,56.6"/>
</g>
<g id="POLYLINE_660_">
	<path class="st0" d="M106.4,100.3c-1.6,0-3.1,0-4.7,0l0-7.3c1.6,0,3.1,0,4.7,0L106.4,100.3"/>
</g>
<g id="POLYLINE_661_">
	<path class="st0" d="M106.4,113.4c-1.6,0-3.1,0-4.7,0l0-6.9c1.6,0,3.1,0,4.7,0L106.4,113.4"/>
</g>
<g id="POLYLINE_662_">
	<path class="st0" d="M106.4,77.2c-1.6,0-3.1,0-4.7,0l0-4.1c1.6,0,3.1,0,4.7,0L106.4,77.2"/>
</g>
<g id="POLYLINE_663_">
	<path class="st0" d="M106.4,106c-1.6,0-3.1,0-4.7,0l0-5.2c1.6,0,3.1,0,4.7,0L106.4,106"/>
</g>
<g id="POLYLINE_664_">
	<path class="st0" d="M106.9,93c1.8,0,3.6,0,5.4,0.1c0,2.4,0,4.9,0,7.3c-1.8,0-3.6,0-5.4-0.1L106.9,93"/>
</g>
<g id="POLYLINE_665_">
	<path class="st0" d="M106.4,61.8c-1.6,0-3.1,0-4.7,0l0-4.7c1.6,0,3.1,0,4.7,0L106.4,61.8"/>
</g>
<g id="POLYLINE_666_">
	<polyline class="st0" points="101.2,106 97.5,105.9 97.5,100.7 101.2,100.8 101.2,106 	"/>
</g>
<g id="POLYLINE_667_">
	<path class="st0" d="M106.9,57.1c1.8,0,3.6,0,5.4,0c0,0,0,4.7,0,4.7c-1.8,0-3.6,0-5.4,0C106.9,61.8,106.9,57.1,106.9,57.1"/>
</g>
<g id="POLYLINE_668_">
	<path class="st0" d="M97,105.9l-4.6,0c0-1.7,0-3.5,0-5.2l4.5,0L97,105.9"/>
</g>
<g id="POLYLINE_669_">
	<path class="st0" d="M101.3,40l-3.7,0c0-2.9,0-5.8,0.1-8.6c0,0,3.7,0,3.7,0C101.3,34.3,101.3,37.1,101.3,40"/>
</g>
<g id="POLYLINE_670_">
	<path class="st0" d="M97,66.3l-4.2,0c0-1.4,0-2.7,0-4.1l4.1,0L97,66.3"/>
</g>
<g id="POLYLINE_671_">
	<polyline class="st0" points="101.2,61.8 97.5,61.8 97.5,57.1 101.2,57.1 101.2,61.8 	"/>
</g>
<g id="POLYLINE_672_">
	<path class="st0" d="M97,72.6l-4.2,0c0-1.9,0-3.8,0.1-5.7l4.2,0C97,66.9,97,72.6,97,72.6"/>
</g>
<g id="POLYLINE_673_">
	<path class="st0" d="M97,56.6l-4.1,0c0-2.2,0-4.3,0-6.5c0,0,4.2,0,4.2,0C97,52.3,97,54.4,97,56.6"/>
</g>
<g id="POLYLINE_674_">
	<polyline class="st0" points="101.2,81.6 97.5,81.6 97.5,77.7 101.2,77.7 101.2,81.6 	"/>
</g>
<g id="POLYLINE_675_">
	<polyline class="st0" points="101.2,87 97.5,87 97.5,82.1 101.2,82.1 101.2,87 	"/>
</g>
<g id="POLYLINE_676_">
	<path class="st0" d="M107.1,31.4c1.7,0,3.3,0,5,0c0,2.9,0.1,5.8,0.1,8.7c-1.7,0-3.4,0-5.1,0C107,37.2,107,34.3,107.1,31.4"/>
</g>
<g id="POLYLINE_677_">
	<polyline class="st0" points="101.2,77.2 97.5,77.2 97.5,73.1 101.2,73.1 101.2,77.2 	"/>
</g>
<g id="POLYLINE_678_">
	<path class="st0" d="M106.9,106.5c1.8,0,3.5,0,5.3,0.1c0,2.3-0.1,4.6-0.1,6.9c-1.7,0-3.5,0-5.2-0.1L106.9,106.5"/>
</g>
<g id="POLYLINE_679_">
	<polyline class="st0" points="101.2,113.3 97.5,113.3 97.5,106.4 101.2,106.5 101.2,113.3 	"/>
</g>
<g id="POLYLINE_680_">
	<path class="st0" d="M106.4,56.6c-1.6,0-3.1,0-4.7,0c0-2.2,0-4.3,0-6.5c1.6,0,3.1,0,4.7,0C106.4,52.3,106.4,54.5,106.4,56.6"/>
</g>
<g id="POLYLINE_681_">
	<path class="st0" d="M106.4,49.6c-1.6,0-3.1,0-4.7,0c0-3,0-6,0-9.1c1.6,0,3.1,0,4.7,0C106.5,43.6,106.5,46.6,106.4,49.6"/>
</g>
<g id="POLYLINE_682_">
	<path class="st0" d="M97,113.3l-4.6,0c0-2.3,0-4.6,0-6.9c0,0,4.6,0,4.6,0S97,113.3,97,113.3"/>
</g>
<g id="POLYLINE_683_">
	<path class="st0" d="M106.4,87c-1.6,0-3.1,0-4.7,0l0-4.9c1.6,0,3.1,0,4.7,0L106.4,87"/>
</g>
<g id="POLYLINE_684_">
	<path class="st0" d="M106.9,66.9c1.8,0,3.6,0,5.4,0c0,1.9,0,3.8,0,5.7c-1.8,0-3.6,0-5.4,0L106.9,66.9"/>
</g>
<g id="POLYLINE_685_">
	<path class="st0" d="M106.9,100.8c1.8,0,3.6,0,5.4,0.1c0,1.7,0,3.5-0.1,5.2c-1.8,0-3.5,0-5.3-0.1L106.9,100.8"/>
</g>
<g id="POLYLINE_686_">
	<path class="st0" d="M106.4,72.6c-1.6,0-3.1,0-4.7,0c0,0,0-5.7,0-5.7c1.6,0,3.1,0,4.7,0L106.4,72.6"/>
</g>
<g id="POLYLINE_687_">
	<polyline class="st0" points="97,81.5 92.6,81.5 92.7,77.7 97,77.7 97,81.5 	"/>
</g>
<g id="POLYLINE_688_">
	<path class="st0" d="M106.5,40.1c-1.6,0-3.1,0-4.7,0c0-2.9,0-5.8,0.1-8.7c1.6,0,3.1,0,4.7,0C106.5,34.3,106.5,37.2,106.5,40.1"/>
</g>
<g id="POLYLINE_689_">
	<path class="st0" d="M106.4,81.6c-1.6,0-3.1,0-4.7,0l0-3.9c1.6,0,3.1,0,4.7,0C106.4,77.7,106.4,81.6,106.4,81.6"/>
</g>
<g id="POLYLINE_690_">
	<path class="st0" d="M107,50.2c1.8,0,3.5,0,5.3,0c0,2.2,0,4.3,0.1,6.5c-1.8,0-3.6,0-5.4,0C107,54.5,107,52.3,107,50.2"/>
</g>
<g id="POLYLINE_691_">
	<path class="st0" d="M97,61.8l-4.1,0c0-1.6,0-3.1,0-4.7c0,0,4.1,0,4.1,0L97,61.8"/>
</g>
<g id="POLYLINE_692_">
	<path class="st0" d="M97,100.2l-4.5,0c0-2.4,0-4.9,0.1-7.3l4.5,0L97,100.2"/>
</g>
<g id="POLYLINE_693_">
	<path class="st0" d="M106.4,66.4c-1.6,0-3.1,0-4.7,0l0-4.1c1.6,0,3.1,0,4.7,0L106.4,66.4"/>
</g>
<g id="POLYLINE_694_">
	<polyline class="st0" points="97,77.2 92.7,77.1 92.7,73.1 97,73.1 97,77.2 	"/>
</g>
<g id="POLYLINE_695_">
	<path class="st0" d="M97,40l-4.3,0c-0.1-2.9-0.1-5.8-0.2-8.6l4.6,0C97.1,34.2,97,37.1,97,40"/>
</g>
<g id="POLYLINE_696_">
	<polyline class="st0" points="101.2,72.6 97.5,72.6 97.5,66.9 101.2,66.9 101.2,72.6 	"/>
</g>
<g id="POLYLINE_697_">
	<path class="st0" d="M107,40.6c1.7,0,3.4,0,5.2,0c0,3,0.1,6,0.1,9.1c-1.8,0-3.5,0-5.3,0C107,46.6,107,43.6,107,40.6"/>
</g>
<g id="POLYLINE_698_">
	<path class="st0" d="M107.1,22.3c1.6,0,3.2,0,4.8,0c0,2.9,0.1,5.8,0.1,8.6c-1.7,0-3.3,0-5,0C107.1,28,107.1,25.2,107.1,22.3"/>
</g>
<g id="POLYLINE_699_">
	<path class="st0" d="M106.9,62.4c1.8,0,3.6,0,5.4,0c0,0,0,4.1,0,4.1c-1.8,0-3.6,0-5.4,0L106.9,62.4"/>
</g>
<g id="POLYLINE_700_">
	<polyline class="st0" points="97,87 92.5,86.9 92.6,82 97,82.1 97,87 	"/>
</g>
<g id="POLYLINE_701_">
	<path class="st0" d="M101.3,30.9l-3.7,0c0-2.8,0-5.7,0.1-8.5c1.2,0,2.5,0,3.7,0C101.4,25.2,101.4,28,101.3,30.9"/>
</g>
<g id="POLYLINE_702_">
	<path class="st0" d="M97,49.6l-4.2,0c0-3-0.1-6-0.1-9.1l4.3,0C97,43.5,97,46.6,97,49.6"/>
</g>
<g id="POLYLINE_703_">
	<path class="st0" d="M106.9,77.7c1.8,0,3.6,0,5.5,0l0,3.9c-1.8,0-3.6,0-5.5-0.1C106.9,81.6,106.9,77.7,106.9,77.7"/>
</g>
<g id="POLYLINE_704_">
	<path class="st0" d="M106.5,30.9c-1.6,0-3.1,0-4.7,0c0-2.9,0-5.7,0.1-8.6c1.6,0,3.1,0,4.7,0C106.6,25.2,106.6,28,106.5,30.9"/>
</g>
<g id="POLYLINE_705_">
	<polyline class="st0" points="97,92.4 92.5,92.4 92.5,87.5 97,87.5 97,92.4 	"/>
</g>
<g id="POLYLINE_706_">
	<path class="st0" d="M106.9,73.2c1.8,0,3.6,0,5.4,0c0,0,0,4.1,0,4.1c-1.8,0-3.6,0-5.5,0L106.9,73.2"/>
</g>
<g id="POLYLINE_707_">
	<path class="st0" d="M106.9,122.8h5.1c0.1-2.9,0.1-5.9,0.1-8.8c-1.7,0-3.5,0-5.2-0.1L106.9,122.8"/>
</g>
<g id="POLYLINE_708_">
	<path class="st0" d="M92.5,122.8H97l0-9l-4.6,0C92.4,116.8,92.4,119.8,92.5,122.8"/>
</g>
<g id="POLYLINE_709_">
	<polyline class="st0" points="97.5,122.8 101.2,122.8 101.2,113.9 97.5,113.8 97.5,122.8 	"/>
</g>
<g id="POLYLINE_710_">
	<polyline class="st0" points="112.6,22.3 112.6,22.3 112.6,21.6 111.9,21.6 110.2,21.6 104.9,21.6 103.2,21.6 100.1,21.6 
		99.1,21.6 98.2,21.6 97.2,21.6 96.2,21.6 94.2,21.5 93.1,21.5 92.1,21.5 91.3,21.5 91.4,22.3 91.4,23.1 91.5,23.9 91.5,24.7 
		91.5,25.6 91.6,26.4 91.6,27.2 91.6,28 91.7,28.9 91.7,29.7 91.7,30.5 91.8,31.3 91.8,32.1 91.8,33 91.8,33.8 91.9,35.4 91.9,37.1 
		91.9,38.7 92,40.4 92,42 92,43.6 92,45.3 92.1,46.9 92.1,48.6 92.1,50.2 92.1,51.9 92.1,53.5 92.1,55.2 92.1,56.8 92.1,58.5 
		92.1,60.1 92.1,61.8 92.1,63.4 92.1,65 92,66.7 92,68.3 92,70 92,71.6 92,74.9 91.9,78 91.9,81 91.8,87 91.8,90.1 91.7,93.1 
		91.7,96.1 91.7,97.6 91.7,99.1 91.7,100.6 91.7,102.2 91.7,103.7 91.7,105.2 91.7,106.7 91.7,108.2 91.7,109.7 91.7,111.2 
		91.7,112.7 91.7,114.3 91.7,115.8 91.7,117.3 91.7,118.8 91.7,120.3 91.7,121.8 91.8,123.3 112.7,123.3 112.8,121.8 112.8,120.2 
		112.8,118.6 112.8,117 112.9,115.4 112.9,113.9 112.9,112.3 112.9,110.7 112.9,109.1 113,107.5 113,104.4 113,101.2 113.1,98.1 
		113.1,94.9 113.1,91.7 113.1,88.5 113.1,85.4 113.1,82.2 113.1,79 113.1,75.9 113.1,72.7 113.1,69.5 113.1,66.3 113.1,63.2 
		113.1,60 113,56.9 113,53.7 113,50.5 113,47.4 112.9,44.2 112.9,41.1 112.9,38 112.8,34.8 112.8,31.7 112.7,28.6 112.7,25.4 
		112.6,22.3 	"/>
</g>
<g id="POLYLINE_711_">
	<path class="st0" d="M106.4,113.9c-1.6,0-3.1,0-4.7,0l0,8.9c0,0,4.7,0,4.7,0L106.4,113.9"/>
</g>
<g id="HATCH_349_">
	<path class="st1" d="M112.6,22.3L112.6,22.3l0-0.8l-0.7,0l-1.7,0l-5.2,0l-1.7,0l-3.1,0l-0.9,0l-0.9,0l-1,0l-1,0l-2,0l-1,0l-1,0
		l-0.8,0l0,0.8l0,0.8l0,0.8l0,0.8l0,0.8l0,0.8l0,0.8l0,0.8l0,0.8l0,0.8l0,0.8l0,0.8l0,0.8l0,0.8l0,0.8l0,1.6l0,1.6l0,1.6l0,1.6
		l0,1.6l0,1.6l0,1.6l0,1.6l0,1.6l0,1.6l0,1.6l0,1.6l0,1.6l0,1.6l0,1.6l0,1.6l0,1.6l0,1.6l0,1.6l0,1.6l0,1.6l0,1.6l0,1.6l0,3.3l0,3
		L91.8,87l0,3l0,3l0,3l0,1.5l0,1.5l0,1.5l0,1.5l0,1.5l0,1.5l0,1.5l0,1.5l0,1.5l0,1.5l0,1.5l0,1.5l0,1.5l0,1.5l0,1.5l0,1.5l0,1.5
		l0,1.5h21l0-1.6l0-1.6l0-1.6l0-1.6l0-1.6l0-1.6l0-1.6l0-1.6l0-1.6l0-1.6l0-3.2l0-3.2l0-3.2l0-3.2l0-3.2l0-3.2l0-3.2l0-3.2l0-3.2
		l0-3.2l0-3.2l0-3.2l0-3.2l0-3.2l0-3.2l0-3.2l0-3.2l0-3.2l0-3.2l0-3.1l0-3.1l0-3.1l0-3.1l0-3.1l0-3.1l0-3.1L112.6,22.3z
		 M106.4,113.9l0,8.9h-4.7l0-8.9l2.3,0L106.4,113.9z M97.5,122.8l0-9l3.7,0l0,8.9H97.5z M92.5,122.8l0-1.1l0-1.1l0-1.1l0-1.1l0-1.1
		l0-1.1l0-1.1l0-1.1l2.3,0l2.3,0l0,9H92.5z M106.9,122.8l0-8.9l2.6,0l2.6,0l0,2.2l0,2.2l0,2.2l0,2.2H106.9z M106.9,73.2l2.7,0l2.8,0
		l0,2l0,2l-2.8,0l-2.7,0L106.9,73.2z M97,92.4l-2.3,0l-2.2,0l0-2.4l0-2.4l2.2,0l2.2,0l0,1.8L97,92.4z M106.5,30.9l-2.4,0l-2.3,0
		l0-2.1l0-2.1l0-2.2l0-2.2l0.7,0l2,0l2,0l0,2.2l0,2.2l0,2.1L106.5,30.9z M106.9,77.7l2.7,0l2.8,0l0,1.9l0,1.9l-2.8,0l-2.7,0l0-0.4
		L106.9,77.7z M97,49.6l-2.1,0l-2.1,0l0-1.1l0-1.1l0-1.1l0-1.1l0-1.1l0-1.1l0-1.1l0-1.1l2.1,0l2.2,0l0,2.3l0,2.3l0,2.2L97,49.6z
		 M101.3,30.9l-3.7,0l0-2.1l0-2.1l0-2.2l0-2.2l0.9,0l0.9,0l1.9,0l0,2.2l0,2.2l0,2.1L101.3,30.9z M97,87l-2.2,0l-2.2,0l0.1-4.9l2.2,0
		l2.2,0L97,87z M106.9,62.4l2.7,0l2.7,0l0,2l0,2l-2.7,0l-2.7,0L106.9,62.4z M107.1,22.3l2.4,0l2.4,0l0,0l0.1,4.3l0.1,4.3l-2.5,0
		l-2.5,0l0-2.1l0-2.1l0-2.2L107.1,22.3z M107,40.6l2.6,0l2.6,0l0,2.3l0,2.3l0,2.3l0,2.3l-2.7,0l-2.6,0l0-2.2l0-2.2l0-2.3L107,40.6z
		 M101.2,72.6l-3.7,0l0-5.7l3.7,0L101.2,72.6z M97,40l-2.2,0l-2.1,0l0-1.1l0-1.1l0-1.1l0-1.1l0-1.1l0-1.1l0-1.1l0-1.1l2.3,0l2.3,0
		l0,2.2l0,2.2l0,2.1L97,40z M97,77.2l-2.2,0l-2.1,0l0-4.1l2.1,0l2.1,0L97,77.2z M106.4,66.4l-2.4,0l-2.3,0l0-4.1l2.3,0l2.4,0
		L106.4,66.4z M97,100.2l-2.3,0l-2.2,0l0-1.8l0-1.8l0-1.8l0-1.8l2.2,0l2.3,0L97,100.2z M97,61.8l-2.1,0l-2.1,0l0-2.3l0-2.3l2,0
		l2.1,0L97,61.8z M107,50.2l2.6,0l2.7,0l0,3.2l0,3.2l-2.7,0l-2.7,0l0-3.2L107,50.2z M106.4,81.6l-2.4,0l-2.3,0l0-0.4l0-3.5l2.3,0
		l2.4,0l0,3.4L106.4,81.6z M106.5,40.1l-2.4,0l-2.3,0l0-2.1l0-2.1l0-2.2l0-2.2l2.3,0l2.4,0l0,2.2l0,2.2l0,2.1L106.5,40.1z M97,81.5
		l-2.2,0l-2.1,0l0-3.9l2.1,0l2.2,0l0,3.5L97,81.5z M106.4,72.6l-2.4,0l-2.3,0l0-5.7l2.3,0l2.4,0L106.4,72.6z M106.9,100.8l2.7,0
		l2.7,0l0,2.6l0,2.6l-2.7,0l-2.6,0l0-2.6L106.9,100.8z M106.9,66.9l2.7,0l2.7,0l0,2.9l0,2.9l-2.8,0l-2.7,0L106.9,66.9z M106.4,87
		l-2.4,0l-2.3,0l0-4.9l2.3,0l2.4,0L106.4,87z M97,113.3l-2.3,0l-2.3,0l0-1.7l0-1.7l0-1.7l0-1.7l2.3,0l2.3,0L97,113.3z M106.4,49.6
		l-2.4,0l-2.3,0l0-2.2l0-2.2l0-2.3l0-2.3l2.3,0l2.4,0l0,2.3l0,2.3l0,2.2L106.4,49.6z M106.4,56.6l-2.4,0l-2.3,0l0-3.2l0-3.3l2.3,0
		l2.4,0l0,3.3L106.4,56.6z M101.2,113.3l-3.7,0l0-6.9l3.7,0L101.2,113.3z M106.9,106.5l2.6,0l2.7,0l0,1.7l0,1.7l0,1.7l0,1.7l-2.6,0
		l-2.6,0L106.9,106.5z M101.2,77.2l-3.7,0l0-4.1l3.7,0L101.2,77.2z M107.1,31.4l2.5,0l2.5,0l0.1,4.3l0.1,4.3l-2.6,0l-2.5,0l0-2.1
		l0-2.1l0-2.2L107.1,31.4z M101.2,87l-3.7,0l0-4.9l3.7,0L101.2,87z M101.2,81.6l-3.7,0l0-0.4l0-3.5l3.7,0l0,3.5L101.2,81.6z
		 M97,56.6l-2.1,0l-2,0l0-1.6l0-1.6l0-1.6l0-1.6l2.1,0l2.1,0l0,3.3L97,56.6z M97,72.6l-2.1,0l-2.1,0l0-2.9l0-2.9l2.1,0l2.1,0
		L97,72.6z M101.2,61.8l-3.7,0l0-4.7l3.7,0L101.2,61.8z M97,66.3l-2.1,0l-2.1,0l0-2l0-2l2.1,0l2.1,0L97,66.3z M101.3,40l-3.7,0
		l0-2.1l0-2.1l0-2.2l0-2.2l3.7,0l0,2.2l0,2.2l0,2.1L101.3,40z M97,105.9l-2.3,0l-2.3,0l0-1.3l0-1.3l0-2.6l2.2,0l2.3,0l0,2.7
		L97,105.9z M106.9,57.1l2.7,0l2.7,0l0,2.3l0,2.3l-2.7,0l-2.7,0L106.9,57.1z M101.2,106l-3.7,0l0-2.5l0-2.7l3.7,0l0,2.6L101.2,106z
		 M106.4,61.8l-2.4,0l-2.3,0l0-4.7l2.3,0l2.4,0L106.4,61.8z M106.9,93l2.7,0l2.7,0l0,1.8l0,1.8l0,1.8l0,1.8l-2.7,0l-2.7,0L106.9,93z
		 M106.4,106l-2.4,0l-2.3,0l0-2.6l0-2.6l2.3,0l2.4,0l0,2.6L106.4,106z M106.4,77.2l-2.4,0l-2.3,0l0-4.1l2.3,0l2.4,0L106.4,77.2z
		 M106.4,113.4l-2.4,0l-2.3,0l0-6.9l2.3,0l2.4,0L106.4,113.4z M106.4,100.3l-2.4,0l-2.3,0l0-7.3l2.3,0l2.4,0L106.4,100.3z
		 M101.2,56.6l-3.7,0l0-3.2l0-3.3l3.7,0l0,3.3L101.2,56.6z M101.2,100.2l-3.7,0l0-7.3l3.7,0L101.2,100.2z M101.2,49.6l-3.7,0l0-2.2
		l0-2.2l0-2.3l0-2.3l3.7,0l0,2.3l0,2.3l0,2.2L101.2,49.6z M106.9,82.1l2.7,0l2.8,0l0,2.5l0,2.5l-2.7,0l-2.7,0L106.9,82.1z
		 M106.9,87.6l2.7,0l2.7,0l0,2.4l0,2.4l-2.7,0l-2.7,0l0-3.2L106.9,87.6z M106.4,92.5l-2.4,0l-2.3,0l0-3.1l0-1.7l2.3,0l2.4,0l0,1.7
		L106.4,92.5z M97.1,30.8l-2.3,0l-2.3,0l0-1.1l0-1.1l0-1.1l0-1.1l0-1.1l0-1.1l0-1.1l-0.1-1.1l0.6,0l0.6,0l1.3,0l1.3,0l1.3,0l0,2.2
		l0,2.2l0,2.1L97.1,30.8z M101.2,92.4l-3.7,0l0-3.1l0-1.8l3.7,0l0,1.7L101.2,92.4z M101.2,66.4l-3.7,0l0-4.1l3.7,0L101.2,66.4z"/>
</g>
<g id="HATCH_350_">
	<polygon class="st1" points="0.9,122.9 6.2,122.9 11,122.8 23.5,122.8 27.3,122.7 31,122.7 34.9,122.7 39.2,122.7 43.7,122.7 
		48.4,122.7 53.2,122.7 68.5,122.7 73.9,122.6 79.3,122.6 84.9,122.6 90.5,122.6 93.3,122.6 96.2,122.6 99,122.6 101.9,122.6 
		104.8,122.5 107.6,122.5 110.5,122.5 113.4,122.5 116.3,122.5 119.2,122.4 119.3,122.4 119.3,122.4 119.4,122.4 119.4,122.4 
		119.5,122.5 119.5,122.5 119.6,122.5 119.6,122.5 119.7,122.5 119.7,122.5 119.7,122.5 119.8,122.5 119.8,122.5 119.8,122.5 
		119.9,122.5 119.9,122.5 119.9,122.6 119.9,122.6 119.9,122.6 119.9,122.6 120,122.6 120,122.6 120,122.6 120,122.6 120,122.6 
		120,122.6 120,122.6 120,122.6 120,122.6 120.1,122.7 120.1,122.7 120.1,122.7 120.1,122.7 120.1,122.7 120.1,122.7 120.1,122.7 
		120.1,122.7 120.1,122.7 120.1,122.7 120.1,122.7 120.1,122.7 120.1,122.7 120.1,122.7 120.1,122.7 120.1,122.8 120.1,122.8 
		120.1,122.8 120.1,122.8 120.1,122.8 120.1,122.8 120.1,122.8 120.2,122.8 120.2,122.8 120.2,122.8 120.2,122.8 120.2,122.8 
		120.2,122.8 120.2,122.8 120.2,122.8 120.2,122.8 120.2,122.8 120.2,122.8 120.2,122.8 120.2,122.8 120.2,122.8 120.2,122.8 
		120.2,122.9 120.2,122.9 120.2,122.9 120.2,122.9 120.2,122.9 120.2,122.9 120.2,122.9 120.2,122.9 120.2,122.9 120.2,122.9 
		120.2,122.9 120.2,122.9 120.2,122.9 120.2,122.9 120.2,122.9 120.2,122.9 120.2,122.9 120.2,122.9 120.1,122.9 120.1,122.9 
		120.1,122.9 120.1,122.9 120.1,123 120.1,123 120.1,123 120.1,123 120.1,123 120.1,123 120.1,123 120.1,123 120.1,123 120.1,123 
		120.1,123 120.1,123 120.1,123 120.1,123 120.1,123 120.1,123 120.1,123 120.1,123.1 120,123.1 120,123.1 120,123.1 120,123.1 
		120,123.1 120,123.1 120,123.1 120,123.1 120,123.1 119.9,123.1 119.9,123.1 119.9,123.1 119.9,123.1 119.9,123.2 119.9,123.2 
		119.9,123.2 119.8,123.2 119.8,123.2 119.8,123.2 119.7,123.2 119.7,123.2 119.6,123.2 119.6,123.2 119.6,123.2 119.5,123.2 
		119.5,123.2 119.4,123.2 119.4,123.2 116,123.3 112.6,123.3 109.3,123.3 105.9,123.3 102.5,123.4 99.2,123.4 95.8,123.4 
		92.4,123.4 89.1,123.4 85.8,123.4 79.1,123.4 72.4,123.4 65.8,123.5 53.4,123.5 47.7,123.5 42,123.5 39.4,123.5 36.7,123.5 
		34.1,123.5 31.5,123.5 29,123.5 26.6,123.5 21.6,123.6 10.6,123.6 5.7,123.7 0.9,123.7 0.8,123.7 0.8,123.7 0.8,123.7 0.8,123.7 
		0.8,123.7 0.8,123.7 0.7,123.7 0.7,123.7 0.7,123.7 0.7,123.7 0.7,123.7 0.7,123.7 0.7,123.7 0.7,123.7 0.6,123.7 0.6,123.7 
		0.6,123.7 0.6,123.7 0.6,123.7 0.6,123.6 0.6,123.6 0.6,123.6 0.6,123.6 0.5,123.6 0.5,123.6 0.5,123.6 0.5,123.6 0.5,123.6 
		0.5,123.6 0.5,123.6 0.5,123.6 0.5,123.6 0.5,123.6 0.5,123.6 0.5,123.6 0.4,123.5 0.4,123.5 0.4,123.5 0.4,123.5 0.4,123.5 
		0.4,123.5 0.4,123.5 0.4,123.5 0.4,123.5 0.4,123.5 0.4,123.5 0.4,123.5 0.4,123.4 0.4,123.4 0.4,123.4 0.4,123.4 0.4,123.4 
		0.4,123.4 0.4,123.4 0.4,123.4 0.4,123.4 0.4,123.4 0.4,123.4 0.4,123.3 0.4,123.3 0.4,123.3 0.4,123.3 0.4,123.3 0.4,123.3 
		0.4,123.3 0.4,123.3 0.4,123.3 0.4,123.3 0.4,123.3 0.4,123.2 0.4,123.2 0.4,123.2 0.4,123.2 0.4,123.2 0.4,123.2 0.4,123.2 
		0.4,123.2 0.4,123.2 0.4,123.2 0.4,123.2 0.4,123.1 0.4,123.1 0.4,123.1 0.4,123.1 0.4,123.1 0.4,123.1 0.4,123.1 0.4,123.1 
		0.4,123.1 0.5,123.1 0.5,123.1 0.5,123.1 0.5,123 0.5,123 0.5,123 0.5,123 0.5,123 0.5,123 0.5,123 0.5,123 0.6,123 0.6,123 
		0.6,123 0.6,123 0.6,123 0.6,123 0.6,123 0.6,123 0.6,123 0.7,122.9 0.7,122.9 0.7,122.9 0.7,122.9 0.7,122.9 0.7,122.9 0.7,122.9 
		0.7,122.9 0.8,122.9 0.8,122.9 0.8,122.9 0.8,122.9 0.8,122.9 0.8,122.9 0.9,122.9 0.9,122.9 	"/>
</g>
<g id="POLYLINE_712_">
	<path class="st0" d="M0.9,122.9l5.3,0l4.8,0l12.4-0.1l3.8,0l3.8,0l3.9,0c0,0,4.3,0,4.3,0l4.5,0l4.7,0l4.8,0l15.3,0c0,0,5.4,0,5.4,0
		l5.5,0l5.5,0l5.6,0l2.8,0l2.8,0l2.9,0c0,0,2.9,0,2.9,0s2.9,0,2.9,0l2.9,0l2.9,0l2.9,0l2.9,0l2.9,0l0.1,0l0.1,0l0.1,0l0.1,0
		c0,0,0.1,0,0.1,0s0,0,0,0l0,0c0,0,0,0,0,0l0,0l0,0c0,0,0,0,0,0l0,0l0,0l0,0c0,0,0,0,0,0c0,0,0,0,0,0c0,0,0,0,0,0c0,0,0,0,0,0
		c0,0,0,0,0,0c0,0,0,0,0,0c0,0,0,0,0,0c0,0,0,0,0,0c0,0,0,0,0,0c0,0,0,0,0,0c0,0,0,0,0,0c0,0,0,0,0,0c0,0,0,0,0,0c0,0,0,0,0,0
		c0,0,0,0,0,0c0,0,0,0,0,0c0,0,0,0,0,0c0,0,0,0,0,0c0,0,0,0,0,0c0,0,0,0,0,0c0,0,0,0,0,0c0,0,0,0,0,0c0,0,0,0,0,0c0,0,0,0,0,0
		c0,0,0,0,0,0c0,0,0,0,0,0c0,0,0,0,0,0c0,0,0,0,0,0c0,0,0,0,0,0c0,0,0,0,0,0c0,0,0,0,0,0c0,0,0,0,0,0c0,0,0,0,0,0c0,0,0,0,0,0
		c0,0,0,0,0,0s0,0,0,0l0,0l0,0c0,0,0,0,0,0l0,0l0,0l0,0l0,0l0,0l0,0c0,0,0,0,0,0l-3.4,0l-3.4,0l-3.4,0l-3.4,0l-3.4,0l-3.4,0l-3.4,0
		l-3.4,0l-3.3,0c0,0-3.3,0-3.3,0s-6.7,0-6.7,0s-6.7,0-6.7,0l-6.7,0l-12.4,0l-5.7,0c0,0-5.7,0-5.7,0l-2.6,0l-2.6,0l-2.6,0l-2.6,0
		c0,0-2.5,0-2.5,0l-2.5,0l-5,0l-11,0.1l-4.9,0l-4.9,0c0,0,0,0,0,0c0,0,0,0,0,0c0,0,0,0,0,0c0,0,0,0,0,0c0,0,0,0,0,0c0,0,0,0,0,0
		c0,0,0,0,0,0c0,0,0,0,0,0c0,0,0,0,0,0c0,0,0,0,0,0c0,0,0,0,0,0c0,0,0,0,0,0c0,0,0,0,0,0c0,0,0,0,0,0c0,0,0,0,0,0c0,0,0,0,0,0
		c0,0,0,0,0,0c0,0,0,0,0,0c0,0,0,0,0,0c0,0,0,0,0,0c0,0,0,0,0,0c0,0,0,0,0,0c0,0,0,0,0,0c0,0,0,0,0,0c0,0,0,0,0,0c0,0,0,0,0,0
		c0,0,0,0,0,0c0,0,0,0,0,0c0,0,0,0,0,0c0,0,0,0,0,0c0,0,0,0,0,0c0,0,0,0,0,0c0,0,0,0,0,0c0,0,0,0,0,0c0,0,0,0,0,0c0,0,0,0,0,0
		c0,0,0,0,0,0c0,0,0,0,0,0c0,0,0,0,0,0c0,0,0,0,0,0c0,0,0,0,0,0c0,0,0,0,0,0c0,0,0,0,0,0c0,0,0,0,0,0c0,0,0,0,0,0c0,0,0,0,0,0
		c0,0,0,0,0,0c0,0,0,0,0,0c0,0,0,0,0,0c0,0,0,0,0,0c0,0,0,0,0,0C0.8,122.9,0.8,122.9,0.9,122.9C0.8,122.9,0.9,122.9,0.9,122.9
		C0.9,122.9,0.9,122.9,0.9,122.9"/>
</g>
</svg>
