<?xml version="1.0" encoding="utf-8"?>
<!-- Generator: Adobe Illustrator 21.1.0, SVG Export Plug-In . SVG Version: 6.00 Build 0)  -->
<svg version="1.1" id="Capa_1" xmlns="http://www.w3.org/2000/svg" xmlns:xlink="http://www.w3.org/1999/xlink" x="0px" y="0px"
	 viewBox="0 0 392.5 482.1" style="enable-background:new 0 0 392.5 482.1;" xml:space="preserve">
<style type="text/css">
	.st0{fill:#434A54;}
</style>
<g>
	<path class="st0" d="M97.2,310.2c0-8-5.6-12.8-15.4-12.8c-4,0-6.7,0.4-8.1,0.8v25.7c1.7,0.4,3.7,0.5,6.6,0.5
		C90.8,324.4,97.2,319.1,97.2,310.2z"/>
	<path class="st0" d="M157.9,297.7c-4.4,0-7.2,0.4-8.9,0.8v56.9c1.7,0.4,4.4,0.4,6.8,0.4c17.8,0.1,29.4-9.7,29.4-30.4
		C185.4,307.2,174.8,297.7,157.9,297.7z"/>
	<path class="st0" d="M270.7,0H77C48.7,0,25.7,23,25.7,51.3v189.8h-5C9.3,241.1,0,250.3,0,261.7v125.4c0,11.4,9.3,20.7,20.7,20.7h5
		v23c0,28.3,23,51.3,51.3,51.3h264.2c28.3,0,51.3-23,51.3-51.3V121.4L270.7,0z M54.2,284.4c6.1-1,14.6-1.8,26.6-1.8
		c12.1,0,20.8,2.3,26.6,7c5.5,4.4,9.3,11.6,9.3,20.1c0,8.5-2.8,15.7-8,20.6c-6.7,6.3-16.6,9.2-28.3,9.2c-2.6,0-4.9-0.1-6.7-0.4v31.1
		H54.2V284.4z M341.2,450.7H77c-11,0-19.9-8.9-19.9-19.9v-23h246.3c11.4,0,20.7-9.3,20.7-20.7V261.7c0-11.4-9.3-20.7-20.7-20.7H57.1
		V51.3c0-10.9,8.9-19.9,19.9-19.9l181.9-0.2v67.2c0,19.6,15.9,35.6,35.6,35.6l65.9-0.2l0.7,296.9
		C361.1,441.8,352.2,450.7,341.2,450.7z M129.3,369.8v-85.4c7.2-1.1,16.6-1.8,26.6-1.8c16.5,0,27.2,3,35.6,9.3
		c9,6.7,14.7,17.4,14.7,32.8c0,16.6-6.1,28.1-14.5,35.2c-9.2,7.6-23.1,11.2-40.1,11.2C141.4,371.1,134.2,370.4,129.3,369.8z
		 M270.1,319.2v16h-31.2v35h-19.7v-87h53.2v16.1h-33.4v19.9H270.1z"/>
</g>
</svg>
