<?xml version="1.0" encoding="utf-8"?>
<!-- Generator: Adobe Illustrator 18.0.0, SVG Export Plug-In . SVG Version: 6.00 Build 0)  -->
<!DOCTYPE svg PUBLIC "-//W3C//DTD SVG 1.1//EN" "http://www.w3.org/Graphics/SVG/1.1/DTD/svg11.dtd">
<svg version="1.1" id="Capa_1" xmlns="http://www.w3.org/2000/svg" xmlns:xlink="http://www.w3.org/1999/xlink" x="0px" y="0px"
	 viewBox="0 58.8 1280 1162.4" enable-background="new 0 58.8 1280 1162.4" xml:space="preserve">
<g>
	<g id="Clips_2_">
		<g>
			<path fill="#FF7D2B" d="M1183.2,155.7c-129.1-129.1-338.5-129.1-467.6,0L72.7,798.6c-96.9,96.9-96.9,253.8,0,350.7
				c79.8,79.8,200.3,92.7,294.4,40.9c9.8-0.5,19.5-4.2,27-11.7L1037,535.6c64.6-64.6,64.6-169.2,0-233.8
				c-64.6-64.6-169.2-64.6-233.8,0l-526,526c-16.1,16.1-16.1,42.3,0,58.4c16.1,16.1,42.3,16.1,58.4,0l526-526
				c32.3-32.3,84.6-32.3,116.9,0c32.3,32.3,32.3,84.6,0,116.9l-613.7,613.7c-64.6,64.6-169.2,64.6-233.8,0s-64.6-169.2,0-233.8
				L774,214.1c96.9-96.9,253.8-96.9,350.7,0c96.9,96.9,96.9,253.8,0,350.7l-584.5,584.5c-16.1,16.1-16.1,42.3,0,58.4
				c16.1,16.1,42.3,16.1,58.4,0l584.5-584.5C1312.3,494.1,1312.3,284.8,1183.2,155.7z"/>
		</g>
	</g>
</g>
</svg>
