<?xml version="1.0" encoding="utf-8"?>
<!-- Generator: Adobe Illustrator 21.1.0, SVG Export Plug-In . SVG Version: 6.00 Build 0)  -->
<svg version="1.1" id="Слой_1" xmlns="http://www.w3.org/2000/svg" xmlns:xlink="http://www.w3.org/1999/xlink" x="0px" y="0px"
	 viewBox="0 0 394.3 283.4" style="enable-background:new 0 0 394.3 283.4;" xml:space="preserve">
<style type="text/css">
	.st0{fill:#FFFFFF;}
	.st1{fill:none;stroke:#FFFFFF;stroke-width:0.7087;stroke-linecap:round;stroke-linejoin:round;stroke-miterlimit:10;}
	.st2{fill:#ED6720;}
	.st3{fill:none;stroke:#ED6720;stroke-width:0.7087;stroke-linecap:round;stroke-linejoin:round;stroke-miterlimit:10;}
</style>
<g id="HATCH_373_">
	<polygon class="st0" points="184.8,149.7 193.4,149.7 202.1,149.7 211.1,149.7 220.4,149.7 229.8,149.7 239.8,149.7 250.3,149.7 
		261,149.7 272.4,149.7 278.2,149.7 284,149.5 290,149.5 295.9,149.5 298.8,149.5 301.7,149.3 304.8,149.3 307.7,149.3 310.6,149.3 
		313.7,149.1 316.6,149.1 319.5,149.1 322.2,149 325.1,149 328,148.8 330.7,148.8 333.5,148.6 336.2,148.4 338.9,148.4 341.6,148.2 
		344.1,148.1 346.7,148.1 349.2,147.9 351.8,147.7 353.4,147.5 355,147.3 356.5,147.3 357.9,147.2 359.4,147 360.6,147 361.9,146.8 
		363,146.6 363.5,146.6 363.9,146.6 364.3,146.4 364.6,146.4 365,146.4 365.4,146.2 365.4,146.2 365.5,146.2 365.5,146.2 
		365.7,146.2 365.7,146.2 365.7,146.2 365.7,146.2 365.9,146.2 365.9,146.2 365.9,146.1 365.9,146.1 365.9,146.1 365.9,146.1 
		365.9,146.1 365.9,146.1 365.9,146.1 365.9,146.1 365.9,146.1 365.9,146.1 365.9,146.1 365.9,146.1 365.9,146.1 365.9,146.1 
		365.9,146.1 365.9,146.1 365.9,146.1 365.9,146.1 365.9,146.1 365.9,146.1 365.9,146.1 365.9,146.1 365.9,146.1 365.9,146.1 
		365.9,146.1 365.9,146.1 365.9,146.1 365.9,146.1 365.9,146.1 365.9,146.1 365.9,145.9 365.9,145.9 365.9,145.9 365.9,145.9 
		365.9,145.9 365.9,145.9 365.7,145.9 365.7,145.9 365.7,145.9 365.7,145.9 365.5,145.9 365.5,145.9 365.4,145.9 365.2,145.9 
		365,145.9 364.6,145.7 364.3,145.7 363.9,145.7 363,145.7 361.9,145.7 360.8,145.5 359.4,145.5 357.9,145.5 356.5,145.5 353,145.5 
		349.6,145.3 342,145.3 317.5,145.2 293.9,145.2 282.5,145.2 271.3,145 260.1,145 249,145 237.9,145 226.9,145 215.8,145 204.8,145 
		193.7,145 182.5,145 171.3,145 159.7,145.2 155.3,145.2 151,145.2 148.8,145.2 146.6,145.2 144.4,145.2 142.3,145.3 140.1,145.3 
		137.9,145.3 135.7,145.3 133.6,145.5 131.4,145.5 129.2,145.7 127.2,145.7 125,145.9 123.4,145.9 121.8,146.1 120.1,146.2 
		118.7,146.2 117.1,146.4 115.8,146.6 114.5,146.6 113.3,146.8 112.2,147 111.3,147 110.7,147.2 110.4,147.2 110,147.2 109.8,147.2 
		109.5,147.3 109.5,147.3 109.3,147.3 109.3,147.3 109.3,147.3 109.1,147.3 109.1,147.3 109.1,147.5 109.1,147.5 109.1,147.5 
		109.1,147.5 109.1,147.5 109.1,147.5 109.1,147.5 109.1,147.5 109.1,147.5 108.9,147.5 108.9,147.5 108.9,147.5 108.9,147.5 
		108.9,147.5 108.9,147.5 108.9,147.5 108.9,147.5 108.9,147.5 108.9,147.5 108.9,147.5 108.9,147.5 108.9,147.5 108.9,147.5 
		108.9,147.5 108.9,147.5 108.9,147.5 108.9,147.5 109.1,147.5 109.1,147.5 109.1,147.5 109.1,147.7 109.1,147.7 109.1,147.7 
		109.1,147.7 109.1,147.7 109.1,147.7 109.6,147.9 110,147.9 110.4,148.1 110.9,148.2 111.3,148.2 111.6,148.4 112.2,148.6 
		112.5,148.6 112.9,148.8 113.4,148.8 113.8,149 114.3,149 114.9,149 115.3,149.1 115.8,149.1 116.3,149.1 116.9,149.1 117.4,149.3 
		118.2,149.3 118.7,149.3 119.4,149.3 120.1,149.3 121.6,149.5 123.2,149.5 125,149.5 127,149.5 129.2,149.5 134.1,149.5 
		139.9,149.5 146.2,149.7 153.1,149.7 160.6,149.7 168.4,149.7 176.5,149.7 	"/>
</g>
<g id="SPLINE_89_">
	<path class="st1" d="M184.8,149.7c22.5,0,46.6,0,76.1,0c29.5,0,64.7-0.2,90.6-2c8.9-0.5,16.7-1.4,13.6-1.8
		c-2.7-0.4-13-0.4-23.2-0.5c-66.7-0.4-120.7-0.7-182.3-0.4c-11.6,0-23.4,0.2-34.6,0.7c-8.9,0.5-17.2,1.3-15.9,1.8
		c4.7,1.6,8,1.8,20.1,1.8C141.4,149.7,162.4,149.7,184.8,149.7z"/>
</g>
<g id="SPLINE_90_">
	<path class="st1" d="M177.4,104.4c25-0.2,51.5-1.1,84.3-1.3c32.8-0.4,71.9-0.2,97.3-1.4c5.8-0.4,10.9-0.7,9.1-1.1
		c-2.9-0.5-22.8-1.3-37.9-1.6c-10.9-0.2-19.2-0.4-27.9-0.4c-32.4-0.4-70.1-0.5-104.8,0.2c-15.9,0.4-31.4,0.7-47.5,1.1
		c-10,0.2-20.3,0.4-29.9,0.7c-6.5,0.2-12.7,0.5-13.2,0.7c-3.1,1.8-2.4,2.2,10,2.5C128.8,104.4,152.4,104.7,177.4,104.4z"/>
</g>
<g id="HATCH_374_">
	<polygon class="st0" points="177.4,104.4 182.1,104.4 186.8,104.4 191.7,104.2 196.6,104.2 201.5,104.2 206.4,104 227.3,103.7 
		232.7,103.5 238.1,103.5 243.9,103.3 249.7,103.3 255.5,103.1 261.7,103.1 313.2,102.7 319.5,102.6 322.6,102.6 325.7,102.6 
		328.7,102.6 331.8,102.4 334.7,102.4 337.6,102.4 340.5,102.2 343.4,102.2 346.1,102 348.9,102 351.6,101.8 354.1,101.8 
		356.7,101.7 359,101.5 361.2,101.5 362.1,101.3 363.2,101.3 364.1,101.3 365,101.1 365.7,101.1 366.4,101.1 367,100.9 367.5,100.9 
		367.7,100.9 367.9,100.9 368.1,100.8 368.1,100.8 368.2,100.8 368.2,100.8 368.2,100.8 368.2,100.8 368.2,100.8 368.4,100.8 
		368.4,100.8 368.4,100.8 368.4,100.8 368.4,100.8 368.4,100.8 368.4,100.8 368.4,100.8 368.4,100.8 368.4,100.8 368.4,100.8 
		368.4,100.8 368.4,100.8 368.4,100.8 368.4,100.8 368.4,100.8 368.4,100.8 368.4,100.8 368.4,100.8 368.4,100.8 368.4,100.6 
		368.4,100.6 368.4,100.6 368.4,100.6 368.4,100.6 368.4,100.6 368.4,100.6 368.4,100.6 368.4,100.6 368.4,100.6 368.4,100.6 
		368.4,100.6 368.4,100.6 368.4,100.6 368.4,100.6 368.4,100.6 368.4,100.6 368.4,100.6 368.4,100.6 368.2,100.6 368.2,100.6 
		368.2,100.6 368.2,100.6 368.2,100.6 368.2,100.6 368.1,100.6 368.1,100.6 367.9,100.4 367.7,100.4 367.3,100.4 366.8,100.4 
		366.3,100.2 365.5,100.2 364.8,100.2 363.9,100 363,100 361,100 358.8,99.8 356.3,99.7 353.8,99.7 350.9,99.5 348,99.5 345.1,99.3 
		342,99.3 339.1,99.1 336,99.1 333.1,98.9 330.2,98.9 326.2,98.9 322.4,98.8 318.8,98.8 315.3,98.8 312.1,98.6 308.8,98.6 
		302.3,98.6 296.1,98.6 289.8,98.4 283.4,98.4 277.1,98.4 270.6,98.4 263.9,98.2 257.3,98.2 250.6,98.2 243.9,98.2 237.2,98.2 
		230.5,98.2 223.8,98.4 220.5,98.4 217.1,98.4 213.8,98.4 210.6,98.4 207.3,98.6 203.9,98.6 200.6,98.6 197.4,98.8 194.5,98.8 
		191.6,98.8 185.6,98.9 179.6,99.1 173.8,99.3 161.8,99.5 155.8,99.7 149.9,99.8 134.8,100.2 131,100.2 127.2,100.4 123.6,100.4 
		120,100.6 117.4,100.8 115.3,100.8 113.1,100.9 112,100.9 111.1,100.9 110.2,100.9 109.5,101.1 108.7,101.1 108.2,101.1 
		107.6,101.3 107.5,101.3 107.3,101.3 107.1,101.3 106.9,101.3 106.9,101.3 106.9,101.3 106.9,101.3 106.9,101.3 106.7,101.3 
		106.7,101.3 106.7,101.3 106.7,101.3 106.7,101.3 106.7,101.3 106.7,101.3 106.7,101.3 106.6,101.5 106.2,101.7 106,101.8 
		105.8,101.8 105.8,102 105.6,102 105.6,102.2 105.6,102.2 105.6,102.2 105.5,102.2 105.5,102.2 105.5,102.2 105.5,102.4 
		105.5,102.4 105.5,102.4 105.3,102.4 105.3,102.4 105.3,102.4 105.3,102.4 105.3,102.4 105.3,102.4 105.3,102.4 105.3,102.4 
		105.3,102.6 105.3,102.6 105.3,102.6 105.3,102.6 105.3,102.6 105.3,102.6 105.3,102.6 105.3,102.6 105.3,102.6 105.3,102.6 
		105.3,102.6 105.3,102.6 105.3,102.6 105.3,102.6 105.3,102.7 105.3,102.7 105.3,102.7 105.3,102.7 105.3,102.7 105.3,102.7 
		105.3,102.7 105.3,102.7 105.3,102.7 105.3,102.7 105.3,102.7 105.3,102.7 105.3,102.7 105.3,102.7 105.3,102.7 105.3,102.9 
		105.3,102.9 105.3,102.9 105.3,102.9 105.3,102.9 105.3,102.9 105.5,102.9 105.5,102.9 105.5,102.9 105.5,102.9 105.5,102.9 
		105.5,102.9 105.5,102.9 105.5,102.9 105.5,102.9 105.5,102.9 105.5,102.9 105.6,103.1 105.6,103.1 105.6,103.1 105.6,103.1 
		105.8,103.1 105.8,103.1 105.8,103.1 106,103.1 106.2,103.3 106.2,103.3 106.4,103.3 106.6,103.3 106.9,103.3 107.3,103.5 
		107.8,103.5 108.4,103.5 108.9,103.7 109.5,103.7 110.2,103.7 110.9,103.7 111.8,103.7 112.5,103.8 114.5,103.8 116.7,103.8 
		119.1,104 121.8,104 124.7,104.2 127.8,104.2 131.2,104.2 134.6,104.4 138.5,104.4 142.3,104.4 146.2,104.4 150.4,104.6 
		154.8,104.6 159.1,104.6 163.6,104.6 168.2,104.6 172.9,104.6 	"/>
</g>
<g id="SPLINE_91_">
	<path class="st1" d="M313,95.7c0.2,11.6,1.1,23.9,1.4,39s0.2,33.3,1.6,45.1c0.4,2.7,0.7,5.1,1.1,4.2c0.5-1.3,1.3-10.5,1.6-17.6
		c0.2-5.1,0.4-8.9,0.4-12.9c0.4-15,0.5-32.6-0.2-48.6c-0.4-7.4-0.9-14.5-1.3-22.1c-0.2-4.7-0.4-9.4-0.7-14c-0.2-3.1-0.5-5.8-0.9-6.2
		c-1.8-1.4-2.2-1.1-2.7,4.5C313.2,73.2,312.8,84.1,313,95.7z"/>
</g>
<g id="HATCH_375_">
	<polygon class="st0" points="313,95.7 313.2,97.9 313.2,100.2 313.2,102.4 313.3,104.6 313.3,106.9 313.5,109.3 313.9,118.9 
		314.1,121.4 314.1,124 314.2,126.5 314.2,129.2 314.4,131.9 314.4,134.8 314.8,158.7 315,161.6 315,163.1 315,164.5 315.1,166 
		315.1,167.3 315.1,168.7 315.3,170.2 315.3,171.4 315.5,172.7 315.5,174 315.7,175.2 315.7,176.5 315.9,177.6 315.9,178.9 
		316.1,180 316.2,181 316.2,181.4 316.2,181.9 316.4,182.3 316.4,182.7 316.6,183 316.6,183.4 316.6,183.6 316.6,183.8 316.8,183.8 
		316.8,183.9 316.8,183.9 316.8,183.9 316.8,184.1 316.8,184.1 316.8,184.1 316.8,184.1 316.8,184.1 316.8,184.1 316.8,184.3 
		316.8,184.3 317,184.3 317,184.3 317,184.3 317,184.3 317,184.3 317,184.3 317,184.3 317,184.3 317,184.3 317,184.3 317,184.3 
		317,184.3 317,184.3 317,184.3 317,184.3 317,184.3 317,184.3 317,184.3 317,184.3 317,184.3 317,184.3 317,184.3 317,184.3 
		317,184.3 317,184.3 317,184.3 317,184.3 317,184.3 317,184.3 317,184.3 317,184.3 317,184.3 317,184.3 317,184.3 317,184.3 
		317,184.3 317,184.3 317.1,184.3 317.1,184.3 317.1,184.3 317.1,184.3 317.1,184.3 317.1,184.3 317.1,184.3 317.1,184.3 
		317.1,184.3 317.1,184.3 317.1,184.3 317.1,184.3 317.1,184.3 317.1,184.3 317.1,184.3 317.1,184.3 317.1,184.3 317.1,184.3 
		317.1,184.3 317.1,184.1 317.1,184.1 317.1,184.1 317.1,184.1 317.1,184.1 317.1,184.1 317.3,183.9 317.3,183.9 317.3,183.9 
		317.3,183.8 317.3,183.8 317.3,183.6 317.3,183.4 317.5,183 317.5,182.7 317.5,182.3 317.7,181.8 317.7,181.4 317.7,180.9 
		317.9,179.8 318,178.7 318,177.4 318.2,176.1 318.2,174.9 318.4,173.4 318.4,172.2 318.6,170.7 318.6,169.3 318.8,168 318.8,166.5 
		319,164.7 319,162.9 319,161.3 319.1,159.7 319.1,158.2 319.1,156.6 319.1,153.7 319.3,150.8 319.3,147.9 319.3,145 319.5,141.9 
		319.5,139 319.5,135.9 319.5,132.8 319.5,129.8 319.5,126.7 319.5,123.4 319.5,120.3 319.5,117.2 319.3,115.8 319.3,114.2 
		319.3,112.7 319.3,111.1 319.3,109.6 319.1,108 319.1,106.6 319.1,105.1 319,103.7 319,102.2 318.8,99.5 318.6,96.8 318.4,94 
		318.2,88.6 318,85.7 317.9,83 317.5,75.9 317.3,74.3 317.3,72.5 317.1,70.7 317.1,69 317,68 317,66.9 316.8,66 316.8,65.4 
		316.8,65.1 316.6,64.5 316.6,64.1 316.6,64 316.4,63.6 316.4,63.4 316.4,63.4 316.4,63.2 316.4,63.2 316.4,63.2 316.4,63.2 
		316.4,63.1 316.4,63.1 316.4,63.1 316.4,63.1 316.4,63.1 316.2,63.1 316.2,63.1 316.2,63.1 316.2,63.1 316.2,63.1 316.2,63.1 
		316.2,63.1 316.2,63.1 316.2,63.1 316.2,63.1 316.2,63.1 316.2,63.1 316.2,63.1 316.2,62.9 316.2,62.9 316.2,62.9 316.2,62.9 
		316.1,62.9 315.9,62.7 315.7,62.7 315.7,62.5 315.7,62.5 315.5,62.5 315.5,62.5 315.3,62.3 315.3,62.3 315.3,62.3 315.3,62.3 
		315.3,62.3 315.1,62.3 315.1,62.3 315.1,62.3 315.1,62.3 315.1,62.3 315.1,62.3 315,62.3 315,62.3 315,62.3 315,62.3 315,62.3 
		315,62.3 315,62.3 315,62.3 315,62.3 315,62.3 315,62.3 315,62.3 314.8,62.3 314.8,62.3 314.8,62.3 314.8,62.3 314.8,62.3 
		314.8,62.3 314.8,62.3 314.8,62.3 314.8,62.3 314.8,62.3 314.8,62.3 314.8,62.3 314.8,62.3 314.8,62.3 314.8,62.3 314.6,62.3 
		314.6,62.3 314.6,62.3 314.6,62.3 314.6,62.3 314.6,62.3 314.6,62.3 314.6,62.3 314.6,62.3 314.6,62.3 314.6,62.3 314.6,62.3 
		314.6,62.3 314.6,62.3 314.6,62.3 314.6,62.3 314.6,62.5 314.4,62.5 314.4,62.5 314.4,62.5 314.4,62.5 314.4,62.5 314.4,62.5 
		314.4,62.5 314.4,62.5 314.4,62.5 314.4,62.7 314.4,62.7 314.4,62.7 314.2,62.7 314.2,62.7 314.2,62.7 314.2,62.9 314.2,62.9 
		314.2,62.9 314.2,62.9 314.2,63.1 314.1,63.1 314.1,63.2 314.1,63.4 314.1,63.4 314.1,63.8 313.9,64 313.9,64.3 313.9,64.5 
		313.9,64.9 313.7,65.2 313.7,65.6 313.7,66.5 313.5,67.6 313.5,68.7 313.5,69.9 313.3,71.2 313.3,72.7 313.2,74.3 313.2,75.9 
		313.2,77.6 313.2,79.4 313,81.4 313,83.2 313,85.2 313,87.3 313,89.3 313,91.5 313,93.7 	"/>
</g>
<g id="POLYLINE_738_">
	<polyline class="st1" points="255.7,72.8 255.7,73.2 255.7,73.8 255.7,74.3 255.7,74.8 255.7,75.4 255.5,75.9 255.5,77.2 
		255.5,78.5 255.5,82.5 255.5,84.1 255.5,85.5 255.5,87 255.5,88.6 255.5,90.1 255.5,91.7 255.3,94.8 255.3,98 255.2,101.3 
		255.2,104.4 255,107.5 254.8,110.5 254.6,113.4 254.6,116.5 254.1,126.7 253.9,129 253.7,131.6 253.7,133.9 253.5,136.5 253.5,139 
		253.5,141.5 253.4,144.1 253.4,146.8 253.4,154.4 253.2,156.8 253.2,158.9 253,164.4 253,165.8 253,167.3 253,168.9 253,170.5 
		253,171.6 253,172.9 253,174 253,175.2 253.2,176.3 253.2,177.6 253.2,178.7 253.4,179.8 253.4,180.3 253.4,180.9 253.4,181.4 
		253.5,181.8 253.5,182.3 253.5,182.7 253.7,183.2 253.7,183.6 253.7,183.8 253.9,184.1 253.9,184.3 253.9,184.5 253.9,184.5 
		254.1,184.7 254.1,184.7 254.1,184.8 254.1,184.8 254.1,184.8 254.1,185 254.1,185 254.1,185 254.3,185 254.3,185 254.3,185.2 
		254.3,185.2 254.3,185.2 254.3,185.2 254.3,185.2 254.3,185.2 254.3,185.2 254.3,185.2 254.3,185.2 254.3,185.2 254.3,185.2 
		254.3,185.2 254.3,185.2 254.4,185.4 254.4,185.4 254.4,185.4 254.4,185.4 254.4,185.4 254.4,185.4 254.4,185.4 254.4,185.4 
		254.4,185.4 254.4,185.4 254.4,185.4 254.4,185.4 254.4,185.4 254.4,185.4 254.4,185.4 254.4,185.4 254.4,185.4 254.4,185.4 
		254.6,185.4 254.6,185.4 254.6,185.4 254.6,185.4 254.6,185.4 254.6,185.4 254.6,185.4 254.6,185.4 254.6,185.4 254.6,185.4 
		254.6,185.4 254.6,185.4 254.6,185.4 254.6,185.4 254.6,185.4 254.6,185.4 254.6,185.4 254.8,185.4 254.8,185.4 254.8,185.4 
		254.8,185.4 254.8,185.4 254.8,185.2 254.8,185.2 254.8,185.2 254.8,185.2 254.8,185.2 254.8,185.2 254.8,185.2 255,185.2 
		255,185.2 255,185.2 255,185.2 255,185 255,185 255,185 255,185 255.2,185 255.2,184.8 255.2,184.8 255.2,184.7 255.3,184.7 
		255.3,184.7 255.5,184.5 255.5,184.1 255.7,183.9 255.7,183.8 255.9,183.6 255.9,183.2 256.1,183 256.1,182.7 256.3,182.5 
		256.4,181.8 256.6,181.2 256.8,180.5 257,179.8 257,179 257.2,178.5 257.3,177.8 257.3,177.1 257.5,176.5 257.5,175.8 257.7,175.2 
		257.7,174.5 257.9,173.8 257.9,173.2 257.9,172.5 257.9,171.8 257.9,171.3 257.9,170.5 258.1,169.8 258.1,169.1 258.1,168.5 
		258.1,167.8 258.1,166.4 258.1,165.1 257.9,163.6 257.9,159.7 257.9,158.2 257.7,156.9 257.7,155.5 257.7,154.2 257.7,152.8 
		257.9,151.3 257.9,150 257.9,148.6 257.9,147.3 258.1,145.9 258.1,143.2 258.4,137.7 258.4,136.3 258.4,135 258.6,133 258.6,131 
		258.6,128.8 258.6,126.9 258.8,124.9 258.8,122.9 258.8,120.9 258.8,118.9 258.8,116.9 258.8,114.9 258.6,112.9 258.6,110.9 
		258.6,108.9 258.6,106.9 258.4,102.9 258.4,98.9 258.2,95 258.1,83.4 257.9,79.7 257.9,75.9 257.7,74.1 257.7,72.3 257.7,71.8 
		257.7,71.2 257.7,70.7 257.7,70.3 257.7,69.9 257.5,69.6 257.5,69.4 257.5,69.2 257.5,69.2 257.5,69 257.5,69 257.5,69 257.5,68.9 
		257.5,68.9 257.5,68.9 257.5,68.9 257.5,68.7 257.5,68.7 257.5,68.7 257.3,68.7 257.3,68.7 257.3,68.7 257.3,68.7 257.3,68.7 
		257.3,68.7 257.3,68.7 257.3,68.7 257.3,68.7 257.3,68.7 257.3,68.7 257.3,68.7 257.3,68.7 257.3,68.7 257.3,68.5 257.3,68.5 
		257.3,68.5 257.3,68.5 257.3,68.5 257.3,68.5 257.3,68.5 257.3,68.5 257.3,68.5 257.3,68.5 257.3,68.5 257.3,68.5 257.3,68.5 
		257.3,68.5 257.3,68.5 257.3,68.5 257.3,68.5 257.3,68.5 257.3,68.5 257.3,68.5 257.3,68.5 257.3,68.5 257.3,68.5 257.3,68.5 
		257.3,68.5 257.2,68.5 257.2,68.5 257.2,68.5 257.2,68.5 257.2,68.5 257.2,68.5 257.2,68.5 257.2,68.5 257.2,68.5 257.2,68.5 
		257.2,68.5 257.2,68.5 257.2,68.5 257.2,68.5 257.2,68.5 257.2,68.5 257.2,68.5 257.2,68.5 257.2,68.5 257.2,68.5 257.2,68.5 
		257.2,68.5 257.2,68.5 257.2,68.5 257.2,68.5 257.2,68.5 257.2,68.5 257.2,68.5 257.2,68.5 257.2,68.5 257.2,68.5 257.2,68.7 
		257.2,68.7 257,68.7 257,68.7 257,68.7 257,68.7 257,68.7 257,68.7 257,68.7 257,68.7 257,68.7 257,68.9 256.8,68.9 256.8,68.9 
		256.8,68.9 256.8,68.9 256.8,69 256.8,69 256.6,69.2 256.6,69.2 256.6,69.4 256.6,69.4 256.4,69.6 256.4,69.8 256.4,69.8 
		256.4,69.9 256.3,70.1 256.3,70.5 256.1,70.9 256.1,71.2 255.9,71.6 255.9,71.9 255.9,72.3 255.7,72.8 	"/>
</g>
<g id="HATCH_376_">
	<polygon class="st0" points="255.7,72.8 255.7,73.2 255.7,73.8 255.7,74.3 255.7,74.8 255.7,75.4 255.5,75.9 255.5,77.2 
		255.5,78.5 255.5,82.5 255.5,84.1 255.5,85.5 255.5,87 255.5,88.6 255.5,90.1 255.5,91.7 255.3,94.8 255.3,98 255.2,101.3 
		255.2,104.4 255,107.5 254.8,110.5 254.6,113.4 254.6,116.5 254.1,126.7 253.9,129 253.7,131.6 253.7,133.9 253.5,136.5 253.5,139 
		253.5,141.5 253.4,144.1 253.4,146.8 253.4,154.4 253.2,156.8 253.2,158.9 253,164.4 253,165.8 253,167.3 253,168.9 253,170.5 
		253,171.6 253,172.9 253,174 253,175.2 253.2,176.3 253.2,177.6 253.2,178.7 253.4,179.8 253.4,180.3 253.4,180.9 253.4,181.4 
		253.5,181.8 253.5,182.3 253.5,182.7 253.7,183.2 253.7,183.6 253.7,183.8 253.9,184.1 253.9,184.3 253.9,184.5 253.9,184.5 
		254.1,184.7 254.1,184.7 254.1,184.8 254.1,184.8 254.1,184.8 254.1,185 254.1,185 254.1,185 254.3,185 254.3,185 254.3,185.2 
		254.3,185.2 254.3,185.2 254.3,185.2 254.3,185.2 254.3,185.2 254.3,185.2 254.3,185.2 254.3,185.2 254.3,185.2 254.3,185.2 
		254.3,185.2 254.3,185.2 254.4,185.4 254.4,185.4 254.4,185.4 254.4,185.4 254.4,185.4 254.4,185.4 254.4,185.4 254.4,185.4 
		254.4,185.4 254.4,185.4 254.4,185.4 254.4,185.4 254.4,185.4 254.4,185.4 254.4,185.4 254.4,185.4 254.4,185.4 254.4,185.4 
		254.6,185.4 254.6,185.4 254.6,185.4 254.6,185.4 254.6,185.4 254.6,185.4 254.6,185.4 254.6,185.4 254.6,185.4 254.6,185.4 
		254.6,185.4 254.6,185.4 254.6,185.4 254.6,185.4 254.6,185.4 254.6,185.4 254.6,185.4 254.8,185.4 254.8,185.4 254.8,185.4 
		254.8,185.4 254.8,185.4 254.8,185.2 254.8,185.2 254.8,185.2 254.8,185.2 254.8,185.2 254.8,185.2 254.8,185.2 255,185.2 
		255,185.2 255,185.2 255,185.2 255,185 255,185 255,185 255,185 255.2,185 255.2,184.8 255.2,184.8 255.2,184.7 255.3,184.7 
		255.3,184.7 255.5,184.5 255.5,184.1 255.7,183.9 255.7,183.8 255.9,183.6 255.9,183.2 256.1,183 256.1,182.7 256.3,182.5 
		256.4,181.8 256.6,181.2 256.8,180.5 257,179.8 257,179 257.2,178.5 257.3,177.8 257.3,177.1 257.5,176.5 257.5,175.8 257.7,175.2 
		257.7,174.5 257.9,173.8 257.9,173.2 257.9,172.5 257.9,171.8 257.9,171.3 257.9,170.5 258.1,169.8 258.1,169.1 258.1,168.5 
		258.1,167.8 258.1,166.4 258.1,165.1 257.9,163.6 257.9,159.7 257.9,158.2 257.7,156.9 257.7,155.5 257.7,154.2 257.7,152.8 
		257.9,151.3 257.9,150 257.9,148.6 257.9,147.3 258.1,145.9 258.1,143.2 258.4,137.7 258.4,136.3 258.4,135 258.6,133 258.6,131 
		258.6,128.8 258.6,126.9 258.8,124.9 258.8,122.9 258.8,120.9 258.8,118.9 258.8,116.9 258.8,114.9 258.6,112.9 258.6,110.9 
		258.6,108.9 258.6,106.9 258.4,102.9 258.4,98.9 258.2,95 258.1,83.4 257.9,79.7 257.9,75.9 257.7,74.1 257.7,72.3 257.7,71.8 
		257.7,71.2 257.7,70.7 257.7,70.3 257.7,69.9 257.5,69.6 257.5,69.4 257.5,69.2 257.5,69.2 257.5,69 257.5,69 257.5,69 257.5,68.9 
		257.5,68.9 257.5,68.9 257.5,68.9 257.5,68.7 257.5,68.7 257.5,68.7 257.3,68.7 257.3,68.7 257.3,68.7 257.3,68.7 257.3,68.7 
		257.3,68.7 257.3,68.7 257.3,68.7 257.3,68.7 257.3,68.7 257.3,68.7 257.3,68.7 257.3,68.7 257.3,68.7 257.3,68.5 257.3,68.5 
		257.3,68.5 257.3,68.5 257.3,68.5 257.3,68.5 257.3,68.5 257.3,68.5 257.3,68.5 257.3,68.5 257.3,68.5 257.3,68.5 257.3,68.5 
		257.3,68.5 257.3,68.5 257.3,68.5 257.3,68.5 257.3,68.5 257.3,68.5 257.3,68.5 257.3,68.5 257.3,68.5 257.3,68.5 257.3,68.5 
		257.3,68.5 257.2,68.5 257.2,68.5 257.2,68.5 257.2,68.5 257.2,68.5 257.2,68.5 257.2,68.5 257.2,68.5 257.2,68.5 257.2,68.5 
		257.2,68.5 257.2,68.5 257.2,68.5 257.2,68.5 257.2,68.5 257.2,68.5 257.2,68.5 257.2,68.5 257.2,68.5 257.2,68.5 257.2,68.5 
		257.2,68.5 257.2,68.5 257.2,68.5 257.2,68.5 257.2,68.5 257.2,68.5 257.2,68.5 257.2,68.5 257.2,68.5 257.2,68.5 257.2,68.7 
		257.2,68.7 257,68.7 257,68.7 257,68.7 257,68.7 257,68.7 257,68.7 257,68.7 257,68.7 257,68.7 257,68.9 256.8,68.9 256.8,68.9 
		256.8,68.9 256.8,68.9 256.8,69 256.8,69 256.6,69.2 256.6,69.2 256.6,69.4 256.6,69.4 256.4,69.6 256.4,69.8 256.4,69.8 
		256.4,69.9 256.3,70.1 256.3,70.5 256.1,70.9 256.1,71.2 255.9,71.6 255.9,71.9 255.9,72.3 	"/>
</g>
<g id="SPLINE_92_">
	<path class="st1" d="M189,95.7c0.2,11.6,1.1,23.9,1.3,39s0.2,33.3,1.4,45.1c0.4,2.7,0.7,5.1,1.1,4.2c0.5-1.3,1.3-10.5,1.4-17.6
		c0.2-5.1,0.4-8.9,0.4-12.9c0.4-15,0.5-32.6-0.2-48.6c-0.4-7.4-0.7-14.5-1.1-22.1c-0.2-4.7-0.4-9.4-0.7-14c-0.2-3.1-0.5-5.8-0.7-6.2
		c-1.8-1.4-2.2-1.1-2.5,4.5C189.2,73.2,188.8,84.1,189,95.7z"/>
</g>
<g id="HATCH_377_">
	<polygon class="st0" points="189,95.7 189,97.9 189.2,100.2 189.2,102.4 189.2,104.6 189.4,106.9 189.4,109.3 189.9,118.9 
		189.9,121.4 190.1,124 190.1,126.5 190.3,129.2 190.3,131.9 190.3,134.8 190.8,158.7 190.8,161.6 190.8,163.1 191,164.5 191,166 
		191,167.3 191,168.7 191.2,170.2 191.2,171.4 191.4,172.7 191.4,174 191.6,175.2 191.6,176.5 191.7,177.6 191.7,178.9 191.9,180 
		192.1,181 192.1,181.4 192.1,181.9 192.3,182.3 192.3,182.7 192.3,183 192.5,183.4 192.5,183.6 192.5,183.8 192.5,183.8 
		192.5,183.9 192.6,183.9 192.6,183.9 192.6,184.1 192.6,184.1 192.6,184.1 192.6,184.1 192.6,184.1 192.6,184.1 192.6,184.3 
		192.6,184.3 192.6,184.3 192.6,184.3 192.6,184.3 192.6,184.3 192.6,184.3 192.6,184.3 192.6,184.3 192.6,184.3 192.6,184.3 
		192.6,184.3 192.6,184.3 192.6,184.3 192.6,184.3 192.8,184.3 192.8,184.3 192.8,184.3 192.8,184.3 192.8,184.3 192.8,184.3 
		192.8,184.3 192.8,184.3 192.8,184.3 192.8,184.3 192.8,184.3 192.8,184.3 192.8,184.3 192.8,184.3 192.8,184.3 192.8,184.3 
		192.8,184.3 192.8,184.3 192.8,184.3 192.8,184.3 192.8,184.3 192.8,184.3 192.8,184.3 192.8,184.3 192.8,184.3 192.8,184.3 
		192.8,184.3 192.8,184.3 192.8,184.3 192.8,184.3 192.8,184.3 192.8,184.3 192.8,184.3 192.8,184.3 192.8,184.3 192.8,184.3 
		192.8,184.3 192.8,184.3 192.8,184.3 192.8,184.3 192.8,184.3 193,184.3 193,184.3 193,184.1 193,184.1 193,184.1 193,184.1 
		193,184.1 193,184.1 193,183.9 193,183.9 193,183.8 193.2,183.8 193.2,183.6 193.2,183.4 193.2,183 193.4,182.7 193.4,182.3 
		193.4,181.8 193.5,180.9 193.5,179.8 193.7,178.7 193.9,177.4 193.9,176.1 194.1,174.9 194.1,173.4 194.3,172.2 194.3,170.7 
		194.3,169.3 194.5,168 194.5,166.5 194.6,164.7 194.6,162.9 194.6,161.3 194.8,159.7 194.8,158.2 194.8,156.6 194.8,153.7 
		195,150.8 195,147.9 195,145 195.2,141.9 195.2,139 195.2,135.9 195.2,132.8 195.2,129.8 195.2,126.7 195.2,123.4 195.2,120.3 
		195.2,117.2 195,115.8 195,114.2 195,112.7 195,111.1 195,109.6 194.8,108 194.8,106.6 194.8,105.1 194.6,103.7 194.6,102.2 
		194.5,99.5 194.3,96.8 194.3,94 193.9,88.6 193.7,85.7 193.5,83 193.2,75.9 193.2,74.3 193,72.5 193,70.7 192.8,69 192.8,68 
		192.6,66.9 192.6,66 192.6,65.4 192.5,65.1 192.5,64.5 192.5,64.1 192.3,64 192.3,63.6 192.3,63.4 192.3,63.4 192.3,63.2 
		192.3,63.2 192.3,63.2 192.3,63.2 192.1,63.1 192.1,63.1 192.1,63.1 192.1,63.1 192.1,63.1 192.1,63.1 192.1,63.1 192.1,63.1 
		192.1,63.1 192.1,63.1 192.1,63.1 192.1,63.1 192.1,63.1 192.1,63.1 192.1,63.1 192.1,63.1 192.1,63.1 192.1,63.1 192.1,62.9 
		192.1,62.9 192.1,62.9 192.1,62.9 191.9,62.9 191.7,62.7 191.6,62.7 191.6,62.5 191.6,62.5 191.4,62.5 191.4,62.5 191.4,62.3 
		191.2,62.3 191.2,62.3 191.2,62.3 191.2,62.3 191.2,62.3 191,62.3 191,62.3 191,62.3 191,62.3 191,62.3 191,62.3 190.8,62.3 
		190.8,62.3 190.8,62.3 190.8,62.3 190.8,62.3 190.8,62.3 190.8,62.3 190.8,62.3 190.8,62.3 190.8,62.3 190.8,62.3 190.8,62.3 
		190.8,62.3 190.8,62.3 190.8,62.3 190.6,62.3 190.6,62.3 190.6,62.3 190.6,62.3 190.6,62.3 190.6,62.3 190.6,62.3 190.6,62.3 
		190.6,62.3 190.6,62.3 190.6,62.3 190.6,62.3 190.6,62.3 190.6,62.3 190.6,62.3 190.6,62.3 190.5,62.3 190.5,62.3 190.5,62.3 
		190.5,62.3 190.5,62.3 190.5,62.3 190.5,62.3 190.5,62.3 190.5,62.3 190.5,62.3 190.5,62.3 190.5,62.3 190.5,62.5 190.5,62.5 
		190.5,62.5 190.5,62.5 190.5,62.5 190.5,62.5 190.3,62.5 190.3,62.5 190.3,62.5 190.3,62.5 190.3,62.7 190.3,62.7 190.3,62.7 
		190.3,62.7 190.3,62.7 190.3,62.7 190.3,62.9 190.1,62.9 190.1,62.9 190.1,63.1 190.1,63.1 190.1,63.2 190.1,63.4 189.9,63.4 
		189.9,63.8 189.9,64 189.9,64.3 189.7,64.5 189.7,64.9 189.7,65.2 189.7,65.6 189.6,66.5 189.6,67.6 189.6,68.7 189.4,69.9 
		189.4,71.2 189.2,72.7 189.2,74.3 189.2,75.9 189.2,77.6 189,79.4 189,81.4 189,83.2 189,85.2 189,87.3 189,89.3 189,91.5 
		189,93.7 	"/>
</g>
<g id="SPLINE_93_">
	<path class="st1" d="M131.6,103.1c0,9.1,0,18.8,0,30.6c0,12,0.2,26.1,2.2,36.6c0.7,3.6,1.4,6.7,2,5.4c0.4-1.1,0.4-5.3,0.5-9.4
		c0.4-26.8,0.7-48.8,0.4-73.6c0-4.7-0.2-9.4-0.9-14c-0.5-3.6-1.4-6.9-1.8-6.3c-1.8,2-1.8,3.3-2,8.2S131.7,94,131.6,103.1z"/>
</g>
<g id="HATCH_378_">
	<polygon class="st0" points="131.6,103.1 131.6,106.6 131.6,110.2 131.6,113.8 131.6,117.4 131.6,121.2 131.6,125.4 131.6,129.6 
		131.7,133.9 131.7,138.5 131.7,140.8 131.7,143.2 131.9,145.5 131.9,147.9 131.9,149.1 131.9,150.4 132.1,151.5 132.1,152.8 
		132.1,153.9 132.1,155.1 132.3,156.2 132.3,157.5 132.5,158.6 132.5,159.7 132.7,160.9 132.7,162 132.8,163.1 133,164.2 133,165.3 
		133.2,166.4 133.4,167.4 133.6,168.5 133.7,169.4 133.7,170.5 133.9,171.1 134.1,171.8 134.3,172.3 134.3,173.1 134.5,173.6 
		134.6,174.2 134.6,174.5 134.8,175.1 135,175.2 135,175.4 135,175.6 135.2,175.6 135.2,175.8 135.2,175.8 135.2,176 135.2,176 
		135.2,176 135.2,176 135.4,176 135.4,176 135.4,176 135.4,176.1 135.4,176.1 135.4,176.1 135.4,176.1 135.4,176.1 135.4,176.1 
		135.4,176.1 135.4,176.1 135.4,176.1 135.4,176.1 135.4,176.1 135.4,176.1 135.4,176.1 135.4,176.1 135.4,176.1 135.4,176.1 
		135.4,176.1 135.4,176.1 135.6,176.1 135.6,176.1 135.6,176.1 135.6,176.1 135.6,176.1 135.6,176.1 135.6,176.1 135.6,176.1 
		135.6,176.1 135.6,176.1 135.6,176.1 135.6,176.1 135.6,176.1 135.6,176.1 135.6,176.1 135.6,176.1 135.6,176.1 135.6,176.1 
		135.6,176.1 135.6,176.1 135.6,176.1 135.6,176.1 135.6,176.1 135.6,176.1 135.6,176.1 135.6,176.1 135.6,176.1 135.6,176.1 
		135.6,176.1 135.7,176.1 135.7,176.1 135.7,176.1 135.7,176.1 135.7,176.1 135.7,176.1 135.7,176.1 135.7,176.1 135.7,176.1 
		135.7,176 135.7,176 135.7,176 135.7,176 135.7,176 135.7,176 135.7,175.8 135.7,175.8 135.7,175.8 135.7,175.6 135.9,175.6 
		135.9,175.4 135.9,175.2 135.9,175.1 135.9,174.5 136.1,174.2 136.1,173.6 136.1,173.1 136.1,172.3 136.1,171.8 136.1,171.1 
		136.1,169.6 136.3,168 136.3,156.8 136.5,147.2 136.5,142.6 136.6,137.9 136.6,133.6 136.6,129 136.6,124.5 136.6,120.1 
		136.6,115.6 136.6,111.3 136.6,106.7 136.6,102.2 136.6,97.7 136.5,93 136.5,91.3 136.5,89.5 136.5,88.6 136.5,87.7 136.5,86.8 
		136.3,85.9 136.3,85.2 136.3,84.3 136.1,83.4 136.1,82.5 136.1,81.5 135.9,80.6 135.9,79.9 135.7,79 135.6,78.3 135.6,77.7 
		135.4,77 135.2,76.5 135.2,75.9 135,75.2 134.8,74.8 134.8,74.3 134.6,73.8 134.6,73.6 134.5,73.4 134.5,73.2 134.5,73.2 134.3,73 
		134.3,73 134.3,72.8 134.3,72.8 134.3,72.8 134.3,72.8 134.3,72.8 134.3,72.7 134.1,72.7 134.1,72.7 134.1,72.7 134.1,72.7 
		134.1,72.7 134.1,72.7 134.1,72.7 134.1,72.7 134.1,72.7 134.1,72.7 134.1,72.7 134.1,72.7 134.1,72.7 134.1,72.7 134.1,72.7 
		134.1,72.7 134.1,72.5 134.1,72.5 134.1,72.5 134.1,72.5 133.9,72.5 133.9,72.5 133.9,72.5 133.9,72.5 133.9,72.5 133.9,72.5 
		133.9,72.5 133.9,72.5 133.9,72.5 133.9,72.5 133.9,72.5 133.9,72.5 133.9,72.5 133.9,72.5 133.9,72.5 133.9,72.5 133.9,72.5 
		133.9,72.5 133.9,72.5 133.9,72.5 133.9,72.5 133.9,72.5 133.9,72.5 133.9,72.7 133.9,72.7 133.9,72.7 133.9,72.7 133.9,72.7 
		133.7,72.8 133.6,73 133.4,73.2 133.2,73.2 133.2,73.4 133,73.6 133,73.8 132.8,73.8 132.8,73.9 132.8,73.9 132.8,74.1 132.7,74.1 
		132.7,74.3 132.7,74.3 132.7,74.5 132.5,74.5 132.5,74.7 132.5,74.7 132.5,74.8 132.5,74.8 132.3,75 132.3,75 132.3,75.4 
		132.3,75.6 132.1,75.7 132.1,75.9 132.1,76.3 132.1,76.5 132.1,76.8 131.9,77 131.9,77.6 131.9,78.3 131.9,79 131.9,79.7 
		131.9,80.6 131.7,82.6 131.7,85 131.7,87.5 131.7,90.4 131.7,93.3 131.7,96.6 131.6,99.8 	"/>
</g>
<g id="HATCH_423_">
	<path class="st2" d="M293.6,232.1l-0.5,0.2l-0.5,0.2l-0.5,0.2l-0.5,0.4l-0.5,0.4l-0.2,0.2l-0.2,0.2l-0.2,0.2l-0.2,0.2l-0.2,0.2
		l-0.2,0.2l-0.2,0.2l-0.2,0.2l-0.2,0.2l-0.2,0.2l-0.2,0.2l-0.2,0.2l-0.2,0.2l-0.2,0.2l-0.2,0.2l-0.2,0.2l-0.2,0.2l-0.2,0.2l-0.2,0.2
		l-0.2,0.2l-0.2,0.2l-0.2,0.2l-0.2,0.4l-0.2,0.4l-0.2,0.4l-0.2,0.4l-0.2,0.4l-0.2,0.4l-0.2,0.4l-0.2,0.4l-0.2,0.4l-0.2,0.4l-0.2,0.4
		l-0.2,0.4l-0.2,0.4l-0.2,0.4l-0.2,0.4l-0.2,0.4l-0.2,0.4l-0.2,0.4l-0.2,0.4l-0.2,0.4l-0.2,0.4l-0.2,0.4l-0.2,0.4l-0.2,0.4v0.4v0.4
		v0.4v0.4v0.4v0.4v0.4v0.4v0.4v0.4v0.4v0.4v0.4v0.4v0.4v0.4v0.4v0.4v0.4v0.4v0.4v0.4v0.4v0.4v0.4v0.4v0.4v0.4v0.4v0.4v0.4v0.4v0.4
		v0.4v0.4v0.4v0.4l0.2,0.4l0.2,0.4l0.2,0.4l0.2,0.5l0.2,0.5l0.2,0.5l0.2,0.5l0.2,0.5l0.2,0.5l0.2,0.5l0.2,0.5l0.2,0.5l0.2,0.5
		l0.4,0.5l0.4,0.5l0.4,0.5l0.4,0.5l0.4,0.4l0.4,0.4l0.2,0.2l0.2,0.2l0.2,0.2l0.2,0.2l0.2,0.2l0.2,0.2l0.2,0.2l0.2,0.2l0.2,0.2
		l0.2,0.2l0.2,0.2l0.2,0.2l0.2,0.2l0.2,0.2l0.2,0.2l0.2,0.2l0.2,0.2l0.2,0.2l0.2,0.2l0.2,0.2l0.2,0.2l0.2,0.2l0.2,0.2l0.2,0.2
		l0.2,0.2l0.2,0.2l0.4,0.2l0.4,0.2l0.4,0.2l0.4,0.2l0.4,0.2l0.4,0.2l0.4,0.2l0.4,0.2l0.5,0.2l0.5,0.2l0.5,0.2l0.5,0.2l0.5,0.2
		l0.5,0.2l0.5,0.2l0.5,0.2l0.5,0.2l0.5,0.2l0.5,0.2h0.5h0.5h0.5h0.5h0.5h0.5h0.5h0.5h0.5h0.5h0.5h0.5h0.5h0.5h0.5h0.5h0.5h0.5
		l0.5-0.2l0.5-0.2l0.5-0.2l0.5-0.2l0.5-0.2l0.5-0.2l0.5-0.2l0.5-0.2l0.5-0.2l0.5-0.2l0.5-0.2l0.5-0.2l0.5-0.2l0.4-0.2l0.4-0.2
		l0.4-0.2l0.4-0.2l0.4-0.2l0.4-0.2l0.4-0.2l0.4-0.2l0.2-0.2l0.2-0.2l0.4-0.4l0.4-0.4l0.4-0.4l0.4-0.4l0.4-0.4l0.4-0.4l0.4-0.4
		l0.4-0.4l0.2-0.4l0.2-0.4l0.2-0.4l0.2-0.4l0.2-0.4l0.2-0.4l0.2-0.4l0.2-0.4l0.2-0.4l0.2-0.4l0.2-0.4l0.2-0.4l0.2-0.4l0.2-0.4
		l0.2-0.4l0.2-0.4l0.2-0.4l0.2-0.4l0.2-0.4l0.2-0.4v-0.4V262v-0.4v-0.4V261v-0.4v-0.4v-0.4v-0.4v-0.4v-0.4v-0.4v-0.4v-0.4v-0.4V257
		v-0.4v-0.4v-0.4v-0.4v-0.4v-0.4v-0.4v-0.4l-0.2-0.5l-0.2-0.5l-0.2-0.5l-0.2-0.5l-0.2-0.5l-0.2-0.5l-0.2-0.5l-0.2-0.5l-0.2-0.5
		l-0.2-0.5l-0.2-0.5l-0.2-0.5l-0.2-0.4l-0.2-0.4l-0.2-0.4l-0.2-0.4l-0.4-0.7l-0.4-0.7l-0.2-0.4l-0.2-0.4l-0.4-0.4l-0.4-0.4l-0.4-0.4
		l-0.4-0.4l-0.4-0.4l-0.4-0.4l-0.4-0.5l-0.5-0.5l-0.5-0.5l0.7,0.4l-0.4-0.4l-0.4-0.4l-0.4-0.4L319,239l-0.4-0.4l-0.4-0.4l-0.4-0.4
		l-0.4-0.4l-0.4-0.4l-0.4-0.4l-0.4-0.4l-0.4-0.4l-0.4-0.2l-0.4-0.2l-0.4-0.2l-0.4-0.2l0.4-0.4l-0.4-0.2l-0.4-0.2l-0.4-0.2l-0.4-0.2
		l-0.4-0.2l-0.4-0.2l-0.4-0.2l-0.4-0.2l-0.4-0.2l-0.4-0.2l-0.4-0.2l-0.4-0.2l-0.4-0.2l-0.5-0.2l-0.5-0.2l-0.5-0.2l-0.5-0.2l-0.5-0.2
		l-0.5-0.2l-0.4-0.2l-0.4-0.2l-0.4-0.2h-0.4h-0.4h-0.4h-0.4h-0.4h-0.4h-0.4H303h-0.4h-0.4h-0.4h-0.4h-0.4h-0.4h-0.4h-0.4h-0.4h-0.4
		H299h-0.4h-0.4h-0.4h-0.4h-0.4h-0.4l-0.4,0.2l-0.4,0.2l-0.4,0.2l-0.4,0.2l-0.5,0.2l-0.5,0.2l-0.5,0.2L293.6,232.1z M297.6,240.5
		l0.4-0.2l0.4-0.2l0.4-0.2l0.4-0.2l0.4-0.2l0.4-0.2l0.4-0.2h0.4h0.2h0.2h0.2h0.2h0.2h0.2h0.2h0.2h0.2h0.2h0.2h0.2h0.2h0.2h0.2h0.2
		h0.2h0.2h0.2h0.2h0.2h0.2h0.2h0.2h0.2h0.2h0.2h0.2h0.2h0.2l0.2,0.2l0.2,0.2l0.2,0.2l0.2,0.2l0.2,0.2l0.2,0.2l0.2,0.2l0.2,0.2
		l0.2,0.2l0.2,0.2l0.2,0.2l0.2,0.2l0.2,0.2l0.2,0.2l0.2,0.2l0.2,0.2l0.2,0.2l0.2,0.2l0.2,0.2l0.2,0.2l0.2,0.2l0.2,0.2l0.2,0.2
		l0.2,0.2l0.2,0.2l0.2,0.2l0.5,0.5l0.5,0.5l0.5,0.5l0.5,0.5l0.5,0.5l0.5,0.7l0.5,0.7l0.2,0.4l0.2,0.4l0.2,0.4l0.2,0.4l0.2,0.4
		l0.2,0.4l0.2,0.4l0.2,0.4l0.2,0.4l0.2,0.4l0.2,0.4l0.2,0.4l0.2,0.4l0.2,0.4l0.2,0.4l0.2,0.4l0.2,0.4l0.2,0.4l0.2,0.4l0.2,0.4
		l0.2,0.4l0.2,0.4l0.2,0.4l0.2,0.4l0.2,0.4v0.4v0.4v0.4v0.4v0.4v0.4v0.4v0.4v0.4v0.4v0.2v0.2v0.2v0.2v0.2v0.2v0.2v0.2v0.2v0.2v0.2
		v0.2v0.2v0.2v0.2v0.2v0.2v0.2v0.2v0.2v0.2v0.2v0.2v0.2v0.2v0.2v0.2v0.2v0.2v0.2v0.2v0.2v0.2l-0.2,0.2l-0.2,0.2l-0.2,0.2l-0.2,0.2
		l-0.2,0.2l-0.2,0.2h-0.2h-0.2h-0.2h-0.2H317h-0.2h-0.2l-0.2,0.2l-0.2,0.2l-0.2,0.2l-0.2,0.2l-0.4,0.2l-0.4,0.2l-0.4,0.2l-0.4,0.2
		l-0.4,0.2l-0.4,0.2h-0.4H313h-0.4h-0.4h-0.4h-0.4h-0.4h-0.4h-0.4h-0.4h-0.4h-0.4H309h-0.4h-0.4h-0.4h-0.4h-0.4h-0.4h-0.4h-0.4h-0.4
		h-0.4H305h-0.4h-0.4h-0.4l-0.4-0.2l-0.4-0.2l-0.4-0.2l-0.4-0.2l-0.4-0.2l-0.4-0.2l-0.4-0.2l-0.4-0.2l-0.4-0.2l-0.4-0.2l-0.4-0.2
		l-0.4-0.2l-0.4-0.2l-0.4-0.2l-0.4-0.2l-0.4-0.2l-0.2-0.2l-0.2-0.2l-0.2-0.2l-0.2-0.2l-0.2-0.2l-0.2-0.2l-0.2-0.2l-0.2-0.2l-0.2-0.2
		l-0.2-0.2l-0.2-0.2l-0.2-0.2l-0.2-0.2l-0.2-0.2l-0.2-0.2l-0.2-0.2l-0.2-0.2l-0.2-0.2l-0.2-0.2l-0.2-0.2l-0.2-0.4l-0.2-0.4l-0.2-0.4
		l-0.2-0.4l-0.2-0.4l-0.2-0.4l-0.2-0.4l-0.2-0.4l-0.2-0.4l-0.2-0.4l-0.2-0.4l-0.2-0.4l-0.2-0.4l-0.2-0.4l-0.2-0.4l-0.2-0.5l-0.2-0.5
		l-0.2-0.5l-0.2-0.5l-0.2-0.5l-0.2-0.5l-0.2-0.5l-0.2-0.5v-0.5v-0.5v-0.5v-0.5v-0.5v-0.5v-0.4v-0.2v-0.2v-0.2V249v-0.2v-0.2v-0.2
		v-0.2v-0.2v-0.2v-0.2v-0.2v-0.2v-0.2V247v-0.2v-0.2v-0.2v-0.2v-0.2v-0.2v-0.2v-0.2v-0.2v-0.2V245v-0.2l0.2-0.2l0.2-0.2l0.2-0.2
		l0.2-0.2l0.2-0.2l0.2-0.2l0.2-0.2l0.2-0.2l0.2-0.2l0.2-0.2l0.2-0.2l0.2-0.2l0.2-0.2l0.2-0.2l0.2-0.2l0.2-0.2l0.2-0.2l0.2-0.2
		l0.4-0.2l0.4-0.2l0.4-0.2L297.6,240.5z"/>
</g>
<g id="SPLINE_97_">
	<path class="st3" d="M297.6,240.5c-3.1,1.4-5.4,3.8-5.3,8.9c0.2,5.1,3.1,12.9,9.4,16.3c6.5,3.4,16.5,2.4,18.3-3.3
		c1.6-5.4-4.9-15.2-10-19.8C304.6,238.3,300.7,239,297.6,240.5z"/>
</g>
<g id="SPLINE_98_">
	<path class="st3" d="M293.6,232.1c-0.7,0.4-1.3,0.7-2,1.1c-0.7,0.4-1.3,0.9-2,1.3c-0.7,0.5-1.3,1.1-1.8,1.6c-0.5,0.5-1.3,1.3-1.8,2
		c-0.5,0.7-1.1,1.4-1.4,2.4c-0.4,0.7-0.9,1.6-1.1,2.5c-0.4,0.9-0.5,1.8-0.9,2.7c-0.2,0.9-0.4,1.8-0.5,2.7c-0.4,2-0.5,4.2-0.4,6.3
		c0,1.1,0.2,2.4,0.4,3.4c0.2,1.1,0.4,2,0.7,3.1c0.4,1.3,0.9,2.5,1.4,3.8c0.7,1.3,1.4,2.5,2.4,3.6c0.9,1.3,2,2.4,3.3,3.3
		c0.7,0.5,1.3,0.9,2,1.4c0.7,0.4,1.4,0.9,2.2,1.1c0.7,0.4,1.4,0.7,2.4,0.9c0.7,0.2,1.4,0.5,2.4,0.7c0.7,0.2,1.4,0.4,2.4,0.5
		c0.7,0.2,1.4,0.2,2.4,0.4c1.6,0.2,3.1,0.2,4.7,0.2c1.6,0,3.1-0.2,4.7-0.5c0.7-0.2,1.4-0.4,2.4-0.5c0.7-0.2,1.4-0.4,2.4-0.7
		c0.7-0.4,1.4-0.5,2.2-0.9c0.7-0.4,1.4-0.7,2.2-1.3c1.1-0.7,2.2-1.6,3.1-2.5c0.7-0.7,1.3-1.4,1.8-2.4c0.5-0.9,1.1-1.8,1.4-2.9
		c0.4-0.9,0.5-1.8,0.7-2.9c0.2-0.5,0.2-1.1,0.2-1.8c0-0.9,0-1.8,0-2.5s-0.2-1.6-0.4-2.4c-0.2-0.7-0.4-1.4-0.5-2.2
		c-0.2-0.7-0.5-1.4-0.7-2.2c-0.2-0.7-0.5-1.3-0.9-2c-0.4-0.9-0.9-1.8-1.4-2.7c-0.7-1.3-1.4-2.4-2.4-3.4c-0.5-0.9-1.3-1.6-1.8-2.4
		c-0.4-0.5-0.9-1.1-1.3-1.4c-0.9-0.9-1.8-1.8-2.7-2.7c-0.7-0.7-1.4-1.3-2.4-2c-0.9-0.7-2-1.3-3.1-2c-1.3-0.5-2.4-1.1-3.6-1.4
		c-1.1-0.4-2.2-0.5-3.3-0.7c-1.1-0.2-2.2-0.2-3.3,0c-0.9,0-2,0.2-2.9,0.4c-0.9,0.2-1.6,0.4-2.4,0.7
		C294.9,231.6,294.1,232,293.6,232.1z"/>
</g>
<g id="SPLINE_99_">
	<path class="st3" d="M150.2,235.6c-1.1-0.2-2.2-0.4-3.1-0.4c-0.9-0.2-1.8-0.2-2.7-0.2c-0.9,0-2,0-2.9,0c-0.7,0-1.6,0-2.4,0.2
		c-1.1,0.2-2.2,0.4-3.3,0.5c-1.3,0.4-2.4,0.7-3.4,1.3c-1.3,0.5-2.4,1.3-3.4,2c-1.1,0.9-2.2,1.8-3.1,2.7c-0.9,1.1-1.6,2.2-2.4,3.3
		c-0.4,0.5-0.7,1.3-0.9,2c-0.5,1.3-1.1,2.5-1.3,3.8c-0.2,0.7-0.4,1.3-0.4,2c-0.2,0.7-0.2,1.4-0.2,2c-0.2,1.4-0.2,2.9,0,4.2
		c0.2,2,0.7,4,1.3,5.8c0.5,1.4,1.3,2.9,2.2,4.2c0.5,0.7,1.1,1.4,1.6,2.2c0.5,0.7,1.3,1.4,2,2.2c0.7,0.7,1.4,1.3,2.2,2
		c0.7,0.5,1.4,1.1,2.4,1.6c1.6,1.1,3.3,2,4.9,2.7c1.6,0.7,3.4,1.4,5.3,2c1.8,0.5,3.6,0.9,5.4,1.1c1.8,0.2,3.8,0.4,5.6,0.4
		c0.9,0,2-0.2,2.9-0.4c0.9-0.2,1.8-0.4,2.5-0.5c1.1-0.4,2-0.7,2.9-1.1c1.1-0.5,2.4-1.3,3.3-2c0.7-0.5,1.4-1.3,2-1.8
		c0.5-0.7,1.3-1.3,1.6-2c0.9-1.3,1.8-2.9,2.4-4.3c0.5-1.4,1.1-2.9,1.3-4.3c0.2-0.7,0.2-1.4,0.4-2.2c0.2-1.3,0.2-2.7,0.2-4
		c0-1.4-0.2-2.7-0.4-4.2c-0.2-0.7-0.2-1.4-0.4-2.2c-0.2-1.3-0.5-2.7-1.1-4c-0.5-1.3-1.1-2.5-1.8-3.8c-0.7-1.1-1.4-2.4-2.4-3.3
		c-0.9-0.9-1.8-1.8-2.9-2.5c-0.9-0.7-2-1.4-3.1-2c-0.7-0.4-1.6-0.7-2.4-1.1c-0.9-0.4-2-0.7-2.9-0.9s-1.8-0.4-2.7-0.5
		C152.2,235.8,151.3,235.8,150.2,235.6z"/>
</g>
<g id="POLYLINE_785_">
	<polyline class="st1" points="3.4,1.4 3.3,1.6 3.1,1.8 2.9,2 2.7,2 2.7,2.2 2.5,2.2 2.3,2.3 2.3,2.3 2.2,2.5 2.2,2.5 2,2.7 2,2.7 
		1.8,2.7 1.8,2.9 1.6,3.1 1.6,3.1 1.4,3.3 1.4,3.3 1.4,3.4 1.3,3.4 1.3,3.6 1.1,3.6 1.1,3.8 1.1,3.8 0.9,4 0.9,4 0.9,4.2 0.9,4.2 
		0.7,4.3 0.7,4.3 0.7,4.5 0.7,4.5 0.5,4.7 0.5,4.9 0.5,4.9 0.5,5.1 0.5,5.1 0.5,5.2 0.5,5.2 0.4,5.4 0.4,5.4 0.4,5.6 0.4,5.6 
		0.4,5.8 0.4,6 0.4,6 0.4,6.2 0.4,6.2 0.4,6.3 0.4,6.3 0.4,6.5 0.4,6.5 0.4,6.7 0.4,6.7 0.4,6.9 0.4,6.9 0.5,7.1 0.5,7.1 0.5,7.2 
		0.5,7.2 0.5,7.4 0.5,7.4 0.5,7.6 0.5,7.6 0.7,7.8 0.7,7.8 0.7,8 0.7,8 0.7,8.1 0.7,8.1 0.9,8.3 0.9,8.3 0.9,8.5 0.9,8.5 1.1,8.5 
		1.1,8.7 1.1,8.7 1.1,8.9 1.3,8.9 1.3,9.1 1.3,9.1 1.3,9.1 1.4,9.2 1.4,9.2 1.4,9.2 1.6,9.4 1.6,9.4 1.6,9.6 1.8,9.6 1.8,9.6 
		1.8,9.8 2,9.8 2,9.8 2,10 2.2,10 2.2,10 2.2,10 2.3,10.1 2.3,10.1 2.3,10.1 2.5,10.1 2.5,10.3 2.7,10.3 2.7,10.3 2.7,10.3 
		2.9,10.5 2.9,10.5 3.1,10.5 3.1,10.5 3.1,10.5 3.3,10.5 3.3,10.7 3.3,10.7 3.4,10.7 3.4,10.7 3.6,10.7 3.6,10.7 3.6,10.7 3.8,10.7 
		3.8,10.7 4,10.7 4,10.7 4,10.7 4.2,10.7 4.2,10.7 4.3,10.7 7.4,10.5 9.1,10.3 10.7,10.1 12.3,10.1 13.9,10 15.6,10 17.2,9.8 
		18.7,9.8 19.9,9.6 21.4,9.6 22.8,9.6 24.1,9.6 25.4,9.4 26.6,9.4 27.9,9.4 29.2,9.6 30.3,9.6 30.8,9.6 31.5,9.6 32.1,9.6 32.6,9.6 
		33.3,9.8 33.9,9.8 34.4,9.8 35.2,9.8 35.7,10 36.2,10 37,10.1 37.5,10.1 38.1,10.1 38.4,10.3 39,10.3 39.3,10.5 39.9,10.5 
		40.2,10.7 40.8,10.7 41.1,10.9 41.5,10.9 41.9,11 42.2,11 42.6,11.2 42.9,11.4 43.5,11.4 43.8,11.6 44.2,11.8 44.4,11.8 44.8,12 
		45.1,12.1 45.3,12.3 45.7,12.3 46,12.5 46.2,12.7 46.6,12.9 46.7,13 46.9,13 47.3,13.2 47.5,13.4 47.7,13.6 48,13.8 48.2,13.9 
		48.4,14.1 48.6,14.3 48.7,14.5 48.9,14.7 49.1,14.9 49.3,15 49.5,15.2 49.6,15.4 49.8,15.6 50,15.8 50.2,15.9 50.4,16.3 50.6,16.5 
		50.7,16.7 50.9,17 51.1,17.2 51.3,17.6 51.5,17.8 51.6,18.1 51.8,18.5 51.8,18.8 52,19.2 52.2,19.6 52.4,19.7 52.5,20.1 52.7,20.7 
		52.9,21 52.9,21.4 53.1,21.9 53.3,22.3 53.5,22.6 53.5,23.2 53.6,23.6 53.8,24.1 54,24.6 54,25 54.2,25.5 54.4,26.1 54.5,26.6 
		54.5,27.2 54.7,27.7 54.7,28.3 54.9,28.8 55.1,29.4 55.1,30.1 55.3,31.2 55.4,32.4 55.8,33.7 56,35 56,36.2 56.2,37.5 56.4,39.3 
		56.5,41.1 56.7,42.9 56.9,44.6 57.1,46.4 57.3,48 57.6,51.3 58.2,58 58.3,60.3 58.5,62.9 58.7,65.2 58.9,67.6 59.3,70.1 59.4,72.7 
		59.8,75.2 60,77.9 60.2,79.2 60.3,80.6 60.5,81.9 60.7,83.4 60.9,84.6 61.1,85.9 61.2,87.3 61.4,88.6 61.6,90.1 61.8,91.3 62,92.8 
		62.3,94 62.5,95.5 62.7,96.8 62.9,98.2 63.2,99.5 63.4,100.9 63.6,102.2 64,103.7 64.1,105.1 64.5,106.4 64.7,107.8 65.1,109.3 
		65.2,110.5 65.6,112 66,113.4 66.3,114.7 66.5,116.2 66.9,117.6 67.2,118.9 67.6,120.3 68,121.6 68.3,123 68.7,124.5 69,125.8 
		69.4,127.2 69.8,128.5 70.1,129.9 70.7,131.2 71,132.7 71.4,133.9 71.9,135.4 72.3,136.6 72.8,137.9 73.2,139.4 73.8,140.6 
		74.3,141.9 74.7,143.3 75.2,144.6 75.7,145.9 76.3,147.2 76.8,148.4 77.4,149.7 77.9,151 78.5,152.2 79.2,153.5 79.4,154.2 
		79.7,154.9 80.1,155.7 80.5,156.4 80.8,157.1 81.2,157.8 81.5,158.6 81.9,159.3 82.6,160.6 83.4,161.6 83.7,162.4 83.9,162.9 
		84.3,163.5 84.6,164 85,164.7 85.4,165.3 85.7,165.8 86.1,166.4 86.4,166.9 86.8,167.6 87.2,168.2 87.5,168.7 87.9,169.3 
		88.4,169.8 88.8,170.3 89.2,170.9 89.5,171.4 89.9,172 90.2,172.5 90.8,173.1 91.2,173.6 91.5,174.2 91.9,174.7 92.4,175.2 
		92.8,175.8 93.1,176.3 93.7,176.9 94,177.2 94.6,177.8 95.1,178.3 95.5,178.9 96,179.4 96.6,180 96.9,180.5 97.5,181 98,181.6 
		98.6,182.1 99.3,182.9 99.8,183.4 100.4,183.9 101.1,184.5 101.7,185 102.2,185.6 102.9,186.1 103.5,186.7 104.2,187.2 
		104.7,187.7 105.5,188.1 106,188.7 106.7,189.2 107.3,189.7 108,190.1 108.7,190.6 109.3,191 110,191.6 110.7,191.9 111.3,192.5 
		112,192.8 112.7,193.4 113.4,193.7 114.2,194.1 114.7,194.6 115.4,195 116.2,195.4 116.9,195.7 117.6,196.3 118.3,196.6 119.1,197 
		119.8,197.4 120.5,197.7 121.2,198.1 122,198.4 122.7,198.8 123.4,199.2 124.1,199.3 124.9,199.7 125.6,200.1 126.3,200.4 
		127,200.8 127.8,201 128.5,201.3 129.2,201.7 129.9,201.9 130.8,202.2 131.6,202.4 132.3,202.8 133,203 133.7,203.3 134.5,203.5 
		135.4,203.9 136.1,204.1 136.8,204.2 137.5,204.6 138.5,204.8 139.2,205 139.9,205.3 140.6,205.5 141.5,205.7 142.3,205.9 143,206 
		143.9,206.2 144.6,206.4 145.3,206.8 146.2,207 147,207.1 147.7,207.3 148.6,207.5 149.3,207.7 150.4,207.9 151.3,208 152.4,208.2 
		153.3,208.4 154.4,208.6 155.3,208.8 156.4,208.9 157.3,209.1 158.4,209.3 159.3,209.5 160.4,209.7 161.3,209.9 162.4,209.9 
		163.3,210 164.4,210.2 165.5,210.4 166.9,210.6 168.5,210.8 170.2,210.9 171.8,210.9 173.4,211.1 175.1,211.3 176.7,211.5 
		178.3,211.5 180,211.7 181.6,211.8 183.2,211.8 184.8,212 186.5,212 188.1,212 189.7,212.2 191.4,212.2 193,212.2 194.6,212.2 
		196.1,212.4 197.7,212.4 199.3,212.4 201,212.4 202.6,212.4 204.2,212.4 206,212.4 208,212.4 210,212.4 211.8,212.4 214,212.2 
		216.2,212.2 220.4,212.2 224.7,212 234.7,211.8 240.3,211.7 243.2,211.7 245.9,211.5 248.8,211.5 251.7,211.3 254.8,211.3 
		258.1,211.1 261.3,210.9 264.6,210.8 266.4,210.8 268.2,210.6 270,210.6 271.8,210.4 273.6,210.4 275.5,210.2 277.3,210 279.3,210 
		280.9,209.9 282.5,209.7 284.2,209.7 285.8,209.5 287.4,209.3 289.1,209.1 290.9,208.9 292.5,208.9 294.1,208.8 295.9,208.6 
		297.6,208.4 299.4,208.2 301,208 302.8,207.9 304.5,207.5 306.3,207.3 308.3,207.1 310.3,206.8 312.3,206.6 314.2,206.2 316.2,206 
		318.2,205.7 320.2,205.3 322.2,205 323.8,204.8 325.7,204.4 327.5,204.1 329.1,203.7 330.9,203.3 331.8,203.1 332.7,203 
		333.5,202.8 334.4,202.6 335.3,202.4 336.2,202.1 336.9,201.9 337.8,201.7 338.7,201.5 339.4,201.3 340.3,201 341.1,200.8 
		342,200.6 342.7,200.4 343.6,200.1 344.3,199.9 345.2,199.7 346,199.3 346.9,199.2 347.6,198.8 348.3,198.6 349.2,198.3 
		349.9,198.1 350.7,197.7 351.4,197.4 352.1,197.2 353,196.8 353.8,196.4 354.5,196.3 355.2,195.9 355.9,195.5 356.7,195.2 
		357.4,194.8 358.1,194.5 358.8,194.1 359.4,193.9 360.1,193.4 360.8,193 361.5,192.6 362.1,192.3 362.8,191.9 363.5,191.6 
		364.1,191 364.8,190.6 365.4,190.1 366.1,189.7 366.6,189.2 367.2,188.8 367.9,188.3 368.4,187.7 368.6,187.6 369,187.2 369.3,187 
		369.5,186.7 369.9,186.5 370.1,186.1 370.4,185.9 370.6,185.6 371,185.4 371.1,185 371.5,184.8 371.7,184.5 372.1,184.1 
		372.2,183.9 372.4,183.6 372.8,183.2 373.1,182.7 373.7,182.1 374,181.6 374.4,180.9 375,180.3 375.3,179.8 375.7,179 376,178.5 
		376.4,177.8 376.8,177.2 376.9,176.5 377.3,176 377.7,175.4 377.9,174.7 378.2,174.2 378.4,173.4 378.8,172.9 378.9,172.3 
		379.1,171.6 379.3,171.1 379.7,170.5 379.8,169.8 380,169.3 380.2,168.7 380.4,168.2 380.6,167.4 380.9,166.4 381.1,165.3 
		381.5,164.4 382.4,161.3 383.8,155.3 384.4,153.5 384.9,151.7 385.5,149.7 385.6,148.8 385.8,147.9 386.4,146.1 386.7,144.4 
		387.1,142.6 387.3,141.7 387.5,140.8 387.6,139.9 387.8,138.8 388,137.9 388.2,136.8 388.4,135.9 388.5,134.8 388.7,133.9 
		388.9,132.8 389.1,131.7 389.3,130.7 389.5,129.4 389.6,128.3 389.8,127.2 390,125.9 390.2,124.9 390.4,123.6 390.5,122.5 
		390.5,121.4 390.7,120.3 390.9,119.2 391.1,117.1 391.3,114.9 391.4,113.4 391.6,112.2 391.8,109.3 392,107.1 392.2,104.7 
		392.4,102.6 392.5,100.2 392.7,98 392.9,95.7 393.1,93.5 393.1,91.3 393.3,89.3 393.4,87.2 393.4,85.2 393.6,83 393.6,81.4 
		393.8,79.6 393.8,77.7 393.8,75.9 394,74.7 394,73.4 394,72.3 394,71.8 394,71.2 394,70.5 394,69.6 394,69 393.8,68.5 393.8,68 
		393.8,67.4 393.8,66.9 393.6,66.3 393.6,65.6 393.4,65.1 393.4,64.5 393.3,63.8 393.3,63.4 393.1,63.1 393.1,62.7 392.9,62.5 
		392.9,62.2 392.7,61.8 392.7,61.4 392.5,61.1 392.4,60.7 392.4,60.3 392.2,60 392,59.6 391.8,59.3 391.8,59.1 391.6,58.7 
		391.4,58.3 391.3,58 391.1,57.6 390.9,57.4 390.9,57.1 390.7,56.7 390.5,56.4 390.4,56.2 390.2,55.8 390,55.4 389.8,55.3 
		389.6,54.9 389.3,54.5 389.1,54.4 388.9,54 388.7,53.8 388.5,53.5 388.4,53.1 388,52.9 387.8,52.5 387.6,52.4 387.5,52 387.1,51.8 
		386.9,51.5 386.7,51.3 386.4,51.1 386.2,50.7 386,50.6 385.6,50.2 385.5,50 385.3,49.8 384.7,49.3 384.2,48.9 383.7,48.4 383.1,48 
		382.6,47.5 382,47.1 381.5,46.7 380.9,46.4 380.2,46 379.7,45.7 379.1,45.3 378.4,44.9 377.9,44.6 377.1,44.2 376.6,43.8 
		375.9,43.5 375.1,43.1 374.4,42.9 373.7,42.6 373,42.2 372.4,42 371.7,41.7 371,41.5 370.2,41.3 369.5,40.9 369,40.8 368.2,40.6 
		367.5,40.4 366.8,40 366.1,39.9 365.4,39.7 364.6,39.5 363.9,39.3 363.2,39.1 362.5,39 361.7,38.8 361,38.6 360.3,38.4 359.4,38.2 
		358.6,38.1 357.9,38.1 357.2,37.9 356.3,37.7 355.6,37.5 354.8,37.5 353.9,37.3 353.2,37.1 352.3,37.1 351.6,37 350.9,36.8 
		349.9,36.8 349.2,36.6 348.3,36.6 347.4,36.4 346.7,36.4 345.8,36.2 344.9,36.2 343.2,36.1 341.4,35.9 339.8,35.7 338,35.7 
		336.2,35.5 334.5,35.5 332.5,35.3 330.7,35.3 328.7,35.3 326.9,35.2 324.9,35.2 323.1,35.2 321.1,35.2 319.3,35.2 317.3,35.2 
		315.5,35.2 313.5,35.2 311.7,35.2 309.7,35.2 307.7,35.3 305.9,35.3 303.9,35.3 301.9,35.5 299.7,35.5 297.6,35.5 295.4,35.7 
		293.2,35.7 291,35.9 288.9,36.1 286.7,36.1 282.2,36.2 277.8,36.6 273.8,36.8 258.1,37.7 254.3,37.9 250.6,38.1 246.8,38.2 
		239.6,38.6 232.5,39 225.3,39.3 221.6,39.7 218,39.9 214.2,40 210.4,40.2 206.6,40.4 202.6,40.8 198.8,40.9 197,41.1 195,41.3 
		193.2,41.3 191.2,41.5 189.2,41.7 187.4,41.9 184.1,42.2 182.5,42.2 180.9,42.4 179.2,42.6 177.6,42.8 175.8,42.9 174.2,43.1 
		172.5,43.3 170.9,43.5 169.3,43.7 167.6,43.8 166,44 164.4,44.2 162.7,44.4 161.1,44.6 159.5,44.9 157.8,45.1 156.2,45.3 
		154.6,45.5 152.9,45.8 151.3,46 149.7,46.4 148.1,46.6 146.4,46.9 145,47.1 143.3,47.5 141.7,47.7 140.1,48 138.5,48.4 136.8,48.7 
		135.2,48.9 133.6,49.3 131.9,49.6 130.3,50 128.7,50.4 126.9,50.7 125.2,51.3 123.6,51.6 122,52 120.3,52.4 118.7,52.9 117.1,53.3 
		115.4,53.6 113.8,54.2 112.2,54.5 110.5,55.1 108.9,55.4 108.7,55.6 108.5,55.8 108.4,55.8 108.4,56 108.2,56 108,56.2 107.8,56.2 
		107.6,56.4 107.6,56.4 107.5,56.5 107.3,56.5 107.3,56.7 107.1,56.7 107.1,56.9 106.9,57.1 106.9,57.1 106.7,57.3 106.7,57.3 
		106.6,57.4 106.6,57.4 106.4,57.6 106.4,57.6 106.4,57.8 106.2,58 106.2,58 106.2,58.2 106.2,58.2 106,58.3 106,58.3 106,58.5 
		106,58.5 106,58.7 106,58.9 106,58.9 106,59.1 105.8,59.1 105.8,59.3 105.8,59.3 105.8,59.4 105.8,59.4 105.8,59.6 105.8,59.6 
		105.8,59.8 105.8,59.8 106,60 106,60.2 106,60.2 106,60.3 106,60.3 106,60.5 106,60.5 106,60.7 106,60.7 106.2,60.7 106.2,60.9 
		106.2,61.1 106.4,61.2 106.4,61.4 106.4,61.6 106.6,61.8 106.6,62 106.7,62 106.7,62.2 106.9,62.3 106.9,62.3 106.9,62.3 
		106.9,62.5 107.1,62.5 107.1,62.5 107.1,62.7 107.1,62.7 107.3,62.7 107.3,62.9 107.3,62.9 107.5,62.9 107.5,62.9 107.5,63.1 
		107.6,63.1 107.6,63.1 107.6,63.2 107.8,63.2 107.8,63.2 107.8,63.2 108,63.4 108,63.4 108,63.4 108.2,63.4 108.2,63.4 108.4,63.6 
		108.4,63.6 108.5,63.6 108.7,63.8 108.9,63.8 109.1,63.8 109.3,64 109.5,64 109.6,64 110,64.1 110.2,64.1 110.4,64.1 110.9,64.3 
		111.6,64.3 113.8,64 116,63.6 118.2,63.1 120.3,62.7 122.5,62.3 124.7,62 126.9,61.6 129,61.2 131.2,60.9 133.2,60.7 135.4,60.3 
		137.5,60 139.7,59.8 141.9,59.4 144.1,59.3 146.2,59.1 148.4,58.7 150.6,58.5 152.6,58.3 154.8,58 156.9,57.8 159.1,57.6 
		161.3,57.4 163.5,57.3 165.6,57.1 167.8,56.9 170,56.7 172.2,56.5 174.3,56.4 176.5,56.4 178.7,56.2 180.9,56 183.2,55.8 
		185.4,55.8 187.6,55.6 189.7,55.4 194.3,55.3 198.8,55.1 203.3,54.9 208,54.5 217.3,54.2 226.9,53.8 231.8,53.6 236.7,53.5 
		241.8,53.1 246.6,52.9 251.9,52.5 257,52.4 262.2,52 267.5,51.8 278,51.1 283.3,50.9 288.5,50.6 291.2,50.4 293.9,50.4 296.5,50.2 
		299.2,50 301.7,50 304.5,49.8 307,49.6 309.5,49.6 312.3,49.6 314.8,49.5 317.3,49.5 319.9,49.5 322.2,49.5 324.8,49.5 327.3,49.5 
		328.4,49.5 329.6,49.5 330.7,49.5 332,49.5 333.3,49.5 334.4,49.5 335.6,49.5 336.7,49.6 337.8,49.6 339.1,49.6 340.2,49.6 
		341.2,49.8 342.3,49.8 343.4,50 344.5,50 345.6,50 346.7,50.2 347.8,50.2 348.9,50.4 349.9,50.4 350.9,50.6 351.9,50.7 353,50.7 
		353.9,50.9 355,51.1 355.9,51.3 356.8,51.3 357.9,51.5 358.8,51.6 359.7,51.8 360.6,52 361.5,52.2 362.5,52.4 363.2,52.5 
		364.1,52.7 365,53.1 365.7,53.3 366.6,53.5 367.3,53.6 368.2,54 369,54.2 369.7,54.4 370.4,54.7 371.1,54.9 371.9,55.3 372.6,55.6 
		373.1,55.8 373.9,56.2 374.6,56.5 375.1,56.7 375.5,56.9 375.7,57.1 376,57.3 376.2,57.4 376.6,57.6 376.9,57.8 377.1,58 
		377.5,58.2 377.7,58.3 378,58.5 378.2,58.7 378.4,58.9 378.8,59.1 378.9,59.3 379.1,59.6 379.5,59.8 379.7,60 379.8,60.2 380,60.3 
		380.4,60.5 380.6,60.7 380.8,61.1 380.9,61.2 381.1,61.4 381.3,61.6 381.5,61.8 381.7,62.2 381.8,62.3 382,62.5 382.2,62.9 
		382.4,63.1 382.6,63.2 382.7,63.6 382.7,63.8 382.9,64 383.1,64.3 383.3,64.5 383.3,64.7 383.5,65.1 383.7,65.2 383.7,65.6 
		383.8,65.8 383.8,66.1 384,66.3 384,66.7 384.2,66.9 384.2,67.2 384.4,67.4 384.4,68 384.6,68.5 384.6,68.9 384.6,69.4 384.7,69.9 
		384.7,70.5 384.7,71 384.7,71.6 384.7,72.1 384.7,72.7 384.7,73.2 384.7,73.9 384.7,75.2 384.7,76.7 384.6,78.6 384.4,81 
		384.4,83.5 384.2,86.1 384,88.8 383.8,91.7 383.7,94.6 383.5,96 383.5,97.5 383.3,99.1 383.3,100.6 383.1,102 382.9,103.7 
		382.7,105.1 382.6,106.6 382.6,108.2 382.4,109.6 382.2,111.1 382,112.7 381.8,114.2 381.7,115.6 381.5,117.1 381.3,118.3 
		381.1,119.8 380.9,121.1 380.8,122 380.6,122.7 380.4,123.6 380.4,124.3 380.2,125.2 380,125.9 379.8,126.7 379.7,127.4 
		379.7,128.1 379.5,128.8 379.3,129.6 379.1,130.3 378.9,131 378.8,131.7 378.4,133 378.2,134.5 377.9,135.7 377.5,137 377.1,138.3 
		376.8,139.4 376.4,140.6 376,141.7 375.5,143 375.1,144.1 374.8,145.2 374.4,146.2 374,147.2 373.5,148.2 373.1,149.3 372.8,150.2 
		372.2,151.3 371.9,152.2 371.5,153.1 371,154.2 370.6,155.1 370.1,156 369.7,156.9 368.8,158.9 368.1,160.4 367.3,161.8 367,162.6 
		366.6,163.3 366.3,163.8 365.9,164.5 365.5,165.3 365.2,166 364.8,166.7 364.4,167.4 363.9,168.2 363.5,168.7 363.2,169.4 
		362.8,170.2 362.3,170.7 361.9,171.4 361.4,172.2 361,172.7 360.5,173.4 359.9,174 359.6,174.5 359.2,174.9 359,175.2 358.6,175.4 
		358.5,175.8 358.3,176.1 357.9,176.3 357.7,176.7 357.4,176.9 357,177.2 356.8,177.6 356.5,177.8 356.3,178.1 355.9,178.3 
		355.6,178.5 355.4,178.9 355,179 354.7,179.4 354.5,179.6 354.1,179.8 353.8,180.1 353.6,180.3 353.2,180.5 352.8,180.7 352.5,181 
		352.3,181.2 351.9,181.4 351.6,181.6 351.2,181.8 350.9,182.1 350.5,182.3 350.1,182.5 349.8,182.7 349.2,183 348.5,183.4 
		347.8,183.8 346.9,184.1 346.1,184.5 345.4,184.8 344.7,185.2 343.8,185.4 343.1,185.8 342.2,186.1 341.4,186.3 340.5,186.7 
		339.8,186.8 338.9,187.2 338,187.4 337.1,187.6 336.2,187.9 335.4,188.1 334.5,188.3 333.6,188.5 332.7,188.7 331.6,188.8 
		330.7,189.2 329.8,189.4 328.9,189.6 328,189.6 326.9,189.7 326,189.9 325.1,190.1 324,190.3 323.1,190.5 322,190.5 321.1,190.6 
		320,190.8 319.1,191 318,191 317,191.2 316.1,191.2 315,191.4 313,191.6 311,191.7 308.8,191.9 306.8,192.1 304.6,192.3 
		302.6,192.5 300.5,192.5 296.3,192.8 292.1,193 288,193.4 283.8,193.5 279.8,193.7 271.5,194.3 254.8,195.2 246.3,195.5 
		241.9,195.9 237.6,196.1 233.1,196.4 228.7,196.6 220.9,197.2 217.1,197.4 215.1,197.5 213.1,197.5 211.3,197.7 209.3,197.7 
		207.3,197.9 205.3,197.9 203.3,198.1 201.3,198.1 199.3,198.1 197.4,198.3 195.4,198.3 193.4,198.3 191.4,198.3 189.4,198.3 
		187.4,198.3 185.4,198.3 184.3,198.3 183.4,198.3 182.3,198.1 181.4,198.1 180.3,198.1 179.4,198.1 178.3,197.9 177.4,197.9 
		176.3,197.9 175.4,197.9 174.3,197.7 173.4,197.7 172.3,197.5 171.4,197.5 170.5,197.4 169.4,197.4 168.5,197.2 167.4,197.2 
		166.5,197 165.6,197 164.5,196.8 163.6,196.6 162.7,196.4 161.6,196.4 160.7,196.3 159.8,196.1 158.7,195.9 157.8,195.7 
		156.9,195.5 155.8,195.4 154.9,195.2 154,195 153.1,194.8 152.2,194.6 151.1,194.5 150.2,194.1 149.3,193.9 148.4,193.7 
		147.5,193.4 146.6,193.2 145.7,193 144.8,192.6 143.9,192.3 143,192.1 142.1,191.7 141.2,191.6 140.3,191.2 139.4,190.8 
		138.5,190.5 137.5,190.1 136.6,189.7 135.7,189.4 135,189 134.1,188.7 133.2,188.3 132.3,187.9 131.6,187.6 130.7,187 129.8,186.7 
		129,186.3 128.1,185.8 127.2,185.4 126.5,184.8 125.6,184.5 124.9,183.9 124,183.4 123.2,182.9 122.5,182.3 121.6,181.9 
		120.9,181.4 120.1,180.7 119.2,180.1 118.5,179.6 117.8,179 117.1,178.5 116.2,177.8 115.4,177.2 114.7,176.5 114,176 113.3,175.2 
		112.5,174.7 111.8,174 111.1,173.2 110.5,172.5 109.8,172 109.3,171.4 108.7,170.9 108.2,170.2 107.6,169.6 107.3,169.1 
		106.7,168.4 106.2,167.8 105.6,167.1 105.1,166.5 104.6,165.8 104,165.3 103.7,164.5 103.1,163.8 102.6,163.1 102,162.6 
		101.7,161.8 101.1,161.1 100.6,160.4 100.2,159.7 99.7,158.9 99.3,158.4 98.8,157.7 98.2,156.9 97.9,156 97.3,155.3 96.9,154.6 
		96.6,153.9 96,153.1 95.7,152.4 95.1,151.5 94.8,150.8 94.4,150 93.9,149.3 93.5,148.4 93.1,147.7 92.6,147 92.2,146.1 91.9,145.3 
		91.5,144.4 91.2,143.7 90.6,142.8 90.2,142.1 89.9,141.2 89.5,140.4 89.2,139.5 88.8,138.6 88.4,137.9 88.1,137 87.7,136.1 
		87.3,135.4 87,134.5 86.6,133.6 86.3,132.7 85.9,131.9 85.5,131 85.2,130.1 85,129.2 84.6,128.3 84.3,127.6 83.9,126.7 83.5,125.8 
		83,124 82.5,122.1 81.7,120.3 81.2,118.5 80.6,116.9 80.1,115.1 79.6,113.3 79,111.4 78.5,109.5 77.9,107.6 77.4,105.8 77,104 
		76.5,102.2 75.9,100.4 75.6,98.6 75.2,96.8 74.7,95 74.3,93.1 73.9,91.3 73.6,89.5 73,87.7 72.7,85.9 72.5,84.1 72.1,82.5 
		71.8,80.6 71.4,78.8 71,77 70.9,75.4 70.5,73.6 70.3,71.9 69.9,70.1 69.8,68.5 69.4,66.9 69.2,65.6 69,64.3 68.7,61.8 68.5,59.4 
		68.1,56.9 67.8,54.5 67.6,52.2 66.9,45.5 66.5,43.3 66.3,41.1 66,39.1 65.8,37 65.6,36.1 65.4,35 65.2,34.1 65.2,33.2 65.1,32.3 
		64.9,31.2 64.7,30.3 64.5,29.4 64.3,28.4 64.1,27.5 64,26.6 63.8,25.9 63.6,25 63.4,24.1 63.2,23.4 63.1,22.5 62.9,21.7 62.5,21 
		62.3,20.3 62.2,19.4 61.8,18.7 61.6,17.9 61.2,17.2 61.1,16.7 60.7,15.9 60.3,15.2 60.3,14.9 60.2,14.7 60,14.3 59.8,13.9 
		59.6,13.6 59.4,13.4 59.3,13 59.1,12.7 58.9,12.5 58.7,12.1 58.5,12 58.3,11.6 58.2,11.2 58,11 57.8,10.7 57.6,10.5 57.4,10.1 
		57.3,10 57.1,9.8 56.7,9.4 56.5,9.2 56.4,9.1 56.2,8.7 56,8.5 55.6,8.3 55.4,8 55.3,7.8 54.9,7.6 54.7,7.4 54.5,7.2 54.2,6.9 
		54,6.7 53.6,6.5 53.5,6.3 53.3,6.2 52.9,6 52.7,5.8 52.4,5.6 52.2,5.4 51.8,5.2 51.5,5.1 51.3,4.9 50.9,4.7 50.7,4.5 50.4,4.5 
		50,4.3 49.8,4.2 49.5,4 49.1,3.8 48.9,3.8 48.6,3.6 48.2,3.4 47.8,3.3 47.7,3.3 46.9,2.9 46.2,2.7 45.5,2.5 44.9,2.3 44.2,2.2 
		43.5,2 42.8,1.8 42,1.6 41.1,1.4 40.4,1.3 39.7,1.1 39,1.1 38.1,0.9 37.3,0.9 36.4,0.7 35.7,0.7 34.8,0.5 33.9,0.5 33.2,0.5 
		32.3,0.4 31.3,0.4 30.4,0.4 29.5,0.4 28.6,0.4 27.7,0.4 26.8,0.4 25.9,0.4 25,0.4 24.1,0.4 23,0.4 22.1,0.4 21.2,0.4 20.1,0.4 
		19.2,0.5 18.1,0.5 16.1,0.5 14.1,0.7 12.1,0.9 10,1.1 7.8,1.3 5.6,1.4 3.4,1.4 	"/>
</g>
<g id="SPLINE_100_">
	<path class="st3" d="M149,244.7c-5.6-0.9-11.6-1.4-15.4,2.4c-3.8,3.6-5.6,11.6-1.3,17.8c2.7,3.8,7.6,6.7,12.1,7.6
		c4.3,0.9,8.3-0.2,11.4-2.9c5.1-4.3,7.2-13,5.6-17.9C159.7,246.6,154.4,245.6,149,244.7z"/>
</g>
<g id="HATCH_424_">
	<path class="st2" d="M150.2,235.6l-0.7-0.2l-0.7-0.2l-0.7-0.2l-0.7-0.2h-0.7h-0.7h-0.7h-0.7h-0.7H143h-0.7h-0.4h-0.4H141h-0.5h-0.5
		h-0.5H139h-0.4h-0.4h-0.4h-0.4h-0.4l-0.4,0.2l-0.4,0.2l-0.4,0.2l-0.4,0.2l-0.4,0.2L135,236l-0.4,0.2l-0.4,0.2l-0.4,0.2l-0.4,0.2
		l-0.4,0.2l-0.4,0.2l-0.4,0.2l-0.4,0.2l-0.4,0.2l-0.4,0.2l-0.4,0.4l-0.4,0.4l-0.4,0.4l-0.4,0.4l-0.4,0.4l-0.4,0.4l-0.4,0.4l-0.4,0.4
		l-0.4,0.4l-0.4,0.4l-0.4,0.4l-0.4,0.4l-0.4,0.4l-0.4,0.4l-0.4,0.4l-0.4,0.4l-0.2,0.4l-0.2,0.4l-0.2,0.5l-0.2,0.5l-0.2,0.5l-0.2,0.5
		l-0.2,0.5l-0.2,0.5l-0.2,0.5l-0.2,0.5l-0.2,0.5l-0.2,0.5l-0.2,0.5l-0.2,0.5l-0.2,0.5l-0.2,0.5l-0.2,0.5l-0.2,0.5v0.5v0.5v0.5v0.5
		v0.5v0.5v0.5v0.5v0.5v0.5v0.5v0.5v0.4v0.4v0.4v0.4v0.4v0.4v0.4v0.4v0.4l0.2,0.4l0.2,0.4l0.2,0.4l0.2,0.4l0.2,0.4l0.2,0.4l0.2,0.4
		l0.2,0.5l0.2,0.5l0.2,0.5l0.2,0.5l0.2,0.5l0.4,0.5l0.4,0.5l0.4,0.5l0.2,0.4l0.2,0.4l0.2,0.4l0.2,0.4l0.2,0.4l0.2,0.2l0.2,0.2
		l0.2,0.2l0.2,0.4l0.2,0.4l0.2,0.4l0.2,0.4l0.2,0.2l0.2,0.2l0.2,0.2l0.2,0.2l0.2,0.2l0.2,0.2l0.2,0.2l0.2,0.2l0.2,0.2l0.4,0.2
		l0.4,0.2l0.4,0.2l0.4,0.2l0.4,0.2l0.5,0.4l0.5,0.4l0.5,0.4l0.5,0.4l0.5,0.4l0.5,0.4l0.5,0.4l0.5,0.4l0.5,0.4l0.7,0.4l0.7,0.4
		l0.7,0.4l0.7,0.4l0.7,0.2l0.7,0.2l0.7,0.2l0.7,0.2l0.7,0.2l0.7,0.2l0.7,0.2l0.7,0.2l0.7,0.2l0.7,0.2l0.7,0.2l0.7,0.2l0.7,0.2
		l0.7,0.2h0.7h0.7h0.7h0.7h0.4h0.4h0.4h0.4h0.4h0.4h0.4h0.4h0.4h0.4h0.4h0.4h0.4h0.4h0.4h0.4h0.4h0.4h0.4h0.4h0.4h0.4h0.4h0.4
		l0.4-0.2l0.4-0.2l0.4-0.2l0.4-0.2l0.4-0.2l0.4-0.2l0.4-0.2l0.4-0.2l0.4-0.2l0.4-0.2l0.4-0.2l0.4-0.2l0.4-0.2l0.4-0.2l0.4-0.4
		l0.4-0.4l0.4-0.2l0.2-0.2l0.2-0.2l0.2-0.2l0.2-0.2l0.2-0.2l0.2-0.2l0.2-0.2l0.2-0.2l0.2-0.2l0.2-0.2l0.2-0.2l0.2-0.2l0.2-0.2
		l0.2-0.2l0.2-0.2l0.2-0.2l0.2-0.2l0.2-0.2l0.2-0.2l0.2-0.2l0.2-0.2l0.2-0.2l0.2-0.2l0.2-0.4l0.2-0.4l0.2-0.4l0.2-0.4l0.2-0.4
		l0.2-0.4l0.2-0.4l0.2-0.4l0.2-0.5l0.2-0.5l0.2-0.5l0.2-0.5l0.2-0.5l0.2-0.5l0.2-0.5l0.2-0.5l0.2-0.5l0.2-0.5v-0.5v-0.5v-0.5v-0.5
		v-0.5V264v-0.5V263v-0.5v-0.5v-0.5v-0.5v-0.5v-0.5v-0.5v-0.5v-0.5v-0.5V257v-0.5l-0.2-0.5l-0.2-0.5l-0.2-0.5l-0.2-0.5l-0.2-0.5
		l-0.2-0.5l-0.2-0.5l-0.2-0.5l-0.2-0.5l-0.2-0.5l-0.2-0.5l-0.2-0.5l-0.2-0.5l-0.2-0.5l-0.2-0.5l-0.2-0.5l-0.2-0.5l-0.2-0.4l-0.2-0.4
		l-0.2-0.4l-0.4-0.4l-0.4-0.4l-0.4-0.4l-0.4-0.4l-0.4-0.4l-0.4-0.4l-0.4-0.4l-0.4-0.4l-0.4-0.4l-0.4-0.4l-0.4-0.4l-0.4-0.4l-0.4-0.4
		l-0.4-0.4l-0.4-0.2l-0.4-0.2l-0.4-0.2l-0.4-0.2l-0.4-0.2l-0.4-0.2l-0.4-0.2l-0.4-0.2l-0.4-0.2l-0.4-0.2l-0.4-0.2l-0.4-0.2l-0.4-0.2
		l-0.4-0.2l-0.4-0.2l-0.4-0.2l-0.4-0.2l-0.4-0.2l-0.4-0.2l-0.4-0.2l-0.4-0.2l-0.4-0.2l-0.4-0.2l-0.4-0.2l-0.7-0.2l-0.7-0.2l-0.7-0.2
		L154,236l-0.7-0.2l-0.7-0.2l-0.7-0.2L150.2,235.6z M149,244.7l1.1,0.2h0.5h0.5l0.5,0.2l0.5,0.2l0.5,0.2l0.5,0.2l0.5,0.2l0.5,0.2
		l0.5,0.2l0.5,0.2l0.4,0.2l0.4,0.2l0.4,0.2l0.4,0.2l0.2,0.2l0.2,0.2l0.2,0.2l0.2,0.2l0.2,0.2l0.2,0.2l0.2,0.2l0.2,0.2l0.2,0.2
		l0.2,0.2l0.2,0.2l0.2,0.2l0.2,0.2l0.2,0.2l0.2,0.2l0.2,0.2l0.2,0.2l0.2,0.2l0.2,0.2l0.2,0.2l0.2,0.2l0.2,0.2l0.2,0.2l0.2,0.2
		l0.2,0.2l0.2,0.2l0.2,0.2l0.2,0.2l0.2,0.2v0.2v0.2v0.2v0.2v0.2v0.2v0.2v0.2v0.2v0.2v0.2v0.2v0.4v0.4v0.4v0.4v0.4v0.4v0.4v0.4v0.4
		v0.4v0.4v0.4v0.4v0.4v0.4v0.4v0.4v0.4v0.4v0.4v0.4v0.4v0.4l-0.2,0.4l-0.2,0.4l-0.2,0.4l-0.2,0.4l-0.2,0.4l-0.2,0.4l-0.2,0.4
		l-0.2,0.4l-0.2,0.4l-0.2,0.4l-0.2,0.4l-0.2,0.4l-0.2,0.4l-0.2,0.4l-0.2,0.4l-0.2,0.4l-0.2,0.4l-0.2,0.4l-0.2,0.4l-0.2,0.2l-0.2,0.2
		l-0.2,0.2l-0.2,0.2l-0.7-2.7l-0.2,0.2l-0.2,0.2l-0.2,0.2l-0.2,0.2l-0.2,0.2l-0.2,0.2l-0.2,0.2l-0.2,0.2l-0.4,0.2l-0.4,0.2l-0.4,0.2
		l-0.4,0.2L154,270l-0.4,0.2l-0.4,0.2l-0.4,0.2l-0.4,0.2l-0.4,0.2l-0.4,0.2l-0.4,0.2l-0.4,0.2l-0.4,0.2l-0.4,0.2L150,272h-0.4h-0.4
		H149h-0.4h-0.4h-0.4h-0.4h-0.4h-0.4h-0.4h-0.4h-0.4h-0.4H145h-0.4h-0.4l-0.4-0.2l-0.4-0.2l-0.4-0.2l-0.4-0.2l-0.4-0.2l-0.4-0.2
		l-0.4-0.2l-0.4-0.2l-0.4-0.2l-0.4-0.2l-0.4-0.2l-0.4-0.2l-0.4-0.2l-0.4-0.2l-0.4-0.2l-1.4,0.2l-0.4-0.2l-0.4-0.2l-0.4-0.2l-0.4-0.4
		l-0.4-0.4l-0.4-0.4l-0.4-0.4l-0.4-0.4l-0.4-0.4l-0.4-0.4l-0.4-0.4l-0.4-0.4l-0.4-0.4l-0.4-0.4l-0.2-0.4l-0.2-0.4l-0.2-0.4l-0.2-0.4
		l-0.2-0.4l-0.2-0.4l-0.2-0.4l-0.2-0.4l-0.2-0.4l-0.2-0.4l-0.2-0.4l-0.2-0.4l-0.2-0.4l-0.2-0.4l-0.2-0.4v-0.4v-0.4v-0.4v-0.4v-0.4
		v-0.4V257v-0.4v-0.4v-0.4v-0.4v-0.4v-0.4v-0.4v-0.4v-0.4v-0.4V253v-0.4v-0.4v-0.4v-0.4v-0.4v-0.4v-0.4v-0.4v-0.4v-0.4V249l0.2-0.4
		l0.2-0.2l0.2-0.2l0.2-0.2l0.2-0.2l0.2-0.2l0.2-0.2l0.2-0.2l0.2-0.2l0.2-0.2l0.2-0.2l0.2-0.2l0.2-0.2l0.2-0.2l0.2-0.2l0.2-0.2
		l0.2-0.2l0.2-0.2l0.2-0.2l0.2-0.2l0.2-0.2l0.2-0.2l0.2-0.2l0.2-0.2l0.2-0.2l0.2-0.2l0.2-0.2l0.2-0.2l0.2-0.2l0.2-0.2l0.2-0.2
		l0.2-0.2l0.2-0.2l0.2-0.2l0.2-0.2l0.2-0.2l0.2-0.2h0.2h0.2h0.2h0.2h0.2h0.2h0.2h0.2h0.2h0.2h0.2h0.5h0.5h0.5h0.5h0.5h0.5h0.5h0.5
		h0.5h0.5h0.5h0.5h0.5h0.5h0.5l1.1,0.2L149,244.7z"/>
</g>
<g id="HATCH_425_">
	<polygon class="st0" points="3.4,1.4 3.3,1.6 3.1,1.8 2.9,2 2.7,2 2.7,2.2 2.5,2.2 2.3,2.3 2.3,2.3 2.2,2.5 2.2,2.5 2,2.7 2,2.7 
		1.8,2.7 1.8,2.9 1.6,3.1 1.6,3.1 1.4,3.3 1.4,3.3 1.4,3.4 1.3,3.4 1.3,3.6 1.1,3.6 1.1,3.8 1.1,3.8 0.9,4 0.9,4 0.9,4.2 0.9,4.2 
		0.7,4.3 0.7,4.3 0.7,4.5 0.7,4.5 0.5,4.7 0.5,4.9 0.5,4.9 0.5,5.1 0.5,5.1 0.5,5.2 0.5,5.2 0.4,5.4 0.4,5.4 0.4,5.6 0.4,5.6 
		0.4,5.8 0.4,6 0.4,6 0.4,6.2 0.4,6.2 0.4,6.3 0.4,6.3 0.4,6.5 0.4,6.5 0.4,6.7 0.4,6.7 0.4,6.9 0.4,6.9 0.5,7.1 0.5,7.1 0.5,7.2 
		0.5,7.2 0.5,7.4 0.5,7.4 0.5,7.6 0.5,7.6 0.7,7.8 0.7,7.8 0.7,8 0.7,8 0.7,8.1 0.7,8.1 0.9,8.3 0.9,8.3 0.9,8.5 0.9,8.5 1.1,8.5 
		1.1,8.7 1.1,8.7 1.1,8.9 1.3,8.9 1.3,9.1 1.3,9.1 1.3,9.1 1.4,9.2 1.4,9.2 1.4,9.2 1.6,9.4 1.6,9.4 1.6,9.6 1.8,9.6 1.8,9.6 
		1.8,9.8 2,9.8 2,9.8 2,10 2.2,10 2.2,10 2.2,10 2.3,10.1 2.3,10.1 2.3,10.1 2.5,10.1 2.5,10.3 2.7,10.3 2.7,10.3 2.7,10.3 
		2.9,10.5 2.9,10.5 3.1,10.5 3.1,10.5 3.1,10.5 3.3,10.5 3.3,10.7 3.3,10.7 3.4,10.7 3.4,10.7 3.6,10.7 3.6,10.7 3.6,10.7 3.8,10.7 
		3.8,10.7 4,10.7 4,10.7 4,10.7 4.2,10.7 4.2,10.7 4.3,10.7 7.4,10.5 9.1,10.3 10.7,10.1 12.3,10.1 13.9,10 15.6,10 17.2,9.8 
		18.7,9.8 19.9,9.6 21.4,9.6 22.8,9.6 24.1,9.6 25.4,9.4 26.6,9.4 27.9,9.4 29.2,9.6 30.3,9.6 30.8,9.6 31.5,9.6 32.1,9.6 32.6,9.6 
		33.3,9.8 33.9,9.8 34.4,9.8 35.2,9.8 35.7,10 36.2,10 37,10.1 37.5,10.1 38.1,10.1 38.4,10.3 39,10.3 39.3,10.5 39.9,10.5 
		40.2,10.7 40.8,10.7 41.1,10.9 41.5,10.9 41.9,11 42.2,11 42.6,11.2 42.9,11.4 43.5,11.4 43.8,11.6 44.2,11.8 44.4,11.8 44.8,12 
		45.1,12.1 45.3,12.3 45.7,12.3 46,12.5 46.2,12.7 46.6,12.9 46.7,13 46.9,13 47.3,13.2 47.5,13.4 47.7,13.6 48,13.8 48.2,13.9 
		48.4,14.1 48.6,14.3 48.7,14.5 48.9,14.7 49.1,14.9 49.3,15 49.5,15.2 49.6,15.4 49.8,15.6 50,15.8 50.2,15.9 50.4,16.3 50.6,16.5 
		50.7,16.7 50.9,17 51.1,17.2 51.3,17.6 51.5,17.8 51.6,18.1 51.8,18.5 51.8,18.8 52,19.2 52.2,19.6 52.4,19.7 52.5,20.1 52.7,20.7 
		52.9,21 52.9,21.4 53.1,21.9 53.3,22.3 53.5,22.6 53.5,23.2 53.6,23.6 53.8,24.1 54,24.6 54,25 54.2,25.5 54.4,26.1 54.5,26.6 
		54.5,27.2 54.7,27.7 54.7,28.3 54.9,28.8 55.1,29.4 55.1,30.1 55.3,31.2 55.4,32.4 55.8,33.7 56,35 56,36.2 56.2,37.5 56.4,39.3 
		56.5,41.1 56.7,42.9 56.9,44.6 57.1,46.4 57.3,48 57.6,51.3 58.2,58 58.3,60.3 58.5,62.9 58.7,65.2 58.9,67.6 59.3,70.1 59.4,72.7 
		59.8,75.2 60,77.9 60.2,79.2 60.3,80.6 60.5,81.9 60.7,83.4 60.9,84.6 61.1,85.9 61.2,87.3 61.4,88.6 61.6,90.1 61.8,91.3 62,92.8 
		62.3,94 62.5,95.5 62.7,96.8 62.9,98.2 63.2,99.5 63.4,100.9 63.6,102.2 64,103.7 64.1,105.1 64.5,106.4 64.7,107.8 65.1,109.3 
		65.2,110.5 65.6,112 66,113.4 66.3,114.7 66.5,116.2 66.9,117.6 67.2,118.9 67.6,120.3 68,121.6 68.3,123 68.7,124.5 69,125.8 
		69.4,127.2 69.8,128.5 70.1,129.9 70.7,131.2 71,132.7 71.4,133.9 71.9,135.4 72.3,136.6 72.8,137.9 73.2,139.4 73.8,140.6 
		74.3,141.9 74.7,143.3 75.2,144.6 75.7,145.9 76.3,147.2 76.8,148.4 77.4,149.7 77.9,151 78.5,152.2 79.2,153.5 79.4,154.2 
		79.7,154.9 80.1,155.7 80.5,156.4 80.8,157.1 81.2,157.8 81.5,158.6 81.9,159.3 82.6,160.6 83.4,161.6 83.7,162.4 83.9,162.9 
		84.3,163.5 84.6,164 85,164.7 85.4,165.3 85.7,165.8 86.1,166.4 86.4,166.9 86.8,167.6 87.2,168.2 87.5,168.7 87.9,169.3 
		88.4,169.8 88.8,170.3 89.2,170.9 89.5,171.4 89.9,172 90.2,172.5 90.8,173.1 91.2,173.6 91.5,174.2 91.9,174.7 92.4,175.2 
		92.8,175.8 93.1,176.3 93.7,176.9 94,177.2 94.6,177.8 95.1,178.3 95.5,178.9 96,179.4 96.6,180 96.9,180.5 97.5,181 98,181.6 
		98.6,182.1 99.3,182.9 99.8,183.4 100.4,183.9 101.1,184.5 101.7,185 102.2,185.6 102.9,186.1 103.5,186.7 104.2,187.2 
		104.7,187.7 105.5,188.1 106,188.7 106.7,189.2 107.3,189.7 108,190.1 108.7,190.6 109.3,191 110,191.6 110.7,191.9 111.3,192.5 
		112,192.8 112.7,193.4 113.4,193.7 114.2,194.1 114.7,194.6 115.4,195 116.2,195.4 116.9,195.7 117.6,196.3 118.3,196.6 119.1,197 
		119.8,197.4 120.5,197.7 121.2,198.1 122,198.4 122.7,198.8 123.4,199.2 124.1,199.3 124.9,199.7 125.6,200.1 126.3,200.4 
		127,200.8 127.8,201 128.5,201.3 129.2,201.7 129.9,201.9 130.8,202.2 131.6,202.4 132.3,202.8 133,203 133.7,203.3 134.5,203.5 
		135.4,203.9 136.1,204.1 136.8,204.2 137.5,204.6 138.5,204.8 139.2,205 139.9,205.3 140.6,205.5 141.5,205.7 142.3,205.9 143,206 
		143.9,206.2 144.6,206.4 145.3,206.8 146.2,207 147,207.1 147.7,207.3 148.6,207.5 149.3,207.7 150.4,207.9 151.3,208 152.4,208.2 
		153.3,208.4 154.4,208.6 155.3,208.8 156.4,208.9 157.3,209.1 158.4,209.3 159.3,209.5 160.4,209.7 161.3,209.9 162.4,209.9 
		163.3,210 164.4,210.2 165.5,210.4 166.9,210.6 168.5,210.8 170.2,210.9 171.8,210.9 173.4,211.1 175.1,211.3 176.7,211.5 
		178.3,211.5 180,211.7 181.6,211.8 183.2,211.8 184.8,212 186.5,212 188.1,212 189.7,212.2 191.4,212.2 193,212.2 194.6,212.2 
		196.1,212.4 197.7,212.4 199.3,212.4 201,212.4 202.6,212.4 204.2,212.4 206,212.4 208,212.4 210,212.4 211.8,212.4 214,212.2 
		216.2,212.2 220.4,212.2 224.7,212 234.7,211.8 240.3,211.7 243.2,211.7 245.9,211.5 248.8,211.5 251.7,211.3 254.8,211.3 
		258.1,211.1 261.3,210.9 264.6,210.8 266.4,210.8 268.2,210.6 270,210.6 271.8,210.4 273.6,210.4 275.5,210.2 277.3,210 279.3,210 
		280.9,209.9 282.5,209.7 284.2,209.7 285.8,209.5 287.4,209.3 289.1,209.1 290.9,208.9 292.5,208.9 294.1,208.8 295.9,208.6 
		297.6,208.4 299.4,208.2 301,208 302.8,207.9 304.5,207.5 306.3,207.3 308.3,207.1 310.3,206.8 312.3,206.6 314.2,206.2 316.2,206 
		318.2,205.7 320.2,205.3 322.2,205 323.8,204.8 325.7,204.4 327.5,204.1 329.1,203.7 330.9,203.3 331.8,203.1 332.7,203 
		333.5,202.8 334.4,202.6 335.3,202.4 336.2,202.1 336.9,201.9 337.8,201.7 338.7,201.5 339.4,201.3 340.3,201 341.1,200.8 
		342,200.6 342.7,200.4 343.6,200.1 344.3,199.9 345.2,199.7 346,199.3 346.9,199.2 347.6,198.8 348.3,198.6 349.2,198.3 
		349.9,198.1 350.7,197.7 351.4,197.4 352.1,197.2 353,196.8 353.8,196.4 354.5,196.3 355.2,195.9 355.9,195.5 356.7,195.2 
		357.4,194.8 358.1,194.5 358.8,194.1 359.4,193.9 360.1,193.4 360.8,193 361.5,192.6 362.1,192.3 362.8,191.9 363.5,191.6 
		364.1,191 364.8,190.6 365.4,190.1 366.1,189.7 366.6,189.2 367.2,188.8 367.9,188.3 368.4,187.7 368.6,187.6 369,187.2 369.3,187 
		369.5,186.7 369.9,186.5 370.1,186.1 370.4,185.9 370.6,185.6 371,185.4 371.1,185 371.5,184.8 371.7,184.5 372.1,184.1 
		372.2,183.9 372.4,183.6 372.8,183.2 373.1,182.7 373.7,182.1 374,181.6 374.4,180.9 375,180.3 375.3,179.8 375.7,179 376,178.5 
		376.4,177.8 376.8,177.2 376.9,176.5 377.3,176 377.7,175.4 377.9,174.7 378.2,174.2 378.4,173.4 378.8,172.9 378.9,172.3 
		379.1,171.6 379.3,171.1 379.7,170.5 379.8,169.8 380,169.3 380.2,168.7 380.4,168.2 380.6,167.4 380.9,166.4 381.1,165.3 
		381.5,164.4 382.4,161.3 383.8,155.3 384.4,153.5 384.9,151.7 385.5,149.7 385.6,148.8 385.8,147.9 386.4,146.1 386.7,144.4 
		387.1,142.6 387.3,141.7 387.5,140.8 387.6,139.9 387.8,138.8 388,137.9 388.2,136.8 388.4,135.9 388.5,134.8 388.7,133.9 
		388.9,132.8 389.1,131.7 389.3,130.7 389.5,129.4 389.6,128.3 389.8,127.2 390,125.9 390.2,124.9 390.4,123.6 390.5,122.5 
		390.5,121.4 390.7,120.3 390.9,119.2 391.1,117.1 391.3,114.9 391.4,113.4 391.6,112.2 391.8,109.3 392,107.1 392.2,104.7 
		392.4,102.6 392.5,100.2 392.7,98 392.9,95.7 393.1,93.5 393.1,91.3 393.3,89.3 393.4,87.2 393.4,85.2 393.6,83 393.6,81.4 
		393.8,79.6 393.8,77.7 393.8,75.9 394,74.7 394,73.4 394,72.3 394,71.8 394,71.2 394,70.5 394,69.6 394,69 393.8,68.5 393.8,68 
		393.8,67.4 393.8,66.9 393.6,66.3 393.6,65.6 393.4,65.1 393.4,64.5 393.3,63.8 393.3,63.4 393.1,63.1 393.1,62.7 392.9,62.5 
		392.9,62.2 392.7,61.8 392.7,61.4 392.5,61.1 392.4,60.7 392.4,60.3 392.2,60 392,59.6 391.8,59.3 391.8,59.1 391.6,58.7 
		391.4,58.3 391.3,58 391.1,57.6 390.9,57.4 390.9,57.1 390.7,56.7 390.5,56.4 390.4,56.2 390.2,55.8 390,55.4 389.8,55.3 
		389.6,54.9 389.3,54.5 389.1,54.4 388.9,54 388.7,53.8 388.5,53.5 388.4,53.1 388,52.9 387.8,52.5 387.6,52.4 387.5,52 387.1,51.8 
		386.9,51.5 386.7,51.3 386.4,51.1 386.2,50.7 386,50.6 385.6,50.2 385.5,50 385.3,49.8 384.7,49.3 384.2,48.9 383.7,48.4 383.1,48 
		382.6,47.5 382,47.1 381.5,46.7 380.9,46.4 380.2,46 379.7,45.7 379.1,45.3 378.4,44.9 377.9,44.6 377.1,44.2 376.6,43.8 
		375.9,43.5 375.1,43.1 374.4,42.9 373.7,42.6 373,42.2 372.4,42 371.7,41.7 371,41.5 370.2,41.3 369.5,40.9 369,40.8 368.2,40.6 
		367.5,40.4 366.8,40 366.1,39.9 365.4,39.7 364.6,39.5 363.9,39.3 363.2,39.1 362.5,39 361.7,38.8 361,38.6 360.3,38.4 359.4,38.2 
		358.6,38.1 357.9,38.1 357.2,37.9 356.3,37.7 355.6,37.5 354.8,37.5 353.9,37.3 353.2,37.1 352.3,37.1 351.6,37 350.9,36.8 
		349.9,36.8 349.2,36.6 348.3,36.6 347.4,36.4 346.7,36.4 345.8,36.2 344.9,36.2 343.2,36.1 341.4,35.9 339.8,35.7 338,35.7 
		336.2,35.5 334.5,35.5 332.5,35.3 330.7,35.3 328.7,35.3 326.9,35.2 324.9,35.2 323.1,35.2 321.1,35.2 319.3,35.2 317.3,35.2 
		315.5,35.2 313.5,35.2 311.7,35.2 309.7,35.2 307.7,35.3 305.9,35.3 303.9,35.3 301.9,35.5 299.7,35.5 297.6,35.5 295.4,35.7 
		293.2,35.7 291,35.9 288.9,36.1 286.7,36.1 282.2,36.2 277.8,36.6 273.8,36.8 258.1,37.7 254.3,37.9 250.6,38.1 246.8,38.2 
		239.6,38.6 232.5,39 225.3,39.3 221.6,39.7 218,39.9 214.2,40 210.4,40.2 206.6,40.4 202.6,40.8 198.8,40.9 197,41.1 195,41.3 
		193.2,41.3 191.2,41.5 189.2,41.7 187.4,41.9 184.1,42.2 182.5,42.2 180.9,42.4 179.2,42.6 177.6,42.8 175.8,42.9 174.2,43.1 
		172.5,43.3 170.9,43.5 169.3,43.7 167.6,43.8 166,44 164.4,44.2 162.7,44.4 161.1,44.6 159.5,44.9 157.8,45.1 156.2,45.3 
		154.6,45.5 152.9,45.8 151.3,46 149.7,46.4 148.1,46.6 146.4,46.9 145,47.1 143.3,47.5 141.7,47.7 140.1,48 138.5,48.4 136.8,48.7 
		135.2,48.9 133.6,49.3 131.9,49.6 130.3,50 128.7,50.4 126.9,50.7 125.2,51.3 123.6,51.6 122,52 120.3,52.4 118.7,52.9 117.1,53.3 
		115.4,53.6 113.8,54.2 112.2,54.5 110.5,55.1 108.9,55.4 108.7,55.6 108.5,55.8 108.4,55.8 108.4,56 108.2,56 108,56.2 107.8,56.2 
		107.6,56.4 107.6,56.4 107.5,56.5 107.3,56.5 107.3,56.7 107.1,56.7 107.1,56.9 106.9,57.1 106.9,57.1 106.7,57.3 106.7,57.3 
		106.6,57.4 106.6,57.4 106.4,57.6 106.4,57.6 106.4,57.8 106.2,58 106.2,58 106.2,58.2 106.2,58.2 106,58.3 106,58.3 106,58.5 
		106,58.5 106,58.7 106,58.9 106,58.9 106,59.1 105.8,59.1 105.8,59.3 105.8,59.3 105.8,59.4 105.8,59.4 105.8,59.6 105.8,59.6 
		105.8,59.8 105.8,59.8 106,60 106,60.2 106,60.2 106,60.3 106,60.3 106,60.5 106,60.5 106,60.7 106,60.7 106.2,60.7 106.2,60.9 
		106.2,61.1 106.4,61.2 106.4,61.4 106.4,61.6 106.6,61.8 106.6,62 106.7,62 106.7,62.2 106.9,62.3 106.9,62.3 106.9,62.3 
		106.9,62.5 107.1,62.5 107.1,62.5 107.1,62.7 107.1,62.7 107.3,62.7 107.3,62.9 107.3,62.9 107.5,62.9 107.5,62.9 107.5,63.1 
		107.6,63.1 107.6,63.1 107.6,63.2 107.8,63.2 107.8,63.2 107.8,63.2 108,63.4 108,63.4 108,63.4 108.2,63.4 108.2,63.4 108.4,63.6 
		108.4,63.6 108.5,63.6 108.7,63.8 108.9,63.8 109.1,63.8 109.3,64 109.5,64 109.6,64 110,64.1 110.2,64.1 110.4,64.1 110.9,64.3 
		111.6,64.3 113.8,64 116,63.6 118.2,63.1 120.3,62.7 122.5,62.3 124.7,62 126.9,61.6 129,61.2 131.2,60.9 133.2,60.7 135.4,60.3 
		137.5,60 139.7,59.8 141.9,59.4 144.1,59.3 146.2,59.1 148.4,58.7 150.6,58.5 152.6,58.3 154.8,58 156.9,57.8 159.1,57.6 
		161.3,57.4 163.5,57.3 165.6,57.1 167.8,56.9 170,56.7 172.2,56.5 174.3,56.4 176.5,56.4 178.7,56.2 180.9,56 183.2,55.8 
		185.4,55.8 187.6,55.6 189.7,55.4 194.3,55.3 198.8,55.1 203.3,54.9 208,54.5 217.3,54.2 226.9,53.8 231.8,53.6 236.7,53.5 
		241.8,53.1 246.6,52.9 251.9,52.5 257,52.4 262.2,52 267.5,51.8 278,51.1 283.3,50.9 288.5,50.6 291.2,50.4 293.9,50.4 296.5,50.2 
		299.2,50 301.7,50 304.5,49.8 307,49.6 309.5,49.6 312.3,49.6 314.8,49.5 317.3,49.5 319.9,49.5 322.2,49.5 324.8,49.5 327.3,49.5 
		328.4,49.5 329.6,49.5 330.7,49.5 332,49.5 333.3,49.5 334.4,49.5 335.6,49.5 336.7,49.6 337.8,49.6 339.1,49.6 340.2,49.6 
		341.2,49.8 342.3,49.8 343.4,50 344.5,50 345.6,50 346.7,50.2 347.8,50.2 348.9,50.4 349.9,50.4 350.9,50.6 351.9,50.7 353,50.7 
		353.9,50.9 355,51.1 355.9,51.3 356.8,51.3 357.9,51.5 358.8,51.6 359.7,51.8 360.6,52 361.5,52.2 362.5,52.4 363.2,52.5 
		364.1,52.7 365,53.1 365.7,53.3 366.6,53.5 367.3,53.6 368.2,54 369,54.2 369.7,54.4 370.4,54.7 371.1,54.9 371.9,55.3 372.6,55.6 
		373.1,55.8 373.9,56.2 374.6,56.5 375.1,56.7 375.5,56.9 375.7,57.1 376,57.3 376.2,57.4 376.6,57.6 376.9,57.8 377.1,58 
		377.5,58.2 377.7,58.3 378,58.5 378.2,58.7 378.4,58.9 378.8,59.1 378.9,59.3 379.1,59.6 379.5,59.8 379.7,60 379.8,60.2 380,60.3 
		380.4,60.5 380.6,60.7 380.8,61.1 380.9,61.2 381.1,61.4 381.3,61.6 381.5,61.8 381.7,62.2 381.8,62.3 382,62.5 382.2,62.9 
		382.4,63.1 382.6,63.2 382.7,63.6 382.7,63.8 382.9,64 383.1,64.3 383.3,64.5 383.3,64.7 383.5,65.1 383.7,65.2 383.7,65.6 
		383.8,65.8 383.8,66.1 384,66.3 384,66.7 384.2,66.9 384.2,67.2 384.4,67.4 384.4,68 384.6,68.5 384.6,68.9 384.6,69.4 384.7,69.9 
		384.7,70.5 384.7,71 384.7,71.6 384.7,72.1 384.7,72.7 384.7,73.2 384.7,73.9 384.7,75.2 384.7,76.7 384.6,78.6 384.4,81 
		384.4,83.5 384.2,86.1 384,88.8 383.8,91.7 383.7,94.6 383.5,96 383.5,97.5 383.3,99.1 383.3,100.6 383.1,102 382.9,103.7 
		382.7,105.1 382.6,106.6 382.6,108.2 382.4,109.6 382.2,111.1 382,112.7 381.8,114.2 381.7,115.6 381.5,117.1 381.3,118.3 
		381.1,119.8 380.9,121.1 380.8,122 380.6,122.7 380.4,123.6 380.4,124.3 380.2,125.2 380,125.9 379.8,126.7 379.7,127.4 
		379.7,128.1 379.5,128.8 379.3,129.6 379.1,130.3 378.9,131 378.8,131.7 378.4,133 378.2,134.5 377.9,135.7 377.5,137 377.1,138.3 
		376.8,139.4 376.4,140.6 376,141.7 375.5,143 375.1,144.1 374.8,145.2 374.4,146.2 374,147.2 373.5,148.2 373.1,149.3 372.8,150.2 
		372.2,151.3 371.9,152.2 371.5,153.1 371,154.2 370.6,155.1 370.1,156 369.7,156.9 368.8,158.9 368.1,160.4 367.3,161.8 367,162.6 
		366.6,163.3 366.3,163.8 365.9,164.5 365.5,165.3 365.2,166 364.8,166.7 364.4,167.4 363.9,168.2 363.5,168.7 363.2,169.4 
		362.8,170.2 362.3,170.7 361.9,171.4 361.4,172.2 361,172.7 360.5,173.4 359.9,174 359.6,174.5 359.2,174.9 359,175.2 358.6,175.4 
		358.5,175.8 358.3,176.1 357.9,176.3 357.7,176.7 357.4,176.9 357,177.2 356.8,177.6 356.5,177.8 356.3,178.1 355.9,178.3 
		355.6,178.5 355.4,178.9 355,179 354.7,179.4 354.5,179.6 354.1,179.8 353.8,180.1 353.6,180.3 353.2,180.5 352.8,180.7 352.5,181 
		352.3,181.2 351.9,181.4 351.6,181.6 351.2,181.8 350.9,182.1 350.5,182.3 350.1,182.5 349.8,182.7 349.2,183 348.5,183.4 
		347.8,183.8 346.9,184.1 346.1,184.5 345.4,184.8 344.7,185.2 343.8,185.4 343.1,185.8 342.2,186.1 341.4,186.3 340.5,186.7 
		339.8,186.8 338.9,187.2 338,187.4 337.1,187.6 336.2,187.9 335.4,188.1 334.5,188.3 333.6,188.5 332.7,188.7 331.6,188.8 
		330.7,189.2 329.8,189.4 328.9,189.6 328,189.6 326.9,189.7 326,189.9 325.1,190.1 324,190.3 323.1,190.5 322,190.5 321.1,190.6 
		320,190.8 319.1,191 318,191 317,191.2 316.1,191.2 315,191.4 313,191.6 311,191.7 308.8,191.9 306.8,192.1 304.6,192.3 
		302.6,192.5 300.5,192.5 296.3,192.8 292.1,193 288,193.4 283.8,193.5 279.8,193.7 271.5,194.3 254.8,195.2 246.3,195.5 
		241.9,195.9 237.6,196.1 233.1,196.4 228.7,196.6 220.9,197.2 217.1,197.4 215.1,197.5 213.1,197.5 211.3,197.7 209.3,197.7 
		207.3,197.9 205.3,197.9 203.3,198.1 201.3,198.1 199.3,198.1 197.4,198.3 195.4,198.3 193.4,198.3 191.4,198.3 189.4,198.3 
		187.4,198.3 185.4,198.3 184.3,198.3 183.4,198.3 182.3,198.1 181.4,198.1 180.3,198.1 179.4,198.1 178.3,197.9 177.4,197.9 
		176.3,197.9 175.4,197.9 174.3,197.7 173.4,197.7 172.3,197.5 171.4,197.5 170.5,197.4 169.4,197.4 168.5,197.2 167.4,197.2 
		166.5,197 165.6,197 164.5,196.8 163.6,196.6 162.7,196.4 161.6,196.4 160.7,196.3 159.8,196.1 158.7,195.9 157.8,195.7 
		156.9,195.5 155.8,195.4 154.9,195.2 154,195 153.1,194.8 152.2,194.6 151.1,194.5 150.2,194.1 149.3,193.9 148.4,193.7 
		147.5,193.4 146.6,193.2 145.7,193 144.8,192.6 143.9,192.3 143,192.1 142.1,191.7 141.2,191.6 140.3,191.2 139.4,190.8 
		138.5,190.5 137.5,190.1 136.6,189.7 135.7,189.4 135,189 134.1,188.7 133.2,188.3 132.3,187.9 131.6,187.6 130.7,187 129.8,186.7 
		129,186.3 128.1,185.8 127.2,185.4 126.5,184.8 125.6,184.5 124.9,183.9 124,183.4 123.2,182.9 122.5,182.3 121.6,181.9 
		120.9,181.4 120.1,180.7 119.2,180.1 118.5,179.6 117.8,179 117.1,178.5 116.2,177.8 115.4,177.2 114.7,176.5 114,176 113.3,175.2 
		112.5,174.7 111.8,174 111.1,173.2 110.5,172.5 109.8,172 109.3,171.4 108.7,170.9 108.2,170.2 107.6,169.6 107.3,169.1 
		106.7,168.4 106.2,167.8 105.6,167.1 105.1,166.5 104.6,165.8 104,165.3 103.7,164.5 103.1,163.8 102.6,163.1 102,162.6 
		101.7,161.8 101.1,161.1 100.6,160.4 100.2,159.7 99.7,158.9 99.3,158.4 98.8,157.7 98.2,156.9 97.9,156 97.3,155.3 96.9,154.6 
		96.6,153.9 96,153.1 95.7,152.4 95.1,151.5 94.8,150.8 94.4,150 93.9,149.3 93.5,148.4 93.1,147.7 92.6,147 92.2,146.1 91.9,145.3 
		91.5,144.4 91.2,143.7 90.6,142.8 90.2,142.1 89.9,141.2 89.5,140.4 89.2,139.5 88.8,138.6 88.4,137.9 88.1,137 87.7,136.1 
		87.3,135.4 87,134.5 86.6,133.6 86.3,132.7 85.9,131.9 85.5,131 85.2,130.1 85,129.2 84.6,128.3 84.3,127.6 83.9,126.7 83.5,125.8 
		83,124 82.5,122.1 81.7,120.3 81.2,118.5 80.6,116.9 80.1,115.1 79.6,113.3 79,111.4 78.5,109.5 77.9,107.6 77.4,105.8 77,104 
		76.5,102.2 75.9,100.4 75.6,98.6 75.2,96.8 74.7,95 74.3,93.1 73.9,91.3 73.6,89.5 73,87.7 72.7,85.9 72.5,84.1 72.1,82.5 
		71.8,80.6 71.4,78.8 71,77 70.9,75.4 70.5,73.6 70.3,71.9 69.9,70.1 69.8,68.5 69.4,66.9 69.2,65.6 69,64.3 68.7,61.8 68.5,59.4 
		68.1,56.9 67.8,54.5 67.6,52.2 66.9,45.5 66.5,43.3 66.3,41.1 66,39.1 65.8,37 65.6,36.1 65.4,35 65.2,34.1 65.2,33.2 65.1,32.3 
		64.9,31.2 64.7,30.3 64.5,29.4 64.3,28.4 64.1,27.5 64,26.6 63.8,25.9 63.6,25 63.4,24.1 63.2,23.4 63.1,22.5 62.9,21.7 62.5,21 
		62.3,20.3 62.2,19.4 61.8,18.7 61.6,17.9 61.2,17.2 61.1,16.7 60.7,15.9 60.3,15.2 60.3,14.9 60.2,14.7 60,14.3 59.8,13.9 
		59.6,13.6 59.4,13.4 59.3,13 59.1,12.7 58.9,12.5 58.7,12.1 58.5,12 58.3,11.6 58.2,11.2 58,11 57.8,10.7 57.6,10.5 57.4,10.1 
		57.3,10 57.1,9.8 56.7,9.4 56.5,9.2 56.4,9.1 56.2,8.7 56,8.5 55.6,8.3 55.4,8 55.3,7.8 54.9,7.6 54.7,7.4 54.5,7.2 54.2,6.9 
		54,6.7 53.6,6.5 53.5,6.3 53.3,6.2 52.9,6 52.7,5.8 52.4,5.6 52.2,5.4 51.8,5.2 51.5,5.1 51.3,4.9 50.9,4.7 50.7,4.5 50.4,4.5 
		50,4.3 49.8,4.2 49.5,4 49.1,3.8 48.9,3.8 48.6,3.6 48.2,3.4 47.8,3.3 47.7,3.3 46.9,2.9 46.2,2.7 45.5,2.5 44.9,2.3 44.2,2.2 
		43.5,2 42.8,1.8 42,1.6 41.1,1.4 40.4,1.3 39.7,1.1 39,1.1 38.1,0.9 37.3,0.9 36.4,0.7 35.7,0.7 34.8,0.5 33.9,0.5 33.2,0.5 
		32.3,0.4 31.3,0.4 30.4,0.4 29.5,0.4 28.6,0.4 27.7,0.4 26.8,0.4 25.9,0.4 25,0.4 24.1,0.4 23,0.4 22.1,0.4 21.2,0.4 20.1,0.4 
		19.2,0.5 18.1,0.5 16.1,0.5 14.1,0.7 12.1,0.9 10,1.1 7.8,1.3 5.6,1.4 	"/>
</g>
</svg>
