<?xml version="1.0" encoding="utf-8"?>
<!-- Generator: Adobe Illustrator 21.1.0, SVG Export Plug-In . SVG Version: 6.00 Build 0)  -->
<svg version="1.1" id="Слой_1" xmlns="http://www.w3.org/2000/svg" xmlns:xlink="http://www.w3.org/1999/xlink" x="0px" y="0px"
	 viewBox="0 0 467.3 626" style="enable-background:new 0 0 467.3 626;" xml:space="preserve">
<style type="text/css">
	.st0{fill:#ED6720;}
	.st1{fill:#FFFFFF;}
	.st2{fill:none;stroke:#FFFFFF;stroke-width:0.7087;stroke-linecap:round;stroke-linejoin:round;stroke-miterlimit:10;}
	.st3{fill:none;stroke:#ED6720;stroke-width:0.7087;stroke-linecap:round;stroke-linejoin:round;stroke-miterlimit:10;}
</style>
<polygon class="st0" points="307.8,169.7 307.8,170.4 307.8,171.2 307.8,172 308,172.5 308,172.7 308,173.1 308.1,173.3 
	308.1,173.7 308.1,173.9 308.3,174.1 308.3,174.4 308.3,174.6 308.5,174.8 308.5,175 308.5,175.2 308.7,175.4 308.7,175.6 
	308.9,175.8 308.9,176 309.1,176.2 309.1,176.2 309.1,176.4 309.3,176.4 309.3,176.4 309.3,176.5 309.3,176.5 309.5,176.7 
	309.5,176.7 309.5,176.7 309.7,176.9 309.7,176.9 309.7,176.9 309.7,176.9 309.9,177.1 309.9,177.1 309.9,177.1 310.1,177.3 
	310.1,177.3 310.1,177.3 310.3,177.3 310.3,177.3 310.3,177.5 310.4,177.5 310.4,177.5 310.4,177.5 310.6,177.5 310.6,177.7 
	310.6,177.7 310.8,177.7 310.8,177.7 310.8,177.7 311,177.9 311,177.9 311.2,177.9 311.4,177.9 311.4,177.9 311.6,178.1 
	311.8,178.1 312,178.1 312,178.1 312.2,178.1 312.4,178.1 312.6,178.1 312.7,178.3 312.9,178.3 313.3,178.3 313.9,178.3 
	315.2,178.3 315.4,178.3 315.8,178.3 316.2,178.3 316.4,178.3 316.6,178.1 316.8,178.1 317,178.1 317,178.1 317.1,178.1 
	317.3,178.1 317.5,177.9 317.7,177.9 317.7,177.9 317.9,177.9 317.9,177.9 317.9,177.7 318.1,177.7 318.1,177.7 318.3,177.7 
	318.3,177.7 318.3,177.5 318.5,177.5 318.5,177.5 318.7,177.5 318.7,177.5 318.7,177.3 318.9,177.3 318.9,177.3 319.1,177.1 
	319.1,177.1 319.1,177.1 319.3,177.1 319.3,176.9 319.3,176.9 319.4,176.9 319.4,176.7 319.6,176.7 319.6,176.5 319.6,176.5 
	319.8,176.5 319.8,176.4 319.8,176.4 320,176.2 320,176.2 320,176 320.2,176 320.2,175.8 320.4,175.6 320.6,175.2 320.6,175 
	320.8,174.8 320.8,174.6 321,174.3 321,174.1 321.2,173.7 321.4,173.5 321.4,173.1 321.6,172.7 321.6,172.3 321.6,172 321.7,171.2 
	321.9,170.4 322.1,169.5 322.1,168.5 322.3,167.5 322.3,166.4 322.3,165.2 322.5,161.6 322.5,154.5 322.5,152.8 322.5,150.9 
	322.5,149.2 322.5,147.4 322.7,145.5 322.7,143.8 322.7,142.1 322.9,140.4 323.1,138.6 323.3,136.7 323.3,135.6 323.5,134.2 
	323.7,132.9 323.9,131.7 324,130.4 324.2,129.1 324.4,127.9 324.6,126.6 324.8,125.4 325,124.1 325.4,122.7 325.6,121.6 
	326.2,119.1 326.7,116.6 327.3,113.9 327.9,111.4 330.4,101.3 330.9,98.8 331.5,96.1 332.1,93.6 332.7,90.9 332.9,89.6 333.2,88.5 
	333.4,87.1 333.6,85.8 333.8,84.4 334,83.1 334.4,81.7 334.6,80.4 334.8,79.1 334.8,77.7 335,76.2 335.2,74.9 335.3,73.5 
	335.3,72.2 335.5,70.6 335.5,69.3 335.7,68 335.7,66.4 335.7,65.1 335.7,63.6 335.7,62.2 335.7,60.7 335.7,59.1 335.7,57.8 
	335.5,56.3 335.5,54.7 335.3,53.2 335.2,51.7 335,50.3 334.8,49 334.6,47.7 334.4,46.1 334.2,44.8 334,43.4 333.6,42.1 333.4,40.6 
	333,39.2 332.9,37.9 332.5,36.6 332.1,35.2 331.7,33.9 331.3,32.3 330.7,31.2 330.4,29.8 330,28.5 329.4,27.2 328.8,25.8 
	328.4,24.7 327.9,23.5 327.3,22.2 326.9,21.6 326.7,21 326.3,20.5 326.2,19.9 325.8,19.3 325.4,18.7 325.2,18.2 324.8,17.8 
	324.4,17.2 324,16.6 323.9,16.1 323.5,15.7 323.1,15.1 322.7,14.5 322.3,14.1 321.9,13.6 321.6,13.2 321.2,12.8 320.8,12.2 
	320.4,11.8 320,11.5 319.6,11.1 319.3,10.7 318.9,10.3 318.5,9.9 318.1,9.5 317.7,9.2 317.3,8.8 317,8.6 316.6,8.2 316.2,7.8 
	315.8,7.6 315.2,7.2 314.9,7.1 314.5,6.7 314.1,6.5 313.5,6.1 313.1,5.9 312.7,5.5 312.2,5.3 311.8,5.1 311.4,5 310.8,4.6 
	310.4,4.4 309.9,4.2 309.5,4 308.9,3.8 308.5,3.6 307.6,3.2 306.6,2.8 305.5,2.7 304.5,2.3 303.6,2.1 302.6,1.7 301.4,1.5 
	300.5,1.3 299.3,1.1 298.4,0.9 297.2,0.9 296.1,0.7 295.1,0.5 294,0.5 292.8,0.4 291.7,0.4 290.5,0.4 289.4,0.4 288.2,0.4 
	287.1,0.4 285.9,0.4 284.8,0.4 283.6,0.4 282.5,0.4 281.3,0.4 280.2,0.5 279,0.5 277.9,0.7 275.4,0.7 273.1,1.1 270.8,1.3 
	261.2,2.1 258.9,2.3 256.6,2.5 254.1,2.7 253,2.8 251.8,2.8 249.9,3 247.8,3 245.9,3 243.8,3 241.9,3 240,3 238.1,3 235.9,3 
	228.3,3 226.4,3 224.5,3 222.5,3 220.6,3 218.7,3 216.8,3.2 214.9,3.2 213,3.4 212,3.4 211.1,3.4 210.1,3.6 209.1,3.6 208.2,3.8 
	207.2,3.8 206.3,4 205.3,4.2 204.3,4.2 203.4,4.4 202.4,4.6 201.3,4.8 200.3,5 199.4,5.1 198.4,5.3 197.5,5.5 196.5,5.7 195.3,5.9 
	194.4,6.3 193.4,6.5 192.3,6.9 191.3,7.1 190.4,7.4 189.2,7.8 188.1,8.2 186.7,8.6 185.4,9.2 184.2,9.5 182.9,10.1 181.6,10.7 
	180.4,11.3 179.1,11.8 177.9,12.4 176.6,13 175.4,13.6 174.3,14.3 172.9,15.1 172.4,15.3 171.8,15.7 171.2,16.1 170.6,16.4 
	170.1,16.8 169.7,17.2 169.1,17.6 168.5,18 168,18.4 167.4,18.9 167,19.3 166.4,19.7 165.9,20.1 165.5,20.5 164.9,21 164.5,21.4 
	163.9,21.8 163.6,22.2 163,22.8 162.6,23.1 162.2,23.7 161.8,24.1 161.3,24.7 160.9,25.1 160.5,25.6 160.1,26 159.7,26.6 159.5,27 
	159.1,27.5 158.8,28.1 158.4,28.7 158.2,29.1 157.8,29.7 157.6,30.2 157.4,30.8 157,31.2 156.9,31.8 156.7,32.3 156.5,32.7 
	156.3,33.3 156.3,33.7 156.1,34.1 155.9,34.4 155.9,35 155.7,35.4 155.7,35.8 155.5,36.7 155.3,37.5 155.1,38.5 155.1,39.4 
	154.9,40.4 154.9,41.1 154.9,42.1 154.9,43.1 154.9,44 154.9,45 154.9,45.9 154.9,46.9 155.1,47.9 155.1,48.8 155.3,49.8 
	155.3,50.7 155.5,52.6 155.9,54.6 156.7,60.5 156.9,62.2 157,64.1 157.2,65.9 157.2,67.8 157.4,69.5 157.6,71.2 157.6,72.9 
	157.6,74.7 157.8,76.6 157.8,78.1 157.8,79.8 157.8,81.6 157.8,83.3 157.8,85 157.8,86.7 157.6,88.3 157.6,90 157.4,93.2 
	157.4,96.5 157,103.2 156.9,106.5 156.9,109.7 156.7,111.4 156.7,113 156.7,114.7 156.7,116.4 156.7,118.1 156.7,120.1 156.7,122 
	156.7,123.9 156.7,125.8 156.7,127.7 156.9,129.6 156.9,131.5 157,135.4 157.2,139.2 157.6,150.7 157.8,154.7 158,158.5 158,160.5 
	158.2,162.4 158.2,164.5 158.2,166.4 158.2,168.3 158.2,170.2 158.2,172.1 158.2,174.1 158.2,176 158.2,177.9 158.2,178.1 
	158.2,178.5 158.2,178.7 158.2,178.8 158.2,179 158.2,179.2 158.2,179.4 158.2,179.6 158.2,179.8 158.2,180 158.4,180.2 
	158.4,180.2 158.4,180.4 158.4,180.6 158.6,180.8 158.6,180.8 158.6,180.8 158.6,181 158.6,181 158.6,181 158.6,181.1 158.8,181.1 
	158.8,181.1 158.8,181.3 158.8,181.3 158.8,181.3 159,181.3 159,181.5 159,181.5 159,181.5 159,181.5 159.1,181.7 159.1,181.7 
	159.1,181.7 159.1,181.7 159.1,181.9 159.3,181.9 159.3,181.9 159.3,181.9 159.3,182.1 159.5,182.1 159.5,182.1 159.5,182.1 
	159.5,182.1 159.7,182.1 159.7,182.3 159.7,182.3 159.7,182.3 159.9,182.3 159.9,182.3 159.9,182.3 160.1,182.5 160.1,182.5 
	160.1,182.5 160.3,182.5 160.5,182.5 160.5,182.7 160.7,182.7 160.7,182.7 160.9,182.7 161.1,182.7 161.1,182.7 161.3,182.9 
	161.4,182.9 161.6,182.9 161.8,182.9 162,182.9 162.4,182.9 163,182.9 163.6,182.9 164.9,182.9 165.7,182.9 166,182.9 166.2,182.9 
	166.6,182.9 167,182.9 167.4,182.9 167.4,182.7 167.6,182.7 167.8,182.7 168,182.7 168.2,182.7 168.3,182.5 168.5,182.5 
	168.5,182.5 168.7,182.5 168.9,182.3 169.1,182.3 169.3,182.1 169.3,182.1 169.5,182.1 169.5,181.9 169.7,181.9 169.7,181.9 
	169.9,181.9 169.9,181.7 169.9,181.7 170.1,181.7 170.1,181.7 170.1,181.5 170.3,181.5 170.3,181.5 170.3,181.3 170.4,181.3 
	170.4,181.3 170.4,181.1 170.6,181.1 170.6,181.1 170.6,181 170.6,181 170.8,181 170.8,180.8 170.8,180.8 171,180.6 171,180.6 
	171,180.6 171,180.4 171.2,180.4 171.2,180.2 171.2,180.2 171.2,180 171.4,179.8 171.4,179.6 171.6,179.4 171.6,179.2 171.8,179 
	171.8,178.8 171.8,178.7 172,178.3 172,178.1 172,177.9 172,177.5 172.2,177.3 172.2,176.9 172.2,176.5 172.2,176.4 172.2,176 
	172.2,175.6 172.2,174.4 172.2,173.1 172.2,170.4 172,167.7 172,165.2 172,163.3 171.8,161.4 171.8,159.5 171.6,157.6 171.4,155.3 
	171.4,153 170.4,139.4 170.3,135.9 170.1,132.3 169.9,130.6 169.9,128.7 169.7,126.9 169.7,125 169.7,122.7 169.7,120.4 
	169.7,119.3 169.7,117.9 169.7,116.8 169.7,115.6 169.7,114.1 169.7,112.4 169.9,110.9 169.9,109.1 170.1,107.6 170.1,105.9 
	170.4,102.6 170.6,98.4 171.4,90 171.6,87.9 171.8,85.8 171.8,83.9 172,81.9 172.2,80 172.2,78.1 172.4,76.2 172.4,74.3 172.4,72.4 
	172.6,70.4 172.6,68.5 172.6,66.4 172.6,64.3 172.6,62.4 172.6,60.3 172.2,53.2 172.2,51.9 172.2,50.5 172.2,49.2 172.2,48.4 
	172.2,47.5 172.2,46.7 172.4,45.9 172.4,45.4 172.4,44.6 172.4,43.8 172.6,43.3 172.6,42.7 172.7,42.1 172.7,41.7 172.9,41.1 
	172.9,40.8 173.1,40.4 173.1,40.2 173.1,40 173.3,39.8 173.3,39.8 173.3,39.6 173.5,39.4 173.5,39.2 173.7,39 173.7,38.8 
	173.9,38.7 173.9,38.5 174.1,38.3 174.3,38.3 174.3,38.1 174.5,37.9 174.5,37.7 174.7,37.5 174.9,37.3 175,37.3 175.2,37.1 
	175.4,36.9 175.6,36.7 175.8,36.6 176,36.4 176.2,36.2 176.6,36 177,35.6 177.3,35.4 177.5,35.2 178.1,34.8 178.9,34.4 179.4,34.1 
	180.2,33.7 181,33.3 181.9,32.9 182.7,32.5 183.7,32.3 184.4,32 185.4,31.6 186.3,31.4 187.3,31 188.3,30.8 189.4,30.4 190.4,30.2 
	191.5,29.8 192.7,29.7 194,29.5 195.2,29.3 196.1,29.1 196.9,28.9 197.8,28.9 198.6,28.7 199.6,28.5 200.3,28.5 201.3,28.3 
	202,28.3 203,28.3 203.8,28.1 205.7,28.1 207.4,27.9 209.1,27.9 211.1,27.9 212.8,27.7 214.7,27.7 216.4,27.7 218.1,27.7 
	220.1,27.9 223.7,27.9 230,28.1 233.1,28.3 236.3,28.3 238.8,28.3 241.3,28.3 243.8,28.3 246.1,28.3 248.6,28.3 249.7,28.1 
	251.1,28.1 252.2,28.1 253.4,27.9 254.7,27.9 255.9,27.9 257.2,27.7 258.4,27.7 261,27.4 264.3,27.2 274.3,26.2 276.5,26 
	278.8,25.8 281.1,25.6 282.3,25.4 283.6,25.4 284.6,25.4 285.7,25.3 286.7,25.3 287.8,25.3 288.8,25.3 289.8,25.3 290.7,25.3 
	291.7,25.3 292.6,25.3 293.4,25.3 294.4,25.4 295.3,25.4 296.1,25.4 296.7,25.6 297.4,25.6 298.2,25.8 299,26 299.5,26 300.1,26.2 
	300.9,26.4 301.3,26.6 301.8,26.6 302.2,26.8 302.6,27 302.8,27 303.2,27.2 303.4,27.4 303.6,27.4 303.7,27.5 303.9,27.5 
	304.1,27.7 304.3,27.7 304.3,27.9 304.5,27.9 304.7,28.1 304.7,28.1 304.9,28.3 305.1,28.3 305.1,28.5 305.3,28.5 305.5,28.7 
	305.5,28.7 305.7,28.9 305.7,28.9 305.9,29.1 305.9,29.3 306,29.3 306.2,29.5 306.2,29.7 306.4,29.7 306.4,29.8 306.6,30 
	306.8,30.2 306.8,30.4 307,30.6 307.2,31 307.4,31.2 307.4,31.4 307.8,32 308,32.5 308.1,32.9 308.3,33.3 308.5,33.9 308.7,34.6 
	309.1,35.4 309.3,36.2 309.5,37.1 309.9,38.1 310.1,39 310.3,40 310.4,41 310.6,41.9 310.8,43.1 311,44 311.2,45.2 311.4,46.3 
	311.4,47.5 311.6,48.6 311.6,49.8 311.8,50.9 312,52.1 312,53.2 312,54.4 312.2,56.3 312.2,58.2 312.2,59.5 312.4,60.9 312.4,62.2 
	312.4,63.6 312.4,64.9 312.4,66 312.4,67.4 312.4,68.7 312.2,70.1 312.2,71.4 312.2,72.6 312.2,73.9 312,76.6 311.8,79.1 
	311.6,81.7 311.4,84.2 311,87.3 310.8,90.2 310.4,93.2 310.3,96.1 309.3,104.5 308.9,108.8 308.7,110.9 308.5,112.8 308.1,116 
	308,119.3 307.8,120.8 307.8,122.5 307.6,124.1 307.6,125.6 307.4,127.1 307.4,128.5 307.4,129.8 307.2,131.4 307.2,132.7 
	307.2,134.2 307.2,135.6 307.2,136.9 307.2,138.4 307.2,140 307.2,141.3 307.2,142.8 307.2,145.7 307.4,148.8 307.6,158.5 
	307.6,160.3 307.8,162 307.8,164.3 307.8,166.6 307.8,168.1 "/>
<polygon class="st1" points="156.7,116.8 153.2,116.6 148.8,116.4 144.6,116.2 140.4,115.8 136.2,115.6 131.8,115.3 127.5,115.1 
	123.3,114.7 119.1,114.3 114.7,113.9 110.5,113.5 102.1,112.8 85,111.2 76.4,110.3 72.2,109.9 68,109.5 63.8,109.3 59.4,108.9 
	55.2,108.6 50.9,108.2 46.7,108 42.3,107.6 38.1,107.4 33.9,107 29.7,106.8 25.3,106.6 23.2,106.6 21.1,106.5 19,106.5 16.5,106.5 
	16.3,106.5 15.9,106.5 15.5,106.5 15.3,106.5 14.9,106.5 14.6,106.5 14.4,106.6 14,106.6 13.6,106.6 13.4,106.6 13,106.8 
	12.6,106.8 12.3,107 12.1,107 11.7,107.2 11.3,107.2 11.1,107.4 10.7,107.6 10.3,107.8 10.2,107.8 9.8,108 9.4,108.2 9.2,108.4 
	8.8,108.6 8.6,108.8 8.2,108.9 8,109.1 7.7,109.3 7.5,109.5 7.1,109.7 6.9,110.1 6.5,110.3 6.3,110.5 6.1,110.7 5.7,111.1 
	5.6,111.2 5.4,111.4 5.2,111.8 5,112 4.8,112.4 4.4,112.6 4.2,113 4,113.2 4,113.5 3.8,113.7 3.6,114.1 3.4,114.5 3.3,114.7 
	3.1,115.1 3.1,115.3 2.9,115.6 2.7,116 2.7,116.2 2.5,116.6 2.5,117 2.3,117.2 2.3,117.6 2.3,117.9 2.1,118.1 2.1,118.5 2.1,118.9 
	1.9,119.1 1.9,119.5 1.7,122.3 1.3,125.4 1.1,128.5 1,131.4 0.8,134.4 0.6,137.3 0.4,140.2 0.4,143.2 0.2,146.1 0.2,149 0.2,151.8 
	0,154.7 0,157.6 0.2,160.5 0.2,163.3 0.2,166.2 0.4,169.1 0.4,172 0.6,174.8 0.6,177.5 0.8,180.4 1,183.3 1.1,185.9 1.3,188.8 
	1.5,191.5 1.7,194.4 2.1,197 2.3,199.7 2.5,202.6 2.9,205.3 3.1,208 3.4,210.6 3.6,213.3 4,216 4.4,218.9 4.6,221.6 5.4,226.9 
	6.1,232.1 6.7,237.5 7.5,242.6 9.6,258.3 10.3,263.5 10.9,268.7 11.5,273.8 12.3,278.8 12.4,281.5 12.8,284 13,286.5 13.4,289 
	13.6,291.5 13.8,293.9 14,296.1 14.2,298 14.6,302 14.7,306 15.1,309.8 15.3,313.9 15.5,317.9 15.7,321.7 15.9,325.7 16.1,329.6 
	16.3,333.6 16.3,337.4 16.5,341.4 16.5,345.3 16.7,349.3 16.7,353.3 16.7,357.1 16.7,361.2 16.7,365.2 16.7,369.2 16.7,373.2 
	16.7,381.1 16.5,405.8 16.5,414 16.5,422.5 16.5,427.1 16.5,431.6 16.7,436.2 16.7,441 16.7,445.6 16.9,447.9 16.9,450.4 
	16.9,452.7 17,455 17,457.3 17.2,459.8 17.2,462.1 17.4,464.4 17.6,466.7 17.6,469 17.8,471.5 18,473.8 18.2,476.1 18.4,478.4 
	18.6,480.7 18.8,483 19,485.5 19.2,487.8 19.5,490.1 19.7,492.4 20.1,494.5 20.3,496.8 20.7,499.1 21.1,501.4 21.4,503.7 
	21.8,505.8 22.2,508.1 22.6,510.4 23,512.5 23.6,514.6 23.9,516.9 24.5,519 25.1,521.1 25.7,523.4 26.2,525.5 26.8,527.6 
	27.4,529.5 28,531.6 28.3,532.8 28.7,533.7 29.1,534.7 29.3,535.8 29.7,536.8 30.1,537.7 30.5,538.7 30.8,539.9 31.2,540.8 
	31.6,541.8 32,542.7 32.4,543.7 32.7,544.6 33.3,545.6 33.7,546.6 34.1,547.5 34.5,548.5 35,549.4 35.4,550.4 35.8,551.3 
	36.4,552.3 36.8,553.3 37.3,554 37.7,555 38.3,555.9 38.9,556.7 39.3,557.7 39.8,558.6 40.4,559.4 41,560.3 41.4,561.1 41.9,562.1 
	42.7,563 43.3,564 44,564.9 44.6,565.9 45.4,566.9 46,567.8 46.7,568.8 47.5,569.7 48.3,570.5 48.8,571.5 49.6,572.4 50.4,573.4 
	51.1,574.1 51.9,575.1 52.7,575.9 53.6,576.8 54.4,577.6 55.2,578.3 55.9,579.3 56.9,580.1 57.6,580.8 58.6,581.6 59.4,582.6 
	60.3,583.3 61.1,584.1 62.1,584.9 63,585.6 64,586.4 64.7,587 65.7,587.7 66.6,588.5 67.6,589.3 68.6,589.8 69.5,590.6 70.5,591.4 
	71.4,591.9 72.4,592.7 73.5,593.3 74.5,593.9 75.5,594.6 76.4,595.2 77.6,595.8 78.5,596.5 79.7,597.1 80.6,597.7 81.8,598.3 
	82.7,598.8 83.9,599.4 85,600 86,600.6 87.1,601.1 88.3,601.5 89.4,602.1 90.6,602.7 91.7,603.1 92.7,603.6 93.8,604.2 95,604.6 
	96.3,605 97.5,605.5 98.6,605.9 99.8,606.5 100.9,606.9 102.1,607.3 103.4,607.6 104.6,608 105.7,608.4 106.9,608.8 108,609.2 
	109.4,609.6 110.5,609.9 111.7,610.3 113,610.7 114.1,610.9 115.5,611.3 116.6,611.7 118,611.9 119.1,612.2 120.5,612.4 
	121.6,612.8 123,613 124.1,613.4 125.4,613.6 126.6,614 129.3,614.4 131.8,614.9 134.4,615.3 136.9,615.7 139.6,616.1 142.1,616.5 
	144.8,616.8 147.3,617.2 150,617.6 152.6,617.8 155.1,618.2 157.8,618.4 160.5,618.6 163,618.9 165.7,619.1 168.3,619.3 
	170.8,619.5 173.5,619.7 176,619.9 178.7,620.1 181.2,620.1 183.7,620.3 187.5,620.5 191.1,620.7 194.8,620.9 198.6,621.1 
	202.2,621.1 205.7,621.2 209.3,621.4 213,621.4 216.4,621.4 220.1,621.6 227.1,621.8 234,621.8 241.1,622 255.1,622.2 262,622.2 
	269.1,622.4 276.2,622.4 279.8,622.6 283.3,622.6 286.9,622.8 290.5,622.8 294.2,623 297.8,623.2 308,623.5 313.1,623.7 
	315.6,623.7 318.3,623.9 320.8,623.9 323.5,623.9 326,623.9 328.6,623.9 331.3,623.9 333.8,623.9 336.5,623.9 339,623.9 
	340.3,623.7 341.7,623.7 342.8,623.7 344.2,623.5 345.5,623.5 346.6,623.4 348,623.4 349.3,623.2 350.5,623.2 351.8,623 
	353.2,622.8 354.3,622.8 355.6,622.6 356.8,622.4 358.1,622.2 359.5,622 360.6,621.8 362,621.6 363.1,621.2 364.5,621.1 
	365.6,620.9 366.9,620.5 368.1,620.3 369.2,619.9 370.6,619.7 371.7,619.3 372.9,618.9 374.2,618.6 375.4,618.2 376.5,617.8 
	377.9,617.4 379,617 380.2,616.7 381.3,616.3 382.5,615.7 383.6,615.3 384.8,614.7 385.9,614.4 387.1,613.8 388,613.2 389.2,612.6 
	390.3,612.1 391.5,611.7 392.4,610.9 393.6,610.3 394.7,609.8 395.7,609.2 396.8,608.6 397.8,607.8 398.9,607.3 399.9,606.5 
	401,605.7 402,605.2 402.9,604.4 404.1,603.6 405.1,602.9 406,602.3 407,601.5 407.9,600.8 408.9,599.8 409.8,599 410.8,598.3 
	411.8,597.5 412.7,596.5 413.7,595.8 414.6,595 415.4,594.1 416.4,593.3 417.1,592.3 418.1,591.4 418.8,590.6 419.8,589.6 
	420.6,588.7 421.3,587.7 422.3,586.8 423.1,586 423.8,585.1 424.6,584.1 425.4,583.1 426.1,582 426.9,581 427.7,580.1 428.2,579.1 
	429,578.2 429.8,577 430.3,576 431.1,575.1 431.7,573.9 432.3,573 433,571.8 433.6,570.9 434.2,569.7 434.7,568.8 435.3,567.6 
	435.9,566.7 436.5,565.5 437,564.4 437.4,563.2 438,562.1 438.6,560.9 439,559.8 439.5,558.6 439.9,557.5 440.5,556.1 440.9,555 
	441.3,553.8 441.6,552.7 442,551.3 442.4,550.2 442.8,549 443.2,547.7 443.5,546.6 443.7,545.4 444.1,544.1 444.5,542.9 
	444.7,541.6 445.1,540.4 445.3,539.1 445.5,537.9 445.8,536.6 446,535.4 446.2,534.1 446.4,533 446.8,531.6 447,530.3 447.2,529.1 
	447.4,527.8 447.6,526.4 447.6,525.3 447.8,524 448,522.6 448.1,521.3 448.3,518.8 448.7,516.1 448.9,513.6 449.1,510.9 
	449.3,508.4 449.5,505.8 449.7,503.1 449.7,500.6 449.9,497.9 450.1,495.2 450.3,489.9 450.8,479.1 451,473.8 451.2,468.4 
	451.6,462.9 452.2,452.1 452.7,441.2 453.3,430.3 453.9,419.6 454.7,408.7 455.2,397.9 457.9,354.7 458.5,343.7 459.3,333 
	459.8,322.1 460.4,311.4 461,300.5 461.6,289.5 461.9,284.2 462.1,278.6 462.5,273.3 462.7,267.7 462.9,262.3 463.3,256.8 
	463.5,251.4 463.7,245.9 463.9,240.3 464,235 464.2,229.4 464.4,223.9 464.6,218.3 464.8,212.7 464.8,207.4 465,201.8 465,196.3 
	465.2,190.7 465.2,185.2 465.4,179.4 465.4,173.9 465.4,168.3 465.4,162.8 465.4,157.2 465.4,151.5 465.4,145.9 465.4,140.2 
	465.2,134.6 465.2,134.2 465.2,133.8 465.2,133.6 465.2,133.3 465.2,132.9 465.2,132.7 465,132.3 465,131.9 465,131.7 464.8,131.4 
	464.8,131 464.6,130.6 464.6,130.4 464.4,130 464.4,129.6 464.2,129.4 464,129.1 464,128.7 463.9,128.5 463.7,128.1 463.5,127.7 
	463.3,127.5 463.1,127.1 462.9,126.8 462.7,126.6 462.5,126.2 462.3,126 462.1,125.6 461.9,125.4 461.6,125 461.4,124.8 
	461.2,124.6 461,124.3 460.6,124.1 460.4,123.9 460,123.5 459.8,123.3 459.4,123.1 459.3,122.9 458.9,122.7 458.7,122.5 
	458.3,122.3 458.1,122.2 457.7,122 457.3,121.8 457.1,121.6 456.8,121.6 456.4,121.4 456.2,121.2 455.8,121 455.4,121 455.2,120.8 
	454.8,120.8 454.5,120.6 454.1,120.6 453.9,120.4 453.5,120.4 453.1,120.4 452.9,120.2 452.6,120.2 452.2,120.2 452,120.2 
	451.6,120.2 451.2,120.2 434.2,119.5 425,119.1 415.6,118.7 406.4,118.3 401.6,118.3 397,118.1 392.4,117.9 387.8,117.8 
	383.4,117.8 379,117.6 375.4,117.6 371.7,117.6 368.3,117.6 364.8,117.4 361.4,117.4 358.1,117.4 351.6,117.4 345.1,117.6 
	326.5,117.6 326,120.1 325.4,122.3 325.2,123.5 325,124.8 324.8,126 324.6,127.1 324.2,128.3 324,129.6 323.9,130.8 323.9,131.9 
	323.7,133.1 323.5,134.4 323.3,135.6 323.1,137.1 332.7,136.9 342.8,136.9 347.8,136.9 353,136.9 357.9,136.9 362.9,136.9 
	365.6,136.9 368.1,136.9 370.6,136.9 373.1,137.1 376.1,137.1 379,137.1 382.1,137.3 384.9,137.3 388,137.5 390.9,137.5 
	396.8,137.9 401.4,138.1 406,138.2 415.6,138.8 415.8,138.8 416.2,138.8 416.4,138.8 416.7,138.8 417.1,139 417.3,139 417.7,139 
	418.1,139.2 418.3,139.2 418.7,139.4 419,139.4 419.2,139.6 419.6,139.6 419.8,139.8 420.2,140 420.6,140 420.8,140.2 421.1,140.4 
	421.3,140.5 421.7,140.7 422.1,140.7 422.3,140.9 422.7,141.1 422.9,141.3 423.2,141.5 423.4,141.9 423.6,142.1 424,142.3 
	424.2,142.5 424.6,142.7 424.8,143 425,143.2 425.2,143.4 425.5,143.8 425.7,144 425.9,144.2 426.1,144.6 426.3,144.8 426.5,145.1 
	426.7,145.3 426.9,145.7 427.1,145.9 427.3,146.3 427.5,146.7 427.5,146.9 427.7,147.2 427.8,147.4 428,147.8 428,148.2 
	428.2,148.4 428.2,148.8 428.4,149.2 428.4,149.4 428.6,149.7 428.6,149.9 428.8,150.3 428.8,150.7 428.8,150.9 428.8,151.3 
	429,151.7 429,151.8 429,152.2 429.4,160.5 429.8,168.3 430.1,176.2 430.5,184 430.7,191.9 431.1,199.7 431.3,207.6 431.7,215.4 
	431.9,220.6 431.9,225.6 432.1,230.6 432.3,235.7 432.3,240.7 432.4,245.7 432.4,250.9 432.6,255.8 432.6,260.8 432.8,266 
	432.8,271 433,275.9 433,286.1 433.2,296.2 433.2,306.6 433.2,317.1 433.2,327.5 433.2,338 433.2,348.3 433,358.9 433,369.2 
	432.8,379.7 432.6,390.3 432.4,400.8 432.3,411.5 432.1,422.1 431.9,432.6 431.7,443.1 431.5,453.9 431.1,464.4 430.9,474.2 
	430.5,488.1 430.3,492.5 430.3,496.2 430.1,499.8 430,501.9 430,504 429.8,506.1 429.6,508.3 429.6,510.6 429.4,512.8 429.2,515.3 
	428.8,517.6 428.6,519.7 428.4,522 428,524.1 427.8,526.4 427.5,528.6 427.3,529.5 427.1,530.7 426.9,531.6 426.7,532.8 
	426.5,533.7 426.3,534.9 426.1,535.8 425.9,536.8 425.7,537.7 425.4,538.7 425.2,539.9 425,540.8 424.6,541.8 424.4,542.7 
	424,543.7 423.8,544.6 423.4,545.6 423.2,546.6 422.9,547.5 422.5,548.5 422.3,549.4 421.9,550.4 421.5,551.3 421.1,552.3 
	420.8,553.3 420.2,554.2 419.8,555 419.4,555.9 419,556.9 418.5,557.9 418.1,558.8 417.5,559.8 416.9,560.7 416.4,561.7 416,562.6 
	415.4,563.4 414.8,564.4 414.2,565.3 413.7,566.1 413.1,566.9 412.5,567.6 412.1,568.4 411.6,569.2 411,569.9 410.4,570.7 
	409.8,571.5 409.3,572.2 408.5,572.8 407.9,573.6 407.4,574.3 406.8,575.1 406.2,575.7 405.4,576.4 404.9,577 404.1,577.8 
	403.5,578.3 402.9,579.1 402.2,579.7 401.4,580.5 400.8,581 400.1,581.6 399.5,582.4 398.7,582.9 398,583.5 397.2,584.1 
	396.4,584.7 395.9,585.2 395.1,585.8 394.3,586.4 393.6,587 392.8,587.5 392,588.1 391.3,588.5 390.5,589.1 389.7,589.5 389,590 
	388.2,590.4 387.4,591 386.7,591.4 385.7,591.9 384.9,592.3 384.2,592.7 383.4,593.1 382.5,593.5 381.7,593.9 380.9,594.2 
	379.8,594.8 378.6,595.2 377.5,595.8 376.5,596.2 375.4,596.5 374.2,596.9 373.1,597.3 371.9,597.7 371,597.9 370,598.1 
	369.2,598.3 368.3,598.5 367.3,598.6 366.6,598.8 365.6,599 364.6,599.2 363.7,599.4 362.7,599.4 361.8,599.6 360.8,599.8 
	359.9,599.8 358.9,600 357.9,600 357,600.2 356,600.2 354.9,600.4 353.9,600.4 353,600.4 351.8,600.4 350.9,600.6 349.7,600.6 
	348.7,600.6 347,600.6 345.3,600.6 343.4,600.6 341.7,600.4 339.4,600.4 337.3,600.2 335,600.2 332.7,600 329.8,599.8 326.7,599.4 
	324.8,599.2 322.7,599 318.5,598.6 314.5,598.3 304.1,597.1 301.1,596.7 298,596.4 294.4,596 290.9,595.8 287.5,595.4 284,595 
	280.6,594.8 277.1,594.6 272.3,594.2 267.7,593.9 263,593.7 258.4,593.5 253.6,593.3 249,592.9 244.2,592.9 239.6,592.7 234,592.5 
	228.7,592.3 223.1,592.1 217.6,592.1 206.6,591.8 195.7,591.6 189.2,591.6 182.5,591.4 178.5,591.2 174.3,591.2 170.1,591 
	165.9,590.8 163.4,590.8 160.9,590.6 158.4,590.4 155.9,590.4 153.4,590.2 150.9,590 148.4,589.8 145.9,589.6 143.1,589.5 
	140.4,589.3 137.5,588.9 134.8,588.5 132.7,588.3 130.4,587.9 128.3,587.7 126,587.3 123.9,587 121.8,586.6 119.7,586.2 
	117.4,585.8 116.1,585.4 114.7,585.2 113.2,584.9 111.8,584.5 110.3,584.1 109,583.7 107.6,583.3 106.1,582.9 104.6,582.4 
	102.8,581.8 101.3,581.4 99.6,580.6 98.1,580.1 96.3,579.5 94.8,578.9 94,578.5 93.3,578.2 92.3,577.8 91.5,577.4 90.8,577 
	89.8,576.6 89.1,576.2 88.3,575.9 87.3,575.3 86.6,574.9 85.8,574.5 85,573.9 84.3,573.6 83.5,573.2 82.5,572.6 81.8,572.2 
	81,571.6 80.2,571.3 79.7,570.7 78.9,570.3 78.1,569.7 77.4,569.2 76.8,568.8 76,568.2 75.3,567.6 74.7,567 73.9,566.5 73.4,566.1 
	72.6,565.5 72,564.9 71.2,564.4 70.7,563.8 69.9,563.2 69.3,562.5 68.8,561.9 68.2,561.3 67.6,560.7 67,560.2 66.5,559.6 65.9,559 
	65.3,558.4 64.7,557.9 64.3,557.3 63.8,556.7 63.4,556.1 63,555.6 62.4,555 62.1,554.4 61.7,553.8 61.3,553.5 60.7,552.7 
	60.3,552.1 59.9,551.3 59.4,550.8 59,550.2 58.6,549.4 58.2,548.9 57.8,548.1 57.3,547.1 56.7,546.4 56.1,545.4 55.7,544.4 
	55.2,543.5 54.8,542.5 54.4,541.6 53.8,540.6 53.4,539.9 53.2,539.1 52.9,538.3 52.5,537.4 52.1,536.6 51.9,535.8 51.5,535.1 
	51.1,534.1 50.9,533.3 50.6,532.6 50,530.9 49.4,529.1 49,527.4 48.5,525.7 47.9,523.8 47.5,522 46.9,520.1 46.5,518.2 46.2,516.5 
	45.8,514.6 45.4,512.7 45,510.9 44.8,509 44.4,507.1 44.2,505.2 43.9,503.3 43.7,501.4 43.5,499.4 43.1,497.5 43.1,496 42.9,494.7 
	42.7,493.1 42.5,491.6 42.5,490.3 42.3,488.7 42.1,485.7 41.9,483.7 41.8,481.6 41.8,479.5 41.6,477.4 41.6,475.3 41.4,473.2 
	41.4,471.1 41.2,469.2 41.2,466.1 41,463.2 41,460.2 41,457.3 41,453.7 40.8,450.2 40.8,446.6 40.8,443.1 40.8,436.1 41,422.5 
	41,416.1 41,411 41,406 41,401 41,395.8 40.8,390.9 40.8,385.7 40.8,378.8 40.6,375.2 40.6,371.7 40.6,368.3 40.4,364.6 40.4,361.2 
	40.2,357.7 40.2,354.1 40,350.6 39.8,347.2 39.8,343.7 39.6,340.1 39.5,336.7 39.3,333.2 39.1,329.6 38.9,326.1 38.7,322.7 
	38.5,319.2 38.3,315.6 38.1,312.1 37.9,308.7 37.7,305.2 37.3,301.6 37,296.1 36.6,290.5 36,284.8 35.4,279.2 35,274.4 34.5,269.6 
	34.1,264.8 33.5,260.2 32.6,250.1 30.5,229.8 29.3,219.6 28.5,212.9 28,206.2 27.2,199.5 27,196.1 26.6,192.8 26.4,189.4 26,185.9 
	25.9,182.7 25.5,179.2 25.3,176 24.9,172.5 24.7,169.1 24.5,165.8 24.3,162.4 24.1,159.1 23.9,155.7 23.7,152.4 23.7,152 
	23.7,151.7 23.7,151.3 23.7,150.9 23.7,150.5 23.7,150.1 23.7,149.7 23.9,149.4 23.9,149 23.9,148.8 24.1,148.4 24.1,148 
	24.3,147.6 24.3,147.2 24.5,146.9 24.7,146.5 24.7,146.1 24.9,145.9 25.1,145.5 25.3,145.1 25.5,144.8 25.7,144.6 25.9,144.2 
	26,143.8 26.2,143.6 26.4,143.2 26.6,143 26.8,142.7 27,142.5 27.2,142.1 27.6,141.9 27.8,141.5 28,141.3 28.3,141.1 28.5,140.7 
	28.7,140.5 29.1,140.4 29.3,140.2 29.7,140 29.9,139.6 30.3,139.4 30.6,139.2 30.8,139 31.2,138.8 31.6,138.6 31.8,138.6 
	32.2,138.4 32.6,138.2 32.9,138.1 33.3,138.1 33.5,137.9 33.9,137.7 34.3,137.7 34.7,137.5 35,137.5 35.4,137.3 35.8,137.3 
	36.2,137.3 36.6,137.1 36.8,137.1 37.2,137.1 37.5,137.1 37.9,137.1 38.3,137.1 130.8,137.1 157,137.1 157,134.4 156.9,131.9 
	156.9,129.4 156.7,126.9 156.7,124.3 156.7,121.8 156.7,119.3 "/>
<polygon class="st1" points="312.4,112.4 303.2,112.4 275.6,112.4 261.2,112.4 247.1,112.4 218.5,112.4 207,112.4 201.5,112.4 
	195.7,112.4 190.2,112.4 184.4,112.2 181.6,112.2 178.9,112.2 176,112 173.1,112 173.1,113.9 173.1,116 173.1,117.9 173.1,119.9 
	173.3,121.4 173.3,122.9 173.5,126 173.7,129.1 173.7,131.9 184.2,131.9 211.4,131.9 250.3,131.9 263.1,131.9 276.7,131.9 
	300.9,131.9 311.4,131.9 311.4,131.9 311.4,130.4 311.6,129.1 311.6,127.5 311.6,126.2 311.6,124.8 311.8,123.3 311.8,122 
	311.8,120.4 312,118.5 312.2,116.4 312.2,114.5 "/>
<path class="st2" d="M156.7,116.8l-3.4-0.2l-4.2-0.2l-4.2-0.2l-4.2-0.2l-4.2-0.4l-4.2-0.4l-4.2-0.4l-4.2-0.4l-4.2-0.4l-4.2-0.4
	l-4.2-0.4l-8.4-0.8l-17-1.5l-8.4-0.8l-4.2-0.4l-4.2-0.4l-4.2-0.4l-4.2-0.4l-4.2-0.4l-4.2-0.4l-4.2-0.4l-4.2-0.4l-4.2-0.2l-4.2-0.2
	l-4.2-0.2l-4.2-0.2h-2.1h-2.1h-2.1h-2.5h-0.4H17h-0.4h-0.4h-0.4h-0.4h-0.4h-0.4h-0.4H14h-0.4h-0.4h-0.4l-0.4,0.2l-0.4,0.2l-0.4,0.2
	l-0.4,0.2l-0.4,0.2l-0.4,0.2l-0.4,0.2L9.8,108l-0.4,0.2L9,108.4l-0.4,0.2l-0.4,0.2l-0.4,0.2l-0.4,0.2l-0.2,0.2l-0.2,0.2l-0.2,0.2
	l-0.2,0.2l-0.2,0.2l-0.2,0.2l-0.2,0.2l-0.2,0.2l-0.2,0.2l-0.2,0.2l-0.2,0.2l-0.2,0.2L5,111.6l-0.2,0.2l-0.2,0.4l-0.2,0.4L4.2,113
	L4,113.3l-0.2,0.4l-0.2,0.4l-0.2,0.4l-0.2,0.4l-0.2,0.4l-0.2,0.4L2.7,116l-0.2,0.4l-0.2,0.4v0.4v0.4v0.4v0.4v0.4v0.4v0.4v0.4v0.4
	l-0.4,3.1l-0.2,3.1l-0.2,3.1l-0.2,3.1l-0.2,2.9L1,138.2l-0.2,2.9L0.6,144v2.9v2.9v2.9v2.9v2.9v2.9v2.9v2.9v2.9l0.2,2.9l0.2,2.9
	l0.2,2.9l0.2,2.9l0.2,2.9l0.2,2.9l0.2,2.9l0.2,2.7l0.2,2.7l0.2,2.7l0.2,2.7l0.2,2.7l0.2,2.7l0.2,2.7l0.4,2.7l0.4,2.7l0.4,2.7
	l0.4,2.7l0.4,2.7l0.6,5.4l0.8,5.4l0.8,5.4l0.8,5.2l2.1,15.7l0.8,5.2l0.8,5.2l0.6,5.2l0.6,5.2l0.4,2.5l0.4,2.5l0.2,2.5l0.2,2.5
	l0.2,2.5l0.2,2.5l0.2,1.9l0.2,1.9l0.4,4l0.4,4l0.2,4l0.2,4l0.2,4l0.2,4l0.2,4l0.2,4l0.2,4l0.2,4v4v4v4v4v4v4v4v4v4v8l-0.2,24.5v8.4
	v8.4v4.6v4.6v4.6v4.6v4.6v2.3v2.3v2.3v2.3v2.3l0.2,2.3l0.2,2.3l0.2,2.3l0.2,2.3l0.2,2.3l0.2,2.3l0.2,2.3l0.2,2.3l0.2,2.3l0.2,2.3
	l0.2,2.3l0.2,2.3l0.2,2.3l0.2,2.3l0.2,2.3l0.4,2.3l0.4,2.3l0.4,2.3l0.4,2.3l0.4,2.3l0.4,2.3l0.4,2.3l0.4,2.3l0.4,2.1l0.4,2.1
	l0.6,2.1l0.6,2.1l0.6,2.1l0.6,2.1l0.6,2.1l0.6,2.1l0.6,2.1l0.6,2.1l0.4,1l0.4,1l0.4,1l0.4,1l0.4,1l0.4,1l0.4,1l0.4,1l0.4,1l0.4,1
	l0.4,1l0.4,1l0.4,1l0.4,1l0.4,1l0.4,1l0.4,1l0.4,1l0.4,1l0.4,1l0.4,1l0.4,1l0.6,1l0.6,1l0.6,1l0.6,1l0.6,1l0.6,1l0.6,1l0.6,1l0.6,1
	l0.6,0.8l0.6,1l0.6,1l0.6,1l0.8,1l0.8,1l0.8,1l0.8,1l0.8,1l0.8,1l0.8,1l0.8,1l0.8,1l0.8,1l0.8,1l0.8,0.8l0.8,0.8l0.8,0.8l0.8,0.8
	l0.8,0.8l0.8,0.8l0.8,0.8l0.8,0.8l1,0.8l1,0.8l1,0.8l1,0.8l1,0.8l1,0.8l1,0.8l1,0.8l1,0.8l1,0.8l1,0.8l1,0.8l1,0.8l1,0.8l1,0.6
	l1,0.6l1,0.6l1,0.6l1,0.6l1,0.6l1,0.6l1,0.6l1.1,0.6l1.1,0.6l1.1,0.6l1.1,0.6l1.1,0.6l1.1,0.6l1.1,0.6l1.1,0.6l1.1,0.6l1.1,0.6
	l1.1,0.6l1.1,0.6l1.1,0.6l1.1,0.6l1.1,0.4l1.1,0.4l1.1,0.4l1.1,0.4l1.1,0.4l1.1,0.4l1.1,0.4l1.1,0.4l1.1,0.4l1.1,0.4l1.1,0.4
	l1.1,0.4l1.1,0.4l1.1,0.4l1.1,0.4l1.1,0.4l1.1,0.4l1.1,0.4l1.1,0.4l1.3,0.4l1.3,0.4l1.3,0.4l1.3,0.2l1.3,0.2l1.3,0.2l1.3,0.2
	l2.5,0.6l2.5,0.4l2.5,0.4l2.5,0.4l2.7,0.4l2.7,0.4l2.7,0.4l2.7,0.4l2.7,0.4l2.7,0.4l2.7,0.2l2.7,0.2l2.7,0.2l2.7,0.2l2.7,0.2
	l2.7,0.2l2.7,0.2l2.7,0.2l2.7,0.2l2.5,0.2l2.5,0.2l2.5,0.2l3.6,0.2l3.6,0.2l3.6,0.2l3.6,0.2l3.6,0.2l3.6,0.2l3.6,0.2l3.6,0.2h3.6
	h3.6l7.1,0.2l7.1,0.2l7.1,0.2l14,0.2l7.1,0.2l7.1,0.2l7.1,0.2h3.6h3.6h3.6l3.6,0.2l3.6,0.2l3.6,0.2l10.2,0.4l5.2,0.2h2.5h2.7h2.7
	h2.7h2.7h2.7h2.7h2.7h2.7h2.5h1.3h1.3h1.3h1.3h1.3h1.3l1.3-0.2l1.3-0.2l1.3-0.2l1.3-0.2l1.3-0.2l1.3-0.2l1.3-0.2l1.3-0.2l1.3-0.2
	l1.3-0.2l1.3-0.2l1.3-0.2l1.3-0.2l1.1-0.2l1.1-0.2l1.1-0.2l1.1-0.2l1.1-0.4l1.1-0.4l1.1-0.4l1.1-0.4l1.1-0.4l1.1-0.4l1.1-0.4
	l1.1-0.4l1.1-0.4l1.1-0.4l1.1-0.4l1.1-0.4l1.1-0.4l1.1-0.6l1.1-0.6l1.1-0.6l1.1-0.6l1.1-0.6l1.1-0.6l1.1-0.6l1.1-0.6l1.1-0.6
	l1.1-0.6l1.1-0.6l1.1-0.6l1.1-0.6l1-0.6l1-0.8l1-0.8l1-0.8l1-0.8l1-0.8l1-0.8l1-0.8l1-0.8l1-0.8l1-0.8l1-0.8l1-0.8l1-0.8l1-0.8
	l1-0.8l1-0.8l1-0.8l1-1l1-1l1-1l0.8-1l0.8-1l0.8-1l0.8-1l0.8-1l0.8-1l0.8-1l0.8-1l0.8-1l0.8-1l0.8-1l0.8-1l0.8-1l0.8-1l0.8-1l0.8-1
	l0.6-1l0.6-1l0.6-1l0.6-1l0.6-1l0.6-1.1l0.6-1.1l0.6-1.1l0.6-1.1l0.6-1.1l0.6-1.1l0.6-1.1l0.6-1.1l0.6-1.1l0.6-1.1l0.4-1.1l0.4-1.1
	l0.4-1.1l0.4-1.1l0.4-1.1l0.4-1.1l0.4-1.1l0.4-1.1l0.4-1.1l0.4-1.1l0.4-1.1l0.4-1.1l0.4-1.1l0.4-1.1l0.4-1.1l0.2-1.1l0.2-1.3
	l0.2-1.3l0.2-1.3l0.2-1.3l0.2-1.3l0.2-1.3l0.2-1.3l0.2-1.3l0.2-1.3l0.2-1.3l0.2-1.3l0.2-1.3l0.2-1.3l0.2-1.3l0.2-1.3l0.2-2.5
	l0.2-2.7l0.2-2.7l0.2-2.7l0.2-2.7l0.2-2.7l0.2-2.7l0.2-2.7l0.2-2.7l0.2-2.7l0.2-5.4l0.4-10.7l0.2-5.4l0.2-5.4l0.2-5.4l0.6-10.9
	l0.6-10.9l0.6-10.9l0.6-10.9l0.6-10.9l0.6-10.7L460,356l0.6-10.9l0.6-10.9l0.6-10.9l0.6-10.9l0.6-10.9l0.6-10.9l0.2-5.4l0.2-5.4
	l0.2-5.4l0.2-5.6l0.2-5.6l0.2-5.6l0.2-5.6l0.2-5.6l0.2-5.6l0.2-5.6l0.2-5.6l0.2-5.6l0.2-5.6l0.2-5.6l0.2-5.6l0.2-5.6l0.2-5.6
	l0.2-5.6v-5.6V180v-5.6v-5.6v-5.6v-5.6v-5.6v-5.6v-5.6v-5.7V135v-0.4v-0.4v-0.4v-0.4v-0.4v-0.4v-0.4v-0.4v-0.4v-0.4v-0.4l-0.2-0.4
	l-0.2-0.4l-0.2-0.4l-0.2-0.4l-0.2-0.4l-0.2-0.4l-0.2-0.4l-0.2-0.4l-0.2-0.4l-0.2-0.4l-0.2-0.4l-0.2-0.4l-0.2-0.4l-0.2-0.4L464,125
	l-0.2-0.2l-0.2-0.2l-0.2-0.2l-0.2-0.2l-0.2-0.2l-0.2-0.2l-0.2-0.2l-0.2-0.2l-0.2-0.2l-0.2-0.2l-0.2-0.2l-0.4-0.2l-0.4-0.2l-0.4-0.2
	l-0.4-0.2L460,122l-0.4-0.2l-0.4-0.2l-0.4-0.2l-0.4-0.2l-0.4-0.2l-0.4-0.2l-0.4-0.2l-0.4-0.2l-1.7,0.4l-0.4-0.2h-0.4h-0.4h-0.4h-0.4
	h-0.4h-0.4h-0.4h-0.4h-0.4H451h-0.4l-26.2-1.1l-9.4-0.4l-9.4-0.4l-4.6-0.2l-4.6-0.2l-4.6-0.2l-4.6-0.2l-4.4-0.2h-4.4h-3.6h-3.6h-3.4
	h-3.4h-3.4h-3.3H351h-6.3l-18.8,0.2l-0.6,2.3l-0.6,2.3l-0.2,1.1l-0.2,1.1l-0.2,1.1l-0.2,1.1l-0.2,1.1l-0.2,1.1l-0.2,1.1l-0.2,1.1
	l-0.2,1.1l-0.2,1.1l-0.2,1.1l-0.2,1.5h9.4H342h5h5h5h5h2.5h2.5h2.5h2.5h2.9h2.9h2.9l2.9,0.2l2.9,0.2l2.9,0.2l5.9,0.2l4.6,0.2
	l4.6,0.2l9.6,0.6h0.4h0.4h0.4h0.4h0.4h0.4h0.4h0.4h0.4h0.4l0.4,0.2l0.4,0.2l0.4,0.2l0.4,0.2l0.4,0.2l0.4,0.2l0.4,0.2l0.4,0.2
	l0.4,0.2l0.4,0.2l0.4,0.2l0.4,0.2l0.4,0.2l0.2,0.2l0.2,0.2l0.2,0.2l0.2,0.2l0.2,0.2l0.2,0.2l0.2,0.2l0.2,0.2l0.2,0.2l0.2,0.2
	l0.2,0.2l0.2,0.2l0.2,0.2l0.2,0.2l0.2,0.2l0.2,0.2l0.2,0.4l0.2,0.4l0.2,0.4l0.2,0.4l0.2,0.4l0.2,0.4l0.2,0.4l0.2,0.4l0.2,0.4
	l0.2,0.4l0.2,0.4l0.2,0.4l0.2,0.4v0.4v0.4v0.4v0.4v0.4v0.4v0.4v0.4v0.4v0.4l0.4,8.2l0.4,7.9l0.4,7.9l0.4,7.9l0.4,7.9l0.4,7.9
	l0.2,7.9l0.2,7.9l0.2,5l0.2,5l0.2,5l0.2,5l0.2,5l0.2,5l0.2,5l0.2,5v5v5v5v5l0.2,10.2v10.2v10.5v10.5v10.5v10.5v10.5v10.5l-0.2,10.5
	l-0.2,10.5l-0.2,10.5l-0.2,10.5l-0.2,10.5l-0.2,10.5l-0.2,10.5l-0.2,10.5l-0.2,10.5l-0.2,10.5l-0.2,9.8l-0.4,14l-0.2,4.4l0.4,3.4
	l-0.2,3.6v2.1L430,504l-0.2,2.1l-0.2,2.1l-0.2,2.3l-0.2,2.3l-0.2,2.3l-0.2,2.3l-0.2,2.3l-0.2,2.1l-0.2,2.1l-0.4,2.1l-0.4,2.1l-0.2,1
	l-0.2,1l-0.2,1l-0.2,1l-0.2,1l-0.2,1l-0.2,1l-0.2,1l-0.2,1l-0.2,1l-0.2,1l-0.2,1l-0.2,1l-0.2,1l-0.2,1l-0.4,1l-0.4,1l-0.4,1l-0.4,1
	l-0.4,1l-0.4,1l-0.4,1l-0.4,1l-0.4,1l-0.4,1l-0.4,1l-0.4,1l-0.4,1l-0.4,1l-0.4,1l-0.6,1l-0.6,1l-0.6,1l-0.6,1l-0.6,1l-0.6,1l-0.6,1
	l-0.6,1l-0.6,0.8l-0.6,0.8l-0.6,0.8l-0.6,0.8l-0.6,0.8l-0.6,0.8l-0.6,0.8l-0.6,0.8l-0.6,0.8l-0.6,0.8l-0.6,0.8l-0.6,0.8l-0.6,0.8
	l-0.6,0.8l-0.6,0.8l-0.6,0.8l-0.6,0.8l-0.6,0.6l-0.6,0.6l-0.8,0.6l-0.8,0.6l-0.8,0.6l-0.8,0.6l-0.8,0.6l-0.8,0.6l-0.8,0.6l-0.8,0.6
	l-0.8,0.6l-0.8,0.6l-0.8,0.6l-0.8,0.6l-0.8,0.6l-0.8,0.6l-0.6,1.3l-0.8,0.6l-0.8,0.6l-0.8,0.6l-0.8,0.6l-0.8,0.4l-0.8,0.4l-0.8,0.4
	l-0.8,0.4l-0.8,0.4l-0.8,0.4l-0.8,0.4l-0.8,0.4l-0.8,0.4l-0.8,0.4l-1.1,0.6l-1.1,0.4l-1.1,0.4l-1.1,0.4l-1.1,0.4l-1.1,0.4l-1.1,0.4
	l-1.1,0.4l-1,0.2l-1,0.2l-1,0.2l-1,0.2l-1,0.2l-1,0.2l-1,0.2l-1,0.2l-1,0.2l-1,0.2l-1,0.2l-1,0.2l-1,0.2l-1,0.2h-1h-1h-1h-1h-1h-1
	h-1h-1h-1h-1h-1.7h-1.7H344h-1.7h-2.3l-2.3-0.2l-2.3-0.2l-2.3-0.2l-2.9-0.2l-2.9-0.2l-2.1-0.2l-2.1-0.2l-4.2-0.4l-4.2-0.4l-10.3-1.1
	l-3.1-0.4l-3.1-0.4l-3.4-0.4l-3.4-0.4l-3.4-0.4l-3.4-0.4l-3.4-0.2l-3.4-0.2l-4.6-0.4l-4.6-0.4l-4.8-0.2l-4.8-0.2l-4.8-0.2l-4.8-0.2
	l-4.8-0.2l-4.8-0.2l-5.6-0.2l-5.6-0.2l-5.6-0.2l-5.6-0.2l-10.9-0.2l-10.9-0.2l-6.7-0.2l-6.7-0.2l-4.2-0.2l-4.2-0.2l-4.2-0.2
	l-4.2-0.2l-2.5-0.2l-2.5-0.2l-2.5-0.2l-2.5-0.2l-2.5-0.2l-2.5-0.2l-2.5-0.2l-2.5-0.2l-2.7-0.2l-2.7-0.2l-2.7-0.2l-2.7-0.4l-2.1-0.2
	l-2.1-0.4l-2.1-0.4l-2.1-0.4l-2.1-0.4l-2.1-0.4l-2.1-0.4l-2.1-0.4l-1.3-0.4l-1.3-0.4l-1.3-0.4l-1.3-0.4l-1.3-0.4l-1.3-0.4l-1.3-0.4
	l-1.3-0.4l-1.7-0.6l-1.7-0.6l-1.7-0.6l-1.7-0.6l-1.5-0.6l-1.5-0.6l-1.5-0.6l-0.8-0.4l-0.8-0.4l-0.8-0.4l-0.8-0.4l-0.8-0.4l-0.8-0.4
	l-0.8-0.4l-0.8-0.4l-0.8-0.4l-0.8-0.4l-0.8-0.4l-0.8-0.4l-0.8-0.4l-0.8-0.4l-0.8-0.4l-0.8-0.6l-0.8-0.6l-0.8-0.6l-0.8-0.6l-0.8-0.6
	l-0.8-0.6l-0.8-0.6l-0.8-0.6l-0.8-0.6l-0.8-0.6l-0.8-0.6l-0.8-0.6l-0.8-0.6l-0.8-0.6l-0.6-0.6l-0.6-0.6l-0.6-0.6l-0.6-0.6l-0.6-0.6
	l-0.6-0.6l-0.6-0.6l-0.6-0.6l-0.6-0.6l-0.6-0.6l-0.6-0.6l-0.6-0.6l-0.6-0.6l-0.4-0.6l-0.4-0.6l-0.4-0.6l-0.4-0.6l-0.4-0.6l-0.4-0.6
	l-0.4-0.6l-0.4-0.6l-0.4-0.6l-0.4-0.6l-0.4-0.6l-0.4-0.6l-0.4-0.6l-0.4-0.6l-0.4-0.6l-0.4-0.8l-0.6-1l-0.6-1l-0.6-1l-0.6-1l-0.4-1
	l-0.4-1l-0.4-1l-0.4-1l-0.4-0.8l-0.4-0.8l-0.4-0.8l-0.4-0.8l-0.4-0.8l-0.4-0.8l-0.4-0.8l-0.4-0.8l-0.4-0.8l-0.4-0.8l-0.6-1.7
	l-0.6-1.7l-0.6-1.7l-0.6-1.7l-0.6-1.9l-0.4-1.9l-0.4-1.9l-0.4-1.9l-0.4-1.9l-0.4-1.9l-0.4-1.9l-0.4-1.9l-0.4-1.9l-0.4-1.9l-0.4-1.9
	l-0.2-1.9l-0.2-1.9l-0.2-1.9l-0.2-1.9l-0.2-1.5l-0.2-1.5l-0.2-1.5l-0.2-1.5l-0.2-1.5l-0.2-1.5l-0.2-2.9l-0.2-2.1l-0.2-2.1l-0.2-2.1
	l-0.2-2.1l-0.2-2.1v-2.1v-2.1v-2.1v-2.9v-2.9v-2.9v-2.9v-3.6v-3.6v-3.6V441v-7.1v-13.6v-6.5v-5v-5v-5v-5v-5v-5l-0.2-7.1v-3.4V370
	v-3.4v-3.4v-3.4l-0.2-3.4l-0.2-3.4l-0.2-3.4l-0.2-3.4l-0.2-3.4L41,339l-0.2-3.4l-0.2-3.4l-0.2-3.4l-0.2-3.4l-0.2-3.4l-0.2-3.4
	l-0.2-3.4l-0.2-3.4l-0.2-3.4l-0.2-3.4l-0.2-3.4l-0.4-5.6l-0.4-5.6l-0.6-5.6l-0.6-5.6l-0.4-4.8l-0.4-4.8l-0.4-4.8l-0.6-4.8l-1.1-10.2
	L32,229.2l-1.1-10.2l-0.8-6.7l-0.8-6.7l-0.6-6.7l-0.4-3.4l-0.4-3.4l-0.4-3.4l-0.4-3.4l-0.2-3.4l-0.2-3.4l-0.2-3.4l-0.2-3.4l-0.2-3.4
	l-0.2-3.4l-0.2-3.4l-0.2-3.4l-0.2-3.4l-0.2-3.4v-0.4v-0.4v-0.4v-0.4v-0.4v-0.4V148v-0.4v-0.4v-0.4v-0.4v-0.4l0.2-0.4l0.2-0.4
	l0.2-0.4l0.2-0.4l0.2-0.4l0.2-0.4l0.2-0.4l0.2-0.4l0.2-0.4l0.2-0.4l0.2-0.4l0.2-0.4l0.2-0.4l0.2-0.4l0.2-0.4l0.2-0.4l0.2-0.2
	l0.2-0.2l0.2-0.2l0.2-0.2l0.2-0.2l0.2-0.2l0.2-0.2l0.2-0.2l0.2-0.2l0.2-0.2l0.4-0.2l0.4-0.2l0.4-0.2l0.4-0.2l0.4-0.2l0.4-0.2
	l0.4-0.2l0.4-0.2l0.4-0.2l0.4-0.2l0.4-0.2l0.4-0.2l0.4-0.2l0.4-0.2l0.4-0.2l0.4-0.2h0.4h0.4h0.4h0.4h0.4h0.4h0.4h0.4h0.4h0.4
	c39.6,0,79.1,0,118.7,0l-0.2-2.5V130v-2.5V125v-2.5v-2.5v-2.5L156.7,116.8"/>
<path class="st2" d="M312.4,112.4h-9.2h-27.6h-14.4h-14.4h-28.5H207h-5.7h-5.7h-5.7H184h-2.9h-2.9h-2.9h-2.9v1.9v1.9v1.9v1.9v1.5
	v1.5l0.2,3.1l0.2,3.1l0.2,3.1h37.7h38.9h12.8h13.6h24.1h10.5C311.6,125.4,311.8,118.9,312.4,112.4"/>
<polyline class="st3" points="307.8,169.7 307.8,170.4 307.8,171.2 307.8,172 308,172.5 308,172.7 308,173.1 308.1,173.3 
	308.1,173.7 308.1,173.9 308.3,174.1 308.3,174.4 308.3,174.6 308.5,174.8 308.5,175 308.5,175.2 308.7,175.4 308.7,175.6 
	308.9,175.8 308.9,176 309.1,176.2 309.1,176.2 309.1,176.4 309.3,176.4 309.3,176.4 309.3,176.5 309.3,176.5 309.5,176.7 
	309.5,176.7 309.5,176.7 309.7,176.9 309.7,176.9 309.7,176.9 309.7,176.9 309.9,177.1 309.9,177.1 309.9,177.1 310.1,177.3 
	310.1,177.3 310.1,177.3 310.3,177.3 310.3,177.3 310.3,177.5 310.4,177.5 310.4,177.5 310.4,177.5 310.6,177.5 310.6,177.7 
	310.6,177.7 310.8,177.7 310.8,177.7 310.8,177.7 311,177.9 311,177.9 311.2,177.9 311.4,177.9 311.4,177.9 311.6,178.1 
	311.8,178.1 312,178.1 312,178.1 312.2,178.1 312.4,178.1 312.6,178.1 312.7,178.3 312.9,178.3 313.3,178.3 313.9,178.3 
	315.2,178.3 315.4,178.3 315.8,178.3 316.2,178.3 316.4,178.3 316.6,178.1 316.8,178.1 317,178.1 317,178.1 317.1,178.1 
	317.3,178.1 317.5,177.9 317.7,177.9 317.7,177.9 317.9,177.9 317.9,177.9 317.9,177.7 318.1,177.7 318.1,177.7 318.3,177.7 
	318.3,177.7 318.3,177.5 318.5,177.5 318.5,177.5 318.7,177.5 318.7,177.5 318.7,177.3 318.9,177.3 318.9,177.3 319.1,177.1 
	319.1,177.1 319.1,177.1 319.3,177.1 319.3,176.9 319.3,176.9 319.4,176.9 319.4,176.7 319.6,176.7 319.6,176.5 319.6,176.5 
	319.8,176.5 319.8,176.4 319.8,176.4 320,176.2 320,176.2 320,176 320.2,176 320.2,175.8 320.4,175.6 320.6,175.2 320.6,175 
	320.8,174.8 320.8,174.6 321,174.3 321,174.1 321.2,173.7 321.4,173.5 321.4,173.1 321.6,172.7 321.6,172.3 321.6,172 321.7,171.2 
	321.9,170.4 322.1,169.5 322.1,168.5 322.3,167.5 322.3,166.4 322.3,165.2 322.5,161.6 322.5,154.5 322.5,152.8 322.5,150.9 
	322.5,149.2 322.5,147.4 322.7,145.5 322.7,143.8 322.7,142.1 322.9,140.4 323.1,138.6 323.3,136.7 323.3,135.6 323.5,134.2 
	323.7,132.9 323.9,131.7 324,130.4 324.2,129.1 324.4,127.9 324.6,126.6 324.8,125.4 325,124.1 325.4,122.7 325.6,121.6 
	326.2,119.1 326.7,116.6 327.3,113.9 327.9,111.4 330.4,101.3 330.9,98.8 331.5,96.1 332.1,93.6 332.7,90.9 332.9,89.6 333.2,88.5 
	333.4,87.1 333.6,85.8 333.8,84.4 334,83.1 334.4,81.7 334.6,80.4 334.8,79.1 334.8,77.7 335,76.2 335.2,74.9 335.3,73.5 
	335.3,72.2 335.5,70.6 335.5,69.3 335.7,68 335.7,66.4 335.7,65.1 335.7,63.6 335.7,62.2 335.7,60.7 335.7,59.1 335.7,57.8 
	335.5,56.3 335.5,54.7 335.3,53.2 335.2,51.7 335,50.3 334.8,49 334.6,47.7 334.4,46.1 334.2,44.8 334,43.4 333.6,42.1 333.4,40.6 
	333,39.2 332.9,37.9 332.5,36.6 332.1,35.2 331.7,33.9 331.3,32.3 330.7,31.2 330.4,29.8 330,28.5 329.4,27.2 328.8,25.8 
	328.4,24.7 327.9,23.5 327.3,22.2 326.9,21.6 326.7,21 326.3,20.5 326.2,19.9 325.8,19.3 325.4,18.7 325.2,18.2 324.8,17.8 
	324.4,17.2 324,16.6 323.9,16.1 323.5,15.7 323.1,15.1 322.7,14.5 322.3,14.1 321.9,13.6 321.6,13.2 321.2,12.8 320.8,12.2 
	320.4,11.8 320,11.5 319.6,11.1 319.3,10.7 318.9,10.3 318.5,9.9 318.1,9.5 317.7,9.2 317.3,8.8 317,8.6 316.6,8.2 316.2,7.8 
	315.8,7.6 315.2,7.2 314.9,7.1 314.5,6.7 314.1,6.5 313.5,6.1 313.1,5.9 312.7,5.5 312.2,5.3 311.8,5.1 311.4,5 310.8,4.6 
	310.4,4.4 309.9,4.2 309.5,4 308.9,3.8 308.5,3.6 307.6,3.2 306.6,2.8 305.5,2.7 304.5,2.3 303.6,2.1 302.6,1.7 301.4,1.5 
	300.5,1.3 299.3,1.1 298.4,0.9 297.2,0.9 296.1,0.7 295.1,0.5 294,0.5 292.8,0.4 291.7,0.4 290.5,0.4 289.4,0.4 288.2,0.4 
	287.1,0.4 285.9,0.4 284.8,0.4 283.6,0.4 282.5,0.4 281.3,0.4 280.2,0.5 279,0.5 277.9,0.7 275.4,0.7 273.1,1.1 270.8,1.3 
	261.2,2.1 258.9,2.3 256.6,2.5 254.1,2.7 253,2.8 251.8,2.8 249.9,3 247.8,3 245.9,3 243.8,3 241.9,3 240,3 238.1,3 235.9,3 
	228.3,3 226.4,3 224.5,3 222.5,3 220.6,3 218.7,3 216.8,3.2 214.9,3.2 213,3.4 212,3.4 211.1,3.4 210.1,3.6 209.1,3.6 208.2,3.8 
	207.2,3.8 206.3,4 205.3,4.2 204.3,4.2 203.4,4.4 202.4,4.6 201.3,4.8 200.3,5 199.4,5.1 198.4,5.3 197.5,5.5 196.5,5.7 195.3,5.9 
	194.4,6.3 193.4,6.5 192.3,6.9 191.3,7.1 190.4,7.4 189.2,7.8 188.1,8.2 186.7,8.6 185.4,9.2 184.2,9.5 182.9,10.1 181.6,10.7 
	180.4,11.3 179.1,11.8 177.9,12.4 176.6,13 175.4,13.6 174.3,14.3 172.9,15.1 172.4,15.3 171.8,15.7 171.2,16.1 170.6,16.4 
	170.1,16.8 169.7,17.2 169.1,17.6 168.5,18 168,18.4 167.4,18.9 167,19.3 166.4,19.7 165.9,20.1 165.5,20.5 164.9,21 164.5,21.4 
	163.9,21.8 163.6,22.2 163,22.8 162.6,23.1 162.2,23.7 161.8,24.1 161.3,24.7 160.9,25.1 160.5,25.6 160.1,26 159.7,26.6 159.5,27 
	159.1,27.5 158.8,28.1 158.4,28.7 158.2,29.1 157.8,29.7 157.6,30.2 157.4,30.8 157,31.2 156.9,31.8 156.7,32.3 156.5,32.7 
	156.3,33.3 156.3,33.7 156.1,34.1 155.9,34.4 155.9,35 155.7,35.4 155.7,35.8 155.5,36.7 155.3,37.5 155.1,38.5 155.1,39.4 
	154.9,40.4 154.9,41.1 154.9,42.1 154.9,43.1 154.9,44 154.9,45 154.9,45.9 154.9,46.9 155.1,47.9 155.1,48.8 155.3,49.8 
	155.3,50.7 155.5,52.6 155.9,54.6 156.7,60.5 156.9,62.2 157,64.1 157.2,65.9 157.2,67.8 157.4,69.5 157.6,71.2 157.6,72.9 
	157.6,74.7 157.8,76.6 157.8,78.1 157.8,79.8 157.8,81.6 157.8,83.3 157.8,85 157.8,86.7 157.6,88.3 157.6,90 157.4,93.2 
	157.4,96.5 157,103.2 156.9,106.5 156.9,109.7 156.7,111.4 156.7,113 156.7,114.7 156.7,116.4 156.7,118.1 156.7,120.1 156.7,122 
	156.7,123.9 156.7,125.8 156.7,127.7 156.9,129.6 156.9,131.5 157,135.4 157.2,139.2 157.6,150.7 157.8,154.7 158,158.5 158,160.5 
	158.2,162.4 158.2,164.5 158.2,166.4 158.2,168.3 158.2,170.2 158.2,172.1 158.2,174.1 158.2,176 158.2,177.9 158.2,178.1 
	158.2,178.5 158.2,178.7 158.2,178.8 158.2,179 158.2,179.2 158.2,179.4 158.2,179.6 158.2,179.8 158.2,180 158.4,180.2 
	158.4,180.2 158.4,180.4 158.4,180.6 158.6,180.8 158.6,180.8 158.6,180.8 158.6,181 158.6,181 158.6,181 158.6,181.1 158.8,181.1 
	158.8,181.1 158.8,181.3 158.8,181.3 158.8,181.3 159,181.3 159,181.5 159,181.5 159,181.5 159,181.5 159.1,181.7 159.1,181.7 
	159.1,181.7 159.1,181.7 159.1,181.9 159.3,181.9 159.3,181.9 159.3,181.9 159.3,182.1 159.5,182.1 159.5,182.1 159.5,182.1 
	159.5,182.1 159.7,182.1 159.7,182.3 159.7,182.3 159.7,182.3 159.9,182.3 159.9,182.3 159.9,182.3 160.1,182.5 160.1,182.5 
	160.1,182.5 160.3,182.5 160.5,182.5 160.5,182.7 160.7,182.7 160.7,182.7 160.9,182.7 161.1,182.7 161.1,182.7 161.3,182.9 
	161.4,182.9 161.6,182.9 161.8,182.9 162,182.9 162.4,182.9 163,182.9 163.6,182.9 164.9,182.9 165.7,182.9 166,182.9 166.2,182.9 
	166.6,182.9 167,182.9 167.4,182.9 167.4,182.7 167.6,182.7 167.8,182.7 168,182.7 168.2,182.7 168.3,182.5 168.5,182.5 
	168.5,182.5 168.7,182.5 168.9,182.3 169.1,182.3 169.3,182.1 169.3,182.1 169.5,182.1 169.5,181.9 169.7,181.9 169.7,181.9 
	169.9,181.9 169.9,181.7 169.9,181.7 170.1,181.7 170.1,181.7 170.1,181.5 170.3,181.5 170.3,181.5 170.3,181.3 170.4,181.3 
	170.4,181.3 170.4,181.1 170.6,181.1 170.6,181.1 170.6,181 170.6,181 170.8,181 170.8,180.8 170.8,180.8 171,180.6 171,180.6 
	171,180.6 171,180.4 171.2,180.4 171.2,180.2 171.2,180.2 171.2,180 171.4,179.8 171.4,179.6 171.6,179.4 171.6,179.2 171.8,179 
	171.8,178.8 171.8,178.7 172,178.3 172,178.1 172,177.9 172,177.5 172.2,177.3 172.2,176.9 172.2,176.5 172.2,176.4 172.2,176 
	172.2,175.6 172.2,174.4 172.2,173.1 172.2,170.4 172,167.7 172,165.2 172,163.3 171.8,161.4 171.8,159.5 171.6,157.6 171.4,155.3 
	171.4,153 170.4,139.4 170.3,135.9 170.1,132.3 169.9,130.6 169.9,128.7 169.7,126.9 169.7,125 169.7,122.7 169.7,120.4 
	169.7,119.3 169.7,117.9 169.7,116.8 169.7,115.6 169.7,114.1 169.7,112.4 169.9,110.9 169.9,109.1 170.1,107.6 170.1,105.9 
	170.4,102.6 170.6,98.4 171.4,90 171.6,87.9 171.8,85.8 171.8,83.9 172,81.9 172.2,80 172.2,78.1 172.4,76.2 172.4,74.3 172.4,72.4 
	172.6,70.4 172.6,68.5 172.6,66.4 172.6,64.3 172.6,62.4 172.6,60.3 172.2,53.2 172.2,51.9 172.2,50.5 172.2,49.2 172.2,48.4 
	172.2,47.5 172.2,46.7 172.4,45.9 172.4,45.4 172.4,44.6 172.4,43.8 172.6,43.3 172.6,42.7 172.7,42.1 172.7,41.7 172.9,41.1 
	172.9,40.8 173.1,40.4 173.1,40.2 173.1,40 173.3,39.8 173.3,39.8 173.3,39.6 173.5,39.4 173.5,39.2 173.7,39 173.7,38.8 
	173.9,38.7 173.9,38.5 174.1,38.3 174.3,38.3 174.3,38.1 174.5,37.9 174.5,37.7 174.7,37.5 174.9,37.3 175,37.3 175.2,37.1 
	175.4,36.9 175.6,36.7 175.8,36.6 176,36.4 176.2,36.2 176.6,36 177,35.6 177.3,35.4 177.5,35.2 178.1,34.8 178.9,34.4 179.4,34.1 
	180.2,33.7 181,33.3 181.9,32.9 182.7,32.5 183.7,32.3 184.4,32 185.4,31.6 186.3,31.4 187.3,31 188.3,30.8 189.4,30.4 190.4,30.2 
	191.5,29.8 192.7,29.7 194,29.5 195.2,29.3 196.1,29.1 196.9,28.9 197.8,28.9 198.6,28.7 199.6,28.5 200.3,28.5 201.3,28.3 
	202,28.3 203,28.3 203.8,28.1 205.7,28.1 207.4,27.9 209.1,27.9 211.1,27.9 212.8,27.7 214.7,27.7 216.4,27.7 218.1,27.7 
	220.1,27.9 223.7,27.9 230,28.1 233.1,28.3 236.3,28.3 238.8,28.3 241.3,28.3 243.8,28.3 246.1,28.3 248.6,28.3 249.7,28.1 
	251.1,28.1 252.2,28.1 253.4,27.9 254.7,27.9 255.9,27.9 257.2,27.7 258.4,27.7 261,27.4 264.3,27.2 274.3,26.2 276.5,26 
	278.8,25.8 281.1,25.6 282.3,25.4 283.6,25.4 284.6,25.4 285.7,25.3 286.7,25.3 287.8,25.3 288.8,25.3 289.8,25.3 290.7,25.3 
	291.7,25.3 292.6,25.3 293.4,25.3 294.4,25.4 295.3,25.4 296.1,25.4 296.7,25.6 297.4,25.6 298.2,25.8 299,26 299.5,26 300.1,26.2 
	300.9,26.4 301.3,26.6 301.8,26.6 302.2,26.8 302.6,27 302.8,27 303.2,27.2 303.4,27.4 303.6,27.4 303.7,27.5 303.9,27.5 
	304.1,27.7 304.3,27.7 304.3,27.9 304.5,27.9 304.7,28.1 304.7,28.1 304.9,28.3 305.1,28.3 305.1,28.5 305.3,28.5 305.5,28.7 
	305.5,28.7 305.7,28.9 305.7,28.9 305.9,29.1 305.9,29.3 306,29.3 306.2,29.5 306.2,29.7 306.4,29.7 306.4,29.8 306.6,30 
	306.8,30.2 306.8,30.4 307,30.6 307.2,31 307.4,31.2 307.4,31.4 307.8,32 308,32.5 308.1,32.9 308.3,33.3 308.5,33.9 308.7,34.6 
	309.1,35.4 309.3,36.2 309.5,37.1 309.9,38.1 310.1,39 310.3,40 310.4,41 310.6,41.9 310.8,43.1 311,44 311.2,45.2 311.4,46.3 
	311.4,47.5 311.6,48.6 311.6,49.8 311.8,50.9 312,52.1 312,53.2 312,54.4 312.2,56.3 312.2,58.2 312.2,59.5 312.4,60.9 312.4,62.2 
	312.4,63.6 312.4,64.9 312.4,66 312.4,67.4 312.4,68.7 312.2,70.1 312.2,71.4 312.2,72.6 312.2,73.9 312,76.6 311.8,79.1 
	311.6,81.7 311.4,84.2 311,87.3 310.8,90.2 310.4,93.2 310.3,96.1 309.3,104.5 308.9,108.8 308.7,110.9 308.5,112.8 308.1,116 
	308,119.3 307.8,120.8 307.8,122.5 307.6,124.1 307.6,125.6 307.4,127.1 307.4,128.5 307.4,129.8 307.2,131.4 307.2,132.7 
	307.2,134.2 307.2,135.6 307.2,136.9 307.2,138.4 307.2,140 307.2,141.3 307.2,142.8 307.2,145.7 307.4,148.8 307.6,158.5 
	307.6,160.3 307.8,162 307.8,164.3 307.8,166.6 307.8,168.1 307.8,169.7 "/>
</svg>
